<svg width="36" height="37" viewBox="0 0 36 37" fill="none" xmlns="http://www.w3.org/2000/svg">
<g clip-path="url(#clip0_1_15924)">
<path d="M18.05 34.854C9.09252 34.8605 1.82268 27.5733 1.81836 18.5841C1.81332 9.50206 9.04356 2.21854 18.0608 2.2207C27.0284 2.22286 34.2565 9.51574 34.2551 18.5589C34.2529 27.5633 27.0097 34.8468 18.05 34.854Z" fill="#FF7E00"/>
<path d="M18.0055 36.4184C13.2233 36.4184 8.72615 34.5594 5.34143 31.1833C1.95311 27.8036 0.0861477 23.3108 0.0839877 18.5307C0.0811077 13.7031 1.94087 9.17937 5.31839 5.79321C8.69591 2.40777 13.2089 0.542969 18.0249 0.542969C18.0264 0.542969 18.0285 0.542969 18.03 0.542969C22.8223 0.544409 27.3201 2.41065 30.6941 5.79753C34.0673 9.18369 35.9249 13.6967 35.9234 18.5041C35.9227 23.2914 34.0615 27.7892 30.6833 31.1696C27.3043 34.5507 22.8065 36.4141 18.0185 36.4177C18.0149 36.4184 18.0098 36.4184 18.0055 36.4184ZM18.0249 1.25937C13.4018 1.25937 9.07103 3.04857 5.82959 6.29793C2.58671 9.54945 0.801828 13.8932 0.803988 18.5307C0.806148 23.1193 2.59895 27.4328 5.85119 30.6771C9.09983 33.9179 13.4162 35.702 18.0062 35.702C18.0105 35.702 18.0149 35.702 18.0192 35.702C22.6142 35.6984 26.9306 33.9099 30.1735 30.6649C33.4171 27.4199 35.2034 23.1006 35.2041 18.5041C35.2049 13.8867 33.4221 9.55377 30.1829 6.30225C26.945 3.05145 22.6293 1.26081 18.03 1.25937C18.0285 1.25937 18.0264 1.25937 18.0249 1.25937Z" fill="#FF7E00"/>
<path d="M25.7647 20.6737C25.8072 21.115 25.5516 21.4218 25.2931 21.7004C24.4701 22.5882 23.6551 23.4874 22.7875 24.3298C20.6441 26.4106 18.4373 28.423 16.0591 30.2382C15.9065 30.3548 15.7481 30.4628 15.5889 30.5701C14.8193 31.0863 14.7206 31.0726 14.3801 30.2259C14.0546 29.4159 13.7544 28.593 13.4909 27.7606C12.4317 24.4155 11.49 21.038 10.8189 17.5899C10.7455 17.2141 10.6555 16.8296 10.6706 16.453C10.6829 16.1629 10.7736 15.8137 10.9579 15.6042C11.7888 14.6602 12.6333 13.7228 13.5333 12.8444C15.7063 10.7247 17.9484 8.67992 20.3676 6.84032C20.6246 6.6452 20.8968 6.46664 21.1761 6.30536C21.5484 6.09008 21.6722 6.11168 21.8429 6.51416C22.1741 7.29608 22.4988 8.08448 22.7609 8.8916C23.8315 12.1957 24.7581 15.5401 25.4681 18.9421C25.5869 19.5152 25.6668 20.0962 25.7647 20.6737Z" fill="white"/>
</g>
<defs>
<clipPath id="clip0_1_15924">
<rect width="36" height="36" fill="white" transform="translate(0 0.5)"/>
</clipPath>
</defs>
</svg>
