<svg width="36" height="37" viewBox="0 0 36 37" fill="none" xmlns="http://www.w3.org/2000/svg">
<g clip-path="url(#clip0_1_15967)">
<path d="M17.9999 36.4638C27.5975 36.4638 35.3807 28.7454 35.3807 19.227C35.3807 9.70863 27.5975 1.99023 17.9999 1.99023C8.40234 1.99743 0.619141 9.70863 0.619141 19.227C0.619141 28.7454 8.40234 36.4638 17.9999 36.4638Z" fill="#ECF3FF"/>
<path d="M13.3057 8.71524L7.22168 6.30324V7.16724L12.4345 11.8184L12.0889 16.6424L10.5265 23.1944L8.43848 26.1248L8.95688 30.2576L11.5633 30.6032L13.6513 30.2576L15.7393 30.6032L19.3897 28.364L20.0881 24.7424L24.4297 20.6096L26.3377 21.9848L28.2457 24.7424V30.2576L30.8521 29.5664L33.4585 23.8784L34.1569 16.6424L24.7753 3.02724L23.2129 2.68164L13.3057 8.71524Z" fill="white"/>
<path d="M4.09655 18.6798C4.16855 18.0966 4.19735 17.5062 4.37735 16.959C4.86695 14.6838 5.80295 12.5094 7.19255 10.7526C7.43735 10.443 7.64615 10.1694 7.91975 9.88861L6.35735 8.44141C6.07655 8.85181 5.80295 9.26941 5.55815 9.67981C4.26935 11.883 3.57815 14.367 3.40535 16.815C3.33335 17.4342 3.36935 18.0534 3.36935 18.6438C3.36935 19.263 3.44135 19.8534 3.54215 20.4726C3.71495 21.6822 4.03175 22.8486 4.44935 23.9574C4.16855 22.7838 4.03175 21.6102 3.99575 20.4078C3.98855 19.8462 3.98855 19.263 4.09655 18.6798Z" fill="#94A6C4"/>
<path d="M11.2245 7.51191C10.3533 7.10151 9.13646 6.54711 8.27246 6.13671C9.07166 5.38071 10.5333 4.58871 11.7501 4.07031C10.8717 4.75431 10.8717 6.20151 11.2245 7.51191Z" fill="#94A6C4"/>
<path d="M7.71104 13.3666C7.22144 14.5762 6.91184 15.8506 6.80384 17.089C6.76784 17.3986 6.73184 17.7082 6.76784 18.0178C6.76784 18.3274 6.76784 18.637 6.80384 18.9466L6.83984 19.4362C6.83984 19.573 6.87584 19.7458 6.91184 19.8826L7.04864 20.8114L7.08464 19.8826C7.08464 19.7458 7.08464 19.573 7.12064 19.4362L7.19264 18.9898C7.22864 18.6802 7.29344 18.3706 7.32944 18.097C7.36544 17.7874 7.46624 17.5138 7.53824 17.233C7.84784 16.0594 8.37344 14.9938 8.99984 13.993C9.41744 13.3378 9.90704 12.7546 10.4254 12.2002L9.07184 10.9258C8.47424 11.7178 8.05664 12.5098 7.71104 13.3666Z" fill="#94A6C4"/>
<path d="M27.8354 7.47609C25.9922 6.82089 25.265 7.02969 25.265 7.02969C25.265 7.02969 24.1202 10.0969 19.7354 10.3057C19.7714 10.3345 23.7026 12.6097 27.8354 7.47609Z" fill="#94A6C4"/>
<path d="M29.0877 13.5742C28.9149 17.3686 25.9629 18.7798 23.6661 18.5062C22.4133 18.3334 20.5701 18.9166 20.5701 18.9166L18.2445 22.9126L17.4813 23.1862L18.7989 20.7742C18.7989 20.7742 15.6741 21.9118 15.4293 22.0126C15.1845 22.1134 14.2125 23.5318 13.4133 25.0078C13.2405 23.971 12.5781 23.251 12.5781 23.215C12.5781 23.3878 12.9237 26.491 12.5421 27.3478C12.1605 28.2406 10.4541 28.831 10.4541 28.831L12.9597 29.7598L13.1325 29.8318L15.0117 28.075L15.7101 25.4542L16.5813 24.835C16.5813 24.835 18.7341 24.5902 18.4245 26.527C18.2877 27.4558 17.2437 27.391 16.0629 28.111C15.3645 28.5214 14.4645 29.1766 14.0109 29.6302L15.2637 30.523C15.2637 30.523 16.7613 30.2782 18.8781 28.6294C21.0309 26.9086 19.9581 25.0438 19.9581 25.0438L23.4717 20.875L25.7685 21.0478C25.7685 21.0478 29.7285 22.0486 31.0173 25.771C33.5733 18.643 29.4333 13.9198 29.0877 13.5742Z" fill="#94A6C4"/>
<path d="M33.1199 10.6162C33.7463 10.8898 34.2287 11.3074 34.6823 11.6818C31.5575 0.925034 21.4055 2.13463 21.1967 2.19943C21.4415 1.81783 22.3415 1.23463 23.1767 0.925033C23.1767 0.925033 18.8639 -0.594167 14.9399 2.09863C15.0119 1.47943 15.7751 0.550633 15.7751 0.550633C10.3535 2.85463 10.0079 5.61223 11.0519 7.26823C10.1807 6.85783 9.31674 6.47623 8.44554 6.05863C5.76714 4.78423 3.47754 3.71143 3.33354 3.68263C3.08874 3.61063 2.98794 3.71863 2.98794 3.71863C2.98794 3.71863 2.87994 3.81943 3.08874 4.02823C6.24954 7.16743 8.26554 9.06103 11.6351 12.1282C11.0807 13.3666 11.0087 13.993 11.2895 14.641C11.6711 15.5338 11.6351 15.9874 11.4983 16.5706C11.3255 17.1538 9.93594 22.3594 9.69114 22.9498C9.44634 23.569 7.60314 25.6354 7.57434 26.3266C7.53834 27.0178 8.09274 30.049 8.86314 30.4954C9.45354 30.805 10.8791 31.4602 11.9231 31.597C12.2687 31.669 12.6215 31.633 12.7943 31.4962C13.4927 31.0498 13.6655 30.9778 14.1119 31.0138L14.2127 31.0498C14.3855 31.0858 14.5943 31.1506 14.8751 31.1866C15.4655 31.2586 16.2287 31.2586 16.8551 30.841C17.7623 30.1498 19.2887 29.293 19.8071 28.8394C20.4335 28.2202 20.8511 27.3562 20.8511 26.3914C20.8511 25.5274 21.4415 24.8434 22.1039 24.1522C22.7303 23.533 24.2927 22.0138 24.9191 21.3586C26.5175 21.913 27.1079 24.1882 27.1079 25.4266C27.1079 28.8754 24.2927 33.9082 17.8271 34.2826C17.5823 34.2826 17.3375 34.3186 17.0639 34.3186C8.65434 34.3186 1.77114 26.9458 1.77114 18.2914C1.77114 11.4658 5.90394 6.84343 5.93994 6.80743C2.59914 9.95383 0.619141 14.3314 0.619141 19.2274C0.619141 28.7386 8.40234 36.4642 17.9999 36.4642C27.5975 36.4642 35.3807 28.7386 35.3807 19.2274C35.3807 16.1242 34.5815 13.129 33.1199 10.6162ZM9.38154 8.40583C8.89194 7.99543 8.40954 7.57783 7.91994 7.16743C8.58234 7.51303 9.23754 7.85863 9.82794 8.16823C11.6351 9.09703 13.1327 9.92503 13.4063 10.1338C13.4063 10.1338 13.4423 10.1698 13.4783 10.2058C13.6511 10.4146 13.8239 10.7602 13.5143 11.2066C13.3415 11.4514 13.1327 11.3794 12.8159 11.1706C12.5423 10.9906 11.0519 9.81703 9.38154 8.40583ZM19.4975 26.3266C19.4975 26.9098 19.2167 27.4282 18.8711 27.8098C18.6983 27.9826 17.9999 28.429 17.5175 28.7386C17.0279 29.0842 16.5095 29.3938 16.0919 29.7034C15.9191 29.8042 15.6383 29.8762 15.1847 29.8042L14.1047 29.6674C14.7671 29.0122 16.5743 27.601 17.1647 27.3202C17.8631 26.9746 18.2735 26.593 17.9639 25.801C17.6831 24.973 16.6103 25.009 16.6103 25.009C16.6103 25.009 17.2727 24.8362 17.7911 24.9082C17.1287 24.6346 16.2287 24.6994 15.7751 25.009C15.2855 25.3546 15.1487 26.7658 14.8391 27.6298C14.5295 28.5226 13.8311 28.9042 12.7871 29.6314C12.1967 30.013 11.8151 30.1138 11.5343 30.0778C10.9439 29.905 10.2455 29.5954 9.76314 29.3506C9.48234 28.8322 9.13674 27.2122 9.10074 26.557C9.23754 26.2114 9.79914 25.5202 10.0727 25.1098C10.6271 24.3538 10.9439 23.9002 11.0807 23.4898C11.3255 22.9066 12.3335 19.213 12.7151 17.665C13.0967 18.3202 13.6223 19.4218 13.3775 20.041C14.6303 18.7306 14.0759 17.1826 13.7951 16.5562C13.5503 15.937 13.2767 14.7274 13.8311 13.561C14.3495 12.3874 16.1567 9.21943 16.1567 9.21943C16.1567 9.21943 16.4663 10.0474 17.1287 9.97543C17.7551 9.90343 23.7671 3.22183 23.7671 3.22183C23.7671 3.22183 24.7031 6.32503 22.9679 8.21863C21.2327 10.1122 19.7711 10.321 19.7711 10.321C19.7711 10.321 21.7151 10.9402 23.7311 9.91063C24.2495 11.7754 24.7031 13.705 24.7031 13.9426C24.5663 14.1874 22.6151 17.4274 22.4423 17.629C22.3703 17.701 21.8159 17.7658 21.4703 17.7658C20.8439 17.8666 20.4623 17.9026 20.2895 18.0106C20.0087 18.1834 18.4103 21.1786 17.6471 22.6258C16.9487 22.7266 16.2575 22.9714 15.7031 23.6266C15.9839 23.4898 16.7831 23.4898 17.3735 23.4898C17.8919 23.5258 19.3175 24.5554 19.4903 26.1754C19.4975 26.2978 19.4975 26.2978 19.4975 26.3266ZM15.4295 27.7738C15.8111 27.3634 15.8831 26.5642 15.9479 26.3266C16.0199 26.0818 16.1567 25.6354 16.4663 25.5994C16.7759 25.5634 17.4383 25.7722 17.3735 26.2906C17.3015 26.773 16.7831 26.809 16.3655 27.0466C16.0919 27.2266 15.4943 27.709 15.4295 27.7738ZM30.5495 28.2274C30.1319 23.8138 27.0719 21.7474 25.7183 21.0562C27.2807 20.8834 31.3127 19.681 29.0879 13.5754C29.1599 13.849 29.7863 16.8874 28.0079 18.4714C26.2007 20.0914 23.5583 19.4002 23.2487 19.4002C22.9679 19.3642 21.6503 20.6386 19.8431 23.0866C19.6703 22.9858 18.9359 22.705 18.0359 22.741C18.9431 21.049 20.2967 18.637 20.5055 18.4354C20.5775 18.3634 21.1679 18.2986 21.5135 18.2626C22.2119 18.1906 22.5575 18.1258 22.6943 17.989C22.7663 17.8882 23.2487 17.125 23.7383 16.297C24.0479 16.333 24.8831 16.3978 24.9911 16.369C25.0631 16.297 25.9991 14.6482 26.0351 14.4394C26.0711 14.3026 25.4087 11.7178 24.9911 10.0618C33.5735 14.0938 34.9271 22.9858 30.5495 28.2274Z" fill="#1C324F"/>
<path d="M22.2766 7.71439C23.2486 6.85039 23.1118 5.36719 23.1118 5.36719L20.1958 8.57119C20.1526 8.57839 21.0598 8.75119 22.2766 7.71439Z" fill="#1C324F"/>
<path d="M11.3618 25.9514L11.8514 24.5762C11.8514 24.5762 10.3538 26.4698 10.217 26.7506C10.0802 27.0602 10.145 27.6434 10.6346 27.6794C11.1242 27.7154 11.7794 27.0962 11.8514 26.6138C11.9522 25.9514 11.3618 25.9514 11.3618 25.9514Z" fill="#1C324F"/>
<path d="M15.9476 17.6077C16.9916 17.5069 18.8636 16.6789 19.67 16.0237C20.4692 15.3325 20.3324 13.8205 19.0796 13.3669C19.4972 12.6757 20.1884 11.2285 20.1884 11.2285C20.1884 11.2285 15.7028 16.4341 15.3572 16.4989C15.0116 16.5709 14.8676 15.2605 14.8676 15.2605C13.8308 17.7805 15.602 18.3997 15.9476 17.6077Z" fill="#1C324F"/>
<path d="M16.3291 16.9519L18.6547 14.0215C18.6547 14.0215 19.6627 14.7127 19.0003 15.5047C18.1723 16.4335 16.3291 16.9519 16.3291 16.9519Z" fill="#FFD925"/>
<path d="M22.522 3.89062L20.9236 5.61143C19.6348 5.99303 18.3892 6.67702 17.2012 7.81462C17.2012 7.16662 19.1164 4.30102 22.522 3.89062Z" fill="#D82423"/>
<path d="M24.5378 5.37493C24.5738 4.92853 24.5378 4.41013 24.4658 3.92773C26.5538 4.20133 29.0162 5.41093 31.8314 8.13253C29.5058 6.85813 27.0362 5.68453 24.5378 5.37493Z" fill="#D82423"/>
<path d="M25.1641 7.61381C25.1641 7.61381 32.9113 10.9906 34.3369 20.473C34.5457 8.13221 25.7185 7.51301 25.1641 7.61381Z" fill="#D82423"/>
<path d="M13.8676 2.16992C13.7668 2.44352 9.38198 7.10192 14.8396 8.92352C11.8516 6.26672 13.8316 2.19872 13.8676 2.16992Z" fill="#D82423"/>
<path d="M16.1927 8.19661C16.1927 8.19661 16.6463 2.92621 19.8431 1.50781C19.5983 1.57981 13.1039 3.54541 16.1927 8.19661Z" fill="#D82423"/>
</g>
<defs>
<clipPath id="clip0_1_15967">
<rect width="36" height="36" fill="white" transform="translate(0 0.5)"/>
</clipPath>
</defs>
</svg>
