<svg width="36" height="37" viewBox="0 0 36 37" fill="none" xmlns="http://www.w3.org/2000/svg">
<g clip-path="url(#clip0_1_15578)">
<path d="M17.9996 36.3565C27.8612 36.3565 35.8556 28.3621 35.8556 18.5005C35.8556 8.63894 27.8612 0.644531 17.9996 0.644531C8.13796 0.644531 0.143555 8.63894 0.143555 18.5005C0.143555 28.3621 8.13796 36.3565 17.9996 36.3565Z" fill="url(#paint0_linear_1_15578)"/>
<path d="M25.8117 25.6141L19.7709 11.0197C19.4325 10.2637 18.9213 9.89648 18.2589 9.89648H17.7261C17.0565 9.89648 16.5525 10.2637 16.2141 11.0197L13.5861 17.3773H11.5989C11.0085 17.3845 10.5189 17.8597 10.5189 18.4573V18.4717C10.5261 19.0621 11.0085 19.5517 11.5989 19.5517H12.6645L10.1589 25.6141C10.1157 25.7509 10.0869 25.8877 10.0869 26.0317C10.0869 26.3701 10.1949 26.6365 10.3821 26.8453C10.5693 27.0541 10.8429 27.1549 11.1813 27.1549C11.4045 27.1477 11.6205 27.0829 11.8005 26.9461C11.9949 26.8093 12.1245 26.6221 12.2325 26.3989L14.9973 19.5517H16.9125C17.5029 19.5445 17.9925 19.0693 17.9925 18.4717V18.4429C17.9853 17.8525 17.5029 17.3629 16.9125 17.3629H15.8901L17.9997 12.1141L23.7453 26.3989C23.8533 26.6221 23.9829 26.8165 24.1773 26.9461C24.3573 27.0829 24.5805 27.1477 24.7965 27.1549C25.1349 27.1549 25.4013 27.0541 25.5957 26.8453C25.7901 26.6365 25.8909 26.3701 25.8909 26.0317C25.8909 25.8877 25.8693 25.7437 25.8117 25.6141Z" fill="white"/>
</g>
<defs>
<linearGradient id="paint0_linear_1_15578" x1="31.3143" y1="7.29899" x2="4.74367" y2="29.6548" gradientUnits="userSpaceOnUse">
<stop stop-color="#B6509E"/>
<stop offset="1" stop-color="#2EBAC6"/>
</linearGradient>
<clipPath id="clip0_1_15578">
<rect width="36" height="36" fill="white" transform="translate(0 0.5)"/>
</clipPath>
</defs>
</svg>
