<svg width="36" height="37" viewBox="0 0 36 37" fill="none" xmlns="http://www.w3.org/2000/svg">
<g clip-path="url(#clip0_1_15953)">
<path d="M18.0579 36.0603C27.8639 36.0603 35.8131 28.1755 35.8131 18.4491C35.8131 8.72269 27.8639 0.837891 18.0579 0.837891C8.25201 0.837891 0.302734 8.72269 0.302734 18.4491C0.302734 28.1755 8.25201 36.0603 18.0579 36.0603Z" fill="#F79E24"/>
<path d="M17.8344 18.2415C17.8632 18.0543 17.9136 17.8671 17.9136 17.6871C17.9208 16.4055 17.9136 15.1239 17.9136 13.8423C17.9136 13.6263 17.9208 13.4031 17.9712 13.1943C18.1152 12.5175 18.6264 12.0351 19.3032 11.9127C19.7064 11.8407 19.836 11.9343 19.8432 12.3447C19.8576 12.7839 19.8504 13.2159 19.8504 13.6551C19.8504 14.5551 19.8504 15.4551 19.8504 16.3551C19.8504 16.4991 19.8504 16.6503 19.8504 16.8519C22.3992 15.9303 24.2136 16.6935 25.3224 19.1703C25.8552 18.7023 26.3592 18.2775 26.8488 17.8239C27.3672 17.3487 27.9288 16.9527 28.6128 16.7439C30.3192 16.2183 32.3136 17.1111 33.0408 18.7311C33.2064 19.1055 33.1848 19.2423 32.904 19.5303C32.5368 19.9047 32.1624 20.2719 31.7664 20.6607C31.7016 20.2935 31.6944 19.9551 31.5864 19.6599C31.1112 18.3279 29.52 17.8815 28.44 18.7959C27.6336 19.4871 26.8776 20.2359 26.1144 20.9775C25.5888 21.4887 25.0848 22.0287 24.5736 22.5615C23.5584 23.6127 22.3632 24.1455 20.8872 23.8287C19.692 23.5695 18.828 22.8783 18.288 21.7767C18.1728 21.5391 18.18 21.3447 18.4032 21.1647C18.7992 20.8407 19.188 20.5023 19.6344 20.1207C19.6848 20.3295 19.7136 20.4735 19.7496 20.6103C20.0088 21.6687 21.1104 22.3815 22.1112 22.1295C23.292 21.8343 23.94 20.7903 23.6592 19.6527C23.3424 18.3711 21.6936 17.7303 20.6424 18.5295C19.8288 19.1487 19.0872 19.8543 18.3312 20.5455C18.1944 20.6679 18.1296 20.8983 18.0792 21.0927C17.6832 22.6551 16.4664 23.7351 14.796 23.9079C13.3704 24.0519 11.916 23.3679 11.1528 21.9567C10.8864 21.4599 10.8936 21.4167 11.304 21.0639C11.6568 20.7615 12.0096 20.4663 12.4272 20.1063C12.4632 20.3151 12.4848 20.4375 12.5064 20.5599C12.7152 21.7263 13.8024 22.4535 14.9688 22.2087C16.0344 21.9855 16.7184 20.8551 16.4448 19.7535C16.0992 18.3567 14.4072 17.7375 13.2912 18.6303C12.5064 19.2567 11.7504 19.9407 11.0088 20.6247C10.8648 20.7615 10.7712 21.0279 10.764 21.2367C10.7352 21.9567 10.7496 22.6839 10.7424 23.4039C10.7424 23.5623 10.7064 23.7135 10.6848 23.8863C10.0152 23.9871 9.54004 23.7135 9.11524 23.2455C7.93444 23.9079 6.72484 24.0087 5.49364 23.4615C4.67284 23.0943 4.10404 22.4607 3.71524 21.6687C2.93764 20.0991 3.43444 18.1551 4.88164 17.0607C5.46484 16.6215 6.13444 16.4127 6.86164 16.3623C7.58884 16.3119 8.27284 16.4559 8.91364 16.8015C9.54724 17.1471 10.0008 17.6871 10.4112 18.2775C10.4472 18.2703 10.4904 18.2703 10.5264 18.2631C10.548 18.0759 10.5912 17.8887 10.5912 17.7015C10.5984 15.9951 10.5912 14.2887 10.5912 12.5823C10.5912 12.3951 10.6056 12.2079 10.6128 12.0279C11.0736 11.8263 11.7144 12.0207 12.0888 12.4599C12.3552 12.7695 12.492 13.1295 12.492 13.5471C12.4848 14.4903 12.492 15.4335 12.492 16.3695C12.492 16.5423 12.5064 16.7079 12.5208 16.9311C14.6304 16.0095 16.3512 16.4271 17.6976 18.2631C17.7408 18.2559 17.784 18.2487 17.8344 18.2415ZM5.11204 20.0703C5.10484 21.1791 5.98324 22.0863 7.08484 22.1007C8.21524 22.1151 9.12964 21.2151 9.12964 20.0991C9.12964 18.9759 8.27284 18.0831 7.20724 18.0759C6.02644 18.0615 5.11924 18.9327 5.11204 20.0703Z" fill="#191B2D"/>
<path d="M29.9811 22.4676C29.5419 22.9068 29.1099 23.346 28.6635 23.7708C28.6059 23.8284 28.4475 23.8284 28.3539 23.7996C27.3531 23.4396 26.6403 22.7556 26.2371 21.7764C26.2011 21.6828 26.2227 21.51 26.2875 21.4452C26.7051 21.0564 27.1371 20.6892 27.6411 20.25C27.8427 21.6324 28.5915 22.3308 29.9235 22.374C29.9451 22.4028 29.9667 22.4316 29.9811 22.4676Z" fill="#191B2D"/>
</g>
<defs>
<clipPath id="clip0_1_15953">
<rect width="36" height="36" fill="white" transform="translate(0 0.5)"/>
</clipPath>
</defs>
</svg>
