<svg width="36" height="37" viewBox="0 0 36 37" fill="none" xmlns="http://www.w3.org/2000/svg">
<g clip-path="url(#clip0_1_15926)">
<path d="M2.63542 9.60116C7.71257 6.65867 12.8184 3.69947 17.9648 0.716797C19.6846 1.65784 31.5989 8.57229 33.3423 9.58273C33.3533 9.73221 33.3773 9.90688 33.3773 10.0815C33.378 14.8009 33.3511 27.2402 33.3375 27.4153C28.2092 30.3753 23.1087 33.3192 17.9827 36.2779C12.8586 33.3088 7.74187 30.3441 2.6509 27.3942C2.56903 27.0471 2.55557 10.0803 2.63542 9.60116ZM17.3113 2.7819C17.1667 2.83266 4.79563 10.0509 4.79563 10.0509L14.0907 15.3479C14.0907 15.3479 16.2192 11.6339 17.1436 10.052C17.253 9.86483 17.3118 9.68461 17.3113 9.46991C17.3071 7.37205 17.3288 2.94548 17.3113 2.7819ZM4.03099 11.2277L4.08096 25.6935C4.08096 25.6935 8.98783 22.8735 9.87243 22.3997C10.3882 22.1234 10.183 22.1887 10.4702 21.6678C11.3139 20.1374 13.2414 16.741 13.2972 16.5989C10.2118 14.8104 4.03099 11.2277 4.03099 11.2277ZM31.8738 11.284L22.6921 16.6942C22.6921 16.6942 24.7631 20.3362 25.686 21.9513C25.7865 22.1271 25.9165 22.2529 26.0877 22.3514C26.8391 22.7833 31.9268 25.6912 31.9268 25.6912L31.8738 11.284ZM18.7471 2.7819C18.7471 2.7819 18.6978 7.39314 18.708 9.51779C18.7088 9.70175 18.7659 9.89925 18.8471 10.0659C18.9915 10.3622 21.9777 15.3705 21.9777 15.3705L31.1577 10.0045L18.7471 2.7819ZM17.4205 34.1609V27.4699L10.7023 23.5801L4.80442 26.9766L17.4205 34.1609ZM18.6829 27.4925L18.6504 34.1609L31.22 26.9598C31.22 26.9598 27.2711 24.65 25.3408 23.5702C24.2692 24.0799 18.6829 27.4925 18.6829 27.4925ZM17.4231 25.8457V19.6537C17.4231 19.6537 13.8208 21.6764 12.1524 22.6875C12.2075 22.7746 17.4231 25.8457 17.4231 25.8457ZM23.7788 22.7266L18.7379 19.6537L18.7647 25.8457L23.7788 22.7266ZM17.2217 12.9252L15.2932 16.0867L17.2217 17.2057V12.9252ZM12.709 20.7093L16.4478 18.4206L14.6638 17.3846L12.709 20.7093ZM23.2631 20.64L21.3193 17.3869L19.441 18.4606L23.2631 20.64ZM18.75 12.9252C18.7314 13.0284 18.7471 17.1217 18.7861 17.2148C19.3211 16.9086 20.5364 16.1506 20.6537 16.0496C20.0496 14.9982 18.8166 12.9509 18.75 12.9252Z" fill="url(#paint0_linear_1_15926)"/>
</g>
<defs>
<linearGradient id="paint0_linear_1_15926" x1="2.58201" y1="18.4974" x2="33.3773" y2="18.4974" gradientUnits="userSpaceOnUse">
<stop stop-color="#1EFCAE"/>
<stop offset="1" stop-color="#40FFF9"/>
</linearGradient>
<clipPath id="clip0_1_15926">
<rect width="36" height="36" fill="white" transform="translate(0 0.5)"/>
</clipPath>
</defs>
</svg>
