<svg width="36" height="37" viewBox="0 0 36 37" fill="none" xmlns="http://www.w3.org/2000/svg">
<g clip-path="url(#clip0_1_15940)">
<path d="M17.921 0.888672C8.20102 0.888672 0.324219 8.76547 0.324219 18.4783C0.324219 28.1983 8.20102 36.0679 17.9138 36.0679C17.9138 36.0679 20.1746 36.1687 22.6442 35.6863C24.509 35.3191 26.4962 34.8655 27.7922 34.8655C30.845 34.8655 32.7242 35.6431 33.8042 35.6431C34.8842 35.6431 35.5034 34.9951 35.5034 34.2031V18.4783C35.5106 8.76547 27.6338 0.888672 17.921 0.888672ZM17.993 33.3823C9.77782 33.3823 3.11782 26.7223 3.11782 18.5071C3.11782 10.2919 9.77782 3.63187 17.993 3.63187C26.2082 3.63187 32.8682 10.2919 32.8682 18.5071C32.8682 26.7223 26.2082 33.3823 17.993 33.3823Z" fill="url(#paint0_linear_1_15940)"/>
<path d="M17.9925 29.155C12.1174 29.155 7.34375 24.3742 7.34375 18.5062C7.34375 12.6382 12.1174 7.85742 17.9925 7.85742C22.8094 7.85742 27.0357 11.1046 28.2814 15.7486C28.4685 16.4542 28.051 17.1814 27.3454 17.3686C26.6397 17.5558 25.9125 17.1382 25.7253 16.4326C24.7966 12.9406 21.6142 10.507 17.9998 10.507C13.5862 10.507 10.0005 14.0926 10.0005 18.5062C10.0005 22.9198 13.5862 26.5054 17.9998 26.5054C21.391 26.5054 24.4221 24.3598 25.5454 21.163C25.7901 20.4718 26.5462 20.1118 27.2302 20.3494C27.9214 20.5942 28.2814 21.3502 28.0438 22.0342C26.539 26.2894 22.507 29.155 17.9925 29.155Z" fill="url(#paint1_linear_1_15940)"/>
<path d="M16.2722 16.3549L15.4082 15.4117C15.4082 15.4117 16.2723 14.2812 17.7699 14.2812C19.2674 14.2812 20.3115 15.1957 20.3115 16.3549C20.3115 17.8237 19.0802 18.3205 19.0802 18.3205C19.0802 18.3205 20.5778 19.0548 20.5778 20.4732C20.5778 21.7836 19.1379 22.5972 17.8275 22.5972C16.5171 22.5972 15.8906 22.1509 15.653 21.9709C15.4154 21.7909 15.1562 21.474 15.1562 21.474L16.1786 20.5309C16.1786 20.5309 16.8842 21.2149 17.6186 21.2149C18.353 21.2149 18.7707 20.7685 18.7707 20.1637C18.7707 19.5589 18.1155 19.0909 17.7195 19.0909C17.3235 19.0909 16.409 19.0909 16.409 19.0909V17.7517H17.6906C17.6906 17.7517 18.605 17.7805 18.605 16.7581C18.605 15.7357 17.741 15.8149 17.4746 15.8149C17.2154 15.8077 16.6106 16.0165 16.2722 16.3549Z" fill="url(#paint2_linear_1_15940)"/>
</g>
<defs>
<linearGradient id="paint0_linear_1_15940" x1="0.324413" y1="18.4842" x2="35.5107" y2="18.4842" gradientUnits="userSpaceOnUse">
<stop stop-color="#78F9DB"/>
<stop offset="1" stop-color="#5BCADB"/>
</linearGradient>
<linearGradient id="paint1_linear_1_15940" x1="7.34383" y1="18.505" x2="28.3227" y2="18.505" gradientUnits="userSpaceOnUse">
<stop stop-color="#78F9DB"/>
<stop offset="1" stop-color="#5BCADB"/>
</linearGradient>
<linearGradient id="paint2_linear_1_15940" x1="15.1453" y1="18.442" x2="20.5726" y2="18.442" gradientUnits="userSpaceOnUse">
<stop stop-color="#78F9DB"/>
<stop offset="1" stop-color="#5BCADB"/>
</linearGradient>
<clipPath id="clip0_1_15940">
<rect width="36" height="36" fill="white" transform="translate(0 0.5)"/>
</clipPath>
</defs>
</svg>
