<svg width="36" height="37" viewBox="0 0 36 37" fill="none" xmlns="http://www.w3.org/2000/svg">
<path d="M0.510751 25.7363C0.468271 26.1317 0.563959 26.5262 0.803647 26.9245C2.01685 28.9403 3.22753 30.958 4.41797 32.9873C4.58393 33.2702 4.77905 33.4865 5.00571 33.6426L9.62573 25.7363H0.510751Z" fill="#5A51FA"/>
<path d="M26.2304 25.7364C26.2291 25.7364 26.2279 25.7364 26.2266 25.7364L30.8737 33.7555C31.1156 33.6325 31.325 33.4435 31.4898 33.1641C32.7644 31.0038 34.0438 28.8464 35.3216 26.688C35.5095 26.3707 35.6024 26.0534 35.6052 25.7363L26.2304 25.7364Z" fill="#5564FB"/>
<path d="M17.9773 11.5007C18.0089 11.4466 18.0403 11.3928 18.0719 11.3386C20.8042 16.1603 23.4969 20.912 26.2306 25.7363H35.6054C35.6083 25.4048 35.5125 25.0735 35.3206 24.7426C32.5754 20.0086 24.6667 6.38374 23.4677 4.29948C23.248 3.91759 22.9806 3.62708 22.6653 3.42188L17.9609 11.4725L17.9773 11.5007Z" fill="#7087FE"/>
<path d="M22.6654 3.42316C22.2742 3.16856 21.8091 3.04573 21.2681 3.04688C19.0082 3.05171 16.7483 3.04177 14.4885 3.05199C14.0235 3.05408 13.6149 3.16115 13.2656 3.37132L17.961 11.4737L22.6654 3.42316Z" fill="#6B85FE"/>
<path d="M12.426 4.26533C11.8204 5.33979 2.68759 21.5582 0.774262 24.9531C0.62623 25.2157 0.53875 25.4767 0.510742 25.7373H9.62572L16.4565 14.0478L13.2655 3.37109C12.9292 3.57341 12.6481 3.87128 12.426 4.26533Z" fill="#8186FE"/>
<path d="M13.2656 3.37109L16.4567 14.0478L17.961 11.4735L13.2656 3.37109Z" fill="#484EC0"/>
<path d="M26.2264 25.7363C25.3911 25.7363 24.5583 25.7363 23.7266 25.7363L30.7489 33.8113C30.7913 33.7944 30.833 33.7761 30.8735 33.7555L26.2264 25.7363Z" fill="#4233C6"/>
<path d="M9.66772 25.7363H9.62588L5.00586 33.6426C5.31755 33.8572 5.68928 33.9574 6.13043 33.9546C7.38143 33.9462 28.4289 33.9549 29.9423 33.9504C30.2338 33.9495 30.5057 33.9092 30.7493 33.8113L23.7269 25.7363C19.0254 25.7363 14.3724 25.7363 9.66772 25.7363Z" fill="#6C66FC"/>
</svg>
