<svg width="36" height="37" viewBox="0 0 36 37" fill="none" xmlns="http://www.w3.org/2000/svg">
<path d="M15.426 25.5499C14.4295 25.6803 13.1127 24.7089 13.1428 23.3212C13.1716 21.9944 14.0657 21.041 15.4995 21.0282C16.65 21.0179 17.7069 22.1214 17.6864 23.2531C17.6622 24.5924 16.72 25.5498 15.426 25.5499ZM25.7997 18.5943C25.7897 17.2748 24.9455 16.3537 23.5786 16.2982C22.3899 16.2499 21.428 17.1402 21.2917 18.2994C21.1319 19.6587 22.1264 20.7948 23.4681 20.839C24.7121 20.8962 25.8095 19.8798 25.7997 18.5943ZM15.4033 11.6119C14.4406 11.6127 13.14 12.4001 13.1257 13.8721C13.1142 15.0634 14.0274 16.1408 15.4245 16.1572C16.6824 16.1719 17.6421 15.1768 17.6424 13.8738C17.7383 12.6869 16.5792 11.6109 15.4033 11.6119ZM12.7211 20.8872C14.0001 20.8489 14.929 19.9583 14.9703 18.6084C15.0076 17.3919 13.9395 16.3327 12.7175 16.3217C11.4729 16.3104 10.4616 17.3228 10.4612 18.5804C10.367 19.8583 11.4912 20.924 12.7211 20.8872ZM18.5501 13.8833C18.603 15.1956 19.3901 16.0731 20.7536 16.1366C22.1676 16.2024 23.0563 14.9936 23.082 13.9012C23.1081 12.7922 22.0891 11.5301 20.7972 11.6293C19.6784 11.5037 18.4992 12.6219 18.5501 13.8833ZM20.8284 21.0316C19.4624 21.0637 18.6019 21.9329 18.5709 23.2842C18.54 24.628 19.6928 25.5648 20.8697 25.5659C22.0308 25.567 23.201 24.4325 23.056 23.3271C23.1953 22.1968 22.2205 20.999 20.8284 21.0316ZM10.1128 12.6245C9.37717 12.6023 8.81557 13.1296 8.79807 13.8587C8.77806 14.6957 9.27623 15.2596 10.0489 15.2746C10.7848 15.2889 11.332 14.7583 11.3493 14.0137C11.3674 13.2372 10.8416 12.6465 10.1128 12.6245ZM24.824 13.9414C24.8318 14.6469 25.4038 15.2012 26.1339 15.2109C26.8753 15.2207 27.4865 14.6311 27.4747 13.9176C27.4626 13.1816 26.881 12.6211 26.1324 12.6237C25.4048 12.6263 24.8159 13.2194 24.824 13.9414ZM16.7814 9.32538C16.7372 9.99959 17.4013 10.5913 18.0961 10.5829C18.8078 10.5744 19.4124 9.989 19.4087 9.31191C19.4045 8.54 18.8698 7.9856 18.1239 7.97991C17.2011 7.99251 16.8317 8.55836 16.7814 9.32538ZM26.2081 21.9046C25.5003 21.8897 24.8602 22.4883 24.8253 23.1975C24.7921 23.8746 25.4224 24.5198 26.1463 24.5499C26.8294 24.5783 27.4633 23.9476 27.4751 23.228C27.4863 22.5487 26.8833 21.9188 26.2081 21.9046ZM10.1158 24.5665C10.7883 24.5584 11.4829 23.9266 11.4231 23.2859C11.3531 22.5381 11.0227 22.0003 10.1074 21.976C9.35557 21.956 8.80571 22.4834 8.80405 23.2078C8.80203 24.0339 9.32533 24.5759 10.1158 24.5665ZM19.3565 27.8912C19.3577 27.1563 18.7647 26.5774 18.0267 26.5931C17.3075 26.6083 16.7462 27.1707 16.7451 27.8769C16.7441 28.6629 17.2702 29.2013 18.0381 29.1996C18.7774 29.198 19.3553 28.6246 19.3565 27.8912ZM30.1863 17.4397C29.6025 17.427 29.0484 17.939 29.0255 18.5122C29.0019 19.1049 29.5352 19.6833 30.1413 19.6893C30.6431 19.6943 31.2636 19.3234 31.2455 18.5936C31.2628 17.9827 30.7761 17.4526 30.1863 17.4397ZM11.0034 8.26583C11.0285 8.85601 11.523 9.29759 12.1289 9.2708C12.7514 9.2433 13.1904 8.74679 13.1614 8.10282C13.1334 7.47995 12.6203 6.96968 12.0443 6.992C11.3955 7.01706 10.9723 7.53503 11.0034 8.26583ZM6.08555 17.4858C5.51322 17.4823 4.94795 18.0318 4.9401 18.5991C4.93203 19.1846 5.46671 19.7267 6.05365 19.7282C6.67091 19.7296 7.14654 19.2767 7.14971 18.6843C7.15359 17.9739 6.72361 17.4897 6.08555 17.4858ZM11.0137 29.0134C11.0104 29.6688 11.4894 30.1827 12.1104 30.19C12.7247 30.1972 13.2179 29.684 13.2229 29.0324C13.2274 28.4399 12.7588 27.9755 12.1508 27.97C11.4884 27.9642 11.0168 28.3968 11.0137 29.0134ZM24.1553 27.939C23.5332 27.9506 23.0433 28.4512 23.0562 29.0621C23.0685 29.6413 23.6085 30.1863 24.1722 30.1882C24.7154 30.1901 25.2661 29.6095 25.2656 29.0355C25.265 28.4212 24.7652 27.9276 24.1553 27.939ZM24.0917 9.20622C24.7098 9.21795 25.2221 8.74873 25.2496 8.14573C25.2752 7.58492 24.7253 7.00417 24.1547 6.98941C23.5194 6.97299 23.0679 7.41925 23.0554 8.07603C23.0423 8.75658 23.4434 9.19398 24.0917 9.20622ZM18.0892 4.63551C18.5908 4.6353 18.971 4.24002 18.968 3.72176C18.9648 3.16787 18.629 2.80167 18.1147 2.79123C17.5817 2.78043 17.1971 3.17262 17.2006 3.72313C17.2039 4.23512 17.5941 4.63573 18.0892 4.63551ZM5.2551 26.9793C5.72835 27.0109 6.22724 26.5383 6.22919 26.0569C6.23091 25.6127 5.77631 25.1384 5.3222 25.1108C4.90115 25.0852 4.39506 25.574 4.3862 26.0148C4.37663 26.4917 4.78789 26.9482 5.2551 26.9793ZM18.0436 32.5341C17.5911 32.5374 17.1436 32.9934 17.1359 33.459C17.1281 33.9286 17.5599 34.38 18.0245 34.3878C18.5168 34.396 18.9728 33.9386 18.9671 33.4422C18.9619 32.9925 18.4924 32.5309 18.0436 32.5341ZM31.8905 11.1016C31.8736 10.6582 31.3958 10.2031 30.9427 10.199C30.5095 10.195 30.014 10.6935 30.019 11.1281C30.0243 11.5741 30.5133 12.0785 30.9313 12.0691C31.3912 12.0586 31.9071 11.5382 31.8905 11.1016ZM31.8942 25.9609C31.884 25.472 31.4838 25.1042 30.9665 25.1081C30.4758 25.112 30.0507 25.5347 30.0685 26.0011C30.0874 26.4951 30.4841 26.8777 30.9757 26.876C31.5391 26.874 31.9058 26.5088 31.8942 25.9609ZM4.38138 11.1901C4.37216 11.7225 4.72907 12.0749 5.27353 12.0711C5.80575 12.0674 6.16295 11.702 6.14977 11.1745C6.13652 10.6404 5.78999 10.3017 5.2587 10.3036C4.73655 10.3054 4.39067 10.6549 4.38138 11.1901ZM25.5541 4.39748C25.5461 4.85375 25.8652 5.06852 26.237 5.09019C26.6253 5.1128 26.919 4.8909 26.9368 4.4391C26.9539 4.00782 26.6801 3.68799 26.2767 3.67568C25.8981 3.66409 25.5611 3.99306 25.5541 4.39748ZM1.07355 18.6145C1.06023 18.9467 1.47582 19.3985 1.80781 19.3519C2.19344 19.2977 2.47669 19.0711 2.50203 18.6474C2.52551 18.2551 2.18142 17.9295 1.77663 17.9282C1.41757 17.927 1.08824 18.2484 1.07355 18.6145ZM25.6075 32.7671C25.5986 33.11 25.9797 33.4803 26.3472 33.4858C26.6488 33.4904 27.0489 33.0736 27.0288 32.7505C27.0023 32.3251 26.7506 32.1083 26.4295 32.0705C25.9018 32.0618 25.6187 32.3336 25.6075 32.7671ZM9.95814 3.69325C9.59007 3.62147 9.24894 4.00242 9.2421 4.41764C9.23526 4.83438 9.44687 5.06773 9.85036 5.10675C10.2885 5.14909 10.5957 4.86469 10.61 4.34629C10.6421 3.97074 10.3361 3.76698 9.95814 3.69325ZM35.1501 18.5601C35.1229 18.1526 34.8914 17.8772 34.4749 17.8226C34.0929 17.7725 33.7865 18.12 33.7661 18.5545C33.7433 19.0381 34.0655 19.1653 34.3823 19.2503C34.8092 19.2586 35.1746 18.9262 35.1501 18.5601ZM10.0388 32.0739C9.70902 32.0394 9.23519 32.4279 9.25751 32.7652C9.28422 33.1686 9.52751 33.4573 9.93762 33.4925C10.3503 33.528 10.6136 33.2982 10.6714 32.9755C10.7194 32.4779 10.4279 32.1145 10.0388 32.0739Z" fill="#1F6FCD"/>
</svg>
