<svg width="36" height="37" viewBox="0 0 36 37" fill="none" xmlns="http://www.w3.org/2000/svg">
<g clip-path="url(#clip0_1_15899)">
<path d="M7.6106 14.4743C9.1802 10.5071 13.0538 7.70627 17.5754 7.70627C22.097 7.70627 25.9706 10.5071 27.5402 14.4743H34.8842C33.0914 6.56868 26.021 0.671875 17.5754 0.671875C9.1298 0.671875 2.0666 6.56868 0.266602 14.4743H7.6106Z" fill="#ED001B"/>
<path d="M34.9276 22.1719H28.4116H27.6196C26.1004 26.2399 22.1764 29.1415 17.5756 29.1415C12.9748 29.1415 9.05083 26.2399 7.53163 22.1719H0.223633C1.94443 30.1711 9.05803 36.1759 17.5756 36.1759C21.658 36.1759 25.4092 34.8007 28.4116 32.4823V34.5055C28.4116 35.4055 29.1388 36.1327 30.0388 36.1327H33.6748C34.5748 36.1327 35.302 35.4055 35.302 34.5055C35.302 34.5055 35.6188 26.1463 35.7124 22.1719H34.9276Z" fill="#ED001B"/>
</g>
<defs>
<clipPath id="clip0_1_15899">
<rect width="36" height="36" fill="white" transform="translate(0 0.5)"/>
</clipPath>
</defs>
</svg>
