<svg width="36" height="37" viewBox="0 0 36 37" fill="none" xmlns="http://www.w3.org/2000/svg">
<path d="M7.35156 11.6664L11.3468 7.72852L28.6438 25.2774L24.6486 29.2153L7.35156 11.6664Z" fill="#1B75BC"/>
<path d="M7.25781 25.1233L24.8067 7.82617L28.7446 11.8214L11.1957 29.1185L7.25781 25.1233Z" fill="#1B75BC"/>
<path d="M11.6172 29.4912L14.8996 26.2559L21.1138 32.5605L17.8314 35.7958L11.6172 29.4912Z" fill="#3C3C3B"/>
<path d="M14.5996 32.5149L20.9042 26.3008L24.1395 29.5832L17.8349 35.7973L14.5996 32.5149Z" fill="#3C3C3B"/>
<path d="M14.9668 4.43843L18.2492 1.20312L24.4634 7.50775L21.181 10.7431L14.9668 4.43843Z" fill="#3C3C3B"/>
<path d="M11.9443 7.41338L18.249 1.19922L21.4843 4.48161L15.1796 10.6958L11.9443 7.41338Z" fill="#3C3C3B"/>
</svg>
