<svg width="36" height="37" viewBox="0 0 36 37" fill="none" xmlns="http://www.w3.org/2000/svg">
<path d="M7.20744 10.1753C5.82474 10.4764 4.44205 11.21 3.34162 12.2164C1.69554 13.7402 0.754975 15.866 0.754975 18.114C0.745537 20.3714 1.46038 22.1586 3.00303 23.7764C4.39506 25.2343 6.05057 26.062 8.06346 26.2972C9.96348 26.5229 11.6753 26.1091 13.3402 25.018C14.2525 24.4161 16.6605 21.9705 16.6605 21.6413C16.6605 21.6037 16.4159 21.2274 16.1055 20.7948L15.5599 20.0047L15.0614 20.6255C12.7663 23.4848 11.0074 24.5195 8.63712 24.3879C6.46438 24.2656 4.61135 23.1275 3.50148 21.2369C2.91828 20.2399 2.69255 19.3839 2.69255 18.1611C2.70199 16.6843 3.0688 15.6027 3.95294 14.4175C5.41084 12.461 8.08214 11.5017 10.4054 12.0942C12.5406 12.6398 14.1019 14.1636 17.2248 18.7724C18.9179 21.265 19.7644 22.3466 20.9402 23.5318C22.3887 24.9992 23.5456 25.7328 24.9847 26.1185C25.8783 26.363 27.7594 26.4101 28.653 26.2126C30.6095 25.7799 32.4154 24.6136 33.6006 23.0334C34.1085 22.3468 34.6165 21.4626 34.6258 21.2462C34.6258 21.171 34.3342 21.1333 33.6006 21.1333H32.5847L32.2272 21.6507C31.3713 22.8923 29.8945 23.9081 28.4084 24.2655C27.6936 24.4443 26.4802 24.4631 25.7653 24.3125C23.6396 23.8611 21.7019 22.0081 18.8238 17.6908C17.3094 15.4145 16.1242 13.8907 14.9673 12.7527C13.6975 11.5017 12.6722 10.8151 11.4118 10.373C10.6688 10.1096 10.4713 10.0814 9.22966 10.0531C8.27031 10.0343 7.66833 10.0718 7.20744 10.1753ZM25.0506 10.2129C24.2793 10.4198 23.3105 10.8807 22.4452 11.4638C21.7868 11.906 20.2535 13.4109 19.6798 14.1821L19.2753 14.7182L19.8303 15.5177C20.1313 15.9599 20.3946 16.3172 20.4228 16.3172C20.4511 16.3172 20.5921 16.1667 20.7332 15.9692C23.1788 12.7336 25.4738 11.5107 28.1357 12.0375C30.2238 12.442 32.0674 13.9375 32.8387 15.8563C32.9797 16.1949 33.1208 16.6276 33.1585 16.8158L33.2243 17.1733H29.3114H25.408V18.1609V19.1486H30.2897H35.1619L35.2184 18.6877C35.35 17.5402 34.9926 15.7248 34.3812 14.5114C33.5346 12.8278 31.8322 11.2851 30.0168 10.5609C28.606 10.006 26.4426 9.85552 25.0506 10.2129Z" fill="#DB3369"/>
</svg>
