<svg width="36" height="37" viewBox="0 0 36 37" fill="none" xmlns="http://www.w3.org/2000/svg">
<g clip-path="url(#clip0_1_15828)">
<path d="M26.0879 21.2163C29.2282 11.948 28.1775 3.2159 23.741 1.71272C19.3046 0.209546 13.1624 6.50447 10.022 15.7728C6.88169 25.0412 7.9324 33.7733 12.3689 35.2764C16.8053 36.7796 22.9475 30.4847 26.0879 21.2163Z" fill="#5FBCD2"/>
<path d="M23.1942 25.249C30.9819 19.3226 34.9954 11.4964 32.1586 7.76863C29.3219 4.0409 20.709 5.82329 12.9213 11.7497C5.13352 17.6761 1.11998 25.5024 3.95677 29.2301C6.79356 32.9579 15.4064 31.1755 23.1942 25.249Z" fill="#2C89A0"/>
<path d="M18.9862 26.9308C28.7136 25.8602 36.1837 21.2177 35.6712 16.5616C35.1588 11.9054 26.8578 8.99874 17.1305 10.0693C7.40314 11.1399 -0.0669927 15.7824 0.445465 20.4385C0.957923 25.0947 9.25891 28.0013 18.9862 26.9308Z" fill="#154450"/>
<path d="M16.6967 17.1816C16.9775 16.4688 16.7831 15.8136 15.8183 15.5904C14.7311 15.3456 13.6439 15.4536 12.5783 15.7128C12.0455 15.8424 11.5343 16.044 10.9655 16.2312C11.1167 15.432 11.2607 14.6616 11.4191 13.8408C11.9159 13.74 12.4127 13.6248 12.9095 13.5456C14.0903 13.3584 15.2783 13.236 16.4807 13.3872C17.6111 13.524 18.5471 13.9632 19.1591 14.964C19.1735 14.9856 19.2095 14.9928 19.2599 15.0216C19.3751 14.928 19.5047 14.8272 19.6343 14.7264C20.8871 13.7184 22.3055 13.1568 23.9399 13.2288C24.2495 13.2432 24.5663 13.2792 24.8687 13.3512C26.3447 13.7112 27.1079 14.8776 26.9063 16.4184C26.7191 17.8728 25.8839 18.8016 24.5663 19.3344C23.6519 19.7016 22.6943 19.8528 21.7223 19.8744C20.9447 19.8888 20.1743 19.8744 19.4183 19.8744C19.1231 20.652 19.3319 21.1488 20.0663 21.3936C20.8511 21.6672 21.6575 21.6096 22.4639 21.5232C23.2991 21.4368 24.1055 21.228 24.8759 20.8752C24.9407 20.8464 25.0127 20.8392 25.1351 20.8032C24.9767 21.6168 24.8327 22.3872 24.6815 23.208C24.1775 23.3088 23.6879 23.424 23.1911 23.5032C22.0247 23.6832 20.8511 23.8056 19.6631 23.6688C18.5183 23.532 17.5679 23.1 16.9415 22.0848C16.9271 22.0632 16.8911 22.056 16.8335 22.02C16.7111 22.1208 16.5743 22.236 16.4375 22.344C14.9759 23.5032 13.3343 24.0504 11.4623 23.7336C9.84226 23.46 8.97826 22.2216 9.20866 20.58C9.43906 18.9096 10.4975 18.024 12.0095 17.5416C12.7943 17.2896 13.6079 17.1744 14.4359 17.1672C15.1703 17.1744 15.9263 17.1816 16.6967 17.1816ZM16.3151 19.032C15.4439 19.0824 14.6159 19.1112 13.7879 19.1904C13.5215 19.2192 13.2407 19.356 13.0031 19.4928C12.5279 19.7736 12.3479 20.2992 12.4847 20.8608C12.5927 21.3144 12.9959 21.624 13.5431 21.6744C15.0623 21.8184 16.3007 20.6808 16.3151 19.032ZM19.7495 17.988C20.6279 17.988 21.4775 18.06 22.3127 17.8728C22.5719 17.8152 22.8311 17.7144 23.0543 17.5776C23.5367 17.2824 23.7239 16.728 23.5727 16.1664C23.4503 15.72 23.0399 15.4248 22.4855 15.3816C20.9735 15.2736 19.7855 16.3824 19.7495 17.988Z" fill="white"/>
</g>
<defs>
<clipPath id="clip0_1_15828">
<rect width="36" height="36" fill="white" transform="translate(0 0.5)"/>
</clipPath>
</defs>
</svg>
