<svg width="36" height="37" viewBox="0 0 36 37" fill="none" xmlns="http://www.w3.org/2000/svg">
<g clip-path="url(#clip0_1_15562)">
<path d="M1.59812 35.9967C1.56212 35.6367 1.31012 32.9151 3.91652 29.3079C6.24212 26.0895 11.8869 23.9655 16.9917 22.2231L17.4453 22.0719C20.8797 20.8983 25.7397 18.7023 26.8629 17.6367L30.3981 21.3663C28.0941 23.5479 21.4701 26.1255 19.1157 26.9319L18.6549 27.0903C16.1925 27.9327 9.64052 30.1647 8.08532 32.3247C6.64532 34.3191 6.71732 35.9751 6.71732 35.9895L1.59812 35.9967Z" fill="url(#paint0_linear_1_15562)"/>
<path d="M25.5891 36.1612H20.4483C20.4483 34.0732 19.7427 32.3164 19.1811 30.898C19.1019 30.7036 19.0299 30.5164 18.9579 30.3364C18.6483 29.5372 17.3523 27.6076 16.3155 26.0668C15.7323 25.1956 15.1203 24.2956 14.6235 23.4964C14.4579 23.2372 14.2851 22.9708 14.1123 22.6972C12.5715 20.3284 10.4619 17.0812 10.4619 12.214C10.4619 9.43483 11.5491 6.65563 13.4499 4.58203L17.2371 8.05963C16.2147 9.17563 15.6027 10.7308 15.6027 12.214C15.6027 15.5548 17.0355 17.7652 18.4251 19.8964C18.6195 20.1916 18.8067 20.4796 18.9795 20.7604C19.4403 21.4948 20.0019 22.3228 20.5923 23.2012C21.9531 25.2316 23.2419 27.1468 23.7603 28.4788C23.8251 28.6444 23.8899 28.8172 23.9619 28.9972C24.6027 30.6244 25.5891 33.0868 25.5891 36.1612Z" fill="url(#paint1_linear_1_15562)"/>
<path d="M30.3984 21.3582L26.8632 17.6286C28.2312 16.3326 29.196 15.2022 29.196 12.387C29.196 8.39104 25.8984 5.92144 22.8456 5.92144C20.412 5.92144 18.5256 6.64144 17.2296 8.05264L13.4424 4.57504C15.0336 2.83984 17.9568 0.773438 22.8528 0.773438C26.1 0.773438 29.088 2.09824 31.2624 4.49584C33.2208 6.66304 34.3512 9.53584 34.3512 12.3798C34.3368 16.995 32.4432 19.4214 30.3984 21.3582Z" fill="#FF36AF"/>
</g>
<defs>
<linearGradient id="paint0_linear_1_15562" x1="15.9868" y1="35.9937" x2="15.9868" y2="17.6284" gradientUnits="userSpaceOnUse">
<stop stop-color="#8D8D8D"/>
<stop offset="0.9996" stop-color="#504D4F"/>
</linearGradient>
<linearGradient id="paint1_linear_1_15562" x1="18.0164" y1="36.1604" x2="18.0164" y2="4.58374" gradientUnits="userSpaceOnUse">
<stop stop-color="#D3D3D3"/>
<stop offset="0.9996" stop-color="#3B3A3C"/>
</linearGradient>
<clipPath id="clip0_1_15562">
<rect width="36" height="36" fill="white" transform="translate(0 0.5)"/>
</clipPath>
</defs>
</svg>
