<svg width="36" height="37" viewBox="0 0 36 37" fill="none" xmlns="http://www.w3.org/2000/svg">
<g clip-path="url(#clip0_1_15559)">
<path d="M19.9672 1.43528C20.8604 2.32844 21.7536 3.33335 22.4235 4.33818C25.1031 8.9158 22.7584 12.9351 22.2002 14.0516C21.977 14.4982 21.977 14.9448 22.3119 15.3914C22.6468 15.9496 23.54 16.0613 23.9866 15.7263C26.108 13.94 26.2196 10.1439 26.3312 9.36234C26.3312 8.58078 26.2196 7.79922 25.9963 7.01773C25.773 6.23617 25.4381 5.56628 25.1031 4.89639C24.7682 4.22651 24.3216 3.66829 23.7634 3.11C22.8702 2.10517 21.642 1.32361 20.4139 0.765395C20.1906 0.653723 19.9673 0.653723 19.8557 0.765395C19.7439 0.988739 19.7439 1.21201 19.9672 1.43528Z" fill="#263238"/>
<path d="M16.7426 35.6631C15.8494 34.7699 14.9562 33.765 14.2863 32.7602C11.6067 28.1825 13.9513 24.1632 14.5096 23.0467C14.8445 22.6001 14.8445 22.1536 14.5096 21.7069C14.1746 21.1487 13.2815 21.037 12.8348 21.372C10.7135 23.1584 10.6018 26.9544 10.4902 27.736C10.4902 28.5176 10.6019 29.2991 10.8252 30.0806C11.0485 30.8622 11.3834 31.5321 11.7183 32.2019C12.0533 32.8718 12.4999 33.43 13.0581 33.9883C13.9513 34.9932 15.1795 35.7747 16.4076 36.3329C16.5192 36.4446 16.7425 36.3329 16.8542 36.2213C16.9658 36.1097 16.9658 35.8863 16.7426 35.6631Z" fill="#263238"/>
<path d="M26.3815 26.4494C26.2698 24.4397 25.3767 22.2067 24.0369 20.6436C22.5854 19.0805 20.9107 17.9641 19.3476 17.0709C17.7845 16.066 16.2214 15.1728 15.1049 14.0564C13.9884 12.9399 13.3185 11.7118 12.9836 10.1486C12.7603 8.58551 12.8719 7.02246 13.5418 5.57102C14.2117 4.0079 15.3282 2.66812 16.668 1.44002C16.7797 1.32834 16.8913 1.10507 16.7797 0.8818C16.668 0.658528 16.333 0.546856 16.1098 0.770128C14.435 1.55169 12.8719 2.77979 11.7554 4.56618C10.5273 6.2409 10.0807 8.47391 10.1923 10.5952C10.304 11.7118 10.5272 12.7166 10.9739 13.7214C11.4205 14.7262 12.0904 15.6195 12.7603 16.401C14.2117 17.9641 15.9981 18.9689 17.5611 19.8621C19.1243 20.7552 20.5756 21.6485 21.8038 22.765C22.9203 23.7698 23.7019 25.2213 23.9251 26.7843C24.2601 28.3474 24.0368 30.0221 23.3669 31.5852C22.697 33.1482 21.4689 34.4881 20.1291 35.6045C19.9058 35.7162 19.9058 36.0511 20.0174 36.1627C20.1291 36.386 20.464 36.4977 20.6873 36.2744C22.2504 35.2696 23.8135 34.0414 24.93 32.3667C26.0466 30.692 26.4932 28.5706 26.3815 26.4494Z" fill="#6916FF"/>
</g>
<defs>
<clipPath id="clip0_1_15559">
<rect width="36" height="36" fill="white" transform="translate(0 0.5)"/>
</clipPath>
</defs>
</svg>
