<svg width="36" height="37" viewBox="0 0 36 37" fill="none" xmlns="http://www.w3.org/2000/svg">
<g clip-path="url(#clip0_1_15667)">
<path d="M13.4931 0.6875C16.4883 0.6875 19.4835 0.6875 22.4715 0.6875C22.4859 0.7163 22.5003 0.7451 22.5075 0.7739C23.1771 2.6675 23.8539 4.5611 24.5235 6.4475C25.4883 9.1691 26.4531 11.8907 27.4251 14.6051C28.8435 18.6011 30.2619 22.5971 31.6803 26.5859C32.7603 29.6315 33.8475 32.6843 34.9275 35.7299C34.9491 35.7875 34.9707 35.8523 34.9923 35.9171C32.4579 35.9171 29.9307 35.9171 27.4035 35.9171C24.2715 27.1043 21.1323 18.2771 18.0003 9.4499C17.9931 9.4499 17.9859 9.4499 17.9787 9.4499C14.8467 18.2771 11.7075 27.1043 8.56829 35.9315C8.51789 35.9315 8.48189 35.9315 8.43869 35.9315C7.33709 35.9315 6.23549 35.9315 5.14109 35.9315C3.75149 35.9315 2.36909 35.9315 0.979492 35.9315C0.979492 35.9171 0.979492 35.9027 0.979492 35.8883C0.993892 35.8595 1.00829 35.8307 1.02269 35.8019C1.13069 35.5067 1.23149 35.2043 1.33949 34.9091C2.34749 32.0651 3.36269 29.2211 4.37069 26.3771C5.42189 23.4107 6.48029 20.4371 7.53149 17.4707C8.33069 15.2171 9.13709 12.9635 9.93629 10.7099C11.0451 7.5851 12.1539 4.4603 13.2627 1.3427C13.3419 1.1267 13.4139 0.9107 13.4931 0.6875Z" fill="black"/>
<path d="M17.9852 28.1777C20.246 28.1777 22.0604 29.9921 22.046 32.2745C22.0316 34.5281 20.174 36.3425 17.8988 36.2921C15.7388 36.2489 13.9316 34.4849 13.9316 32.2313C13.9316 29.9849 15.746 28.1777 17.9852 28.1777Z" fill="black"/>
</g>
<defs>
<clipPath id="clip0_1_15667">
<rect width="36" height="36" fill="white" transform="translate(0 0.5)"/>
</clipPath>
</defs>
</svg>
