<svg width="36" height="37" viewBox="0 0 36 37" fill="none" xmlns="http://www.w3.org/2000/svg">
<g clip-path="url(#clip0_1_15511)">
<path d="M17.9999 36.42C17.1215 36.42 16.2503 36.1896 15.4871 35.7504L4.34874 29.3136C2.79354 28.4136 1.83594 26.7576 1.83594 24.9576V12.1056C1.83594 10.3128 2.79354 8.64959 4.34874 7.74959L15.4871 1.31999C17.0423 0.427191 18.9575 0.427191 20.5127 1.31999L31.6511 7.74959C33.2063 8.64959 34.1639 10.3056 34.1639 12.1056V24.9648C34.1639 26.7576 33.2063 28.4208 31.6511 29.3208L20.5127 35.7504C19.7495 36.1896 18.8783 36.42 17.9999 36.42ZM17.9999 2.39279C17.4239 2.39279 16.8551 2.54399 16.3583 2.82479L5.21994 9.26159C4.20474 9.85199 3.57834 10.932 3.57834 12.1056V24.9648C3.58554 26.1312 4.20474 27.2112 5.21994 27.7944L16.3583 34.2312C17.3735 34.8144 18.6191 34.8144 19.6343 34.2312L30.7727 27.8016C31.7807 27.2184 32.4071 26.1384 32.4143 24.972V12.1056C32.4143 10.932 31.7879 9.85199 30.7727 9.26159L19.6415 2.83199C19.1375 2.54399 18.5759 2.39279 17.9999 2.39279ZM17.9999 30.5808C17.5247 30.5808 17.0567 30.4584 16.6463 30.2136L8.55354 25.5552C7.71834 25.0656 7.20714 24.1728 7.20714 23.208V13.8624C7.20714 12.8976 7.71834 12.0048 8.55354 11.5152L16.6463 6.84959C17.4887 6.36719 18.5183 6.36719 19.3607 6.84959L27.4463 11.5152C28.2815 11.9976 28.7999 12.8976 28.7999 13.8624V23.2008C28.7999 24.1656 28.2815 25.0656 27.4463 25.548L19.3535 30.2136C18.9431 30.4584 18.4751 30.5808 17.9999 30.5808ZM17.9999 7.79279C17.7551 7.79279 17.5103 7.85759 17.3015 7.97999L9.20874 12.6528C8.77674 12.9048 8.51754 13.3728 8.51754 13.8696V23.208C8.51754 23.712 8.78394 24.1728 9.22314 24.4248L17.3087 29.0904C17.7407 29.3424 18.2807 29.3424 18.7127 29.0904L26.8055 24.4248C27.2375 24.1728 27.5039 23.712 27.5039 23.208V13.8624C27.5039 13.3584 27.2375 12.8976 26.7983 12.6456L18.6983 7.97999C18.4895 7.85759 18.2447 7.79279 17.9999 7.79279ZM17.9999 24.6624C17.7551 24.6624 17.5175 24.5976 17.3087 24.4752L13.2047 22.1064C12.7727 21.8544 12.5135 21.3936 12.5135 20.8968V16.1592C12.5135 15.6624 12.7799 15.2016 13.2047 14.9568L17.3087 12.588C17.7407 12.3432 18.2663 12.3432 18.6983 12.588L22.8023 14.9568C23.2343 15.2016 23.4935 15.6624 23.4935 16.1592V20.8968C23.4935 21.3936 23.2271 21.8544 22.8023 22.0992L18.6983 24.468C18.4823 24.5976 18.2447 24.6624 17.9999 24.6624ZM17.9999 13.2792C17.9063 13.2792 17.8199 13.3008 17.7407 13.344L13.6367 15.72C13.4783 15.8136 13.3847 15.972 13.3775 16.152V20.904C13.3775 21.0912 13.4783 21.2568 13.6367 21.3504L17.7407 23.7336C17.8991 23.8272 18.1007 23.8272 18.2591 23.7336L22.3631 21.3648C22.5287 21.2712 22.6223 21.0912 22.6223 20.904V16.1664C22.6151 15.9864 22.5215 15.8208 22.3631 15.7344L18.2591 13.3512C18.1799 13.3008 18.0935 13.2792 17.9999 13.2792Z" fill="url(#paint0_linear_1_15511)"/>
</g>
<defs>
<linearGradient id="paint0_linear_1_15511" x1="1.83882" y1="18.5346" x2="34.1611" y2="18.5346" gradientUnits="userSpaceOnUse">
<stop stop-color="#E168FD"/>
<stop offset="1" stop-color="#7B00FC"/>
</linearGradient>
<clipPath id="clip0_1_15511">
<rect width="36" height="36" fill="white" transform="translate(0 0.5)"/>
</clipPath>
</defs>
</svg>
