<svg width="36" height="37" viewBox="0 0 36 37" fill="none" xmlns="http://www.w3.org/2000/svg">
<g clip-path="url(#clip0_1_15941)">
<path d="M30.5852 5.91397C27.2228 2.55157 22.7516 0.701172 17.9996 0.701172C13.2476 0.701172 8.77637 2.55157 5.41397 5.91397C2.05157 9.27637 0.201172 13.7476 0.201172 18.4996C0.201172 23.2516 2.05157 27.7228 5.41397 31.0852C8.77637 34.4476 13.2476 36.298 17.9996 36.298C22.7516 36.298 27.2228 34.4476 30.5852 31.0852C33.9476 27.7228 35.798 23.2516 35.798 18.4996C35.798 13.7476 33.9476 9.27637 30.5852 5.91397ZM11.5124 27.6868H6.87557L8.27237 25.0804L11.5124 27.6868ZM6.49397 22.69V14.8636L17.618 23.7124V31.6324L6.49397 22.69ZM18.374 28.4428H22.2116L18.374 31.6108V28.4428ZM18.374 27.6868V23.5252C18.374 23.41 18.3236 23.302 18.23 23.23L12.1604 18.406L17.9924 8.44117L29.2028 27.6868H18.374ZM24.8252 18.6652L29.4908 14.9572V22.726L27.9212 23.9788L24.8252 18.6652ZM24.4364 18.0028L18.3236 7.50517C18.2588 7.38997 18.1292 7.31797 17.9996 7.31797C17.8628 7.31797 17.7404 7.38997 17.6756 7.50517L11.57 17.9308L6.72437 14.0788L17.9996 5.23717L29.2604 14.1724L24.4364 18.0028ZM0.957172 18.4996C0.957172 13.9492 2.72837 9.66517 5.94677 6.44677C9.07877 3.31477 13.2116 1.55797 17.618 1.45717V4.56757L5.88197 13.7764C5.78837 13.8484 5.73797 13.9564 5.73797 14.0716V22.8628C5.73797 22.978 5.78837 23.086 5.88197 23.158L7.66757 24.5908L5.91077 27.8812C5.84597 27.9964 5.85317 28.1404 5.91797 28.2556C5.98277 28.3708 6.11237 28.4356 6.24197 28.4356H12.4556L17.6252 32.59V35.5348C13.2116 35.4412 9.07877 33.6772 5.95397 30.5452C2.72837 27.334 0.957172 23.05 0.957172 18.4996ZM30.0524 30.5524C26.9204 33.6844 22.7876 35.4412 18.3812 35.542V32.5972L23.3996 28.45H29.8652C30.002 28.45 30.1244 28.378 30.1892 28.2628C30.254 28.1476 30.254 28.0036 30.1892 27.8884L28.3028 24.6484L30.1028 23.2084C30.1892 23.1364 30.2468 23.0284 30.2468 22.9132V14.1724C30.2468 14.0572 30.1964 13.9492 30.1028 13.8772L18.374 4.57477V1.46437C22.7876 1.55797 26.9204 3.32197 30.0452 6.45397C33.2636 9.67237 35.0348 13.9492 35.0348 18.5068C35.042 23.05 33.2708 27.334 30.0524 30.5524Z" fill="#EFC9A9"/>
</g>
<defs>
<clipPath id="clip0_1_15941">
<rect width="36" height="36" fill="white" transform="translate(0 0.5)"/>
</clipPath>
</defs>
</svg>
