<svg width="36" height="37" viewBox="0 0 36 37" fill="none" xmlns="http://www.w3.org/2000/svg">
<g clip-path="url(#clip0_1_15963)">
<path d="M27.2163 27.7163C26.0859 28.8467 24.2499 28.8467 23.1195 27.7163C21.9891 26.5859 21.9891 24.7499 23.1195 23.6195C24.2499 22.4891 26.0859 22.4891 27.2163 23.6195C28.3467 24.7499 28.3467 26.5859 27.2163 27.7163ZM14.9259 33.8579L19.0227 29.7611C19.5915 29.1923 20.5059 29.1923 21.0675 29.7611C21.6363 30.3299 21.6363 31.2443 21.0675 31.8059L16.9707 35.9027C16.4019 36.4715 15.4875 36.4715 14.9259 35.9027C14.3643 35.3411 14.3643 34.4267 14.9259 33.8579ZM31.3131 29.7683L35.4099 33.8651C35.9787 34.4339 35.9787 35.3483 35.4099 35.9099C34.8411 36.4787 33.9267 36.4787 33.3651 35.9099L29.2683 31.8131C28.6995 31.2443 28.6995 30.3299 29.2683 29.7683C29.8299 29.1995 30.7443 29.1995 31.3131 29.7683ZM12.8811 13.3811C11.7507 14.5115 9.91466 14.5115 8.78426 13.3811C7.65386 12.2507 7.65386 10.4147 8.78426 9.28426C9.91466 8.15386 11.7507 8.15386 12.8811 9.28426C14.0115 10.4147 14.0115 12.2507 12.8811 13.3811ZM14.9259 5.18746L19.0227 1.09066C19.5915 0.521863 20.5059 0.521863 21.0675 1.09066C21.6363 1.65946 21.6363 2.57386 21.0675 3.13546L16.9707 7.23226C16.4019 7.80106 15.4875 7.80106 14.9259 7.23226C14.3643 6.67066 14.3643 5.75626 14.9259 5.18746ZM16.9779 15.4259L21.0747 19.5227C21.6435 20.0915 21.6435 21.0059 21.0747 21.5675C20.5059 22.1291 19.5915 22.1363 19.0299 21.5675L14.9331 17.4707C14.3643 16.9019 14.3643 15.9875 14.9331 15.4259C15.4947 14.8643 16.4091 14.8643 16.9779 15.4259ZM2.64266 1.09066L6.73946 5.18746C7.30826 5.75626 7.30826 6.67066 6.73946 7.23226C6.17066 7.80106 5.25626 7.80106 4.69466 7.23226L0.590663 3.14266C0.0218625 2.57386 0.0218625 1.65946 0.590663 1.09786C1.15946 0.521863 2.07386 0.521863 2.64266 1.09066Z" fill="#539BEF"/>
</g>
<defs>
<clipPath id="clip0_1_15963">
<rect width="36" height="36" fill="white" transform="translate(0 0.5)"/>
</clipPath>
</defs>
</svg>
