<svg width="36" height="37" viewBox="0 0 36 37" fill="none" xmlns="http://www.w3.org/2000/svg">
<path d="M9.7706 34.557L18.0506 13.2882L26.3738 34.557H35.7122L22.2842 2.50977H13.7162L0.266602 34.557H9.7706Z" fill="#848DE0"/>
<path d="M22.2844 2.50977L18.0508 13.2882L28.318 16.989L22.2844 2.50977Z" fill="#5B639B"/>
<path d="M18.0508 13.2871L21.514 22.1071L28.318 16.9879L18.0508 13.2871Z" fill="#676FB0"/>
<path d="M28.3177 16.9883L35.7121 34.5563L21.5137 22.1075L28.3177 16.9883Z" fill="#444A74"/>
<path d="M21.5137 22.1074L26.3737 34.5562H35.7121L21.5137 22.1074Z" fill="#52578B"/>
<path d="M18.0502 13.2882L13.7158 2.50977H22.2838L18.0502 13.2882Z" fill="#848DE0"/>
<path d="M18.0501 13.2882L13.7157 2.50977L11.3037 8.30577L18.0501 13.2882Z" fill="#7780CB"/>
<path d="M18.0505 13.2871L11.3041 8.30469L7.7041 16.8583L18.0505 13.2871Z" fill="#676FB0"/>
<path d="M18.0505 13.2871L7.7041 16.8583L14.6233 22.0927L18.0505 13.2871Z" fill="#5B639C"/>
<path d="M14.6234 22.0918L0.266602 34.555L7.7042 16.8574L14.6234 22.0918Z" fill="#52578B"/>
<path d="M14.6234 22.0938L9.7706 34.557H0.266602L14.6234 22.0938Z" fill="#444A74"/>
</svg>
