<svg width="36" height="37" viewBox="0 0 36 37" fill="none" xmlns="http://www.w3.org/2000/svg">
<g clip-path="url(#clip0_1_15906)">
<path d="M18.0043 36.1356C27.7795 36.1356 35.7039 28.2112 35.7039 18.4359C35.7039 8.66072 27.7795 0.736328 18.0043 0.736328C8.22907 0.736328 0.304688 8.66072 0.304688 18.4359C0.304688 28.2112 8.22907 36.1356 18.0043 36.1356Z" fill="url(#paint0_linear_1_15906)"/>
<path d="M21.5605 14.2889L26.9855 3.18223L26.4132 2.86442C24.8317 1.98573 23.5675 1.59463 22.2467 1.24881L21.5896 1.10078L18.2902 9.57201L14.9721 0.996094L14.4562 1.09308C12.8252 1.42457 11.4647 1.91208 10.1185 2.58679L9.61445 2.84851L14.9257 14.2574L8.35352 33.2819L8.9874 33.671C9.81951 34.1735 11.0302 34.7889 12.577 35.289L13.4383 35.5421L14.2024 33.1876H21.7807L22.5483 35.5421L23.1597 35.3741C25.0934 34.7738 26.2914 34.1156 27.119 33.6124L27.7705 33.2006L21.5605 14.2889ZM15.7645 27.6923L17.9986 20.4881L20.1753 27.6923H15.7645Z" fill="white"/>
</g>
<defs>
<linearGradient id="paint0_linear_1_15906" x1="18.0043" y1="0.797521" x2="18.0043" y2="36.126" gradientUnits="userSpaceOnUse">
<stop stop-color="#4DC6FB"/>
<stop offset="1" stop-color="#153E71"/>
</linearGradient>
<clipPath id="clip0_1_15906">
<rect width="36" height="36" fill="white" transform="translate(0 0.5)"/>
</clipPath>
</defs>
</svg>
