<svg width="36" height="37" viewBox="0 0 36 37" fill="none" xmlns="http://www.w3.org/2000/svg">
<path d="M35.6635 19.0736C34.7391 20.8339 33.4559 22.3147 32.0196 23.6635C28.7975 26.6893 24.9982 28.5492 20.599 29.047C14.2947 29.7603 8.7405 28.0361 4.04308 23.7152C2.77948 22.5528 1.7002 21.2339 0.738352 19.8097C0.304911 19.168 0.284751 18.6248 0.727839 17.9795C4.11832 13.0419 8.66901 9.8684 14.6336 8.91995C19.2788 8.18123 23.719 8.87192 27.8572 11.1761C30.793 12.8108 33.1867 15.0465 35.0631 17.8334C35.2806 18.1565 35.4642 18.5023 35.6636 18.8375C35.6635 18.9163 35.6635 18.9949 35.6635 19.0736ZM24.1664 11.6033C24.2037 11.6482 24.2359 11.6991 24.2791 11.7372C25.7173 13.006 26.7149 14.5541 27.2237 16.407C27.2909 16.6516 27.4242 16.7997 27.6296 16.9451C28.0913 17.2723 28.1912 17.8512 27.9082 18.3009C27.6228 18.7546 27.0302 18.9133 26.5625 18.6615C26.0908 18.4077 25.8691 17.8465 26.1335 17.3498C26.3066 17.0246 26.2544 16.761 26.1584 16.4573C24.4171 10.9493 18.0794 8.7902 13.3755 11.7594C13.2427 11.8433 13.1164 11.9411 12.9755 12.0081C12.6771 12.1501 12.4395 12.0725 12.2836 11.7832C12.2215 11.6678 12.1923 11.5347 12.1309 11.3608C8.00877 12.7888 4.79699 15.3356 2.29701 18.8839C4.6864 22.3112 7.73293 24.8137 11.7178 26.33C11.6271 26.1823 11.6116 26.1444 11.5853 26.1167C11.5175 26.0457 11.4455 25.9787 11.3743 25.911C10.059 24.6616 9.16386 23.1618 8.70386 21.4067C8.61882 21.082 8.5289 20.7988 8.24802 20.5535C7.82358 20.1827 7.84158 19.5862 8.20439 19.1766C8.54394 18.7932 9.11922 18.7248 9.54302 19.0177C9.97826 19.3185 10.1382 19.9174 9.81633 20.3704C9.61019 20.6604 9.63424 20.9023 9.71675 21.1913C11.0301 25.7944 15.5814 28.5425 20.6891 27.0236C21.4831 26.7876 22.206 26.2986 22.9444 25.8947C23.4646 25.61 23.7048 25.6858 23.8913 26.2678C23.9067 26.3159 23.95 26.355 24.0054 26.434C28.0333 24.9973 31.1897 22.4682 33.6604 18.9708C31.2455 15.5073 28.1547 12.9881 24.1664 11.6033ZM25.7435 18.942C25.745 23.2297 22.2778 26.7078 17.9889 26.7212C13.719 26.7346 10.2074 23.2351 10.2058 18.9652C10.2043 14.6766 13.6751 11.2016 17.9657 11.1962C22.2611 11.1909 25.7422 14.6576 25.7435 18.942ZM24.7045 18.9945C24.7139 15.2796 21.728 12.2537 18.0342 12.2348C14.2962 12.2157 11.2474 15.2255 11.2428 18.9395C11.2381 22.6344 14.2573 25.6632 17.9497 25.668C21.6682 25.6728 24.6951 22.6824 24.7045 18.9945ZM27.0359 19.5253C26.747 19.5022 26.5242 19.6655 26.4775 20.0046C26.2351 21.764 25.5325 23.3068 24.3592 24.6409C24.1057 24.9291 24.1119 25.2249 24.3244 25.4266C24.5536 25.6443 24.856 25.6039 25.1484 25.3152C25.1902 25.274 25.2291 25.2295 25.2672 25.1847C26.1559 24.1405 26.817 22.9708 27.1827 21.6457C27.323 21.137 27.4212 20.6166 27.5079 20.2362C27.4993 19.7593 27.3253 19.5484 27.0359 19.5253ZM8.90711 18.1012C9.19173 18.1614 9.41975 17.9816 9.5207 17.6124C9.54654 17.518 9.55986 17.42 9.57873 17.3237C9.87141 15.8254 10.5253 14.5043 11.5246 13.3521C11.6397 13.2194 11.7608 13.0873 11.8496 12.9375C11.9761 12.7241 11.9385 12.4761 11.7446 12.3592C11.5863 12.2637 11.3424 12.2504 11.1529 12.2867C11.0223 12.3117 10.8975 12.4677 10.8086 12.5926C10.3547 13.2307 9.87098 13.8531 9.47778 14.5277C8.94988 15.4335 8.65547 16.434 8.50751 17.4271C8.49318 17.823 8.63416 18.0435 8.90711 18.1012ZM18.0242 23.6849C18.4568 23.6849 18.8894 23.6884 19.3219 23.6842C20.0258 23.6773 20.2103 23.4766 20.1066 22.7912C19.9418 21.7031 19.7729 20.6153 19.5792 19.5322C19.5125 19.1591 19.5406 18.9023 19.8483 18.6036C20.8546 17.6263 20.8229 16.0371 19.8361 15.0572C18.8547 14.0826 17.2613 14.072 16.2701 15.0335C15.2754 15.9986 15.2281 17.5969 16.2173 18.5831C16.5139 18.8788 16.5682 19.1349 16.4976 19.516C16.2901 20.6367 16.1033 21.7615 15.9366 22.889C15.855 23.441 16.0591 23.6624 16.6084 23.6806C17.0798 23.6961 17.5521 23.6838 18.024 23.6838C18.0242 23.6843 18.0242 23.6846 18.0242 23.6849Z" fill="url(#paint0_linear_1_15791)"/>
<defs>
<linearGradient id="paint0_linear_1_15791" x1="0.404329" y1="18.9199" x2="35.6636" y2="18.9199" gradientUnits="userSpaceOnUse">
<stop stop-color="#29B6FF"/>
<stop offset="0.5062" stop-color="#053EC3"/>
<stop offset="1" stop-color="#6416B9"/>
</linearGradient>
</defs>
</svg>
