<svg width="36" height="37" viewBox="0 0 36 37" fill="none" xmlns="http://www.w3.org/2000/svg">
<g clip-path="url(#clip0_1_15903)">
<path d="M35.0281 16.8088L19.6777 1.45843C18.7201 0.500834 17.1649 0.500834 16.2073 1.45843L0.856872 16.8088C-0.100728 17.7664 -0.100728 19.3216 0.856872 20.2792L16.2073 35.6296C17.1649 36.5872 18.7201 36.5872 19.6777 35.6296L35.0281 20.2792C35.9857 19.3216 35.9857 17.7664 35.0281 16.8088ZM8.60407 23.152L5.15527 19.7032C4.53607 19.084 4.53607 18.0832 5.15527 17.464L8.60407 14.0152C9.22327 13.396 10.2241 13.396 10.8433 14.0152L14.2921 17.464C14.9113 18.0832 14.9113 19.084 14.2921 19.7032L10.8433 23.152C10.2241 23.7712 9.22327 23.7712 8.60407 23.152ZM22.5577 28.3576L19.1089 31.8064C18.4897 32.4256 17.4889 32.4256 16.8697 31.8064L13.4209 28.3576C12.8017 27.7384 12.8017 26.7376 13.4209 26.1184L16.8697 22.6696C17.4889 22.0504 18.4897 22.0504 19.1089 22.6696L22.5577 26.1184C23.1769 26.7376 23.1769 27.7384 22.5577 28.3576ZM31.2193 19.696L27.7705 23.1448C27.1513 23.764 26.1505 23.764 25.5313 23.1448L22.0825 19.696C21.4633 19.0768 21.4633 18.076 22.0825 17.4568L25.5313 14.008C26.1505 13.3888 27.1513 13.3888 27.7705 14.008L31.2193 17.4568C31.8385 18.076 31.8385 19.0768 31.2193 19.696Z" fill="#0047BB"/>
</g>
<defs>
<clipPath id="clip0_1_15903">
<rect width="36" height="36" fill="white" transform="translate(0 0.5)"/>
</clipPath>
</defs>
</svg>
