<svg width="36" height="37" viewBox="0 0 36 37" fill="none" xmlns="http://www.w3.org/2000/svg">
<g clip-path="url(#clip0_1_15893)">
<path d="M17.964 36.428C27.8852 36.428 35.928 28.3852 35.928 18.464C35.928 8.54276 27.8852 0.5 17.964 0.5C8.04276 0.5 0 8.54276 0 18.464C0 28.3852 8.04276 36.428 17.964 36.428Z" fill="#D9327C"/>
<path fill-rule="evenodd" clip-rule="evenodd" d="M17.2365 9.68042C17.0853 9.78842 16.9197 9.99722 16.7829 10.4004C16.6605 10.7748 15.9981 12.6972 15.1701 15.0948H20.7573C19.9293 12.6972 19.2669 10.7748 19.1445 10.4004C19.0077 9.99722 18.8421 9.78842 18.6909 9.68042C18.5469 9.57242 18.3309 9.48602 17.9637 9.48602C17.5965 9.48602 17.3805 9.57242 17.2365 9.68042ZM8.98526 15.0948H12.8013C13.7445 12.366 14.5221 10.0908 14.6589 9.68762C14.8965 8.96762 15.2925 8.33402 15.8901 7.88042C16.4949 7.42682 17.2149 7.23242 17.9637 7.23242C18.7197 7.23242 19.4325 7.42682 20.0373 7.88042C20.6349 8.33402 21.0309 8.96762 21.2685 9.68762C21.4053 10.0908 22.1829 12.366 23.1261 15.0948H26.9349C27.5541 15.0948 28.0581 15.5988 28.0581 16.218C28.0581 16.8372 27.5541 17.3412 26.9349 17.3412H23.8965H21.5205H14.3853H12.0093H8.97086C8.35166 17.3412 7.84766 16.8372 7.84766 16.218C7.84766 15.5988 8.35886 15.0948 8.98526 15.0948ZM8.98526 19.5876C8.36606 19.5876 7.86206 20.0916 7.86206 20.7108C7.86206 21.33 8.36606 21.834 8.98526 21.834H10.4757L9.87806 23.5692L9.28046 25.3044L9.05726 25.9596C8.85566 26.5428 9.16526 27.1836 9.74846 27.3852C10.3317 27.5868 10.9725 27.2772 11.1741 26.694L11.3973 26.0388L11.9949 24.3036C12.2469 23.5836 12.5349 22.7412 12.8517 21.834H23.0901C23.4069 22.7412 23.6949 23.5836 23.9469 24.3036L24.5445 26.0388L24.7677 26.694C24.9693 27.2772 25.6101 27.594 26.1933 27.3852C26.7765 27.1836 27.0933 26.5428 26.8845 25.9596L26.6613 25.3044L26.0637 23.5692L25.4661 21.834H26.9493C27.5685 21.834 28.0725 21.33 28.0725 20.7108C28.0725 20.0916 27.5685 19.5876 26.9493 19.5876H24.6885H22.3125H13.6221H11.2461H8.98526ZM25.8261 26.3268L26.8845 25.9596C26.8845 25.9596 26.8845 25.9596 25.8261 26.3268ZM25.8261 26.3268C24.7677 26.694 24.7677 26.694 24.7677 26.694L25.8261 26.3268ZM10.1013 26.3268L11.1597 26.694C11.1669 26.694 11.1669 26.694 10.1013 26.3268ZM10.1013 26.3268C9.04286 25.9596 9.04286 25.9596 9.04286 25.9596L10.1013 26.3268Z" fill="white"/>
</g>
<defs>
<clipPath id="clip0_1_15893">
<rect width="36" height="36" fill="white" transform="translate(0 0.5)"/>
</clipPath>
</defs>
</svg>
