<svg width="36" height="37" viewBox="0 0 36 37" fill="none" xmlns="http://www.w3.org/2000/svg">
<g clip-path="url(#clip0_1_15886)">
<path d="M0.395644 36.5C0.366844 36.0032 0.366844 35.4992 0.388444 35.0024C0.554044 34.952 0.726844 34.916 0.899644 34.8944C1.40364 34.808 1.90044 34.6856 2.38284 34.5416C2.51964 34.4984 2.64924 34.4552 2.77884 34.3976C3.41964 34.1456 3.98844 33.7352 4.42044 33.1952C4.72284 32.8208 4.98204 32.4176 5.20524 31.9856C5.52204 31.4024 5.80284 30.7976 6.04764 30.1784C6.54444 28.9328 7.04844 27.68 7.53804 26.4344C9.23724 22.136 10.9364 17.8304 12.6356 13.532C14.2484 9.4424 15.8252 5.3456 17.3804 1.2344C17.4092 1.148 17.4452 1.0688 17.4812 0.9824C18.05 0.824 18.6188 0.6584 19.202 0.5C19.238 0.5864 19.2668 0.6584 19.2956 0.7304C19.9508 2.5664 20.606 4.4024 21.2612 6.2384C23.5004 12.4952 25.7468 18.752 28.0508 24.9872C28.6772 26.6936 29.318 28.3928 29.9588 30.092C30.2108 30.7832 30.506 31.4672 30.8444 32.1224C30.9956 32.4032 31.154 32.6768 31.3268 32.9432C31.8596 33.7712 32.6876 34.3688 33.6452 34.6208C34.1564 34.7576 34.682 34.8584 35.2076 34.9304L35.582 34.988C35.6324 35.1536 35.6036 35.3192 35.6108 35.4776C35.618 35.636 35.6108 35.816 35.6108 35.9888C35.618 36.1544 35.6108 36.32 35.6036 36.4784C35.5532 36.4856 35.51 36.5 35.4668 36.5C35.4092 36.5 35.3516 36.5 35.2868 36.5H22.2764C22.262 36.4712 22.2548 36.4424 22.2476 36.4064C22.2476 35.9528 22.2476 35.5064 22.2476 35.0528C22.2548 35.0312 22.2548 35.0096 22.262 34.9952C22.37 34.9664 22.4852 34.9448 22.5932 34.9304C23.1332 34.8584 23.6732 34.7504 24.1988 34.6136C24.4148 34.556 24.6236 34.4768 24.8252 34.3976C24.926 34.3544 25.0268 34.3112 25.1204 34.2536C25.6388 33.9584 25.8476 33.5048 25.8044 32.9216C25.7828 32.6552 25.7324 32.396 25.6676 32.1368C25.5668 31.7336 25.4156 31.3448 25.2788 30.956C22.5428 23.3312 19.8428 15.692 17.1716 8.0456C17.1428 7.9592 17.1356 7.8728 17.0492 7.7936C17.0204 7.808 16.9844 7.8224 16.9628 7.8512C16.9412 7.8872 16.9268 7.9304 16.9124 7.9736C15.6092 11.732 14.2124 15.4616 12.83 19.1984C11.8076 21.9632 10.7852 24.728 9.82764 27.5144C9.44604 28.6304 9.07884 29.7536 8.71884 30.884C8.58204 31.316 8.47404 31.7552 8.40924 32.2016C8.35884 32.504 8.35164 32.8064 8.38044 33.1088C8.42364 33.5048 8.63244 33.8648 8.95644 34.0952C9.16524 34.2464 9.39564 34.3616 9.64764 34.448C10.0364 34.5848 10.4396 34.6856 10.85 34.7576C11.3036 34.844 11.7572 34.9016 12.2036 34.9736C12.2324 34.9808 12.2612 34.988 12.2972 34.9952C12.3116 35.0312 12.3188 35.06 12.3188 35.096C12.3188 35.5352 12.3188 35.9672 12.3188 36.4064C12.3188 36.4352 12.3116 36.4568 12.3044 36.4856C12.2612 36.4928 12.2252 36.5 12.182 36.5072C12.1244 36.5072 12.0668 36.5072 12.002 36.5072L0.395644 36.5Z" fill="black"/>
</g>
<defs>
<clipPath id="clip0_1_15886">
<rect width="36" height="36" fill="white" transform="translate(0 0.5)"/>
</clipPath>
</defs>
</svg>
