<svg width="36" height="37" viewBox="0 0 36 37" fill="none" xmlns="http://www.w3.org/2000/svg">
<g clip-path="url(#clip0_1_15872)">
<path d="M18 36.5C8.1 36.5 0 28.4 0 18.5C0 8.6 8.1 0.5 18 0.5C27.9 0.5 36 8.6 36 18.5C36 28.4 27.9 36.5 18 36.5Z" fill="#4BDB4B"/>
<path opacity="0.4" d="M28.4691 22.02C29.3691 23.6688 28.7715 25.7712 27.2667 26.6712C25.6179 27.5712 23.5155 26.9736 22.6155 25.4688L15.4155 13.1712C14.5155 11.5224 15.1131 9.42003 16.7691 8.52003C18.4179 7.46883 20.3691 8.07363 21.4203 9.72243L28.4691 22.02Z" fill="black"/>
<path opacity="0.65" d="M14.3209 25.4695C13.4209 27.1183 11.3185 27.7159 9.6697 26.6719C8.0209 25.7719 7.4161 23.6695 8.4673 22.0207L15.5161 9.72314C16.4161 8.07434 18.5185 7.47674 20.1673 8.52074C21.8161 9.42074 22.4137 11.5231 21.3697 13.1719L14.3209 25.4695Z" fill="black"/>
<path d="M21.8235 11.4508C21.8235 13.402 18.3747 18.2044 18.3747 18.2044C18.3747 18.2044 15.0771 13.402 15.0771 11.4508C15.0771 9.49955 16.5747 8.00195 18.5259 8.00195C20.4771 8.00195 21.8235 9.65075 21.8235 11.4508Z" fill="black"/>
</g>
<defs>
<clipPath id="clip0_1_15872">
<rect width="36" height="36" fill="white" transform="translate(0 0.5)"/>
</clipPath>
</defs>
</svg>
