<svg width="36" height="37" viewBox="0 0 36 37" fill="none" xmlns="http://www.w3.org/2000/svg">
<g clip-path="url(#clip0_1_15832)">
<path d="M33.2282 22.0859V27.4139L19.7354 35.3195V31.5179L29.9522 25.5347V22.0859H33.2282Z" fill="#2A8BCB"/>
<path d="M16.6246 31.6187V35.4203L2.95898 27.4139V22.0859H6.23498V25.5347L16.6246 31.6187Z" fill="#35ADDD"/>
<path d="M19.7354 25.123V35.3182L18.0938 36.2758L16.625 35.419V25.123H19.7354Z" fill="#35ADDD"/>
<path d="M18.1797 14.6198C20.4333 14.6198 22.2549 16.4485 22.2549 18.6949C22.2549 20.9413 20.4261 22.7701 18.1797 22.7701C15.9333 22.7701 14.1045 20.9413 14.1045 18.6949C14.1045 16.4485 15.9261 14.6198 18.1797 14.6198ZM18.1797 11.3438C14.1261 11.3438 10.8213 14.6413 10.8213 18.7022C10.8213 22.763 14.1189 26.0606 18.1797 26.0606C22.2405 26.0606 25.5381 22.763 25.5381 18.7022C25.5381 14.6413 22.2333 11.3438 18.1797 11.3438Z" fill="#2A8BCB"/>
<path d="M6.23498 15.1804V11.5588L18.0934 4.61801L29.9518 11.5588V15.1804H33.2278V9.67961L18.0934 0.816406L2.95898 9.67961V15.1804H6.23498Z" fill="#35ADDD"/>
<path d="M6.23498 15.1805L2.95898 9.67969L6.23498 11.5589V15.1805Z" fill="#2A8BCB"/>
<path d="M18.0938 4.61801V0.816406L6.23535 11.5588L18.0938 4.61801Z" fill="#2A8BCB"/>
<path d="M29.9521 11.5588L18.0938 0.816406V4.61801L29.9521 11.5588Z" fill="#3D4599"/>
<path d="M33.2281 9.67969L29.9521 15.1805H33.2281V9.67969Z" fill="#3D4599"/>
<path d="M18.0938 0.816406L33.2281 9.67961L29.9521 11.5588L18.0938 0.816406Z" fill="#2A8BCB"/>
<path d="M2.95898 22.0859L6.23498 25.5347L2.95898 27.4139V22.0859Z" fill="#2A8BCB"/>
<path d="M29.9521 22.0859H33.2281L29.9521 25.5347V22.0859Z" fill="#3D4599"/>
<path d="M29.9522 25.5352L19.7354 35.32L33.2282 27.4144L29.9522 25.5352Z" fill="#3D4599"/>
<path d="M6.23535 25.5352L16.625 31.6192V35.4208L6.23535 25.5352Z" fill="#2A8BCB"/>
<path d="M33.2281 22.0859L29.9521 25.5347L33.2281 27.4139V22.0859Z" fill="#35ADDD"/>
</g>
<defs>
<clipPath id="clip0_1_15832">
<rect width="36" height="36" fill="white" transform="translate(0 0.5)"/>
</clipPath>
</defs>
</svg>
