<svg width="36" height="37" viewBox="0 0 36 37" fill="none" xmlns="http://www.w3.org/2000/svg">
<g clip-path="url(#clip0_1_15730)">
<path d="M18.0002 36.3565C27.826 36.3565 35.7914 28.3621 35.7914 18.5005C35.7914 8.63894 27.826 0.644531 18.0002 0.644531C8.17438 0.644531 0.208984 8.63894 0.208984 18.5005C0.208984 28.3621 8.17438 36.3565 18.0002 36.3565Z" fill="url(#paint0_linear_1_15730)" fill-opacity="0.05"/>
<path d="M31.903 17.3195C32.0254 14.7491 30.2326 13.0427 28.2166 11.8691L26.9062 19.6163C27.8134 19.5659 28.2598 19.9115 28.4254 20.0771C28.627 20.2787 29.131 20.8907 28.5262 21.8627C29.7862 21.6467 31.759 20.4299 31.903 17.3195Z" fill="url(#paint1_linear_1_15730)"/>
<path fill-rule="evenodd" clip-rule="evenodd" d="M14.6734 8.30379L13.1038 6.72699C15.4582 6.43899 21.679 6.80619 27.7054 10.6006C27.8062 11.011 27.7054 11.623 27.7054 11.623L28.2094 11.875C28.6486 12.5014 29.3902 14.287 28.8646 16.411C28.339 18.535 27.4318 19.435 27.043 19.6222C26.2366 19.6222 24.8614 20.0902 24.415 22.171C23.9686 24.2518 23.119 24.6982 22.7446 24.6694L13.8526 24.7702L7.99181 21.307L7.14941 14.107L8.81981 11.8678L11.8006 9.41979L13.9246 8.55579L14.6734 8.30379ZM25.1782 11.2702C24.7894 11.6806 24.4222 11.875 24.3142 11.9326C22.0246 11.443 21.1966 10.255 21.1966 10.255C23.3566 10.2406 25.3078 10.759 26.7334 11.6302C26.7334 11.623 25.963 11.3782 25.1782 11.2702Z" fill="url(#paint2_linear_1_15730)"/>
<path fill-rule="evenodd" clip-rule="evenodd" d="M24.3504 22.1649C22.7808 22.9353 20.9232 23.3817 18.9216 23.3817C13.3128 23.3817 8.76965 19.8465 8.76965 15.4833C8.76965 12.2649 11.2536 9.49292 14.8104 8.26172C8.04245 8.65052 2.60645 14.1081 2.60645 20.8329C2.60645 28.6017 9.50405 35.0169 18.0144 35.0169C24.372 35.0169 29.6568 31.3233 32.4216 26.3697C28.62 27.2337 24.1128 25.6065 24.3504 22.1649Z" fill="url(#paint3_linear_1_15730)"/>
</g>
<defs>
<linearGradient id="paint0_linear_1_15730" x1="18.0002" y1="13.1406" x2="18.0002" y2="36.8259" gradientUnits="userSpaceOnUse">
<stop stop-color="#01E8F8"/>
<stop offset="1" stop-color="#01E8F8" stop-opacity="0"/>
</linearGradient>
<linearGradient id="paint1_linear_1_15730" x1="29.1331" y1="14.7157" x2="29.8132" y2="23.4635" gradientUnits="userSpaceOnUse">
<stop stop-color="#01E8F7"/>
<stop offset="1" stop-color="#00C2FF"/>
</linearGradient>
<linearGradient id="paint2_linear_1_15730" x1="13.5007" y1="9.05337" x2="22.7133" y2="23.6234" gradientUnits="userSpaceOnUse">
<stop stop-color="#01E8F7"/>
<stop offset="1" stop-color="#00B3EC"/>
</linearGradient>
<linearGradient id="paint3_linear_1_15730" x1="17.2378" y1="15.8469" x2="18.062" y2="39.4011" gradientUnits="userSpaceOnUse">
<stop stop-color="#01E8F7"/>
<stop offset="1" stop-color="#00C2FF"/>
</linearGradient>
<clipPath id="clip0_1_15730">
<rect width="36" height="36" fill="white" transform="translate(0 0.5)"/>
</clipPath>
</defs>
</svg>
