<svg width="36" height="37" viewBox="0 0 36 37" fill="none" xmlns="http://www.w3.org/2000/svg">
<g clip-path="url(#clip0_1_15492)">
<path d="M18.1789 0.736328C27.7995 0.871364 35.7074 8.56267 35.7541 18.4776C35.7998 28.1786 27.7597 36.2152 18.0523 36.1877C8.25198 36.16 0.410076 28.3762 0.314388 18.6858C0.215496 8.67127 8.17643 0.74648 18.1789 0.736328ZM20.1176 27.3542C15.6683 27.3542 11.2438 27.3542 6.69613 27.3542C10.3321 31.5234 14.7481 33.3995 20.1424 32.6597C23.8722 32.1482 26.8814 30.3046 29.3481 27.3107C27.6087 27.3107 26.0132 27.3107 24.3987 27.3107C23.6969 25.8702 23.0035 24.4472 22.2654 22.9323C21.5281 24.4502 20.8407 25.8654 20.1176 27.3542ZM21.5531 4.59285C24.627 11.3972 27.6863 18.169 30.7792 25.0151C35.2093 16.3465 29.8932 6.49451 21.5531 4.59285ZM13.8885 4.74144C9.90319 5.84781 5.77141 9.27603 4.27919 14.3002C3.19739 17.9426 3.51634 21.4703 5.2286 24.9896C8.13936 18.1838 10.9952 11.5064 13.8885 4.74144ZM21.8224 19.6396C20.5537 17.0281 19.3153 14.4791 18.0236 11.8201C16.7311 14.486 15.4982 17.0288 14.2324 19.6396C16.7846 19.6396 19.2466 19.6396 21.8224 19.6396Z" fill="#59018C"/>
</g>
<defs>
<clipPath id="clip0_1_15492">
<rect width="36" height="36" fill="white" transform="translate(0 0.5)"/>
</clipPath>
</defs>
</svg>
