<svg width="36" height="37" viewBox="0 0 36 37" fill="none" xmlns="http://www.w3.org/2000/svg">
<g clip-path="url(#clip0_1_15636)">
<path d="M17.9996 36.1164C27.7291 36.1164 35.6164 28.2291 35.6164 18.4996C35.6164 8.77012 27.7291 0.882812 17.9996 0.882812C8.27012 0.882812 0.382812 8.77012 0.382812 18.4996C0.382812 28.2291 8.27012 36.1164 17.9996 36.1164Z" fill="url(#paint0_linear_1_15636)"/>
<path d="M15.7109 20.3838L18.0545 13.2517L20.4415 20.3838H15.7109ZM25.6459 24.8938L23.7073 19.5701H24.8647C25.3259 19.5661 25.6982 19.1922 25.7001 18.731C25.7001 18.2915 25.3439 17.9353 24.9045 17.9353H23.0961L22.8068 17.1071H24.8647C25.3158 17.1073 25.6848 16.7479 25.6965 16.297C25.6985 15.8376 25.3277 15.4635 24.8683 15.4615C24.8659 15.4615 24.8635 15.4615 24.8611 15.4615H22.1884L20.7417 11.4832C20.5256 10.9148 20.1684 10.4107 19.7037 10.0184C19.2447 9.64089 18.6629 9.44524 18.069 9.46868C17.4735 9.44976 16.891 9.6448 16.427 10.0184C15.9621 10.4113 15.6038 10.915 15.3854 11.4832L13.87 15.4977H11.2118C10.7697 15.4977 10.4108 15.8549 10.4089 16.297C10.4089 16.7564 10.7813 17.1288 11.2407 17.1288H13.2588L12.9478 17.9353H11.1394C10.696 17.9353 10.3365 18.2948 10.3365 18.7382C10.3365 19.1922 10.7035 19.5608 11.1575 19.5628H12.3184L10.3474 24.8938C10.2262 25.1943 10.1589 25.5139 10.1484 25.8377C10.169 26.292 10.3663 26.7203 10.6982 27.0312C11.0634 27.3476 11.5315 27.5199 12.0146 27.5159C12.8511 27.5617 13.6054 27.0156 13.823 26.2066L14.5861 23.9317H21.606L22.3692 26.2609C22.615 27.0415 23.3606 27.5544 24.1775 27.505C24.4814 27.5111 24.7814 27.4349 25.0455 27.2844C25.2746 27.1143 25.478 26.9121 25.6495 26.684C25.7989 26.4273 25.8752 26.1347 25.8701 25.8377C25.8222 25.522 25.7472 25.2111 25.6459 24.9082V24.8938H25.6459Z" fill="#FEFEFE"/>
</g>
<defs>
<linearGradient id="paint0_linear_1_15636" x1="5.32789" y1="6.02722" x2="30.3679" y2="30.6734" gradientUnits="userSpaceOnUse">
<stop stop-color="#FC9351"/>
<stop offset="0.9995" stop-color="#FC6D79"/>
</linearGradient>
<clipPath id="clip0_1_15636">
<rect width="36" height="36" fill="white" transform="translate(0 0.5)"/>
</clipPath>
</defs>
</svg>
