<svg width="36" height="37" viewBox="0 0 36 37" fill="none" xmlns="http://www.w3.org/2000/svg">
<g clip-path="url(#clip0_1_15931)">
<path d="M34.8772 8.61438C33.7396 10.724 31.8388 12.3368 29.5636 13.1432C27.2812 13.9424 24.7828 13.8776 22.5508 12.956C23.6884 10.8464 25.5892 9.23358 27.8644 8.42718C30.1396 7.62078 32.6452 7.69278 34.8772 8.61438Z" fill="#39D86E"/>
<path d="M7.55273 23.0153C8.31593 25.1177 9.80633 26.8889 11.7647 28.0121C13.7231 29.1353 16.0127 29.5457 18.2447 29.1641C20.4767 28.7825 22.4927 27.6305 23.9543 25.9241C25.4087 24.2105 26.2079 22.0505 26.2151 19.8113V19.7537C26.2151 19.6169 26.2151 19.4729 26.2151 19.3433V19.3001C26.1287 18.0689 25.5671 16.9169 24.6383 16.0889C23.7095 15.2609 22.4927 14.8289 21.2399 14.8721C19.9943 14.9153 18.8063 15.4409 17.9495 16.3409C17.0855 17.2337 16.6103 18.4217 16.6175 19.6601C16.6175 20.8985 16.1279 22.0865 15.2567 22.9721C14.3855 23.8577 13.1903 24.3761 11.9375 24.4049H11.6639C10.1807 24.3761 8.74073 23.8937 7.55273 23.0153Z" fill="#C336D8"/>
<path d="M11.8003 23.1718C13.7659 23.1718 15.3643 21.595 15.3643 19.651C15.3643 17.707 13.7659 16.123 11.8003 16.123C9.83473 16.123 8.23633 17.6998 8.23633 19.6438C8.23633 21.5878 9.82753 23.1718 11.8003 23.1718Z" fill="#C336D8"/>
<path d="M8.29395 34.0168C4.48515 31.8352 1.70595 28.2496 0.568353 24.052C-0.569247 19.8472 0.0211532 15.3688 2.20995 11.6032C2.67075 10.8184 3.18915 10.0768 3.77235 9.3784L3.80115 9.3496L11.2244 0.716797C12.146 1.4944 12.7148 2.596 12.8084 3.784C12.902 4.972 12.5204 6.1528 11.7356 7.06L7.27875 12.2296C6.22035 13.504 5.44275 14.98 4.98915 16.564C4.53555 18.148 4.42755 19.8112 4.65795 21.4456C4.88835 23.08 5.45715 24.6424 6.33555 26.0464C7.20675 27.4504 8.37315 28.66 9.74115 29.596C11.1092 30.532 12.6644 31.18 14.2988 31.4968C15.9332 31.8136 17.618 31.7848 19.2452 31.4248C20.8724 31.0648 22.406 30.3736 23.7452 29.3944C25.0916 28.4152 26.2148 27.1768 27.0428 25.7512C27.374 25.1824 27.6548 24.5848 27.8924 23.9728L30.1964 17.5648C30.6068 16.4488 31.4492 15.5416 32.5364 15.0304C33.6236 14.5264 34.8692 14.4616 35.9996 14.8576L32.162 25.5568C31.3124 27.7888 29.9804 29.812 28.2668 31.4824C26.546 33.1528 24.4796 34.4416 22.2116 35.2408C19.9436 36.0472 17.5172 36.3496 15.1196 36.1408C12.722 35.932 10.382 35.212 8.29395 34.0168Z" fill="#5B41F5"/>
</g>
<defs>
<clipPath id="clip0_1_15931">
<rect width="36" height="36" fill="white" transform="translate(0 0.5)"/>
</clipPath>
</defs>
</svg>
