<svg width="36" height="37" viewBox="0 0 36 37" fill="none" xmlns="http://www.w3.org/2000/svg">
<path d="M20.0089 24.4473L24.8905 29.8761L18.6553 34.4769V24.4473H20.0089Z" fill="#4E42DF"/>
<path d="M32.2418 24.4473L25.7186 29.2641L21.377 24.4473H32.2418Z" fill="#4839D0"/>
<path d="M14.8324 24.4473L10.498 29.2569L3.87402 24.4473H14.8324Z" fill="#7953F5"/>
<path d="M17.7482 24.4473V34.5201L11.333 29.8617L16.2074 24.4473H17.7482Z" fill="#6045F8"/>
<path d="M3.45594 25.2832L9.69114 29.8192H0.619141L3.45594 25.2832Z" fill="#9552F7"/>
<path d="M35.4964 29.8192H26.5684L32.7028 25.2832L35.4964 29.8192Z" fill="#362B9C"/>
<path d="M17.7483 15.959V2.45898L4.57227 23.5118H13.1619L17.7483 15.959Z" fill="#B852F7"/>
<path d="M23.2777 23.5104H31.6081L18.6553 2.46484V15.8928L23.2777 23.5104Z" fill="#D252F5"/>
</svg>
