<svg width="36" height="37" viewBox="0 0 36 37" fill="none" xmlns="http://www.w3.org/2000/svg">
<g clip-path="url(#clip0_1_15633)">
<path d="M17.9636 36.1479C13.2476 36.1479 8.81961 34.3119 5.48601 30.9783C2.15241 27.6447 0.316406 23.2167 0.316406 18.5007C0.316406 13.7847 2.15241 9.35672 5.48601 6.02312C8.81961 2.68952 13.2476 0.853516 17.9636 0.853516C22.6796 0.853516 27.1076 2.68952 30.4412 6.02312C33.7748 9.35672 35.6108 13.7847 35.6108 18.5007C35.6108 23.2167 33.7748 27.6447 30.4412 30.9783C27.1076 34.3119 22.6796 36.1479 17.9636 36.1479ZM17.9636 3.62552C9.76281 3.62552 3.08841 10.2999 3.08841 18.5007C3.08841 26.7015 9.76281 33.3759 17.9636 33.3759C26.1644 33.3759 32.8388 26.7015 32.8388 18.5007C32.8388 10.2999 26.1644 3.62552 17.9636 3.62552Z" fill="#222326"/>
<path d="M21.0025 24.3745C20.9233 24.2161 20.8585 24.0361 20.8009 23.8273C20.7433 23.6185 20.7001 23.4025 20.6569 23.1793C20.4769 23.3737 20.2681 23.5609 20.0305 23.7337C19.7929 23.9065 19.5265 24.0649 19.2385 24.1945C18.9577 24.3241 18.6409 24.4177 18.2881 24.4897C17.9425 24.5689 17.5681 24.6049 17.1649 24.6049C16.5097 24.6049 15.9049 24.5113 15.3505 24.3241C14.8033 24.1369 14.3353 23.8705 13.9393 23.5321C13.5433 23.1937 13.2337 22.7905 13.0177 22.3225C12.7945 21.8473 12.6865 21.3361 12.6865 20.7817C12.6865 19.4281 13.1905 18.3913 14.1913 17.6569C15.1993 16.9153 16.7041 16.5409 18.7057 16.5409H20.5417V15.7849C20.5417 15.1657 20.3401 14.6833 19.9369 14.3305C19.5337 13.9705 18.9505 13.7833 18.1945 13.7833C17.5249 13.7833 17.0353 13.9273 16.7257 14.2225C16.4161 14.5033 16.2649 14.8921 16.2649 15.3745H12.9745C12.9745 14.8273 13.0897 14.3161 13.3273 13.8265C13.5721 13.3369 13.9249 12.9049 14.3785 12.5377C14.8465 12.1633 15.4081 11.8753 16.0705 11.6593C16.7401 11.4361 17.5105 11.3281 18.3673 11.3281C19.1377 11.3281 19.8577 11.4217 20.5201 11.6089C21.1897 11.7961 21.7729 12.0769 22.2625 12.4513C22.7521 12.8257 23.1337 13.2937 23.4145 13.8625C23.6881 14.4241 23.8321 15.0721 23.8321 15.8137V21.3073C23.8321 21.9913 23.8753 22.5601 23.9617 23.0137C24.0481 23.4673 24.1777 23.8489 24.3433 24.1729V24.3745H21.0025ZM17.8633 22.0633C18.1945 22.0633 18.5041 22.0273 18.7849 21.9481C19.0657 21.8689 19.3249 21.7681 19.5553 21.6385C19.7857 21.5089 19.9801 21.3721 20.1457 21.2137C20.3113 21.0481 20.4409 20.8825 20.5345 20.7169V18.5137H18.8497C18.3385 18.5137 17.8993 18.5641 17.5321 18.6649C17.1721 18.7585 16.8697 18.8953 16.6465 19.0825C16.4161 19.2553 16.2505 19.4713 16.1353 19.7233C16.0273 19.9681 15.9697 20.2345 15.9697 20.5297C15.9697 20.9689 16.1209 21.3361 16.4305 21.6313C16.7545 21.9193 17.2297 22.0633 17.8633 22.0633Z" fill="#222326"/>
</g>
<defs>
<clipPath id="clip0_1_15633">
<rect width="36" height="36" fill="white" transform="translate(0 0.5)"/>
</clipPath>
</defs>
</svg>
