<svg width="36" height="37" viewBox="0 0 36 37" fill="none" xmlns="http://www.w3.org/2000/svg">
<path d="M17.9879 14.5649C12.1614 20.6157 6.37077 26.6293 0.580166 32.6429C0.53747 32.6088 0.494844 32.5747 0.452148 32.5407C6.27731 23.2161 12.1025 13.8915 17.989 4.46875C23.877 13.8927 29.7041 23.219 35.5311 32.5453C35.4897 32.58 35.4483 32.6146 35.407 32.6493C29.6166 26.6378 23.8263 20.6263 17.9879 14.5649ZM25.9423 27.0079C20.5939 27.0079 15.4261 27.0079 10.0353 27.0079C11.0695 25.9466 11.9904 24.9777 12.9483 24.047C13.077 23.922 13.3931 23.9716 13.6224 23.9713C16.5061 23.9679 22.939 23.962 22.939 23.962C22.939 23.962 25.0695 26.1051 25.9423 27.0079ZM14.9397 21.9123C16.0083 20.7954 16.9656 19.7948 17.7509 18.974C18.8358 19.9171 19.8979 20.8403 21.1313 21.9123C18.9621 21.9123 17.0569 21.9123 14.9397 21.9123Z" fill="#FC0016"/>
</svg>
