<svg width="36" height="37" viewBox="0 0 36 37" fill="none" xmlns="http://www.w3.org/2000/svg">
<g clip-path="url(#clip0_1_15858)">
<path d="M18.5539 23.5978L27.1651 16.8442C27.2803 16.7578 27.3451 16.621 27.3451 16.477V13.4962C27.3451 13.2514 27.0715 13.1218 26.8771 13.2658L18.0067 20.2282L9.12913 13.2586C8.94193 13.1074 8.66113 13.2442 8.66113 13.489V16.477C8.66113 16.621 8.72593 16.7578 8.84113 16.8442L17.4523 23.5978C17.6107 23.7202 17.8051 23.7778 18.0067 23.7778C18.1939 23.785 18.3955 23.7202 18.5539 23.5978Z" fill="#1890FF"/>
<path fill-rule="evenodd" clip-rule="evenodd" d="M31.6012 5.23131L18.6196 0.781713C18.4468 0.724113 18.2236 0.695312 18.0076 0.695312C17.7916 0.695312 17.5684 0.724113 17.3956 0.781713L4.41399 5.23131C4.22679 5.29611 4.06839 5.43291 3.95319 5.59851C3.83799 5.76411 3.75879 5.96571 3.75879 6.16011V24.7073C3.75879 24.9017 3.81639 25.1105 3.90999 25.3049C4.00359 25.4993 4.13319 25.6793 4.28439 25.7945L17.4532 36.1265C17.6116 36.2489 17.806 36.3065 18.0076 36.3065C18.202 36.3065 18.4036 36.2489 18.562 36.1265L31.7308 25.8017C31.882 25.6865 32.0116 25.5065 32.1052 25.3121C32.1988 25.1177 32.2564 24.9089 32.2564 24.7145V6.16011C32.2636 5.95851 32.1844 5.76411 32.0692 5.59851C31.9468 5.43291 31.7812 5.29611 31.6012 5.23131ZM29.2684 7.61451V23.9153L18.0076 32.7497L6.73959 23.9153V7.61451L18.0076 3.74091L29.2684 7.61451Z" fill="#1890FF"/>
</g>
<defs>
<clipPath id="clip0_1_15858">
<rect width="36" height="36" fill="white" transform="translate(0 0.5)"/>
</clipPath>
</defs>
</svg>
