<svg width="36" height="37" viewBox="0 0 36 37" fill="none" xmlns="http://www.w3.org/2000/svg">
<g clip-path="url(#clip0_1_15843)">
<path d="M2.11204 18.4475C2.11204 16.411 2.12276 14.3744 2.10786 12.3381C2.09944 11.1933 2.4099 10.1742 3.03731 9.20627C3.35728 8.71271 3.7514 8.38993 4.23575 8.111C7.98961 5.9492 11.736 3.77444 15.4921 1.6166C17.0996 0.693059 18.7296 0.692051 20.3393 1.61869C24.0082 3.73067 27.674 5.84797 31.3356 7.97255C32.9092 8.88558 33.7016 10.2879 33.7116 12.088C33.7353 16.3336 33.7351 20.5795 33.7118 24.8252C33.7017 26.6409 32.8963 28.0434 31.3082 28.9619C27.6009 31.1061 23.8938 33.2506 20.1806 35.3844C18.7147 36.2268 17.1764 36.2266 15.7398 35.4207C11.9088 33.2713 8.10884 31.0657 4.32323 28.8371C2.85335 27.9718 2.14048 26.5887 2.11873 24.8901C2.09123 22.7428 2.11204 20.595 2.11204 18.4475ZM15.8501 2.31724C15.804 2.33473 15.7545 2.34632 15.7124 2.37066C12.0857 4.46154 8.45912 6.55278 4.83378 8.64611C4.43742 8.875 4.0844 9.15774 3.81145 9.51695C3.81714 9.7354 3.90275 9.90265 4.07116 9.99856C4.9888 10.5211 5.91184 11.0341 6.83142 11.5496C7.24139 11.233 7.6713 11.1518 8.1424 11.3236C8.26984 11.0612 8.48972 10.9173 8.65676 10.7242C9.79091 9.41348 10.9302 8.10719 12.0675 6.79916C12.5984 6.18853 13.1313 5.57963 13.6581 4.96547C14.4032 4.09686 15.1884 3.26267 15.8923 2.35885C15.9093 2.34042 15.9261 2.32192 15.9966 2.24495C15.8997 2.29268 15.8749 2.305 15.8501 2.31724ZM18.2485 29.2239C21.1865 23.926 24.1195 18.6373 27.045 13.362C26.9203 13.1708 26.8132 13.0069 26.7001 12.8335C20.7385 12.8335 14.7801 12.8335 8.82712 12.8335C8.73726 12.99 8.6577 13.1285 8.56453 13.2908C11.5217 18.6212 14.4846 23.9617 17.458 29.3213C17.7131 29.1891 17.962 29.237 18.2485 29.2239ZM19.1287 30.0638C19.2483 30.0447 19.3457 30.0342 19.4406 30.0133C20.4975 29.7809 21.5535 29.5445 22.6108 29.3137C25.5664 28.6684 28.5234 28.0297 31.4772 27.3762C31.9009 27.2824 32.2383 27.0348 32.3811 26.5964C32.4893 26.2641 32.4224 25.9418 32.3071 25.6205C31.1268 22.3291 29.9501 19.0364 28.7721 15.7443C28.5239 15.0509 28.2745 14.3579 28.036 13.6935C27.7561 13.5843 27.6959 13.7716 27.6136 13.9187C27.1567 14.7349 26.6997 15.5511 26.2452 16.3685C24.1585 20.1213 22.0724 23.8745 19.9867 27.6278C19.6167 28.2935 19.2501 28.9609 18.89 29.6128C18.9746 29.7726 19.0431 29.9022 19.1287 30.0638ZM7.89212 13.6346C7.58512 13.61 7.58252 13.8095 7.53385 13.9493C6.88967 15.7986 6.2506 17.6496 5.60936 19.5C4.86143 21.6581 4.11155 23.8155 3.36484 25.9741C3.12896 26.6558 3.39436 27.1524 4.07684 27.3184C4.5771 27.4401 5.07592 27.5685 5.57884 27.6781C8.3864 28.2901 11.195 28.8975 14.0033 29.5059C14.923 29.7052 15.8431 29.9027 16.7496 30.0982C16.983 29.8178 16.7783 29.6245 16.6737 29.4361C14.1887 24.9579 11.6984 20.4825 9.20929 16.0066C8.76772 15.2126 8.32715 14.418 7.89212 13.6346ZM8.83468 12.048C14.8034 12.048 20.7623 12.048 26.7118 12.048C26.7833 11.9366 26.8482 11.8471 26.851 11.7135C26.8319 11.6838 26.8103 11.6394 26.7791 11.6031C24.1944 8.58678 21.6109 5.56933 19.0222 2.55642C18.3207 1.74008 17.4598 1.75873 16.7547 2.57406C15.6576 3.84292 14.5523 5.10472 13.4502 6.36932C11.9265 8.11763 10.4032 9.86629 8.87737 11.6127C8.76354 11.743 8.66944 11.8628 8.83468 12.048ZM32.8846 24.9923C32.9061 24.9913 32.9276 24.9905 32.9491 24.9895C32.955 24.9579 32.9662 24.9262 32.9662 24.8944C32.9645 20.6379 32.9669 16.3814 32.9539 12.1249C32.9521 11.5404 32.8793 10.9546 32.5668 10.4078C31.3958 11.0415 30.2491 11.662 29.0784 12.2956C29.1619 12.7106 28.9637 13.0362 28.7292 13.354C30.1167 17.2399 31.5006 21.1161 32.8846 24.9923ZM3.25964 10.3478C2.97229 10.9226 2.85911 11.5326 2.85839 12.1643C2.85378 16.3089 2.85342 20.4535 2.85169 24.598C2.85162 24.7141 2.85169 24.8302 2.85169 24.9463C2.88028 24.9522 2.90886 24.9582 2.93737 24.9641C4.26592 21.1185 5.59446 17.2728 6.92617 13.4181C6.56243 13.091 6.41281 12.6898 6.47077 12.222C5.41784 11.5699 4.30076 11.0696 3.25964 10.3478ZM19.8203 2.29664C22.3955 5.30423 24.9531 8.29115 27.5074 11.2742C27.9989 11.1569 28.409 11.2774 28.7669 11.5859C29.9138 10.9647 31.0416 10.3537 32.1854 9.7341C31.8318 9.24975 31.4205 8.9056 30.9447 8.63106C27.3462 6.55465 23.7488 4.47637 20.15 2.40083C20.0593 2.34848 19.9805 2.24992 19.8203 2.29664ZM18.2621 31.5885C18.2621 32.5019 18.2562 33.4126 18.2642 34.3232C18.2691 34.8821 18.6959 35.1922 19.2004 35.0019C19.4638 34.9026 19.7209 34.7777 19.9652 34.6372C21.8863 33.5331 23.8035 32.4224 25.7222 31.3139C27.3157 30.3932 28.9101 29.474 30.5014 28.5496C30.5859 28.5005 30.7192 28.4897 30.7355 28.3071C26.8436 29.1572 22.9681 30.0037 19.1043 30.8475C18.9029 31.1602 18.6888 31.4265 18.2621 31.5885ZM5.04906 28.3015C5.04373 28.3325 5.0384 28.3635 5.03308 28.3945C8.47964 30.3821 11.9264 32.3693 15.3724 34.358C15.8415 34.6287 16.2995 34.9225 16.8268 35.0719C17.1616 35.1667 17.4917 34.9795 17.4989 34.6417C17.5207 33.6086 17.5068 32.5747 17.5068 31.552C17.1908 31.3769 16.993 31.1447 16.8335 30.9066C12.8875 30.0343 8.96824 29.1679 5.04906 28.3015Z" fill="#FAFAFB"/>
<path d="M18.2484 29.2244C17.962 29.2374 17.7129 29.1896 17.458 29.3218C14.4845 23.9622 11.5216 18.6217 8.56445 13.2913C8.65762 13.129 8.73718 12.9905 8.82704 12.834C14.78 12.834 20.7384 12.834 26.7 12.834C26.8131 13.0074 26.9202 13.1713 27.0449 13.3625C24.1194 18.6378 21.1864 23.9265 18.2484 29.2244ZM22.0441 20.1443C22.5528 19.9377 22.6831 19.5458 22.6916 19.094C22.7047 18.4035 22.7118 17.7126 22.6985 17.0224C22.6926 16.7175 22.8048 16.5122 23.0482 16.3394C23.3086 16.1546 23.5575 15.95 23.7915 15.7326C23.9744 15.5626 24.1389 15.3486 23.9733 15.0861C23.8036 14.8172 23.5394 14.9123 23.304 14.9788C23.0278 15.0568 22.8156 15.2548 22.6038 15.4304C22.2832 15.6963 21.9704 15.7425 21.5807 15.5941C21.0292 15.3842 20.4599 15.2216 19.8991 15.036C19.6026 14.9378 19.304 14.8833 18.9908 14.9415C18.7906 14.9786 18.6193 15.045 18.5507 15.2883C19.3858 15.713 20.2159 16.1352 21.0443 16.5565C21.0223 16.6077 21.0185 16.6342 21.0034 16.6492C20.4614 17.185 19.7886 17.5647 19.2572 18.1148C19.1211 18.2557 18.9484 18.2276 18.7788 18.1374C18.5816 18.0325 18.4105 18.0545 18.2808 18.3043C18.8028 18.5082 19.0461 18.9078 19.0996 19.4625C19.3288 19.3508 19.4637 19.2218 19.3987 18.9884C19.3305 18.744 19.4684 18.6149 19.6411 18.5056C19.9012 18.3408 20.1694 18.1889 20.432 18.0279C20.8163 17.7923 21.1987 17.5534 21.6172 17.2941C21.7635 18.27 21.8997 19.1799 22.0441 20.1443ZM14.6022 15.848C14.4715 15.7146 14.3404 15.7486 14.2036 15.7768C14.1054 15.9068 14.0706 16.0406 14.2001 16.1673C14.2708 16.2365 14.3594 16.2685 14.4672 16.2258C14.6533 16.1521 14.6297 16.01 14.6022 15.848ZM17.4831 23.8271C17.2999 23.8809 17.2084 23.9792 17.254 24.1583C17.2804 24.2624 17.3576 24.3286 17.4657 24.3361C17.5925 24.3449 17.6814 24.272 17.7146 24.1574C17.7668 23.9772 17.666 23.882 17.4831 23.8271ZM14.8927 20.886C14.7361 20.9927 14.6527 21.0984 14.7439 21.2657C14.8062 21.3799 14.9089 21.4026 15.0236 21.3802C15.1298 21.3595 15.1967 21.2833 15.2052 21.1796C15.2227 20.9675 15.0571 20.9335 14.8927 20.886ZM10.8924 14.3248C10.8319 14.4192 10.821 14.5201 10.874 14.6285C11.0227 14.7405 11.1729 14.7952 11.3464 14.647C11.3552 14.534 11.3977 14.4122 11.273 14.3044C11.1555 14.2545 11.0286 14.2493 10.8924 14.3248ZM16.8765 14.492C16.8589 14.369 16.7883 14.2668 16.6226 14.266C16.4759 14.2653 16.396 14.3466 16.3852 14.4909C16.373 14.654 16.4608 14.7562 16.6136 14.7679C16.7712 14.78 16.86 14.6807 16.8765 14.492Z" fill="url(#paint0_linear_1_15843)"/>
<path d="M19.1283 30.0631C19.0428 29.9015 18.9742 29.772 18.8896 29.6121C19.2497 28.9602 19.6165 28.2929 19.9864 27.6272C22.072 23.8738 24.1582 20.1207 26.2449 16.3679C26.6994 15.5504 27.1563 14.7342 27.6132 13.9181C27.6956 13.771 27.7557 13.5836 28.0357 13.6929C28.2741 14.3572 28.5236 15.0502 28.7717 15.7436C29.9498 19.0358 31.1265 22.3285 32.3068 25.6198C32.422 25.9412 32.4889 26.2635 32.3808 26.5957C32.238 27.0342 31.9006 27.2818 31.4769 27.3755C28.5231 28.029 25.5661 28.6677 22.6105 29.313C21.5532 29.5439 20.4972 29.7802 19.4403 30.0127C19.3453 30.0335 19.2481 30.0441 19.1283 30.0631Z" fill="url(#paint1_linear_1_15843)"/>
<path d="M7.89193 13.6349C8.32696 14.4183 8.76753 15.2129 9.2091 16.0069C11.6982 20.4829 14.1885 24.9582 16.6736 29.4364C16.7781 29.6248 16.9829 29.818 16.7494 30.0985C15.8429 29.9031 14.9228 29.7056 14.0031 29.5063C11.1948 28.8979 8.38621 28.2904 5.57865 27.6784C5.07573 27.5688 4.57684 27.4404 4.07665 27.3188C3.39417 27.1527 3.12877 26.6562 3.36465 25.9744C4.11129 23.8158 4.86124 21.6584 5.60917 19.5003C6.25041 17.65 6.88948 15.7989 7.53366 13.9496C7.58233 13.8098 7.58493 13.6103 7.89193 13.6349Z" fill="url(#paint2_linear_1_15843)"/>
<path d="M8.83433 12.0479C8.66909 11.8626 8.76319 11.7428 8.87695 11.6126C10.4028 9.86618 11.9261 8.11752 13.4498 6.36921C14.5519 5.10468 15.6573 3.84288 16.7543 2.57395C17.4594 1.75855 18.3203 1.7399 19.0218 2.55631C21.6105 5.56922 24.1939 8.5866 26.7787 11.603C26.8098 11.6393 26.8315 11.6837 26.8506 11.7133C26.8478 11.847 26.7828 11.9365 26.7114 12.0479C20.762 12.0479 14.8031 12.0479 8.83433 12.0479Z" fill="url(#paint3_linear_1_15843)"/>
<path d="M32.8849 24.9926C31.5009 21.1164 30.1169 17.2403 28.7295 13.3544C28.964 13.0366 29.1622 12.711 29.0787 12.296C30.2494 11.6624 31.3961 11.0419 32.5671 10.4082C32.8796 10.955 32.9524 11.5408 32.9542 12.1253C32.9673 16.3818 32.9648 20.6383 32.9665 24.8948C32.9665 24.9265 32.9553 24.9582 32.9493 24.9899C32.9279 24.9907 32.9064 24.9917 32.8849 24.9926Z" fill="#38A1BD"/>
<path d="M3.25955 10.3477C4.30067 11.0695 5.41775 11.5698 6.47067 12.2219C6.41264 12.6897 6.56226 13.0909 6.92607 13.418C5.59443 17.2727 4.26582 21.1184 2.93727 24.964C2.90869 24.9581 2.88011 24.9521 2.85159 24.9462C2.85159 24.8301 2.85152 24.714 2.85159 24.5979C2.85332 20.4534 2.85375 16.3088 2.85829 12.1642C2.85894 11.5325 2.97219 10.9225 3.25955 10.3477Z" fill="url(#paint4_linear_1_15843)"/>
<path d="M19.8203 2.29736C19.9805 2.2507 20.0593 2.3492 20.15 2.40147C23.7489 4.47709 27.3463 6.55537 30.9447 8.6317C31.4205 8.90624 31.8318 9.25047 32.1854 9.73474C31.0416 10.3544 29.9138 10.9653 28.7669 11.5866C28.409 11.2781 27.9989 11.1575 27.5074 11.2748C24.9532 8.29186 22.3955 5.30487 19.8203 2.29736Z" fill="#3AA7BC"/>
<path d="M15.8924 2.35802C15.1885 3.26184 14.4032 4.09603 13.6582 4.96464C13.1313 5.5788 12.5985 6.1877 12.0675 6.79833C10.9303 8.10636 9.79098 9.41265 8.65684 10.7233C8.4898 10.9164 8.26991 11.0604 8.14247 11.3227C7.67137 11.151 7.24146 11.2322 6.83149 11.5488C5.91191 11.0333 4.98887 10.5202 4.07123 9.99773C3.90282 9.90182 3.81721 9.73457 3.81152 9.51612C4.08448 9.15691 4.43749 8.87417 4.83385 8.64528C8.4592 6.55195 12.0857 4.46071 15.7125 2.36983C15.7546 2.34557 15.8041 2.33397 15.8501 2.31641C15.8641 2.33045 15.8781 2.34427 15.8924 2.35802Z" fill="#3A74B3"/>
<path d="M18.2618 31.5879C18.6885 31.4259 18.9026 31.1596 19.104 30.847C22.9678 30.0031 26.8434 29.1567 30.7352 28.3066C30.719 28.4892 30.5857 28.5 30.5012 28.5491C28.9098 29.4735 27.3155 30.3927 25.722 31.3134C23.8034 32.4218 21.8861 33.5326 19.9649 34.6367C19.7205 34.7771 19.4636 34.9021 19.2001 35.0014C18.6956 35.1917 18.2689 34.8816 18.264 34.3227C18.256 33.412 18.2618 32.5014 18.2618 31.5879Z" fill="#426197"/>
<path d="M5.04919 28.3008C8.96843 29.1672 12.8876 30.0335 16.8336 30.9057C16.9931 31.1438 17.1909 31.376 17.5069 31.5511C17.5069 32.5738 17.5208 33.6077 17.499 34.6408C17.4919 34.9786 17.1617 35.1658 16.8269 35.071C16.2997 34.9216 15.8417 34.6278 15.3725 34.3571C11.9266 32.3684 8.47977 30.3812 5.0332 28.3936C5.03853 28.3628 5.04386 28.3317 5.04919 28.3008Z" fill="url(#paint5_linear_1_15843)"/>
<path d="M15.8496 2.31657C15.8744 2.30433 15.8992 2.29202 15.9961 2.24414C15.9256 2.32118 15.9087 2.33961 15.8918 2.35812C15.8776 2.34444 15.8636 2.33061 15.8496 2.31657Z" fill="#3786BA"/>
<path d="M22.0444 20.1439C21.9 19.1796 21.7638 18.2696 21.6177 17.2937C21.199 17.5531 20.8167 17.7919 20.4325 18.0275C20.1699 18.1885 19.9017 18.3404 19.6415 18.5052C19.4689 18.6145 19.3309 18.7436 19.3991 18.988C19.4642 19.2213 19.3293 19.3504 19.1 19.4621C19.0465 18.9073 18.8033 18.5078 18.2812 18.3039C18.411 18.0541 18.5821 18.0321 18.7793 18.137C18.9489 18.2272 19.1216 18.2553 19.2576 18.1144C19.7891 17.5643 20.4618 17.1846 21.0039 16.6488C21.019 16.6338 21.0228 16.6074 21.0448 16.5561C20.2163 16.1348 19.3863 15.7126 18.5512 15.2879C18.6198 15.0446 18.7911 14.9782 18.9913 14.9411C19.3044 14.883 19.603 14.9374 19.8995 15.0356C20.4603 15.2212 21.0297 15.3837 21.5812 15.5937C21.9709 15.7421 22.2837 15.6959 22.6043 15.43C22.816 15.2544 23.0283 15.0564 23.3045 14.9784C23.5398 14.9119 23.8041 14.8168 23.9738 15.0857C24.1394 15.3482 23.9749 15.5622 23.792 15.7321C23.558 15.9496 23.3091 16.1542 23.0487 16.339C22.8052 16.5118 22.693 16.7171 22.699 17.022C22.7123 17.7123 22.7052 18.4032 22.6921 19.0935C22.6834 19.5454 22.5532 19.9374 22.0444 20.1439Z" fill="#FAFAFB"/>
<path d="M14.6027 15.847C14.6301 16.0089 14.6538 16.1511 14.4676 16.2248C14.3597 16.2676 14.2712 16.2354 14.2005 16.1663C14.071 16.0395 14.1057 15.9058 14.2039 15.7758C14.3409 15.7476 14.472 15.7137 14.6027 15.847Z" fill="#FAFAFB"/>
<path d="M17.4829 23.8262C17.6658 23.881 17.7666 23.9763 17.7144 24.1564C17.6812 24.2711 17.5923 24.344 17.4654 24.3352C17.3573 24.3277 17.2802 24.2615 17.2538 24.1574C17.2082 23.9782 17.2997 23.88 17.4829 23.8262Z" fill="#FAFAFB"/>
<path d="M14.8927 20.8848C15.057 20.9322 15.2226 20.9663 15.2052 21.1784C15.1967 21.282 15.1298 21.3582 15.0235 21.379C14.9088 21.4014 14.8062 21.3786 14.7439 21.2644C14.6526 21.0971 14.736 20.9914 14.8927 20.8848Z" fill="#FAFAFB"/>
<path d="M10.8923 14.325C11.0286 14.2495 11.1554 14.2547 11.273 14.3045C11.3976 14.4124 11.3551 14.5341 11.3464 14.6471C11.1729 14.7953 11.0226 14.7406 10.874 14.6286C10.8208 14.5203 10.8319 14.4194 10.8923 14.325Z" fill="#FAFAFB"/>
<path d="M16.8762 14.4916C16.8597 14.6803 16.7708 14.7796 16.6134 14.7675C16.4605 14.7559 16.3727 14.6536 16.3849 14.4906C16.3957 14.3461 16.4756 14.2649 16.6224 14.2656C16.7881 14.2663 16.8587 14.3684 16.8762 14.4916Z" fill="#FAFAFB"/>
</g>
<defs>
<linearGradient id="paint0_linear_1_15843" x1="9.52204" y1="28.0537" x2="19.3629" y2="10.8369" gradientUnits="userSpaceOnUse">
<stop stop-color="#4F3F60"/>
<stop offset="0.514" stop-color="#3F659F"/>
<stop offset="0.9995" stop-color="#3BAABC"/>
</linearGradient>
<linearGradient id="paint1_linear_1_15843" x1="20.4022" y1="25.0002" x2="33.1083" y2="18.8768" gradientUnits="userSpaceOnUse">
<stop stop-color="#3F659F"/>
<stop offset="1" stop-color="#3698BC"/>
</linearGradient>
<linearGradient id="paint2_linear_1_15843" x1="3.07576" y1="27.5289" x2="12.3216" y2="21.8184" gradientUnits="userSpaceOnUse">
<stop stop-color="#4E4365"/>
<stop offset="1" stop-color="#3F659E"/>
</linearGradient>
<linearGradient id="paint3_linear_1_15843" x1="8.74511" y1="7.00051" x2="26.8507" y2="7.00051" gradientUnits="userSpaceOnUse">
<stop stop-color="#3B71AE"/>
<stop offset="0.9995" stop-color="#379DBC"/>
</linearGradient>
<linearGradient id="paint4_linear_1_15843" x1="0.244" y1="24.4662" x2="4.67415" y2="13.8798" gradientUnits="userSpaceOnUse">
<stop stop-color="#4E4365"/>
<stop offset="1" stop-color="#3F659E"/>
</linearGradient>
<linearGradient id="paint5_linear_1_15843" x1="5.1286" y1="30.7788" x2="17.5508" y2="32.7237" gradientUnits="userSpaceOnUse">
<stop stop-color="#4E4365"/>
<stop offset="1" stop-color="#3F659E"/>
</linearGradient>
<clipPath id="clip0_1_15843">
<rect width="36" height="36" fill="white" transform="translate(0 0.5)"/>
</clipPath>
</defs>
</svg>
