<svg width="36" height="37" viewBox="0 0 36 37" fill="none" xmlns="http://www.w3.org/2000/svg">
<path d="M13.0032 34.7081H2.65676C0.92876 34.7081 -0.23764 32.9513 0.43196 31.3601C0.96476 30.0929 1.72796 28.7537 2.49116 27.6809C6.79676 21.6545 11.412 18.8105 16.4664 18.8105C24.804 18.8105 32.2776 29.0057 32.3424 29.1137L29.9808 30.7121C28.6128 28.8041 22.2696 21.7337 16.4592 21.7337C12.3984 21.7337 8.49596 24.3041 4.85996 29.3801C4.29116 30.1721 3.82316 31.0361 3.46316 31.7921H11.6352L8.94236 27.9833L11.3256 26.2985L14.8032 31.2233C15.8472 32.6849 14.796 34.7081 13.0032 34.7081Z" fill="url(#paint0_linear_1_15864)"/>
<path d="M16.3583 8.13988L30.5855 31.7199H25.0199C24.6095 31.7199 24.2207 31.5111 23.9975 31.1655L13.6295 15.3399C13.3991 14.9799 13.3631 14.5335 13.5431 14.1447L16.3583 8.13988ZM16.0415 1.95508L13.7159 6.90148L10.8935 12.9063C10.2887 14.2023 10.3967 15.7503 11.1815 16.9455L21.5495 32.7711C22.3199 33.9447 23.6159 34.6431 25.0199 34.6431H30.5855H35.7551L33.0839 30.2151L18.8567 6.62788L16.0415 1.95508Z" fill="url(#paint1_linear_1_15864)"/>
<defs>
<linearGradient id="paint0_linear_1_15864" x1="0.237229" y1="26.7604" x2="32.34" y2="26.7604" gradientUnits="userSpaceOnUse">
<stop stop-color="#0EAFE5"/>
<stop offset="1" stop-color="#23469B"/>
</linearGradient>
<linearGradient id="paint1_linear_1_15864" x1="10.5048" y1="18.2962" x2="35.7591" y2="18.2962" gradientUnits="userSpaceOnUse">
<stop stop-color="#0EAFE5"/>
<stop offset="0.8539" stop-color="#273791"/>
</linearGradient>
</defs>
</svg>
