<svg width="36" height="37" viewBox="0 0 36 37" fill="none" xmlns="http://www.w3.org/2000/svg">
<g clip-path="url(#clip0_1_15711)">
<path d="M17.9642 36.276C27.8019 36.276 35.777 28.3009 35.777 18.4632C35.777 8.62545 27.8019 0.650391 17.9642 0.650391C8.12643 0.650391 0.151367 8.62545 0.151367 18.4632C0.151367 28.3009 8.12643 36.276 17.9642 36.276Z" fill="url(#paint0_linear_1_15711)"/>
<path d="M10.0078 28.3205V22.5317L14.5294 20.2061H22.3486C23.0038 20.2061 23.5294 19.6805 23.5294 19.0253V15.5117L27.079 13.6973V19.8101C27.079 22.0133 25.2934 23.7989 23.0902 23.7989H13.4278V27.2909C13.4278 27.8669 12.9598 28.3349 12.3838 28.3277L10.0078 28.3205Z" fill="white"/>
<path d="M9.96484 19.2426V13.9146C9.96484 11.7114 11.7504 9.92578 13.9536 9.92578H22.932C24.1488 9.92578 25.236 10.3146 25.9056 11.0922L21.2688 13.3962H14.652C13.9896 13.3962 13.4496 13.9362 13.4496 14.5986V17.4354L9.96484 19.2426Z" fill="white"/>
</g>
<defs>
<linearGradient id="paint0_linear_1_15711" x1="0.152786" y1="18.4632" x2="35.7755" y2="18.4632" gradientUnits="userSpaceOnUse">
<stop stop-color="#B28E39"/>
<stop offset="1" stop-color="#F0DE9E"/>
</linearGradient>
<clipPath id="clip0_1_15711">
<rect width="36" height="36" fill="white" transform="translate(0 0.5)"/>
</clipPath>
</defs>
</svg>
