<svg width="36" height="36" viewBox="0 0 36 36" fill="none" xmlns="http://www.w3.org/2000/svg">
<g clip-path="url(#clip0_1_15801)">
<path d="M18.0402 0.894531L2.35994 16.5367L0.43457 18.4615L1.11101 19.051C1.26719 19.1898 1.4232 19.3286 1.59662 19.4672C2.13429 19.9181 2.70677 20.3517 3.2791 20.7678C5.44617 22.2949 7.84022 23.4712 10.3732 24.2534C12.8532 25.0338 15.4386 25.4153 18.0399 25.4153C20.0968 25.4168 22.1466 25.1723 24.1454 24.687C27.0248 23.9933 29.7479 22.7968 32.2284 21.1493C32.8355 20.7504 33.4419 20.2996 34.015 19.8487C34.3446 19.5885 34.6568 19.3284 34.9515 19.0509L35.6107 18.4615L18.0402 0.894531ZM33.4082 19.0338C32.8587 19.4807 32.2855 19.8975 31.691 20.2826C29.3181 21.8586 26.6885 23.0088 23.9205 23.6815C21.9956 24.1514 20.0216 24.39 18.0402 24.3922C12.9606 24.4122 8.00108 22.8483 3.85175 19.9181C3.29667 19.5367 2.759 19.1031 2.22134 18.6694L1.89173 18.3918L18.0226 2.29911L34.1537 18.3922C33.9282 18.6177 33.6681 18.8257 33.4078 19.0338H33.4082Z" fill="url(#paint0_linear_1_15801)"/>
<path d="M6.97391 18.201L6.19336 18.5304H7.14733C12.3572 18.5305 17.4656 19.9709 21.9081 22.6925L21.9609 22.7277L22.0302 22.7101C24.9326 22.189 27.7068 21.1113 30.1998 19.5365L30.4427 19.3805L30.1998 19.2417C26.436 17.0567 22.1343 15.9121 17.7633 15.9121C14.0482 15.93 10.3763 16.709 6.97391 18.201ZM22.1684 21.6694C18.795 19.6383 15.0401 18.3221 11.1368 17.8024C13.2903 17.2136 15.5129 16.9161 17.7454 16.9179C21.4565 16.9179 25.0998 17.7676 28.4127 19.433C26.4701 20.5082 24.3713 21.2539 22.169 21.6701L22.1684 21.6694Z" fill="url(#paint1_linear_1_15801)"/>
<path d="M27.9798 25.0859C27.9798 25.0859 25.412 26.6814 24.4415 27.1495C21.2123 28.9683 17.6122 30.0297 13.9129 30.2537L12.8027 30.323L18.0412 35.5429L25.4823 28.1208C26.3667 27.1496 27.1993 26.1265 27.9798 25.0859ZM15.0577 31.1556C17.9196 30.8608 20.7123 30.0977 23.3141 28.8665L18.0412 34.1384" fill="url(#paint2_linear_1_15801)"/>
</g>
<defs>
<linearGradient id="paint0_linear_1_15801" x1="0.434569" y1="13.1549" x2="35.6107" y2="13.1549" gradientUnits="userSpaceOnUse">
<stop stop-color="#0027FF"/>
<stop offset="1" stop-color="#00A2FF"/>
</linearGradient>
<linearGradient id="paint1_linear_1_15801" x1="6.19336" y1="19.3199" x2="30.4427" y2="19.3199" gradientUnits="userSpaceOnUse">
<stop stop-color="#0027FF"/>
<stop offset="1" stop-color="#00A2FF"/>
</linearGradient>
<linearGradient id="paint2_linear_1_15801" x1="12.8027" y1="30.3144" x2="27.9798" y2="30.3144" gradientUnits="userSpaceOnUse">
<stop stop-color="#0027FF"/>
<stop offset="1" stop-color="#00A2FF"/>
</linearGradient>
<clipPath id="clip0_1_15801">
<rect width="36" height="35.4672" fill="white" transform="translate(0 0.5)"/>
</clipPath>
</defs>
</svg>
