<svg width="36" height="37" viewBox="0 0 36 37" fill="none" xmlns="http://www.w3.org/2000/svg">
<g clip-path="url(#clip0_1_15892)">
<path d="M17.9846 36.1392C27.7608 36.1392 35.686 28.214 35.686 18.4377C35.686 8.66152 27.7608 0.736328 17.9846 0.736328C8.2084 0.736328 0.283203 8.66152 0.283203 18.4377C0.283203 28.214 8.2084 36.1392 17.9846 36.1392Z" fill="#2B9FDA"/>
<path d="M22.1527 23.7217C19.2494 23.7217 16.3569 23.7217 13.4162 23.7217C12.8111 24.8645 12.1948 25.9923 11.6158 27.1389C11.3596 27.6462 11.004 27.9452 10.4343 27.9991C9.27233 28.1089 7.22724 28.1147 6.84765 27.8214C6.37865 27.4404 8.54779 23.7338 8.54779 23.7338L6.91987 23.7411C6.91987 23.7411 6.91238 22.2044 6.91238 21.4687C7.92801 21.4687 8.87625 21.4687 9.85121 21.4687C10.0232 21.1512 10.357 20.5353 10.357 20.5353L6.91253 20.533C6.91253 20.533 6.91253 18.9927 6.91253 18.2569C8.54311 18.2569 10.0996 18.2569 11.6636 18.2569C12.2176 17.2652 12.7331 16.35 13.2413 15.4308C14.8615 12.5004 16.4903 9.57449 18.0889 6.63228C18.4666 5.93734 18.9978 5.57957 19.7687 5.57402C20.893 5.56596 22.0185 5.54681 23.1414 5.58806C24.2335 5.62817 24.4135 5.8577 24.5633 6.91358C25.1882 11.3163 25.8357 15.7158 26.4633 20.1181C26.7837 22.3648 27.1018 24.6123 27.3757 26.8649C27.4842 27.7572 27.2304 28.0449 26.3584 28.0896C25.4481 28.1362 24.5332 28.1075 23.6208 28.0877C23.0417 28.0751 22.7505 27.7754 22.6908 27.17C22.5876 26.1226 22.4198 25.0816 22.2756 24.0384C22.2665 23.9719 22.2271 23.9097 22.1527 23.7217ZM21.5658 18.1669C21.2337 15.5153 20.911 12.9392 20.5883 10.363C20.5389 10.3502 20.4896 10.3374 20.4402 10.3245C19.0839 12.9082 17.7276 15.492 16.3234 18.1669C18.1198 18.1669 19.7801 18.1669 21.5658 18.1669ZM14.6574 21.3903C17.1619 21.3903 19.5237 21.3903 21.9587 21.3903C21.9052 21.0695 21.8649 20.8287 21.8155 20.5329C19.5569 20.5329 17.3514 20.5329 15.1035 20.5329C14.9669 20.7955 14.8323 21.0542 14.6574 21.3903Z" fill="white"/>
</g>
<defs>
<clipPath id="clip0_1_15892">
<rect width="36" height="36" fill="white" transform="translate(0 0.5)"/>
</clipPath>
</defs>
</svg>
