<svg width="36" height="37" viewBox="0 0 36 37" fill="none" xmlns="http://www.w3.org/2000/svg">
<g clip-path="url(#clip0_1_15484)">
<path fill-rule="evenodd" clip-rule="evenodd" d="M18 0.5C27.9432 0.5 36 8.5568 36 18.5C36 28.4432 27.9432 36.5 18 36.5C8.0568 36.5 0 28.4432 0 18.5C0 8.5568 8.0568 0.5 18 0.5Z" fill="#2E3148"/>
<path fill-rule="evenodd" clip-rule="evenodd" d="M17.9644 8.11719C23.7028 8.11719 28.3468 12.7684 28.3468 18.4996C28.3468 24.2308 23.6956 28.882 17.9644 28.882C12.226 28.882 7.58203 24.2308 7.58203 18.4996C7.58203 12.7684 12.2332 8.11719 17.9644 8.11719Z" fill="#1B1E36"/>
<path d="M17.9998 3.12891C18.1222 3.12891 18.2806 3.18651 18.4606 3.35211C18.6478 3.52491 18.8422 3.79131 19.0438 4.17291C19.4398 4.92891 19.807 6.04491 20.1166 7.45611C20.7358 10.2713 21.1246 14.1737 21.1246 18.4937C21.1246 22.8137 20.7358 26.7233 20.1166 29.5313C19.807 30.9425 19.4398 32.0585 19.0438 32.8145C18.8494 33.1961 18.6478 33.4625 18.4606 33.6353C18.2734 33.8081 18.1222 33.8585 17.9998 33.8585C17.8774 33.8585 17.719 33.8009 17.539 33.6353C17.3518 33.4625 17.1574 33.1961 16.9558 32.8145C16.5598 32.0585 16.1926 30.9425 15.883 29.5313C15.2638 26.7161 14.875 22.8137 14.875 18.4937C14.875 14.1737 15.2638 10.2641 15.883 7.45611C16.1926 6.04491 16.5598 4.92891 16.9558 4.17291C17.1502 3.79131 17.3518 3.52491 17.539 3.35211C17.7262 3.18651 17.8774 3.12891 17.9998 3.12891Z" stroke="#6F7390" stroke-width="0.704477"/>
<path d="M31.4066 10.7968C31.4714 10.9048 31.5002 11.0704 31.4426 11.3152C31.385 11.5672 31.2482 11.8696 31.025 12.2296C30.5642 12.9496 29.7794 13.8352 28.7138 14.8144C26.5826 16.7656 23.3858 19.0624 19.6346 21.2296C15.8762 23.3968 12.2906 25.0168 9.53297 25.8808C8.15057 26.3128 6.99857 26.5576 6.14177 26.5864C5.71697 26.6008 5.37857 26.5648 5.13377 26.4928C4.89617 26.4208 4.76657 26.3128 4.70177 26.2048C4.63697 26.0968 4.60817 25.9312 4.66577 25.6864C4.72337 25.4344 4.86017 25.132 5.08337 24.772C5.54417 24.052 6.32897 23.1664 7.39457 22.1872C9.52577 20.236 12.7226 17.9392 16.4738 15.772C20.225 13.6048 23.8178 11.9848 26.5754 11.1208C27.9578 10.6888 29.1098 10.444 29.9666 10.4152C30.3914 10.4008 30.7298 10.4368 30.9746 10.5088C31.2122 10.5808 31.3418 10.6888 31.4066 10.7968Z" stroke="#6F7390" stroke-width="0.704477"/>
<path d="M30.9746 26.4928C31.2122 26.4208 31.3418 26.3128 31.4066 26.2048C31.4714 26.0968 31.5002 25.9312 31.4426 25.6864C31.385 25.4344 31.2482 25.132 31.025 24.772C30.5642 24.052 29.7794 23.1664 28.7138 22.1872C26.5826 20.236 23.3858 17.9392 19.6346 15.772C15.8834 13.6048 12.2906 11.9848 9.53297 11.1208C8.15057 10.6888 6.99857 10.444 6.14177 10.4152C5.71697 10.4008 5.37857 10.4368 5.13377 10.5088C4.89617 10.5808 4.76657 10.6888 4.70177 10.7968M30.9746 26.4928L4.70177 10.7968M30.9746 26.4928C30.7298 26.572 30.3986 26.6008 29.9666 26.5864L30.9746 26.4928ZM4.70177 10.7968C4.63697 10.9048 4.60817 11.0704 4.66577 11.3152M4.70177 10.7968L4.66577 11.3152M5.08337 12.2296C5.54417 12.9568 6.32897 13.8352 7.39457 14.8144L5.08337 12.2296ZM5.08337 12.2296C4.85297 11.8696 4.71617 11.56 4.66577 11.3152M5.08337 12.2296L4.66577 11.3152M29.9666 26.5936C29.1098 26.5576 27.9578 26.32 26.5754 25.888L29.9666 26.5936ZM26.5754 25.8808C23.8178 25.0168 20.2322 23.3968 16.4738 21.2296L26.5754 25.8808ZM16.481 21.2296C12.7226 19.0624 9.53297 16.7656 7.40177 14.8144L16.481 21.2296Z" stroke="#6F7390" stroke-width="0.704477"/>
<path fill-rule="evenodd" clip-rule="evenodd" d="M7.97794 14.0859C8.58994 14.0859 9.08674 14.5827 9.08674 15.1947C9.08674 15.8067 8.58994 16.3035 7.97794 16.3035C7.36594 16.3035 6.86914 15.8067 6.86914 15.1947C6.86914 14.5827 7.36594 14.0859 7.97794 14.0859Z" fill="#B7B9C8"/>
<path fill-rule="evenodd" clip-rule="evenodd" d="M25.5961 10.293C26.2081 10.293 26.7049 10.7898 26.7049 11.4018C26.7049 12.0138 26.2081 12.5106 25.5961 12.5106C24.9841 12.5106 24.4873 12.0138 24.4873 11.4018C24.4873 10.7898 24.9841 10.293 25.5961 10.293Z" fill="#B7B9C8"/>
<path fill-rule="evenodd" clip-rule="evenodd" d="M15.8188 27.6953C16.4308 27.6953 16.9276 28.1921 16.9276 28.8041C16.9276 29.4161 16.4308 29.9129 15.8188 29.9129C15.2068 29.9129 14.71 29.4161 14.71 28.8041C14.71 28.1921 15.2068 27.6953 15.8188 27.6953Z" fill="#B7B9C8"/>
<path fill-rule="evenodd" clip-rule="evenodd" d="M17.9925 16.6133C19.0293 16.6133 19.8717 17.4557 19.8717 18.4925C19.8717 19.5293 19.0293 20.3717 17.9925 20.3717C16.9557 20.3717 16.1133 19.5293 16.1133 18.4925C16.1133 17.4557 16.9557 16.6133 17.9925 16.6133Z" fill="#B7B9C8"/>
</g>
<defs>
<clipPath id="clip0_1_15484">
<rect width="36" height="36" fill="white" transform="translate(0 0.5)"/>
</clipPath>
</defs>
</svg>
