<svg width="36" height="37" viewBox="0 0 36 37" fill="none" xmlns="http://www.w3.org/2000/svg">
<path d="M27.144 3.79006C21.4128 0.866856 14.6304 0.866856 8.89922 3.79006C6.26402 5.18686 4.06082 7.27486 2.52722 9.83086C0.979218 12.4445 0.180018 15.4397 0.216018 18.4781C0.180018 21.5453 0.972018 24.5693 2.52722 27.2189C4.05362 29.7965 6.25682 31.9061 8.89202 33.3245C14.616 36.2765 21.4128 36.2765 27.1368 33.3245C29.7864 31.9133 31.9968 29.7965 33.5304 27.2189C35.0784 24.5693 35.8776 21.5453 35.8416 18.4781C35.8776 15.4397 35.0784 12.4445 33.5304 9.83086C31.9896 7.26766 29.7792 5.18686 27.144 3.79006Z" fill="white"/>
<path d="M22.9391 14.5189C23.5151 15.8365 24.9119 17.3125 26.3879 18.8965C28.3967 21.0565 30.7151 23.5405 31.2335 26.0677C31.2407 26.1181 31.2911 26.1541 31.3487 26.1469C31.3775 26.1397 31.3991 26.1253 31.4135 26.1037C33.5591 23.2237 32.6807 21.3517 31.7591 19.3861C30.8375 17.4205 29.7863 15.1309 32.7095 12.5605C32.4647 11.9557 32.1695 11.3725 31.8383 10.8109C30.7367 8.98209 29.2391 7.41969 27.4535 6.24609C24.1631 8.33409 21.6071 11.5453 22.9391 14.5189Z" fill="url(#paint0_radial_1_15772)"/>
<path d="M2.45518 19.8961C2.71438 20.5873 4.85278 25.5337 14.2056 25.6777C17.6904 25.7281 20.6568 27.1177 21.9528 29.3065C22.4856 30.1777 22.716 31.2001 22.608 32.2153C22.608 32.2513 22.6368 32.2801 22.6728 32.2873C22.7808 32.2873 22.8888 32.2513 22.9752 32.1865C24.0336 31.5313 24.84 30.0337 24.1344 28.1185C23.4792 26.0449 21.3912 24.1657 18.3168 22.7185H18.2808C17.4816 22.3081 16.632 21.9193 15.7392 21.5737C15.5016 21.4801 15.2856 21.3793 15.084 21.2785H15.0192C12.1608 19.6873 10.5048 17.4841 10.0872 14.6977V14.6617C9.77038 11.7169 10.908 8.14574 13.14 5.09294C13.4208 4.71854 13.7232 4.36574 14.0256 4.02734C12.564 4.33694 11.1456 4.84814 9.82798 5.55374C7.56718 6.75614 5.66638 8.54174 4.31998 10.7233C3.00238 13.0057 2.32558 15.5977 2.34718 18.2257C2.37598 18.7729 2.40478 19.3705 2.45518 19.8961Z" fill="url(#paint1_linear_1_15772)"/>
<path d="M18.2306 3.66743C17.813 3.66743 17.4026 3.73223 16.9922 3.78983C14.1698 5.98583 11.5346 10.7522 12.0314 14.5682C12.341 16.9442 13.8314 18.6794 16.4594 19.7306C24.7754 23.021 26.2298 27.0818 26.3306 29.2058C26.3594 29.645 26.3306 30.0914 26.2514 30.5234C26.237 30.5738 26.273 30.6314 26.3234 30.6458C26.3522 30.653 26.381 30.6458 26.4026 30.6314C27.0506 30.2426 27.6626 29.8034 28.2386 29.3138C30.7298 26.8442 28.541 24.1082 24.9482 20.2202C23.357 18.5066 21.8522 16.8938 21.1466 15.3098C19.973 12.6746 20.5346 8.61383 25.5242 5.16503C23.7314 4.33703 21.809 3.83303 19.8434 3.66743C19.6274 3.66743 19.4114 3.66743 19.1882 3.66743C18.8714 3.63863 18.5258 3.64583 18.2306 3.66743Z" fill="url(#paint2_radial_1_15772)"/>
<defs>
<radialGradient id="paint0_radial_1_15772" cx="0" cy="0" r="1" gradientUnits="userSpaceOnUse" gradientTransform="translate(32.773 9.57462) rotate(67.5572) scale(26.4896 18.1374)">
<stop stop-color="#785AC8"/>
<stop offset="0.49" stop-color="#47A1EE"/>
<stop offset="1" stop-color="#18DFC6"/>
</radialGradient>
<linearGradient id="paint1_linear_1_15772" x1="10.5847" y1="29.1885" x2="16.3442" y2="15.6816" gradientUnits="userSpaceOnUse">
<stop stop-color="#47A1EE"/>
<stop offset="1" stop-color="#18DFC6"/>
</linearGradient>
<radialGradient id="paint2_radial_1_15772" cx="0" cy="0" r="1" gradientUnits="userSpaceOnUse" gradientTransform="translate(27.4858 0.710889) rotate(-1.00005) scale(27.888 27.888)">
<stop stop-color="#18DFC6"/>
<stop offset="0.51" stop-color="#47A1EE"/>
<stop offset="1" stop-color="#785AC8"/>
</radialGradient>
</defs>
</svg>
