<svg width="36" height="37" viewBox="0 0 36 37" fill="none" xmlns="http://www.w3.org/2000/svg">
<g clip-path="url(#clip0_1_15685)">
<path d="M35.9997 18.5008C35.9997 28.4584 27.9213 36.5368 17.9637 36.5368C8.00613 36.5368 -0.0722656 28.4584 -0.0722656 18.5008C-0.0722656 8.54324 8.00613 0.464844 17.9637 0.464844C27.9213 0.464844 35.9997 8.54324 35.9997 18.5008Z" fill="#4958C5"/>
<path d="M25.315 11.0262H20.383V9.63661C20.383 8.11021 21.967 6.97261 23.0254 6.87901C23.9542 6.79261 24.451 6.67741 26.287 7.27501V4.77661C25.0342 4.46701 23.5294 4.51021 22.2766 4.62541C20.9086 4.70461 17.7982 6.15181 17.7982 9.50701V11.0334H15.9838V13.3086H17.7982V21.8838C17.7982 21.8838 16.6246 20.7678 14.2126 20.7678C10.8574 20.7678 7.88379 23.3526 7.88379 27.0534C7.88379 30.7542 10.6414 33.411 14.2846 33.411C17.9278 33.411 20.4766 30.2934 20.5558 27.0534C20.635 23.8134 20.5558 20.127 20.5558 20.127V13.3014H25.3078V11.0262H25.315Z" fill="white"/>
<path d="M14.3141 30.6536C16.358 30.6536 18.0149 28.9966 18.0149 26.9528C18.0149 24.9089 16.358 23.252 14.3141 23.252C12.2702 23.252 10.6133 24.9089 10.6133 26.9528C10.6133 28.9966 12.2702 30.6536 14.3141 30.6536Z" fill="#4958C5"/>
</g>
<defs>
<clipPath id="clip0_1_15685">
<rect width="36" height="36" fill="white" transform="translate(0 0.5)"/>
</clipPath>
</defs>
</svg>
