<svg width="36" height="37" viewBox="0 0 36 37" fill="none" xmlns="http://www.w3.org/2000/svg">
<g clip-path="url(#clip0_1_15860)">
<path d="M18 36.5C27.9411 36.5 36 28.4411 36 18.5C36 8.55887 27.9411 0.5 18 0.5C8.05887 0.5 0 8.55887 0 18.5C0 28.4411 8.05887 36.5 18 36.5Z" fill="#E84142"/>
<path d="M24.3501 18.9688C24.9765 17.8888 25.9773 17.8888 26.6037 18.9688L30.4845 25.7872C31.1109 26.8672 30.5997 27.7456 29.3541 27.7456H21.5277C20.2965 27.7456 19.7853 26.8672 20.3973 25.7872L24.3501 18.9688ZM16.8405 5.8432C17.4669 4.7632 18.4533 4.7632 19.0797 5.8432L19.9437 7.4056L21.9813 10.9912C22.4781 12.0136 22.4781 13.216 21.9813 14.2384L15.1341 26.104C14.5077 27.0688 13.4781 27.6808 12.3261 27.7456H6.64526C5.39966 27.7456 4.88846 26.8816 5.51486 25.7872L16.8405 5.8432Z" fill="white"/>
</g>
<defs>
<clipPath id="clip0_1_15860">
<rect width="36" height="36" fill="white" transform="translate(0 0.5)"/>
</clipPath>
</defs>
</svg>
