<svg width="36" height="37" viewBox="0 0 36 37" fill="none" xmlns="http://www.w3.org/2000/svg">
<path fill-rule="evenodd" clip-rule="evenodd" d="M0.374023 35.8737L10.8284 7.23927C12.1532 3.89847 14.63 2.00487 17.9204 1.94727C17.942 1.94727 17.9708 1.94727 17.9924 1.94727C18.014 1.94727 18.0428 1.94727 18.0644 1.94727C21.3548 2.00487 23.8244 3.89127 25.1564 7.23927L35.6108 35.8737L29.138 33.6201L20.21 9.16167C19.6628 7.80807 19.0364 7.31847 17.9996 7.29687C16.9556 7.31847 16.3292 7.80807 15.7892 9.16167L6.84682 33.6201L0.374023 35.8737ZM22.5428 24.9729C22.5428 27.4713 20.534 29.5017 18.0572 29.5017C15.5804 29.5017 13.5716 27.4713 13.5716 24.9729C13.5716 22.4745 15.5804 20.4441 18.0572 20.4441C20.534 20.4441 22.5428 22.4673 22.5428 24.9729Z" fill="url(#paint0_linear_1_15690)"/>
<defs>
<linearGradient id="paint0_linear_1_15690" x1="17.9951" y1="1.95103" x2="17.9951" y2="35.8734" gradientUnits="userSpaceOnUse">
<stop stop-color="#42C1FD"/>
<stop offset="1" stop-color="#1F8EFA"/>
</linearGradient>
</defs>
</svg>
