<svg width="36" height="37" viewBox="0 0 36 37" fill="none" xmlns="http://www.w3.org/2000/svg">
<g clip-path="url(#clip0_1_15476)">
<path d="M14.126 0.681641H15.1052C21.0164 0.876041 26.3516 4.26004 29.0444 9.52324C29.1668 9.75364 29.1812 10.02 29.0732 10.2648C28.9076 10.6392 28.4972 10.8408 28.094 10.7544C27.8492 10.6608 27.6332 10.5096 27.4676 10.308C22.406 5.59924 15.638 3.18004 8.74036 3.59764C8.35876 3.65524 7.99156 3.43924 7.84756 3.07924C7.67476 2.66164 7.86196 2.18644 8.26516 1.99204C10.13 1.19284 12.11 0.753641 14.126 0.681641Z" fill="#0263E1"/>
<path d="M29.2029 2.8552C29.5269 2.7184 29.9013 2.8048 30.1317 3.0712C31.5501 4.72 32.6301 6.6352 33.2997 8.7016C34.1277 11.2648 34.3221 13.9936 33.8541 16.6504C33.2853 19.9336 31.7229 22.972 29.3757 25.3408C29.0517 25.636 28.5549 25.6288 28.2381 25.3264C27.9573 25.0672 27.8853 24.6496 28.0653 24.3112C29.9661 20.272 30.7797 15.8008 30.4269 11.3512C30.2397 8.8024 29.6637 6.2968 28.7205 3.9136C28.5621 3.4888 28.7781 3.0136 29.2029 2.8552Z" fill="#0263E1"/>
<path d="M13.6296 4.95921C13.8528 4.89441 14.0904 4.90881 14.3064 5.00961C14.724 5.24001 14.8824 5.75121 14.6664 6.17601C14.5728 6.34161 14.4216 6.47841 14.2488 6.55761C8.0928 9.97761 3.6288 15.7808 1.8936 22.5992C1.8216 22.9376 1.548 23.204 1.2024 23.2472C0.748804 23.3192 0.324004 23.0096 0.252004 22.5488C0.252004 22.5488 0.252004 22.5488 0.252004 22.5416C-0.244796 17.12 1.9872 11.8064 6.1992 8.35761C8.3376 6.61521 10.9008 5.44161 13.6296 4.95921Z" fill="#0263E1"/>
<path d="M5.52193 17.2056C5.96833 17.0832 6.42193 17.3496 6.54433 17.796C6.55153 17.8176 6.55153 17.8392 6.55873 17.8608C7.52353 23.088 10.0939 27.8904 13.9099 31.5984C15.1339 32.7864 16.4731 33.8448 17.9131 34.7664C18.1147 34.8888 18.2587 35.0976 18.3019 35.3352C18.3667 35.7528 18.1291 36.156 17.7259 36.3C17.4235 36.3504 17.1139 36.3144 16.8259 36.1992C13.2835 35.256 10.1587 33.1392 7.97713 30.1944C5.34913 26.6664 4.24753 22.2312 4.91713 17.8824C4.96033 17.5512 5.19793 17.2848 5.52193 17.2056Z" fill="#0263E1"/>
<path d="M34.7543 23.1606C35.2151 23.0454 35.6831 23.3262 35.7983 23.7942C35.8127 23.8374 35.8199 23.8806 35.8199 23.931C35.7911 24.2622 35.6615 24.579 35.4455 24.831C30.9959 31.8654 21.9239 34.3566 14.5079 30.591C14.2487 30.4614 14.0759 30.2094 14.0471 29.9214C14.0111 29.5542 14.2127 29.2014 14.5439 29.0502C14.7311 28.9782 14.9399 28.9638 15.1415 29.007C19.9079 29.6046 24.7463 28.827 29.0879 26.7606C30.9959 25.8534 32.7815 24.7158 34.4015 23.3622C34.5023 23.2686 34.6247 23.1966 34.7543 23.1606Z" fill="#0263E1"/>
</g>
<defs>
<clipPath id="clip0_1_15476">
<rect width="36" height="36" fill="white" transform="translate(0 0.5)"/>
</clipPath>
</defs>
</svg>
