<svg width="36" height="37" viewBox="0 0 36 37" fill="none" xmlns="http://www.w3.org/2000/svg">
<g clip-path="url(#clip0_1_15855)">
<path d="M18 36.5C8.0712 36.5 0 28.4288 0 18.5C0 12.0128 3.5136 6.0008 9.1656 2.8112C11.8512 1.2992 14.904 0.5 18 0.5C27.9288 0.5 36 8.5712 36 18.5C36 28.4288 27.9288 36.5 18 36.5ZM10.6056 26.9672C10.6056 31.1 13.968 34.4696 18.108 34.4696C22.2408 34.4696 25.6104 31.1072 25.6104 26.9672C25.6104 22.8272 22.248 19.4648 18.108 19.4648C13.9752 19.4648 10.6056 22.8272 10.6056 26.9672ZM8.676 5.4032C4.4784 8.4056 1.9296 13.28 1.9296 18.5C1.9296 24.7496 5.5152 30.1712 10.7352 32.8352C9.4824 31.2656 8.7192 29.2856 8.6832 27.1256V5.4032H8.676ZM18.108 17.5352C23.3064 17.5352 27.54 21.7616 27.54 26.9672C27.54 29.0984 26.8272 31.064 25.632 32.648C30.6576 29.9264 34.0704 24.6056 34.0704 18.5072C34.0704 9.644 26.8632 2.4368 18 2.4368C15.4224 2.4368 12.8808 3.056 10.6056 4.2368V21.2648C12.3336 18.9968 15.0552 17.5352 18.108 17.5352Z" fill="url(#paint0_linear_1_15855)"/>
</g>
<defs>
<linearGradient id="paint0_linear_1_15855" x1="18" y1="1.46429" x2="18" y2="35.5357" gradientUnits="userSpaceOnUse">
<stop stop-color="#EEA7ED"/>
<stop offset="1" stop-color="#0217B0"/>
</linearGradient>
<clipPath id="clip0_1_15855">
<rect width="36" height="36" fill="white" transform="translate(0 0.5)"/>
</clipPath>
</defs>
</svg>
