<svg width="36" height="37" viewBox="0 0 36 37" fill="none" xmlns="http://www.w3.org/2000/svg">
<path d="M25.4663 20.877C23.2199 21.3234 20.6639 21.561 17.9999 21.561C15.3359 21.561 12.7799 21.3234 10.5335 20.877C4.50705 21.8274 0.331055 23.8938 0.331055 26.2842C0.331055 29.5818 8.24385 32.2458 17.9999 32.2458C27.7559 32.2458 35.6687 29.5746 35.6687 26.2842C35.6687 23.8938 31.4927 21.8274 25.4663 20.877Z" fill="black"/>
<path d="M17.9851 10.3358C23.8067 10.3358 28.5259 8.78852 28.5259 6.87983C28.5259 4.97113 23.8067 3.42383 17.9851 3.42383C12.1636 3.42383 7.44434 4.97113 7.44434 6.87983C7.44434 8.78852 12.1636 10.3358 17.9851 10.3358Z" fill="black"/>
<path d="M22.6729 11.127C21.1753 11.3574 19.5625 11.4726 17.9857 11.4726C16.4161 11.4726 14.8105 11.3574 13.3129 11.127C7.85528 11.7678 3.93848 13.503 3.93848 15.5334C3.93848 18.1182 10.2313 20.2062 18.0001 20.2062C25.7689 20.2062 32.0617 18.111 32.0617 15.5334C32.0617 13.503 28.1377 11.7678 22.6729 11.127Z" fill="black"/>
</svg>
