<svg width="36" height="37" viewBox="0 0 36 37" fill="none" xmlns="http://www.w3.org/2000/svg">
<g clip-path="url(#clip0_1_15734)">
<path d="M30.3479 11.9625C30.3479 9.41375 29.1167 7.16015 27.2231 5.77775L32.3279 0.59375L29.2751 0.60815L25.2143 4.72655C24.4583 4.46735 23.6591 4.33055 22.8239 4.33055H8.85588V24.4042L25.6751 7.34015C27.1871 8.30495 28.2023 10.0185 28.2023 11.9625C28.2023 14.9649 25.7903 17.4129 22.8311 17.4129H22.3847L3.67188 36.4137H6.71027L10.3823 32.6913H22.8239C26.9711 32.6913 30.3407 29.2642 30.3407 25.0594C30.3407 22.2802 28.8719 19.8537 26.6831 18.5217C28.8719 17.1681 30.3479 14.7345 30.3479 11.9625ZM11.0087 19.1409V6.50495H22.8239C23.0255 6.50495 23.2271 6.51935 23.4215 6.54095L11.0087 19.1409ZM28.2023 25.0377C28.2023 28.0401 25.7903 30.4881 22.8311 30.4881H12.5279L23.2343 19.6234C25.9991 19.8465 28.2023 22.1793 28.2023 25.0377Z" fill="#4520E7"/>
</g>
<defs>
<clipPath id="clip0_1_15734">
<rect width="36" height="36" fill="white" transform="translate(0 0.5)"/>
</clipPath>
</defs>
</svg>
