<svg width="36" height="37" viewBox="0 0 36 37" fill="none" xmlns="http://www.w3.org/2000/svg">
<path d="M18.0004 3.92792C19.0804 3.92792 20.0164 4.56872 20.4412 5.49032C20.83 5.27432 21.2764 5.15192 21.7516 5.15192C23.242 5.15192 24.4444 6.35432 24.4444 7.84472C24.4444 7.98872 24.43 8.13272 24.4084 8.26952C25.3084 8.67272 34.114 12.8919 33.826 22.0791C33.574 30.0423 25.4668 33.0231 18.4108 33.0231C11.8444 33.0231 2.86598 31.4031 2.11718 21.8847C1.52678 14.3607 8.52518 9.24872 11.4916 8.25512C11.47 8.11832 11.4628 7.98152 11.4628 7.84472C11.4628 6.35432 12.6652 5.15192 14.1556 5.15192C14.6596 5.15192 15.1348 5.28872 15.538 5.53352C15.9556 4.59032 16.8988 3.92792 18.0004 3.92792ZM18.0004 2.91992C16.8772 2.91992 15.8332 3.43112 15.1348 4.27352C14.818 4.18712 14.4868 4.14392 14.1484 4.14392C12.1972 4.14392 10.5916 5.66312 10.4548 7.57832C8.79158 8.31272 6.55238 9.84632 4.70918 11.9559C2.87318 14.0583 0.75638 17.4999 1.10918 21.9639C1.30358 24.3903 2.01638 26.4927 3.22598 28.2207C4.29878 29.7471 5.78198 30.9927 7.62518 31.9215C10.3972 33.3183 14.026 34.0311 18.4108 34.0311C22.4932 34.0311 26.3236 33.0951 29.182 31.4031C32.7532 29.2863 34.7044 26.0751 34.834 22.1079C34.906 19.8399 34.4596 17.6727 33.5164 15.6711C32.7532 14.0511 31.6588 12.5391 30.2764 11.1639C28.4188 9.32792 26.4676 8.18312 25.4524 7.65752C25.3516 5.70632 23.7316 4.14392 21.7588 4.14392C21.4492 4.14392 21.1468 4.17992 20.8516 4.25912C20.1532 3.42392 19.1092 2.91992 18.0004 2.91992Z" fill="#59251B"/>
<path d="M33.8252 22.0777C33.5732 30.0409 25.466 33.0217 18.41 33.0217C12.5564 33.0217 4.77317 31.7329 2.63477 24.6985C5.54357 29.9401 12.3116 30.9697 17.5532 30.9697C24.602 30.9697 32.7164 27.9889 32.9684 20.0257C33.0188 18.3985 32.7812 16.9225 32.3564 15.5977C33.2996 17.3977 33.9044 19.5505 33.8252 22.0777Z" fill="#F1E3D6"/>
<path d="M32.962 20.0256C32.71 27.9888 24.6028 30.9696 17.5468 30.9696C12.3124 30.9696 5.5444 29.94 2.6356 24.6984C2.3764 23.8488 2.1964 22.9128 2.1172 21.8904C1.5268 14.3664 8.5252 9.25439 11.4916 8.26079C11.47 8.12399 11.4628 7.98719 11.4628 7.85039C11.4628 6.35999 12.6724 5.15759 14.1556 5.15759C14.6596 5.15759 15.1348 5.29439 15.538 5.53919C15.9556 4.59599 16.8988 3.93359 18.0004 3.93359C19.0804 3.93359 20.0164 4.57439 20.4484 5.49599C20.8372 5.27999 21.2836 5.15759 21.7588 5.15759C22.4644 5.15759 23.1052 5.43119 23.5876 5.87039C23.7748 6.05039 23.9404 6.25199 24.0772 6.47519C24.3148 6.87839 24.4516 7.34639 24.4516 7.85039C24.4516 7.99439 24.4372 8.13839 24.4156 8.27519C25.0636 8.57039 29.8732 10.8672 32.3572 15.6048C32.782 16.9224 33.0124 18.3912 32.962 20.0256Z" fill="#FBF7EC"/>
<path d="M15.1918 8.67915C15.1918 8.68635 15.1918 8.69355 15.1918 8.70075C15.0838 9.74475 14.2342 10.5728 13.1902 10.6592C12.9094 10.6808 12.6358 10.652 12.3838 10.58C12.1462 10.508 11.9806 10.8176 12.1822 10.9688C12.5998 11.2856 13.1326 11.4584 13.7086 11.408C14.7814 11.3144 15.6382 10.4288 15.703 9.35595C15.7174 9.11115 15.6886 8.86635 15.631 8.64315C15.5662 8.39835 15.2134 8.43435 15.1918 8.67915Z" fill="#59251B"/>
<path d="M21.0889 8.93088C21.0961 8.93088 21.1033 8.93088 21.1105 8.93808C22.0465 9.16848 22.6945 10.0901 22.6441 11.1053C22.6297 11.3789 22.5649 11.6381 22.4641 11.8757C22.3705 12.0989 22.6297 12.2933 22.7881 12.1205C23.1265 11.7533 23.3569 11.2565 23.3785 10.6949C23.4289 9.64368 22.7305 8.71488 21.7585 8.52768C21.5353 8.48448 21.3121 8.47728 21.0961 8.51328C20.8801 8.54208 20.8657 8.88048 21.0889 8.93088Z" fill="#59251B"/>
<path d="M18.4464 9.5567C18.4536 9.5639 18.4536 9.5711 18.4608 9.5783C18.9144 10.3847 18.72 11.4143 18.0144 12.0047C17.82 12.1631 17.6112 12.2783 17.388 12.3575C17.1792 12.4295 17.2224 12.7319 17.4384 12.7391C17.8992 12.7535 18.3744 12.6095 18.7632 12.2783C19.4904 11.6663 19.656 10.5935 19.152 9.7799C19.0368 9.5927 18.8928 9.4343 18.7344 9.3047C18.576 9.1607 18.3384 9.3623 18.4464 9.5567Z" fill="#59251B"/>
<path d="M12.074 21.0776C12.7857 21.0776 13.3628 20.5006 13.3628 19.7888C13.3628 19.077 12.7857 18.5 12.074 18.5C11.3622 18.5 10.7852 19.077 10.7852 19.7888C10.7852 20.5006 11.3622 21.0776 12.074 21.0776Z" fill="#59251B"/>
<path d="M23.947 21.0776C24.6588 21.0776 25.2358 20.5006 25.2358 19.7888C25.2358 19.077 24.6588 18.5 23.947 18.5C23.2352 18.5 22.6582 19.077 22.6582 19.7888C22.6582 20.5006 23.2352 21.0776 23.947 21.0776Z" fill="#59251B"/>
<path d="M21.1971 21.451C21.0315 21.8758 20.7579 22.387 20.2971 22.8046C19.7859 23.2726 19.0587 23.6254 18.0003 23.6254C16.9419 23.6254 16.2147 23.2726 15.7035 22.8046C15.2427 22.387 14.9691 21.8758 14.8035 21.451C14.6451 21.0478 14.9475 20.623 15.3723 20.623H20.6211C21.0531 20.623 21.3555 21.055 21.1971 21.451Z" fill="#59251B"/>
<path d="M20.2967 22.8122C19.7855 23.2802 19.0583 23.633 17.9999 23.633C16.9415 23.633 16.2143 23.2802 15.7031 22.8122C16.3079 22.2506 17.1143 21.9122 17.9999 21.9122C18.8855 21.905 19.6919 22.2506 20.2967 22.8122Z" fill="#FF8884"/>
</svg>
