<svg width="36" height="37" viewBox="0 0 36 37" fill="none" xmlns="http://www.w3.org/2000/svg">
<g clip-path="url(#clip0_1_15527)">
<path d="M30.0237 18.4633C30.1245 18.3481 30.2469 18.2329 30.3621 18.1105C30.7365 17.7073 31.1541 17.2825 31.5429 16.8649C33.1125 15.2305 33.9765 13.1137 33.9765 10.8817C33.9765 10.7233 34.0053 10.0897 34.0053 10.0033C33.8253 4.89854 29.4837 0.744141 24.3573 0.744141H8.20765V7.19534H1.70605V36.2617H24.6093C29.6997 36.2617 33.9981 31.7833 33.9981 26.4769C34.0125 22.6825 31.6437 20.0041 30.0237 18.4633ZM11.4477 10.4353L24.3069 10.4497L16.2213 18.5569L24.2133 26.5849H11.4477V10.4353ZM24.6093 33.0145H4.94605V10.4209H8.20765V29.8033H24.2133C25.5309 29.8033 26.7117 29.0113 27.2157 27.7945C27.7197 26.5777 27.4461 25.1953 26.5173 24.2593L20.8077 18.5425L26.6109 12.7321C27.5397 11.8033 27.8133 10.4137 27.3093 9.19694C26.8053 7.98014 25.6245 7.18814 24.3069 7.18814H11.4549V3.97694H24.3645C27.7845 3.97694 30.6573 6.73454 30.7725 10.0897C30.7725 10.2337 30.7437 10.7881 30.7437 10.8025V10.8673C30.7437 12.7609 29.7861 14.0425 29.2029 14.6329C28.7997 15.0505 28.3893 15.4897 28.0149 15.8785C27.3813 16.5409 26.8341 17.1097 26.5749 17.3689L25.4157 18.5065L26.5677 19.6585C26.7261 19.8169 26.9205 19.9969 27.1509 20.2129C28.4973 21.4585 30.7653 23.5249 30.7653 26.4553C30.7725 29.9473 27.8997 33.0145 24.6093 33.0145Z" fill="#6356AB"/>
</g>
<defs>
<clipPath id="clip0_1_15527">
<rect width="36" height="36" fill="white" transform="translate(0 0.5)"/>
</clipPath>
</defs>
</svg>
