<svg width="36" height="37" viewBox="0 0 36 37" fill="none" xmlns="http://www.w3.org/2000/svg">
<g clip-path="url(#clip0_1_15827)">
<path d="M8.683 10.0193V5.5625C6.9046 6.7721 5.3782 8.2985 4.2334 10.0121H8.683V10.0193Z" fill="#0597FF"/>
<path d="M1.30273 19.4932V19.558C1.30273 28.774 8.81233 36.2836 18.0283 36.2836C27.3739 36.2836 34.8835 28.7812 34.8835 19.4932C34.8835 10.27 27.3811 2.76758 18.0283 2.76758C16.9483 2.76758 15.9331 2.83238 14.9755 3.08438V7.41158C15.9907 7.09478 17.0131 6.96518 18.0283 6.96518C25.0267 6.96518 30.6211 12.6244 30.6211 19.558C30.6211 26.4916 25.0267 32.1508 18.0283 32.1508C11.0947 32.1508 5.50033 26.4916 5.50033 19.558C5.50033 18.4132 4.48513 17.4628 3.34033 17.4628C2.19553 17.4628 1.30273 18.3484 1.30273 19.4932Z" fill="#0597FF"/>
<path d="M9.69858 19.4929C9.69858 24.1369 13.5146 27.8881 18.0938 27.8881C22.7378 27.8881 26.5538 24.1369 26.5538 19.4929C26.5538 14.8489 22.7378 11.0977 18.0938 11.0977H5.50098L7.59618 15.2953H18.029C20.3834 15.2953 22.2266 17.1385 22.2266 19.4281C22.2266 21.7825 20.3834 23.6257 18.029 23.6257C15.7394 23.6257 13.8962 21.7825 13.8962 19.4281V16.2457H9.69858V19.4929Z" fill="#0597FF"/>
<path d="M13.8965 2.70362C13.8965 1.55882 12.9461 0.666016 11.8013 0.666016C10.6565 0.666016 9.70605 1.61642 9.70605 2.70362V10.0188H13.8965C13.8965 10.0188 13.8965 2.76842 13.8965 2.70362Z" fill="#0597FF"/>
</g>
<defs>
<clipPath id="clip0_1_15827">
<rect width="36" height="36" fill="white" transform="translate(0 0.5)"/>
</clipPath>
</defs>
</svg>
