<svg width="36" height="37" viewBox="0 0 36 37" fill="none" xmlns="http://www.w3.org/2000/svg">
<path d="M24.4657 3.73828L29.8388 6.2574L35.1683 13.4653L18.0003 33.1085L0.599609 13.4507L6.17662 6.33019L11.9284 3.73828H24.4657Z" fill="white"/>
<path d="M35.688 13.498C29.8037 20.1819 23.9304 26.8532 17.9989 33.5906C12.0807 26.8679 6.19972 20.1875 0.303711 13.4899C1.42299 12.018 2.53137 10.5631 3.63664 9.10586C4.30812 8.22057 4.98888 7.34175 5.63742 6.43986C5.94109 6.01755 6.39514 5.86093 6.82115 5.65756C8.29501 4.95393 9.78102 4.27578 11.2572 3.57702C11.4958 3.46408 11.7328 3.40427 11.9931 3.40431C16.1005 3.40506 20.2079 3.40571 24.3154 3.40234C24.9702 3.4018 25.4678 3.80999 26.0189 4.05992C27.3417 4.6599 28.6351 5.32442 29.9466 5.94978C30.1189 6.03196 30.2538 6.13777 30.3605 6.28216C32.1267 8.67116 33.8903 11.0621 35.688 13.498ZM16.2936 30.5555C16.2984 30.5777 16.3032 30.5999 16.2963 30.5684C16.2989 30.6032 16.2974 30.5832 16.296 30.5631C15.9502 29.9615 15.5859 29.3714 15.2461 28.7654C13.3906 25.4566 11.5077 22.1631 9.64926 18.8558C9.35499 18.3322 9.01173 17.92 8.4488 17.6484C7.03031 16.964 5.63805 16.2253 4.23637 15.5062C3.49533 15.126 2.75657 14.7414 1.91741 14.3074C2.03243 14.4824 2.07257 14.563 2.13006 14.6282C3.66931 16.3745 5.21411 18.1158 6.75027 19.8648C9.69176 23.2139 12.6255 26.5697 15.5735 29.913C15.7826 30.1502 15.9466 30.4623 16.2936 30.5555ZM9.72943 17.7577C12.4677 22.5809 15.2052 27.4024 17.9776 32.2857C18.09 32.1234 18.1364 32.0669 18.1715 32.0041C18.8527 30.7876 19.5331 29.5706 20.2126 28.3531C22.1419 24.8959 24.0676 21.4367 26.0062 17.9847C26.1469 17.7341 26.1527 17.5159 26.0812 17.2575C25.6207 15.5942 25.1686 13.9287 24.7112 12.2645C24.4536 11.3271 24.1913 10.3911 23.9257 9.43521C20.0056 9.43521 16.1153 9.43521 12.135 9.43521C11.3427 12.1764 10.5449 14.9365 9.72943 17.7577ZM29.1641 6.37537C29.0472 6.2712 29.0103 6.22075 28.9605 6.19661C27.7054 5.5867 26.4508 4.97571 25.1915 4.37461C24.8708 4.22156 24.5684 4.0356 24.1803 4.03656C20.1632 4.0464 16.1461 4.04316 12.129 4.04221C11.9165 4.04215 11.72 4.0723 11.5212 4.16783C10.6968 4.56394 9.86324 4.94077 9.03511 5.3291C8.26855 5.68856 7.50461 6.05365 6.75453 6.40915C6.77098 6.56692 6.85483 6.60026 6.93932 6.63606C8.55642 7.32085 10.1738 8.00496 11.7892 8.69389C11.9332 8.75529 12.0777 8.77178 12.2285 8.77156C15.6437 8.76681 19.0597 8.72138 22.4739 8.77858C23.6749 8.79871 24.751 8.56156 25.777 7.98028C25.9593 7.87698 26.1566 7.80007 26.3465 7.71012C27.2634 7.27596 28.1801 6.84155 29.1641 6.37537ZM26.7113 17.1948C29.4514 15.8917 32.1001 14.6322 34.7963 13.35C33.1472 11.1237 31.5421 8.95682 29.8985 6.73792C28.0972 7.58614 26.3297 8.4184 24.5447 9.25899C25.2691 11.9122 25.9784 14.5103 26.7113 17.1948ZM6.06357 6.95567C4.45973 9.06905 2.88084 11.1495 1.27364 13.2674C3.94322 14.6404 6.53268 15.9722 9.19281 17.3404C9.97959 14.6017 10.7447 11.9384 11.5135 9.26264C9.64333 8.47102 7.86695 7.71907 6.06357 6.95567ZM19.8003 30.339C19.8456 30.3704 19.891 30.4018 19.9363 30.4333C24.5606 25.1803 29.1849 19.9274 33.8146 14.6682C33.643 14.5481 33.5416 14.6456 33.4408 14.6935C31.3954 15.6645 29.3549 16.646 27.3038 17.6047C26.9425 17.7736 26.699 18.0064 26.508 18.3508C24.604 21.7841 22.6903 25.212 20.7765 28.6398C20.4582 29.2101 20.1261 29.7728 19.8003 30.339Z" fill="#494949"/>
<path d="M13.9081 21.0524C15.2109 20.9622 15.2057 21.2418 15.1951 19.6934C15.1859 18.3548 15.191 17.0162 15.1897 15.6775C15.189 14.9793 15.0033 14.7924 14.3155 14.7787C14.1075 14.7745 13.8949 14.8192 13.6389 14.7213C13.5591 14.3647 13.5818 13.9873 13.636 13.5441C14.4099 13.5441 15.1677 13.5441 15.9488 13.5441C16.1414 12.8799 15.9395 12.2402 16.0826 11.6118C16.4611 11.5333 16.8244 11.5299 17.2449 11.6205C17.2449 12.2083 17.2449 12.7868 17.2449 13.3598C17.5694 13.4972 17.8435 13.4599 18.1471 13.409C18.2744 12.815 18.1164 12.2101 18.2375 11.612C18.6082 11.5123 18.9632 11.5755 19.359 11.5672C19.4996 12.2055 19.3509 12.8394 19.458 13.4834C19.9732 13.5832 20.4938 13.6379 20.9811 13.8408C22.5221 14.4821 22.8468 16.1178 21.6567 17.2921C21.59 17.3579 21.5335 17.4199 21.5313 17.5421C21.9084 17.7118 22.3019 17.8616 22.5808 18.1939C23.696 19.5232 22.9501 21.7411 21.2359 22.1753C20.6697 22.3187 20.1079 22.4953 19.4817 22.4394C19.3497 23.0919 19.4954 23.7255 19.3888 24.3777C19.0042 24.4903 18.6293 24.4593 18.2106 24.377C18.2106 23.7792 18.2106 23.2003 18.2106 22.6501C17.9343 22.3679 17.6445 22.4952 17.3336 22.4616C17.1843 23.1112 17.3695 23.7462 17.242 24.3854C16.8516 24.4457 16.4735 24.4606 16.0442 24.3593C16.0442 23.7385 16.0442 23.1292 16.0442 22.4555C15.2373 22.4555 14.4801 22.4555 13.6666 22.4555C13.7037 21.935 13.7172 21.4855 13.9081 21.0524ZM17.3066 21.0214C18.1914 21.0314 19.0178 21.0903 19.8148 20.8063C20.2657 20.6456 20.5993 20.3597 20.6688 19.8532C20.7283 19.4196 20.5489 19.0644 20.193 18.8531C19.2975 18.3216 18.3144 18.3782 17.3066 18.4322C17.3066 19.3202 17.3066 20.1384 17.3066 21.0214ZM17.3016 17.2179C18.0033 17.2668 18.6443 17.2624 19.2684 17.07C19.7671 16.9162 20.073 16.5424 20.0902 16.1095C20.1097 15.6193 19.8612 15.2418 19.3473 15.0471C18.6884 14.7974 18.006 14.8334 17.3016 14.8885C17.3016 15.6757 17.3016 16.4178 17.3016 17.2179Z" fill="#FCC72B"/>
</svg>
