<svg width="36" height="37" viewBox="0 0 36 37" fill="none" xmlns="http://www.w3.org/2000/svg">
<path d="M4.77236 18.163C4.75763 18.2155 4.76042 18.2683 4.76903 18.3213C4.73547 18.4834 4.75796 18.6472 4.75513 18.8102C4.75112 19.0426 4.75565 19.2751 4.78544 19.5063C4.78058 19.5655 4.7802 19.6246 4.79426 19.6829C4.80308 20.0308 4.85294 20.3744 4.90583 20.7174C4.93412 20.9009 4.9476 21.0876 5.00657 21.2657C5.00796 21.2807 5.00934 21.2956 5.01073 21.3106C5.01028 21.3721 5.02436 21.4302 5.05244 21.4848C5.05483 21.5001 5.05724 21.5153 5.05964 21.5306C5.10651 21.8496 5.20508 22.1559 5.29097 22.4652C5.35835 22.7078 5.42687 22.9505 5.53154 23.1808L5.53145 23.1806C5.64122 23.5371 5.7836 23.8805 5.94997 24.214L5.95006 24.2142C6.0334 24.4297 6.12921 24.639 6.25554 24.8332L6.25406 24.8314C6.2539 24.8654 6.26864 24.8918 6.29543 24.912L6.29496 24.9185C6.32937 25.0083 6.37531 25.0919 6.43091 25.1703C6.4298 25.1765 6.43228 25.1804 6.43835 25.1819C6.50154 25.3281 6.58447 25.4627 6.67901 25.5904L6.67692 25.5958L6.68174 25.599C6.68696 25.607 6.69216 25.615 6.69738 25.623L6.69686 25.6225C6.82387 25.8562 6.96607 26.08 7.13396 26.2868L7.13244 26.2856C7.14013 26.3017 7.14598 26.3189 7.1557 26.3336C7.35541 26.6352 7.57884 26.9195 7.80984 27.1969C8.02172 27.4513 8.23289 27.7077 8.48016 27.9305L8.4805 27.9312C8.51551 27.9838 8.559 28.028 8.61181 28.0628C8.6193 28.0704 8.6268 28.0779 8.63429 28.0854C8.64133 28.0928 8.64839 28.1001 8.65542 28.1074L8.65567 28.1078C8.66302 28.1148 8.67036 28.1219 8.67771 28.129L8.67821 28.1293C8.69295 28.1583 8.71596 28.1791 8.74377 28.195L8.74409 28.1955C8.75124 28.2028 8.75838 28.2101 8.76551 28.2174L8.76576 28.2176C8.80085 28.2701 8.84856 28.3096 8.8988 28.3465L8.90082 28.3482C8.90978 28.367 8.92011 28.3844 8.94344 28.3878L8.9499 28.3924L8.9537 28.4018L8.96351 28.4028C8.96236 28.4101 8.96546 28.4142 8.97278 28.415C8.97651 28.4197 8.98023 28.4244 8.98398 28.4291C8.98722 28.4363 8.99276 28.4397 9.00065 28.4395C9.00777 28.465 9.02286 28.4815 9.05067 28.4837L9.0495 28.4829C9.05549 28.5147 9.08143 28.5316 9.10276 28.5506C9.47628 28.8834 9.86265 29.2003 10.2694 29.4919C10.3003 29.514 10.3378 29.5298 10.3465 29.5867C10.3027 29.5867 10.2668 29.5867 10.231 29.5867C7.01478 29.5863 3.79854 29.5859 0.582298 29.5853C0.516454 29.5853 0.45061 29.5827 0.384766 29.5814C0.384766 22.3371 0.384766 15.0928 0.384766 7.84848C3.70029 7.84883 7.0158 7.84917 10.3313 7.84944C10.3386 7.84944 10.3459 7.84827 10.3532 7.84766C10.3528 7.89267 10.3104 7.90038 10.2851 7.92246C10.2076 7.99013 10.1121 8.03509 10.0426 8.11305L10.0419 8.11355C9.73634 8.32368 9.45288 8.56071 9.1854 8.81721L9.18428 8.81811C9.17184 8.8252 9.15761 8.83029 9.1472 8.83967C8.49954 9.42269 7.91453 10.0634 7.39299 10.7612C7.24709 10.9564 7.09353 11.1474 6.97962 11.365L6.98083 11.364C6.90728 11.4269 6.86972 11.5159 6.82023 11.595C6.67762 11.8233 6.52566 12.0463 6.41367 12.2925L6.41271 12.2937C6.37486 12.3289 6.35967 12.376 6.34493 12.4232L6.34534 12.423C6.19977 12.6436 6.0863 12.8803 5.99225 13.1267L5.99297 13.1262C5.98471 13.1373 5.97436 13.1474 5.96851 13.1596C5.68064 13.7619 5.45538 14.3879 5.26935 15.0281C5.09243 15.637 4.96062 16.256 4.87823 16.8847C4.8369 17.2002 4.78722 17.5154 4.79019 17.8352C4.78919 17.8575 4.7882 17.8798 4.78719 17.9022C4.76737 17.9505 4.77183 18.0004 4.77806 18.0504C4.76089 18.0814 4.76404 18.1133 4.77362 18.1455C4.76733 18.1509 4.76694 18.1568 4.77236 18.163ZM31.1809 17.7033C31.1915 17.7362 31.1948 17.7692 31.1827 17.8025C31.2279 17.9716 31.2192 18.1441 31.2155 18.3163C31.2303 18.3909 31.227 18.4657 31.2187 18.5406C31.2279 18.6568 31.228 18.773 31.2184 18.8892C31.2184 18.905 31.2184 18.9208 31.2184 18.9366C31.2182 19.1608 31.2378 19.3859 31.1827 19.6072C31.1945 19.6296 31.1913 19.6519 31.1829 19.6743C31.1925 19.686 31.1917 19.6971 31.1814 19.7079C31.1813 19.7208 31.1813 19.7336 31.1812 19.7464C31.1827 20.0156 31.1359 20.2802 31.1029 20.5459C31.0909 20.6423 31.086 20.741 31.0505 20.8336C31.055 20.8387 31.0549 20.8436 31.0501 20.8484C31.0488 20.8557 31.0476 20.863 31.0464 20.8704C31.0451 20.8851 31.0438 20.8999 31.0424 20.9147C31.0022 21.1965 30.9561 21.4771 30.8723 21.75C30.8715 21.7575 30.8707 21.765 30.87 21.7724C30.8646 21.8263 30.8551 21.8789 30.8264 21.9261C30.8249 21.9409 30.8233 21.9557 30.8217 21.9705C30.7492 22.3122 30.6404 22.6435 30.5317 22.9748C30.4912 23.0983 30.4562 23.2242 30.39 23.3378C30.3919 23.3449 30.3905 23.3512 30.3857 23.3568C30.3074 23.6353 30.1805 23.8947 30.0645 24.158C30.0297 24.2369 30.0061 24.3225 29.9492 24.3909L29.9493 24.3907C29.8587 24.6205 29.7449 24.8386 29.6153 25.0487C29.6158 25.0676 29.6095 25.0831 29.5924 25.093C29.4292 25.4178 29.2441 25.7294 29.0277 26.0219L29.0289 26.0209C28.9231 26.2218 28.7836 26.4002 28.6493 26.5816C28.4433 26.8596 28.2398 27.1399 27.996 27.3874C27.9961 27.3874 27.997 27.3868 27.997 27.3868C27.8001 27.6358 27.5836 27.8666 27.3522 28.0837L27.3508 28.0848C27.2972 28.1474 27.2441 28.2106 27.1755 28.2582L27.1727 28.2598C27.1137 28.3253 27.0589 28.3953 26.9801 28.4395L26.9809 28.4387C26.9744 28.4623 26.9614 28.4791 26.9351 28.4817L26.9351 28.4818C26.8931 28.5365 26.8483 28.5881 26.7825 28.6156L26.7831 28.6152C26.6226 28.7959 26.4268 28.9367 26.2417 29.0894C26.1465 29.168 26.0441 29.2379 25.945 29.3116C25.9424 29.3184 25.9375 29.3212 25.9304 29.32C25.8565 29.3908 25.777 29.4537 25.6838 29.4976L25.6852 29.4963C25.6648 29.5201 25.6445 29.5439 25.6087 29.5858C25.6879 29.5858 25.7482 29.5858 25.8085 29.5858C29.0181 29.5857 32.2276 29.5856 35.4371 29.5854C35.4846 29.5854 35.5322 29.5828 35.5797 29.5814C35.5797 22.3371 35.5797 15.0928 35.5797 7.84852C32.263 7.84852 28.9462 7.84852 25.6013 7.84852C25.637 7.87845 25.647 7.88799 25.658 7.89591C26.0448 8.17178 26.4152 8.4684 26.7704 8.78351C27.5117 9.44102 28.1701 10.174 28.7478 10.9786C29.2031 11.6128 29.5984 12.2829 29.9353 12.9874C30.2611 13.6686 30.5272 14.3724 30.7317 15.0991C30.804 15.3557 30.8787 15.6122 30.9165 15.8772C30.9903 16.1282 31.0327 16.3851 31.0598 16.6448C31.0621 16.6608 31.0644 16.6768 31.0667 16.6927C31.133 17.0264 31.1755 17.3628 31.1809 17.7033ZM18.1626 29.5779C23.9737 29.4996 28.9003 24.7171 28.8222 18.5419C28.7486 12.7336 23.9809 7.75764 17.7971 7.85203C11.9882 7.94072 7.1532 12.7122 7.16004 18.7229C7.14936 24.6566 11.9871 29.6611 18.1626 29.5779ZM21.423 17.1794C21.9086 17.2462 22.35 17.4051 22.6953 17.776C22.9304 18.0287 23.0764 18.3284 23.1821 18.6503C23.4056 19.331 23.4223 20.0088 23.1318 20.6769C22.8843 21.246 22.4538 21.6378 21.9165 21.9276C21.448 22.1802 20.9495 22.3593 20.4514 22.5402C20.438 22.545 20.4252 22.5515 20.394 22.565C20.4864 23.2227 20.6919 23.8554 20.8545 24.513C20.4645 24.6444 20.0666 24.7261 19.6582 24.8183C19.4717 24.1874 19.3435 23.5532 19.1633 22.9207C18.8422 22.9263 18.555 23.0509 18.2432 23.1113C18.3623 23.7722 18.5795 24.396 18.7028 25.0563C18.3225 25.182 17.9234 25.2186 17.5331 25.3583C17.3267 24.7181 17.1964 24.0665 17.0294 23.4035C16.2335 23.5612 15.4502 23.759 14.6573 23.9762C14.5754 23.486 14.5761 22.9992 14.5236 22.5149C14.5978 22.4399 14.6952 22.4309 14.7855 22.4116C14.9322 22.3803 15.0813 22.3605 15.2285 22.3311C15.6471 22.2476 15.7878 22.0362 15.7061 21.6163C15.6354 21.253 15.5097 20.9043 15.4211 20.5457C15.2913 20.0202 15.1624 19.4945 15.0316 18.9692C14.9229 18.5328 14.8115 18.097 14.7022 17.6608C14.6088 17.2883 14.5236 16.9136 14.4219 16.5435C14.3288 16.2049 14.1385 16.07 13.7992 16.0747C13.6698 16.0766 13.5458 16.11 13.4219 16.1422C13.2034 16.199 12.9945 16.2897 12.7601 16.3313C12.6079 15.9219 12.546 15.4892 12.4073 15.0555C13.2002 14.8382 13.9973 14.6533 14.8001 14.4536C14.6366 13.8022 14.4768 13.1652 14.3151 12.5209C14.709 12.3968 15.109 12.3267 15.5089 12.2082C15.6799 12.835 15.8344 13.4613 15.9802 14.1029C16.2797 14.0255 16.5708 13.9624 16.871 13.8645C16.7978 13.2254 16.5619 12.6251 16.4452 11.9849C16.8333 11.8705 17.2187 11.7684 17.6173 11.6869C17.8281 12.3239 17.9437 12.9732 18.1303 13.6091C18.3619 13.5909 18.5872 13.5726 18.8125 13.5555C19.2815 13.52 19.7484 13.5142 20.2079 13.6401C20.6831 13.7703 21.0392 14.0523 21.2899 14.4741C21.52 14.8613 21.6778 15.2698 21.6688 15.7283C21.6589 16.2319 21.4667 16.6581 21.1148 17.0149C21.0865 17.0436 21.0589 17.0729 21.0319 17.1026C21.0277 17.1072 21.0281 17.116 21.0229 17.1364C21.1576 17.1506 21.2909 17.1612 21.423 17.1794ZM18.426 21.5273C18.9366 21.4016 19.4481 21.2782 19.9228 21.0421C20.2639 20.8724 20.5715 20.6679 20.7613 20.3173C21.0668 19.7534 20.8925 19.0979 20.3465 18.8129C20.0529 18.6597 19.7342 18.6193 19.4086 18.6315C18.8046 18.6541 18.224 18.8056 17.6451 18.9637C17.5125 18.9999 17.3811 19.0403 17.2335 19.0833C17.4993 19.9355 17.6616 20.8021 17.8978 21.6588C18.0859 21.6119 18.2558 21.5692 18.426 21.5273ZM16.9668 17.8736C17.0963 17.8454 17.2138 17.8213 17.3306 17.794C17.8783 17.666 18.404 17.4817 18.874 17.1649C19.0872 17.0212 19.2747 16.8476 19.3877 16.6099C19.5691 16.2285 19.4565 15.8852 19.2228 15.5748C18.9894 15.2647 18.6461 15.1673 18.2753 15.1503C17.8906 15.1326 17.5176 15.2115 17.1477 15.3029C16.8929 15.3658 16.6414 15.4423 16.3712 15.5176C16.5487 16.3194 16.7451 17.0964 16.9668 17.8736Z" fill="#4CC847"/>
</svg>
