<svg width="36" height="37" viewBox="0 0 36 37" fill="none" xmlns="http://www.w3.org/2000/svg">
<g clip-path="url(#clip0_1_15808)">
<path d="M33.869 19.3427L18.7994 28.0619C18.3026 28.3499 17.6906 28.3499 17.1938 28.0691L10.325 24.1883C9.65536 23.8067 9.24496 23.1011 9.24496 22.3307V14.7419C9.24496 14.0003 9.63376 13.3163 10.2746 12.9419L16.949 9.00354C17.5034 8.67954 18.1802 8.67234 18.7418 8.98194L22.2554 10.9403C22.4282 11.0339 22.4282 11.2859 22.2554 11.3795L14.4434 15.8507C14.141 16.0235 13.9538 16.3403 13.9538 16.6859V20.3363C13.9538 20.5955 14.0906 20.8403 14.3138 20.9771L17.5394 22.8995C17.8202 23.0723 18.1802 23.0723 18.461 22.9067L31.853 15.1739C34.5386 13.6259 34.5314 9.74514 31.8458 8.20434L19.4762 1.10514C18.5618 0.579538 17.4386 0.579538 16.5242 1.10514L3.80176 8.42034C2.78656 9.00354 2.16016 10.0835 2.16016 11.2571V25.8659C2.16016 26.9243 2.72176 27.9035 3.63616 28.4435L16.1426 35.7875C17.2514 36.4355 18.6194 36.4427 19.7354 35.8019L32.249 28.5659C33.257 27.9827 33.8762 26.9099 33.8762 25.7435V19.3427H33.869Z" fill="url(#paint0_linear_1_15808)"/>
</g>
<defs>
<linearGradient id="paint0_linear_1_15808" x1="18.0171" y1="36.2769" x2="18.0171" y2="0.710514" gradientUnits="userSpaceOnUse">
<stop stop-color="#1DADE2"/>
<stop offset="1" stop-color="#2155AC"/>
</linearGradient>
<clipPath id="clip0_1_15808">
<rect width="36" height="36" fill="white" transform="translate(0 0.5)"/>
</clipPath>
</defs>
</svg>
