<svg width="36" height="37" viewBox="0 0 36 37" fill="none" xmlns="http://www.w3.org/2000/svg">
<g clip-path="url(#clip0_1_15794)">
<path d="M18.0018 36.0545C27.6964 36.0545 35.5554 28.1955 35.5554 18.5009C35.5554 8.80628 27.6964 0.947266 18.0018 0.947266C8.30726 0.947266 0.448242 8.80628 0.448242 18.5009C0.448242 28.1955 8.30726 36.0545 18.0018 36.0545Z" fill="#F04086"/>
<path d="M26.3689 19.3513C25.6605 18.5737 24.6409 18.087 23.3089 17.8926V17.8638C24.4753 17.6751 25.3926 17.197 26.0161 16.4324C26.6483 15.6721 26.9925 14.7145 26.9867 13.7252C26.9867 12.0822 26.4568 10.9647 25.3609 10.0863C24.2665 9.20792 22.6206 8.91992 20.3929 8.91992H11.9747V16.7535H7.14062V19.753H20.3339C21.3721 19.753 22.1526 19.8265 22.6667 20.2412C23.1822 20.6559 23.4457 21.193 23.4457 21.9865C23.4457 22.7799 23.1851 23.4567 22.6667 23.8815C22.1483 24.3063 21.3678 24.5871 20.3339 24.5871H15.808V22.2543H11.9747V27.5881H20.6665C22.8769 27.5881 24.5661 27.0121 25.7382 26.115C26.9104 25.2178 27.4605 23.893 27.4605 22.2687C27.4763 21.193 27.0861 20.1519 26.3689 19.3513ZM19.8529 16.7478H15.8094V11.9137H19.8529C21.9309 11.9137 22.9691 12.7258 22.9691 14.33C22.9691 15.9342 21.9309 16.7478 19.8529 16.7478Z" fill="white"/>
</g>
<defs>
<clipPath id="clip0_1_15794">
<rect width="36" height="36" fill="white" transform="translate(0 0.5)"/>
</clipPath>
</defs>
</svg>
