<svg width="36" height="37" viewBox="0 0 36 37" fill="none" xmlns="http://www.w3.org/2000/svg">
<g clip-path="url(#clip0_1_15944)">
<path d="M17.9712 16.1163C19.2888 16.1163 20.3544 17.1819 20.3544 18.4995C20.3544 19.8171 19.2888 20.8755 17.9712 20.8755C16.6536 20.8755 15.588 19.8099 15.588 18.4923C15.588 17.1747 16.6536 16.1163 17.9712 16.1163ZM17.9712 14.7051C15.8832 14.7051 14.1768 16.4043 14.1768 18.4995C14.1768 20.5875 15.876 22.2939 17.9712 22.2939C20.0664 22.2939 21.7656 20.5947 21.7656 18.4995C21.7656 16.4043 20.0592 14.7051 17.9712 14.7051Z" fill="#00FFF4"/>
<path d="M17.9712 6.45417C19.2888 6.45417 20.3544 7.51977 20.3544 8.83737C20.3544 10.155 19.2888 11.2206 17.9712 11.2206C16.6536 11.2206 15.588 10.155 15.588 8.83737C15.588 7.51977 16.6536 6.45417 17.9712 6.45417ZM17.9712 5.04297C15.8832 5.04297 14.1768 6.74217 14.1768 8.83737C14.1768 10.9326 15.876 12.6318 17.9712 12.6318C20.0664 12.6318 21.7656 10.9326 21.7656 8.83737C21.7656 6.74217 20.0592 5.04297 17.9712 5.04297Z" fill="#02CEC8"/>
<path d="M17.9712 25.7712C19.2888 25.7712 20.3544 26.8368 20.3544 28.1544C20.3544 29.472 19.2888 30.5376 17.9712 30.5376C16.6536 30.5376 15.588 29.472 15.588 28.1544C15.588 26.8368 16.6536 25.7712 17.9712 25.7712ZM17.9712 24.3672C15.8832 24.3672 14.1768 26.0664 14.1768 28.1616C14.1768 30.2496 15.876 31.956 17.9712 31.956C20.0664 31.956 21.7656 30.2568 21.7656 28.1616C21.7656 26.0664 20.0592 24.3672 17.9712 24.3672Z" fill="#02CEC8"/>
<path d="M28.3539 12.5018C29.0235 13.6394 28.6419 15.0938 27.5115 15.7634C26.3739 16.433 24.9195 16.0514 24.2499 14.921C23.5803 13.7834 23.9619 12.329 25.0923 11.6594C26.2227 10.9898 27.6843 11.3642 28.3539 12.5018ZM29.5707 11.7818C28.5123 9.9818 26.1795 9.377 24.3795 10.4354C22.5795 11.4938 21.9747 13.8266 23.0331 15.6266C24.0915 17.4266 26.4243 18.0314 28.2243 16.973C30.0243 15.9146 30.6291 13.589 29.5707 11.7818Z" fill="#02CEC8"/>
<path d="M11.5915 22.186C12.2611 23.3236 11.8795 24.778 10.7491 25.4476C9.61872 26.1172 8.15712 25.7356 7.48752 24.6052C6.81792 23.4676 7.19952 22.0132 8.32992 21.3436C9.46032 20.674 10.9219 21.0484 11.5915 22.186ZM12.8011 21.4732C11.7427 19.6732 9.40992 19.0684 7.60992 20.1268C5.80992 21.1852 5.20512 23.518 6.26352 25.318C7.32192 27.118 9.65472 27.7228 11.4547 26.6644C13.2619 25.5988 13.8667 23.2732 12.8011 21.4732Z" fill="#02CEC8"/>
<path d="M28.3825 24.5557C27.7345 25.7005 26.2801 26.1037 25.1353 25.4557C23.9905 24.8077 23.5873 23.3533 24.2353 22.2085C24.8833 21.0637 26.3377 20.6605 27.4825 21.3085C28.6273 21.9565 29.0305 23.4037 28.3825 24.5557ZM29.6065 25.2469C30.6361 23.4253 29.9953 21.1069 28.1737 20.0773C26.3521 19.0477 24.0337 19.6885 23.0041 21.5101C21.9745 23.3317 22.6153 25.6501 24.4369 26.6797C26.2585 27.7093 28.5769 27.0685 29.6065 25.2469Z" fill="#02CEC8"/>
<path d="M11.5989 14.8923C10.9509 16.0371 9.4965 16.4403 8.3517 15.7923C7.2069 15.1443 6.8037 13.6899 7.4517 12.5451C8.0997 11.4003 9.5541 10.9971 10.6989 11.6451C11.8437 12.2931 12.2469 13.7475 11.5989 14.8923ZM12.8301 15.5907C13.8597 13.7691 13.2189 11.4507 11.3973 10.4211C9.5757 9.39146 7.2573 10.0323 6.2277 11.8539C5.1981 13.6755 5.8389 15.9939 7.6605 17.0235C9.4821 18.0531 11.8005 17.4051 12.8301 15.5907Z" fill="#02CEC8"/>
<path d="M17.9644 3.3664C18.6961 3.3664 19.2892 2.77326 19.2892 2.0416C19.2892 1.30993 18.6961 0.716797 17.9644 0.716797C17.2328 0.716797 16.6396 1.30993 16.6396 2.0416C16.6396 2.77326 17.2328 3.3664 17.9644 3.3664Z" fill="#007C82"/>
<path d="M32.2633 11.6809C32.9949 11.6809 33.5881 11.0877 33.5881 10.356C33.5881 9.62438 32.9949 9.03125 32.2633 9.03125C31.5316 9.03125 30.9385 9.62438 30.9385 10.356C30.9385 11.0877 31.5316 11.6809 32.2633 11.6809Z" fill="#007C82"/>
<path d="M32.2633 28.0031C32.9949 28.0031 33.5881 27.41 33.5881 26.6783C33.5881 25.9466 32.9949 25.3535 32.2633 25.3535C31.5316 25.3535 30.9385 25.9466 30.9385 26.6783C30.9385 27.41 31.5316 28.0031 32.2633 28.0031Z" fill="#007C82"/>
<path d="M17.9859 36.298C18.7176 36.298 19.3107 35.7049 19.3107 34.9732C19.3107 34.2416 18.7176 33.6484 17.9859 33.6484C17.2543 33.6484 16.6611 34.2416 16.6611 34.9732C16.6611 35.7049 17.2543 36.298 17.9859 36.298Z" fill="#007C82"/>
<path d="M3.69394 27.9758C4.42561 27.9758 5.01874 27.3826 5.01874 26.651C5.01874 25.9193 4.42561 25.3262 3.69394 25.3262C2.96227 25.3262 2.36914 25.9193 2.36914 26.651C2.36914 27.3826 2.96227 27.9758 3.69394 27.9758Z" fill="#007C82"/>
<path d="M3.69394 11.6594C4.42561 11.6594 5.01874 11.0662 5.01874 10.3346C5.01874 9.6029 4.42561 9.00977 3.69394 9.00977C2.96227 9.00977 2.36914 9.6029 2.36914 10.3346C2.36914 11.0662 2.96227 11.6594 3.69394 11.6594Z" fill="#007C82"/>
</g>
<defs>
<clipPath id="clip0_1_15944">
<rect width="36" height="36" fill="white" transform="translate(0 0.5)"/>
</clipPath>
</defs>
</svg>
