<svg width="36" height="37" viewBox="0 0 36 37" fill="none" xmlns="http://www.w3.org/2000/svg">
<g clip-path="url(#clip0_1_15798)">
<path d="M12.1823 12.956H22.6799C24.5591 12.956 26.3375 13.4024 27.9143 14.1872C28.0151 13.568 28.0727 12.9272 28.0727 12.272C28.0727 5.7704 22.8022 0.5 16.3007 0.5H5.80305C3.44865 0.5 1.54785 2.408 1.54785 4.7552V19.7888C1.54785 22.136 3.45585 24.044 5.80305 24.044H7.92705V17.2112C7.92705 14.864 9.82785 12.956 12.1823 12.956Z" fill="#00CDAA"/>
<path d="M27.9212 14.1875C27.0068 19.7747 22.154 24.0443 16.3004 24.0443H7.92676V32.2451C7.92676 34.5923 9.83476 36.5003 12.182 36.5003H22.6796C29.1812 36.5003 34.4516 31.2299 34.4516 24.7283C34.4516 20.1059 31.7948 16.1099 27.9212 14.1875Z" fill="#00B2F9"/>
</g>
<defs>
<clipPath id="clip0_1_15798">
<rect width="36" height="36" fill="white" transform="translate(0 0.5)"/>
</clipPath>
</defs>
</svg>
