<svg width="36" height="37" viewBox="0 0 36 37" fill="none" xmlns="http://www.w3.org/2000/svg">
<g clip-path="url(#clip0_1_15482)">
<path d="M17.9639 36.5C27.9071 36.5 35.9639 28.4432 35.9639 18.5C35.9639 8.5568 27.9071 0.5 17.9639 0.5C8.02067 0.5 -0.0361328 8.5568 -0.0361328 18.5C-0.0361328 28.4432 8.02067 36.5 17.9639 36.5Z" fill="#231F20"/>
<path d="M24.1994 17.7002C23.9906 17.6426 23.825 17.8802 23.9618 18.053C24.3146 18.4994 24.5018 18.9746 24.5018 19.4642C24.5018 22.0706 19.2242 24.1802 12.7154 24.1802C10.8506 24.1802 9.08656 24.0074 7.51696 23.6978C7.32256 23.6618 7.21456 23.9138 7.38736 24.0218C9.46096 25.3682 13.1834 26.2682 17.4314 26.2682C23.9402 26.2682 29.2178 24.1586 29.2178 21.5522C29.2106 19.961 27.2306 18.5498 24.1994 17.7002Z" fill="url(#paint0_linear_1_15482)"/>
<path d="M22.1692 10.7167C21.9892 10.6663 21.8452 10.8751 21.9676 11.0191C22.27 11.4007 22.4284 11.8111 22.4284 12.2287C22.4284 14.4607 17.914 16.2607 12.3412 16.2607C10.7428 16.2607 9.23802 16.1167 7.89882 15.8431C7.73322 15.8071 7.64682 16.0303 7.78362 16.1239C9.56202 17.2759 12.7444 18.0463 16.3732 18.0463C21.946 18.0463 26.4604 16.2391 26.4604 14.0143C26.4604 12.6535 24.7684 11.4439 22.1692 10.7167Z" fill="url(#paint1_linear_1_15482)"/>
</g>
<defs>
<linearGradient id="paint0_linear_1_15482" x1="7.29864" y1="21.9796" x2="29.2106" y2="21.9796" gradientUnits="userSpaceOnUse">
<stop stop-color="#8077F2"/>
<stop offset="1" stop-color="#FFB29B"/>
</linearGradient>
<linearGradient id="paint1_linear_1_15482" x1="7.71374" y1="14.3832" x2="26.4623" y2="14.3832" gradientUnits="userSpaceOnUse">
<stop stop-color="#8077F2"/>
<stop offset="1" stop-color="#FFB29B"/>
</linearGradient>
<clipPath id="clip0_1_15482">
<rect width="36" height="36" fill="white" transform="translate(0 0.5)"/>
</clipPath>
</defs>
</svg>
