<svg width="36" height="37" viewBox="0 0 36 37" fill="none" xmlns="http://www.w3.org/2000/svg">
<g clip-path="url(#clip0_1_15689)">
<path d="M17.9998 36.0894C27.7142 36.0894 35.5894 28.2142 35.5894 18.4998C35.5894 8.78529 27.7142 0.910156 17.9998 0.910156C8.28529 0.910156 0.410156 8.78529 0.410156 18.4998C0.410156 28.2142 8.28529 36.0894 17.9998 36.0894Z" fill="#C6BCB0"/>
<path d="M18 34.125C26.6289 34.125 33.624 27.1298 33.624 18.501C33.624 9.87206 26.6289 2.87695 18 2.87695C9.37108 2.87695 2.37598 9.87206 2.37598 18.501C2.37598 27.1298 9.37108 34.125 18 34.125Z" fill="#F8F0E5"/>
<path d="M12.5209 12.0426C12.5209 11.5458 12.5137 11.1282 12.5209 10.7106C12.5497 9.47215 13.4641 8.59375 14.7313 8.59375C16.0057 8.59375 16.9201 9.45775 16.9417 10.7033C16.9489 11.1209 16.9417 11.5385 16.9417 11.9993C17.7337 11.9993 18.5041 11.9993 19.3465 11.9993C19.3465 11.6105 19.3465 11.2073 19.3465 10.8113C19.3537 9.48655 20.2393 8.60095 21.5425 8.59375C22.8673 8.59375 23.7601 9.49375 23.7673 10.833C23.7673 11.2218 23.7673 11.6034 23.7673 12.0426C24.7249 12.0426 25.6321 12.0426 26.5465 12.0426C27.6481 12.0426 28.0945 12.5898 27.8713 13.6842C27.6769 14.6202 27.2521 15.4409 26.5897 16.1177C26.0641 16.6578 25.5169 17.1617 24.9625 17.6657C24.5881 18.0113 24.4009 18.393 24.4081 18.9258C24.4369 20.6394 24.4225 22.3458 24.4153 24.0594C24.4081 26.9322 22.2481 29.1138 19.3825 29.121C18.1225 29.121 16.8553 29.1858 15.6097 29.0346C13.2337 28.7466 11.4553 26.6442 11.4337 24.2394C11.4193 22.4538 11.4193 20.6681 11.4409 18.8826C11.4481 18.4218 11.2753 18.069 10.9657 17.7666C10.4041 17.2266 9.8281 16.7009 9.2737 16.1537C8.6689 15.5489 8.2657 14.8145 8.0353 13.9937C7.9633 13.7201 7.9273 13.4321 7.9345 13.1514C7.9489 12.4241 8.3305 12.0498 9.0577 12.0426C10.0297 12.0354 11.0089 12.0426 11.9809 12.0426C12.1393 12.0426 12.3049 12.0426 12.5209 12.0426ZM15.9553 14.1737C14.6593 14.1737 13.3921 14.1593 12.1177 14.1954C11.9665 14.2025 11.7505 14.4402 11.6929 14.613C11.6353 14.8074 11.6641 15.0954 11.7721 15.261C12.1249 15.7866 12.4921 16.3194 12.9313 16.773C13.3201 17.1762 13.5433 17.5722 13.5361 18.1482C13.5145 20.1282 13.5217 22.1082 13.5289 24.0882C13.5361 25.7298 14.7097 26.9538 16.3297 27.0042C17.4097 27.033 18.4897 27.033 19.5697 26.997C20.8441 26.961 21.9241 26.0826 22.2049 24.8658C22.2985 24.4626 22.2625 24.0306 22.3201 23.6202C22.3777 23.181 22.2193 22.9866 21.7873 22.821C18.6265 21.5898 16.6393 19.3434 16.0777 15.9522C15.9841 15.3834 15.9985 14.7929 15.9553 14.1737ZM22.1617 19.7825C22.1905 19.257 21.7945 18.8178 21.2761 18.789C20.7649 18.7602 20.3113 19.1706 20.2825 19.6818C20.2537 20.193 20.6569 20.6466 21.1753 20.6682C21.7009 20.697 22.1401 20.301 22.1617 19.7825ZM15.4729 12.021C15.4729 11.553 15.5017 11.0994 15.4657 10.6602C15.4297 10.2498 15.1345 10.0769 14.7385 10.0769C14.3497 10.0769 14.0473 10.2497 14.0185 10.6673C13.9897 11.1137 14.0113 11.5602 14.0113 12.021C14.5153 12.021 14.9689 12.021 15.4729 12.021ZM22.2769 12.021C22.2769 11.553 22.2985 11.1066 22.2697 10.6602C22.2409 10.2354 21.9457 10.0769 21.5497 10.0769C21.1537 10.0769 20.8585 10.2498 20.8297 10.6602C20.7937 11.0994 20.8225 11.553 20.8225 12.021C21.3265 12.021 21.7801 12.021 22.2769 12.021Z" fill="black"/>
<path d="M16.3363 19.7304C16.3435 20.256 15.9331 20.6736 15.4075 20.6808C14.8891 20.688 14.4643 20.2776 14.4427 19.7592C14.4283 19.2336 14.8675 18.78 15.4003 18.7872C15.9187 18.7872 16.3291 19.2048 16.3363 19.7304Z" fill="black"/>
</g>
<defs>
<clipPath id="clip0_1_15689">
<rect width="36" height="36" fill="white" transform="translate(0 0.5)"/>
</clipPath>
</defs>
</svg>
