<svg width="36" height="37" viewBox="0 0 36 37" fill="none" xmlns="http://www.w3.org/2000/svg">
<g clip-path="url(#clip0_1_15960)">
<path d="M18.0004 19.3836C19.2082 19.3836 20.1873 18.4045 20.1873 17.1967C20.1873 15.9889 19.2082 15.0098 18.0004 15.0098C16.7926 15.0098 15.8135 15.9889 15.8135 17.1967C15.8135 18.4045 16.7926 19.3836 18.0004 19.3836Z" fill="black"/>
<path d="M3.91102 11.9392C4.93301 11.9392 5.76149 11.1107 5.76149 10.0888C5.76149 9.06677 4.93301 8.23828 3.91102 8.23828C2.88903 8.23828 2.06055 9.06677 2.06055 10.0888C2.06055 11.1107 2.88903 11.9392 3.91102 11.9392Z" fill="black"/>
<path d="M3.91102 28.1736C4.93301 28.1736 5.76149 27.3451 5.76149 26.3231C5.76149 25.3011 4.93301 24.4727 3.91102 24.4727C2.88903 24.4727 2.06055 25.3011 2.06055 26.3231C2.06055 27.3451 2.88903 28.1736 3.91102 28.1736Z" fill="black"/>
<path d="M17.9579 4.20094C18.9799 4.20094 19.8084 3.37246 19.8084 2.35047C19.8084 1.32848 18.9799 0.5 17.9579 0.5C16.9359 0.5 16.1074 1.32848 16.1074 2.35047C16.1074 3.37246 16.9359 4.20094 17.9579 4.20094Z" fill="black"/>
<path d="M32.0887 11.9392C33.1107 11.9392 33.9392 11.1107 33.9392 10.0888C33.9392 9.06677 33.1107 8.23828 32.0887 8.23828C31.0668 8.23828 30.2383 9.06677 30.2383 10.0888C30.2383 11.1107 31.0668 11.9392 32.0887 11.9392Z" fill="black"/>
<path d="M32.0887 28.1736C33.1107 28.1736 33.9392 27.3451 33.9392 26.3231C33.9392 25.3011 33.1107 24.4727 32.0887 24.4727C31.0668 24.4727 30.2383 25.3011 30.2383 26.3231C30.2383 27.3451 31.0668 28.1736 32.0887 28.1736Z" fill="black"/>
<path d="M17.9579 36.4998C18.9799 36.4998 19.8084 35.6713 19.8084 34.6493C19.8084 33.6273 18.9799 32.7988 17.9579 32.7988C16.9359 32.7988 16.1074 33.6273 16.1074 34.6493C16.1074 35.6713 16.9359 36.4998 17.9579 36.4998Z" fill="black"/>
<path d="M3.86914 11.0297V25.2968M32.1309 9.68388L32.0888 25.9015M18 1.77734L17.958 17.995M16.9049 17.5821L5.13252 25.6417M16.9444 2.8212L4.58835 9.95388M17.0285 33.9259L4.67244 26.7932M31.2056 25.7662L19.2617 17.9622M31.4958 10.038L19.1398 2.90537M31.4958 26.625L19.1398 33.7577" stroke="black" stroke-width="0.72" stroke-miterlimit="10"/>
</g>
<defs>
<clipPath id="clip0_1_15960">
<rect width="36" height="36" fill="white" transform="translate(0 0.5)"/>
</clipPath>
</defs>
</svg>
