<svg width="36" height="37" viewBox="0 0 36 37" fill="none" xmlns="http://www.w3.org/2000/svg">
<g clip-path="url(#clip0_1_15880)">
<path d="M18.4343 32.2651C26.3306 32.2651 32.7319 25.8638 32.7319 17.9675C32.7319 10.0712 26.3306 3.66992 18.4343 3.66992C10.538 3.66992 4.13672 10.0712 4.13672 17.9675C4.13672 25.8638 10.538 32.2651 18.4343 32.2651Z" fill="url(#paint0_linear_1_15880)"/>
<path d="M20.2469 16.4298C21.4054 14.9235 21.0414 12.0891 19.6386 11.1198C18.2359 10.1505 16.7587 10.6358 16.473 10.9086C16.1873 11.1815 16.2005 17.5391 16.2005 17.5391C16.2005 17.5391 19.0882 17.9366 20.2469 16.4298ZM20.4618 19.1361C19.3776 18.6643 16.1999 18.7885 16.1999 18.7885C16.1999 18.7885 16.1506 20.3939 16.266 23.3983C16.3814 26.4027 17.4083 26.3863 18.4759 26.4273C19.5434 26.4684 21.5796 26.3942 22.2499 23.8037C22.9202 21.2131 21.5465 19.6082 20.4618 19.1366" fill="black"/>
<path d="M18 0.5C8.05896 0.5 0 8.55896 0 18.5C0 28.441 8.05896 36.5 18 36.5C27.941 36.5 36 28.4412 36 18.5C36 8.55878 27.9412 0.5 18 0.5ZM25.3114 13.4553C25.3609 16.4595 22.7416 17.3037 22.7416 17.3037C22.7416 17.3037 23.8091 16.272 23.7595 13.6294C23.7098 10.9868 21.7237 9.68162 21.7237 9.68162C21.7237 9.68162 25.2619 10.4511 25.3114 13.4553ZM13.5347 27.5698L9.90972 27.7437V27.4127C9.90972 27.4127 12.1279 27.1891 12.1279 23.2995V13.3599C12.1279 10.0659 9.90972 9.49496 9.90972 9.49496V9.19724L13.5347 9.37076V27.5698ZM19.3279 27.756C17.7512 27.7686 14.8255 27.5533 14.8255 27.5533V9.39596C16.754 9.37094 17.4285 9.1103 19.0174 9.33368C20.6062 9.55706 21.9721 11.109 22.3445 12.6608C22.7169 14.2126 22.3198 15.6898 21.8104 16.4966C21.301 17.3034 20.1843 17.8624 20.1843 17.8624C20.1843 17.8624 21.8727 18.4334 22.4689 18.9298C23.065 19.4263 24.2192 20.7795 23.7722 23.7218C23.3253 26.6641 20.9043 27.7437 19.3277 27.756M23.5177 27.086C23.5177 27.086 25.2367 25.621 25.1611 22.6506C25.0855 19.6803 23.5177 18.284 23.5177 18.284C23.5177 18.284 26.7512 19.0787 26.7883 22.6166C26.8254 26.1545 23.5177 27.086 23.5177 27.086Z" fill="black"/>
</g>
<defs>
<linearGradient id="paint0_linear_1_15880" x1="11.5968" y1="8.31482" x2="25.3683" y2="27.7568" gradientUnits="userSpaceOnUse">
<stop stop-color="#DEB354"/>
<stop offset="1" stop-color="#C89550"/>
</linearGradient>
<clipPath id="clip0_1_15880">
<rect width="36" height="36" fill="white" transform="translate(0 0.5)"/>
</clipPath>
</defs>
</svg>
