<svg width="36" height="37" viewBox="0 0 36 37" fill="none" xmlns="http://www.w3.org/2000/svg">
<path d="M35.8204 18.501L27.0173 33.8262H9.55371L18.4757 18.507L9.76755 3.17578L26.9648 3.21725L35.8204 18.501ZM18.5552 8.29232C18.5552 8.29232 22.4492 15.1051 24.3808 18.4847C22.4317 21.8825 20.4894 25.2685 18.5297 28.6847C20.3828 28.6847 22.1963 28.6847 24.0133 28.6847C25.9974 25.2754 27.9797 21.8689 29.9643 18.4586C27.9586 15.0536 23.976 8.29239 23.976 8.29239L18.5552 8.29232Z" fill="#101341"/>
<path d="M8.18515 4.54492L11.0913 9.74015L6.10824 18.3981L11.013 27.0233L8.06534 32.0829L0.179688 18.4278L8.18515 4.54492Z" fill="#8F8886"/>
</svg>
