<svg width="36" height="37" viewBox="0 0 36 37" fill="none" xmlns="http://www.w3.org/2000/svg">
<g clip-path="url(#clip0_1_15648)">
<path d="M35.7194 18.5142C35.7194 19.0398 31.349 23.9718 26.8922 23.9718C23.8754 23.9718 21.4346 21.531 21.4346 18.5142C21.4346 15.4974 23.8754 13.0566 26.8922 13.0566C31.1042 13.0566 35.7266 17.931 35.7194 18.5142Z" fill="#6066F1"/>
<path d="M17.9713 0.824219C18.4969 0.824219 23.4289 5.19462 23.4289 9.65142C23.4289 12.6682 20.9881 15.109 17.9713 15.109C14.9545 15.109 12.5137 12.6682 12.5137 9.65142C12.5137 5.43942 17.3881 0.824219 17.9713 0.824219Z" fill="#6066F1"/>
<path d="M0.273446 18.5279C0.273446 18.0023 4.64385 13.0703 9.10065 13.0703C12.1174 13.0703 14.5582 15.5111 14.5582 18.5279C14.5582 21.5447 12.1174 23.9855 9.10065 23.9855C4.88865 23.9855 0.266246 19.1111 0.273446 18.5279Z" fill="#6066F1"/>
<path d="M18.0221 36.2184C17.4965 36.2184 12.5645 31.848 12.5645 27.3912C12.5645 24.3744 15.0053 21.9336 18.0221 21.9336C21.0389 21.9336 23.4797 24.3744 23.4797 27.3912C23.4797 31.6032 18.6053 36.2184 18.0221 36.2184Z" fill="#6066F1"/>
</g>
<defs>
<clipPath id="clip0_1_15648">
<rect width="36" height="36" fill="white" transform="translate(0 0.5)"/>
</clipPath>
</defs>
</svg>
