<svg width="36" height="37" viewBox="0 0 36 37" fill="none" xmlns="http://www.w3.org/2000/svg">
<g clip-path="url(#clip0_1_15852)">
<path d="M32.9324 14.2739C32.9324 15.8867 32.882 17.5067 32.9396 19.1123C33.0764 22.6403 31.9028 25.7147 29.8652 28.5371C28.3244 30.6683 26.3156 32.2451 24.0908 33.5771C22.334 34.6283 20.4836 35.4995 18.5612 36.2051C18.23 36.3275 17.942 36.3347 17.5964 36.2051C14.5724 35.0603 11.6996 33.6491 9.19396 31.5899C6.25636 29.1635 4.26916 26.1179 3.45556 22.3667C3.28276 21.5747 3.22516 20.7539 3.21796 19.9403C3.19636 16.0595 3.21076 12.1715 3.21076 8.29066C3.21076 8.11786 3.21796 7.93786 3.23956 7.76506C3.41236 6.46906 3.97396 5.88586 5.26996 5.64826C6.73156 5.38906 8.20756 5.18746 9.64756 4.85626C11.8076 4.35946 13.8956 3.64666 15.7316 2.37226C16.3148 1.96186 16.8476 1.47226 17.3804 0.989856C17.8844 0.543456 18.3236 0.500256 18.8132 0.975456C20.3324 2.43706 22.1612 3.35866 24.1052 4.07866C26.1356 4.82026 28.2236 5.26666 30.3476 5.56186C30.5708 5.59066 30.794 5.62666 31.01 5.66986C32.2772 5.94346 32.8748 6.64186 32.9252 7.93786C32.9468 8.51386 32.9324 9.08986 32.9324 9.66586C32.9324 11.2067 32.9324 12.7403 32.9324 14.2739ZM12.3188 11.2715C12.3188 11.5379 12.3188 11.7395 12.3188 11.9411C12.3188 15.5843 12.3188 19.2275 12.3188 22.8707C12.3188 23.4323 12.326 23.9867 12.3116 24.5483C12.2972 25.1171 12.0884 25.3475 11.5124 25.4267C11.2172 25.4699 10.922 25.5131 10.6124 25.5563C10.6124 26.3195 10.6124 27.0395 10.6124 27.7883C10.7996 27.8027 10.9436 27.8243 11.0876 27.8243C13.838 27.8243 16.5812 27.8315 19.3316 27.8171C20.3612 27.8099 21.3692 27.6227 22.3412 27.2915C23.2916 26.9675 24.134 26.4635 24.7892 25.6787C25.7036 24.5843 25.9628 23.2955 25.934 21.9203C25.898 19.9259 24.7964 18.4067 22.9028 17.7659C22.766 17.7155 22.6292 17.6507 22.4204 17.5643C22.6004 17.4347 22.694 17.3627 22.802 17.2979C24.2996 16.3403 25.0628 15.0011 24.962 13.2011C24.854 11.3363 24.0044 9.99706 22.2116 9.31306C21.146 8.90266 20.0444 8.78026 18.9212 8.76586C16.3652 8.74426 13.8092 8.75866 11.2532 8.75866C11.0804 8.75866 10.9148 8.78026 10.7132 8.79466C10.7132 9.60826 10.7132 10.3787 10.7132 11.1923C11.2676 11.2067 11.7644 11.2355 12.3188 11.2715Z" fill="url(#paint0_linear_1_15852)"/>
<path d="M12.319 11.2721C11.7646 11.2361 11.2606 11.2073 10.7278 11.1785C10.7278 10.3649 10.7278 9.59454 10.7278 8.78094C10.9222 8.76654 11.095 8.74494 11.2678 8.74494C13.8238 8.74494 16.3798 8.73054 18.9358 8.75214C20.0518 8.75934 21.1606 8.88894 22.2262 9.29934C24.0118 9.99054 24.8614 11.3225 24.9766 13.1873C25.0846 14.9873 24.3142 16.3337 22.8166 17.2841C22.7158 17.3489 22.615 17.4281 22.435 17.5505C22.6438 17.6369 22.7734 17.7089 22.9174 17.7521C24.8038 18.3929 25.9126 19.9193 25.9486 21.9065C25.9702 23.2889 25.7182 24.5777 24.8038 25.6649C24.1486 26.4497 23.3062 26.9465 22.3558 27.2777C21.3838 27.6161 20.3758 27.7961 19.3462 27.8033C16.5958 27.8177 13.8526 27.8105 11.1022 27.8105C10.9582 27.8105 10.8214 27.7889 10.627 27.7745C10.627 27.0329 10.627 26.3057 10.627 25.5425C10.9294 25.4993 11.2318 25.4561 11.527 25.4129C12.0958 25.3265 12.3118 25.1033 12.3262 24.5345C12.3406 23.9729 12.3334 23.4185 12.3334 22.8569C12.3334 19.2137 12.3334 15.5705 12.3334 11.9273C12.319 11.7401 12.319 11.5385 12.319 11.2721ZM15.8614 25.1897C17.2078 25.1393 18.511 25.0961 19.8142 25.0457C19.879 25.0457 19.9366 25.0241 20.0014 25.0097C21.8446 24.5489 22.7518 22.8497 22.111 21.0425C21.6934 19.8545 20.7358 19.3361 19.5838 19.2137C18.5254 19.1057 17.4526 19.1417 16.3798 19.1201C16.2142 19.1201 16.0414 19.1633 15.8614 19.1849C15.8614 21.1793 15.8614 23.1233 15.8614 25.1897ZM15.883 16.6001C16.459 16.6001 16.9702 16.6217 17.4814 16.5929C18.1654 16.5497 18.8566 16.5425 19.519 16.3913C20.8078 16.0961 21.4846 15.0665 21.4414 13.6265C21.4054 12.4241 20.7862 11.6969 19.3894 11.5241C18.2734 11.3873 17.1358 11.4521 16.0054 11.4305C15.9766 11.4305 15.955 11.4593 15.8902 11.5025C15.883 13.1585 15.883 14.8361 15.883 16.6001Z" fill="white"/>
<path d="M15.8613 25.1881C15.8613 23.1217 15.8613 21.1777 15.8613 19.1905C16.0485 19.1689 16.2141 19.1185 16.3797 19.1257C17.4453 19.1473 18.5181 19.1113 19.5837 19.2193C20.7357 19.3417 21.6933 19.8529 22.1109 21.0481C22.7517 22.8553 21.8445 24.5545 20.0013 25.0153C19.9365 25.0297 19.8789 25.0513 19.8141 25.0513C18.5109 25.0873 17.2077 25.1377 15.8613 25.1881Z" fill="url(#paint1_linear_1_15852)"/>
<path d="M15.8828 16.5993C15.8828 14.8353 15.8828 13.1577 15.8828 11.5017C15.9476 11.4585 15.9764 11.4297 15.998 11.4297C17.1284 11.4513 18.266 11.3865 19.382 11.5233C20.7788 11.6961 21.398 12.4233 21.434 13.6257C21.4772 15.0657 20.8004 16.0953 19.5116 16.3905C18.8492 16.5417 18.158 16.5489 17.474 16.5921C16.97 16.6209 16.4588 16.5993 15.8828 16.5993Z" fill="url(#paint2_linear_1_15852)"/>
</g>
<defs>
<linearGradient id="paint0_linear_1_15852" x1="18.0808" y1="36.1459" x2="18.0808" y2="1.47561" gradientUnits="userSpaceOnUse">
<stop stop-color="#0086FF"/>
<stop offset="1" stop-color="#0EACFC"/>
</linearGradient>
<linearGradient id="paint1_linear_1_15852" x1="19.0892" y1="36.1449" x2="19.0892" y2="1.47466" gradientUnits="userSpaceOnUse">
<stop stop-color="#0086FF"/>
<stop offset="1" stop-color="#0EACFC"/>
</linearGradient>
<linearGradient id="paint2_linear_1_15852" x1="18.6586" y1="36.1457" x2="18.6586" y2="1.47544" gradientUnits="userSpaceOnUse">
<stop stop-color="#0086FF"/>
<stop offset="1" stop-color="#0EACFC"/>
</linearGradient>
<clipPath id="clip0_1_15852">
<rect width="36" height="36" fill="white" transform="translate(0 0.5)"/>
</clipPath>
</defs>
</svg>
