<svg width="36" height="38" viewBox="0 0 36 38" fill="none" xmlns="http://www.w3.org/2000/svg">
<g clip-path="url(#clip0_1_15950)">
<path d="M5.46981 26.9687C6.69968 25.7388 8.68933 25.7388 9.9192 26.9687C11.1491 28.1985 11.1491 30.1882 9.9192 31.4181C8.68933 32.6479 6.70515 32.6534 5.47528 31.4235C4.24542 30.1937 4.23995 28.1985 5.46981 26.9687Z" fill="#FDBA4D"/>
<path d="M26.9698 6.56437C28.1997 5.33451 30.1893 5.3345 31.4192 6.56437C32.6491 7.79423 32.6491 9.78389 31.4192 11.0138C30.1893 12.2436 28.1997 12.2436 26.9698 11.0138C25.7509 9.78388 25.7454 7.78878 26.9698 6.56437Z" fill="#FDBA4D"/>
<path d="M9.50645 24.5504L12.8244 27.8683L15.8635 24.8292C15.1365 24.5395 14.4587 24.1022 13.8629 23.5064C13.278 22.9215 12.8353 22.2382 12.5401 21.5058L9.50645 24.5504Z" fill="#FDBA4D"/>
<path d="M24.4165 16.437L27.4557 13.3979L24.1378 10.08L21.0986 13.1191C21.8256 13.4088 22.5034 13.8461 23.0992 14.4419C23.6895 15.0323 24.1268 15.7101 24.4165 16.437Z" fill="#FDBA4D"/>
<path d="M26.8642 31.262C25.6343 30.0321 25.6343 28.0424 26.8642 26.8126C28.094 25.5827 30.0837 25.5827 31.3136 26.8126C32.5434 28.0424 32.5434 30.0321 31.3136 31.262C30.0892 32.4864 28.0886 32.4864 26.8642 31.262Z" fill="#5DA9DD"/>
<path d="M5.79093 10.7288C4.56107 9.4989 4.56107 7.50925 5.79093 6.27938C7.0208 5.04952 9.01045 5.04952 10.2403 6.27938C11.4702 7.50925 11.4702 9.4989 10.2403 10.7288C9.01045 11.9586 7.0208 11.9586 5.79093 10.7288Z" fill="#5DA9DD"/>
<path d="M23.8872 27.7399L27.2051 24.4219L24.166 21.3828C23.8763 22.1098 23.439 22.7876 22.8432 23.3834C22.2584 23.9683 21.5751 24.411 20.8426 24.7062L23.8872 27.7399Z" fill="#5DA9DD"/>
<path d="M16.1153 12.9473L13.0762 9.9082L9.75827 13.2261L12.7974 16.2652C13.0871 15.5382 13.5244 14.8605 14.1202 14.2647C14.7051 13.6798 15.3883 13.237 16.1153 12.9473Z" fill="#5DA9DD"/>
<path d="M21.6693 4.07002C21.6693 5.80931 20.2624 7.21621 18.5231 7.21621C16.7839 7.21621 15.377 5.80931 15.377 4.07002C15.377 2.33073 16.7839 0.923828 18.5231 0.923828C20.2624 0.923828 21.6693 2.33073 21.6693 4.07002Z" fill="#18568C"/>
<path d="M21.6693 34.1208C21.6693 35.8601 20.2624 37.267 18.5231 37.267C16.7839 37.267 15.377 35.8601 15.377 34.1208C15.377 32.3815 16.7839 30.9746 18.5231 30.9746C20.2624 30.9746 21.6693 32.3815 21.6693 34.1208Z" fill="#18568C"/>
<path d="M19.6684 8.86328H17.6895V12.7593C18.0141 12.7052 18.3388 12.6743 18.6789 12.6743C19.019 12.6743 19.3437 12.7052 19.6684 12.7593V8.86328Z" fill="#18568C"/>
<path d="M19.6684 25.6035C19.3437 25.6576 19.019 25.6885 18.6789 25.6885C18.3388 25.6885 18.0141 25.6576 17.6895 25.6035V29.4995H19.6684V25.6035Z" fill="#18568C"/>
<path d="M32.4397 21.3861C30.7005 21.3861 29.2936 19.9792 29.2936 18.2399C29.2936 16.5007 30.7005 15.0938 32.4397 15.0938C34.179 15.0938 35.5859 16.5007 35.5859 18.2399C35.5859 19.9792 34.179 21.3861 32.4397 21.3861Z" fill="#18578C"/>
<path d="M3.55693 21.9193C1.81764 21.9193 0.410742 20.5124 0.410742 18.7731C0.410742 17.0339 1.81764 15.627 3.55693 15.627C5.29622 15.627 6.70312 17.0339 6.70312 18.7731C6.70312 20.5124 5.29622 21.9193 3.55693 21.9193Z" fill="#18578C"/>
<path d="M24.4389 19.7621H28.335V17.7832H24.4389C24.493 18.1079 24.524 18.4325 24.524 18.7727C24.524 19.1128 24.4931 19.4375 24.4389 19.7621Z" fill="#18578C"/>
<path d="M12.3359 19.7621C12.2818 19.4375 12.2509 19.1128 12.2509 18.7727C12.2509 18.4325 12.2818 18.1079 12.3359 17.7832H8.43992V19.7621H12.3359Z" fill="#18578C"/>
<path d="M22.8894 19.0033C22.8894 21.4615 20.895 23.4636 18.4291 23.4636C15.9632 23.4636 13.9688 21.4692 13.9688 19.0033C13.9688 16.5374 15.9631 14.543 18.4291 14.543C20.895 14.543 22.8894 16.5451 22.8894 19.0033Z" fill="#18568B"/>
</g>
<defs>
<clipPath id="clip0_1_15950">
<rect width="36" height="37.1901" fill="white" transform="translate(0 0.5)"/>
</clipPath>
</defs>
</svg>
