<svg width="36" height="37" viewBox="0 0 36 37" fill="none" xmlns="http://www.w3.org/2000/svg">
<g clip-path="url(#clip0_1_15821)">
<path d="M18 0.5C27.9418 0.5 36 8.55817 36 18.5C36 28.4418 27.9418 36.5 18 36.5C8.05817 36.5 0 28.4418 0 18.5C0 8.55817 8.05817 0.5 18 0.5Z" fill="#F0B90B"/>
<path d="M9.8924 18.4993L9.90538 23.2589L13.9496 25.6387V28.4252L7.53855 24.6651V17.1075L9.8924 18.4993ZM9.8924 13.7397V16.5132L7.53711 15.12V12.3464L9.8924 10.9531L12.2592 12.3464L9.8924 13.7397ZM15.6386 12.3464L17.9938 10.9531L20.3607 12.3464L17.9938 13.7397L15.6386 12.3464Z" fill="white"/>
<path d="M11.5947 22.2724V19.4858L13.95 20.8791V23.6526L11.5947 22.2724ZM15.639 26.6368L17.9942 28.03L20.3611 26.6368V29.4103L17.9942 30.8036L15.639 29.4103V26.6368ZM23.739 12.3464L26.0942 10.9531L28.4611 12.3464V15.12L26.0942 16.5132V13.7397L23.739 12.3464ZM26.0942 23.2589L26.1072 18.4993L28.4625 17.106V24.6637L22.0515 28.4238V25.6373L26.0942 23.2589Z" fill="white"/>
<path d="M24.4051 22.2729L22.0498 23.6532V20.8796L24.4051 19.4863V22.2729Z" fill="white"/>
<path d="M24.4053 14.7266L24.4183 17.5131L20.3625 19.8929V24.6641L18.0072 26.0444L15.6519 24.6641V19.8929L11.5962 17.5131V14.7266L13.9616 13.3333L17.9928 15.7246L22.0486 13.3333L24.4154 14.7266H24.4053ZM11.5947 9.96839L17.9942 6.19531L24.4053 9.96839L22.05 11.3617L17.9942 8.97031L13.95 11.3617L11.5947 9.96839Z" fill="white"/>
</g>
<defs>
<clipPath id="clip0_1_15821">
<rect width="36" height="36" fill="white" transform="translate(0 0.5)"/>
</clipPath>
</defs>
</svg>
