<svg width="36" height="37" viewBox="0 0 36 37" fill="none" xmlns="http://www.w3.org/2000/svg">
<path d="M29.2802 19.476C29.2802 20.1872 29.2802 20.825 29.2802 21.4628C29.2804 23.9747 29.2907 26.4867 29.2642 28.9983C29.2616 29.2395 29.0926 29.5868 28.8945 29.7021C25.4102 31.7307 21.9094 33.731 18.4115 35.7361C18.3572 35.7673 18.2934 35.7819 18.1533 35.8347C18.1361 35.6298 18.1086 35.4541 18.1085 35.2783C18.106 32.3156 18.0972 29.3527 18.1236 26.3902C18.126 26.1272 18.2919 25.7448 18.5013 25.6226C21.9835 23.5908 25.4847 21.5915 28.9825 19.5864C29.0366 19.5554 29.1007 19.5417 29.2802 19.476ZM15.6 35.9087C14.1784 35.0987 12.8772 34.361 11.5797 33.617C10.1832 32.8161 8.78362 32.0204 7.40352 31.1923C7.20898 31.0756 6.9973 30.7887 6.99557 30.5791C6.97073 27.4644 6.9798 24.3494 6.98268 21.2345C6.98275 21.1753 7.00514 21.1162 7.02883 20.9993C7.23569 21.102 7.4249 21.1842 7.60282 21.2862C10.098 22.716 12.5956 24.1416 15.079 25.5916C15.3009 25.7212 15.5757 26.0106 15.5779 26.2283C15.6101 29.4048 15.6 32.5817 15.6 35.9087ZM18.1065 23.2471C18.1065 22.2214 18.1066 21.3248 18.1065 20.4282C18.1064 18.2589 18.0948 16.0896 18.1216 13.9207C18.1246 13.6732 18.2756 13.3141 18.4709 13.1997C21.1375 11.6387 23.824 10.1116 26.5063 8.57753C26.5401 8.55823 26.5845 8.55759 26.6817 8.53455C26.6953 8.72268 26.7193 8.90146 26.7195 9.08023C26.7214 11.9583 26.7126 14.8363 26.7283 17.7143C26.7307 18.144 26.6258 18.3973 26.2212 18.6243C23.7325 20.0205 21.2649 21.4542 18.7897 22.8745C18.6063 22.9797 18.4185 23.0773 18.1065 23.2471ZM15.5996 23.2107C15.4063 23.1317 15.306 23.1032 15.2181 23.0528C12.5919 21.5483 9.96362 20.0473 7.34916 18.5226C7.17175 18.4191 6.9955 18.136 6.99406 17.9352C6.97174 14.8205 6.9785 11.7055 6.9785 8.53512C7.12236 8.58084 7.24174 8.59733 7.33886 8.65284C9.948 10.144 12.5584 11.633 15.1548 13.1461C15.3553 13.263 15.579 13.5538 15.5808 13.7656C15.6081 16.8798 15.5996 19.9943 15.5996 23.2107ZM8.29495 5.87875C11.1156 4.26077 13.8465 2.69009 16.5864 1.13532C16.7204 1.05929 16.9715 1.05533 17.1039 1.13057C19.8257 2.67648 22.5382 4.23867 25.2511 5.80013C25.2808 5.81719 25.2913 5.86767 25.335 5.94586C25.1831 6.04579 25.0339 6.15559 24.8745 6.24711C22.3455 7.69812 19.8186 9.15281 17.2788 10.5845C17.0792 10.697 16.7258 10.7541 16.547 10.6536C13.8748 9.15101 11.2199 7.61777 8.56186 6.09007C8.49317 6.05055 8.43593 5.99136 8.29495 5.87875Z" fill="#0B102A"/>
</svg>
