<svg width="36" height="37" viewBox="0 0 36 37" fill="none" xmlns="http://www.w3.org/2000/svg">
<g clip-path="url(#clip0_1_15490)">
<path d="M18 36.5C27.9432 36.5 36 28.4432 36 18.5C36 8.5568 27.9432 0.5 18 0.5C8.0568 0.5 0 8.5568 0 18.5C0 28.4432 8.0568 36.5 18 36.5Z" fill="#1940B0"/>
<path fill-rule="evenodd" clip-rule="evenodd" d="M18.1011 4.07031L30.6075 11.4719V14.6903L24.3939 18.4271L30.6075 22.1351V25.6415L18.7203 32.8415L15.3003 30.7895V23.8991L9.35308 27.4775L5.84668 25.3823V11.4503L9.25948 9.39831L15.3075 13.0055V5.76231L18.1011 4.07031ZM15.3075 16.6487L9.26668 13.0487L8.97868 13.2215V23.6039L9.35308 23.8271L15.3075 20.2415V16.6487ZM18.4323 22.0127L21.3555 20.2559L27.4539 23.8919L18.7131 29.1911L18.4323 29.0255V22.0127ZM21.3483 16.6055L18.4323 14.8703V7.90791L27.1947 13.0919L21.3483 16.6055Z" fill="white"/>
</g>
<defs>
<clipPath id="clip0_1_15490">
<rect width="36" height="36" fill="white" transform="translate(0 0.5)"/>
</clipPath>
</defs>
</svg>
