<svg width="36" height="37" viewBox="0 0 36 37" fill="none" xmlns="http://www.w3.org/2000/svg">
<g clip-path="url(#clip0_1_15803)">
<path d="M18.036 36.0897C8.37364 36.0897 0.540039 28.2561 0.540039 18.5937V7.32566C0.540039 3.88406 3.32644 1.09766 6.76804 1.09766H18.036C27.6984 1.09766 35.532 8.93126 35.532 18.5937C35.532 28.2561 27.6984 36.0897 18.036 36.0897Z" fill="url(#paint0_linear_1_15803)"/>
<path d="M18.1659 29.3582C16.0347 29.3582 13.8459 28.6526 11.9955 27.371C10.3035 26.1974 9.00749 24.6206 8.44589 23.051C8.11469 22.115 8.59709 21.0854 9.53309 20.7542C10.4691 20.423 11.4987 20.9054 11.8299 21.8414C12.4059 23.447 14.9835 25.7654 18.1587 25.7654C20.9307 25.7654 24.7755 23.555 24.7755 19.3934C24.7755 17.1974 24.0843 15.311 22.8315 14.0726C21.6507 12.9062 19.9659 12.3014 17.9427 12.323C13.6947 12.3662 11.8587 16.5278 11.7867 16.7078C11.4555 17.4998 10.6131 17.9462 9.77789 17.7734C8.93549 17.6078 8.33789 16.8662 8.33789 16.0094V8.27656C8.33789 7.28296 9.14429 6.47656 10.1379 6.47656C11.1315 6.47656 11.9379 7.28296 11.9379 8.27656V10.847C13.3995 9.68776 15.3651 8.75176 17.9211 8.72296C20.9163 8.68696 23.5011 9.65896 25.3731 11.5166C27.3099 13.439 28.3827 16.2326 28.3827 19.3934C28.3827 22.2446 27.1875 24.851 25.0059 26.7374C23.0835 28.4006 20.5923 29.3582 18.1659 29.3582Z" fill="white"/>
<path d="M18.0506 21.7184C19.5418 21.7184 20.7506 20.5095 20.7506 19.0184C20.7506 17.5272 19.5418 16.3184 18.0506 16.3184C16.5594 16.3184 15.3506 17.5272 15.3506 19.0184C15.3506 20.5095 16.5594 21.7184 18.0506 21.7184Z" fill="white"/>
</g>
<defs>
<linearGradient id="paint0_linear_1_15803" x1="2.41899" y1="2.86532" x2="34.8709" y2="35.5406" gradientUnits="userSpaceOnUse">
<stop stop-color="#945BF7"/>
<stop offset="0.503" stop-color="#009BFF"/>
<stop offset="1" stop-color="#00E0DE"/>
</linearGradient>
<clipPath id="clip0_1_15803">
<rect width="36" height="36" fill="white" transform="translate(0 0.5)"/>
</clipPath>
</defs>
</svg>
