<svg width="36" height="37" viewBox="0 0 36 37" fill="none" xmlns="http://www.w3.org/2000/svg">
<g clip-path="url(#clip0_1_15802)">
<path d="M18.0075 36.3841C27.881 36.3841 35.8851 28.38 35.8851 18.5065C35.8851 8.63298 27.881 0.628906 18.0075 0.628906C8.13396 0.628906 0.129883 8.63298 0.129883 18.5065C0.129883 28.38 8.13396 36.3841 18.0075 36.3841Z" fill="url(#paint0_linear_1_15802)"/>
<path d="M27.6552 12.2724L18.7488 7.28999C18.5472 7.17479 18.3168 7.11719 18.0936 7.11719C17.8704 7.11719 17.64 7.17479 17.4384 7.28999L8.53202 12.2724C8.10722 12.51 7.84082 12.9636 7.84082 13.446V23.3388C7.84082 23.8284 8.10722 24.2748 8.53202 24.5124L17.4384 29.4948C17.64 29.61 17.8704 29.6676 18.0936 29.6676C18.3168 29.6676 18.5472 29.61 18.7488 29.4948L27.6552 24.5124C28.08 24.2748 28.3464 23.8212 28.3464 23.3388V13.446C28.3392 12.9564 28.08 12.51 27.6552 12.2724ZM17.9424 18.5868L12.9888 15.9084L18.0648 13.2084L23.0904 15.8868L17.9424 18.5868ZM12.78 16.9812L17.4168 19.4868V23.9652L12.78 21.4956V16.9812ZM18.4608 19.494L23.3352 16.9308V21.4956L18.4608 24.0948V19.494ZM24.3792 16.3836L27.1512 14.9292V22.1148L24.3792 20.538V16.3836ZM9.10802 13.3092L18.0144 8.32679C18.036 8.31239 18.0648 8.30519 18.0936 8.30519C18.1224 8.30519 18.144 8.31239 18.1728 8.32679L27.072 13.3092C27.1224 13.338 27.1512 13.3884 27.1512 13.446V13.7484L24.156 15.3252C24.0984 15.2604 24.0264 15.21 23.9472 15.1668L18.4392 12.2292C18.3168 12.1644 18.1872 12.1356 18.0576 12.1356C17.928 12.1356 17.7984 12.1644 17.676 12.2292L12.168 15.1668C11.9016 15.3108 11.736 15.5844 11.736 15.8796V20.5596L9.02882 22.0356V13.446C9.02882 13.3884 9.06482 13.338 9.10802 13.3092ZM9.02882 23.346V23.2236L11.7432 21.7476C11.7792 22.0068 11.9304 22.2372 12.168 22.3596L17.4168 25.1532V28.134L9.10802 23.4828C9.06482 23.454 9.02882 23.3964 9.02882 23.346ZM27.072 23.4828L18.4608 28.2996V25.2756L23.9472 22.3524C24.1848 22.2228 24.3432 21.9924 24.372 21.726L27.1368 23.3028L27.1512 23.2812V23.346C27.1512 23.3964 27.1224 23.454 27.072 23.4828Z" fill="white"/>
</g>
<defs>
<linearGradient id="paint0_linear_1_15802" x1="18.0077" y1="36.3833" x2="18.0077" y2="0.630117" gradientUnits="userSpaceOnUse">
<stop stop-color="#EF4425"/>
<stop offset="1" stop-color="#FBB769"/>
</linearGradient>
<clipPath id="clip0_1_15802">
<rect width="36" height="36" fill="white" transform="translate(0 0.5)"/>
</clipPath>
</defs>
</svg>
