<svg width="36" height="37" viewBox="0 0 36 37" fill="none" xmlns="http://www.w3.org/2000/svg">
<g clip-path="url(#clip0_1_15868)">
<path d="M17.9421 9.36328C22.9533 9.36328 27.0213 13.4241 27.0213 18.4425C27.0213 23.4609 22.9605 27.5217 17.9421 27.5217C12.9237 27.5217 8.86292 23.4609 8.86292 18.4425C8.86292 13.4241 12.9237 9.36328 17.9421 9.36328ZM17.9421 4.86328C16.1133 4.86328 14.3349 5.22328 12.6573 5.92888C11.0373 6.61288 9.59012 7.59208 8.34452 8.83768C7.09892 10.0833 6.11972 11.5377 5.43572 13.1505C4.72292 14.8281 4.37012 16.6065 4.37012 18.4353C4.37012 20.2641 4.73012 22.0425 5.43572 23.7201C6.11972 25.3401 7.09892 26.7873 8.34452 28.0329C9.59012 29.2785 11.0445 30.2577 12.6573 30.9417C14.3349 31.6545 16.1133 32.0073 17.9421 32.0073C19.7709 32.0073 21.5493 31.6473 23.2269 30.9417C24.8469 30.2577 26.2941 29.2785 27.5397 28.0329C28.7853 26.7873 29.7645 25.3329 30.4485 23.7201C31.1613 22.0425 31.5141 20.2641 31.5141 18.4353C31.5141 16.6065 31.1541 14.8281 30.4485 13.1505C29.7645 11.5305 28.7853 10.0833 27.5397 8.83768C26.2941 7.59208 24.8397 6.61288 23.2269 5.92888C21.5493 5.22328 19.7709 4.86328 17.9421 4.86328Z" fill="#0189FB"/>
<path d="M17.942 2.10517C26.9564 2.10517 34.2716 9.42037 34.2716 18.442C34.2716 27.4636 26.9564 34.7716 17.942 34.7716C8.92757 34.7716 1.60517 27.4564 1.60517 18.442C1.60517 9.42757 8.92037 2.10517 17.942 2.10517ZM17.942 0.701172C15.5516 0.701172 13.226 1.16917 11.0372 2.09797C8.92037 2.99077 7.02677 4.26517 5.39957 5.89957C3.77237 7.53397 2.49077 9.42757 1.59797 11.5372C0.669172 13.7188 0.201172 16.0444 0.201172 18.442C0.201172 20.8396 0.669172 23.158 1.59797 25.3468C2.49077 27.4564 3.77237 29.3572 5.39957 30.9844C7.02677 32.6116 8.92757 33.8932 11.0372 34.786C13.226 35.7148 15.5444 36.1828 17.942 36.1828C20.3396 36.1828 22.658 35.7148 24.8468 34.786C26.9564 33.8932 28.8572 32.6116 30.4844 30.9844C32.1116 29.3572 33.3932 27.4564 34.286 25.3468C35.2148 23.158 35.6828 20.8396 35.6828 18.442C35.6828 16.0444 35.2148 13.726 34.286 11.5372C33.386 9.42037 32.1116 7.52677 30.4772 5.89957C28.85 4.27237 26.9492 2.99077 24.8396 2.09797C22.658 1.16917 20.3324 0.701172 17.942 0.701172Z" fill="#016DC4"/>
</g>
<defs>
<clipPath id="clip0_1_15868">
<rect width="36" height="36" fill="white" transform="translate(0 0.5)"/>
</clipPath>
</defs>
</svg>
