<svg width="36" height="37" viewBox="0 0 36 37" fill="none" xmlns="http://www.w3.org/2000/svg">
<path d="M35.3611 18.4952C35.45 27.9818 27.5108 36.075 17.5377 35.7985C8.52961 35.5489 0.530915 28.0058 0.799547 17.9518C1.03225 9.24128 8.3607 0.803675 18.9459 1.23668C27.6018 1.59078 35.3748 8.79164 35.3611 18.4952ZM22.7099 18.3674C22.9924 18.2691 23.2447 18.1725 23.5024 18.0932C24.9357 17.652 26.0226 16.5308 25.9635 14.6948C25.9049 12.8766 24.755 11.7346 23.2323 11.2642C21.7769 10.8146 20.2565 10.7878 18.7547 10.7571C16.2369 10.7055 13.7173 10.7462 11.1985 10.7463C10.3748 10.7463 9.96328 11.1572 9.96328 11.9906C9.96313 16.3663 9.96364 20.7421 9.96356 25.1179C9.96356 25.8611 10.4062 26.2782 11.1952 26.2741C13.8423 26.2603 16.4894 26.2567 19.1363 26.2275C20.5155 26.2123 21.8909 26.1107 23.2146 25.6797C24.8293 25.154 25.9751 24.202 26.1798 22.3878C26.3631 20.7619 25.7359 19.5671 24.2576 18.8966C23.7791 18.6797 23.2602 18.5524 22.7099 18.3674ZM19.5062 22.9304C20.0372 22.9183 20.5792 22.7732 21.0891 22.6061C21.613 22.4345 21.8053 21.976 21.7952 21.4458C21.7855 20.9355 21.6037 20.4753 21.0884 20.3255C20.5036 20.1555 19.8915 20.0272 19.2852 19.9952C18.2804 19.9422 17.2706 19.9838 16.263 19.9794C15.729 19.9771 15.4949 19.7511 15.4878 19.2261C15.4806 18.6937 15.4836 18.1609 15.4932 17.6286C15.5031 17.0855 15.7163 16.8748 16.2577 16.8721C17.1934 16.8675 18.1297 16.8903 19.0645 16.8631C19.5788 16.8481 20.0989 16.7926 20.6019 16.687C21.2466 16.5517 21.5607 16.1243 21.5744 15.4922C21.587 14.9145 21.3105 14.5212 20.6895 14.3346C20.3095 14.2204 19.9085 14.1242 19.5149 14.1163C17.9468 14.0847 16.378 14.0909 14.8095 14.0834C14.6127 14.0825 14.416 14.0833 14.194 14.0833C14.194 17.0701 14.194 20.0007 14.194 22.9455C16.0003 22.9453 17.754 22.9701 19.5062 22.9304Z" fill="url(#paint0_linear_1_15770)"/>
<defs>
<linearGradient id="paint0_linear_1_15770" x1="0.792966" y1="18.513" x2="35.3618" y2="18.513" gradientUnits="userSpaceOnUse">
<stop stop-color="#F8A438"/>
<stop offset="0.9995" stop-color="#FE4F92"/>
</linearGradient>
</defs>
</svg>
