<svg width="36" height="37" viewBox="0 0 36 37" fill="none" xmlns="http://www.w3.org/2000/svg">
<g clip-path="url(#clip0_1_15800)">
<path d="M31.9383 13.5409C31.8217 13.7029 31.6957 13.8584 31.574 14.0161C31.7453 14.8729 32.0017 15.7095 32.1183 16.5807C32.4913 19.3801 32.0866 22.0571 30.8813 24.608C29.6516 27.2108 27.7889 29.2477 25.3294 30.7417C25.2149 30.8108 25.1098 30.8951 24.9997 30.9728C24.9838 31.0326 24.9572 31.083 24.8859 31.0873C24.8103 31.4581 24.5072 31.6806 24.2725 31.9196C23.4711 32.7347 22.5509 33.3675 21.512 33.8903C19.6033 34.85 17.5333 35.2136 15.5101 35.763C15.0838 35.8789 14.6432 35.9451 14.2256 36.0906C15.4431 36.3505 16.7053 36.488 17.9998 36.488C27.9409 36.488 35.9998 28.4291 35.9998 18.488C35.9998 15.7383 35.3828 13.1341 34.2805 10.8027C33.3956 11.625 32.6432 12.5624 31.9383 13.5409Z" fill="#2BCDFE"/>
<path d="M3.77208 19.6209C3.6864 18.0822 3.8016 16.563 4.17384 15.0633C4.66344 13.0883 5.5512 11.3121 6.7968 9.71081C7.80696 8.41265 9.02736 7.34705 10.4069 6.45713C10.5854 6.34193 10.8151 6.28577 10.9166 6.06689C11.3947 5.07113 11.9642 4.12577 12.5316 3.18113C12.9938 2.41145 13.5137 1.67561 14.0155 0.929688C5.99184 2.74337 0 9.91529 0 18.4869C0 19.6792 0.11736 20.8449 0.3384 21.9724C1.49832 21.4166 2.54448 20.6922 3.48192 19.8088C3.5676 19.7282 3.64824 19.6418 3.77208 19.6209Z" fill="#DA0C9B"/>
<path d="M10.917 6.06705C11.3476 6.01161 11.6759 5.72505 12.0589 5.56089C16.6662 3.58449 21.1324 3.85233 25.4639 6.37737C25.5359 6.41913 25.6144 6.44865 25.69 6.48393C26.4064 5.85393 27.2444 5.39817 28.0249 4.86033C28.3417 4.64217 28.6722 4.44273 28.9991 4.23897C25.9571 1.88673 22.1418 0.486328 17.9996 0.486328C16.6302 0.486328 15.2975 0.639688 14.0159 0.929848C13.514 1.67577 12.9942 2.41161 12.532 3.18129C11.9646 4.12521 11.3944 5.07129 10.917 6.06705Z" fill="#A708BE"/>
<path d="M21.5122 33.8901C22.5512 33.3674 23.4713 32.7345 24.2727 31.9194C24.5074 31.6804 24.8105 31.4579 24.8861 31.0871C24.8854 31.0871 24.8854 31.0871 24.8847 31.0878C24.8847 31.0864 24.8854 31.0857 24.8847 31.0842C24.5823 31.0785 24.3598 31.2794 24.1064 31.3953C20.9218 32.8554 17.6386 33.1938 14.2424 32.2838C13.7434 32.1498 13.2229 32.0541 12.7606 31.8374C11.7029 31.3413 10.6611 30.807 9.68911 30.1504C9.02959 31.1951 8.32399 32.2024 7.41895 33.0506C9.41623 34.5042 11.7245 35.5576 14.2251 36.0911C14.6427 35.9457 15.0833 35.8794 15.5096 35.7635C17.5335 35.2134 19.6035 34.8491 21.5122 33.8901Z" fill="#644EDE"/>
<path d="M25.6904 6.48375C25.7516 6.53919 25.8071 6.60399 25.8755 6.64935C28.1003 8.12895 29.7606 10.0917 30.9155 12.4965C31.1552 12.9954 31.2877 13.539 31.5743 14.0164C31.6959 13.858 31.8219 13.7025 31.9386 13.5412C32.6442 12.5627 33.3959 11.6253 34.2807 10.803C33.0582 8.21824 31.2387 5.97111 28.9995 4.24023C28.6727 4.44399 28.3422 4.64271 28.0254 4.86159C27.2449 5.39799 26.4068 5.85375 25.6904 6.48375Z" fill="#644EDE"/>
<path d="M24.8851 31.0843C24.8851 31.0857 24.8844 31.0864 24.8851 31.0879C24.8858 31.0879 24.8858 31.0879 24.8865 31.0871C24.9578 31.0821 24.9837 31.0324 25.0003 30.9727C24.9405 30.9885 24.8736 30.9979 24.8851 31.0843Z" fill="#644EDE"/>
<path d="M9.69023 30.1489C9.25751 29.6867 8.69231 29.3922 8.24159 28.9343C7.20551 27.8817 6.27671 26.7606 5.55167 25.4733C4.52783 23.6538 3.96911 21.6925 3.77255 19.6211C3.64871 19.6413 3.56807 19.7277 3.48239 19.8083C2.54423 20.6917 1.49807 21.4161 0.338867 21.9719C1.22879 26.505 3.81935 30.4276 7.42007 33.0484C8.32511 32.2009 9.03071 31.1937 9.69023 30.1489Z" fill="#A708BE"/>
<path d="M17.9972 33.2932C26.0825 33.2932 32.6369 26.7387 32.6369 18.6534C32.6369 10.5681 26.0825 4.01367 17.9972 4.01367C9.91187 4.01367 3.35742 10.5681 3.35742 18.6534C3.35742 26.7387 9.91187 33.2932 17.9972 33.2932Z" fill="white"/>
<path d="M11.5295 13.9754C11.5295 13.3749 11.5295 12.8234 11.5295 12.2237C12.629 12.2237 13.7147 12.2237 14.8545 12.2237C14.8545 11.2941 14.8545 10.41 14.8545 9.50781C15.4269 9.50781 15.9446 9.50781 16.527 9.50781C16.527 10.3711 16.527 11.2358 16.527 12.1207C16.9914 12.1207 17.391 12.1207 17.8389 12.1207C17.8389 11.2661 17.8389 10.4136 17.8389 9.52509C18.4134 9.52509 18.9426 9.52509 19.5136 9.52509C19.5136 10.3934 19.5136 11.2646 19.5136 12.1416C19.8628 12.2841 20.2041 12.2755 20.5288 12.3374C21.1293 12.4526 21.6952 12.642 22.2424 12.9235C23.9632 13.8077 24.077 16.7546 22.3922 17.6769C22.349 17.7007 22.3144 17.7389 22.2755 17.7705C22.336 17.9354 22.498 17.9095 22.6139 17.9534C23.9596 18.461 24.5586 19.3243 24.5557 20.7665C24.5521 22.8213 23.5103 24.0871 21.4929 24.5004C20.8658 24.6285 20.2358 24.7243 19.5366 24.7308C19.5366 25.6725 19.5366 26.5725 19.5366 27.4963C18.9614 27.5366 18.4466 27.5301 17.8878 27.5035C17.8878 26.6085 17.8878 25.7381 17.8878 24.8395C17.4378 24.7553 17.0238 24.8114 16.5551 24.7862C16.5551 25.6905 16.5551 26.5747 16.5551 27.4877C15.9712 27.5489 15.442 27.515 14.8624 27.5157C14.8624 26.5754 14.8624 25.674 14.8624 24.7221C13.7226 24.7221 12.6333 24.7221 11.5137 24.7221C11.626 24.0554 11.7282 23.4434 11.8341 22.8141C12.1775 22.704 12.5325 22.7745 12.8802 22.7616C13.4908 22.7385 13.6658 22.5765 13.6665 21.971C13.6701 19.6238 13.6701 17.2766 13.6665 14.9301C13.6658 14.3361 13.4217 14.0633 12.8363 13.9941C12.6196 13.9682 12.3978 13.9797 12.179 13.9769C11.9795 13.9733 11.7779 13.9754 11.5295 13.9754ZM16.5983 19.1205C16.5983 20.3409 16.5983 21.5304 16.5983 22.7501C17.6654 22.7976 18.7043 22.7933 19.7253 22.5276C20.0529 22.4426 20.3639 22.3094 20.6411 22.1093C21.3647 21.5851 21.4518 20.526 20.8269 19.8873C20.5468 19.6008 20.2019 19.4345 19.8232 19.3286C18.7684 19.0356 17.6949 19.0809 16.5983 19.1205ZM16.5926 17.4213C17.62 17.4401 18.6006 17.4854 19.528 17.093C20.2818 16.7741 20.6066 16.1469 20.4201 15.3787C20.2718 14.7674 19.8088 14.4672 19.2537 14.3009C18.3875 14.0424 17.4998 14.0553 16.5926 14.1165C16.5926 15.2239 16.5926 16.2967 16.5926 17.4213Z" fill="#040404"/>
<path d="M10.6282 18.0025C10.6772 18.3769 10.7362 18.6886 10.5684 19.0335C10.0601 19.0335 9.54387 19.0335 8.97219 19.0335C8.97219 19.6225 8.97219 20.1704 8.97219 20.7154C8.57763 20.8501 8.23491 20.8184 7.85691 20.7557C7.72947 20.2021 7.85619 19.6433 7.77123 19.0436C7.24707 19.0436 6.71499 19.0436 6.18651 19.0436C6.06843 18.68 6.10731 18.3675 6.13827 18.055C6.39099 17.8585 6.67035 17.965 6.92955 17.9485C7.19595 17.9319 7.46451 17.9449 7.75539 17.9449C7.88499 17.3883 7.70643 16.8253 7.87275 16.2795C8.23563 16.2392 8.57907 16.1837 8.93259 16.327C9.03267 16.849 8.92683 17.3717 8.99883 17.9117C9.52731 18.0104 10.0688 17.8707 10.6282 18.0025Z" fill="#040404"/>
<path d="M26.9497 17.9185C27.0232 17.3692 26.9181 16.845 27.0196 16.3101C27.3695 16.1848 27.7108 16.2517 28.0744 16.2762C28.209 16.8299 28.0816 17.3706 28.1687 17.9473C28.6907 17.9473 29.2055 17.9473 29.7009 17.9473C29.9377 18.3095 29.8146 18.6357 29.8168 18.9769C29.2509 19.1094 28.7109 18.9762 28.1356 19.0691C28.1356 19.6271 28.1356 20.1757 28.1356 20.7237C27.7417 20.8432 27.3983 20.8259 27.0311 20.7553C26.9065 20.1973 27.0304 19.6386 26.9461 19.0374C26.4177 19.0374 25.8856 19.0374 25.3369 19.0374C25.2484 18.6745 25.2729 18.3635 25.3103 18.0085C25.8381 17.8645 26.3802 18.0021 26.9497 17.9185Z" fill="#040404"/>
</g>
<defs>
<clipPath id="clip0_1_15800">
<rect width="36" height="36" fill="white" transform="translate(0 0.5)"/>
</clipPath>
</defs>
</svg>
