<svg width="36" height="37" viewBox="0 0 36 37" fill="none" xmlns="http://www.w3.org/2000/svg">
<path d="M3.1273 9.51046C3.68242 8.73531 4.1983 7.93359 4.82376 7.20747C5.96136 5.88677 7.24958 4.75493 8.72472 3.81807C10.048 2.97769 11.4435 2.31529 12.9368 1.85211C15.262 1.13081 17.6355 0.916327 20.0531 1.19223C21.8203 1.3939 23.5229 1.84505 25.1445 2.57571C26.126 3.01793 27.0493 3.56434 27.9543 4.15445C29.7779 5.34353 31.2388 6.89146 32.46 8.66C33.7644 10.549 34.612 12.6503 35.0769 14.9042C35.4035 16.487 35.5413 18.0845 35.4012 19.6925C35.2284 21.6751 34.7881 23.5867 33.9656 25.424C33.27 26.978 32.4112 28.4048 31.3116 29.6936C30.2359 30.9544 29.0229 32.0575 27.6289 32.9668C26.6796 33.586 25.6902 34.1387 24.6456 34.549C22.8979 35.2357 21.0855 35.7 19.189 35.7813C17.8537 35.8386 16.5261 35.8161 15.2089 35.5824C14.0776 35.3816 12.9734 35.0886 11.8924 34.6827C10.8436 34.2888 9.82646 33.8223 8.88931 33.2324C7.53816 32.3819 6.32014 31.3498 5.23625 30.1606C4.02859 28.8356 3.04939 27.3665 2.30016 25.7439C1.24176 23.4517 0.721272 21.035 0.690312 18.5133C0.678648 17.5648 0.78744 16.6237 0.913872 15.6849C0.922944 15.6177 0.913728 15.5482 0.913008 15.4796C1.0236 15.4111 1.01381 15.2911 1.03375 15.1865C1.31498 13.7117 1.78932 12.3023 2.43185 10.9453C2.65951 10.4648 2.97365 10.0263 3.1273 9.51046ZM23.4116 18.8251C23.8823 18.575 24.3296 18.4316 24.683 18.1159C26.0451 16.8992 26.4081 14.0354 24.1972 12.6559C23.5085 12.2262 22.7738 11.9076 21.9818 11.5826C22.1128 10.522 22.5368 9.52947 22.6746 8.44321C22.0211 8.28128 21.409 8.06636 20.772 7.99731C20.5116 9.01805 20.2619 9.99668 20.0035 11.0096C19.5153 10.8601 19.0127 10.8743 18.5532 10.6155C18.719 9.57944 19.1129 8.60873 19.2205 7.56891C18.5493 7.4635 17.981 7.20214 17.3294 7.17399C17.0729 8.19704 16.8246 9.18697 16.5672 10.2135C15.2753 10.0155 14.0891 9.57116 12.7858 9.33226C12.4995 9.97378 12.3727 10.6507 12.2578 11.3708C12.6823 11.471 13.0513 11.5597 13.4211 11.6452C14.3546 11.861 14.6104 12.3714 14.3887 13.1877C14.2311 13.7684 14.0888 14.3533 13.9436 14.9374C13.422 17.0369 12.9045 19.1374 12.3798 21.2361C12.2616 21.7089 11.967 21.8629 11.4871 21.7927C11.0146 21.7236 10.5686 21.5114 10.0479 21.5268C9.82207 22.2491 9.37265 22.8855 9.21353 23.6829C10.4545 23.9991 11.6551 24.3049 12.9103 24.6247C12.8158 25.7197 12.3621 26.7217 12.228 27.8245C12.8572 27.9753 13.4495 28.1172 14.0672 28.2653C14.4742 27.2541 14.5681 26.1915 14.9475 25.1455C15.4047 25.3806 15.912 25.3124 16.3595 25.6083C16.1157 26.6165 15.8727 27.6208 15.6267 28.6378C16.2737 28.8694 16.9049 28.9639 17.5533 29.1253C17.8157 28.0738 18.0695 27.0569 18.3149 26.0735C18.4678 25.9949 18.5796 26.0096 18.6852 26.0322C19.7013 26.2497 20.7293 26.3004 21.7579 26.1862C22.6484 26.0874 23.4386 25.7479 24.0725 25.0795C24.7775 24.3362 25.1316 23.4269 25.3021 22.4489C25.4411 21.6523 25.4055 20.845 24.9378 20.1398C24.5713 19.5873 24.0678 19.1657 23.4116 18.8251ZM16.0656 22.9764C17.3191 23.2878 18.5714 23.6208 19.883 23.3813C20.5825 23.2536 21.1097 22.8968 21.3219 22.1931C21.5221 21.5294 21.4057 20.9264 20.9135 20.4018C20.4015 19.8564 19.7432 19.5728 19.0644 19.3357C18.2533 19.0525 17.4312 18.7951 16.5451 18.7252C16.2055 20.1053 15.876 21.4448 15.5391 22.8139C15.7537 22.8808 15.9075 22.9372 16.0656 22.9764ZM20.4936 17.1931C21.1868 17.0946 21.7616 16.6359 21.9305 16.0128C22.1371 15.2508 21.9063 14.5825 21.2896 14.128C20.5899 13.6122 19.7842 13.3499 18.9517 13.1677C18.6416 13.0998 18.3366 12.919 17.9613 13.0411C17.663 14.2533 17.3635 15.4708 17.0542 16.7281C18.2391 17.0273 19.3302 17.3583 20.4936 17.1931Z" fill="#F39321"/>
</svg>
