<svg width="36" height="37" viewBox="0 0 36 37" fill="none" xmlns="http://www.w3.org/2000/svg">
<path d="M19.9004 24.3981C28.8776 21.6756 25.6732 12.5238 19.9004 12.1762C21.3672 12.1762 22.5648 8.04441 22.5648 2.92773C36.659 3.91241 43.2813 26.7538 22.1406 33.8977C22.2758 32.0442 21.5035 26.8697 19.9009 24.3981" fill="black"/>
<path d="M19.9004 24.3981C28.8776 21.6756 25.6732 12.5238 19.9004 12.1762C21.3672 12.1762 22.5648 8.04441 22.5648 2.92773C36.659 3.91241 43.2813 26.7538 22.1406 33.8977C22.2758 32.0442 21.5035 26.8697 19.9009 24.3981" stroke="black" stroke-width="0.018" stroke-miterlimit="10"/>
<path d="M0.323242 21.6953C10.8457 21.6953 19.3601 13.3156 19.3601 2.94727H9.5329C9.55213 8.02521 5.43977 12.1765 0.342534 12.1957H0.323242V21.6953ZM13.2012 19.9769C10.5375 22.3325 9.05007 23.5489 1.75201 24.7072C6.05754 24.7072 9.5329 28.955 9.5329 34.2069H19.3603C19.3603 32.6236 19.0322 24.688 13.2014 19.9769H13.2012Z" fill="#FF6600"/>
</svg>
