<svg width="36" height="37" viewBox="0 0 36 37" fill="none" xmlns="http://www.w3.org/2000/svg">
<g clip-path="url(#clip0_1_15835)">
<path d="M35.6673 18.2787C35.76 27.928 28.2736 35.6959 18.9092 36.1598C8.78964 36.6611 0.753213 28.8449 0.336261 19.3145C-0.105963 9.20486 7.70337 1.16923 17.2693 0.802748C27.5541 0.408764 35.5669 8.57544 35.6673 18.2787ZM24.5118 6.67262C23.7134 6.47332 22.9299 6.27784 22.1361 6.07977C21.8183 7.3546 21.5066 8.60546 21.1929 9.86416C20.5568 9.71484 19.9373 9.5694 19.3083 9.42172C19.6271 8.1407 19.9408 6.87969 20.2564 5.61091C19.453 5.41039 18.6737 5.21584 17.883 5.01849C17.5574 6.32313 17.2367 7.60819 16.913 8.90498C15.3052 8.5552 13.7339 8.11276 12.141 7.72994C11.9283 8.58386 11.7212 9.41582 11.5102 10.263C11.7295 10.3146 11.9419 10.362 12.1531 10.4147C12.6297 10.5334 13.117 10.6178 13.5715 10.8107C14.1794 11.0689 14.4446 11.6228 14.2848 12.2625C13.8829 13.8715 13.4819 15.4808 13.0808 17.09C12.6194 18.9406 12.1592 20.7915 11.6963 22.6417C11.5848 23.0873 11.2524 23.3353 10.7992 23.3122C10.5734 23.3007 10.3564 23.2349 10.1383 23.1791C9.72081 23.0722 9.30307 22.9661 8.87345 22.8566C8.47961 23.7662 8.09045 24.6651 7.69855 25.5702C9.29393 25.9728 10.8714 26.371 12.4637 26.7728C12.1353 28.0952 11.8118 29.3976 11.4848 30.7147C12.2798 30.9131 13.0635 31.1088 13.86 31.3076C14.8214 27.2946 15.9554 23.3509 16.8819 19.3568C16.929 19.3608 16.9469 19.3597 16.9633 19.3641C18.3977 19.7493 19.8671 19.8697 21.3423 19.9676C22.8574 20.0681 24.3224 19.8817 25.7357 19.3175C26.2496 19.1124 26.7527 18.8887 27.1539 18.4918C27.7261 17.9259 28.029 17.2196 28.2038 16.4491C28.5888 14.7522 28.1493 13.3329 26.7816 12.2247C25.9225 11.5287 24.9343 11.0774 23.9085 10.6955C23.7891 10.6511 23.67 10.606 23.5446 10.5589C23.8681 9.25864 24.187 7.97755 24.5118 6.67262ZM17.4075 25.0089C16.8541 27.275 16.3053 29.5217 15.7537 31.78C16.5417 31.9767 17.3203 32.1711 18.1114 32.3685C18.4407 31.0495 18.7656 29.7488 19.0905 28.4478C19.126 28.4507 19.1435 28.4507 19.1604 28.4538C20.37 28.6777 21.5853 28.837 22.8197 28.7575C23.5523 28.7104 24.2636 28.5665 24.9327 28.2527C26.0239 27.7408 26.7443 26.8797 27.2166 25.7951C27.6912 24.7052 27.9448 23.5774 27.7198 22.3841C27.5505 21.4861 27.1112 20.739 26.4192 20.1171C24.9233 20.735 23.3495 20.9472 21.7439 21.0009C21.9404 21.1633 22.1182 21.3189 22.289 21.4842C23.4483 22.6069 23.0051 24.6183 21.4683 25.1187C20.6706 25.3784 19.8586 25.3704 19.0395 25.2855C18.497 25.229 17.962 25.1265 17.4075 25.0089Z" fill="#272E63"/>
<path d="M24.5117 6.67171C24.1868 7.97663 23.8679 9.25773 23.5443 10.558C23.6697 10.6051 23.7889 10.6501 23.9082 10.6946C24.9339 11.0764 25.9222 11.5277 26.7813 12.2238C28.149 13.3319 28.5885 14.7513 28.2035 16.4482C28.0287 17.2188 27.7258 17.9249 27.1536 18.4909C26.7524 18.8878 26.2493 19.1115 25.7354 19.3166C24.3221 19.8808 22.857 20.0672 21.342 19.9667C19.8668 19.8687 18.3974 19.7484 16.963 19.3631C16.9466 19.3588 16.9287 19.3598 16.8816 19.3559C15.9552 23.35 14.8211 27.2936 13.8597 31.3067C13.0631 31.1079 12.2795 30.9122 11.4845 30.7138C11.8115 29.3967 12.135 28.0943 12.4633 26.7719C10.8711 26.37 9.29362 25.9719 7.69824 25.5693C8.09014 24.6641 8.4793 23.7653 8.87314 22.8557C9.30283 22.9652 9.72051 23.0712 10.138 23.1781C10.3561 23.2339 10.5731 23.2997 10.7989 23.3113C11.2522 23.3343 11.5845 23.0863 11.696 22.6408C12.1589 20.7906 12.6191 18.9397 13.0805 17.0891C13.4816 15.4799 13.8826 13.8706 14.2845 12.2616C14.4443 11.6219 14.1792 11.068 13.5712 10.8098C13.1167 10.6168 12.6294 10.5325 12.1528 10.4138C11.9416 10.3611 11.7291 10.3137 11.5099 10.2621C11.7209 9.41491 11.928 8.58295 12.1406 7.72903C13.7336 8.11185 15.3049 8.55436 16.9127 8.90407C17.2364 7.60727 17.5571 6.32222 17.8827 5.01758C18.6734 5.21493 19.4527 5.40947 20.2561 5.60999C19.9405 6.87878 19.6267 8.13979 19.308 9.42081C19.937 9.56848 20.5565 9.71392 21.1926 9.86325C21.5063 8.60455 21.818 7.35369 22.1358 6.07886C22.9296 6.27693 23.7132 6.47241 24.5117 6.67171ZM17.4929 16.9465C18.3634 17.188 19.2206 17.4196 20.1038 17.5289C20.7646 17.6107 21.4233 17.623 22.0822 17.47C23.7288 17.0876 24.1408 15.0418 23.1157 14.021C22.8139 13.7206 22.4738 13.4802 22.0975 13.2859C21.0227 12.731 19.8499 12.5 18.6664 12.2351C18.2749 13.8063 17.8865 15.3661 17.4929 16.9465Z" fill="#FEFEFE"/>
<path d="M17.4077 25.0091C17.9621 25.1267 18.4972 25.2293 19.0397 25.2856C19.8588 25.3706 20.6709 25.3786 21.4685 25.1188C23.0053 24.6184 23.4485 22.607 22.2892 21.4843C22.1184 21.3189 21.9406 21.1634 21.7442 21.001C23.3497 20.9473 24.9235 20.7351 26.4194 20.1172C27.1114 20.7391 27.5507 21.4862 27.72 22.3842C27.9449 23.5774 27.6914 24.7053 27.2168 25.7952C26.7445 26.8798 26.0241 27.7409 24.9329 28.2528C24.2638 28.5666 23.5525 28.7105 22.8199 28.7576C21.5855 28.8371 20.3703 28.6778 19.1607 28.4539C19.1437 28.4508 19.1262 28.4508 19.0907 28.4479C18.7658 29.7488 18.441 31.0496 18.1116 32.3686C17.3206 32.1711 16.5419 31.9768 15.7539 31.7801C16.3054 29.5219 16.8542 27.2751 17.4077 25.0091Z" fill="#FEFEFE"/>
<path d="M17.4932 16.9479C17.8867 15.3675 18.2752 13.8077 18.6665 12.2363C19.8501 12.5014 21.0229 12.7323 22.0977 13.2872C22.474 13.4814 22.8141 13.7219 23.1159 14.0223C24.141 15.0431 23.7289 17.0888 22.0824 17.4712C21.4235 17.6242 20.7648 17.6119 20.104 17.5301C19.2209 17.4209 18.3636 17.1894 17.4932 16.9479Z" fill="#272E63"/>
</g>
<defs>
<clipPath id="clip0_1_15835">
<rect width="36" height="36" fill="white" transform="translate(0 0.5)"/>
</clipPath>
</defs>
</svg>
