<svg width="36" height="37" viewBox="0 0 36 37" fill="none" xmlns="http://www.w3.org/2000/svg">
<g clip-path="url(#clip0_1_15797)">
<path d="M35.4772 21.3328C35.4237 22.132 35.1658 22.8975 34.9431 23.6479C34.0549 26.6409 32.4735 29.2398 30.1766 31.3697C27.7793 33.5927 24.9917 35.0831 21.7727 35.7512C21.3508 35.8388 17.6484 36.285 14.1624 35.7257C12.4963 35.3628 10.9292 34.7531 9.45095 33.9282C8.35727 33.318 7.29679 32.6412 6.38707 31.7618C5.68075 31.0791 4.87427 30.4689 4.30267 29.6873C3.79391 28.9916 3.25802 28.2945 2.84351 27.5232C2.09543 26.1313 1.56638 24.6778 1.01745 23.1747C-0.125262 20.0458 0.55845 16.2868 0.799218 14.6528C0.887562 14.0534 1.11451 13.4913 1.27622 12.9115C1.82774 10.9343 2.88023 9.22389 4.11028 7.62621C5.41031 5.93767 7.00504 4.55923 8.81995 3.42149C10.5694 2.32471 12.4699 1.72725 14.4613 1.19287C16.6809 0.597215 21.4706 1.08307 22.0024 1.24104C22.952 1.52313 23.939 1.69161 24.8379 2.12469C26.51 2.93023 28.1128 3.81763 29.5121 5.09325C30.1984 5.71893 30.9004 6.31632 31.5018 7.02681C33.3128 9.16615 34.7215 11.5473 35.2474 14.3114C35.9192 17.8434 35.4908 21.1297 35.4772 21.3328ZM4.41578 18.3616C4.41981 25.9002 10.4289 32.192 18.2676 32.0653C25.5805 31.9471 31.4666 26.2201 31.6362 18.784C31.8151 10.9447 25.6223 5.03745 18.2815 4.85817C10.4595 4.66723 4.49843 11.0391 4.41578 18.3616Z" fill="#FCB207"/>
<path d="M17.9131 30.5029C11.6335 30.5768 6.07885 25.2437 5.99417 18.6505C5.91526 12.5081 10.467 7.4865 15.886 6.61574C19.9413 5.96406 23.5293 6.99539 26.4859 9.88432C28.9635 12.3053 30.123 15.298 30.0795 18.77C29.9983 25.2444 24.4751 30.6695 17.9131 30.5029ZM18.0667 29.3029C24.0149 29.2848 28.9057 24.3996 28.867 18.4527C28.8283 12.4992 24.0929 7.65484 17.9987 7.64562C12.0889 7.63662 7.18606 12.57 7.21371 18.4564C7.24237 24.5708 12.1873 29.2855 18.0667 29.3029Z" fill="#06236B"/>
<path d="M23.1049 17.9315C24.5634 19.0944 25.1755 20.5656 24.5522 22.3561C23.8876 24.2651 22.3686 24.9632 20.3947 24.9269C20.3947 25.5007 20.3947 26.0422 20.3947 26.6283C19.7857 26.6283 19.2278 26.6283 18.6182 26.6283C18.6182 26.0836 18.6182 25.5401 18.6182 24.9944C18.2088 24.8705 17.8454 24.9339 17.427 24.928C17.427 25.5079 17.427 26.0484 17.427 26.6409C16.8182 26.6857 16.2643 26.6999 15.6517 26.6319C15.6517 26.0681 15.6517 25.5267 15.6517 24.9306C14.2707 24.9306 12.9454 24.9306 11.5127 24.9306C11.9008 24.151 12.2447 23.46 12.5946 22.7571C13.0064 22.7571 13.3744 22.7571 13.7713 22.7571C13.7713 19.8414 13.7713 16.962 13.7713 14.0524C13.5447 13.9509 13.2878 13.9968 13.0438 14.0077C12.7366 14.0213 12.5177 13.9285 12.3879 13.643C12.1227 13.0599 11.8546 12.4782 11.5529 11.8199C12.9183 11.8199 14.2369 11.8199 15.5875 11.8199C15.7081 11.1848 15.5904 10.5955 15.6749 10C16.246 10 16.7906 10 17.4048 10C17.4048 10.5828 17.4048 11.1603 17.4048 11.7798C17.8339 11.799 18.1928 11.8217 18.5919 11.7554C18.5919 11.1572 18.5919 10.5947 18.5919 10.0038C19.1939 10.0038 19.7535 10.0038 20.3678 10.0038C20.3678 10.6018 20.3678 11.1825 20.3678 11.7934C21.847 12.0118 22.9443 12.7235 23.5412 14.0713C24.1402 15.4238 23.9229 16.7125 23.1049 17.9315ZM15.959 19.4814C15.959 20.5913 15.959 21.6429 15.959 22.732C17.7375 22.732 19.4958 22.7732 21.2507 22.7138C22.0652 22.6862 22.6482 21.9001 22.6388 21.0812C22.6293 20.2609 22.0124 19.528 21.1251 19.4981C19.4257 19.4407 17.723 19.4814 15.959 19.4814ZM15.9662 17.259C17.396 17.259 18.7863 17.3008 20.1727 17.2445C21.1216 17.206 21.7666 16.4112 21.7212 15.5049C21.6775 14.6318 20.9878 13.9876 20.0373 13.9552C19.5081 13.9372 18.9778 13.9504 18.4479 13.9501C17.63 13.9498 16.812 13.9501 15.9661 13.9501C15.9662 15.0715 15.9662 16.125 15.9662 17.259Z" fill="#06236B"/>
</g>
<defs>
<clipPath id="clip0_1_15797">
<rect width="36" height="36" fill="white" transform="translate(0 0.5)"/>
</clipPath>
</defs>
</svg>
