<svg width="36" height="37" viewBox="0 0 36 37" fill="none" xmlns="http://www.w3.org/2000/svg">
<g clip-path="url(#clip0_1_15948)">
<path d="M15.2759 17.6924C19.908 17.6924 23.6631 13.9373 23.6631 9.30518C23.6631 4.67305 19.908 0.917969 15.2759 0.917969C10.6438 0.917969 6.88867 4.67305 6.88867 9.30518C6.88867 13.9373 10.6438 17.6924 15.2759 17.6924Z" fill="url(#paint0_linear_1_15948)"/>
<path d="M9.62867 3.19336C9.33945 4.45451 9.07823 5.67318 9.16939 6.94722C9.23131 7.81223 9.49828 8.5971 9.96239 9.32049C10.7307 10.5181 11.8781 11.2117 13.1857 11.6449C16.245 12.6584 19.2895 13.7025 22.2439 15.0039C24.1759 15.8548 25.7799 17.0874 27.0172 18.7819C28.1217 20.2947 28.7838 22.0028 29.0194 23.8618C29.4002 26.8657 28.6862 29.6146 26.8429 31.9985C24.4822 35.0515 21.3207 36.5371 17.4443 36.3939C14.7111 36.293 12.3366 35.2471 10.3548 33.3981C8.48207 31.6508 7.35333 29.4676 6.9772 26.9182C6.91924 26.5252 6.86899 26.1264 6.86855 25.7303C6.86287 20.1087 6.82003 14.4865 6.89116 8.86574C6.91859 6.69472 7.90975 4.8531 9.45141 3.32318C9.50282 3.27206 9.56927 3.23627 9.62867 3.19336Z" fill="black"/>
</g>
<defs>
<linearGradient id="paint0_linear_1_15948" x1="6.88863" y1="9.30521" x2="23.6631" y2="9.30521" gradientUnits="userSpaceOnUse">
<stop stop-color="#3E3E3E"/>
<stop offset="0.9995" stop-color="#7C7C7C"/>
</linearGradient>
<clipPath id="clip0_1_15948">
<rect width="36" height="36" fill="white" transform="translate(0 0.689453)"/>
</clipPath>
</defs>
</svg>
