<svg width="36" height="37" viewBox="0 0 36 37" fill="none" xmlns="http://www.w3.org/2000/svg">
<g clip-path="url(#clip0_1_15796)">
<path d="M17.6783 21.7485C17.6783 21.7485 16.8411 22.2134 16.5619 22.3709C13.5592 19.3339 10.5702 16.3107 7.50195 13.2073C7.50195 9.33654 7.50195 1.26562 7.50195 1.26562L10.6106 4.20517L17.6972 11.2939C17.6972 11.2939 17.6898 11.9942 17.6891 12.2555C17.6815 15.1808 17.6783 21.7485 17.6783 21.7485Z" fill="#0B5079"/>
<path d="M15.1327 24.4912C12.6176 24.4912 10.0902 24.4912 7.50879 24.4912C7.50879 21.4154 7.50879 18.348 7.50879 15.3457C10.132 18.0135 12.7976 20.7244 15.4632 23.4353C15.5255 23.3816 15.3118 24.07 15.1327 24.4912Z" fill="#0B5079"/>
<path d="M20.3363 22.3146C20.0227 22.1216 19.6199 21.9059 19.127 21.8C19.127 19.2758 19.127 16.7584 19.127 14.2434C20.9074 13.9386 24.4589 15.4168 25.7767 16.8865C23.9816 18.6775 22.188 20.467 20.3363 22.3146Z" fill="#79C5EB"/>
<path d="M29.5216 25.7715C29.3726 28.3841 28.3782 30.5644 26.7361 32.4758C24.93 30.6493 23.1543 28.8534 21.3213 26.9996C21.5102 26.6964 21.7075 26.2641 21.8484 25.7716C24.3825 25.7715 26.904 25.7715 29.5216 25.7715Z" fill="#2781AC"/>
<path d="M25.7284 33.4656C23.8669 35.0382 21.6883 35.9407 19.1455 36.1204C19.1455 33.5474 19.1455 31.0289 19.1455 28.4927C19.5467 28.3229 19.9444 28.1546 20.3557 27.9805C22.1247 29.7866 23.9018 31.6009 25.7284 33.4656Z" fill="#2781AC"/>
<path d="M15.7156 27.011C13.8925 28.8533 12.1171 30.6474 10.2986 32.485C8.59222 30.5733 7.67559 28.3634 7.47363 25.7793C10.0381 25.7793 12.5601 25.7793 15.1609 25.7793C15.2867 26.1799 15.4509 26.6282 15.7156 27.011Z" fill="#175B8C"/>
<path d="M29.4778 24.4816C26.924 24.4816 24.421 24.4816 21.8853 24.4816C21.7081 24.0578 21.534 23.641 21.3906 23.298C23.2062 21.4669 24.9805 19.6776 26.7543 17.8887C28.2724 19.306 29.4629 22.1591 29.4778 24.4816Z" fill="#4FA1D2"/>
<path d="M17.1596 36.0565C14.9218 35.7606 12.9337 34.8959 11.249 33.428C13.0534 31.6359 14.8502 29.8514 16.7065 28.0078C16.9473 28.1082 17.3223 28.2643 17.6973 28.4207C17.6915 30.7573 17.6814 36.1215 17.6814 36.1215C17.6814 36.1215 17.3831 36.086 17.1596 36.0565Z" fill="#175B8C"/>
</g>
<defs>
<clipPath id="clip0_1_15796">
<rect width="36" height="36" fill="white" transform="translate(0 0.689453)"/>
</clipPath>
</defs>
</svg>
