<svg width="36" height="37" viewBox="0 0 36 37" fill="none" xmlns="http://www.w3.org/2000/svg">
<g clip-path="url(#clip0_1_15792)">
<path d="M35.4456 15.0456C35.208 13.9008 34.8624 12.7704 34.4089 11.6976C33.9625 10.6392 33.4081 9.62396 32.7673 8.66636C32.1337 7.72316 31.3993 6.83756 30.5928 6.03116C29.7864 5.22476 28.8937 4.49756 27.9505 3.85676C27.0001 3.21596 25.9777 2.66156 24.9193 2.21516C23.8393 1.76156 22.7161 1.40876 21.5713 1.17836C20.3977 0.940759 19.1881 0.818359 17.9857 0.818359C16.7833 0.818359 15.5737 0.940759 14.4001 1.17836C13.2553 1.41596 12.1249 1.76156 11.0521 2.21516C9.99365 2.66156 8.97845 3.21596 8.02085 3.85676C7.07765 4.49036 6.19205 5.22476 5.38565 6.03116C4.57925 6.83756 3.84485 7.72316 3.21125 8.66636C2.57045 9.61676 2.01605 10.6392 1.56965 11.6976C1.11605 12.7776 0.763252 13.9008 0.532852 15.0456C0.295252 16.2192 0.172852 17.4288 0.172852 18.6312C0.172852 19.8408 0.295252 21.0432 0.532852 22.2168C0.770452 23.3616 1.11605 24.492 1.56965 25.5648C2.01605 26.6232 2.57045 27.6384 3.21125 28.596C3.84485 29.5392 4.57925 30.4248 5.38565 31.2312C6.19205 32.0376 7.07765 32.772 8.02085 33.4056C8.97125 34.0464 9.99365 34.6008 11.0521 35.0472C12.1321 35.5008 13.2553 35.8536 14.4001 36.084C15.5737 36.3216 16.7833 36.444 17.9857 36.444C19.1881 36.444 20.3977 36.3216 21.5713 36.084C22.7161 35.8464 23.8465 35.5008 24.9193 35.0472C25.9777 34.6008 26.9929 34.0464 27.9505 33.4056C28.8937 32.772 29.7792 32.0376 30.5856 31.2312C31.392 30.4248 32.1265 29.5392 32.7601 28.596C33.4009 27.6456 33.9552 26.6232 34.4016 25.5648C34.8553 24.4848 35.208 23.3616 35.4384 22.2168C35.6761 21.0432 35.7985 19.8336 35.7985 18.6312C35.8057 17.4288 35.6833 16.2264 35.4456 15.0456ZM17.9857 34.2336C9.37445 34.2336 2.39045 27.2496 2.39045 18.6384C2.39045 10.0272 9.37445 3.04316 17.9857 3.04316C26.5969 3.04316 33.5808 10.0272 33.5808 18.6384C33.5808 27.2496 26.5969 34.2336 17.9857 34.2336Z" fill="black"/>
<path d="M18.2594 32.8955C18.3098 32.8955 18.3602 32.8955 18.4106 32.8883C18.4322 32.8883 18.461 32.8883 18.4826 32.8883C18.533 32.8883 18.5834 32.8811 18.641 32.8811C18.6626 32.8811 18.677 32.8811 18.6986 32.8811C18.7706 32.8811 18.8426 32.8739 18.9074 32.8667C18.9146 32.8667 18.9146 32.8667 18.9218 32.8667C18.9866 32.8595 19.0514 32.8595 19.1162 32.8523C19.1378 32.8523 19.1522 32.8523 19.1738 32.8451C19.2242 32.8379 19.2818 32.8379 19.3322 32.8307C19.3538 32.8307 19.3682 32.8235 19.3898 32.8235C19.4474 32.8163 19.505 32.8091 19.5626 32.8019C19.577 32.8019 19.5842 32.8019 19.5986 32.7947C19.6706 32.7875 19.7426 32.7803 19.8146 32.7659H19.8218C19.8866 32.7587 19.9586 32.7515 20.0234 32.7371C20.0378 32.7371 20.0522 32.7299 20.0666 32.7299C20.1242 32.7227 20.1818 32.7155 20.2394 32.7011C20.2538 32.7011 20.2682 32.6939 20.2826 32.6939C20.3546 32.6795 20.4194 32.6723 20.4842 32.6579C20.6282 32.6291 20.7722 32.6075 20.909 32.5787C20.9162 32.5787 20.9306 32.5715 20.9378 32.5715C21.0026 32.5571 21.0602 32.5427 21.125 32.5283C21.1322 32.5283 21.1394 32.5211 21.1538 32.5211C21.2978 32.4923 21.4346 32.4563 21.5786 32.4203C19.829 32.4779 18.4034 32.2331 17.4962 32.0387C15.4802 31.6067 13.5578 30.8219 11.9306 29.4539C9.22336 27.1787 7.83376 23.9315 7.86976 20.6987C7.89856 18.2795 8.71936 15.8675 10.3754 13.8947C12.4562 11.4179 15.4226 10.1219 18.461 10.0571C18.5978 10.0571 18.7418 10.0571 18.8786 10.0571V7.65234C18.7202 7.65234 18.569 7.65234 18.4106 7.65234C17.489 7.67394 16.5602 7.78194 15.6674 7.99074C14.7602 8.19954 13.8746 8.50194 13.0394 8.89074C12.1826 9.28674 11.369 9.77634 10.6202 10.3523C9.84976 10.9355 9.14416 11.6123 8.51776 12.3611C7.93456 13.0595 7.42336 13.8155 6.99856 14.6075C6.58096 15.3851 6.24256 16.2059 5.99056 17.0483C5.74576 17.8763 5.58016 18.7331 5.50096 19.5971C5.47936 19.8635 5.45776 20.1371 5.45056 20.4035C5.45056 20.5043 5.44336 20.6123 5.44336 20.7131C5.44336 20.7635 5.44336 20.8211 5.44336 20.8715C5.46496 21.7931 5.57296 22.7219 5.78176 23.6147C5.99056 24.5219 6.29296 25.4075 6.68176 26.2427C7.14256 27.2435 7.97056 28.7267 9.18736 29.8571C11.6066 31.7579 14.6594 32.8883 17.9786 32.8883C18.0506 32.8883 18.1226 32.8883 18.1874 32.8883C18.2162 32.8955 18.2378 32.8955 18.2594 32.8955Z" fill="black"/>
<path d="M22.2481 30.5415C21.3985 30.5271 20.3689 30.3975 19.5553 30.2535C15.7897 29.5695 12.5497 27.2799 11.3545 23.7951C9.90012 19.5615 12.1321 14.9967 16.3297 13.5999C17.1505 13.3263 17.9857 13.1967 18.8065 13.1895C19.8937 13.1823 20.9593 13.4055 21.9457 13.8159L22.9681 11.6415C22.6657 11.5119 22.3489 11.3967 22.0321 11.2959C20.9809 10.9575 19.8937 10.7919 18.7921 10.7991C17.6905 10.8063 16.5961 10.9863 15.5449 11.3319C14.1985 11.7783 12.9889 12.4767 11.9377 13.4127C11.4337 13.8591 10.9729 14.3559 10.5697 14.8959C10.1665 15.4287 9.81372 15.9975 9.52572 16.6023C9.23052 17.1999 9.00012 17.8263 8.82732 18.4743C8.65452 19.1223 8.53932 19.7919 8.49612 20.4615C8.40252 21.8511 8.58972 23.2335 9.04332 24.5655C9.49692 25.8975 10.2385 27.1215 11.2321 28.2015C12.1249 29.1735 13.1761 29.9079 14.4433 30.5775C15.7681 31.2687 17.3881 31.6431 19.0873 31.8807C20.1817 32.0319 21.6433 32.0607 22.5073 32.0607C23.2561 31.7799 23.5729 31.6646 23.9833 31.4919C24.3361 31.3263 24.6817 31.1535 25.0201 30.9663C25.3657 30.7647 25.4305 30.7287 26.0065 30.3543C26.0569 30.3183 26.1073 30.2823 26.1577 30.2463C24.1921 30.5775 23.6737 30.5631 22.2481 30.5415Z" fill="black"/>
<path d="M26.7556 27.8182C26.194 27.8542 25.3876 27.9046 24.4732 27.9046C22.846 27.9046 20.8516 27.7606 19.1452 27.1918C16.5172 26.3134 14.0188 24.0598 14.0188 21.2878C14.0188 18.5158 16.2652 16.2766 19.03 16.2766C20.9092 16.2766 22.5508 17.3134 23.4076 18.847L25.582 17.7742C25.2364 17.1334 24.8044 16.5502 24.286 16.0318C23.602 15.3478 22.81 14.815 21.9244 14.4406C21.0028 14.0518 20.0308 13.8574 19.03 13.8574C18.0292 13.8574 17.05 14.0518 16.1356 14.4406C15.25 14.815 14.458 15.3478 13.774 16.0318C13.09 16.7158 12.5572 17.5078 12.1828 18.3934C11.794 19.315 11.5996 20.287 11.5996 21.2878C11.5996 22.2958 11.8156 23.2894 12.2404 24.247C12.6148 25.0894 13.1476 25.8814 13.8244 26.6086C15.0196 27.8902 16.6396 28.9198 18.3748 29.4958C20.038 30.0502 22.5004 30.2446 24.8764 30.079C25.5388 30.0358 26.0356 29.9638 26.878 29.791C27.6844 29.143 28.426 28.4086 29.074 27.6022C28.5196 27.6526 27.4684 27.7678 26.7556 27.8182Z" fill="black"/>
</g>
<defs>
<clipPath id="clip0_1_15792">
<rect width="36" height="36" fill="white" transform="translate(0 0.689453)"/>
</clipPath>
</defs>
</svg>
