<svg width="36" height="37" viewBox="0 0 36 37" fill="none" xmlns="http://www.w3.org/2000/svg">
<path d="M13.8603 2.39001C16.5459 1.74921 19.3755 1.76361 22.0611 2.36841C22.0755 2.39001 22.1115 2.44041 22.1259 2.46201C22.7667 3.33321 23.3859 4.21881 23.9331 5.14761C24.4227 5.95401 24.8547 6.79641 25.2723 7.65321C26.3811 7.58841 27.4899 7.53801 28.5987 7.60281C29.4483 7.62441 30.2907 7.72521 31.1403 7.80441L31.2411 7.81161C32.2779 8.96361 33.1635 10.2452 33.8691 11.6204C33.5739 12.5132 33.2499 13.3916 32.8755 14.2556C32.2563 12.6068 31.3635 11.0732 30.2619 9.69801C28.8723 9.53961 27.4755 9.52521 26.0859 9.58281C26.7123 11.246 27.1875 12.9668 27.5115 14.7164C27.6771 15.7244 27.8139 16.7396 27.8787 17.7692C27.7563 18.2876 28.2963 18.5108 28.4475 18.9428C28.8219 19.7276 28.5771 20.7212 27.9147 21.2756C27.9075 21.3764 27.8931 21.5852 27.8787 21.686C27.8499 22.1324 27.8139 22.5788 27.7563 23.0252C27.6915 23.6372 27.5907 24.242 27.4971 24.8468C27.1731 26.6252 26.6835 28.3604 26.0427 30.0524C27.4107 30.1172 28.7787 30.0812 30.1395 29.9588C31.3491 28.5044 32.3211 26.8412 32.9475 25.0484C33.2787 24.1412 33.4947 23.2052 33.6675 22.2548C34.1355 23.1476 34.5819 24.0548 34.9779 24.9764L35.0211 25.0772C34.2003 27.6476 32.8251 30.0668 30.9387 31.9964C29.0379 32.0108 27.1371 32.126 25.2363 31.9604C24.7827 32.81 24.3507 33.6812 23.8467 34.502C22.9683 34.8404 22.0611 35.114 21.1395 35.3084L20.9307 35.3516C21.7515 34.1996 22.4931 32.99 23.1411 31.7228C21.4059 31.4492 19.6995 31.0316 18.0435 30.4484C17.0931 30.11 16.1499 29.7284 15.2427 29.2964C15.0483 29.2028 14.8611 29.1164 14.6667 29.0228C14.1195 29.2676 13.4643 29.2892 12.9243 29.0012C12.3195 28.6988 11.9091 28.0796 11.8587 27.41C11.7867 27.3596 11.6427 27.2516 11.5707 27.194C10.6779 26.618 9.84273 25.9556 9.02193 25.2788C7.67553 24.1196 6.42273 22.8452 5.29953 21.47C4.48593 22.7012 3.78753 24.0044 3.16833 25.3436C3.79473 27.0788 4.78113 28.6628 5.96193 30.074C7.42353 30.1964 8.89233 30.2324 10.3611 30.1316C10.3755 30.1604 10.3971 30.2252 10.4115 30.254C10.6563 30.8588 10.9155 31.4564 11.1963 32.0468C10.2099 32.1188 9.23073 32.1836 8.24433 32.162C7.23633 32.1476 6.23553 32.0756 5.22753 31.982C5.16993 31.9748 5.05473 31.9604 5.00433 31.9532C2.69313 29.4764 1.08753 26.3444 0.482727 23.0036C0.0435266 20.642 0.0795265 18.194 0.605127 15.8468C1.24593 12.938 2.64993 10.202 4.61553 7.97001C7.00593 5.21241 10.2891 3.22521 13.8603 2.39001ZM15.4443 4.08201C14.4723 4.24761 13.5003 4.47801 12.5787 4.83081C10.9227 5.42121 9.38193 6.32121 7.99953 7.40841C7.22193 8.06361 6.47313 8.76201 5.83233 9.55401C4.67313 10.9364 3.72993 12.5132 3.12513 14.2124C3.72993 15.5732 4.44993 16.8908 5.27073 18.1364C6.37233 16.7828 7.61073 15.5372 8.91393 14.3852C9.74193 13.7372 10.5483 13.046 11.4483 12.4988V12.4772C11.5851 12.3836 11.7219 12.29 11.8587 12.1964C11.8587 11.7932 11.9595 11.3828 12.1971 11.0444C12.7515 10.166 14.0259 9.89961 14.8899 10.4756C15.0339 10.4108 15.1851 10.3388 15.3291 10.274C16.2219 9.83481 17.1579 9.49641 18.0867 9.12921C19.7499 8.58201 21.4635 8.15721 23.1915 7.86921C22.5291 6.57321 21.7803 5.32041 20.9235 4.14681C19.1235 3.81561 17.2587 3.80121 15.4443 4.08201ZM21.1251 10.3028C20.1387 10.5404 19.1667 10.8428 18.2163 11.1956L18.2523 11.21C17.4099 11.4404 16.6179 11.8652 15.8115 12.2108C15.7467 12.7652 15.5163 13.3124 15.0627 13.658C14.4723 14.1548 13.5867 14.2268 12.9099 13.874C12.1035 14.414 11.2971 14.9756 10.5699 15.6164C9.72753 16.2788 8.95713 17.0204 8.21553 17.7908C7.59633 18.4316 7.02753 19.1084 6.48033 19.8068C7.08513 20.57 7.71153 21.3116 8.40273 22.0028L8.39553 22.0172C9.12993 22.7444 9.87873 23.4644 10.6923 24.1052C11.3403 24.6452 12.0243 25.1348 12.7155 25.61C13.3275 25.2068 14.1627 25.178 14.7963 25.5524C15.4371 25.9124 15.8043 26.654 15.7827 27.3812C16.5675 27.7556 17.3595 28.1084 18.1803 28.4036C19.1451 28.7708 20.1315 29.0732 21.1323 29.318C22.0755 29.5484 23.0331 29.7212 23.9907 29.858C24.3651 28.9292 24.7035 27.986 24.9699 27.0212L24.9843 27.014C25.2507 26.006 25.4883 24.9836 25.6539 23.9468C25.7835 23.162 25.8627 22.37 25.9275 21.5708C25.4163 21.3476 24.9915 20.9228 24.8115 20.3972C24.4443 19.4396 24.9771 18.2948 25.9203 17.9204C25.8555 17.114 25.7763 16.3076 25.6395 15.5084C25.4883 14.4716 25.2435 13.4564 24.9699 12.4484C24.7035 11.534 24.3939 10.634 24.0411 9.74841C23.0619 9.89241 22.0899 10.058 21.1251 10.3028ZM2.34753 17.078C2.05953 18.878 2.05233 20.7284 2.35473 22.5284C2.85873 21.5924 3.43473 20.6924 4.02513 19.8068C3.43473 18.9212 2.87313 18.014 2.34753 17.078Z" fill="black"/>
<g opacity="0.19">
<path d="M22.1299 2.455C22.3099 2.383 22.4971 2.4838 22.6699 2.5198C24.1531 2.9374 25.6075 3.5062 26.9179 4.3198C26.4499 4.8454 25.7875 5.1478 25.2763 5.6374C24.8443 5.443 24.4267 5.1406 23.9371 5.1406C23.3827 4.2118 22.7635 3.3262 22.1299 2.455Z" fill="#303030"/>
</g>
<g opacity="0.2">
<path d="M12.5843 4.83474C13.5059 4.48194 14.4779 4.25154 15.4499 4.08594C14.6363 5.28834 13.8227 6.49794 13.2107 7.81554C14.6867 8.05314 16.1483 8.40594 17.5739 8.87394C17.7611 8.93154 17.9339 9.02514 18.0923 9.12594C17.1707 9.49314 16.2275 9.83154 15.3347 10.2707C14.3555 10.0115 13.3547 9.80274 12.3467 9.68034C11.9939 10.5371 11.6699 11.4083 11.4395 12.3011L11.4611 12.4739V12.4955C10.5611 13.0427 9.76189 13.7339 8.92669 14.3819C9.16429 12.6899 9.74749 11.0771 10.2659 9.45714C8.78989 9.37074 7.30669 9.40674 5.83789 9.54354C6.47869 8.75154 7.22749 8.05314 8.00509 7.39794C9.04189 7.46274 10.0787 7.44114 11.1155 7.52754C11.5907 6.62754 12.0659 5.72034 12.5843 4.83474Z" fill="#333333"/>
</g>
<g opacity="0.16">
<path d="M26.917 4.32433L26.9386 4.30273C28.3786 5.15233 29.7034 6.19633 30.8554 7.39873C30.9634 7.52113 31.1002 7.62913 31.1362 7.79473C30.2866 7.71553 29.4442 7.61473 28.5946 7.59313C28.1338 7.58593 27.781 7.27633 27.4426 7.00273C26.7658 6.48433 26.017 6.05953 25.2754 5.64193C25.7866 5.15233 26.4418 4.85713 26.917 4.32433Z" fill="#2A2A2A"/>
</g>
<g opacity="0.16">
<path d="M18.2178 11.1955C19.1682 10.8427 20.1402 10.5403 21.1266 10.3027C21.9978 10.7635 22.8834 11.2171 23.7114 11.7643C23.2074 12.2611 22.5666 12.5707 22.0482 13.0459C20.8458 12.3259 19.557 11.7427 18.261 11.2099L18.2178 11.1955Z" fill="#282828"/>
<path d="M8.2168 17.7916C8.9584 17.0212 9.7288 16.2796 10.5712 15.6172C10.6792 15.9628 10.6 16.3156 10.5568 16.6612C10.2544 19.1308 10.3408 21.6436 10.6936 24.106C9.88 23.4652 9.1312 22.7452 8.3968 22.018L8.404 22.0036C8.4904 21.766 8.4544 21.514 8.4472 21.262C8.3752 20.0956 8.3896 18.922 8.4544 17.7484C8.3968 17.7628 8.2744 17.7844 8.2168 17.7916Z" fill="#282828"/>
</g>
<g opacity="0.07">
<path d="M32.8821 14.2504C33.2565 13.3864 33.5805 12.508 33.8757 11.6152C34.7685 13.3072 35.3373 15.1648 35.6253 17.0584C35.5749 17.2816 35.6325 17.6056 35.3877 17.728C34.8765 18.0592 34.4085 18.4768 33.8469 18.7216C33.7893 18.2464 33.7749 17.764 33.6309 17.3032C33.2421 17.8072 32.9829 18.3904 32.6229 18.9088C32.4501 19.2184 32.1333 19.4992 32.1765 19.8808C31.8741 20.3488 31.3701 20.5936 30.8949 20.86C30.0885 21.4936 29.2101 22.0336 28.4253 22.696C28.2237 22.8328 28.0005 22.9192 27.7773 23.02C27.8349 22.5736 27.8637 22.1272 27.8997 21.6808C28.6125 21.1624 29.1741 20.4424 29.6421 19.7008C29.2749 19.1824 28.8141 18.7432 28.4397 18.2248C28.9005 17.7568 29.5989 17.5552 29.8941 16.9432C30.2397 17.2816 30.5349 17.6632 30.8373 18.0376C31.6437 16.8496 32.2701 15.5464 32.8821 14.2504Z" fill="#131313"/>
<path d="M12.0306 29.0098C12.1602 29.305 12.2322 29.6362 12.4482 29.8882C13.3914 29.7658 14.3274 29.593 15.2274 29.2906C16.1346 29.7298 17.0778 30.1114 18.0282 30.4426C17.913 30.529 17.7906 30.5938 17.6538 30.6442C16.2498 31.1338 14.7954 31.4866 13.3266 31.7602C13.305 32.1994 13.7226 32.545 13.845 32.9626C13.3194 33.3298 12.7434 33.6178 12.297 34.0858C11.8434 33.4522 11.541 32.7322 11.1666 32.0554C10.8858 31.465 10.6266 30.8674 10.3818 30.2626C10.9074 29.7874 11.5842 29.5498 12.0306 29.0098Z" fill="#131313"/>
</g>
<g opacity="0.14">
<path d="M23.7091 11.7559C24.1483 11.9503 24.4795 12.3823 24.9691 12.4471C25.2427 13.4551 25.4875 14.4703 25.6387 15.5071C24.4723 14.6359 23.3059 13.7719 22.0459 13.0375C22.5643 12.5623 23.2123 12.2527 23.7091 11.7559Z" fill="#232323"/>
</g>
<g opacity="0.1">
<path d="M27.5127 14.7031C27.7215 14.7967 27.9303 14.9119 28.0959 15.0775C28.7079 15.6823 29.3343 16.2727 29.8815 16.9351C29.5791 17.5471 28.8807 17.7559 28.4271 18.2167C28.2687 18.0367 28.0743 17.8855 27.8799 17.7487C27.8151 16.7335 27.6783 15.7111 27.5127 14.7031Z" fill="#191919"/>
</g>
<g opacity="0.04">
<path d="M35.6131 17.0547C35.8795 18.3075 35.8435 19.6179 35.7931 20.8923C35.6275 22.2675 35.4763 23.6715 34.9723 24.9675C34.5763 24.0387 34.1299 23.1387 33.6619 22.2459C33.4891 23.1891 33.2803 24.1323 32.9419 25.0395C32.4451 24.3699 32.1643 23.5707 31.7539 22.8507C32.2579 22.4691 32.8051 22.1235 33.3595 21.8211C33.4315 21.8715 33.5755 21.9723 33.6403 22.0155C33.8851 20.9427 33.8275 19.8195 33.8347 18.7179C34.3963 18.4731 34.8643 18.0555 35.3755 17.7243C35.6275 17.6019 35.5627 17.2779 35.6131 17.0547Z" fill="#0B0B0B"/>
</g>
<g opacity="0.05">
<path d="M32.1617 19.875C32.6585 20.4582 33.0257 21.1278 33.3569 21.8118C32.8025 22.1142 32.2625 22.4598 31.7513 22.8414C31.4705 22.3878 31.2257 21.9054 30.8801 21.5022C30.3041 21.8982 29.9729 22.5462 29.4617 23.007C28.8065 23.6118 28.2665 24.3534 27.4961 24.8286C27.5969 24.2238 27.6977 23.619 27.7553 23.007C27.9785 22.9134 28.2089 22.827 28.4033 22.683C29.1881 22.0206 30.0665 21.4806 30.8729 20.847C31.3553 20.595 31.8593 20.343 32.1617 19.875Z" fill="#0E0E0E"/>
<path d="M13.8595 32.957C14.1475 33.317 14.3275 33.7418 14.5939 34.1162C14.8531 34.541 15.1771 34.9226 15.3859 35.369C14.2843 35.3978 13.1899 35.3618 12.0883 35.3978C11.5411 35.3906 10.9867 35.441 10.4395 35.3546C10.6267 35.2682 10.7923 35.1458 10.9291 34.9946C11.1667 34.7282 11.5987 34.6994 11.7427 34.3394C11.9731 34.433 12.2107 34.4978 12.4483 34.541C12.4051 34.3826 12.3619 34.2242 12.3043 34.073C12.7507 33.6122 13.3339 33.3242 13.8595 32.957Z" fill="#0E0E0E"/>
</g>
<g opacity="0.06">
<path d="M20.3243 27.4105C22.2467 26.5033 23.9963 25.2793 25.6523 23.9473C25.4939 24.9841 25.2563 25.9993 24.9827 27.0145L24.9683 27.0217C24.2843 27.3097 23.7299 27.8209 23.0747 28.1737C22.4411 28.5841 21.7211 28.8505 21.1307 29.3185C20.1299 29.0737 19.1435 28.7713 18.1787 28.4041C18.8843 28.0585 19.6331 27.7921 20.3243 27.4105Z" fill="#0F0F0F"/>
</g>
<g opacity="0.11">
<path d="M9.00781 25.2793C9.82861 25.9561 10.6638 26.6113 11.5566 27.1945C11.5062 27.3241 11.499 27.4537 11.5422 27.5761C11.6862 28.0585 11.8518 28.5337 12.0318 29.0089C11.5854 29.5489 10.9014 29.7865 10.3902 30.2545C10.3758 30.2257 10.3542 30.1609 10.3398 30.1321C9.81421 28.7425 9.36061 27.3313 9.04381 25.8841C9.01501 25.6825 9.01501 25.4809 9.00781 25.2793Z" fill="#1B1B1B"/>
</g>
<g opacity="0.08">
<path d="M5.20996 31.9805C6.21076 32.0741 7.21876 32.1461 8.22676 32.1605C8.70916 32.6717 9.32836 33.0173 9.91876 33.3917C10.502 33.7589 11.1212 34.0685 11.7476 34.3493C11.6036 34.7021 11.1716 34.7309 10.934 35.0045C10.7972 35.1557 10.6316 35.2781 10.4444 35.3645C9.99076 35.3933 9.48676 35.4725 9.09076 35.1989C7.69396 34.3925 6.36916 33.4133 5.26036 32.2325C5.24596 32.1677 5.21716 32.0381 5.20996 31.9805Z" fill="#141414"/>
</g>
</svg>
