<svg width="36" height="37" viewBox="0 0 36 37" fill="none" xmlns="http://www.w3.org/2000/svg">
<g clip-path="url(#clip0_1_15807)">
<path d="M15.8834 10.2651V1.04913C15.8834 0.955531 15.7898 0.869131 15.7034 0.955531L1.51938 9.09153L1.42578 9.18513V18.4011C1.42578 18.5811 1.60578 18.5811 1.69938 18.5811L15.797 10.4451C15.797 10.3587 15.8834 10.3587 15.8834 10.2651Z" fill="url(#paint0_linear_1_15807)"/>
<path d="M15.883 21.8296V15.4144C15.883 15.3208 15.7894 15.2344 15.703 15.3208L10.1014 18.5752C10.0079 18.6688 10.0079 18.7552 10.1014 18.8488L15.6166 22.0096C15.703 22.0168 15.883 22.0168 15.883 21.8296Z" fill="url(#paint1_linear_1_15807)"/>
<path d="M29.9805 6.74374V25.2693C29.9805 25.3629 29.9805 25.3629 29.8869 25.3629L25.9125 27.7101C25.8189 27.8037 25.7325 27.7101 25.7325 27.6165V4.21654C25.7325 4.12294 25.7325 4.12294 25.6389 4.12294L20.3109 1.04854C20.2173 0.954936 20.1309 1.04854 20.1309 1.14214V8.01094V29.4237V36.2925C20.1309 36.3861 20.2245 36.4725 20.3109 36.3861L34.4085 28.2501L34.5021 28.1565V9.27094C34.5021 9.17734 34.5021 9.17734 34.4085 9.17734L30.1605 6.73654C30.0741 6.65014 29.9805 6.65014 29.9805 6.74374Z" fill="url(#paint2_linear_1_15807)"/>
<path d="M15.7971 26.9834L1.69953 18.8474C1.60593 18.7538 1.51953 18.8474 1.51953 18.941V28.157C1.51953 28.2506 1.51953 28.2506 1.61313 28.2506L15.7107 36.3866C15.8043 36.4802 15.8907 36.3866 15.8907 36.293V27.077C15.8835 26.9834 15.7971 26.9834 15.7971 26.9834Z" fill="url(#paint3_linear_1_15807)"/>
</g>
<defs>
<linearGradient id="paint0_linear_1_15807" x1="8.65694" y1="2.98014" x2="8.65694" y2="32.649" gradientUnits="userSpaceOnUse">
<stop stop-color="#00D080"/>
<stop offset="1" stop-color="#0BDD60"/>
</linearGradient>
<linearGradient id="paint1_linear_1_15807" x1="12.96" y1="2.98137" x2="12.96" y2="32.6503" gradientUnits="userSpaceOnUse">
<stop stop-color="#00D080"/>
<stop offset="1" stop-color="#0BDD60"/>
</linearGradient>
<linearGradient id="paint2_linear_1_15807" x1="27.3158" y1="2.97954" x2="27.3158" y2="32.6484" gradientUnits="userSpaceOnUse">
<stop stop-color="#00D080"/>
<stop offset="1" stop-color="#0BDD60"/>
</linearGradient>
<linearGradient id="paint3_linear_1_15807" x1="8.70227" y1="2.97997" x2="8.70227" y2="32.6488" gradientUnits="userSpaceOnUse">
<stop stop-color="#00D080"/>
<stop offset="1" stop-color="#0BDD60"/>
</linearGradient>
<clipPath id="clip0_1_15807">
<rect width="36" height="36" fill="white" transform="translate(0 0.689453)"/>
</clipPath>
</defs>
</svg>
