<svg width="36" height="37" viewBox="0 0 36 37" fill="none" xmlns="http://www.w3.org/2000/svg">
<g clip-path="url(#clip0_1_15725)">
<path d="M18 36.6895C27.9411 36.6895 36 28.6306 36 18.6895C36 8.74833 27.9411 0.689453 18 0.689453C8.05888 0.689453 0 8.74833 0 18.6895C0 28.6306 8.05888 36.6895 18 36.6895Z" fill="#FACFD8"/>
<path d="M13.7788 24.0316C14.4043 24.0316 14.9263 24.2386 15.3493 24.6526C15.7723 25.0666 15.9838 25.5931 15.9838 26.2366C15.9838 26.8801 15.7723 27.4021 15.3493 27.8071C14.9263 28.2121 14.4043 28.4146 13.7788 28.4146C13.1713 28.4146 12.6538 28.2121 12.2218 27.8071C11.7898 27.4021 11.5738 26.8801 11.5738 26.2366C11.5738 25.5931 11.7898 25.0666 12.2218 24.6526C12.6538 24.2341 13.1758 24.0316 13.7788 24.0316ZM22.2073 24.0316C22.8328 24.0316 23.3548 24.2386 23.7778 24.6526C24.2008 25.0666 24.4123 25.5931 24.4123 26.2366C24.4123 26.8801 24.2008 27.4021 23.7778 27.8071C23.3548 28.2121 22.8328 28.4146 22.2073 28.4146C21.5998 28.4146 21.0823 28.2121 20.6503 27.8071C20.2183 27.4021 20.0023 26.8801 20.0023 26.2366C20.0023 25.5931 20.2183 25.0666 20.6503 24.6526C21.0823 24.2341 21.6043 24.0316 22.2073 24.0316ZM15.5698 8.97461V14.0956V14.2081C15.5698 14.6761 15.5608 15.1306 15.5518 15.5761C16.3438 15.4771 17.1538 15.4321 17.9818 15.4321C18.8278 15.4321 19.6558 15.4816 20.4658 15.5851C20.4523 15.1036 20.4478 14.6086 20.4478 14.0956V8.97461H24.0028V14.0956V14.2081C24.0028 14.9596 23.9848 15.6841 23.9578 16.3726C24.1873 16.4491 24.4123 16.5301 24.6373 16.6156C26.7163 17.4076 28.5703 18.4831 30.2038 19.8466L28.7908 21.9931L28.7188 21.9391C27.2383 20.8546 25.6048 20.0041 23.8183 19.3921C23.7913 19.3831 23.7643 19.3741 23.7373 19.3651C23.6473 20.2741 23.5438 21.1876 23.4268 22.1056H21.0598L21.0283 21.8806C20.8753 20.7961 20.7538 19.7161 20.6548 18.6406C19.7908 18.5191 18.9043 18.4606 17.9908 18.4606C17.0953 18.4606 16.2268 18.5191 15.3853 18.6361C15.2818 19.7881 15.1558 20.9446 15.0028 22.1101H12.6358L12.6043 21.8851C12.4873 21.0391 12.3838 20.1976 12.2983 19.3561L12.2533 19.3696L12.1723 19.3966C10.3633 20.0176 8.69827 20.8861 7.18627 21.9931L5.75977 19.8421L5.82727 19.7836C7.44277 18.4471 9.27877 17.3896 11.3263 16.6111C11.5693 16.5166 11.8123 16.4311 12.0598 16.3501C12.0283 15.6301 12.0148 14.8741 12.0148 14.0911V8.97461H15.5698Z" fill="#EC6998"/>
</g>
<defs>
<clipPath id="clip0_1_15725">
<rect width="36" height="36" fill="white" transform="translate(0 0.689453)"/>
</clipPath>
</defs>
</svg>
