<svg width="36" height="37" viewBox="0 0 36 37" fill="none" xmlns="http://www.w3.org/2000/svg">
<g clip-path="url(#clip0_1_15786)">
<path d="M18.3643 0.761719L31.2333 8.1361L29.3076 9.30193L18.2871 3.13613L18.3643 0.761719Z" fill="#205E87"/>
<path d="M18.3643 4.42383L28.0522 9.77386L25.3459 11.5431L18.2871 7.45791L18.3643 4.42383Z" fill="#205E87"/>
<path d="M28.0521 9.77539V12.3781L21.1372 17.0074L18.3643 15.5592L28.0521 9.77539Z" fill="#5B96C4"/>
<path d="M18.3643 15.5586V22.3545L25.0134 25.8613L27.0881 24.4753L21.1972 21.5712L21.208 16.9563L18.3643 15.5586Z" fill="#3B627D"/>
<path d="M27.088 24.4746L28.052 24.9752V27.6335L18.3642 32.7165L18.2109 29.6703L27.088 24.4746Z" fill="#1F5E88"/>
<path d="M31.2328 8.13672V15.008L24.5897 18.8166L22.2637 17.5129L29.1651 12.9632L29.1631 9.2219" fill="#5B96C4"/>
<path d="M22.2637 17.5117V20.9368L28.4473 23.8753L31.2328 22.2405L22.2637 17.5117Z" fill="#3B627D"/>
<path d="M31.2331 22.2402V29.1416L18.3642 36.5241L18.2109 33.9549L29.1143 28.2725V24.2084L28.3475 23.825L31.2331 22.2402Z" fill="#1F5E88"/>
<path d="M18.3646 4.42383L8.14648 9.91844V27.0771L18.3646 32.7163V29.5834L11.5686 25.7275L11.6168 11.268L18.3646 7.50852V4.42383Z" fill="#5B96C4"/>
<path d="M18.3645 0.761719L5.30273 8.18427V28.9578L18.3645 36.5249V33.874L7.13427 27.7046L7.18251 9.29285L18.3645 3.17163V0.761719Z" fill="#5B96C4"/>
</g>
<defs>
<clipPath id="clip0_1_15786">
<rect width="36" height="36" fill="white" transform="translate(0 0.689453)"/>
</clipPath>
</defs>
</svg>
