<svg width="36" height="37" viewBox="0 0 36 37" fill="none" xmlns="http://www.w3.org/2000/svg">
<g clip-path="url(#clip0_1_15666)">
<path d="M2.15137 36.2045C2.15137 36.2045 2.15137 12.7716 2.15137 0.950311C2.74414 0.922519 15.5684 0.874999 21.4898 0.877015C25.6887 0.878383 28.9457 2.69041 30.9792 6.31165C33.0298 9.96342 32.7084 13.6735 30.4925 17.2184C30.3975 17.3703 30.312 17.528 30.1821 17.7522C32.2535 19.6736 33.5786 21.9654 33.8575 24.8265C34.4218 30.6173 29.8032 36.163 23.9511 36.2941C16.8767 36.4525 2.15137 36.2045 2.15137 36.2045ZM8.91807 26.9126C14.2354 26.9126 19.5019 26.9126 24.7812 26.9126C24.7812 25.6228 24.7812 24.5441 24.7812 23.1864C21.8138 23.1864 18.9632 23.1864 16.1127 23.1864C16.084 23.0608 16.0554 22.9352 16.0267 22.8096C18.9638 19.6939 21.9008 16.5782 24.7238 13.5836C24.7238 12.5044 24.7238 11.6034 24.7238 10.6234C19.4445 10.6234 14.292 10.6234 9.05581 10.6234C9.05581 11.8862 9.05581 13.0546 9.05581 14.4176C11.9516 14.4176 14.7332 14.4176 17.5148 14.4176C17.5718 14.5374 17.6286 14.6572 17.6856 14.7769C14.7388 17.8571 11.7922 20.9374 8.79985 24.0653C8.79985 24.7851 8.79077 25.5219 8.80539 26.2582C8.80971 26.4804 8.87984 26.7013 8.91807 26.9126Z" fill="#193064"/>
<path d="M8.79688 26.9123C8.79688 26.9123 8.79968 24.7847 8.79968 24.0649C11.792 20.937 14.7387 17.8567 17.6854 14.7765C17.6285 14.6568 17.5716 14.537 17.5146 14.4172C14.7331 14.4172 11.9515 14.4172 9.05564 14.4172C9.05564 13.0543 9.05564 11.8859 9.05564 10.623C14.2918 10.623 19.4443 10.623 24.7236 10.623C24.7236 11.603 24.7236 12.504 24.7236 13.5833C21.9007 16.5779 18.9636 19.6935 16.0265 22.8092C16.0552 22.9348 16.0839 23.0605 16.1126 23.186C18.9631 23.186 21.8137 23.186 24.781 23.186C24.781 24.5437 24.781 25.6224 24.781 26.9123C19.5018 26.9123 8.79688 26.9123 8.79688 26.9123Z" fill="url(#paint0_linear_1_15666)"/>
</g>
<defs>
<linearGradient id="paint0_linear_1_15666" x1="8.7969" y1="18.7677" x2="24.7811" y2="18.7677" gradientUnits="userSpaceOnUse">
<stop stop-color="#3DBFDA"/>
<stop offset="0.9995" stop-color="#439CD7"/>
</linearGradient>
<clipPath id="clip0_1_15666">
<rect width="36" height="36" fill="white" transform="translate(0 0.689453)"/>
</clipPath>
</defs>
</svg>
