<svg width="36" height="37" viewBox="0 0 36 37" fill="none" xmlns="http://www.w3.org/2000/svg">
<g clip-path="url(#clip0_1_15882)">
<path d="M32.0469 28.9011L20.0114 35.8498C18.8261 36.5341 17.3658 36.5341 16.1805 35.8498L4.14498 28.9011C2.95972 28.2167 2.22949 26.952 2.22949 25.5834V11.6859C2.22949 10.3173 2.95964 9.0526 4.14498 8.36824L16.1805 1.41952C17.3658 0.73516 18.8261 0.73516 20.0114 1.41952L32.0469 8.36824C33.2322 9.0526 33.9623 10.3173 33.9623 11.6859V25.5834C33.9624 26.9521 33.2323 28.2168 32.0469 28.9011Z" fill="url(#paint0_linear_1_15882)"/>
<path d="M6.39104 21.6774C6.09181 21.4857 5.76341 21.3273 5.49838 21.0962C4.44545 20.1787 4.82259 18.3482 6.15257 17.9128C6.40724 17.8295 6.47182 17.7071 6.4693 17.4594C6.45807 16.3525 6.46217 15.2454 6.46613 14.1384C6.46671 13.9698 6.42747 13.8432 6.2839 13.734C5.67118 13.2679 5.44834 12.3657 5.75816 11.6546C6.08662 10.9008 6.85133 10.4661 7.64009 10.5856C7.70216 10.595 7.76998 10.595 7.82441 10.6215C8.32193 10.8636 8.67661 10.5547 9.05727 10.3181C9.34102 10.1417 9.63989 9.98952 9.94107 9.82154C9.68245 8.88842 9.85849 8.07353 10.6879 7.52287C11.6192 6.90461 12.4888 7.11233 13.276 7.87488C13.5187 7.74161 13.7597 7.61417 13.9961 7.47867C14.6763 7.08871 15.3521 6.69113 16.0353 6.30665C16.2137 6.20621 16.3097 6.0797 16.3529 5.87623C16.5122 5.12686 17.191 4.54531 17.8864 4.48678C18.9226 4.39951 19.5949 5.01706 19.7796 5.70156C19.8792 6.07085 20.0634 6.28116 20.4007 6.43949C20.8252 6.63878 21.2207 6.89971 21.6295 7.13263C21.6629 7.15164 21.7024 7.15992 21.7689 7.18397C22.5553 6.35388 23.4717 6.11304 24.4713 6.78811C25.2344 7.30349 25.3892 7.95862 25.1289 9.15432C25.379 9.30012 25.6406 9.45305 25.9026 9.60526C26.4789 9.94006 27.0574 10.271 27.6305 10.6111C27.7996 10.7115 27.9546 10.7196 28.1438 10.662C29.1531 10.355 30.1616 10.7568 30.5165 11.8075C30.7434 12.4794 30.4946 13.332 29.9189 13.7501C29.7613 13.8646 29.7054 13.9874 29.7128 14.1841C29.7316 14.6859 29.7204 15.1887 29.7237 15.6911C29.7244 15.7908 29.7364 15.8904 29.7439 16.0022C29.8268 16.0215 29.893 16.0437 29.9609 16.0518C31.2425 16.2036 32.0279 17.5507 31.437 18.8208C31.1669 19.4014 30.6879 19.759 30.0398 19.8519C29.7249 19.8969 29.7226 19.8886 29.7224 20.2136C29.7218 21.1551 29.7222 22.0967 29.7222 23.0557C29.8497 23.1331 29.9831 23.2129 30.1154 23.2945C30.9849 23.8312 31.1483 25.1367 30.4892 25.9152C29.8694 26.6472 28.8601 26.686 28.2227 26.3303C28.1518 26.2907 28.0395 26.2851 27.9602 26.3093C27.8195 26.3522 27.6845 26.4213 27.5561 26.4952C27.1704 26.7171 26.7891 26.9466 26.3912 27.1819C26.8839 28.3825 26.7526 29.4256 25.5003 30.0455C24.6844 30.4494 23.6396 30.2142 22.9721 29.1615C22.6142 29.3623 22.2523 29.5605 21.8952 29.7668C21.3994 30.0531 20.9102 30.3508 20.4115 30.6317C20.2684 30.7123 20.2202 30.8058 20.2204 30.9678C20.221 31.9896 19.5563 32.7262 18.5384 32.7852C17.6932 32.8343 16.9105 32.3354 16.6791 31.3174C16.6556 31.2142 16.5657 31.0996 16.4741 31.0428C15.9878 30.7412 15.4918 30.4553 14.9975 30.1669C14.9042 30.1125 14.8029 30.0717 14.6866 30.0156C14.5995 30.1068 14.52 30.1908 14.4398 30.2742C13.8606 30.8766 12.8183 31.0191 12.1155 30.5919C11.3305 30.1148 10.9591 29.1635 11.2525 28.3336C11.3209 28.1403 11.2703 28.0439 11.1093 27.9531C10.5636 27.6454 10.0197 27.3346 9.4784 27.0192C9.26873 26.8971 9.06591 26.7627 8.86359 26.6284C8.7301 26.5397 8.62153 26.5129 8.45888 26.6068C7.72239 27.0323 6.76148 26.8506 6.24164 26.2086C5.67298 25.5063 5.67349 24.5363 6.26453 23.8805C6.43028 23.6965 6.49133 23.5221 6.47521 23.2739C6.44633 22.8282 6.46793 22.3794 6.46484 21.9319C6.46412 21.8321 6.44857 21.7324 6.43985 21.6326C6.42358 21.6475 6.40731 21.6624 6.39104 21.6774ZM27.417 25.4432C27.4065 25.3527 27.4084 25.2966 27.3929 25.246C27.1218 24.3571 27.6181 23.411 28.5101 23.0881C28.6972 23.0204 28.7456 22.9299 28.7443 22.7492C28.7377 21.7834 28.7406 20.8176 28.739 19.8517C28.7389 19.7744 28.7308 19.697 28.7267 19.6266C28.3951 19.3937 28.1115 19.1316 27.9694 18.7607C27.8365 18.4134 27.5975 18.1539 27.3613 17.8779C26.7254 17.135 25.7896 17.2538 24.9801 17.6189C24.5271 17.8232 24.096 17.9889 23.5913 17.9838C22.5841 17.9737 21.8751 17.488 21.4018 16.6408C20.796 15.5564 21.157 14.0833 22.3192 13.3496C23.6075 12.5364 25.4968 13.1438 25.9568 14.5932C26.1486 15.1979 26.5355 15.6198 26.9429 16.0522C27.4335 16.5729 28.3054 16.4666 28.7226 16.2615C28.7226 15.5704 28.7226 14.8753 28.7226 14.1593C28.1027 14.0637 27.5876 13.807 27.2689 13.2582C26.9474 12.7049 26.9866 12.1188 27.172 11.5176C27.0696 11.4472 26.9841 11.3805 26.8913 11.3261C26.1483 10.891 25.4067 10.4531 24.656 10.0314C24.5664 9.9811 24.4056 9.98225 24.3114 10.0283C23.9479 10.206 23.5716 10.257 23.1711 10.2592C22.8471 10.261 22.5136 10.2966 22.2018 10.3815C21.4092 10.5975 20.7966 11.4324 20.7915 12.2349C20.7897 12.5071 20.8003 12.7867 20.7444 13.05C20.511 14.1503 19.8174 14.8267 18.7217 15.0151C17.7009 15.1907 16.8408 14.8354 16.2442 13.9724C15.648 13.1102 15.6139 12.1853 16.1417 11.2876C16.7017 10.335 17.5833 9.90492 18.6701 10.0776C19.2113 10.1637 19.6933 10.0531 20.1963 9.94783C21.0597 9.76719 21.3852 8.8859 21.395 8.33957C21.3966 8.25216 21.3238 8.13026 21.2482 8.08058C20.9602 7.89115 20.6583 7.72253 20.359 7.55052C20.1302 7.41905 19.8976 7.2942 19.6535 7.15906C19.2797 7.73506 18.7551 8.04401 18.0935 8.05229C17.4153 8.06078 16.9098 7.70201 16.5253 7.15186C15.6072 7.68502 14.7102 8.20068 13.8219 8.73089C13.7436 8.77762 13.6774 8.92176 13.6818 9.01709C13.706 9.5316 13.5056 9.95366 13.2322 10.3744C12.9396 10.8246 12.7997 11.3574 12.9009 11.8806C13.0236 12.5151 13.4519 12.9942 14.0009 13.3103C14.7925 13.7661 15.2764 14.3991 15.3846 15.3141C15.5782 16.952 14.0888 18.353 12.4638 18.0445C11.5361 17.8684 10.8845 17.3302 10.5482 16.4486C10.1785 15.4794 10.4279 14.6198 11.0683 13.8409C11.1851 13.699 11.2803 13.5323 11.3533 13.3632C11.4304 13.1845 11.4598 12.9859 11.5261 12.8018C11.8602 11.8733 11.4059 11.1981 10.7068 10.712C10.5796 10.6236 10.4683 10.6323 10.3381 10.7097C9.95396 10.938 9.56703 11.162 9.17542 11.3771C9.01796 11.4636 8.99593 11.5593 9.06166 11.7218C9.4802 12.7566 8.81463 13.9242 7.70475 14.1171C7.62296 14.1312 7.54419 14.1626 7.46276 14.1864C7.46276 15.4306 7.46276 16.6526 7.46276 17.8657C8.16217 18.2795 8.2369 18.3742 8.5028 18.7727C8.68215 19.0414 8.89498 19.302 9.14072 19.5096C9.83134 20.0932 10.892 20.0723 11.6193 19.5225C11.8466 19.3507 12.1119 19.1994 12.3836 19.1217C13.2139 18.8843 13.9956 18.9887 14.6894 19.5503C15.4519 20.1674 15.7713 20.9659 15.616 21.9235C15.4159 23.1564 14.2884 24.0843 13.0442 24.0127C12.0389 23.9548 11.1409 23.3467 10.7965 22.3969C10.765 22.31 10.7268 22.2126 10.6616 22.153C10.2928 21.8154 9.92004 21.4814 9.53578 21.1618C9.44607 21.0872 9.30898 21.0461 9.18939 21.0348C8.57465 20.9764 8.03163 21.184 7.53778 21.5298C7.47917 21.5709 7.45426 21.6921 7.45261 21.7769C7.44425 22.2008 7.44793 22.6249 7.44994 23.049C7.45023 23.1154 7.46391 23.1818 7.47205 23.2543C8.13653 23.2549 8.67826 23.4694 9.06044 24.0059C9.43801 24.5359 9.46184 25.1216 9.29141 25.7199C9.34721 25.7598 9.37695 25.785 9.41014 25.8041C10.2049 26.2632 10.9975 26.7261 11.7983 27.1744C11.889 27.2252 12.0386 27.2301 12.1385 27.1942C12.4974 27.065 12.8569 26.9929 13.2427 27.0014C13.5361 27.0078 13.8389 26.9778 14.1233 26.907C14.4797 26.8182 14.8571 26.7022 15.0726 26.3813C15.3933 25.9038 15.6183 25.3818 15.6075 24.7827C15.6031 24.5408 15.6031 24.2876 15.6667 24.0575C16.0341 22.727 17.3425 21.8676 18.7774 22.2641C20.0019 22.6023 20.6894 23.6546 20.5918 24.9258C20.4885 26.2712 19.2499 27.3382 17.9215 27.1578C17.3259 27.0769 16.7721 27.1251 16.2112 27.2996C15.5385 27.5089 15.0926 28.0532 15.0257 28.7562C15.0064 28.9587 15.0672 29.0974 15.2593 29.1943C15.5252 29.3284 15.7776 29.4887 16.0367 29.6362C16.3068 29.7899 16.578 29.9417 16.8751 30.1091C17.2273 29.5917 17.6821 29.2813 18.2843 29.2301C18.8858 29.1789 19.392 29.3924 19.8079 29.824C19.8589 29.7977 19.8937 29.7815 19.9269 29.7625C20.8457 29.2356 21.7669 28.7127 22.6791 28.1747C22.7697 28.1213 22.8174 27.981 22.8653 27.8722C22.959 27.6594 22.995 27.4055 23.1336 27.2313C23.4385 26.8478 23.542 26.4081 23.6049 25.9466C23.688 25.3375 23.1474 24.345 22.5864 24.0932C21.4112 23.5655 20.6782 22.0346 21.4039 20.6516C22.0147 19.4875 23.5062 18.9352 24.7585 19.5656C26.2856 20.3344 26.5247 22.3237 25.5641 23.4175C25.3779 23.6296 25.2398 23.8934 25.1206 24.1522C25.0169 24.3777 24.9588 24.6272 24.9025 24.8711C24.7658 25.463 25.0825 26.2208 25.5916 26.4966C26.192 26.1501 26.807 25.7952 27.417 25.4432Z" fill="white"/>
</g>
<defs>
<linearGradient id="paint0_linear_1_15882" x1="2.40067" y1="9.01854" x2="33.1473" y2="27.8563" gradientUnits="userSpaceOnUse">
<stop stop-color="#FCBB47"/>
<stop offset="0.9995" stop-color="#A96C00"/>
</linearGradient>
<clipPath id="clip0_1_15882">
<rect width="36" height="36" fill="white" transform="translate(0 0.689453)"/>
</clipPath>
</defs>
</svg>
