<svg width="36" height="37" viewBox="0 0 36 37" fill="none" xmlns="http://www.w3.org/2000/svg">
<g clip-path="url(#clip0_1_15946)">
<path d="M0.143555 18.69C0.143555 8.82598 8.13556 0.833984 17.9996 0.833984C27.8636 0.833984 35.8556 8.82598 35.8556 18.69C35.8556 28.554 27.8636 36.546 17.9996 36.546C8.13556 36.546 0.143555 28.554 0.143555 18.69Z" fill="url(#paint0_linear_1_15946)"/>
<path d="M10.5264 2.46741C11.664 1.94181 12.8592 1.53861 14.112 1.25781V8.72421H10.5336V2.46741H10.5264Z" fill="white"/>
<path d="M0.546875 14.9014C0.813275 13.6486 1.21648 12.4462 1.73488 11.3086H20.1165C22.8021 11.3086 24.9765 13.4902 24.9765 16.183V20.9278C24.9765 23.6206 22.8021 25.8022 20.1165 25.8022H15.3861C12.7005 25.8022 10.5261 23.6206 10.5261 20.9278V17.4646H14.1117V20.899C14.1117 21.619 14.6733 22.1806 15.3933 22.1806H20.1237C20.8365 22.1806 21.4053 21.619 21.4053 20.899V16.183C21.4053 15.463 20.8437 14.9014 20.1237 14.9014H0.546875Z" fill="white"/>
</g>
<defs>
<linearGradient id="paint0_linear_1_15946" x1="33.5343" y1="34.2247" x2="4.96468" y2="5.65511" gradientUnits="userSpaceOnUse">
<stop offset="0.1594" stop-color="#003CDA"/>
<stop offset="1" stop-color="#33DFCC"/>
</linearGradient>
<clipPath id="clip0_1_15946">
<rect width="36" height="36" fill="white" transform="translate(0 0.689453)"/>
</clipPath>
</defs>
</svg>
