<svg width="36" height="37" viewBox="0 0 36 37" fill="none" xmlns="http://www.w3.org/2000/svg">
<g clip-path="url(#clip0_1_15785)">
<path d="M18.1806 36.4254C13.0358 33.4555 7.91545 30.4996 2.80078 27.5471C2.80078 21.6043 2.80078 15.7 2.80078 9.73567C7.91156 6.78525 13.0425 3.82317 18.1798 0.857422C23.3135 3.82051 28.4221 6.7692 33.5436 9.72523C33.5436 15.6681 33.5436 21.5994 33.5436 27.5581C28.4406 30.5036 23.3311 33.4527 18.1806 36.4254ZM18.1803 7.89701C15.0773 9.68815 11.981 11.4754 8.89241 13.2582C8.89241 16.8599 8.89241 20.4247 8.89241 24.0239C11.9839 25.8084 15.08 27.5957 18.1818 29.3862C21.3 27.5855 24.3939 25.7988 27.4572 24.0298C27.4572 20.4014 27.4572 16.8378 27.4572 13.252C24.3682 11.4689 21.2848 9.68901 18.1803 7.89701Z" fill="#023048"/>
<path d="M26.0442 18.654C26.0273 19.5447 25.9263 20.4156 25.5508 21.2291C25.4065 21.5417 25.2286 21.8541 25.0026 22.1109C24.1463 23.0845 22.7965 23.0663 21.9398 22.0909C21.4431 21.5253 21.2021 20.8408 21.077 20.1164C20.8439 18.7666 20.85 17.4223 21.3861 16.1387C21.5569 15.73 21.8168 15.3273 22.1292 15.0151C22.9133 14.2316 24.1203 14.2712 24.9032 15.0576C25.5066 15.6636 25.7709 16.4361 25.9077 17.2536C25.9851 17.7151 26.0008 18.1869 26.0442 18.654ZM24.8306 19.5677C24.8728 18.997 24.8591 18.5058 24.8587 17.9167C24.8583 17.3285 24.7376 16.7827 24.6369 16.2414C24.5616 15.8363 24.3839 15.4249 24.1567 15.0792C23.8035 14.5417 23.1582 14.5551 22.7965 15.0902C22.6057 15.3727 22.4599 15.706 22.3762 16.0371C21.9919 17.5588 21.9904 19.1019 22.2493 20.6394C22.3332 21.1374 22.4966 21.6463 22.7381 22.0877C23.1172 22.7807 23.8338 22.7595 24.2487 22.0815C24.3888 21.8525 24.5155 21.593 24.5607 21.3322C24.664 20.7373 24.788 20.1436 24.8306 19.5677Z" fill="#023048"/>
<path d="M15.4852 22.6296C15.4222 22.6296 15.3898 22.554 15.4325 22.5077C16.0508 21.8375 16.6179 21.2323 17.1718 20.6153C17.8323 19.8796 18.4406 19.1057 18.8397 18.1886C19.1858 17.3931 19.2458 16.5742 19.0034 15.7455C18.771 14.951 18.2364 14.6042 17.474 14.7093C16.7586 14.808 16.0864 15.5426 16.0762 16.2371C16.0711 16.58 16.2423 16.814 16.5791 16.8991C16.7132 16.933 16.8535 16.9427 17.0422 16.9679C17.0717 16.9719 17.0962 16.9933 17.1032 17.0223C17.1665 17.2833 17.2325 17.5552 17.2982 17.8262C17.3074 17.8642 17.2848 17.9038 17.2469 17.9133C16.5088 18.0994 15.9201 17.6423 15.8137 16.8571C15.604 15.3088 16.6992 14.49 17.6551 14.3941C18.9272 14.2665 20.153 15.2358 20.2686 16.4644C20.3214 17.0257 20.2028 17.5482 19.957 18.0488C19.5162 18.9471 18.8816 19.6997 18.1693 20.3875C17.7134 20.8276 17.233 21.2421 16.7249 21.6971C16.6755 21.7413 16.7065 21.8237 16.7728 21.8237H19.8806C19.9136 21.8237 19.9426 21.801 19.9507 21.7689C20.0223 21.4866 20.0913 21.214 20.1655 20.9214C20.1828 20.8528 20.3032 20.9131 20.3032 20.9131L20.3572 22.5676C20.3572 22.5676 20.3211 22.6295 20.2852 22.6295H15.4852V22.6296Z" fill="#023048"/>
<path d="M15.3113 20.4913C15.3899 21.2634 14.8391 22.2659 14.1011 22.6191C13.2582 23.0224 12.4749 22.8389 11.7642 22.2838C11.3235 21.9394 11.0159 21.4822 10.8296 20.9613C10.2557 19.3575 10.2509 17.7513 10.9035 16.168C11.034 15.8516 11.234 15.5502 11.4558 15.2874C12.272 14.3206 13.2849 14.212 14.2793 14.9408C14.5088 14.7842 14.7324 14.6315 14.956 14.4788C14.9882 14.5021 15.0205 14.5255 15.0527 14.5488C15.0527 14.8892 15.0527 15.2297 15.0527 15.5701C15.0527 15.9169 15.0527 16.2636 15.0527 16.6104C15.0278 16.6266 15.0029 16.6427 14.9779 16.6588C14.9206 16.5819 14.8509 16.5113 14.8082 16.4271C14.6305 16.0771 14.5043 15.6923 14.2801 15.3764C13.6253 14.4541 12.607 14.5206 12.1165 15.5357C11.8902 16.0041 11.7474 16.534 11.6744 17.0512C11.4934 18.3341 11.4847 19.6249 11.7991 20.8929C11.8886 21.2542 12.0381 21.6183 12.2388 21.9305C12.6701 22.6016 13.4436 22.7371 14.1061 22.2911C14.6195 21.9454 14.917 21.4427 15.084 20.8555C15.1217 20.723 15.1636 20.5918 15.2036 20.46C15.2395 20.4705 15.2754 20.4809 15.3113 20.4913Z" fill="#343434"/>
</g>
<defs>
<clipPath id="clip0_1_15785">
<rect width="36" height="36" fill="white" transform="translate(0 0.689453)"/>
</clipPath>
</defs>
</svg>
