<svg width="36" height="37" viewBox="0 0 36 37" fill="none" xmlns="http://www.w3.org/2000/svg">
<g clip-path="url(#clip0_1_15878)">
<path d="M29.4264 0.976562H6.5736C2.9304 0.976562 0 3.84936 0 7.42776V29.863C0 33.4414 2.9304 36.3142 6.5736 36.3142H29.4264C33.0192 36.3142 36 33.4414 36 29.863V7.42776C36 3.84936 33.0696 0.976562 29.4264 0.976562ZM23.8824 9.80376C26.5536 9.80376 28.7064 11.9206 28.7064 14.5414C28.7064 15.3478 28.4976 16.1038 28.1376 16.8094C27.5184 16.3558 26.856 15.9526 26.136 15.7006C26.3376 15.3478 26.4456 14.9446 26.4456 14.5414C26.4456 13.1806 25.3152 12.0718 23.9256 12.0718C22.536 12.0718 21.4056 13.1806 21.4056 14.5414C21.4056 14.9446 21.5064 15.3478 21.7152 15.7006C20.9952 15.9526 20.2752 16.3054 19.7136 16.8094C19.3032 16.1038 19.1448 15.3478 19.1448 14.5414C19.0512 11.9206 21.2112 9.80376 23.8824 9.80376ZM12.1176 27.5014C9.4464 27.5014 7.2936 25.3846 7.2936 22.7638H9.6048C9.6048 24.1246 10.7352 25.2334 12.1248 25.2334C13.5144 25.2334 14.6448 24.1246 14.6448 22.7638H16.956C16.9488 25.3846 14.7888 27.5014 12.1176 27.5014ZM12.1176 20.8414C9.036 20.8414 6.5232 18.3718 6.5232 15.3478C6.5232 12.3238 9.0432 9.80376 12.1176 9.80376C15.192 9.80376 17.7696 12.2734 17.7696 15.3478C17.7192 18.3718 15.1992 20.8414 12.1176 20.8414ZM23.8824 27.5014C20.8008 27.5014 18.2304 25.0318 18.2304 22.0078C18.2304 18.9334 20.7504 16.4638 23.8824 16.4638C26.964 16.4638 29.4768 18.9334 29.4768 22.0078C29.4768 25.0246 26.964 27.5014 23.8824 27.5014ZM27.216 21.9502C27.216 23.7646 25.7256 25.1758 23.8752 25.1758C22.0248 25.1758 20.5344 23.7142 20.5344 21.9502C20.5344 20.1358 22.0248 18.6742 23.8752 18.6742C25.7328 18.7246 27.216 20.1862 27.216 21.9502ZM15.408 15.3478C15.408 17.1622 13.9176 18.6238 12.0672 18.6238C10.2168 18.6238 8.7264 17.1622 8.7264 15.3478C8.7264 13.5334 10.2168 12.0718 12.0672 12.0718C13.968 12.0718 15.408 13.5334 15.408 15.3478Z" fill="#D9B432"/>
</g>
<defs>
<clipPath id="clip0_1_15878">
<rect width="36" height="36" fill="white" transform="translate(0 0.689453)"/>
</clipPath>
</defs>
</svg>
