<svg width="36" height="37" viewBox="0 0 36 37" fill="none" xmlns="http://www.w3.org/2000/svg">
<g clip-path="url(#clip0_1_15777)">
<path fill-rule="evenodd" clip-rule="evenodd" d="M6.53715 6.31985C5.98995 3.38945 8.22915 0.689453 11.21 0.689453C13.838 0.689453 15.962 2.82065 15.962 5.44145V11.3023C16.6172 11.2591 17.2868 11.2303 17.9636 11.2303C18.6116 11.2303 19.2524 11.2519 19.886 11.2951V5.44145C19.886 2.81345 22.0172 0.689453 24.638 0.689453C27.6116 0.689453 29.858 3.38945 29.3108 6.31985L28.022 13.2103C32.4428 15.1327 35.7836 18.4807 35.7836 22.6927V25.2415C35.7836 28.7047 33.494 31.5991 30.2972 33.5503C27.0644 35.5159 22.7012 36.6895 17.9636 36.6895C13.2188 36.6895 8.86275 35.5159 5.63715 33.5503C2.43315 31.5919 0.143555 28.6975 0.143555 25.2343V22.6855C0.143555 18.5023 3.44835 15.1615 7.82595 13.2319L6.53715 6.31985ZM26.3732 14.1103L27.878 6.04625C28.2596 4.01585 26.6972 2.14385 24.6308 2.14385C22.8092 2.14385 21.3332 3.61985 21.3332 5.44145V12.9007C20.858 12.8359 20.3684 12.7927 19.8788 12.7567C19.2452 12.7135 18.6044 12.6919 17.9564 12.6919C17.2796 12.6919 16.61 12.7135 15.9548 12.7639C15.4652 12.7999 14.9756 12.8503 14.5004 12.9151V5.44145C14.5004 3.61985 13.0244 2.14385 11.2028 2.14385C9.13635 2.14385 7.58115 4.01585 7.95555 6.04625L9.46755 14.1319C4.75155 15.8887 1.59795 19.0639 1.59795 22.6927V25.2415C1.59795 30.7639 8.92755 35.2423 17.9636 35.2423C26.9996 35.2423 34.3292 30.7639 34.3292 25.2415V22.6927C34.322 19.0495 31.1396 15.8599 26.3732 14.1103Z" fill="#633001"/>
<path d="M34.322 25.2343C34.322 30.7567 26.9924 35.2351 17.9564 35.2351C8.92042 35.2351 1.59082 30.7567 1.59082 25.2343V22.6855H34.3148V25.2343H34.322Z" fill="#FEDC90"/>
<path fill-rule="evenodd" clip-rule="evenodd" d="M7.96343 6.04693C7.58183 4.01653 9.14423 2.14453 11.2106 2.14453C13.0322 2.14453 14.5082 3.62053 14.5082 5.44213V12.9085C15.6242 12.7645 16.7762 12.6853 17.9642 12.6853C19.1234 12.6853 20.2538 12.7573 21.341 12.9013V5.44213C21.341 3.62053 22.817 2.14453 24.6386 2.14453C26.705 2.14453 28.2602 4.01653 27.8858 6.04693L26.381 14.1109C31.1402 15.8605 34.3298 19.0501 34.3298 22.6861C34.3298 28.2085 27.0002 32.6869 17.9642 32.6869C8.92823 32.6869 1.59863 28.2085 1.59863 22.6861C1.59863 19.0645 4.75223 15.8893 9.47543 14.1325L7.96343 6.04693Z" fill="#D1884F"/>
<path d="M13.4137 21.9651C13.4137 23.4699 12.6001 24.6939 11.5921 24.6939C10.5841 24.6939 9.77051 23.4699 9.77051 21.9651C9.77051 20.4603 10.5841 19.2363 11.5921 19.2363C12.6001 19.2363 13.4137 20.4531 13.4137 21.9651Z" fill="#633001"/>
<path d="M25.9635 21.9651C25.9635 23.4699 25.1499 24.6939 24.1419 24.6939C23.1411 24.6939 22.3203 23.4699 22.3203 21.9651C22.3203 20.4603 23.1339 19.2363 24.1419 19.2363C25.1499 19.2363 25.9635 20.4531 25.9635 21.9651Z" fill="#633001"/>
</g>
<defs>
<clipPath id="clip0_1_15777">
<rect width="36" height="36" fill="white" transform="translate(0 0.689453)"/>
</clipPath>
</defs>
</svg>
