<svg width="36" height="37" viewBox="0 0 36 37" fill="none" xmlns="http://www.w3.org/2000/svg">
<g clip-path="url(#clip0_1_15907)">
<path d="M20.9286 1.36338C30.3921 2.93046 36.8216 11.9457 35.2785 21.3751C33.7077 30.9745 24.9822 37.3856 15.3058 36.0261C8.19957 35.0278 2.39507 29.562 0.804518 22.5428C0.271358 20.1902 0.239102 17.4275 0.628982 15.6177C2.15977 8.51154 6.27803 3.79021 13.2275 1.74541C15.5547 1.06069 17.9369 0.867947 20.9286 1.36338ZM27.3093 13.412C24.0929 8.47791 17.0701 7.41923 12.4859 11.0781C9.07401 13.8012 8.08494 18.4884 10.1056 22.358C12.1901 26.3498 16.958 28.546 21.3573 27.5559C22.9832 27.19 24.4479 26.5237 25.7979 25.3627C24.9265 24.567 24.1147 23.826 23.2954 23.078C21.0269 24.6016 18.6903 24.7822 16.2785 23.7401C13.6559 22.6069 12.0736 19.8486 12.521 17.2978C13.1191 13.888 16.3508 11.7519 19.9689 12.3702C21.7518 12.6749 23.1971 13.5592 24.3585 14.976C25.3484 14.4513 26.2991 13.9474 27.3093 13.412Z" fill="url(#paint0_linear_1_15907)"/>
<path d="M27.309 13.4125C26.2988 13.9479 25.3481 14.4518 24.3582 14.9765C23.1967 13.5597 21.7514 12.6754 19.9686 12.3707C16.3505 11.7524 13.1188 13.8885 12.5207 17.2983C12.0732 19.8492 13.6556 22.6074 16.2782 23.7406C18.6899 24.7827 21.0266 24.6021 23.2951 23.0785C24.1144 23.8265 24.9261 24.5676 25.7976 25.3632C24.4476 26.5242 22.9829 27.1905 21.357 27.5564C16.9578 28.5464 12.1898 26.3503 10.1053 22.3585C8.08462 18.4889 9.07369 13.8017 12.4856 11.0786C17.0697 7.41974 24.0926 8.4785 27.309 13.4125Z" fill="white"/>
</g>
<defs>
<linearGradient id="paint0_linear_1_15907" x1="7.66016" y1="33.3249" x2="28.16" y2="3.97045" gradientUnits="userSpaceOnUse">
<stop stop-color="#EA4397"/>
<stop offset="1" stop-color="#DB207E"/>
</linearGradient>
<clipPath id="clip0_1_15907">
<rect width="36" height="36" fill="white" transform="translate(0 0.689453)"/>
</clipPath>
</defs>
</svg>
