<svg width="36" height="37" viewBox="0 0 36 37" fill="none" xmlns="http://www.w3.org/2000/svg">
<path d="M9.10479 3.48438H26.8639L18.0003 19.2373L0.198242 18.9392L9.10479 3.48438Z" fill="url(#paint0_linear_1_15766)"/>
<path d="M26.8632 3.48438L35.8238 18.9392L26.8632 34.1986L17.7891 19.2069L26.8632 3.48438Z" fill="url(#paint1_radial_1_15766)"/>
<path d="M26.8639 34.1988H9.10479L0.198242 18.9395H17.9844L26.8639 34.1988Z" fill="url(#paint2_linear_1_15766)"/>
<path d="M14.2027 12.6598C14.0082 12.961 13.8442 13.1926 13.7029 13.4374C12.6391 15.2815 11.5798 17.1283 10.4838 19.0355C11.6966 21.1479 12.9074 23.2564 14.1416 25.4059C16.5275 25.4059 18.8926 25.4062 21.2578 25.4058C21.8026 25.4057 22.3492 25.3753 22.8919 25.4084C24.2748 25.4927 25.2313 26.4874 25.2142 27.7892C25.1973 29.0818 24.1956 30.0424 22.7985 30.0494C19.529 30.0658 16.2594 30.053 12.9899 30.0661C11.9401 30.0702 11.1908 29.6264 10.6697 28.717C9.13906 26.0459 7.61871 23.3682 6.03529 20.7285C5.30701 19.5143 5.31039 18.4275 6.04227 17.2112C7.59286 14.6344 9.07765 12.0175 10.5565 9.39839C11.1278 8.38636 11.9418 7.88747 13.0929 7.89064C16.2676 7.89935 19.4425 7.8838 22.617 7.91354C24.0032 7.92657 24.8161 8.53648 25.1393 9.6743C25.4079 10.6203 25.061 11.7084 24.1683 12.2025C23.6578 12.485 23.0084 12.6237 22.4177 12.6357C20.0258 12.684 17.6323 12.6581 15.2394 12.6596C14.9094 12.66 14.5794 12.6598 14.2027 12.6598Z" fill="white"/>
<defs>
<linearGradient id="paint0_linear_1_15766" x1="25.6355" y1="4.55511" x2="-0.0641109" y2="19.0305" gradientUnits="userSpaceOnUse">
<stop stop-color="#1C7187"/>
<stop offset="0.2105" stop-color="#037872"/>
<stop offset="0.2202" stop-color="#037974"/>
<stop offset="0.3979" stop-color="#0A858D"/>
<stop offset="0.5827" stop-color="#0E8E9F"/>
<stop offset="0.7777" stop-color="#1193AA"/>
<stop offset="0.9995" stop-color="#1295AD"/>
</linearGradient>
<radialGradient id="paint1_radial_1_15766" cx="0" cy="0" r="1" gradientUnits="userSpaceOnUse" gradientTransform="translate(16.9466 15.6678) scale(17.8393 17.8393)">
<stop stop-color="#00A19C"/>
<stop offset="0.2114" stop-color="#039E9C"/>
<stop offset="0.3975" stop-color="#0B939A"/>
<stop offset="0.5741" stop-color="#188198"/>
<stop offset="0.7448" stop-color="#2C6795"/>
<stop offset="0.9099" stop-color="#444791"/>
<stop offset="0.9995" stop-color="#54328E"/>
</radialGradient>
<linearGradient id="paint2_linear_1_15766" x1="0.161364" y1="19.0047" x2="26.9074" y2="34.122" gradientUnits="userSpaceOnUse">
<stop stop-color="#14787F"/>
<stop offset="0.1882" stop-color="#087876"/>
<stop offset="0.3695" stop-color="#037872"/>
<stop offset="0.4874" stop-color="#087272"/>
<stop offset="0.6496" stop-color="#166071"/>
<stop offset="0.8365" stop-color="#2D4370"/>
<stop offset="0.9995" stop-color="#46246F"/>
</linearGradient>
</defs>
</svg>
