<svg width="36" height="37" viewBox="0 0 36 37" fill="none" xmlns="http://www.w3.org/2000/svg">
<g clip-path="url(#clip0_1_15764)">
<path d="M8.46958 15.0664L34.6979 28.0166L27.4305 31.6777L1.25684 18.6182L8.46958 15.0664Z" fill="#02FDF9"/>
<path d="M8.46958 24.3555L25.2721 32.6611L18.0047 36.3221L1.25684 27.9072L8.46958 24.3555Z" fill="#02FDF9"/>
<path d="M8.46958 5.61328L25.2448 13.9189L17.9774 17.58L1.25684 9.16504L8.46958 5.61328Z" fill="#38FF8C"/>
<path d="M17.9775 0.914062L25.2449 4.46582L17.9775 8.12681L10.7646 4.46582L17.9775 0.914062Z" fill="#38FF8C"/>
<path d="M27.4853 5.61328L34.7527 9.16504L27.4853 12.826L20.2725 9.16504L27.4853 5.61328Z" fill="#38FF8C"/>
<path d="M27.4853 15.0664L34.7527 18.6182L27.4853 22.2792L20.2725 18.6182L27.4853 15.0664Z" fill="#02FDF9"/>
</g>
<defs>
<clipPath id="clip0_1_15764">
<rect width="36" height="36" fill="white" transform="translate(0 0.689453)"/>
</clipPath>
</defs>
</svg>
