<svg width="36" height="37" viewBox="0 0 36 37" fill="none" xmlns="http://www.w3.org/2000/svg">
<g clip-path="url(#clip0_1_15830)">
<path d="M18 36.6816C27.9411 36.6816 36 28.6228 36 18.6816C36 8.74051 27.9411 0.681641 18 0.681641C8.05887 0.681641 0 8.74051 0 18.6816C0 28.6228 8.05887 36.6816 18 36.6816Z" fill="#EDF0F2"/>
<path d="M29.4261 32.5926C26.6758 34.8534 23.3133 36.243 19.7709 36.5958C15.0189 37.0638 10.2741 35.631 6.58775 32.607C2.89415 29.583 0.554147 25.2126 0.0861471 20.4606C-0.266653 16.9182 0.446147 13.347 2.11655 10.2078C3.79415 7.06864 6.36455 4.49824 9.50375 2.81344C12.6429 1.13584 16.2069 0.423042 19.7565 0.768642C23.2989 1.11424 26.6613 2.50384 29.4117 4.76464L25.7829 9.19264C23.9037 7.65184 21.6141 6.70864 19.195 6.47104C16.7757 6.23344 14.3493 6.72304 12.2109 7.86784C10.0725 9.01264 8.31575 10.7694 7.17815 12.9078C6.03335 15.0462 5.55095 17.4798 5.79575 19.899C6.11975 23.139 7.71095 26.1198 10.2309 28.179C12.7509 30.2454 15.9837 31.2246 19.2237 30.9006C21.6357 30.663 23.9325 29.7126 25.8045 28.1718L29.4261 32.5926Z" fill="url(#paint0_linear_1_15830)"/>
<path d="M17.9998 34.5224C26.7478 34.5224 33.8326 27.4304 33.8326 18.6896C33.8326 9.94161 26.7478 2.84961 17.9998 2.84961C9.25179 2.84961 2.16699 9.94161 2.16699 18.6824C2.16699 27.4304 9.25179 34.5224 17.9998 34.5224Z" fill="white"/>
<path fill-rule="evenodd" clip-rule="evenodd" d="M17.3666 15.3991L13.0322 22.5343L14.7602 21.5407C14.7674 21.5335 14.7674 21.5263 14.7746 21.5191L17.3738 17.2855V15.3991H17.3666ZM22.2338 23.5207H13.853L15.4154 22.6207H20.6138C20.6354 22.6207 20.6498 22.6207 20.6714 22.6207L22.2338 23.5207ZM22.9106 22.4551L18.6266 15.4063V17.2927L21.1898 21.4615L22.9106 22.4551ZM18.6122 12.9511C18.3314 12.4903 17.6618 12.4903 17.381 12.9511L10.8578 23.6863C10.5626 24.1687 10.9082 24.7807 11.477 24.7807H24.5306C25.0922 24.7807 25.4378 24.1687 25.1498 23.6863L18.6122 12.9511ZM17.993 18.6751L16.3514 21.3535H19.649L17.993 18.6751Z" fill="#283947"/>
</g>
<defs>
<linearGradient id="paint0_linear_1_15830" x1="12.9255" y1="2.66393" x2="18.5699" y2="33.9576" gradientUnits="userSpaceOnUse">
<stop stop-color="#27D3A2"/>
<stop offset="1" stop-color="#9388FD"/>
</linearGradient>
<clipPath id="clip0_1_15830">
<rect width="36" height="36" fill="white" transform="translate(0 0.689453)"/>
</clipPath>
</defs>
</svg>
