<svg width="36" height="37" viewBox="0 0 36 37" fill="none" xmlns="http://www.w3.org/2000/svg">
<g clip-path="url(#clip0_1_15658)">
<path d="M18 36.6895C27.9411 36.6895 36 28.6306 36 18.6895C36 8.74833 27.9411 0.689453 18 0.689453C8.05887 0.689453 0 8.74833 0 18.6895C0 28.6306 8.05887 36.6895 18 36.6895Z" fill="#EDF0F2"/>
<path d="M29.4267 32.5933C26.6763 34.8541 23.3139 36.2437 19.7715 36.5965C15.0195 37.0645 10.2819 35.6317 6.58825 32.6077C2.89465 29.5837 0.561851 25.2133 0.086651 20.4613C-0.266149 16.9189 0.439451 13.3549 2.11705 10.2085C3.79465 7.07646 6.36505 4.49886 9.50425 2.82125C12.6434 1.14365 16.2146 0.430855 19.757 0.776455C23.2994 1.12205 26.6618 2.51166 29.4122 4.77246L25.7834 9.20046C23.9042 7.65966 21.6147 6.71646 19.2027 6.47886C16.7907 6.24126 14.357 6.73086 12.2186 7.87566C10.0802 9.02046 8.32345 10.7773 7.18585 12.9157C6.04105 15.0541 5.55865 17.4877 5.80345 19.9069C6.12745 23.1469 7.71865 26.1277 10.2387 28.1869C12.7586 30.2461 15.9915 31.2325 19.2315 30.9085C21.6434 30.6709 23.9403 29.7205 25.8123 28.1797L29.4267 32.5933Z" fill="url(#paint0_linear_1_15658)"/>
<path d="M17.9998 34.523C26.7478 34.523 33.8326 27.431 33.8326 18.6902C33.8326 9.94222 26.7406 2.85742 17.9998 2.85742C9.25179 2.85742 2.16699 9.94222 2.16699 18.6902C2.16699 27.4382 9.25179 34.523 17.9998 34.523Z" fill="white"/>
<path d="M24.5517 16.7664H23.1765C22.4205 14.664 20.3757 13.2168 17.6901 13.2168H13.2621V16.7664H11.7285V18.0408H13.2621V19.38H11.7285V20.6544H13.2621V24.1608H17.6901C20.3469 24.1608 22.3773 22.728 23.1549 20.6544H24.5517V19.38H23.4573C23.4861 19.1568 23.5005 18.9264 23.5005 18.6888V18.66C23.5005 18.4512 23.4861 18.2424 23.4717 18.048H24.5589L24.5517 16.7664ZM14.5005 14.3544H17.6901C19.6629 14.3544 21.1317 15.3264 21.8085 16.7664H14.5005V14.3544ZM17.6901 23.016H14.5005V20.6472H21.8013C21.1173 22.0656 19.6557 23.016 17.6901 23.016ZM22.2189 18.7176C22.2189 18.9408 22.2045 19.164 22.1757 19.3728H14.5005V18.0408H22.1757C22.2045 18.2496 22.2189 18.4656 22.2189 18.6888V18.7176Z" fill="url(#paint1_linear_1_15658)"/>
</g>
<defs>
<linearGradient id="paint0_linear_1_15658" x1="12.9266" y1="2.66981" x2="18.5706" y2="33.961" gradientUnits="userSpaceOnUse">
<stop stop-color="#27D3A2"/>
<stop offset="1" stop-color="#9388FD"/>
</linearGradient>
<linearGradient id="paint1_linear_1_15658" x1="18.1423" y1="11.6688" x2="18.1423" y2="25.3077" gradientUnits="userSpaceOnUse">
<stop stop-color="#283947"/>
<stop offset="1" stop-color="#657786"/>
</linearGradient>
<clipPath id="clip0_1_15658">
<rect width="36" height="36" fill="white" transform="translate(0 0.689453)"/>
</clipPath>
</defs>
</svg>
