<svg width="36" height="37" viewBox="0 0 36 37" fill="none" xmlns="http://www.w3.org/2000/svg">
<g clip-path="url(#clip0_1_15943)">
<path d="M16.9343 35.6447L3.63593 27.6599C3.27593 27.4439 3.05273 27.0479 3.05273 26.6303V11.1719L5.64473 12.7415V25.1687C5.64473 25.5935 5.86793 25.9823 6.22793 26.1983L16.9199 32.6279L16.9343 35.6447Z" fill="#0380FF"/>
<path d="M32.9109 9.27964L25.4085 4.71484L22.8525 6.19084L30.5277 10.8636C30.9885 11.1444 31.2693 11.6484 31.2693 12.1884V20.8212L33.8613 19.3668V10.9788C33.8685 10.2876 33.5013 9.63964 32.9109 9.27964Z" fill="#0380FF"/>
<path d="M31.2768 25.0321C31.2768 25.4929 31.032 25.9249 30.636 26.1625L21.9096 31.3609C21.564 31.5625 21.132 31.3177 21.132 30.9217V16.9321L9.18722 9.93373C8.87042 9.74653 8.87762 9.29293 9.18722 9.11293L17.6976 4.16653C18.2736 3.83533 18.9792 3.84253 19.548 4.18813L21.384 5.30413L23.94 3.82813L19.7352 1.26493C19.0728 0.861729 18.252 0.854529 17.5824 1.24333L3.34082 9.51613L18.54 18.4153V36.3865L33.2208 27.6385C33.6168 27.4009 33.8616 26.9689 33.8616 26.5081V21.1801L31.2696 22.5697V25.0321H31.2768Z" fill="#0380FF"/>
</g>
<defs>
<clipPath id="clip0_1_15943">
<rect width="36" height="36" fill="white" transform="translate(0 0.689453)"/>
</clipPath>
</defs>
</svg>
