<svg width="36" height="37" viewBox="0 0 36 37" fill="none" xmlns="http://www.w3.org/2000/svg">
<g clip-path="url(#clip0_1_15754)">
<path d="M26.9996 15.6457C27.4967 15.6457 27.8996 15.2428 27.8996 14.7457C27.8996 14.2486 27.4967 13.8457 26.9996 13.8457C26.5026 13.8457 26.0996 14.2486 26.0996 14.7457C26.0996 15.2428 26.5026 15.6457 26.9996 15.6457Z" fill="black"/>
<path d="M18 0.683594C8.064 0.683594 0 8.74759 0 18.6836C0 28.6196 8.064 36.6836 18 36.6836C27.936 36.6836 36 28.6196 36 18.6836C36 8.74759 27.936 0.683594 18 0.683594ZM26.172 26.2076C24.048 28.5476 21.024 29.9012 17.892 29.9012H17.8704C14.6808 29.9012 11.6424 28.5332 9.5184 26.1572C7.3584 23.7452 6.3648 20.6492 6.7104 17.4236C7.272 12.2756 11.412 8.11399 16.56 7.52359C16.992 7.46599 17.4456 7.45159 17.8776 7.45159C20.3616 7.45159 22.7376 8.26519 24.7176 9.79159C24.8472 9.88519 24.9192 10.0292 24.9192 10.1876C24.9192 10.346 24.8616 10.4972 24.7392 10.6052L23.544 11.6636C23.4144 11.7716 23.256 11.8436 23.076 11.8436C22.932 11.8436 22.788 11.8076 22.68 11.714C21.2544 10.7204 19.584 10.202 17.8704 10.202C15.4584 10.202 13.1544 11.246 11.5488 13.046C9.9288 14.8676 9.1728 17.222 9.4608 19.6556C9.8928 23.5292 13.0248 26.6612 16.9128 27.0932C17.2368 27.1292 17.5608 27.1508 17.8848 27.1508C20.1528 27.1508 22.2768 26.2508 23.8968 24.6308C24.0264 24.5012 24.2064 24.4148 24.4008 24.4148C24.5304 24.4148 24.6744 24.4508 24.7824 24.5228L26.1 25.3868C26.2296 25.4804 26.316 25.6028 26.3376 25.7684C26.3304 25.9412 26.28 26.0996 26.172 26.2076ZM27 17.4596C25.5024 17.4596 24.2784 16.2356 24.2784 14.738C24.2784 13.2404 25.5024 12.0164 27 12.0164C28.4976 12.0164 29.7216 13.2404 29.7216 14.738C29.7216 16.2356 28.4904 17.4596 27 17.4596Z" fill="black"/>
</g>
<defs>
<clipPath id="clip0_1_15754">
<rect width="36" height="36" fill="white" transform="translate(0 0.689453)"/>
</clipPath>
</defs>
</svg>
