<svg width="36" height="37" viewBox="0 0 36 37" fill="none" xmlns="http://www.w3.org/2000/svg">
<g clip-path="url(#clip0_1_15905)">
<path d="M21.787 25.3207C27.5398 25.3207 32.2054 20.6551 32.2054 14.9023C32.2054 9.14945 27.547 4.47665 21.787 4.47665C16.027 4.47665 11.3686 9.14225 11.3686 14.8951C11.3686 20.6479 16.0342 25.3207 21.787 25.3207ZM21.787 29.1079C13.939 29.1079 7.57422 22.7431 7.57422 14.8951C7.58142 7.05425 13.939 0.689453 21.787 0.689453C29.635 0.689453 35.9998 7.05425 35.9998 14.9023C35.9998 22.7503 29.635 29.1079 21.787 29.1079Z" fill="#35D07F"/>
<path d="M14.2128 32.9021C19.9656 32.9021 24.6312 28.2365 24.6312 22.4837C24.6312 16.7309 19.9656 12.0653 14.2128 12.0653C8.46 12.0653 3.7872 16.7237 3.7872 22.4765C3.7872 28.2293 8.4528 32.9021 14.2128 32.9021ZM14.2128 36.6893C6.3648 36.6893 0 30.3245 0 22.4765C0 14.6285 6.3648 8.26367 14.2128 8.26367C22.0608 8.26367 28.4256 14.6285 28.4256 22.4765C28.4184 30.3245 22.0608 36.6893 14.2128 36.6893Z" fill="#FBCC5C"/>
</g>
<defs>
<clipPath id="clip0_1_15905">
<rect width="36" height="36" fill="white" transform="translate(0 0.689453)"/>
</clipPath>
</defs>
</svg>
