<svg width="36" height="37" viewBox="0 0 36 37" fill="none" xmlns="http://www.w3.org/2000/svg">
<path fill-rule="evenodd" clip-rule="evenodd" d="M33.1273 17.3942C33.4153 16.6166 34.6033 16.2494 35.3233 16.2494H35.6473V17.9774C35.2369 17.9774 34.8193 17.9558 34.4233 18.0926C34.1497 18.179 33.9049 18.3446 33.7249 18.5678C33.3865 19.0214 33.4153 19.295 33.3937 19.7198C33.3721 20.1302 33.3793 20.411 33.3793 20.8286V23.8886H31.4929V16.3286H33.1273V17.3942ZM10.1881 22.0886C8.8345 23.4134 7.6681 24.0542 5.7529 24.0542C2.5561 24.0542 0.345703 21.8222 0.345703 18.6758C0.345703 15.4502 2.8513 13.3262 5.7817 13.3262C7.4953 13.3262 9.1153 14.075 10.2313 15.371L8.8633 16.6814C7.9417 15.7022 6.9265 15.191 5.7313 15.191C3.8161 15.191 2.2465 16.667 2.2465 18.6758C2.2465 20.7782 3.7513 22.1894 5.7745 22.1894C7.0417 22.1894 7.8913 21.6782 8.8633 20.7134L10.1881 22.0886ZM18.2809 22.3694C17.4673 23.5214 16.4017 24.0398 14.8105 24.0398C12.4057 24.0398 10.8577 22.2758 10.8577 20.0582C10.8577 17.999 12.3481 16.091 14.7817 16.091C17.1721 16.091 18.7921 17.7974 18.7921 20.1878C18.7921 20.3606 18.7777 20.447 18.7777 20.6126H12.6937C12.8809 21.7358 13.7305 22.3622 14.8105 22.3622C15.6241 22.3622 16.1641 22.1318 16.6897 21.6206L18.2809 22.3694ZM16.8913 19.115C16.6321 18.2366 15.8257 17.6894 14.8105 17.6894C13.8745 17.6894 13.1473 18.1574 12.7801 19.115H16.8913ZM19.7569 13.3694H21.6505V23.8454H19.7569V13.3694ZM30.0241 22.3694C29.2105 23.5214 28.1449 24.0398 26.5537 24.0398C24.1489 24.0398 22.6009 22.2758 22.6009 20.0582C22.6009 17.999 24.0913 16.091 26.5249 16.091C28.9153 16.091 30.5353 17.7974 30.5353 20.1878C30.5353 20.3606 30.5209 20.447 30.5209 20.6126H24.4369C24.6241 21.7358 25.4737 22.3622 26.5537 22.3622C27.3673 22.3622 27.9073 22.1318 28.4329 21.6206L30.0241 22.3694ZM28.6345 19.115C28.3753 18.2366 27.5689 17.6894 26.5537 17.6894C25.6177 17.6894 24.8905 18.1574 24.5233 19.115H28.6345Z" fill="black"/>
</svg>
