<svg width="36" height="37" viewBox="0 0 36 37" fill="none" xmlns="http://www.w3.org/2000/svg">
<g clip-path="url(#clip0_1_15789)">
<path d="M19.1952 36.4951C18.7056 36.4951 18.216 36.4519 17.7264 36.3583L9.85681 34.8607C6.29281 34.1839 3.70801 31.0591 3.70801 27.4303V12.9799C3.70801 10.6255 4.74481 8.41511 6.55921 6.91031C7.53841 6.09671 8.69041 5.54231 9.90001 5.27591C10.368 4.25351 11.0592 3.33911 11.952 2.59751C13.6872 1.15751 15.9624 0.567113 18.18 0.984713L25.9056 2.43911C29.4768 3.10871 32.0688 6.23351 32.0688 9.86951V13.5775C32.0688 14.0023 31.8744 14.4127 31.5432 14.6791L26.388 18.8479C25.9632 19.1935 25.38 19.2583 24.8904 19.0279C24.4008 18.7903 24.084 18.2935 24.084 17.7535V14.2111C24.084 11.8855 22.4208 9.87671 20.1312 9.45191L12.5208 8.01911C12.3696 7.99031 12.2184 7.96871 12.0672 7.95431C12.0528 8.11271 12.0456 8.27111 12.0456 8.42951V23.2687C12.0456 25.5367 13.6656 27.4951 15.8904 27.9127L23.0472 29.2735C23.4072 29.3383 23.7672 29.3743 24.12 29.3671C24.1488 29.1439 24.1632 28.9135 24.1632 28.6831V23.7007C24.1632 23.2831 24.3504 22.8871 24.6672 22.6207L29.88 18.2359C30.3048 17.8831 30.888 17.8039 31.392 18.0343C31.8888 18.2647 32.2128 18.7687 32.2128 19.3159V24.0319C32.2128 26.4727 31.1328 28.7695 29.2536 30.3247C28.3824 31.0447 27.3816 31.5703 26.3232 31.8799C25.8408 32.9599 25.1064 33.9319 24.1704 34.7095C22.752 35.8759 20.9952 36.4951 19.1952 36.4951ZM9.21601 8.52311C8.91361 8.68151 8.63281 8.87591 8.36641 9.09191C7.20721 10.0567 6.53761 11.4679 6.53761 12.9799V27.4303C6.53761 29.6983 8.15761 31.6567 10.3824 32.0743L18.252 33.5719C19.7136 33.8527 21.2112 33.4639 22.3632 32.5135C22.5216 32.3839 22.6728 32.2399 22.8096 32.0959C22.7088 32.0815 22.6152 32.0671 22.5144 32.0455L15.3576 30.6847C11.7936 30.0079 9.20881 26.8831 9.20881 23.2543V8.52311H9.21601ZM27 24.3631V28.4743C27.1512 28.3735 27.3024 28.2655 27.4464 28.1431C28.6776 27.1279 29.376 25.6303 29.376 24.0319V22.3615L27 24.3631ZM13.248 5.27591L20.6568 6.66551C24.2856 7.34951 26.9136 10.5175 26.9136 14.2111V14.7871L29.232 12.9079V9.87671C29.232 7.60151 27.612 5.65031 25.3728 5.22551L17.6472 3.77831C16.2576 3.51911 14.8392 3.88631 13.752 4.78631C13.572 4.93751 13.4064 5.09591 13.248 5.27591Z" fill="#102FFF"/>
</g>
<defs>
<clipPath id="clip0_1_15789">
<rect width="36" height="36" fill="white" transform="translate(0 0.689453)"/>
</clipPath>
</defs>
</svg>
