<svg width="36" height="37" viewBox="0 0 36 37" fill="none" xmlns="http://www.w3.org/2000/svg">
<g clip-path="url(#clip0_1_15748)">
<path d="M18.0076 36.7183C27.9566 36.7183 36.022 28.6529 36.022 18.7039C36.022 8.75478 27.9566 0.689453 18.0076 0.689453C8.05849 0.689453 -0.00683594 8.75478 -0.00683594 18.7039C-0.00683594 28.6529 8.05849 36.7183 18.0076 36.7183Z" fill="#EDF0F2"/>
<path d="M29.4405 32.6149C26.6901 34.8757 23.3277 36.2725 19.7853 36.6253C15.0333 37.0933 10.2885 35.6605 6.59491 32.6293C2.89411 29.6053 0.554114 25.2277 0.0861137 20.4757C-0.266686 16.9333 0.446114 13.3621 2.12371 10.2157C3.80131 7.07646 6.37171 4.50605 9.51091 2.82125C12.6501 1.14365 16.2213 0.430855 19.7637 0.776455C23.3061 1.12205 26.6685 2.51165 29.4261 4.77245L25.7901 9.20765C23.9109 7.66685 21.6213 6.71645 19.2021 6.48605C16.7829 6.25565 14.3493 6.73805 12.2109 7.88285C10.0725 9.02765 8.31571 10.7845 7.17091 12.9301C6.02611 15.0757 5.54371 17.5093 5.78131 19.9213C6.10531 23.1613 7.69651 26.1421 10.2165 28.2085C12.7365 30.2749 15.9693 31.2541 19.2093 30.9301C21.6285 30.6925 23.9181 29.7421 25.7973 28.2013L29.4405 32.6149Z" fill="url(#paint0_linear_1_15748)"/>
<path d="M18.0572 34.5948C26.8052 34.5948 33.9044 27.5028 33.9044 18.7476C33.9044 9.99959 26.8124 2.90039 18.0572 2.90039C9.30916 2.90039 2.20996 9.99239 2.20996 18.7476C2.20996 27.4956 9.30916 34.5948 18.0572 34.5948Z" fill="white"/>
<path d="M18.1655 21.4907L22.8239 18.7907L17.2871 15.9395L18.1655 21.4907Z" fill="#AAB8C1"/>
<path d="M13.5068 18.7837L18.1652 21.4837V16.4941L13.5068 18.7837Z" fill="#AAB8C1"/>
<path d="M18.1652 11.1934L13.5068 18.7822L19.6124 16.0678L18.1652 11.1934Z" fill="#283947"/>
<path d="M18.166 11.1934V16.7014L22.8244 18.7822L18.166 11.1934Z" fill="#657786"/>
<path d="M18.1658 26.0983L18.7706 22.6927L13.5146 19.6543L18.1658 26.0983Z" fill="#283947"/>
<path d="M18.166 22.3543V26.0983L22.8244 19.6543L18.166 22.3543Z" fill="#657786"/>
</g>
<defs>
<linearGradient id="paint0_linear_1_15748" x1="12.9325" y1="2.66981" x2="18.5802" y2="33.9825" gradientUnits="userSpaceOnUse">
<stop stop-color="#27D3A2"/>
<stop offset="1" stop-color="#9388FD"/>
</linearGradient>
<clipPath id="clip0_1_15748">
<rect width="36" height="36" fill="white" transform="translate(0 0.689453)"/>
</clipPath>
</defs>
</svg>
