<svg width="36" height="37" viewBox="0 0 36 37" fill="none" xmlns="http://www.w3.org/2000/svg">
<path d="M35.8604 27.8125H26.7157V26.24H28.2997V24.6438H29.8837V8.62305H6.19423V11.035H1.54591V12.0114H0.145508V21.4758H0.865508V22.3398H6.19351V24.6438H7.74151V26.2638H10.9455V27.8118H1.44151V29.4318H4.57351V30.9798H32.6557V29.4318H35.8597V27.8125H35.8604ZM1.58623 20.6125V12.7904H6.19423V20.6118H1.58623V20.6125Z" fill="#A52639"/>
<path d="M31.4861 8.67969H14.1104V23.0898H15.6591V24.6702H17.2784V26.2412H28.3426V24.6702H29.9295V23.0898H31.4861V8.67969Z" fill="#DD3745"/>
<path d="M24.9102 7.26758H23.3398V18.627H24.9102V7.26758Z" fill="#FFAA6E"/>
<path d="M29.6484 12.4004H28.0781V18.8718H29.6484V12.4004Z" fill="#FFE091"/>
<path d="M24.921 19.9274V18.3398H23.3391V19.9274H21.7422V24.6521H26.5079V19.9274H24.921Z" fill="#431E66"/>
<path d="M35.8596 27.8125H14.0781V29.4145H35.8596V27.8125Z" fill="#DD3745"/>
<path d="M31.6586 27.8125H30.0566V29.4145H31.6586V27.8125Z" fill="#FFE091"/>
<path d="M31.9107 7.25586H5.9209V8.82402H31.9107V7.25586Z" fill="#CCE2E1"/>
</svg>
