<svg width="36" height="37" viewBox="0 0 36 37" fill="none" xmlns="http://www.w3.org/2000/svg">
<g clip-path="url(#clip0_1_15743)">
<path d="M0.303867 18.5818C0.263187 8.98525 8.18592 1.01895 17.7398 0.905552C27.424 0.79064 35.5649 8.58327 35.6633 18.3672C35.7629 28.2694 27.8539 36.3 17.914 36.2656C8.07432 36.2316 0.294435 28.228 0.303867 18.5818ZM12.9952 25.6678C13.3958 25.9006 13.6541 25.7241 13.9073 25.5602C14.2368 25.3468 14.5767 25.1434 14.8795 24.8957C15.4241 24.4503 15.9949 24.3452 16.7131 24.4069C18.992 24.6028 21.0794 24.0096 22.9078 22.6C26.487 19.8405 26.4605 14.8374 22.854 12.1089C20.0181 9.96344 16.0875 9.66802 13.048 11.4872C10.6899 12.8984 9.24202 14.934 9.43628 17.814C9.57682 19.8972 10.6157 21.5312 12.2858 22.7481C12.7295 23.0714 12.9003 23.4164 12.885 23.9531C12.8688 24.5171 12.7716 25.0991 12.9952 25.6678ZM24.0531 26.9396C24.4486 26.6442 24.4537 26.3902 24.4185 26.1558C24.316 25.475 24.6232 25.0541 25.1448 24.637C25.8107 24.1044 26.2878 23.3815 26.4687 22.526C26.7191 21.3417 26.6359 20.2206 25.6836 19.1977C25.3432 19.8601 25.1106 20.3692 25.2738 21.0666C25.5358 22.186 25.1266 23.1566 24.2359 23.8818C23.8189 24.2214 23.4125 24.5511 23.2363 25.0865C22.8458 24.9293 22.5439 24.7464 22.1494 24.7955C21.3963 24.8891 20.6592 24.8135 19.9164 24.5889C19.3638 24.4218 18.758 24.4385 18.2244 24.9291C18.9944 25.5887 19.8491 25.8677 20.7543 25.9484C21.9401 26.0539 23.1749 25.9216 24.0531 26.9396Z" fill="url(#paint0_linear_1_15743)"/>
<path d="M12.9954 25.6673C12.7717 25.0986 12.8689 24.5167 12.8851 23.9527C12.9004 23.416 12.7295 23.0709 12.2859 22.7477C10.6157 21.5307 9.57681 19.8968 9.43633 17.8135C9.24208 14.9336 10.6901 12.8981 13.0481 11.4867C16.0875 9.66757 20.0182 9.96299 22.854 12.1084C26.4605 14.8369 26.4871 19.8401 22.9079 22.5996C21.0795 24.0093 18.9922 24.6024 16.7132 24.4065C15.995 24.3448 15.4241 24.4497 14.8795 24.8953C14.5768 25.143 14.2369 25.3464 13.9073 25.5598C13.6542 25.7236 13.3959 25.9002 12.9954 25.6673ZM14.0257 23.7936C14.3662 23.6935 14.511 23.694 14.5858 23.622C15.1705 23.0594 15.8491 23.0599 16.6065 23.1512C18.2018 23.3437 19.7249 23.0496 21.1645 22.3059C25.1105 20.2673 25.4833 15.4184 21.8177 12.935C19.2147 11.1714 16.4049 11.093 13.6717 12.5814C9.88295 14.6447 9.54966 19.2447 12.9504 21.7554C13.6318 22.2585 14.3259 22.6659 14.0257 23.7936Z" fill="white"/>
<path d="M24.0534 26.9393C23.1752 25.9213 21.9403 26.0537 20.7545 25.948C19.8493 25.8673 18.9946 25.5883 18.2246 24.9288C18.7583 24.4382 19.364 24.4214 19.9166 24.5885C20.6594 24.8131 21.3966 24.8888 22.1496 24.7951C22.5442 24.7461 22.8461 24.9289 23.2365 25.0861C23.4127 24.5508 23.8192 24.221 24.2362 23.8814C25.1269 23.1563 25.5361 22.1856 25.2741 21.0662C25.1108 20.3688 25.3434 19.8597 25.6838 19.1973C26.6361 20.2202 26.7193 21.3412 26.4689 22.5256C26.288 23.3811 25.811 24.1041 25.145 24.6366C24.6235 25.0536 24.3162 25.4745 24.4187 26.1554C24.4541 26.3899 24.4489 26.6439 24.0534 26.9393Z" fill="white"/>
<path d="M14.0258 23.7934C14.326 22.6656 13.6318 22.2583 12.9505 21.7553C9.54974 19.2446 9.88302 14.6445 13.6718 12.5813C16.405 11.0928 19.2147 11.1713 21.8177 12.9349C25.4833 15.4183 25.1106 20.2672 21.1646 22.3058C19.725 23.0495 18.2019 23.3436 16.6066 23.1511C15.8492 23.0598 15.1706 23.0593 14.5858 23.6219C14.511 23.6939 14.3662 23.6933 14.0258 23.7934ZM22.0728 17.5191C22.0504 17.0174 21.6332 16.6185 21.1294 16.617C20.5948 16.6155 20.1439 17.0624 20.1484 17.5896C20.1527 18.1026 20.6412 18.5739 21.1467 18.5527C21.6578 18.5312 22.0961 18.042 22.0728 17.5191ZM14.8402 17.5296C14.819 17.0167 14.4109 16.6136 13.9078 16.6086C13.3915 16.6035 12.91 17.074 12.9096 17.5842C12.9092 18.0889 13.4078 18.5749 13.9094 18.5587C14.4269 18.5419 14.862 18.0607 14.8402 17.5296ZM18.5168 17.5779C18.5208 17.0369 18.0758 16.5877 17.5486 16.6008C17.036 16.6134 16.635 17.0059 16.6143 17.5152C16.5925 18.0519 17.021 18.5323 17.5344 18.5467C18.0592 18.5613 18.5129 18.114 18.5168 17.5779Z" fill="url(#paint1_linear_1_15743)"/>
<path d="M22.0729 17.5194C22.0962 18.0422 21.6579 18.5314 21.1468 18.5528C20.6413 18.5741 20.1528 18.1028 20.1485 17.5897C20.144 17.0626 20.5949 16.6157 21.1295 16.6172C21.6333 16.6187 22.0506 17.0177 22.0729 17.5194Z" fill="white"/>
<path d="M14.8396 17.5304C14.8615 18.0616 14.4264 18.5428 13.909 18.5595C13.4073 18.5757 12.9087 18.0898 12.9092 17.585C12.9096 17.0749 13.391 16.6043 13.9073 16.6094C14.4103 16.6145 14.8185 17.0176 14.8396 17.5304Z" fill="white"/>
<path d="M18.5166 17.579C18.5126 18.1151 18.059 18.5625 17.5342 18.5478C17.0209 18.5335 16.5923 18.053 16.6141 17.5162C16.6347 17.007 17.0358 16.6145 17.5484 16.6018C18.0755 16.5888 18.5206 17.0379 18.5166 17.579Z" fill="white"/>
</g>
<defs>
<linearGradient id="paint0_linear_1_15743" x1="17.9122" y1="1.1912" x2="18.0562" y2="36.0392" gradientUnits="userSpaceOnUse">
<stop stop-color="#1BD1FE"/>
<stop offset="0.999" stop-color="#1D6DF2"/>
</linearGradient>
<linearGradient id="paint1_linear_1_15743" x1="17.3134" y1="1.05394" x2="17.6734" y2="36.4779" gradientUnits="userSpaceOnUse">
<stop stop-color="#1BD1FE"/>
<stop offset="0.999" stop-color="#1D6DF2"/>
</linearGradient>
<clipPath id="clip0_1_15743">
<rect width="36" height="36" fill="white" transform="translate(0 0.689453)"/>
</clipPath>
</defs>
</svg>
