<svg width="36" height="37" viewBox="0 0 36 37" fill="none" xmlns="http://www.w3.org/2000/svg">
<g clip-path="url(#clip0_1_15741)">
<path d="M22.2193 1.26562L19.3033 2.88562V16.6448L20.8945 17.5304V7.04722L26.3521 10.0856H26.3593L27.4177 10.676L28.3033 10.1864V9.35843L20.8945 5.24002V3.80722L22.2193 3.07282L29.8945 7.34242V11.144L26.2081 13.1816L26.0857 13.124C25.8625 13.016 25.6321 12.9584 25.3945 12.9584C24.5161 12.9584 23.8033 13.664 23.8033 14.5352C23.8033 15.4064 24.5161 16.112 25.3945 16.112C26.2081 16.112 26.8849 15.5 26.9713 14.6936L26.9857 14.5568L30.7009 12.4976L34.1497 14.4128V22.9016L30.6937 24.8168L16.6609 17.0192V2.88562L13.7521 1.26562L4.48567 6.41362V11.1152L0.230469 13.484V23.8232L4.48567 26.192V30.9008L13.7521 36.0488L16.6681 34.4288V20.648L15.0769 19.7624V30.2672L8.55367 26.6456L7.66807 27.1352V27.9632L15.0769 32.0816V33.5144L13.7521 34.2416L6.07687 29.972V26.1704L9.76327 24.1328L9.88567 24.1904C10.1089 24.2984 10.3393 24.356 10.5769 24.356C11.4553 24.356 12.1681 23.6504 12.1681 22.7792C12.1681 21.908 11.4553 21.2024 10.5769 21.2024C9.76327 21.2024 9.08647 21.8144 9.00727 22.6208L8.99287 22.7576L5.27047 24.8168L1.82167 22.9016V14.4056L5.27767 12.4904L19.3105 20.2952V34.4288L22.2265 36.0488L31.4929 30.8936V26.192L35.7481 23.8304V13.4984L31.4857 11.1296V6.41362L22.2193 1.26562ZM6.07687 7.34242L13.7521 3.07282L15.0769 3.80722V5.24002L6.07687 10.2368V7.34242ZM6.89767 11.5904L15.0697 7.05442V16.1408L6.89767 11.5904ZM20.8945 21.1808L29.0665 25.724L20.8945 30.26V21.1808ZM20.8945 33.5072V32.0744L29.8945 27.0776V29.972L22.2193 34.2416L20.8945 33.5072Z" fill="url(#paint0_linear_1_15741)"/>
</g>
<defs>
<linearGradient id="paint0_linear_1_15741" x1="17.9828" y1="2.82456" x2="17.9828" y2="35.8824" gradientUnits="userSpaceOnUse">
<stop stop-color="#01C38C"/>
<stop offset="1" stop-color="#23A185"/>
</linearGradient>
<clipPath id="clip0_1_15741">
<rect width="36" height="36" fill="white" transform="translate(0 0.689453)"/>
</clipPath>
</defs>
</svg>
