<svg width="36" height="37" viewBox="0 0 36 37" fill="none" xmlns="http://www.w3.org/2000/svg">
<g clip-path="url(#clip0_1_15737)">
<path d="M32.2485 0.761719C31.2405 0.761719 30.3837 1.39532 30.0453 2.28812H5.95408C5.62288 1.39532 4.75888 0.761719 3.75088 0.761719C2.44768 0.761719 1.39648 1.81292 1.39648 3.11612C1.39648 4.41932 2.45488 5.47052 3.75088 5.47052C3.82288 5.47052 3.89488 5.46332 3.96688 5.46332L9.41728 16.7385C8.99968 17.1633 8.74768 17.7465 8.74768 18.3873C8.74768 19.6905 9.80608 20.7417 11.1021 20.7417C11.1813 20.7417 11.2677 20.7345 11.3469 20.7273L17.1069 32.6361C16.7037 33.0609 16.4589 33.6297 16.4589 34.2633C16.4589 35.5665 17.5173 36.6177 18.8133 36.6177C20.1165 36.6177 21.1677 35.5593 21.1677 34.2633C21.1677 33.5937 20.8869 32.9889 20.4405 32.5641L25.5021 20.7273C26.6901 20.6121 27.6261 19.6041 27.6261 18.3801C27.6261 17.8329 27.4389 17.3361 27.1293 16.9329L32.0397 5.46332C32.1117 5.47052 32.1837 5.47052 32.2557 5.47052C33.5589 5.47052 34.6101 4.41212 34.6101 3.11612C34.6029 1.81292 33.5517 0.761719 32.2485 0.761719ZM25.2645 16.0257C24.8973 16.0257 24.5517 16.1121 24.2421 16.2633L19.6989 13.1241L30.1965 5.54252L25.6893 16.0689C25.5525 16.0401 25.4157 16.0257 25.2645 16.0257ZM12.3549 16.3857C11.9949 16.1553 11.5629 16.0257 11.1021 16.0257C11.0373 16.0257 10.9797 16.0329 10.9221 16.0329L5.86768 5.58572L16.8333 13.1601L12.3549 16.3857ZM6.41488 3.94412H29.5773L18.2517 12.1233L6.41488 3.94412ZM18.8061 31.9017C18.7341 31.9017 18.6621 31.9089 18.5901 31.9089L12.8229 19.9857C13.2117 19.5681 13.4565 19.0065 13.4565 18.3873C13.4565 18.1497 13.4205 17.9265 13.3557 17.7105L18.2733 14.1537L23.0901 17.4801C22.9749 17.7609 22.9101 18.0633 22.9101 18.3801C22.9101 19.1649 23.2989 19.8561 23.8893 20.2881L18.9141 31.9089C18.8781 31.9089 18.8421 31.9017 18.8061 31.9017Z" fill="#B02728"/>
</g>
<defs>
<clipPath id="clip0_1_15737">
<rect width="36" height="36" fill="white" transform="translate(0 0.689453)"/>
</clipPath>
</defs>
</svg>
