<svg width="36" height="37" viewBox="0 0 36 37" fill="none" xmlns="http://www.w3.org/2000/svg">
<g clip-path="url(#clip0_1_15765)">
<path d="M2.52734 3.01494V16.5653C2.52734 17.0261 2.89454 17.4005 3.35534 17.4005L9.41774 17.3717C10.0513 17.3717 10.4401 16.6733 10.1233 16.1189L9.33854 14.7365C9.00014 14.1389 8.24414 13.9301 7.65374 14.2757L7.56734 14.3261C6.98414 14.6645 6.24254 14.4629 5.90414 13.8725C5.73134 13.5629 5.69534 13.1957 5.80334 12.8573L7.06334 9.01974C7.25774 8.42214 7.86974 8.06214 8.47454 8.19174L12.3769 8.99814C12.7153 9.07014 13.0105 9.28614 13.1905 9.59574C13.5289 10.1861 13.3273 10.9421 12.7441 11.2877L12.6577 11.3381C12.0673 11.6837 11.8657 12.4469 12.2041 13.0517L12.9745 14.4125C13.2913 14.9669 14.0761 14.9669 14.3929 14.4125L17.4241 9.12774C17.6545 8.72454 17.5177 8.21334 17.1289 7.98294L5.60174 1.20774C4.23374 0.401344 2.52734 1.40934 2.52734 3.01494Z" fill="#34C88A"/>
<path d="M32.306 16.9039L20.7716 10.1215C20.3756 9.89112 19.8716 10.0279 19.6484 10.4311L16.6388 15.7879C16.3292 16.3423 16.718 17.0407 17.3516 17.0407H19.3316C19.7852 17.0407 20.1524 16.6663 20.1524 16.2055V15.2839C20.1524 14.8231 20.5196 14.4487 20.9732 14.4487H21.5492C21.7868 14.4487 22.01 14.5495 22.1612 14.7295L25.1564 18.1711C25.43 18.4879 25.43 18.9631 25.1564 19.2799L22.1612 22.7287C22.0028 22.9087 21.7796 23.0095 21.5492 23.0095H20.9732C20.5196 23.0095 20.1524 22.6351 20.1524 22.1743V21.2527C20.1524 20.7919 19.7852 20.4175 19.3316 20.4175H17.3732C16.7396 20.4175 16.3508 21.1087 16.6604 21.6703L19.6412 26.9839C19.8644 27.3871 20.3684 27.5239 20.7644 27.2935L32.2988 20.5183C33.674 19.7119 33.674 17.7031 32.306 16.9039Z" fill="#34C88A"/>
<path d="M5.60147 36.185L17.1359 29.4098C17.5319 29.1794 17.6615 28.6682 17.4311 28.265L14.3783 22.937C14.0615 22.3826 13.2767 22.3826 12.9599 22.937L11.9663 24.6866C11.7431 25.0826 11.8727 25.5938 12.2687 25.8242L13.0535 26.285C13.4495 26.5154 13.5791 27.0266 13.3559 27.4226L13.0679 27.9266C12.9527 28.1354 12.7511 28.2794 12.5207 28.3298L8.09267 29.2514C7.68947 29.3378 7.27907 29.1002 7.14947 28.697L5.71667 24.3338C5.64467 24.1034 5.66627 23.8586 5.78147 23.6498L6.06947 23.1458C6.29267 22.7498 6.79667 22.6058 7.19267 22.8434L7.97747 23.3042C8.37347 23.5346 8.87027 23.3978 9.10067 23.0018L10.0799 21.2738C10.3967 20.7194 10.0007 20.021 9.37427 20.021L3.36227 19.9922C2.90867 19.9922 2.53427 20.3666 2.53427 20.8274V34.3778C2.51987 35.9906 4.23347 36.9914 5.60147 36.185Z" fill="#163F59"/>
</g>
<defs>
<clipPath id="clip0_1_15765">
<rect width="36" height="36" fill="white" transform="translate(0 0.689453)"/>
</clipPath>
</defs>
</svg>
