<svg width="36" height="37" viewBox="0 0 36 37" fill="none" xmlns="http://www.w3.org/2000/svg">
<g clip-path="url(#clip0_1_15758)">
<path d="M18.0001 1.0625C8.28003 1.0625 0.37207 8.97045 0.37207 18.6906C0.37207 28.4107 8.28003 36.3187 18.0001 36.3187C27.7203 36.3187 35.6282 28.4107 35.6282 18.6906C35.6282 8.97046 27.7201 1.0625 18.0001 1.0625ZM18.0001 33.5546C9.80416 33.5546 3.13617 26.8866 3.13617 18.6907C3.13617 10.4949 9.80433 3.82659 18.0001 3.82659C26.196 3.82659 32.8641 10.4946 32.8641 18.6906C32.8641 26.8866 26.1972 33.5546 18.0001 33.5546Z" fill="#F13D20"/>
<path d="M18 10.7775C13.6367 10.7775 10.0869 14.3273 10.0869 18.6908C10.0869 21.0529 11.128 23.1743 12.7741 24.6253C13.596 24.1991 14.4691 23.8799 15.372 23.6753C13.5843 22.7287 12.3632 20.8502 12.3632 18.691C12.3632 15.5828 14.892 13.0542 18 13.0542C21.108 13.0542 23.6367 15.5826 23.6367 18.6906C23.6367 20.85 22.4158 22.7285 20.628 23.6749C21.5309 23.8795 22.4039 24.1988 23.2258 24.6249C24.8718 23.1743 25.9132 21.0528 25.9132 18.6906C25.9132 14.3271 22.3633 10.7773 18 10.7773" fill="#F13D20"/>
<path d="M18.0005 5.73633C10.8578 5.73633 5.04688 11.5469 5.04688 18.6898C5.04688 22.3869 6.60625 25.7246 9.09886 28.0868C9.51524 27.3381 10.0649 26.6506 10.7258 26.0463C8.82739 24.1686 7.64842 21.5646 7.64842 18.6896C7.64842 12.9815 12.2924 8.33753 18.0005 8.33753C23.7087 8.33753 28.3524 12.9815 28.3524 18.6896C28.3524 21.5644 27.1735 24.1684 25.2747 26.0463C25.9358 26.6506 26.4856 27.3381 26.9022 28.0868C29.3946 25.7246 30.954 22.3869 30.954 18.6898C30.9538 11.5469 25.1429 5.73634 18.0005 5.73633Z" fill="#F13D20"/>
</g>
<defs>
<clipPath id="clip0_1_15758">
<rect width="36" height="36" fill="white" transform="translate(0 0.689453)"/>
</clipPath>
</defs>
</svg>
