<svg width="36" height="37" viewBox="0 0 36 37" fill="none" xmlns="http://www.w3.org/2000/svg">
<g clip-path="url(#clip0_1_15752)">
<path d="M18.5617 35.3871L29.6353 21.3975C29.8153 21.1743 29.6497 20.8359 29.3617 20.8359H6.45854C6.16334 20.8359 6.00494 21.1815 6.19214 21.4047L18.0217 35.3943C18.1657 35.5599 18.4249 35.5599 18.5617 35.3871Z" fill="white"/>
<path d="M18.2882 36.2083C17.9858 36.2083 17.6978 36.0787 17.4962 35.8411L5.66656 21.8587C5.40016 21.5491 5.34256 21.1243 5.51536 20.7499C5.68816 20.3827 6.04816 20.1523 6.45856 20.1523H29.3618C29.765 20.1523 30.1178 20.3755 30.2978 20.7355C30.4706 21.0955 30.4274 21.5131 30.1754 21.8299L19.1018 35.8195C18.9074 36.0643 18.6194 36.2083 18.3026 36.2155C18.3026 36.2083 18.2954 36.2083 18.2882 36.2083ZM7.20016 21.5347L18.2738 34.6315L28.6418 21.5347H7.20016Z" fill="black"/>
<path d="M29.491 20.1956L18.259 14.846C18.0646 14.7524 17.8342 14.7596 17.6398 14.8532L6.58778 20.5988C6.10538 20.8508 6.09098 21.5348 6.55898 21.8084L17.5966 28.31C17.8198 28.4396 18.0934 28.4396 18.3094 28.3028L29.563 21.4124C30.0238 21.1244 29.9878 20.4332 29.491 20.1956Z" fill="white"/>
<path d="M17.9426 29.0944C17.6978 29.0944 17.4602 29.0296 17.2442 28.9L6.20661 22.4056C5.77461 22.1536 5.51541 21.6784 5.52261 21.1744C5.53701 20.6704 5.81781 20.2168 6.26421 19.9864L17.3234 14.2408C17.705 14.0392 18.1658 14.032 18.5546 14.2192L29.7866 19.5688C30.2474 19.7848 30.5426 20.2384 30.5714 20.7424C30.6002 21.2464 30.3482 21.7288 29.9162 21.9952L18.6626 28.8856C18.4466 29.0224 18.1946 29.0944 17.9426 29.0944ZM17.9642 15.4648L6.90501 21.2104L17.9426 27.712L29.1962 20.8216L17.9642 15.4648Z" fill="black"/>
<path d="M18.5617 22.4184L29.6353 8.42879C29.8153 8.20559 29.6497 7.86719 29.3617 7.86719H6.45854C6.16334 7.86719 6.00494 8.21279 6.19214 8.43599L18.0217 22.4328C18.1657 22.5984 18.4249 22.5912 18.5617 22.4184Z" fill="white"/>
<path d="M18.2882 23.2468C17.9858 23.2468 17.6978 23.11 17.4962 22.8796L5.66656 8.88999C5.40016 8.58039 5.34256 8.15559 5.51536 7.78119C5.68816 7.41399 6.04816 7.18359 6.45856 7.18359H29.3618C29.765 7.18359 30.1178 7.40679 30.2978 7.76679C30.4706 8.12679 30.4274 8.54439 30.1754 8.86119L19.1018 22.8508C18.9074 23.0956 18.6194 23.2396 18.3026 23.2468C18.3026 23.2468 18.2954 23.2468 18.2882 23.2468ZM7.20016 8.56599L18.2738 21.6628L28.6418 8.56599H7.20016Z" fill="black"/>
<path d="M29.491 7.2288L18.259 1.8792C18.0646 1.7856 17.8342 1.7928 17.6398 1.8864L6.58778 7.6392C6.10538 7.8912 6.09098 8.5752 6.55898 8.8488L17.5966 15.3504C17.8198 15.48 18.0934 15.48 18.3094 15.3432L29.563 8.4528C30.0238 8.1576 29.9878 7.4664 29.491 7.2288Z" fill="white"/>
<path d="M17.9426 16.1276C17.6978 16.1276 17.4602 16.0628 17.2442 15.9332L6.20661 9.43879C5.77461 9.18679 5.51541 8.71159 5.52261 8.20759C5.53701 7.70359 5.81781 7.24999 6.26421 7.01959L17.3306 1.27399C17.7122 1.07239 18.173 1.06519 18.5618 1.25239L29.7938 6.60199C30.2546 6.81799 30.5498 7.27159 30.5786 7.77559C30.6074 8.27959 30.3554 8.76199 29.9234 9.02839L18.6698 15.9188C18.4466 16.0628 18.1946 16.1276 17.9426 16.1276ZM17.9642 2.50519L6.90501 8.25079L17.9426 14.7524L29.1962 7.86199L17.9642 2.50519Z" fill="black"/>
</g>
<defs>
<clipPath id="clip0_1_15752">
<rect width="36" height="36" fill="white" transform="translate(0 0.689453)"/>
</clipPath>
</defs>
</svg>
