<svg width="36" height="37" viewBox="0 0 36 37" fill="none" xmlns="http://www.w3.org/2000/svg">
<g clip-path="url(#clip0_1_15733)">
<path d="M29.7931 9.34366C29.6258 9.21694 29.6714 9.24991 29.4774 9.12003C29.4774 9.12003 29.9584 9.73447 30.1716 10.0688C30.7846 11.0302 30.7083 12.0596 29.9551 12.6554C29.1837 13.2656 27.9954 13.0769 27.2703 12.2221C26.9716 11.8698 26.7078 11.486 26.3913 11.1513C24.5977 9.2538 22.4309 8.11822 19.8126 7.78277C15.2966 7.20418 11.8502 8.95162 9.21546 12.5167C7.91377 14.278 7.28514 16.3708 7.26246 18.4743C7.23193 21.3129 8.14525 23.9527 9.99673 26.2235C10.3749 26.6872 10.7703 27.1143 11.181 27.5088C8.24339 22.8632 7.44793 15.5559 13.023 12.4951C13.0915 12.4723 13.16 12.459 13.2285 12.4499C15.0609 10.9131 17.3353 10.2267 19.8533 10.8603C21.8421 11.3607 23.6317 12.2081 24.8256 14.0074C25.8126 15.495 27.2347 16.186 29.0168 16.0644C29.454 16.0346 29.8607 15.9628 30.2393 15.8577C32.4176 14.2324 31.881 11.014 29.7931 9.34366Z" fill="url(#paint0_linear_1_15733)"/>
<path d="M35.3627 22.227C35.2312 21.2053 35.0619 20.1442 34.269 19.4413C32.0369 18.9189 29.5934 20.5141 29.3501 22.7968C29.6293 21.6892 30.5322 21.1712 31.6975 21.5005C32.3942 21.6974 32.7985 22.7464 32.4436 23.6067C31.7119 25.3809 30.4951 26.7256 28.6959 27.6826C28.1645 29.0604 27.7495 30.5614 26.9219 31.774C27.2266 31.4895 27.5577 31.3114 27.92 31.2139C29.6957 30.7361 31.2182 29.8624 32.5447 28.5999C34.372 26.8608 35.7065 24.9 35.3627 22.227Z" fill="url(#paint1_linear_1_15733)"/>
<path d="M33.1685 9.23893C32.3269 7.26793 30.6999 5.99274 29.0998 4.68594C26.0982 2.23441 22.5753 1.19271 18.7998 0.986001C17.4463 0.911913 16.0564 1.21417 14.7041 1.45983C9.96515 2.32074 6.31879 4.93779 3.67322 8.84963C1.21586 12.483 0.209298 16.5183 0.813738 20.9736C1.14393 23.407 1.86847 25.6436 3.04725 27.6607C6.11431 30.9167 10.2869 33.1509 14.7282 32.941C12.7316 32.5159 10.8655 31.6149 9.14371 30.2011C6.22252 27.8024 4.45485 24.7996 3.87093 21.0381C3.17296 16.5422 4.26254 12.6192 7.21641 9.16765C10.4028 5.44431 14.4835 3.80242 19.3017 4.01972C21.7973 4.13226 24.1859 4.8655 26.2585 6.30493C27.4323 7.12004 28.5612 8.01176 29.4775 9.1202C29.4775 9.1202 29.5992 9.18781 29.7932 9.34383C31.881 11.0142 32.4176 14.2326 30.2395 15.858C33.2245 15.03 34.3562 12.0204 33.1685 9.23893Z" fill="url(#paint2_linear_1_15733)"/>
<path d="M3.04688 27.6602C3.54548 28.5134 4.12371 29.3281 4.79036 30.1007C8.26292 34.1247 12.6017 36.4608 18.0736 36.2269C18.3219 36.2163 18.5673 36.199 18.8101 36.1764C21.917 35.137 24.1865 32.3101 25.1404 29.1326C24.4327 30.5021 23.509 31.7881 22.0079 32.1476C22.0128 32.1926 22.0177 32.2376 22.0226 32.2826C21.1265 32.5712 20.2485 33.0139 19.3313 33.1214C18.0523 33.2712 16.8151 33.2655 15.622 33.0984C15.3211 33.0563 15.0231 33.0033 14.7278 32.9405C10.2865 33.1503 6.11393 30.9161 3.04688 27.6602Z" fill="url(#paint3_linear_1_15733)"/>
<path d="M33.8017 19.1093C32.5856 18.4378 31.2362 18.3198 29.8947 18.5588C28.8544 18.7442 27.8133 19.2001 27.3091 20.1438C26.7259 21.2356 26.2885 22.4448 26.0178 23.6546C25.6732 25.1943 25.5129 26.776 25.2857 28.398C25.2676 28.5272 25.25 28.656 25.2309 28.7857C25.2264 28.7861 25.2219 28.7864 25.2174 28.7867C25.2157 28.8245 25.2126 28.8624 25.208 28.9005C25.199 28.9764 25.182 29.053 25.1409 29.1325C24.1869 32.31 21.9174 35.1369 18.8105 36.1763C21.9359 35.8858 24.6051 34.5978 26.6321 32.0854C26.7259 31.9693 26.8223 31.8656 26.9215 31.773C27.7492 30.5604 28.1641 29.0594 28.6955 27.6816C28.6844 27.6875 28.674 27.6938 28.6628 27.6997C28.8868 26.0573 29.0916 24.5864 29.2869 23.1141C29.3017 23.0025 29.3241 22.8976 29.3497 22.7957C29.5929 20.5131 32.0364 18.9179 34.2687 19.4403C34.1319 19.319 33.9787 19.2071 33.8017 19.1093Z" fill="url(#paint4_linear_1_15733)"/>
<path d="M24.8046 28.8178C22.2239 28.9992 19.8778 28.8334 17.6005 27.9316C14.3586 26.6478 11.792 24.7303 10.6855 21.2228C9.67095 18.0067 10.4012 15.1566 12.7204 12.9079C12.8858 12.7475 13.0557 12.5948 13.2293 12.4492C13.1608 12.4582 13.0923 12.4715 13.0238 12.4944C7.44882 15.5552 8.24427 22.8625 11.1819 27.5081C14.144 30.3533 17.9174 31.4751 21.9924 31.9953C21.9935 32.0057 21.9947 32.0162 21.9958 32.0266C22.0002 32.0668 22.0046 32.107 22.0089 32.1473C23.51 31.7878 24.4338 30.5018 25.1414 29.1323C25.1646 29.0552 25.1868 28.9778 25.2086 28.9003C25.2132 28.8622 25.2163 28.8243 25.218 28.7865C25.0794 28.798 24.9418 28.8081 24.8046 28.8178Z" fill="url(#paint5_linear_1_15733)"/>
</g>
<defs>
<linearGradient id="paint0_linear_1_15733" x1="30.9616" y1="19.4647" x2="13.6662" y2="17.43" gradientUnits="userSpaceOnUse">
<stop offset="0.000478316" stop-color="#441FC0"/>
<stop offset="0.5198" stop-color="#2773C8"/>
<stop offset="1" stop-color="#93E9FC"/>
</linearGradient>
<linearGradient id="paint1_linear_1_15733" x1="36.1214" y1="18.4933" x2="26.9651" y2="30.829" gradientUnits="userSpaceOnUse">
<stop offset="0.000478316" stop-color="#7446CB"/>
<stop offset="0.5198" stop-color="#9C4DC2"/>
<stop offset="0.9995" stop-color="#6377F0"/>
</linearGradient>
<linearGradient id="paint2_linear_1_15733" x1="33.8742" y1="15.1761" x2="-1.22525" y2="18.7369" gradientUnits="userSpaceOnUse">
<stop offset="0.000478316" stop-color="#B17DFF"/>
<stop offset="0.3166" stop-color="#5491EC"/>
<stop offset="0.6716" stop-color="#92F7FD"/>
<stop offset="1" stop-color="#7FDDFB"/>
</linearGradient>
<linearGradient id="paint3_linear_1_15733" x1="23.5122" y1="33.427" x2="4.39427" y2="29.0073" gradientUnits="userSpaceOnUse">
<stop offset="0.000478316" stop-color="#003985"/>
<stop offset="0.5198" stop-color="#5DBFF6"/>
<stop offset="1" stop-color="#0BA0B7"/>
</linearGradient>
<linearGradient id="paint4_linear_1_15733" x1="18.8106" y1="27.3108" x2="34.2686" y2="27.3108" gradientUnits="userSpaceOnUse">
<stop offset="0.000478316" stop-color="#B77FFF"/>
<stop offset="0.5198" stop-color="#648DFA"/>
<stop offset="1" stop-color="#3B94E2"/>
</linearGradient>
<linearGradient id="paint5_linear_1_15733" x1="11.492" y1="19.655" x2="25.4707" y2="28.8028" gradientUnits="userSpaceOnUse">
<stop offset="0.000478316" stop-color="#006A8E"/>
<stop offset="0.5198" stop-color="#60C5F9"/>
<stop offset="1" stop-color="#216DC0"/>
</linearGradient>
<clipPath id="clip0_1_15733">
<rect width="36" height="36" fill="white" transform="translate(0 0.689453)"/>
</clipPath>
</defs>
</svg>
