<svg width="36" height="37" viewBox="0 0 36 37" fill="none" xmlns="http://www.w3.org/2000/svg">
<g clip-path="url(#clip0_1_15814)">
<path d="M18.0286 2.66964C26.8558 2.66964 34.0126 9.82644 34.0126 18.6536C34.0126 27.4808 26.8558 34.6376 18.0286 34.6376C9.20144 34.6376 2.04464 27.4808 2.04464 18.6536C2.04464 9.82644 9.20144 2.66964 18.0286 2.66964ZM18.0286 0.898438C15.631 0.898438 13.3054 1.36644 11.1166 2.29524C8.99984 3.18804 7.10624 4.46244 5.47184 6.09684C3.83744 7.73124 2.56304 9.62484 1.67024 11.7416C0.741438 13.9304 0.273438 16.256 0.273438 18.6536C0.273438 21.0512 0.741438 23.3768 1.67024 25.5656C2.56304 27.6824 3.84464 29.576 5.47184 31.2104C7.09904 32.8376 8.99984 34.1192 11.1166 35.012C13.3054 35.9408 15.631 36.4088 18.0286 36.4088C20.4262 36.4088 22.7518 35.9408 24.9406 35.012C27.0574 34.1192 28.951 32.8376 30.5854 31.2104C32.2126 29.5832 33.4942 27.6824 34.387 25.5656C35.3158 23.3768 35.7838 21.0512 35.7838 18.6536C35.7838 16.256 35.3158 13.9304 34.387 11.7416C33.4942 9.62484 32.2126 7.73124 30.5854 6.09684C28.9582 4.46244 27.0574 3.18804 24.9406 2.29524C22.7518 1.36644 20.4262 0.898438 18.0286 0.898438Z" fill="black"/>
<path d="M18.0287 20.2723C18.8757 20.2723 19.5623 19.5857 19.5623 18.7387C19.5623 17.8917 18.8757 17.2051 18.0287 17.2051C17.1817 17.2051 16.4951 17.8917 16.4951 18.7387C16.4951 19.5857 17.1817 20.2723 18.0287 20.2723Z" fill="black"/>
</g>
<defs>
<clipPath id="clip0_1_15814">
<rect width="36" height="36" fill="white" transform="translate(0 0.689453)"/>
</clipPath>
</defs>
</svg>
