<svg width="36" height="37" viewBox="0 0 36 37" fill="none" xmlns="http://www.w3.org/2000/svg">
<g clip-path="url(#clip0_1_15467)">
<path d="M2.26855 16.7145C2.26855 16.7145 2.68896 11.7391 6.78468 7.55956C11.6871 2.55686 16.1805 2.99447 16.1805 2.99447L16.0069 0.861328C16.0069 0.861328 18.517 1.52344 20.9732 3.68841C23.3541 5.78692 24.1012 7.82034 24.1012 7.82034C24.1012 7.82034 22.4181 8.10014 20.4921 8.96176C18.1723 9.99964 17.2401 12.0082 17.2401 12.0082L16.9044 9.69472C16.9044 9.69472 14.0454 9.69134 11.5647 12.4039C9.084 15.1164 9.00991 17.1132 9.01279 17.5964C9.01359 17.7357 8.22735 16.6221 7.72831 15.3035C7.28458 14.131 7.12157 12.7431 7.12157 12.7431C7.12157 12.7431 5.65673 13.3214 4.50091 14.2924C3.12175 15.4513 2.26855 16.7145 2.26855 16.7145Z" fill="url(#paint0_linear_1_15467)"/>
<path d="M15.9336 34.2689C15.9336 34.2689 10.9611 33.8162 6.80818 29.6934C1.83744 24.7585 2.30415 20.2682 2.30415 20.2682L0.169922 20.4279C0.169922 20.4279 0.848306 17.922 3.02919 15.4799C5.14311 13.1127 7.18135 12.3789 7.18135 12.3789C7.18135 12.3789 7.4502 14.0638 8.29937 15.9953C9.32213 18.3218 11.3246 19.2671 11.3246 19.2671L9.00907 19.5878C9.00907 19.5878 8.98719 22.4467 11.6835 24.9449C14.3798 27.4432 16.3761 27.5302 16.8593 27.5305C16.9986 27.5306 15.88 28.3096 14.5581 28.8001C13.3827 29.2362 11.9938 29.3902 11.9938 29.3902C11.9938 29.3902 12.5627 30.8588 13.5262 32.0209C14.6758 33.4074 15.9336 34.2689 15.9336 34.2689Z" fill="url(#paint1_linear_1_15467)"/>
<path d="M33.7748 20.6605C33.7748 20.6605 33.3204 25.6329 29.1961 29.7842C24.2596 34.7532 19.7694 34.285 19.7694 34.285L19.9283 36.4193C19.9283 36.4193 17.4228 35.7399 14.9814 33.5583C12.615 31.4435 11.8818 29.405 11.8818 29.405C11.8818 29.405 13.5669 29.1367 15.4987 28.2883C17.8255 27.2663 18.7714 25.2642 18.7714 25.2642L19.0913 27.5799C19.0913 27.5799 21.9502 27.6028 24.4494 24.9074C26.9486 22.212 27.0363 20.2157 27.0368 19.7325C27.037 19.5931 27.8156 20.7121 28.3056 22.0341C28.7414 23.2096 28.8948 24.5986 28.8948 24.5986C28.8948 24.5986 30.3636 24.0302 31.526 23.0671C32.913 21.9179 33.7748 20.6605 33.7748 20.6605Z" fill="url(#paint2_linear_1_15467)"/>
<path d="M19.9763 2.94922C19.9763 2.94922 24.9491 3.39879 29.1045 7.51906C34.0783 12.4508 33.6144 16.9415 33.6144 16.9415L35.7485 16.7804C35.7485 16.7804 35.0716 19.2866 32.8923 21.7301C30.7799 24.0986 28.7421 24.8338 28.7421 24.8338C28.7421 24.8338 28.4723 23.149 27.6219 21.218C26.5977 18.8922 24.5946 17.9481 24.5946 17.9481L26.9099 17.626C26.9099 17.626 26.9301 14.7671 24.2322 12.2706C21.5343 9.77403 19.5379 9.6882 19.0547 9.6882C18.9154 9.6882 20.0336 8.90844 21.3551 8.41719C22.5302 7.98029 23.9191 7.82549 23.9191 7.82549C23.9191 7.82549 23.3493 6.35727 22.3851 5.19583C21.2345 3.80976 19.9763 2.94922 19.9763 2.94922Z" fill="url(#paint3_linear_1_15467)"/>
</g>
<defs>
<linearGradient id="paint0_linear_1_15467" x1="24.0212" y1="6.79414" x2="6.91902" y2="10.4173" gradientUnits="userSpaceOnUse">
<stop stop-color="#537CC1"/>
<stop offset="1" stop-color="#3C3D95"/>
</linearGradient>
<linearGradient id="paint1_linear_1_15467" x1="6.15618" y1="12.4523" x2="9.66768" y2="29.5774" gradientUnits="userSpaceOnUse">
<stop stop-color="#537CC1"/>
<stop offset="1" stop-color="#3C3D95"/>
</linearGradient>
<linearGradient id="paint2_linear_1_15467" x1="11.9548" y1="30.4302" x2="29.0812" y2="26.9247" gradientUnits="userSpaceOnUse">
<stop stop-color="#537CC1"/>
<stop offset="1" stop-color="#3C3D95"/>
</linearGradient>
<linearGradient id="paint3_linear_1_15467" x1="29.7672" y1="24.7597" x2="26.2451" y2="7.63668" gradientUnits="userSpaceOnUse">
<stop stop-color="#537CC1"/>
<stop offset="1" stop-color="#3C3D95"/>
</linearGradient>
<clipPath id="clip0_1_15467">
<rect width="36" height="36" fill="white" transform="translate(0 0.689453)"/>
</clipPath>
</defs>
</svg>
