<svg width="36" height="37" viewBox="0 0 36 37" fill="none" xmlns="http://www.w3.org/2000/svg">
<g clip-path="url(#clip0_1_15643)">
<path d="M17.9925 36.7045C27.9358 36.7045 35.9998 28.6405 35.9998 18.6973C35.9998 8.75407 27.9358 0.697266 17.9925 0.697266C8.04935 0.697266 -0.0146484 8.75407 -0.0146484 18.7045C-0.0146484 28.6477 8.04935 36.7045 17.9925 36.7045Z" fill="#070A0E"/>
<path fill-rule="evenodd" clip-rule="evenodd" d="M10.3898 24.7371C9.84976 24.4059 9.51855 23.8227 9.51855 23.1891V19.6683C9.51855 19.5315 9.55456 19.4019 9.61936 19.2867C9.82816 18.9267 10.2962 18.8043 10.6562 19.0131L18.5978 23.6427C19.0586 23.9163 19.3466 24.4131 19.3466 24.9459V28.5891C19.3466 28.7547 19.3034 28.9203 19.217 29.0643C18.9578 29.4891 18.3962 29.6259 17.9714 29.3667L10.3898 24.7371ZM22.2266 18.0555C22.6874 18.3291 22.9754 18.8259 22.9754 19.3587V26.7531C22.9754 26.9691 22.8602 27.1707 22.6658 27.2787L20.9306 28.2651C20.909 28.2795 20.8874 28.2867 20.8586 28.2939V24.1899C20.8586 23.6571 20.5778 23.1675 20.1242 22.8939L13.1546 18.7251V14.0811C13.1546 13.9443 13.1906 13.8147 13.2554 13.6995C13.4642 13.3395 13.9322 13.2171 14.2922 13.4259L22.2266 18.0555ZM25.697 12.5979C26.165 12.8643 26.453 13.3683 26.453 13.9083V24.7083C26.453 24.9315 26.3306 25.1331 26.1362 25.2411L24.4874 26.1339V18.6099C24.4874 18.0771 24.2066 17.5875 23.753 17.3139L16.625 13.0371V8.63793C16.625 8.50113 16.661 8.37153 16.7258 8.25633C16.9346 7.89633 17.4026 7.77393 17.7626 7.98273L25.697 12.5979Z" fill="#00D395"/>
</g>
<defs>
<clipPath id="clip0_1_15643">
<rect width="36" height="36" fill="white" transform="translate(0 0.689453)"/>
</clipPath>
</defs>
</svg>
