<svg width="36" height="37" viewBox="0 0 36 37" fill="none" xmlns="http://www.w3.org/2000/svg">
<g clip-path="url(#clip0_1_15728)">
<path d="M34.5383 21.3029L20.6711 35.1701C19.1951 36.6461 16.8047 36.6461 15.3287 35.1701L1.46149 21.3029C-0.0145078 19.8269 -0.0145078 17.4365 1.46149 15.9605L15.3287 2.09333C16.8047 0.617328 19.1951 0.617328 20.6711 2.09333L34.5383 15.9605C36.0143 17.4365 36.0143 19.8269 34.5383 21.3029Z" fill="#1765FE"/>
<path d="M21.4053 18.0425V23.0969C21.4053 23.3201 21.2253 23.5001 21.0021 23.5001H14.8605C14.6373 23.5001 14.4573 23.3201 14.4573 23.0969V14.2193C14.4573 13.9961 14.6373 13.8161 14.8605 13.8161H21.4053V16.1705L24.1413 14.5937V13.8017C24.1413 12.2969 22.9245 11.0801 21.4197 11.0801H14.8533C13.1253 11.0801 11.7285 12.4769 11.7285 14.2049V23.1041C11.7285 24.8321 13.1253 26.2289 14.8533 26.2289H21.0165C22.7445 26.2289 24.1413 24.8321 24.1413 23.1041V16.4585L21.4053 18.0425Z" fill="white"/>
</g>
<defs>
<clipPath id="clip0_1_15728">
<rect width="36" height="36" fill="white" transform="translate(0 0.689453)"/>
</clipPath>
</defs>
</svg>
