<svg width="36" height="37" viewBox="0 0 36 37" fill="none" xmlns="http://www.w3.org/2000/svg">
<g clip-path="url(#clip0_1_15640)">
<path d="M18 36.6251C27.8775 36.6251 35.8848 28.6178 35.8848 18.7403C35.8848 8.86277 27.8775 0.855469 18 0.855469C8.12253 0.855469 0.115234 8.86277 0.115234 18.7403C0.115234 28.6178 8.12253 36.6251 18 36.6251Z" fill="url(#paint0_linear_1_15640)"/>
<path d="M15.0121 20.6767C15.5449 21.3895 15.9913 21.9798 16.4593 22.5991C16.3441 22.7718 16.2505 22.9303 16.1353 23.0815C15.3721 24.1255 14.5513 25.1407 13.8457 26.2207C12.7081 27.9703 12.8665 30.1375 14.1553 31.7215C15.4729 33.3415 17.5969 33.9463 19.5121 33.2479C21.4705 32.5351 22.7449 30.6991 22.7089 28.6327C22.6873 27.6103 22.3129 26.7103 21.7153 25.9039C19.5193 22.9519 17.3017 20.007 15.0985 17.0623C14.1481 15.8022 13.1905 14.5494 12.2401 13.2822C9.17286 9.17105 11.1385 3.44705 16.0921 2.08625C20.5921 0.862249 25.1569 4.47665 24.9841 9.13505C24.9337 10.5895 24.5233 11.9142 23.6449 13.0878C22.7593 14.2687 21.8809 15.4494 20.9953 16.6302C20.9233 16.7238 20.8369 16.8031 20.7145 16.9398C20.2393 16.3134 19.7857 15.7158 19.3105 15.0822C20.0233 14.1462 20.7001 13.2175 21.4057 12.3174C22.1617 11.3598 22.7233 10.3375 22.7377 9.07745C22.7593 6.91745 21.4345 5.03825 19.4113 4.37585C17.4457 3.72785 15.2425 4.44065 14.0329 6.11105C12.7657 7.85345 12.7729 10.1286 14.0761 11.8638C15.7105 14.0454 17.3665 16.2199 19.0009 18.4015C20.5057 20.403 21.9961 22.4191 23.4937 24.4207C26.8345 28.8847 24.2497 34.4431 19.6705 35.6311C16.9489 36.3367 13.9609 35.3215 12.2473 33.0679C10.4977 30.7639 10.2313 27.6751 11.7361 25.2631C12.6937 23.7006 13.8601 22.2679 15.0121 20.6767Z" fill="white"/>
</g>
<defs>
<linearGradient id="paint0_linear_1_15640" x1="0.112635" y1="18.7394" x2="35.8825" y2="18.7394" gradientUnits="userSpaceOnUse">
<stop stop-color="#D69AC5"/>
<stop offset="1" stop-color="#253E90"/>
</linearGradient>
<clipPath id="clip0_1_15640">
<rect width="36" height="36" fill="white" transform="translate(0 0.689453)"/>
</clipPath>
</defs>
</svg>
