<svg width="36" height="37" viewBox="0 0 36 37" fill="none" xmlns="http://www.w3.org/2000/svg">
<g clip-path="url(#clip0_1_15887)">
<path d="M0.8496 15.6728C0.2592 15.6728 0 15.932 0 16.4576C0 16.4576 0 28.2656 0 29.9648C0 30.5552 0.2592 30.7496 0.8496 30.7496C7.344 30.8144 15.2784 25.0472 21.8376 20.5184V4.91602C15.3432 9.38002 7.2144 15.7376 0.8496 15.6728Z" fill="url(#paint0_linear_1_15887)"/>
<path d="M35.0212 21.7707C35.6116 21.7707 35.8708 21.5115 35.8708 20.9859C35.8708 20.9859 35.8708 9.1779 35.8708 7.4787C35.8708 6.8883 35.6116 6.6939 35.0212 6.6939C28.462 6.6291 20.5924 12.3963 14.0332 16.9251V32.4699C20.5276 27.9987 28.6636 21.6411 35.0212 21.7707Z" fill="url(#paint1_linear_1_15887)"/>
<path d="M21.8374 20.5263V11.6055C19.1518 13.3119 16.459 15.1479 13.9678 16.8543V25.7751C16.7254 24.0687 19.3462 22.2327 21.8374 20.5263Z" fill="#194AAD"/>
</g>
<defs>
<linearGradient id="paint0_linear_1_15887" x1="12.9174" y1="28.8346" x2="9.09396" y2="7.16602" gradientUnits="userSpaceOnUse">
<stop offset="0.1" stop-color="#194AAD"/>
<stop offset="0.5" stop-color="#248FCB"/>
<stop offset="0.8" stop-color="#2BBFDF"/>
</linearGradient>
<linearGradient id="paint1_linear_1_15887" x1="27.3796" y1="5.26029" x2="22.3236" y2="33.931" gradientUnits="userSpaceOnUse">
<stop offset="0.1" stop-color="#194AAD"/>
<stop offset="0.5" stop-color="#248FCB"/>
<stop offset="0.8" stop-color="#2BBFDF"/>
</linearGradient>
<clipPath id="clip0_1_15887">
<rect width="36" height="36" fill="white" transform="translate(0 0.689453)"/>
</clipPath>
</defs>
</svg>
