<svg width="36" height="37" viewBox="0 0 36 37" fill="none" xmlns="http://www.w3.org/2000/svg">
<g clip-path="url(#clip0_1_15724)">
<path d="M33.0023 18.6264C33.0045 25.2498 27.6392 30.606 21.0236 30.5848C14.4639 30.5638 9.10537 25.2423 9.09147 18.7352C9.07736 12.1498 14.3955 6.71514 20.8423 6.72687C27.6483 6.73911 33.0001 11.9763 33.0023 18.6264ZM10.8716 18.6547C10.8904 24.3035 15.4386 28.8345 21.0716 28.8161C26.7258 28.7976 31.2407 24.2383 31.2135 18.5744C31.1867 12.9945 26.5921 8.49469 20.9386 8.51118C15.4318 8.5273 10.8532 13.1406 10.8716 18.6547ZM30.8347 6.03502C31.4014 6.46774 31.924 6.44838 32.2742 5.9865C32.6034 5.55234 32.4643 5.02926 31.9094 4.60662C29.203 2.54482 26.1654 1.31326 22.7725 1.00064C17.8848 0.55028 13.5377 1.90071 9.72039 4.97482C9.26953 5.33792 9.20329 5.86712 9.53564 6.28134C9.85849 6.68367 10.4121 6.72349 10.8558 6.36169C13.8201 3.94443 17.2154 2.73123 20.8711 2.70085C24.6745 2.7241 27.9424 3.8265 30.8347 6.03502ZM7.04379 29.563C7.42352 30.0539 7.93479 30.1585 8.35549 29.8399C8.78691 29.5131 8.81938 28.9864 8.43893 28.486C3.98573 22.6293 3.9038 15.0455 8.22927 9.09279C8.57149 8.62184 8.53369 8.09149 8.13653 7.79218C7.70209 7.46473 7.15114 7.56582 6.7946 8.04858C4.46252 11.2064 3.3062 14.7546 3.27344 18.8988C3.32132 22.7228 4.56397 26.3573 7.04379 29.563ZM31.655 32.8906C32.1426 32.5326 32.2458 32.0099 31.9209 31.5806C31.6085 31.1679 31.0801 31.1299 30.6043 31.4859C24.886 35.7653 16.8956 35.6863 11.2338 31.2943C10.6977 30.8785 10.1984 30.8853 9.85733 31.3131C9.5162 31.741 9.63406 32.2728 10.165 32.6803C13.3581 35.1315 16.9734 36.3524 20.9944 36.4015C24.9264 36.3797 28.4829 35.2196 31.655 32.8906ZM18.6667 3.99634C16.6477 4.33381 14.7577 5.02263 13.0469 6.14979C9.17204 8.7027 6.92254 12.2907 6.28995 16.8884C6.21867 17.4066 6.56996 17.8556 7.06409 17.9127C7.55521 17.9695 7.97741 17.6356 8.04553 17.1234C8.30638 15.161 8.92508 13.3235 10.0091 11.662C12.1245 8.41981 15.1045 6.47156 18.9105 5.78166C19.4096 5.69122 19.6937 5.40754 19.7224 4.99023C19.7389 4.32618 19.2364 3.90116 18.6667 3.99634ZM6.39471 21.1471C7.36534 27.2306 12.3599 32.2422 18.4681 33.2628C19.1439 33.3757 19.602 33.1227 19.694 32.5857C19.7888 32.0325 19.4405 31.6545 18.7511 31.5214C14.7449 30.7482 11.7033 28.6026 9.65041 25.076C8.87907 23.751 8.38976 22.3183 8.1415 20.8036C8.05157 20.2549 7.6555 19.9253 7.14617 19.9965C6.64707 20.0663 6.3968 20.3831 6.36728 20.8562C6.37793 20.9715 6.38081 21.0601 6.39471 21.1471ZM21.8035 4.69165C21.7324 5.2099 22.082 5.58978 22.6286 5.70166C23.5252 5.88519 24.4364 6.03682 25.3028 6.32C27.4708 7.02855 29.2981 8.28164 30.8252 9.97566C31.1887 10.3789 31.7387 10.4334 32.0989 10.0953C32.4931 9.72531 32.5555 9.2666 32.2011 8.86578C29.6858 6.02199 26.5222 4.39875 22.8334 3.9093C22.2323 3.91282 21.8786 4.14409 21.8035 4.69165ZM26.2181 32.5523C28.3972 31.7926 30.2651 30.5225 31.8492 28.8413C32.2188 28.4491 32.2248 27.9001 31.8703 27.5604C31.512 27.2171 30.9648 27.2386 30.5855 27.6124C30.4723 27.7239 30.3655 27.8419 30.252 27.953C28.1085 30.0546 25.5379 31.2649 22.5679 31.6593C22.0309 31.7307 21.7597 32.099 21.8266 32.6377C21.889 33.1398 22.2285 33.3764 22.7566 33.5001C23.9121 33.1891 25.0911 32.9453 26.2181 32.5523ZM24.4923 17.6155C24.4923 16.3169 24.4945 15.0183 24.4912 13.7197C24.4897 13.165 24.1353 12.7847 23.6301 12.7811C23.1325 12.7775 22.7647 13.1733 22.7648 13.7206C22.7654 16.3 22.7669 18.8794 22.7701 21.4587C22.7708 22.0399 23.1117 22.4193 23.6294 22.4265C24.1331 22.4336 24.4857 22.0396 24.4868 21.4581C24.4891 20.1773 24.4875 18.8963 24.4875 17.6154C24.4891 17.6155 24.4907 17.6155 24.4923 17.6155ZM19.5243 19.211C19.5243 19.9701 19.5233 20.7291 19.5247 21.4882C19.5257 22.044 19.8819 22.433 20.3821 22.4288C20.8828 22.4245 21.2427 22.0385 21.2445 21.4848C21.2494 19.966 21.2509 18.4472 21.2478 16.9284C21.2467 16.3812 20.8779 16.007 20.3644 16.0113C19.8655 16.0154 19.5212 16.3924 19.5214 16.934C19.5216 17.693 19.5215 18.452 19.5215 19.211C19.5224 19.2111 19.5234 19.2111 19.5243 19.211ZM17.9807 19.435C17.9406 18.916 17.6252 18.6217 17.1118 18.6296C16.6099 18.6374 16.2967 18.943 16.2762 19.4438C16.2463 20.1742 16.2387 20.9086 16.2816 21.6379C16.3108 22.1337 16.6438 22.4291 17.1479 22.4178C17.6507 22.4065 17.9448 22.1043 17.9833 21.6016C18.0095 21.2599 17.9883 20.9145 17.9874 20.5709C17.9863 20.1921 18.0097 19.8115 17.9807 19.435Z" fill="black"/>
</g>
<defs>
<clipPath id="clip0_1_15724">
<rect width="36" height="36" fill="white" transform="translate(0 0.689453)"/>
</clipPath>
</defs>
</svg>
