<svg width="36" height="37" viewBox="0 0 36 37" fill="none" xmlns="http://www.w3.org/2000/svg">
<g clip-path="url(#clip0_1_15949)">
<path d="M24.1636 19.8848C23.638 17.8904 23.1124 16.1048 22.6948 14.3696C22.5868 14.0024 22.378 13.8944 22.1692 13.844C21.6436 13.6856 21.118 13.5848 20.5924 13.4264C19.3828 13.1096 18.0724 12.7928 16.8628 12.4256C16.4452 12.3176 16.1284 12.3752 15.8116 12.7424C14.71 13.844 13.5004 15.0536 12.0316 16.5728C11.7148 16.8896 11.7724 17.2064 11.8228 17.4656C12.2404 18.992 12.7156 20.7704 13.1908 22.5056C13.3492 23.0312 13.6084 23.348 14.0836 23.4488C15.2356 23.7656 16.4452 24.0824 17.6044 24.3416L18.2884 24.5C18.5476 24.5504 18.7636 24.6584 18.9724 24.7088C19.0804 24.7592 19.1812 24.7592 19.2892 24.8168C19.3396 24.8168 19.3972 24.8168 19.4476 24.8168C19.7644 24.8168 19.9228 24.608 20.0236 24.5C20.074 24.4496 20.074 24.4496 20.1316 24.392L20.7652 23.708C21.766 22.7072 22.81 21.6056 23.8612 20.612C24.1132 20.5688 24.322 20.3024 24.1636 19.8848ZM22.7524 20.36C22.2772 20.8352 21.8596 21.3032 21.3844 21.728C20.8084 22.304 20.1748 22.9376 19.5484 23.564C19.39 23.7224 19.2316 23.7728 19.0228 23.672C17.554 23.2544 16.0852 22.8872 14.6092 22.4624C14.4004 22.412 14.2924 22.3544 14.242 22.0952C13.8748 20.6264 13.5076 19.1576 13.0324 17.6312C12.9244 17.372 12.982 17.264 13.1404 17.1056C14.35 15.896 15.4516 14.7944 16.4452 13.6928C16.4956 13.6424 16.5532 13.5848 16.654 13.5848C16.7044 13.5848 16.762 13.5848 16.8628 13.6352L17.7052 13.8944C18.8572 14.2112 20.0668 14.5784 21.2764 14.8952C21.5932 15.0032 21.694 15.104 21.7516 15.4712C21.9604 16.472 22.2268 17.4152 22.486 18.3584C22.594 18.7256 22.6948 19.1432 22.8028 19.5104C22.8532 19.6184 22.8532 19.7192 22.9108 19.8272C22.9108 19.8776 22.9108 19.8776 22.9108 19.8776C23.0116 20.0936 22.9036 20.2016 22.7524 20.36Z" fill="#52BAA1"/>
<path d="M11.6713 24.1907C10.9873 24.8243 10.3609 25.5011 9.67688 26.1347C9.25928 26.6099 8.78409 27.0275 8.30889 27.5027C8.30889 27.5027 8.25849 27.5531 8.25849 27.6107C8.15049 27.7187 8.04969 27.9275 7.84089 27.9275H7.79049C7.63209 27.9275 7.53129 27.8771 7.37289 27.7187C7.21449 27.5603 7.11369 27.4019 7.11369 27.2435C7.11369 26.9843 7.27209 26.8259 7.43049 26.7179L7.48089 26.6675C8.05689 26.1419 8.58249 25.5659 9.15849 24.9899C9.63369 24.5147 10.1017 24.0467 10.5769 23.5715C10.7857 23.3627 10.8361 23.2547 10.7353 23.0459C10.3177 21.6275 9.95049 20.2091 9.63369 18.8987C9.58329 18.6395 9.52569 18.5819 9.37449 18.5315C8.43128 18.2723 7.48089 18.0059 6.58809 17.7971C6.11289 17.6891 5.64489 17.5379 5.11929 17.3795C5.06889 17.3795 5.06889 17.3795 5.01129 17.3795C5.11929 17.3795 4.80249 17.3795 4.80249 17.3795C4.69449 17.3795 4.59369 17.4299 4.54329 17.5379C4.49289 17.5883 4.49289 17.5883 4.43529 17.6459C4.11849 17.9627 3.75129 18.3299 3.43449 18.6467C2.80089 19.2803 2.17449 19.9067 1.54089 20.4827C1.54089 20.4827 1.49049 20.5331 1.49049 20.5907C1.44009 20.8499 1.33209 21.0659 1.07289 21.0659C0.914486 21.0659 0.756086 21.0155 0.547286 20.8571C0.338486 20.6987 0.288086 20.4899 0.288086 20.3315C0.288086 20.0723 0.496886 19.9643 0.655286 19.8563C0.705686 19.8059 0.763286 19.8059 0.763286 19.7483C1.23849 19.2227 1.76409 18.6971 2.23209 18.2219C2.80809 17.6459 3.38409 17.0699 3.90969 16.4867C4.22649 16.1699 4.54329 15.9611 5.11929 16.1699C6.69609 16.6451 8.32329 17.0627 9.69129 17.4299C10.2169 17.5883 10.5337 17.8475 10.6921 18.4307C11.0089 19.6907 11.3761 21.0011 11.7433 22.2107C11.8513 22.5275 11.9017 22.7867 12.0025 23.1035C12.0889 23.5067 11.9809 23.8739 11.6713 24.1907Z" fill="#52BAA1"/>
<path d="M26.474 8.91198C26.4236 8.91198 26.4236 8.96238 26.366 8.96238C25.79 9.53838 25.214 10.1144 24.6308 10.6976C24.1052 11.2232 23.5292 11.7992 22.9532 12.3752C22.7444 12.584 22.5356 12.692 22.3196 12.692C22.2116 12.692 22.1108 12.692 22.0028 12.6416C20.1668 12.1664 18.5396 11.6984 17.0132 11.3312C16.5956 11.2232 16.4876 10.856 16.4372 10.6976L16.2284 9.96318C15.8612 8.59518 15.494 7.17678 15.1268 5.81598C15.0188 5.34078 15.0764 4.97358 15.4436 4.66398C16.754 3.24558 17.8052 2.14398 18.806 1.09278C19.2812 0.617578 19.6484 0.984778 19.7492 1.09278C19.9076 1.20078 19.958 1.35198 19.958 1.51038C19.958 1.71918 19.7996 1.87758 19.6988 1.98558L19.6484 2.03598C19.3892 2.29518 19.0724 2.61198 18.806 2.87838C18.0716 3.61278 17.3372 4.34718 16.5452 5.08158C16.286 5.34078 16.2284 5.49918 16.3364 5.81598C16.4948 6.44958 16.6532 7.07598 16.862 7.70958C17.0204 8.39358 17.2292 9.12798 17.3876 9.81198C17.438 10.0712 17.4956 10.1792 17.7044 10.2296C18.7556 10.4888 19.7492 10.8056 20.8004 11.072C21.218 11.18 21.6428 11.2808 22.01 11.3888H22.0604H22.1108H22.1612C22.2116 11.3888 22.2116 11.3888 22.3196 11.2808C22.37 11.2304 22.37 11.2304 22.4276 11.1728L23.3708 10.2296C24.1052 9.49518 24.7892 8.81118 25.5236 8.07678C25.682 7.91838 25.8404 7.75998 26.0996 7.75998C26.258 7.75998 26.4164 7.86798 26.5748 7.96878C26.7332 8.12718 26.7836 8.28558 26.7836 8.44398C26.7404 8.64558 26.582 8.80398 26.474 8.91198Z" fill="#52BAA1"/>
<path d="M35.3518 17.4724C35.3014 17.5228 35.2438 17.5228 35.2438 17.5804C34.351 18.5236 33.4078 19.474 32.4574 20.3668L31.9318 20.8924C31.8814 20.9428 31.8814 20.9428 31.8238 21.0004C31.7158 21.1084 31.507 21.3172 31.2982 21.3172C31.2478 21.3172 31.1902 21.3172 31.0894 21.2668L29.779 20.8996C28.411 20.5324 27.151 20.1652 25.891 19.8484C25.4158 19.7404 25.3654 19.3228 25.2574 19.1644C24.7318 17.3284 24.3142 15.7012 23.8894 14.1748C23.7814 13.6996 23.9398 13.4404 24.1486 13.282C25.459 12.022 26.5606 10.87 27.6118 9.81875C27.7198 9.71075 27.9286 9.50195 28.1374 9.50195C28.3462 9.50195 28.5046 9.66035 28.6126 9.76115C28.771 9.91955 28.8214 10.078 28.8214 10.1788C28.8214 10.3876 28.663 10.4956 28.5622 10.5964C28.5118 10.5964 28.5118 10.6468 28.4542 10.6468C28.0366 11.0644 27.6118 11.4892 27.1942 11.9068C26.6182 12.5404 25.9846 13.1164 25.3582 13.7428C25.1494 13.9516 25.1494 14.11 25.2502 14.4772C25.459 15.3196 25.6678 16.1548 25.8838 16.9468C26.0422 17.4724 26.143 17.9476 26.3014 18.4732C26.3518 18.682 26.4598 18.79 26.719 18.8404C28.1374 19.2076 29.5558 19.6252 30.8158 19.942C31.0246 19.9924 31.1326 19.942 31.3414 19.7836C32.4934 18.6316 33.4438 17.6812 34.3366 16.7884C34.3366 16.7884 34.387 16.738 34.4446 16.6804C34.5526 16.522 34.6534 16.3132 34.9198 16.3132C35.0782 16.3132 35.2366 16.3636 35.4454 16.522C35.6542 16.6804 35.7046 16.8892 35.7046 17.0476C35.719 17.2564 35.5102 17.3644 35.3518 17.4724Z" fill="#52BAA1"/>
<path d="M20.6996 32.6433C20.6492 32.6937 20.6492 32.6937 20.5916 32.7513C19.3316 34.0113 18.23 35.1633 17.1284 36.2721C17.0204 36.3801 16.8692 36.5313 16.6532 36.5313C16.4948 36.5313 16.394 36.4809 16.2356 36.3225C16.0772 36.1641 16.0268 36.0057 16.0268 35.8473C16.0268 35.6385 16.1348 35.4801 16.286 35.3217C16.7036 34.9041 17.1284 34.5369 17.4956 34.1121C18.1292 33.4785 18.7556 32.8521 19.3892 32.2761C19.598 32.0673 19.706 31.9593 19.598 31.6425C19.2308 30.3321 18.914 29.0145 18.5468 27.6537C18.4388 27.3369 18.3884 27.2361 18.0716 27.1281C16.8116 26.8113 15.3428 26.4441 13.9244 25.9761C13.766 25.9257 13.7156 25.9761 13.5572 26.1345L13.5068 26.1849C13.0892 26.6025 12.722 26.9697 12.2972 27.3945C11.7212 27.9705 11.0876 28.6041 10.4612 29.2305C10.4108 29.2809 10.4108 29.2809 10.3532 29.3385C10.2452 29.4465 10.094 29.6553 9.82755 29.6553C9.66915 29.6553 9.51075 29.6049 9.35235 29.4465C9.19395 29.2881 9.14355 29.1297 9.14355 28.9713C9.14355 28.7625 9.30195 28.6041 9.46035 28.4961C9.51075 28.4457 9.51075 28.4457 9.56835 28.4457C10.0436 27.9705 10.4612 27.5025 10.9364 27.0777C11.57 26.4441 12.1964 25.8177 12.83 25.1337C13.1972 24.7665 13.5644 24.6585 14.0396 24.8169C15.458 25.2345 16.8764 25.6017 18.2948 25.9689L18.662 26.0769C19.1876 26.1849 19.3964 26.4441 19.5548 26.9697C19.814 28.0209 20.1308 29.1225 20.3972 30.1737C20.5052 30.6489 20.6564 31.0665 20.7644 31.5417C20.8148 31.6497 20.8148 31.7505 20.8148 31.9089C20.8148 32.0169 20.8652 32.0673 20.8652 32.2257C21.0164 32.2761 20.9084 32.4345 20.6996 32.6433Z" fill="#52BAA1"/>
<path d="M31.1474 23.3488C30.989 23.9248 30.5138 23.824 30.305 23.716C29.729 23.5576 29.0954 23.3992 28.5194 23.2408C27.7346 23.032 26.8922 22.8232 26.0498 22.5568C25.7906 22.4488 25.6826 22.5064 25.5242 22.6648C24.4226 23.8168 23.5298 24.7096 22.637 25.552C22.3202 25.8688 22.2698 26.0776 22.3778 26.4448C22.637 27.388 22.9034 28.3384 23.1626 29.2312C23.2706 29.5984 23.3714 29.9656 23.4794 30.3328C23.5298 30.4408 23.5298 30.5416 23.5298 30.5416V30.592C23.5298 30.7504 23.5802 31.276 23.0546 31.3264C23.0042 31.3264 22.9466 31.3264 22.8962 31.3264C22.5794 31.3264 22.421 31.168 22.3202 30.9088L22.0034 29.5984C21.6866 28.3384 21.3194 27.0784 21.0026 25.8184C20.8946 25.4512 21.161 25.2424 21.3194 25.084L21.3698 25.0336C22.0034 24.4 22.6298 23.7736 23.2058 23.1976C23.7818 22.6216 24.4154 21.988 24.9914 21.412C25.3082 21.0952 25.7258 21.1528 25.8842 21.2536C27.461 21.6712 28.9802 22.096 30.557 22.564C30.6074 22.564 30.6074 22.564 30.665 22.564C30.8234 22.6144 31.0322 22.672 31.1402 22.8232C31.205 23.0392 31.205 23.1976 31.1474 23.3488Z" fill="#52BAA1"/>
<path d="M14.6084 12.2165L14.1908 12.6341C13.1396 13.6853 12.0884 14.7365 11.0372 15.7877C10.8788 15.9461 10.67 16.0469 10.5116 16.0469C10.4036 16.0469 10.3532 16.0469 10.2524 15.9965C8.78361 15.5789 7.09881 15.1037 5.47161 14.6861C5.26281 14.6357 5.10441 14.5781 4.99641 14.4269C4.88841 14.2685 4.94601 14.0597 4.94601 13.9013C4.99641 13.7429 5.05401 13.5845 5.20521 13.5341C5.36361 13.4261 5.57241 13.4837 5.68041 13.5341H5.73081C6.25641 13.6925 6.73161 13.7933 7.25721 13.9517C8.15001 14.1605 9.04281 14.4269 9.93561 14.6861C10.3028 14.7941 10.4612 14.7365 10.7204 14.5277C11.246 13.9517 11.822 13.3757 12.398 12.8501C12.7652 12.4829 13.1324 12.1157 13.55 11.6981C13.6004 11.6477 13.658 11.5901 13.658 11.5901C13.7084 11.5397 13.8164 11.4317 13.8164 11.4317V11.3813L13.6076 10.4885C13.2908 9.38693 13.0316 8.38613 12.7652 7.33493C12.7652 7.33493 12.7652 7.28453 12.7148 7.28453C12.6644 7.17653 12.6068 7.07573 12.6644 6.91733C12.6644 6.86693 12.614 6.80933 12.614 6.75893C12.5636 6.60053 12.506 6.39173 12.614 6.18293C12.722 6.02453 12.8228 5.97413 13.0316 5.92373C13.2404 5.87333 13.4492 5.87333 13.5572 5.97413C13.766 6.13253 13.766 6.39173 13.8164 6.55013C13.8164 6.60053 13.8164 6.65813 13.8164 6.70853C14.0252 7.44293 14.1836 8.12693 14.3924 8.86133C14.6012 9.59573 14.7596 10.3301 14.9684 11.0645C15.0836 11.5397 14.9756 11.9069 14.6084 12.2165Z" fill="#52BAA1"/>
</g>
<defs>
<clipPath id="clip0_1_15949">
<rect width="36" height="36" fill="white" transform="translate(0 0.689453)"/>
</clipPath>
</defs>
</svg>
