<svg width="36" height="37" viewBox="0 0 36 37" fill="none" xmlns="http://www.w3.org/2000/svg">
<g clip-path="url(#clip0_1_15927)">
<path d="M33.8252 5.3629C33.8036 5.09649 33.5804 4.88769 33.314 4.88769C28.7492 4.80849 23.8316 3.30369 18.6692 0.942095C18.3092 0.776495 17.8916 0.783695 17.5316 0.956495C11.8508 3.69249 7.01235 4.94529 2.81475 4.90209C2.53395 4.90209 2.29635 5.11809 2.28915 5.39889C2.20995 7.22769 2.21715 8.94849 2.28915 10.5757H12.974C13.5212 10.5757 13.9604 11.0149 13.9604 11.5621C13.9604 12.1093 13.5212 12.5485 12.974 12.5485H2.41875C2.55555 14.1541 2.76435 15.6589 3.03075 17.0557H17.618C18.1652 17.0557 18.6044 17.4949 18.6044 18.0421C18.6044 18.5893 18.1652 19.0285 17.618 19.0285H3.46275C3.82995 20.5189 4.27635 21.8869 4.76595 23.1469H13.1108C13.5788 23.1469 13.9604 23.5285 13.9604 23.9965V24.2773C13.9604 24.7453 13.5788 25.1269 13.1108 25.1269H5.62995C6.37155 26.6605 7.18515 27.9925 8.04195 29.1517H15.9116C16.3796 29.1517 16.7612 29.5333 16.7612 30.0013V30.2821C16.7612 30.7501 16.3796 31.1317 15.9116 31.1317H9.66915C12.9236 34.6381 16.3076 36.0061 17.654 36.4525C18.0284 36.5749 18.4388 36.5677 18.8132 36.4165C35.2868 29.8645 34.1276 8.80449 33.8252 5.3629Z" fill="#272727"/>
</g>
<defs>
<clipPath id="clip0_1_15927">
<rect width="36" height="36" fill="white" transform="translate(0 0.689453)"/>
</clipPath>
</defs>
</svg>
