<svg width="36" height="37" viewBox="0 0 36 37" fill="none" xmlns="http://www.w3.org/2000/svg">
<g clip-path="url(#clip0_1_15961)">
<path d="M19.8551 0.935949C21.0598 1.05648 22.0541 1.2274 23.1209 1.5005C27.1959 2.54364 30.474 4.7994 32.9998 8.15618C33.0352 8.20327 33.0928 8.35461 33.0867 8.40775C32.6297 7.92924 32.2023 7.44727 31.7391 7.0026C28.7947 4.17602 25.2891 2.62147 21.204 2.42419C13.6189 2.05785 6.86699 6.87293 4.73752 14.1514C2.19131 22.8543 7.32174 32.106 16.1067 34.3757C22.7497 36.092 28.3821 34.2055 32.9378 29.0858C33.0048 29.0105 33.0911 28.9524 33.1685 28.8862C33.1685 28.8862 32.4154 29.9746 31.9776 30.4639C29.0235 33.7656 25.3296 35.6889 20.9506 36.3116C20.6164 36.3592 20.2795 36.3879 19.9439 36.4253C19.0942 36.4888 18.278 36.5118 17.4591 36.4253C16.92 36.3512 16.3792 36.2875 15.8419 36.2016C8.86362 35.0861 3.15359 29.8378 1.48413 22.968C1.23457 21.941 1.12657 20.8796 0.953125 19.8341C0.953125 19.0651 0.953125 18.2962 0.953125 17.5273C1.08165 16.6839 1.14846 15.8255 1.34848 14.9993C3.03868 8.0183 7.35738 3.51902 14.2448 1.51497C15.3117 1.20458 16.3697 1.04496 17.5478 0.935949C18.3814 0.872517 19.0711 0.907725 19.8551 0.935949Z" fill="#21A3DF"/>
<path d="M35.2085 20.2595C34.3569 24.8648 32.1347 28.5977 28.1459 31.2194C24.0535 33.9092 19.7004 33.7021 15.2415 32.4202C19.4314 32.9048 23.4664 32.5289 27.1731 30.3C26.3588 30.5693 25.5577 30.8917 24.7278 31.0982C22.0296 31.7695 19.2956 32.0108 16.5677 31.3457C14.7985 30.9142 13.233 30.0522 12.0925 28.5665C10.512 26.5077 10.7835 23.5603 12.6958 21.964C13.5642 21.2391 14.5585 20.9696 15.6766 21.1778C15.8262 21.2056 15.9782 21.2205 16.2554 21.2588C15.6366 20.2677 14.8668 19.6704 13.8611 19.4745C12.3865 19.1873 10.9946 19.6039 9.61949 20.109C9.07107 20.3105 8.49175 20.4941 7.91518 20.5385C6.80631 20.624 6.07652 20.0127 6.02446 18.8944C5.91596 16.565 6.32967 14.3197 7.50737 12.2805C8.12621 11.209 8.87004 10.2094 9.56391 9.1817C9.65996 9.03943 9.79337 8.92243 9.99519 8.83984C9.82966 9.28214 9.64649 9.71875 9.50213 10.1679C9.15171 11.258 8.88862 12.3619 9.10642 13.5209C9.37037 14.9254 10.681 15.9079 12.0749 15.5876C12.9056 15.3967 13.6971 14.983 14.4671 14.5925C15.4404 14.099 16.3351 13.4357 17.334 13.0109C18.8199 12.3789 20.3054 12.4146 21.6318 13.5013C21.6977 13.5553 21.756 13.6184 21.9019 13.7572C20.6801 13.6744 19.6513 13.9328 18.8123 14.7237C18.0005 15.489 17.4797 16.4007 17.4279 17.6447C17.7745 17.557 24.1212 22.8191 26.0835 23.1928C28.8336 23.7164 31.3399 23.0963 33.6203 21.5324C34.1606 21.1618 34.6016 20.6463 35.0883 20.1975C35.1283 20.2181 35.1684 20.2388 35.2085 20.2595Z" fill="#2282C6"/>
<path d="M33.262 21.8696C31.0204 24.0511 28.4084 25.3929 25.2064 25.2332C23.1065 25.1284 21.0963 24.6512 19.4308 23.2679C17.8352 21.9425 17.2281 20.1755 17.3065 18.1408C17.3093 18.0674 17.3212 17.9936 17.3361 17.9215C17.3477 17.8649 17.3706 17.8107 17.4047 17.7056C18.8266 17.5707 19.8766 16.5398 21.1739 16.0702C21.7494 15.8619 22.3684 15.7526 22.9772 15.6614C23.8825 15.5256 24.588 15.9689 25.2608 16.5431C24.8496 16.5939 24.4625 16.599 24.0992 16.6944C22.8668 17.018 22.2186 18.0607 22.3735 19.4136C22.6141 21.5137 24.1383 22.985 26.3432 23.3103C28.7019 23.6582 30.8972 23.2255 32.9554 22.0424C33.0571 21.9839 33.1599 21.9271 33.262 21.8696Z" fill="#033C77"/>
<path d="M20.2822 5.02734C24.0328 9.40149 31.3643 18.0964 31.3643 18.0964C31.3643 18.0964 23.218 12.2813 19.4439 9.55881C19.1757 9.36527 18.9373 9.32222 18.6281 9.4683C17.0921 10.1939 13.6104 11.7894 13.6104 11.7894C13.6104 11.7894 18.044 7.34711 20.2822 5.02734Z" fill="#B4B7B6"/>
<path d="M33.017 15.0707C30.5684 13.2572 28.1198 11.4437 25.6064 9.58224C26.1367 9.08378 26.6147 8.63443 27.1504 8.13086C29.1506 10.4522 33.0373 15.0506 33.017 15.0707Z" fill="#B4B7B6"/>
</g>
<defs>
<clipPath id="clip0_1_15961">
<rect width="36" height="36" fill="white" transform="translate(0 0.689453)"/>
</clipPath>
</defs>
</svg>
