<svg width="36" height="37" viewBox="0 0 36 37" fill="none" xmlns="http://www.w3.org/2000/svg">
<path d="M19.9301 13.312C16.4669 13.2832 12.9461 13.312 9.51886 13.4056C9.35326 13.2688 9.47566 13.0888 9.55486 12.9376C9.92206 12.2896 10.2965 11.6487 10.6565 11.0007C11.7581 9.03515 13.7021 7.94795 15.9269 7.94075C21.9029 7.65275 28.0877 8.68235 33.9197 7.11275C34.0781 7.01915 34.3013 7.06955 34.4309 7.15595C34.4813 7.20635 34.4741 7.37915 34.4309 7.46555C33.7829 8.65355 33.0629 9.79835 32.4077 10.9863C31.6373 12.4119 30.2837 13.3408 28.6277 13.312C25.7261 13.3191 22.8245 13.312 19.9301 13.312Z" fill="#00C878"/>
<path d="M19.2964 15.5931C22.7596 15.4923 26.2588 15.8091 29.7004 15.4347C29.83 15.4131 30.0388 15.4419 30.0964 15.5211C30.1612 15.6147 30.1396 15.8235 30.0748 15.9387C29.434 17.0619 28.8292 18.2211 28.0948 19.2867C27.3964 20.3019 26.3668 20.8779 25.0852 20.8923C22.2268 20.9211 19.3612 20.9571 16.5028 20.9643C12.9244 20.9787 9.31716 20.9139 5.76036 21.0723C5.55156 20.9139 5.56596 20.6619 5.73876 20.4675C6.41556 19.2939 7.08516 18.1203 7.77636 16.9539C8.30196 16.0755 9.07956 15.5931 10.1308 15.5931C13.1908 15.6003 16.2436 15.6003 19.2964 15.5931Z" fill="#00C878"/>
<path d="M15.4299 23.1826C18.8355 23.0746 22.2843 23.413 25.6683 23.017C26.0139 22.945 26.1867 23.1394 26.0283 23.4202C25.3083 24.6514 24.7467 25.9906 23.6811 26.9914C21.8163 28.921 19.0155 28.453 16.5819 28.5538C11.8299 28.5682 7.07071 28.561 2.31871 28.561C1.43311 28.561 1.38991 28.5034 1.82911 27.7186C2.41951 26.6746 3.02431 25.6378 3.62911 24.5938C4.23391 23.557 5.18431 23.1898 6.32911 23.1826C9.36031 23.1754 12.3915 23.1826 15.4299 23.1826Z" fill="#00C878"/>
</svg>
