<svg width="36" height="37" viewBox="0 0 36 37" fill="none" xmlns="http://www.w3.org/2000/svg">
<g clip-path="url(#clip0_1_15721)">
<path d="M19.4472 19.5391L25.7616 25.8535C26.2296 26.3287 26.2296 27.0847 25.7544 27.5599C25.7184 27.5959 25.6824 27.6319 25.6392 27.6607C20.6856 31.5487 13.5144 30.6919 9.6264 25.7383C5.7384 20.7847 6.5952 13.6135 11.5488 9.72545C15.7032 6.46385 21.5424 6.47825 25.6824 9.76145C26.1936 10.1791 26.2656 10.9279 25.848 11.4391C25.8192 11.4751 25.7904 11.5039 25.7616 11.5327L19.4472 17.8471C19.3392 17.9551 19.2456 18.0919 19.188 18.2359C19.1304 18.3871 19.0944 18.5527 19.0944 18.7183C19.0944 18.8839 19.1232 19.0495 19.188 19.2007C19.2456 19.3447 19.332 19.4815 19.4472 19.5895V19.5391ZM18 0.689453C8.0568 0.689453 0 8.74625 0 18.6895C0 28.6327 8.0568 36.6895 18 36.6895C27.9432 36.6895 36 28.6327 36 18.6895C36 8.74625 27.9432 0.689453 18 0.689453Z" fill="#69E2DC"/>
</g>
<defs>
<clipPath id="clip0_1_15721">
<rect width="36" height="36" fill="white" transform="translate(0 0.689453)"/>
</clipPath>
</defs>
</svg>
