<svg width="36" height="37" viewBox="0 0 36 37" fill="none" xmlns="http://www.w3.org/2000/svg">
<g clip-path="url(#clip0_1_15716)">
<path d="M18 36.6816C27.9411 36.6816 36 28.6228 36 18.6816C36 8.74051 27.9411 0.681641 18 0.681641C8.05887 0.681641 0 8.74051 0 18.6816C0 28.6228 8.05887 36.6816 18 36.6816Z" fill="#EDF0F2"/>
<path d="M29.4261 32.5931C26.6758 34.8539 23.3133 36.2435 19.7709 36.5963C15.0189 37.0643 10.2741 35.6315 6.58775 32.6075C2.89415 29.5835 0.554147 25.2131 0.0861471 20.4611C-0.266653 16.9187 0.446147 13.3475 2.11655 10.2083C3.79415 7.06913 6.36455 4.49153 9.50375 2.81393C12.6429 1.12913 16.2069 0.423533 19.7565 0.769133C23.2989 1.11473 26.6613 2.50433 29.4117 4.76513L25.7829 9.19313C23.9037 7.65233 21.6141 6.70913 19.195 6.47153C16.7757 6.23393 14.3493 6.72353 12.2109 7.86833C10.0725 9.01313 8.31575 10.7699 7.17815 12.9083C6.03335 15.0467 5.55095 17.4803 5.79575 19.8995C6.11975 23.1395 7.71095 26.1203 10.2309 28.1795C12.7509 30.2459 15.9837 31.2251 19.2237 30.9011C21.6357 30.6635 23.9325 29.7131 25.8045 28.1723L29.4261 32.5931Z" fill="url(#paint0_linear_1_15716)"/>
<path d="M17.9998 34.5152C26.7478 34.5152 33.8326 27.4232 33.8326 18.6824C33.8326 9.93441 26.7478 2.84961 17.9998 2.84961C9.25179 2.84961 2.16699 9.93441 2.16699 18.6824C2.16699 27.4304 9.25179 34.5152 17.9998 34.5152Z" fill="white"/>
<path fill-rule="evenodd" clip-rule="evenodd" d="M20.4339 18.8771C20.2899 18.4595 20.0451 18.0851 19.7211 17.7971L19.5987 17.6891L19.5915 17.6819C19.5483 17.6459 19.5123 17.6171 19.4691 17.5883L19.4619 17.5811C19.4187 17.5523 19.3827 17.5235 19.3323 17.4947C19.3251 17.4947 19.3251 17.4875 19.3179 17.4875C19.2747 17.4587 19.2315 17.4371 19.1883 17.4155C19.1811 17.4155 19.1811 17.4083 19.1739 17.4083C19.1307 17.3867 19.0875 17.3651 19.0371 17.3435C19.0299 17.3435 19.0299 17.3363 19.0227 17.3363C18.9795 17.3219 18.9435 17.3003 18.9003 17.2859C18.7923 17.2427 18.6699 17.2067 18.5547 17.1851C18.4683 17.3579 18.3387 17.5163 18.2019 17.6459C18.4179 17.6603 18.6195 17.7179 18.8067 17.7899C18.9147 17.8403 19.0299 17.8979 19.1235 17.9555C19.1307 17.9555 19.1379 17.9627 19.1379 17.9627C19.1667 17.9771 19.1883 17.9987 19.2171 18.0203C19.2315 18.0275 19.2387 18.0347 19.2531 18.0491C19.2747 18.0635 19.3035 18.0851 19.3251 18.1067C19.3395 18.1211 19.3539 18.1283 19.3683 18.1427C19.3899 18.1643 19.4115 18.1787 19.4331 18.2003L19.4763 18.2435L19.5339 18.3011L19.5771 18.3443C19.5915 18.3659 19.6131 18.3875 19.6275 18.4019C19.6419 18.4163 19.6563 18.4379 19.6707 18.4523L19.7139 18.5171C19.7283 18.5387 19.7427 18.5531 19.7499 18.5747L19.7931 18.6395C19.8075 18.6611 19.8147 18.6827 19.8291 18.6971C19.8435 18.7187 19.8507 18.7403 19.8651 18.7619C19.8795 18.7835 19.8867 18.8051 19.9011 18.8267C19.9083 18.8483 19.9227 18.8699 19.9299 18.8915C19.9443 18.9203 19.9515 18.9491 19.9659 18.9707C20.0235 19.1075 20.0595 19.2587 20.0811 19.4171L20.1459 19.6619C20.1747 19.7699 20.4195 20.6627 20.9955 20.9651C21.6579 21.3179 22.5291 21.7499 22.8747 21.9155L18.3459 24.6731V22.7795C18.3459 22.4771 18.9291 22.1315 19.1955 22.0091L19.2099 22.0019C19.2675 21.9731 19.3179 21.9443 19.3755 21.9083L19.3971 21.8939C19.5123 21.8219 19.6275 21.7427 19.7283 21.6491C19.7355 21.6419 19.7499 21.6347 19.7571 21.6203C19.7715 21.6131 19.7787 21.5987 19.7931 21.5915C19.8291 21.5627 19.8579 21.5267 19.8867 21.4979L19.9011 21.4835C19.9371 21.4475 19.9731 21.4115 19.9947 21.3683C20.0019 21.3539 20.0163 21.3467 20.0235 21.3323C20.0523 21.3035 20.0739 21.2675 20.1027 21.2315C20.1099 21.2243 20.1171 21.2099 20.1243 21.2027L20.2035 21.0731C20.2035 21.0659 20.2107 21.0659 20.2107 21.0587C20.2467 21.0011 20.2827 20.9363 20.3115 20.8859C20.1747 20.7203 20.0739 20.5331 19.9875 20.3675C19.9515 20.4755 19.9083 20.5763 19.8579 20.6699C19.8363 20.7131 19.8075 20.7563 19.7859 20.7995C19.7787 20.8067 19.7787 20.8139 19.7715 20.8139C19.7499 20.8499 19.7211 20.8859 19.6995 20.9147C19.6923 20.9219 19.6851 20.9363 19.6779 20.9435C19.6563 20.9795 19.6275 21.0083 19.5987 21.0371C19.5915 21.0443 19.5915 21.0515 19.5843 21.0515C19.4187 21.2387 19.2171 21.4043 18.9939 21.5123L18.9507 21.5339C18.8355 21.5843 17.8203 22.0523 17.8203 22.7579V24.6659L13.2843 21.9155C13.5795 21.7355 14.4291 21.2171 15.1347 20.9939C15.4083 20.9003 15.9915 21.2819 16.3227 21.5555L16.3443 21.5771C16.3875 21.6203 16.4307 21.6635 16.4811 21.6995L16.4955 21.7139C16.5963 21.8003 16.7115 21.8795 16.8339 21.9443L16.9131 21.9875C16.9203 21.9875 16.9275 21.9947 16.9275 21.9947C17.0067 22.0379 17.0787 22.0739 17.1579 22.1099C17.1723 22.1171 17.1795 22.1171 17.1939 22.1243C17.2011 22.1243 17.2083 22.1315 17.2227 22.1315C17.3379 22.1747 17.4531 22.2107 17.5755 22.2395C17.6619 22.0667 17.7987 21.9083 17.9355 21.7787C17.7339 21.7643 17.5539 21.7211 17.3739 21.6491C17.3667 21.6419 17.3523 21.6419 17.3451 21.6347C17.3235 21.6275 17.3019 21.6203 17.2803 21.6059C17.2731 21.5987 17.2587 21.5987 17.2515 21.5915C17.2299 21.5843 17.2083 21.5699 17.1939 21.5627C17.0571 21.4907 16.9347 21.4187 16.8123 21.3179L16.6323 21.1523C16.6251 21.1451 16.4019 20.9435 16.0995 20.7635C15.6531 20.5043 15.2715 20.4179 14.9835 20.5115C14.3859 20.7059 13.7019 21.0803 13.2915 21.3251L17.8203 13.0307V16.6667C17.8203 16.7963 17.6331 17.1275 17.0067 17.4155L16.9635 17.4371C16.8987 17.4659 16.8483 17.5019 16.7835 17.5379L16.7691 17.5451C16.6539 17.6171 16.5387 17.6963 16.4307 17.7899C16.3587 17.8475 16.3011 17.9123 16.2435 17.9699L16.2363 17.9771C16.1715 18.0419 16.1211 18.1067 16.0707 18.1715L16.0635 18.1787C16.0347 18.2147 16.0131 18.2507 15.9843 18.2867C15.9843 18.2939 15.9771 18.2939 15.9771 18.3011C15.9555 18.3371 15.9339 18.3659 15.9123 18.4019C15.9123 18.4091 15.9051 18.4091 15.9051 18.4163L15.8403 18.5243C15.8331 18.5315 15.8331 18.5387 15.8259 18.5531C15.8043 18.5891 15.7899 18.6251 15.7755 18.6539C15.7755 18.6611 15.7683 18.6683 15.7683 18.6683C15.7539 18.7043 15.7395 18.7331 15.7251 18.7691C15.7179 18.7835 15.7179 18.7907 15.7107 18.8051L15.6675 18.9131C15.6603 18.9275 15.6603 18.9347 15.6531 18.9491C15.6459 18.9779 15.6387 18.9995 15.6243 19.0283C15.6171 19.0427 15.6171 19.0571 15.6099 19.0715C15.6027 19.1075 15.5883 19.1435 15.5811 19.1723C15.5739 19.1867 15.5739 19.2083 15.5667 19.2227C15.5595 19.2443 15.5595 19.2731 15.5523 19.2947C15.5451 19.3163 15.5451 19.3379 15.5379 19.3595C15.5307 19.3883 15.5307 19.4171 15.5235 19.4459C15.5235 19.4675 15.5163 19.4819 15.5163 19.5035C15.5163 19.5323 15.5091 19.5539 15.5091 19.5827C15.5091 19.6115 15.5091 19.6331 15.5019 19.6619V19.7699C15.5019 19.8995 15.5091 20.0291 15.5307 20.1515C15.7107 20.1947 15.8979 20.2739 16.0923 20.3675C16.0347 20.1875 16.0131 19.9931 16.0059 19.7987V19.6979C16.0059 19.6475 16.0059 19.6043 16.0131 19.5611V19.5251C16.0131 19.4819 16.0203 19.4459 16.0275 19.4027V19.3883C16.0347 19.3451 16.0419 19.3019 16.0491 19.2587C16.0491 19.2443 16.0563 19.2371 16.0563 19.2227C16.0635 19.1867 16.0779 19.1507 16.0851 19.1147C16.0851 19.1075 16.0923 19.1003 16.0923 19.0931L16.1355 18.9635C16.1427 18.9563 16.1427 18.9419 16.1499 18.9347C16.1643 18.8987 16.1787 18.8627 16.1931 18.8339C16.2003 18.8267 16.2003 18.8195 16.2075 18.8051C16.2291 18.7619 16.2435 18.7259 16.2723 18.6899C16.2795 18.6827 16.2795 18.6755 16.2867 18.6683C16.3083 18.6323 16.3227 18.6035 16.3443 18.5675C16.3515 18.5603 16.3515 18.5531 16.3587 18.5459C16.3803 18.5099 16.4091 18.4739 16.4379 18.4379C16.4379 18.4379 16.4379 18.4307 16.4451 18.4307C16.4739 18.3947 16.4955 18.3659 16.5171 18.3299C16.5243 18.3227 16.5243 18.3155 16.5315 18.3083C16.6539 18.1715 16.7907 18.0491 16.9491 17.9411L17.1651 17.8331C17.2803 17.7827 18.2883 17.3003 18.2883 16.5947V12.9803L22.8603 21.3395C22.4571 21.1379 21.7299 20.7707 21.1755 20.4755C20.8515 20.3099 20.6427 19.7123 20.5779 19.4963L20.5131 19.2443C20.5131 19.1435 20.4771 19.0139 20.4339 18.8771ZM23.5299 21.5123L18.4899 12.3035C18.4035 12.1379 18.2379 12.0371 18.0507 12.0371C17.8635 12.0371 17.6979 12.1379 17.6115 12.3035L12.5715 21.5123C12.4419 21.7499 12.5139 22.0595 12.7515 22.1963L17.7987 25.2707C17.8779 25.3211 17.9715 25.3427 18.0579 25.3427C18.1443 25.3427 18.2379 25.3211 18.3171 25.2707L23.3571 22.2035C23.5875 22.0595 23.6667 21.7499 23.5299 21.5123Z" fill="#283947"/>
<path d="M20.4339 18.8771C20.2899 18.4595 20.0451 18.0851 19.7211 17.7971L19.5987 17.6891L19.5915 17.6819C19.5483 17.6459 19.5123 17.6171 19.4691 17.5883L19.4619 17.5811C19.4187 17.5523 19.3827 17.5235 19.3323 17.4947C19.3251 17.4947 19.3251 17.4875 19.3179 17.4875C19.2747 17.4587 19.2315 17.4371 19.1883 17.4155C19.1811 17.4155 19.1811 17.4083 19.1739 17.4083C19.1307 17.3867 19.0875 17.3651 19.0371 17.3435C19.0299 17.3435 19.0299 17.3363 19.0227 17.3363C18.9795 17.3219 18.9435 17.3003 18.9003 17.2859C18.7923 17.2427 18.6699 17.2067 18.5547 17.1851C18.4683 17.3579 18.3387 17.5163 18.2019 17.6459C18.4179 17.6603 18.6195 17.7179 18.8067 17.7899C18.9147 17.8403 19.0299 17.8979 19.1235 17.9555C19.1307 17.9555 19.1379 17.9627 19.1379 17.9627C19.1667 17.9771 19.1883 17.9987 19.2171 18.0203C19.2315 18.0275 19.2387 18.0347 19.2531 18.0491C19.2747 18.0635 19.3035 18.0851 19.3251 18.1067C19.3395 18.1211 19.3539 18.1283 19.3683 18.1427C19.3899 18.1643 19.4115 18.1787 19.4331 18.2003L19.4763 18.2435L19.5339 18.3011L19.5771 18.3443C19.5915 18.3659 19.6131 18.3875 19.6275 18.4019C19.6419 18.4163 19.6563 18.4379 19.6707 18.4523L19.7139 18.5171C19.7283 18.5387 19.7427 18.5531 19.7499 18.5747L19.7931 18.6395C19.8075 18.6611 19.8147 18.6827 19.8291 18.6971C19.8435 18.7187 19.8507 18.7403 19.8651 18.7619C19.8795 18.7835 19.8867 18.8051 19.9011 18.8267C19.9083 18.8483 19.9227 18.8699 19.9299 18.8915C19.9443 18.9203 19.9515 18.9491 19.9659 18.9707C20.0235 19.1075 20.0595 19.2587 20.0811 19.4171L20.1459 19.6619C20.1747 19.7699 20.4195 20.6627 20.9955 20.9651C21.6579 21.3179 22.5291 21.7499 22.8747 21.9155L18.3459 24.6731V22.7795C18.3459 22.4771 18.9291 22.1315 19.1955 22.0091L19.2099 22.0019C19.2675 21.9731 19.3179 21.9443 19.3755 21.9083L19.3971 21.8939C19.5123 21.8219 19.6275 21.7427 19.7283 21.6491C19.7355 21.6419 19.7499 21.6347 19.7571 21.6203C19.7715 21.6131 19.7787 21.5987 19.7931 21.5915C19.8291 21.5627 19.8579 21.5267 19.8867 21.4979L19.9011 21.4835C19.9371 21.4475 19.9731 21.4115 19.9947 21.3683C20.0019 21.3539 20.0163 21.3467 20.0235 21.3323C20.0523 21.3035 20.0739 21.2675 20.1027 21.2315C20.1099 21.2243 20.1171 21.2099 20.1243 21.2027L20.2035 21.0731C20.2035 21.0659 20.2107 21.0659 20.2107 21.0587C20.2467 21.0011 20.2827 20.9363 20.3115 20.8859C20.1747 20.7203 20.0739 20.5331 19.9875 20.3675C19.9515 20.4755 19.9083 20.5763 19.8579 20.6699C19.8363 20.7131 19.8075 20.7563 19.7859 20.7995C19.7787 20.8067 19.7787 20.8139 19.7715 20.8139C19.7499 20.8499 19.7211 20.8859 19.6995 20.9147C19.6923 20.9219 19.6851 20.9363 19.6779 20.9435C19.6563 20.9795 19.6275 21.0083 19.5987 21.0371C19.5915 21.0443 19.5915 21.0515 19.5843 21.0515C19.4187 21.2387 19.2171 21.4043 18.9939 21.5123L18.9507 21.5339C18.8355 21.5843 17.8203 22.0523 17.8203 22.7579V24.6659L13.2843 21.9155C13.5795 21.7355 14.4291 21.2171 15.1347 20.9939C15.4083 20.9003 15.9915 21.2819 16.3227 21.5555L16.3443 21.5771C16.3875 21.6203 16.4307 21.6635 16.4811 21.6995L16.4955 21.7139C16.5963 21.8003 16.7115 21.8795 16.8339 21.9443L16.9131 21.9875C16.9203 21.9875 16.9275 21.9947 16.9275 21.9947C17.0067 22.0379 17.0787 22.0739 17.1579 22.1099C17.1723 22.1171 17.1795 22.1171 17.1939 22.1243C17.2011 22.1243 17.2083 22.1315 17.2227 22.1315C17.3379 22.1747 17.4531 22.2107 17.5755 22.2395C17.6619 22.0667 17.7987 21.9083 17.9355 21.7787C17.7339 21.7643 17.5539 21.7211 17.3739 21.6491C17.3667 21.6419 17.3523 21.6419 17.3451 21.6347C17.3235 21.6275 17.3019 21.6203 17.2803 21.6059C17.2731 21.5987 17.2587 21.5987 17.2515 21.5915C17.2299 21.5843 17.2083 21.5699 17.1939 21.5627C17.0571 21.4907 16.9347 21.4187 16.8123 21.3179L16.6323 21.1523C16.6251 21.1451 16.4019 20.9435 16.0995 20.7635C15.6531 20.5043 15.2715 20.4179 14.9835 20.5115C14.3859 20.7059 13.7019 21.0803 13.2915 21.3251L17.8203 13.0307V16.6667C17.8203 16.7963 17.6331 17.1275 17.0067 17.4155L16.9635 17.4371C16.8987 17.4659 16.8483 17.5019 16.7835 17.5379L16.7691 17.5451C16.6539 17.6171 16.5387 17.6963 16.4307 17.7899C16.3587 17.8475 16.3011 17.9123 16.2435 17.9699L16.2363 17.9771C16.1715 18.0419 16.1211 18.1067 16.0707 18.1715L16.0635 18.1787C16.0347 18.2147 16.0131 18.2507 15.9843 18.2867C15.9843 18.2939 15.9771 18.2939 15.9771 18.3011C15.9555 18.3371 15.9339 18.3659 15.9123 18.4019C15.9123 18.4091 15.9051 18.4091 15.9051 18.4163L15.8403 18.5243C15.8331 18.5315 15.8331 18.5387 15.8259 18.5531C15.8043 18.5891 15.7899 18.6251 15.7755 18.6539C15.7755 18.6611 15.7683 18.6683 15.7683 18.6683C15.7539 18.7043 15.7395 18.7331 15.7251 18.7691C15.7179 18.7835 15.7179 18.7907 15.7107 18.8051L15.6675 18.9131C15.6603 18.9275 15.6603 18.9347 15.6531 18.9491C15.6459 18.9779 15.6387 18.9995 15.6243 19.0283C15.6171 19.0427 15.6171 19.0571 15.6099 19.0715C15.6027 19.1075 15.5883 19.1435 15.5811 19.1723C15.5739 19.1867 15.5739 19.2083 15.5667 19.2227C15.5595 19.2443 15.5595 19.2731 15.5523 19.2947C15.5451 19.3163 15.5451 19.3379 15.5379 19.3595C15.5307 19.3883 15.5307 19.4171 15.5235 19.4459C15.5235 19.4675 15.5163 19.4819 15.5163 19.5035C15.5163 19.5323 15.5091 19.5539 15.5091 19.5827C15.5091 19.6115 15.5091 19.6331 15.5019 19.6619V19.7699C15.5019 19.8995 15.5091 20.0291 15.5307 20.1515C15.7107 20.1947 15.8979 20.2739 16.0923 20.3675C16.0347 20.1875 16.0131 19.9931 16.0059 19.7987V19.6979C16.0059 19.6475 16.0059 19.6043 16.0131 19.5611V19.5251C16.0131 19.4819 16.0203 19.4459 16.0275 19.4027V19.3883C16.0347 19.3451 16.0419 19.3019 16.0491 19.2587C16.0491 19.2443 16.0563 19.2371 16.0563 19.2227C16.0635 19.1867 16.0779 19.1507 16.0851 19.1147C16.0851 19.1075 16.0923 19.1003 16.0923 19.0931L16.1355 18.9635C16.1427 18.9563 16.1427 18.9419 16.1499 18.9347C16.1643 18.8987 16.1787 18.8627 16.1931 18.8339C16.2003 18.8267 16.2003 18.8195 16.2075 18.8051C16.2291 18.7619 16.2435 18.7259 16.2723 18.6899C16.2795 18.6827 16.2795 18.6755 16.2867 18.6683C16.3083 18.6323 16.3227 18.6035 16.3443 18.5675C16.3515 18.5603 16.3515 18.5531 16.3587 18.5459C16.3803 18.5099 16.4091 18.4739 16.4379 18.4379C16.4379 18.4379 16.4379 18.4307 16.4451 18.4307C16.4739 18.3947 16.4955 18.3659 16.5171 18.3299C16.5243 18.3227 16.5243 18.3155 16.5315 18.3083C16.6539 18.1715 16.7907 18.0491 16.9491 17.9411L17.1651 17.8331C17.2803 17.7827 18.2883 17.3003 18.2883 16.5947V12.9803L22.8603 21.3395C22.4571 21.1379 21.7299 20.7707 21.1755 20.4755C20.8515 20.3099 20.6427 19.7123 20.5779 19.4963L20.5131 19.2443C20.5131 19.1435 20.4771 19.0139 20.4339 18.8771ZM23.5299 21.5123L18.4899 12.3035C18.4035 12.1379 18.2379 12.0371 18.0507 12.0371C17.8635 12.0371 17.6979 12.1379 17.6115 12.3035L12.5715 21.5123C12.4419 21.7499 12.5139 22.0595 12.7515 22.1963L17.7987 25.2707C17.8779 25.3211 17.9715 25.3427 18.0579 25.3427C18.1443 25.3427 18.2379 25.3211 18.3171 25.2707L23.3571 22.2035C23.5875 22.0595 23.6667 21.7499 23.5299 21.5123Z" stroke="#283947" stroke-width="0.072"/>
</g>
<defs>
<linearGradient id="paint0_linear_1_15716" x1="12.9254" y1="2.66059" x2="18.5698" y2="33.9545" gradientUnits="userSpaceOnUse">
<stop stop-color="#27D3A2"/>
<stop offset="1" stop-color="#9388FD"/>
</linearGradient>
<clipPath id="clip0_1_15716">
<rect width="36" height="36" fill="white" transform="translate(0 0.689453)"/>
</clipPath>
</defs>
</svg>
