<svg width="36" height="37" viewBox="0 0 36 37" fill="none" xmlns="http://www.w3.org/2000/svg">
<g clip-path="url(#clip0_1_15710)">
<path d="M29.3763 7.42218C26.6475 5.21898 23.3931 3.95898 20.0307 3.95898C16.3515 3.95898 12.7875 5.32698 10.0515 7.94778C7.31551 10.5686 5.74591 13.9382 5.53711 17.7182V18.1358H7.21471V17.819C7.63231 11.1014 13.3059 5.84538 20.0235 5.84538C23.0691 5.84538 25.9059 6.89658 28.2171 8.78298L28.3251 8.89098L29.5851 7.63098L29.3763 7.42218Z" fill="#439DFC"/>
<path d="M27.6986 24.1178C25.913 26.5298 23.0762 28.0058 20.0306 28.0058C14.7818 28.0058 10.577 23.8082 10.577 18.5522C10.577 13.4042 14.7746 9.20665 20.0306 9.20665C23.0762 9.20665 25.913 10.6754 27.6986 13.0946L27.8066 13.3034L29.0666 12.0434L28.9586 11.9354C26.8562 9.10585 23.4938 7.52905 20.0306 7.52905C13.8314 7.42105 8.89941 12.4682 8.89941 18.5594C8.89941 24.7586 13.9394 29.6906 20.0306 29.6906C23.4938 29.6906 26.8562 28.013 28.9586 25.277L29.0666 25.169L27.8066 23.909L27.6986 24.1178Z" fill="#439DFC"/>
<path d="M31.3706 9.52443C31.0538 9.20763 30.845 8.79003 30.5282 8.47323L30.4202 8.36523L29.1602 9.62523L29.2682 9.73323C29.585 10.05 29.9018 10.3668 30.1106 10.7844L30.2186 10.9932L31.4786 9.73323L31.3706 9.52443Z" fill="#439DFC"/>
<path d="M28.2167 28.4237L28.1087 28.5317C25.7975 30.4253 22.9607 31.4693 19.9151 31.4693C13.1975 31.4693 7.52391 26.2205 7.10631 19.4957V19.0781H5.42871V19.4957C5.63751 23.1749 7.32231 26.6381 9.94311 29.2589C12.6719 31.7789 16.2431 33.2477 19.9223 33.2477C23.3855 33.2477 26.6399 31.9877 29.2679 29.7845L29.3759 29.6765L28.2167 28.4237Z" fill="#439DFC"/>
<path d="M30.2186 26.3281L30.1106 26.5369C29.9018 26.8537 29.585 27.1705 29.2682 27.5881L29.1602 27.6961L30.4202 28.9561L30.5282 28.8481C30.845 28.5313 31.1618 28.1137 31.3706 27.7969L31.4786 27.6889L30.2186 26.3281Z" fill="#439DFC"/>
<path d="M32.422 28.8487C29.3764 32.5279 24.862 34.7311 20.0308 34.7311C11.1028 34.7311 3.9604 27.4807 3.9604 18.5527C3.9604 9.62469 11.1028 2.48949 20.0308 2.48949C24.862 2.48949 29.3764 4.59189 32.422 8.37189L32.53 8.58069L33.79 7.32069L33.682 7.21269C30.3196 3.11589 25.2796 0.804688 20.0308 0.804688C10.1596 0.804688 2.1748 8.78949 2.1748 18.6607C2.1748 28.5319 10.1596 36.5167 20.0308 36.5167C25.2796 36.5167 30.3196 34.2055 33.682 30.1087L33.79 30.0007L32.53 28.7407L32.422 28.8487Z" fill="#439DFC"/>
</g>
<defs>
<clipPath id="clip0_1_15710">
<rect width="36" height="36" fill="white" transform="translate(0 0.689453)"/>
</clipPath>
</defs>
</svg>
