<svg width="36" height="37" viewBox="0 0 36 37" fill="none" xmlns="http://www.w3.org/2000/svg">
<g clip-path="url(#clip0_1_15703)">
<path d="M17.9568 36.2592C8.19318 36.2609 0.291759 28.3781 0.288087 18.6323C0.284415 8.88893 8.18886 0.981533 17.937 0.976565C27.6772 0.971597 35.5796 8.8872 35.5705 18.6394C35.5614 28.3776 27.6843 36.2574 17.9568 36.2592ZM17.2366 10.3129C17.0315 10.3582 16.8468 10.4001 16.6615 10.4399C14.7484 10.8512 13.1509 11.7884 12.0421 13.4127C10.221 16.0805 9.99743 18.9483 11.18 21.9282C12.0406 24.0973 13.5675 25.6173 15.768 26.4267C16.2577 26.6068 16.7728 26.7176 17.2887 26.8639C17.2979 26.9335 17.3229 27.0036 17.3134 27.0686C17.2102 27.7784 17.1355 28.4946 16.9852 29.1944C16.8343 29.8974 16.6088 30.586 16.1336 31.1546C15.5703 31.8286 14.7753 31.9093 14.0219 31.3603C14.0993 31.2695 14.1808 31.1827 14.2523 31.0884C14.6081 30.6196 14.6059 29.9751 14.2501 29.5261C13.8962 29.0796 13.3076 28.9271 12.7817 29.1457C12.2367 29.3723 11.9102 29.9075 12.0308 30.5023C12.0984 30.8358 12.2302 31.1824 12.4238 31.4596C13.2482 32.6395 14.6931 33.0374 16.0719 32.5013C17.2963 32.0252 18.1315 31.1356 18.7201 29.9901C19.2058 29.0449 19.4865 28.0382 19.5743 26.9532C19.778 26.9202 19.9668 26.8903 20.1553 26.8591C21.9768 26.5572 23.5598 25.7983 24.8169 24.4195C25.0535 24.16 25.279 23.8897 25.3102 23.5246C25.026 22.982 24.7318 22.9054 24.2735 23.2514C24.1618 23.3357 24.0662 23.4411 23.9552 23.5265C23.5525 23.8363 23.1612 24.164 22.7387 24.4445C21.79 25.0742 20.7195 25.3769 19.6143 25.5927C19.5114 25.0633 19.4354 11.9314 19.5293 11.6349C20.9545 11.7753 22.0513 12.4181 22.7234 13.7156C22.933 14.1202 23.1176 14.5386 23.3427 14.9341C23.554 15.3053 23.8553 15.4159 24.1757 15.2907C24.4489 15.1839 24.5252 14.9648 24.4822 14.5357C24.4372 14.0855 24.3606 13.6271 24.4027 13.1823C24.4612 12.5647 24.2215 12.1474 23.7585 11.784C22.837 11.0608 21.7727 10.6823 20.6472 10.4435C20.2737 10.3642 19.894 10.3145 19.4911 10.2469C19.5869 8.98894 19.7242 7.77106 20.2221 6.63533C20.3865 6.26028 20.6425 5.89841 20.9368 5.61329C21.4472 5.1188 22.2296 5.16142 22.7877 5.64289C22.6907 5.76593 22.5817 5.88164 22.4987 6.01369C22.2448 6.41753 22.225 6.84053 22.4444 7.26411C22.7342 7.82341 23.3788 8.07973 23.9659 7.88007C24.555 7.67977 24.8932 7.10621 24.8003 6.46505C24.6393 5.35265 23.4001 4.30851 22.1752 4.25185C21.0525 4.19993 20.1291 4.66563 19.3169 5.38297C18.5775 6.03601 18.0994 6.87149 17.7564 7.78618C17.454 8.59208 17.2596 9.42353 17.2366 10.3129Z" fill="#111111"/>
<path d="M17.2371 10.313C17.26 9.42367 17.4544 8.59222 17.7568 7.78632C18.0999 6.87163 18.5779 6.03615 19.3173 5.38311C20.1294 4.66577 21.053 4.20007 22.1756 4.25199C23.4005 4.30865 24.6397 5.35279 24.8008 6.46534C24.8937 7.1065 24.5555 7.68005 23.9665 7.88035C23.3793 8.08001 22.7348 7.82369 22.445 7.26439C22.2255 6.84082 22.2454 6.41782 22.4993 6.01397C22.5823 5.88192 22.6912 5.76622 22.7883 5.64317C22.2301 5.16178 21.4478 5.11908 20.9373 5.61358C20.6429 5.89863 20.387 6.26057 20.2226 6.63562C19.7248 7.77135 19.5874 8.98923 19.4917 10.2471C19.8946 10.3147 20.2742 10.3645 20.6477 10.4438C21.7731 10.6826 22.8376 11.0611 23.759 11.7843C24.2221 12.1477 24.4618 12.565 24.4032 13.1826C24.3611 13.6274 24.4377 14.0857 24.4828 14.536C24.5258 14.9651 24.4494 15.1842 24.1762 15.291C23.8559 15.4162 23.5546 15.3056 23.3432 14.9344C23.1181 14.5389 22.9335 14.1205 22.7239 13.7159C22.0519 12.4183 20.9551 11.7756 19.5298 11.6352C19.4359 11.9317 19.5119 25.0636 19.6148 25.593C20.72 25.3771 21.7906 25.0745 22.7392 24.4447C23.1617 24.1643 23.553 23.8366 23.9557 23.5267C24.0667 23.4414 24.1624 23.3359 24.274 23.2516C24.7323 22.9056 25.0265 22.9823 25.3108 23.5249C25.2795 23.89 25.054 24.1603 24.8174 24.4198C23.5603 25.7986 21.9773 26.5574 20.1559 26.8593C19.9673 26.8906 19.7785 26.9205 19.5748 26.9534C19.4871 28.0386 19.2063 29.0452 18.7206 29.9904C18.132 31.1358 17.2968 32.0255 16.0725 32.5015C14.6937 33.0377 13.2488 32.6399 12.4244 31.4599C12.2307 31.1826 12.0989 30.836 12.0313 30.5025C11.9107 29.9077 12.2372 29.3726 12.7823 29.146C13.3082 28.9274 13.8968 29.0799 14.2506 29.5264C14.6065 29.9754 14.6086 30.6199 14.2529 31.0887C14.1813 31.183 14.0998 31.2698 14.0224 31.3606C14.7758 31.9096 15.5708 31.8289 16.1341 31.1549C16.6093 30.5863 16.8349 29.8977 16.9858 29.1947C17.136 28.4949 17.2108 27.7786 17.3139 27.0689C17.3233 27.0038 17.2985 26.9338 17.2893 26.8642C16.7734 26.7179 16.2582 26.6071 15.7685 26.427C13.5681 25.6176 12.0413 24.0976 11.1805 21.9285C9.99796 18.9485 10.2215 16.0808 12.0426 13.413C13.1514 11.7887 14.749 10.8514 16.6621 10.4402C16.8472 10.4001 17.032 10.3583 17.2371 10.313ZM17.261 11.7239C16.9082 11.8514 16.624 11.9301 16.3605 12.0533C15.0434 12.6691 14.2211 13.7426 13.7236 15.0626C12.9155 17.2067 12.9392 19.3958 13.5629 21.5749C13.9133 22.799 14.5942 23.8377 15.6251 24.6162C16.1288 24.9967 16.676 25.2944 17.3821 25.4354C17.3821 25.0853 17.387 24.7738 17.3813 24.4625C17.3424 22.3063 17.2877 20.1503 17.265 17.994C17.2453 16.1169 17.261 14.2395 17.261 12.3621C17.261 12.1747 17.261 11.9871 17.261 11.7239Z" fill="white"/>
<path d="M17.2604 11.7246C17.2604 11.9878 17.2604 12.1753 17.2604 12.3628C17.2604 14.2401 17.2447 16.1175 17.2644 17.9947C17.2871 20.151 17.3418 22.307 17.3807 24.4631C17.3864 24.7745 17.3815 25.0859 17.3815 25.4361C16.6754 25.2951 16.1282 24.9973 15.6244 24.6169C14.5936 23.8384 13.9126 22.7996 13.5623 21.5756C12.9386 19.3965 12.9149 17.2073 13.723 15.0633C14.2204 13.7433 15.0428 12.6698 16.3599 12.0539C16.6234 11.9307 16.9076 11.852 17.2604 11.7246Z" fill="#111111"/>
</g>
<defs>
<clipPath id="clip0_1_15703">
<rect width="36" height="36" fill="white" transform="translate(0 0.689453)"/>
</clipPath>
</defs>
</svg>
