<svg width="36" height="37" viewBox="0 0 36 37" fill="none" xmlns="http://www.w3.org/2000/svg">
<g clip-path="url(#clip0_1_15702)">
<path d="M17.9996 36.6751C27.9368 36.6751 35.9924 28.6194 35.9924 18.6823C35.9924 8.7451 27.9368 0.689453 17.9996 0.689453C8.06249 0.689453 0.00683594 8.7451 0.00683594 18.6823C0.00683594 28.6194 8.06249 36.6751 17.9996 36.6751Z" fill="#EDF0F2"/>
<path d="M29.4263 32.5933C26.6759 34.8541 23.3207 36.2437 19.7783 36.5965C15.0263 37.0645 10.2887 35.6317 6.59509 32.6077C2.90149 29.5837 0.568687 25.2133 0.0934869 20.4613C-0.259313 16.9189 0.446287 13.3549 2.12389 10.2157C3.80149 7.06926 6.37189 4.49886 9.50389 2.82125C12.6431 1.14365 16.2143 0.430855 19.7567 0.776455C23.2991 1.12205 26.6615 2.51166 29.4119 4.77246L25.7759 9.19326C23.8967 7.65246 21.6071 6.70926 19.1951 6.47166C16.7831 6.23406 14.3495 6.72366 12.2111 7.86845C10.0727 9.01326 8.32309 10.7701 7.17829 12.9085C6.03349 15.0469 5.55109 17.4805 5.79589 19.8925C6.11989 23.1325 7.71109 26.1061 10.2311 28.1725C12.7511 30.2389 15.9839 31.2109 19.2167 30.8941C21.6287 30.6565 23.9183 29.7061 25.7975 28.1653L29.4263 32.5933Z" fill="url(#paint0_linear_1_15702)"/>
<path d="M17.9998 34.5152C26.7406 34.5152 33.8326 27.4304 33.8326 18.6824C33.8326 9.94161 26.7478 2.84961 17.9998 2.84961C9.25899 2.84961 2.16699 9.93441 2.16699 18.6824C2.16699 27.4304 9.25899 34.5152 17.9998 34.5152Z" fill="white"/>
<path d="M17.7986 25.4365L10.9658 18.4453L17.7482 20.9149L24.5306 18.4453L17.7986 25.4365Z" fill="#657786"/>
<path fill-rule="evenodd" clip-rule="evenodd" d="M10.9658 18.4445L17.7482 11.6621L24.5306 18.4445L17.7482 20.9141L10.9658 18.4445ZM12.9098 18.4949H15.8546L17.7986 16.5509L19.7426 18.4949H22.637L17.7986 13.6565L12.9098 18.4949Z" fill="#283947"/>
</g>
<defs>
<linearGradient id="paint0_linear_1_15702" x1="12.9268" y1="2.66814" x2="18.5699" y2="33.9548" gradientUnits="userSpaceOnUse">
<stop stop-color="#27D3A2"/>
<stop offset="1" stop-color="#9388FD"/>
</linearGradient>
<clipPath id="clip0_1_15702">
<rect width="36" height="36" fill="white" transform="translate(0 0.689453)"/>
</clipPath>
</defs>
</svg>
