<svg width="36" height="37" viewBox="0 0 36 37" fill="none" xmlns="http://www.w3.org/2000/svg">
<g clip-path="url(#clip0_1_15700)">
<path d="M20.2685 12.1152C20.2685 12.1152 21.6725 14.412 22.8029 15.6072C23.9333 16.8024 25.8125 18.7392 25.8125 20.5896C25.8125 22.44 24.2285 23.0376 23.3069 23.0376C21.7949 23.0376 20.8589 21.8712 20.8589 21.8712C20.8589 21.8712 20.5997 22.98 21.2261 23.9952C21.8525 25.0104 22.3493 25.428 22.3493 25.428H18.2597C18.2597 25.428 18.8069 24.9456 19.3109 24.0816C19.8149 23.2176 19.7213 21.8856 19.7213 21.8856C19.7213 21.8856 19.1237 23.0736 17.3021 23.0736C15.4805 23.0736 14.6885 21.7848 14.6885 20.532C14.6885 19.1352 16.1141 17.4216 17.9069 15.4632C19.7213 13.4832 20.2685 12.1152 20.2685 12.1152Z" fill="#BD0A08"/>
<path d="M20.2894 29.446C14.3494 29.446 9.53261 24.6292 9.53261 18.6892C9.53261 12.7492 14.3494 7.93238 20.2894 7.93238C22.9462 7.93238 25.3726 8.89718 27.2518 10.4884L33.7894 6.67958C33.5518 6.41318 33.3142 6.16118 33.0622 5.90918C31.4062 4.25318 29.4766 2.94998 27.3238 2.04278C26.215 1.57477 25.0702 1.22198 23.9038 0.984375V4.44758C23.9038 5.13158 21.8518 5.44838 21.1678 5.44838H19.4398C18.7558 5.44838 16.6534 5.13158 16.6534 4.44758V0.991575C15.4942 1.22918 14.3566 1.58197 13.255 2.04998C11.1022 2.95718 9.17261 4.26038 7.51661 5.91638C7.25741 6.17558 6.99821 6.44918 6.75341 6.72278L9.66221 8.42918C10.2526 8.77478 9.48941 10.7044 9.14381 11.2948L8.27261 12.7852C7.92701 13.3756 6.58781 15.0316 5.99741 14.686L3.13901 13.0084C2.53421 14.8372 2.22461 16.738 2.22461 18.6892C2.22461 20.6548 2.53421 22.5844 3.15341 24.4276L5.97581 22.7284C6.55901 22.3756 7.89101 23.9668 8.24381 24.55L9.13661 26.0332C9.48941 26.6164 10.303 28.582 9.71981 28.9348L6.79661 30.6988C7.02701 30.958 7.27181 31.2172 7.51661 31.462C9.17261 33.118 11.1022 34.4212 13.255 35.3284C14.3422 35.7892 15.4654 36.1348 16.6102 36.3724V32.9668C16.6102 32.2828 18.7126 31.966 19.3966 31.966H21.1246C21.8086 31.966 23.8606 32.2828 23.8606 32.9668V36.4012C25.0414 36.1636 26.2006 35.8036 27.3238 35.3284C29.4766 34.4212 31.4062 33.118 33.0622 31.462C33.2926 31.2316 33.523 30.9868 33.739 30.742L27.1726 26.9476C25.315 28.51 22.9102 29.446 20.2894 29.446Z" fill="#BD0A08"/>
</g>
<defs>
<clipPath id="clip0_1_15700">
<rect width="36" height="36" fill="white" transform="translate(0 0.689453)"/>
</clipPath>
</defs>
</svg>
