<svg width="36" height="37" viewBox="0 0 36 37" fill="none" xmlns="http://www.w3.org/2000/svg">
<path d="M35.3164 17.0115H21.0244C20.4412 15.9459 19.3108 15.2188 18.0076 15.2188C16.114 15.2188 14.5732 16.7595 14.5732 18.6531C14.5732 20.5467 16.114 22.0876 18.0076 22.0876C19.2892 22.0876 20.4124 21.3819 21.0028 20.3379H35.3164V17.0115Z" fill="black"/>
<path d="M29.9666 25.5577C27.5762 29.6905 23.105 32.4697 18.0002 32.4697C10.3826 32.4697 4.18342 26.2705 4.18342 18.6529C4.18342 11.0353 10.3826 4.83613 18.0002 4.83613C23.0978 4.83613 27.5546 7.60813 29.9522 11.7265L32.9474 10.0345C29.9594 4.87213 24.3794 1.39453 18.0002 1.39453C8.48902 1.39453 0.749023 9.13453 0.749023 18.6529C0.749023 28.1713 8.48902 35.9113 18.0074 35.9113C24.3866 35.9113 29.9738 32.4337 32.9546 27.2713L29.9666 25.5577Z" fill="black"/>
</svg>
