<svg width="36" height="37" viewBox="0 0 36 37" fill="none" xmlns="http://www.w3.org/2000/svg">
<path d="M25.4654 26.6459L19.7088 28.2587C19.2294 28.393 19.2572 29.0819 19.7459 29.1772L35.4331 32.2353L18.6925 3.5698C18.4316 3.12016 17.7456 3.43645 17.9181 3.92677L25.7994 26.004C25.8945 26.2743 25.7413 26.5687 25.4654 26.6459Z" fill="url(#paint0_linear_1_15698)"/>
<path d="M17.1826 15.0773L21.6628 19.7125C22.0188 20.0606 22.6016 19.6921 22.4397 19.2212L17.0393 3.65039L0.205397 32.804C-0.053587 33.2547 0.563381 33.6907 0.901709 33.2961L16.4596 15.109C16.6462 14.8916 16.9777 14.877 17.1826 15.0773Z" fill="url(#paint1_linear_1_15698)"/>
<path d="M11.0079 27.7372L12.9342 21.7019C13.0604 21.2202 12.4518 20.8963 12.1228 21.27L1.80762 33.8598L35.4334 33.8876C35.9533 33.8895 36.0267 33.1376 35.5164 33.0389L11.3933 28.3496C11.112 28.2952 10.9353 28.0144 11.0079 27.7372Z" fill="url(#paint2_linear_1_15698)"/>
<defs>
<linearGradient id="paint0_linear_1_15698" x1="17.8907" y1="17.7944" x2="35.4331" y2="17.7944" gradientUnits="userSpaceOnUse">
<stop stop-color="#62BDE1"/>
<stop offset="1" stop-color="#3B7FBE"/>
</linearGradient>
<linearGradient id="paint1_linear_1_15698" x1="0.143549" y1="18.5503" x2="22.4675" y2="18.5503" gradientUnits="userSpaceOnUse">
<stop stop-color="#62BDE1"/>
<stop offset="1" stop-color="#3B7FBE"/>
</linearGradient>
<linearGradient id="paint2_linear_1_15698" x1="1.80765" y1="27.4975" x2="35.8635" y2="27.4975" gradientUnits="userSpaceOnUse">
<stop stop-color="#AEAEAE"/>
<stop offset="0.5132" stop-color="#E6E6E6"/>
<stop offset="1" stop-color="#ACACAC"/>
</linearGradient>
</defs>
</svg>
