<svg width="36" height="37" viewBox="0 0 36 37" fill="none" xmlns="http://www.w3.org/2000/svg">
<g clip-path="url(#clip0_1_15782)">
<path d="M17.9996 36.6751C27.9368 36.6751 35.9924 28.6194 35.9924 18.6823C35.9924 8.7451 27.9368 0.689453 17.9996 0.689453C8.06249 0.689453 0.00683594 8.7451 0.00683594 18.6823C0.00683594 28.6194 8.06249 36.6751 17.9996 36.6751Z" fill="#EDF0F2"/>
<path d="M29.4263 32.5933C26.6759 34.8541 23.3207 36.2437 19.7783 36.5965C15.0263 37.0645 10.2887 35.6317 6.59509 32.6077C2.90149 29.5837 0.568687 25.2133 0.0934869 20.4613C-0.259313 16.9189 0.446287 13.3549 2.12389 10.2157C3.80149 7.06926 6.37189 4.49886 9.50389 2.82125C12.6431 1.14365 16.2143 0.430855 19.7567 0.776455C23.2991 1.12205 26.6615 2.51166 29.4119 4.77246L25.7759 9.19326C23.8967 7.65246 21.6071 6.70926 19.1951 6.47166C16.7831 6.23406 14.3495 6.72366 12.2111 7.86845C10.0727 9.01326 8.32309 10.7701 7.17829 12.9085C6.03349 15.0469 5.55109 17.4805 5.79589 19.8925C6.11989 23.1325 7.71109 26.1061 10.2311 28.1725C12.7511 30.2389 15.9839 31.2109 19.2167 30.8941C21.6287 30.6565 23.9183 29.7061 25.7975 28.1653L29.4263 32.5933Z" fill="url(#paint0_linear_1_15782)"/>
<path d="M17.9998 34.5152C26.7406 34.5152 33.8326 27.4304 33.8326 18.6824C33.8326 9.94161 26.7478 2.84961 17.9998 2.84961C9.25899 2.84961 2.16699 9.93441 2.16699 18.6824C2.16699 27.4304 9.25899 34.5152 17.9998 34.5152Z" fill="white"/>
<path d="M20.5127 19.9279C20.5127 18.5527 19.6631 18.0919 18.0215 17.8687C16.8047 17.6959 16.5743 17.4151 16.5743 16.8607C16.5743 16.3063 16.9847 15.9535 17.7695 15.9535C18.4895 15.9535 18.8999 16.1983 19.0655 16.7671C19.0799 16.8319 19.1231 16.8823 19.1735 16.9255C19.2239 16.9615 19.2887 16.9831 19.3535 16.9903H19.9799C20.0231 16.9903 20.0591 16.9831 20.1023 16.9687C20.1383 16.9543 20.1743 16.9255 20.2031 16.8967C20.2319 16.8679 20.2463 16.8319 20.2607 16.7887C20.2751 16.7527 20.2751 16.7095 20.2679 16.6663C20.0663 15.7735 19.4543 15.2335 18.4895 15.0607V14.1175C18.4895 14.0383 18.4607 13.9663 18.4031 13.9087C18.3455 13.8511 18.2735 13.8223 18.1943 13.8223H17.5967C17.5175 13.8223 17.4383 13.8511 17.3879 13.9087C17.3303 13.9663 17.3015 14.0383 17.3015 14.1175V15.0319C16.1063 15.1975 15.3503 15.9751 15.3503 16.9687C15.3503 18.2575 16.1495 18.7543 17.8199 18.9775C18.9575 19.1575 19.2815 19.4023 19.2815 20.0359C19.2815 20.6695 18.7343 21.0943 17.9567 21.0943C16.9127 21.0943 16.5599 20.6479 16.4447 20.0647C16.4303 19.9999 16.3943 19.9351 16.3439 19.8919C16.2935 19.8487 16.2215 19.8271 16.1567 19.8199H15.4727C15.4295 19.8199 15.3935 19.8271 15.3575 19.8415C15.3215 19.8559 15.2855 19.8847 15.2639 19.9135C15.2351 19.9423 15.2207 19.9783 15.2063 20.0215C15.1919 20.0575 15.1919 20.1007 15.1991 20.1367C15.3719 21.1159 16.0127 21.8359 17.3159 22.0087V22.9375C17.3159 23.0167 17.3447 23.0887 17.4023 23.1463C17.4599 23.2039 17.5319 23.2327 17.6111 23.2327H18.2087C18.2879 23.2327 18.3671 23.2039 18.4175 23.1463C18.4751 23.0887 18.5039 23.0167 18.5039 22.9375V22.0087C19.7279 21.8215 20.5127 20.9791 20.5127 19.9279Z" fill="#283947"/>
<path d="M15.9771 24.1477C14.8395 23.7373 13.8531 22.9813 13.1547 21.9949C12.4563 21.0085 12.0819 19.8349 12.0819 18.6325C12.0819 17.4301 12.4563 16.2565 13.1547 15.2701C13.8531 14.2837 14.8395 13.5349 15.9771 13.1173C16.0491 13.0885 16.1139 13.0309 16.1571 12.9661C16.2003 12.9013 16.2291 12.8221 16.2291 12.7429V12.1957C16.2363 12.1453 16.2291 12.0949 16.2075 12.0517C16.1859 12.0085 16.1571 11.9725 16.1139 11.9437C16.0707 11.9149 16.0275 11.9005 15.9771 11.8933C15.9267 11.8861 15.8763 11.8933 15.8331 11.9149C14.3931 12.3685 13.1403 13.2613 12.2547 14.4709C11.3619 15.6805 10.8867 17.1349 10.8867 18.6253C10.8867 20.1229 11.3691 21.5773 12.2547 22.7797C13.1475 23.9893 14.4003 24.8821 15.8331 25.3357C15.8763 25.3573 15.9267 25.3645 15.9771 25.3573C16.0275 25.3501 16.0707 25.3357 16.1139 25.3069C16.1571 25.2781 16.1859 25.2421 16.2075 25.1989C16.2291 25.1557 16.2363 25.1053 16.2291 25.0549V24.5221C16.2291 24.4429 16.2003 24.3637 16.1571 24.2989C16.1139 24.2341 16.0563 24.1837 15.9771 24.1477Z" fill="#657786"/>
<path d="M20.0524 11.9286C20.0092 11.907 19.9588 11.8998 19.9084 11.907C19.858 11.9142 19.8148 11.9286 19.7716 11.9574C19.7284 11.9862 19.6996 12.0222 19.678 12.0654C19.6564 12.1086 19.6492 12.159 19.6564 12.2094V12.7566C19.6564 12.8358 19.6852 12.915 19.7284 12.9798C19.7716 13.0446 19.8364 13.095 19.9084 13.131C21.046 13.5414 22.0324 14.2974 22.7308 15.2838C23.4292 16.2702 23.8036 17.4438 23.8036 18.6462C23.8036 19.8486 23.4292 21.0222 22.7308 22.0086C22.0324 22.995 21.046 23.7438 19.9084 24.1614C19.8292 24.1902 19.7644 24.2406 19.7212 24.3054C19.678 24.3702 19.6492 24.4494 19.6492 24.5286V25.0758C19.642 25.1262 19.6492 25.1766 19.6708 25.2198C19.6924 25.263 19.7212 25.299 19.7644 25.3278C19.8076 25.3566 19.8508 25.371 19.9012 25.3782C19.9516 25.3854 20.002 25.3782 20.0452 25.3566C21.4852 24.903 22.738 24.0102 23.6236 22.8006C24.5164 21.591 24.9916 20.1366 24.9916 18.6462C24.9916 17.1486 24.5092 15.6942 23.6236 14.4918C22.7452 13.275 21.4924 12.3822 20.0524 11.9286Z" fill="#657786"/>
</g>
<defs>
<linearGradient id="paint0_linear_1_15782" x1="12.9268" y1="2.66814" x2="18.5699" y2="33.9548" gradientUnits="userSpaceOnUse">
<stop stop-color="#27D3A2"/>
<stop offset="1" stop-color="#9388FD"/>
</linearGradient>
<clipPath id="clip0_1_15782">
<rect width="36" height="36" fill="white" transform="translate(0 0.689453)"/>
</clipPath>
</defs>
</svg>
