<svg width="36" height="37" viewBox="0 0 36 37" fill="none" xmlns="http://www.w3.org/2000/svg">
<path d="M12.1641 11.3145H18.4647L23.007 22.7924L20.0765 31.7306L12.1641 11.3145Z" fill="url(#paint0_linear_1_15773)"/>
<path d="M23.0067 22.7928L27.6468 9.70303C27.6468 9.70303 28.6725 6.77249 30.7726 5.84448C32.8729 4.91647 35.6569 4.96529 35.6569 4.96529L26.4745 31.7309H20.0762L23.0067 22.7928Z" fill="#FFD431"/>
<path d="M9.33078 11.3145L11.2845 16.3941C11.2845 16.3941 5.86297 16.6383 5.86297 21.7667C5.86297 26.8951 10.7961 27.0905 11.7241 27.0905C12.6521 27.0905 15.0453 26.0648 15.0453 26.0648L17.0479 30.9491C17.0479 30.9491 14.7523 32.3166 11.4554 32.3166C8.15855 32.3166 0.294922 30.7537 0.294922 21.8156C0.294922 12.8774 8.30507 11.5098 9.33078 11.3145Z" fill="#00BDE7"/>
<defs>
<linearGradient id="paint0_linear_1_15773" x1="17.0709" y1="11.3652" x2="18.9269" y2="31.879" gradientUnits="userSpaceOnUse">
<stop stop-color="#FFD431"/>
<stop offset="1" stop-color="#EDBB24"/>
</linearGradient>
</defs>
</svg>
