<svg width="36" height="37" viewBox="0 0 36 37" fill="none" xmlns="http://www.w3.org/2000/svg">
<g clip-path="url(#clip0_1_15694)">
<path d="M35.2666 14.9465C33.7865 14.9465 32.3093 14.9465 30.7972 14.9465C29.3941 10.8379 26.7345 7.87484 22.6351 6.3123C19.9187 5.27686 17.1452 5.25562 14.3677 6.08938C8.72973 7.78182 4.78319 13.353 5.08804 19.1737C5.41348 25.3882 9.76098 30.4671 15.6911 31.6332C21.9343 32.8608 28.6753 29.2259 30.8012 22.4389C32.2819 22.4389 33.77 22.4389 35.2591 22.4389C33.9247 29.3582 27.1264 36.6483 17.3885 36.2444C8.15279 35.8615 0.776031 28.1669 0.703671 18.8249C0.631311 9.4767 7.76385 2.01915 16.5426 1.19979C26.2986 0.289208 33.7802 7.42866 35.2666 14.9465ZM22.3631 15.2487C21.8329 13.5301 20.1853 12.3132 18.3105 12.3001C16.4128 12.2868 14.7263 13.4906 14.1857 15.2137C13.708 16.7363 14.1293 18.6746 16.6905 20.0788C16.6905 21.7214 16.6905 23.3854 16.6905 25.0452C17.7693 25.0452 18.8092 25.0452 19.8714 25.0452C19.8714 23.3586 19.8714 21.7053 19.8714 20.065C22.3324 18.7243 22.8433 16.805 22.3631 15.2487Z" fill="#20A549"/>
</g>
<defs>
<clipPath id="clip0_1_15694">
<rect width="36" height="36" fill="white" transform="translate(0 0.689453)"/>
</clipPath>
</defs>
</svg>
