<svg width="36" height="37" viewBox="0 0 36 37" fill="none" xmlns="http://www.w3.org/2000/svg">
<g clip-path="url(#clip0_1_15875)">
<path d="M35.698 15.2698L29.83 5.08904C29.7436 4.93784 29.614 4.81544 29.4628 4.72184L24.2716 1.72664C24.1204 1.64024 23.9476 1.58984 23.7748 1.58984L11.9884 1.62584C11.8156 1.62584 11.6428 1.67624 11.4916 1.76264L6.39396 4.73624C6.24276 4.82264 6.12036 4.94504 6.03396 5.09624L0.129964 15.2482C0.0435641 15.3994 -0.00683594 15.5794 -0.00683594 15.7594L0.0435641 21.7858C0.0435641 21.9586 0.0939641 22.1314 0.180364 22.2754L6.04116 32.3698C6.12756 32.521 6.25716 32.6506 6.41556 32.737L11.5348 35.6098C11.686 35.6962 11.8516 35.7394 12.0172 35.7394L23.8324 35.7826C24.0124 35.7826 24.1852 35.7322 24.3364 35.6458L29.3188 32.6938C29.4628 32.6074 29.5852 32.4922 29.6644 32.3482L35.6836 22.1962C35.7772 22.045 35.8204 21.865 35.8204 21.6922V15.7666C35.8348 15.5866 35.7844 15.421 35.698 15.2698ZM23.9188 21.4258L23.9692 19.3882L24.9484 21.109L24.9268 23.1466L23.9188 21.4258ZM22.6876 29.8858L20.9668 26.797L22.9036 23.6218L24.7252 26.725L22.6876 29.8858ZM10.7428 30.5122L14.4652 30.6634L16.2076 33.7666L12.5932 33.7522L10.7428 30.5122ZM2.18916 21.7714L4.03956 18.517L5.76756 21.7498L3.96036 24.8242L2.18916 21.7714ZM7.50276 20.7706L5.76036 17.509L9.25957 17.617L11.1028 20.713L7.50276 20.7706ZM12.5716 22.6714L14.3284 23.6794L12.3484 23.7298L10.5556 22.7074L12.5716 22.6714ZM12.6364 25.717L16.1788 25.6234L14.4868 28.6762L10.786 28.525L12.6364 25.717ZM18.6268 25.3066L20.038 24.493L19.0876 26.0554L17.7628 26.869L18.6268 25.3066ZM17.8924 23.4346L13.8172 21.0946L13.7452 16.2562L17.914 13.9378L22.054 16.3498L21.9388 21.0946L17.8924 23.4346ZM21.3556 8.66744L25.1068 8.89064L23.2348 11.7562L19.6204 11.785L21.3556 8.66744ZM17.1868 12.0658L15.4804 13.0162L16.4596 11.3674L18.13 10.381L17.1868 12.0658ZM23.314 14.7874L21.5428 13.7578L23.5084 13.7434L25.258 14.7442L23.314 14.7874ZM28.498 14.2978L25.186 12.4042L27.2164 9.29384L30.4492 10.9642L28.498 14.2978ZM25.0996 6.89624L21.3844 6.68024L19.6204 3.59864L23.206 3.59144L25.0996 6.89624ZM19.4404 7.28504L16.1356 9.24344L14.4076 5.88104L17.554 3.98024L19.4404 7.28504ZM13.0108 7.51544L14.602 10.6042L12.7372 13.7362L10.9588 10.7698L13.0108 7.51544ZM11.7436 15.961L11.7724 17.9626L10.822 16.3642L10.8076 14.3986L11.7436 15.961ZM8.80596 11.7418L8.83476 15.6154L5.04036 15.493L4.94676 11.7058L8.80596 11.7418ZM7.27236 23.125L10.6852 25.069L8.66196 28.1434L5.34996 26.3938L7.27236 23.125ZM18.274 33.3706L16.402 30.037L19.4476 28.1578L21.298 31.4698L18.274 33.3706ZM26.5396 19.885L24.7468 16.7458L28.246 16.6594L29.9524 20.0506L26.5396 19.885ZM26.9284 21.8938L30.6508 22.0738L30.7876 25.7674L26.8852 25.7602L26.9284 21.8938ZM31.6876 19.0714L29.9812 15.6874L31.8244 12.5482L33.6748 15.7594L31.6876 19.0714ZM29.2828 8.12744L27.598 7.25624L26.4748 5.29784L28.2388 6.32024L29.2828 8.12744ZM12.262 3.61304L14.3284 3.60584L12.8164 4.52024L10.6564 4.54904L12.262 3.61304ZM7.47396 6.58664L11.2756 6.53624L9.24516 9.76184L5.64516 9.73304L7.47396 6.58664ZM3.01716 14.2474L3.06756 16.213L2.00916 18.0778L1.99476 16.0186L3.01716 14.2474ZM6.55236 29.2882L8.27316 30.1954L9.37476 32.125L7.63236 31.1458L6.55236 29.2882ZM23.566 33.7954L21.3556 33.7882L22.9036 32.8162L25.2004 32.8234L23.566 33.7954ZM28.2532 30.8434L24.4444 30.829L26.4316 27.7474L30.082 27.7546L28.2532 30.8434ZM32.6956 23.3554L32.6236 21.3826L33.8476 19.345V21.4114L32.6956 23.3554Z" fill="black"/>
</g>
<defs>
<clipPath id="clip0_1_15875">
<rect width="36" height="36" fill="white" transform="translate(0 0.689453)"/>
</clipPath>
</defs>
</svg>
