<svg width="36" height="37" viewBox="0 0 36 37" fill="none" xmlns="http://www.w3.org/2000/svg">
<path d="M31.7011 14.3986C33.8349 14.4094 35.5833 16.0181 35.7902 18.1611C35.9921 20.2513 34.4307 22.194 32.2486 22.5678C30.3148 22.8991 27.9552 25.9189 28.16 27.835C28.1886 28.1025 28.3706 28.3553 28.4897 28.6111C29.3233 30.4029 28.8722 32.4364 27.3727 33.6365C25.8648 34.8433 23.7312 34.8444 22.2236 33.639C20.7168 32.4343 20.3012 30.427 21.0764 28.605C21.2927 28.0966 21.431 27.381 21.2401 26.9077C20.7676 25.7362 20.1385 24.6157 19.4648 23.5421C19.0628 22.9014 18.419 22.6032 17.5676 22.5626C15.6824 22.4726 14.2327 21.1118 13.8367 19.2738C13.4827 17.6311 14.2747 15.8602 15.7639 14.9648C17.2708 14.0587 19.2319 14.2315 20.5542 15.387C21.9289 16.5882 22.3134 18.4235 21.6424 20.172C21.4656 20.6326 21.3962 21.2116 21.499 21.6886C21.8731 23.4241 22.8344 24.8142 24.2238 25.9194C24.7269 26.3195 25.1469 26.3133 25.6394 25.8781C27.0316 24.6478 27.9165 23.1358 28.186 21.3034C28.2415 20.9261 28.0418 20.4871 27.8862 20.1066C26.7585 17.3461 28.7314 14.3837 31.7011 14.3986Z" fill="url(#paint0_linear_1_15692)"/>
<path d="M7.04512 30.0818C7.09581 29.8751 7.16565 29.3377 7.35839 28.8487C8.07429 27.0325 6.62514 23.406 4.81413 22.6022C4.59964 22.507 4.3305 22.5258 4.08556 22.5096C1.71467 22.3523 0.0773172 20.7112 0.0722772 18.4826C0.0673812 16.2839 1.61891 14.7227 3.98015 14.474C4.40776 14.4289 4.95957 14.2587 5.19709 13.9491C6.03244 12.8603 6.82753 11.7257 7.49562 10.5291C7.91725 9.77384 7.82689 8.93915 7.45213 8.06932C6.52153 5.90946 7.63451 3.53202 9.82021 2.76083C11.9474 2.01037 14.3408 3.1996 14.9715 5.32043C15.6584 7.63004 14.3893 9.85067 12.0472 10.4376C9.64633 11.0392 7.67145 13.4005 7.5376 15.8573C7.52269 16.1307 7.57461 16.4313 7.68045 16.6838C8.17458 17.8624 8.20201 19.0183 7.70982 20.2152C7.55898 20.582 7.53371 21.0614 7.61773 21.4534C8.01467 23.3058 9.00906 24.8086 10.5389 25.9112C10.9467 26.2051 11.5175 26.2989 12.0291 26.4179C14.1113 26.9023 15.5213 28.8814 15.2374 30.9592C14.9455 33.0945 12.9568 34.7276 10.8706 34.5452C8.66958 34.3527 7.03425 32.5852 7.04512 30.0818Z" fill="url(#paint1_linear_1_15692)"/>
<path d="M28.7651 6.57731C28.7527 8.83235 26.9874 10.5907 24.759 10.5674C22.5269 10.5441 20.8139 8.77756 20.8193 6.50452C20.8247 4.25877 22.5965 2.49923 24.8298 2.5217C27.0702 2.54416 28.7777 4.30377 28.7651 6.57731Z" fill="#8B008B"/>
<defs>
<linearGradient id="paint0_linear_1_15692" x1="24.7803" y1="21.1541" x2="24.7803" y2="27.0476" gradientUnits="userSpaceOnUse">
<stop offset="0.000478316" stop-color="#8B008B"/>
<stop offset="1" stop-color="#4B0082"/>
</linearGradient>
<linearGradient id="paint1_linear_1_15692" x1="10.6673" y1="18.8232" x2="13.4296" y2="24.5318" gradientUnits="userSpaceOnUse">
<stop stop-color="#1E90FF"/>
<stop offset="1" stop-color="#4B0082"/>
</linearGradient>
</defs>
</svg>
