<svg width="36" height="37" viewBox="0 0 36 37" fill="none" xmlns="http://www.w3.org/2000/svg">
<g clip-path="url(#clip0_1_15687)">
<path d="M22.9392 7.70898H20.4336V11.489H22.9392V7.70898Z" fill="#1682FE"/>
<path d="M15.7322 0.689453H13.2266V4.46945H15.7322V0.689453Z" fill="#1682FE"/>
<path d="M8.53197 4.28906H6.02637V8.06906H8.53197V4.28906Z" fill="#60D8A4"/>
<path d="M4.96116 18.6895H2.42676V29.4895H4.96116V18.6895Z" fill="#F4BB3B"/>
<path d="M4.96116 7.88867H2.42676V18.6887H4.96116V7.88867Z" fill="#60D8A4"/>
<path d="M26.532 11.3086H24.0264V15.0886H26.532V11.3086Z" fill="#1682FE"/>
<path d="M26.532 22.2891H24.0264V26.0691H26.532V22.2891Z" fill="#FF5A5A"/>
<path d="M22.9324 25.8887H20.4268V29.6687H22.9324V25.8887Z" fill="#FF5A5A"/>
<path d="M15.7322 32.9102H13.2266V36.6902H15.7322V32.9102Z" fill="#FF5A5A"/>
<path d="M8.53197 29.3086H6.02637V33.0886H8.53197V29.3086Z" fill="#F4BB3B"/>
<path d="M33.5734 15.0895V7.88945H29.9734V4.28945H22.7734V0.689453H15.5734V4.28945H8.37344V7.88945H4.77344V29.4895H8.37344V33.0895H15.5734V36.6895H22.7734V33.0895H29.9734V29.4895H33.5734V22.2895H26.3734V25.8895H22.7734V29.4895H15.5734V25.8895H11.9734V11.4895H15.5734V7.88945H22.7734V11.4895H26.3734V15.0895H33.5734Z" fill="#3A3A3A"/>
</g>
<defs>
<clipPath id="clip0_1_15687">
<rect width="36" height="36" fill="white" transform="translate(0 0.689453)"/>
</clipPath>
</defs>
</svg>
