<svg width="36" height="37" viewBox="0 0 36 37" fill="none" xmlns="http://www.w3.org/2000/svg">
<g clip-path="url(#clip0_1_15824)">
<path d="M17.9996 36.6751C27.9368 36.6751 35.9924 28.6194 35.9924 18.6823C35.9924 8.7451 27.9368 0.689453 17.9996 0.689453C8.06249 0.689453 0.00683594 8.7451 0.00683594 18.6823C0.00683594 28.6194 8.06249 36.6751 17.9996 36.6751Z" fill="#EDF0F2"/>
<path d="M29.4263 32.5933C26.6759 34.8541 23.3207 36.2437 19.7783 36.5965C15.0263 37.0645 10.2887 35.6317 6.59509 32.6077C2.90149 29.5837 0.568687 25.2133 0.0934869 20.4613C-0.259313 16.9189 0.446287 13.3549 2.12389 10.2157C3.80149 7.06926 6.37189 4.49886 9.50389 2.82125C12.6431 1.14365 16.2143 0.430855 19.7567 0.776455C23.2991 1.12205 26.6615 2.51166 29.4119 4.77246L25.7759 9.19326C23.8967 7.65246 21.6071 6.70926 19.1951 6.47166C16.7831 6.23406 14.3495 6.72366 12.2111 7.86845C10.0727 9.01326 8.32309 10.7701 7.17829 12.9085C6.03349 15.0469 5.55109 17.4805 5.79589 19.8925C6.11989 23.1325 7.71109 26.1061 10.2311 28.1725C12.7511 30.2389 15.9839 31.2109 19.2167 30.8941C21.6287 30.6565 23.9183 29.7061 25.7975 28.1653L29.4263 32.5933Z" fill="url(#paint0_linear_1_15824)"/>
<path d="M17.9998 34.5152C26.7406 34.5152 33.8326 27.4304 33.8326 18.6824C33.8326 9.94161 26.7478 2.84961 17.9998 2.84961C9.25899 2.84961 2.16699 9.93441 2.16699 18.6824C2.16699 27.4304 9.25899 34.5152 17.9998 34.5152Z" fill="white"/>
<path d="M18.0005 26.9911C22.5797 26.9911 26.2949 23.2759 26.2949 18.6967C26.2949 14.1175 22.5797 10.4023 18.0005 10.4023C13.4213 10.4023 9.70605 14.1175 9.70605 18.6967C9.70605 23.2759 13.4213 26.9911 18.0005 26.9911Z" fill="white"/>
<path d="M19.3752 18.4584C19.6992 18.2856 19.9008 17.9832 19.8504 17.4792C19.7856 16.788 19.2168 16.5576 18.4968 16.4928V15.5352H17.9424V16.4712C17.7984 16.4712 17.6472 16.4712 17.496 16.4784V15.5352H16.9416V16.4928C16.8192 16.4928 16.704 16.5 16.5888 16.5H15.8184V17.1264C15.8184 17.1264 16.2288 17.1192 16.2216 17.1264C16.4448 17.1264 16.524 17.2632 16.5456 17.3856V18.48V20.0136C16.5384 20.0856 16.4952 20.208 16.3368 20.208C16.344 20.2152 15.9336 20.208 15.9336 20.208L15.8256 20.9064H16.5528C16.6896 20.9064 16.8192 20.9064 16.9488 20.9064V21.8784H17.5032V20.9208C17.6544 20.9208 17.8056 20.928 17.9496 20.928V21.8856H18.504V20.9208C19.44 20.8632 20.0952 20.6184 20.1816 19.6968C20.2392 18.9192 19.908 18.588 19.3752 18.4584ZM17.5104 17.1552C17.8272 17.1552 18.8136 17.0472 18.8136 17.7384C18.8136 18.4008 17.8272 18.3216 17.5104 18.3216V17.1552ZM17.5104 20.1936V18.912C17.8848 18.912 19.0728 18.7968 19.0728 19.5528C19.0728 20.2728 17.892 20.1936 17.5104 20.1936Z" fill="#657786"/>
<path d="M17.9996 24.1535C21.0137 24.1535 23.4572 21.71 23.4572 18.6959C23.4572 15.6817 21.0137 13.2383 17.9996 13.2383C14.9854 13.2383 12.542 15.6817 12.542 18.6959C12.542 21.71 14.9854 24.1535 17.9996 24.1535Z" stroke="#657786" stroke-width="0.447156"/>
<path d="M17.9998 25.8961C21.9763 25.8961 25.1998 22.6725 25.1998 18.6961C25.1998 14.7196 21.9763 11.4961 17.9998 11.4961C14.0234 11.4961 10.7998 14.7196 10.7998 18.6961C10.7998 22.6725 14.0234 25.8961 17.9998 25.8961Z" stroke="#283947" stroke-width="0.447156"/>
<path d="M22.0679 23.168L20.1959 21.3248M15.1271 16.3352L13.5215 14.7656M13.9535 23.168L15.8255 21.3248M20.8871 16.3352L22.4783 14.7656" stroke="white" stroke-width="0.335369"/>
</g>
<defs>
<linearGradient id="paint0_linear_1_15824" x1="12.9268" y1="2.66814" x2="18.5699" y2="33.9548" gradientUnits="userSpaceOnUse">
<stop stop-color="#27D3A2"/>
<stop offset="1" stop-color="#9388FD"/>
</linearGradient>
<clipPath id="clip0_1_15824">
<rect width="36" height="36" fill="white" transform="translate(0 0.689453)"/>
</clipPath>
</defs>
</svg>
