<svg width="36" height="37" viewBox="0 0 36 37" fill="none" xmlns="http://www.w3.org/2000/svg">
<path d="M9.25098 20.9579C9.49268 21.038 9.75411 21.0814 10.0298 21.0819C10.6724 21.0832 11.3149 21.0797 11.9575 21.0755L11.8973 19.3926L9.25098 20.9579Z" fill="#9A3121"/>
<path d="M11.8972 19.393L11.7919 16.4531C11.1948 16.4533 10.5976 16.4531 10.0004 16.4536C9.40023 16.4541 8.86649 16.6726 8.46387 17.0288L11.8621 19.4138L11.8972 19.393Z" fill="#CC3F28"/>
<path d="M8.4639 17.0293C7.87357 17.5516 7.56498 18.3702 7.74217 19.2329C7.91468 20.0727 8.48176 20.7037 9.25093 20.9587L11.8621 19.4142L8.4639 17.0293Z" fill="#501C16"/>
<path d="M16.4935 16.4536C14.9264 16.4536 13.3591 16.4533 11.792 16.4536L11.8965 19.3731L19.8225 16.4531C18.7128 16.4533 17.6032 16.4536 16.4935 16.4536Z" fill="#501C16"/>
<path d="M11.9571 21.0771C12.3282 21.0747 12.6993 21.0721 13.0705 21.0701L11.8975 19.4121L11.9571 21.0771Z" fill="#812A1D"/>
<path d="M25.2274 18.3826C25.0895 17.3065 24.1042 16.4554 22.9864 16.4543C21.9318 16.4532 20.8771 16.4531 19.8225 16.4531L11.8965 19.3731L11.8979 19.4113L13.0709 21.0693C13.4345 21.0672 13.7981 21.0656 14.1617 21.0652C17.0735 21.0621 19.9853 21.0657 22.8969 21.0613C23.105 21.061 23.318 21.039 23.5202 20.9912C24.6821 20.7165 25.3876 19.6317 25.2274 18.3826Z" fill="#E5462C"/>
<path d="M15.1683 27.5185C15.0254 28.6787 15.7533 29.7271 16.8459 30.0493C16.9754 30.0875 17.1291 30.1464 17.2502 30.1464C18.0697 30.1464 18.8891 30.1464 19.7086 30.1464L16.4622 25.6875C15.7688 26.0115 15.2714 26.6816 15.1683 27.5185Z" fill="#812A1D"/>
<path d="M2.38738 7.38477C2.10068 7.38477 1.45779 7.62287 1.08648 7.95911C0.997348 8.03982 0.9157 8.12435 0.84082 8.21248L2.18715 11.999C2.43245 12.037 2.6851 12.0393 2.93782 12.0368L5.91711 7.38477C4.74048 7.38477 3.56393 7.38477 2.38738 7.38477Z" fill="#501C16"/>
<path d="M0.328164 9.36093C0.297564 9.59587 0.303684 9.93923 0.32982 10.0821C0.503844 11.0357 1.16372 11.806 2.10527 11.9856C2.13234 11.9908 2.15963 11.9951 2.18684 11.9994L0.840516 8.21289C0.56382 8.53869 0.385908 8.91691 0.328164 9.36093Z" fill="#9A3121"/>
<path d="M10.2884 7.71258C10.0024 7.55541 9.61449 7.38477 9.35112 7.38477C8.20632 7.38477 7.06159 7.38477 5.91679 7.38477L2.9375 12.0368C3.06235 12.0356 3.18727 12.0334 3.31118 12.0337C5.18707 12.0378 7.06296 12.037 8.93884 12.0334C9.15585 12.033 9.37711 12.0267 9.58908 11.9854C10.5162 11.8049 11.2568 11.0482 11.3945 10.1599C11.555 9.12457 11.1474 8.18461 10.2884 7.71258Z" fill="#CC3F28"/>
<path d="M24.6196 25.4596C22.2219 25.5033 19.8229 25.4719 17.4245 25.4749C17.0787 25.4753 16.7532 25.5508 16.4619 25.6869L19.7083 30.1457C19.7301 30.1457 19.752 30.1457 19.7737 30.1457C19.8729 30.1343 19.9721 30.113 20.0713 30.1128C21.4878 30.1107 22.9043 30.1004 24.3207 30.1133C25.1453 30.1208 25.9429 30.0399 26.7076 29.8822L28.0918 24.332C27.0744 25.0214 25.8747 25.4367 24.6196 25.4596Z" fill="#E5462C"/>
<path d="M26.1614 7.54488C25.7032 7.4682 25.2375 7.43566 24.7753 7.38281C24.5611 7.38281 24.3469 7.38281 24.1328 7.38281L31.144 12.4233L31.9607 10.3518C30.3152 8.84484 28.374 7.91511 26.1614 7.54488Z" fill="#371512"/>
<path d="M28.3164 13.3233C28.9777 13.82 29.5519 14.4565 30.0403 15.2243L31.1435 12.4263L31.0559 12.3633L28.3164 13.3233Z" fill="#E5462C"/>
<path d="M24.1324 7.38477C21.8227 7.38477 19.513 7.38477 17.2034 7.38477C16.5308 7.38477 15.5156 8.13709 15.2558 9.03688C14.9914 9.95257 15.2 10.7775 15.9075 11.4473C16.376 11.8908 16.9517 12.0434 17.5791 12.0436C19.8374 12.0444 22.096 12.0203 24.3539 12.05C25.9142 12.0705 27.2325 12.5081 28.3164 13.3223L31.0559 12.3623L24.1324 7.38477Z" fill="#66221D"/>
<path d="M32.1445 10.5229C32.0839 10.465 32.022 10.4098 31.9605 10.3535L31.1367 12.4429L35.4714 16.6692C35.0385 14.266 33.9198 12.2184 32.1445 10.5229Z" fill="#E5462C"/>
<path d="M35.5212 16.9645C35.4991 16.8668 35.489 16.7674 35.4713 16.6697L31.1367 12.4434L30.0405 15.2235C30.1441 15.3863 30.2443 15.5543 30.3401 15.7287C31.0842 17.083 31.2524 18.5491 30.9544 20.0733C30.6121 21.824 29.536 23.3545 28.0922 24.3327L26.708 29.8828C31.0346 28.9905 34.2964 25.6194 35.2911 21.638C35.4504 21.0006 35.5714 20.3456 35.6173 19.6879C35.6439 19.3061 35.7091 17.798 35.5212 16.9645Z" fill="#B33824"/>
</svg>
