<svg width="36" height="37" viewBox="0 0 36 37" fill="none" xmlns="http://www.w3.org/2000/svg">
<g clip-path="url(#clip0_1_15788)">
<path fill-rule="evenodd" clip-rule="evenodd" d="M27.3461 0.689453C26.2949 0.689453 25.4381 1.54625 25.4381 2.59745V22.8943V11.3383C25.4381 11.3383 24.0701 10.4311 22.2485 9.81905C20.8877 9.36545 19.1813 9.17105 18.1373 9.17105C10.5773 9.17105 4.41406 15.3343 4.41406 22.8943C4.41406 30.4543 10.5773 36.6175 18.1373 36.6175C25.6973 36.6175 31.5869 30.4543 31.5869 22.8943V2.59745C31.5869 1.54625 30.7301 0.689453 29.6789 0.689453H27.3461ZM18.1877 15.2911C22.3997 15.2911 25.4093 18.6823 25.4093 22.8943C25.4093 24.8599 24.7541 26.6455 23.6237 27.9919C22.3349 29.5327 20.4341 30.4975 18.1877 30.4975C13.9757 30.4975 10.5845 27.1063 10.5845 22.8943C10.5917 18.6823 13.9829 15.2911 18.1877 15.2911Z" fill="url(#paint0_linear_1_15788)"/>
<path fill-rule="evenodd" clip-rule="evenodd" d="M18.1373 9.17188C10.5773 9.17188 4.41406 15.3351 4.41406 22.8951C4.41406 30.4551 10.5773 36.6183 18.1373 36.6183C25.6973 36.6183 31.5869 30.4551 31.5869 22.8951H25.4381V11.3391C25.2365 11.2023 25.1357 11.1303 24.8117 10.9503C22.8317 9.86307 20.5853 9.17188 18.1373 9.17188ZM18.1877 15.2919C22.3997 15.2919 25.4093 18.6831 25.4093 22.8951C25.4093 24.8607 24.7541 26.6463 23.6237 27.9927C22.3349 29.5335 20.4341 30.4983 18.1877 30.4983C13.9757 30.4983 10.5845 27.1071 10.5845 22.8951C10.5917 18.6831 13.9829 15.2919 18.1877 15.2919Z" fill="url(#paint1_radial_1_15788)"/>
</g>
<defs>
<linearGradient id="paint0_linear_1_15788" x1="28.7263" y1="6.54571" x2="9.72139" y2="35.6281" gradientUnits="userSpaceOnUse">
<stop stop-color="#00DFFE"/>
<stop offset="0.5253" stop-color="#00F5FF"/>
<stop offset="1" stop-color="#23FCCF"/>
</linearGradient>
<radialGradient id="paint1_radial_1_15788" cx="0" cy="0" r="1" gradientUnits="userSpaceOnUse" gradientTransform="translate(28.7634 10.6805) scale(27.0298)">
<stop stop-color="#060606" stop-opacity="0.4764"/>
<stop offset="0.1101" stop-color="#030509" stop-opacity="0.2538"/>
<stop offset="0.451" stop-color="#00040C" stop-opacity="0"/>
<stop offset="0.6591" stop-color="#144A4C" stop-opacity="0"/>
<stop offset="1" stop-color="#2AFDC5" stop-opacity="0"/>
</radialGradient>
<clipPath id="clip0_1_15788">
<rect width="36" height="36" fill="white" transform="translate(0 0.689453)"/>
</clipPath>
</defs>
</svg>
