<svg width="36" height="37" viewBox="0 0 36 37" fill="none" xmlns="http://www.w3.org/2000/svg">
<g clip-path="url(#clip0_1_15684)">
<path d="M33.5175 27.6014C28.3767 30.5561 23.2519 33.5016 18.0733 36.478C12.9471 33.531 7.82514 30.5863 2.67383 27.6248C2.67383 21.6809 2.67383 15.741 2.67383 9.7522C7.78532 6.81359 12.9099 3.86749 18.0778 0.896484C23.226 3.85864 28.3716 6.81928 33.5174 9.78006C33.5175 15.7186 33.5175 21.6087 33.5175 27.6014ZM23.4406 10.3366C26.6207 15.7587 29.7268 21.0544 32.9661 26.5772C32.9661 20.9701 32.9661 15.6679 32.9661 10.3366C29.8085 10.3366 26.7161 10.3366 23.4406 10.3366ZM3.1869 10.5083C3.1869 16.2475 3.1869 21.648 3.1869 27.0747C6.32192 27.0747 9.38732 27.0747 12.612 27.0747C9.48136 21.572 6.40976 16.1732 3.1869 10.5083ZM3.86478 27.7004C8.71153 30.4861 13.2732 33.1079 17.9092 35.7724C19.4565 33.078 20.9726 30.4377 22.5445 27.7004C16.3153 27.7004 10.2595 27.7004 3.86478 27.7004ZM32.8259 27.389C31.215 24.6479 29.6632 22.0074 28.0317 19.2311C24.9087 24.6628 21.8691 29.9494 18.6624 35.5268C23.554 32.7162 28.1464 30.0777 32.8259 27.389ZM13.5679 9.67026C19.8113 9.67026 25.9112 9.67026 32.2707 9.67026C27.4473 6.89934 22.8558 4.26162 18.2112 1.59337C16.6446 4.31843 15.1302 6.95269 13.5679 9.67026ZM8.11415 18.092C11.2209 12.6848 14.2381 7.43344 17.4273 1.88281C12.5854 4.6664 8.0469 7.27576 3.46439 9.91031C5.01282 12.6349 6.5151 15.2783 8.11415 18.092ZM13.4516 10.3238C13.4516 11.9845 13.4516 13.5939 13.4516 15.3277C16.3533 13.6755 19.1524 12.0815 22.2393 10.3238C19.0763 10.3238 16.2821 10.3238 13.4516 10.3238ZM19.5671 21.2031C20.0591 20.3365 20.5514 19.4692 21.0477 18.595C20.5473 17.7301 20.0751 16.9137 19.6339 16.1508C18.5516 16.1508 17.5787 16.1508 16.5911 16.1508C16.0773 17.0445 15.5793 17.9107 15.0899 18.7622C15.5984 19.6325 16.0618 20.4256 16.5161 21.2031C17.5629 21.2031 18.539 21.2031 19.5671 21.2031ZM22.7595 22.0072C19.7943 23.6956 16.9816 25.2971 13.9045 27.0493C17.0634 27.0493 19.8944 27.0493 22.7595 27.0493C22.7595 25.3852 22.7595 23.7887 22.7595 22.0072ZM23.3437 16.3256C23.3437 19.64 23.3437 22.7913 23.3437 26.3007C24.8843 23.6275 26.2537 21.2515 27.6623 18.8071C26.2015 17.9678 24.8315 17.1805 23.3437 16.3256ZM8.84646 19.3729C10.3899 22.0844 11.7408 24.4578 13.1234 26.8867C14.6112 26.0309 16.0054 25.229 17.5279 24.3533C14.6474 22.7008 11.9167 21.1342 8.84646 19.3729ZM12.7932 11.0292C11.2832 13.6524 9.89838 16.0582 8.4704 18.5389C9.91732 19.3701 11.3113 20.1709 12.7932 21.0222C12.7932 17.6736 12.7932 14.4822 12.7932 11.0292ZM18.6387 13.0035C21.5092 14.6542 24.2618 16.237 27.3134 17.9919C25.7374 15.3084 24.3501 12.946 22.9382 10.5418C21.4905 11.3707 20.1312 12.149 18.6387 13.0035ZM16.967 15.5416C18.6497 15.5416 20.164 15.5416 21.9841 15.5416C20.5537 14.7245 19.3942 14.0621 18.1754 13.3659C17.7522 14.1278 17.3793 14.7992 16.967 15.5416ZM22.6603 21.4545C22.2138 20.6666 21.8199 19.9718 21.3598 19.1601C20.5062 20.6428 19.7218 22.0052 18.7684 23.6613C20.2486 22.822 21.4202 22.1576 22.6603 21.4545ZM14.8021 18.179C15.6471 16.706 16.4247 15.3504 17.3598 13.7203C15.8973 14.553 14.7152 15.2261 13.4848 15.9268C13.9464 16.716 14.3503 17.4066 14.8021 18.179ZM20.2603 16.1581C21.0934 17.6078 21.8519 18.9277 22.7484 20.4878C22.7484 18.8434 22.7484 17.5257 22.7484 16.1581C21.9504 16.1581 21.2029 16.1581 20.2603 16.1581ZM14.1704 21.8318C15.6441 22.6621 16.7999 23.3133 17.9735 23.9744C18.4158 23.1946 18.7816 22.5499 19.189 21.8318C17.5464 21.8318 16.0434 21.8318 14.1704 21.8318ZM15.8673 21.1875C15.0729 19.7935 14.329 18.488 13.436 16.9209C13.436 18.5576 13.436 19.8502 13.436 21.1875C14.2337 21.1875 14.98 21.1875 15.8673 21.1875Z" fill="#16409B"/>
</g>
<defs>
<clipPath id="clip0_1_15684">
<rect width="36" height="36" fill="white" transform="translate(0 0.689453)"/>
</clipPath>
</defs>
</svg>
