<svg width="36" height="37" viewBox="0 0 36 37" fill="none" xmlns="http://www.w3.org/2000/svg">
<g clip-path="url(#clip0_1_15779)">
<path d="M18 36.6895C27.9411 36.6895 36 28.6306 36 18.6895C36 8.74833 27.9411 0.689453 18 0.689453C8.05887 0.689453 0 8.74833 0 18.6895C0 28.6306 8.05887 36.6895 18 36.6895Z" fill="url(#paint0_linear_1_15779)"/>
<path d="M28.7067 15.7524H26.5683C25.3731 12.5124 22.2627 10.2012 18.6051 10.2012H11.1819V15.7524H8.82031V17.6964H11.1819V19.7772H8.82031V21.7212H11.1819V27.1788H18.6051C22.2267 27.1788 25.3155 24.9108 26.5323 21.7212H28.7067V19.7772H27.0219C27.0651 19.4244 27.0939 19.0572 27.0939 18.69C27.0939 18.3516 27.0723 18.0204 27.0363 17.6964H28.7139V15.7524H28.7067ZM13.1259 12.0588H18.5259C21.1107 12.0588 23.3355 13.5708 24.3795 15.7524H13.1259V12.0588ZM18.5259 25.3212H13.1259V21.7212H24.3363C23.2779 23.8524 21.0747 25.3212 18.5259 25.3212ZM25.0131 18.546V18.8412C25.0131 19.158 24.9915 19.4748 24.9483 19.7772H13.1259V17.6964H24.9555C24.9915 17.9772 25.0131 18.258 25.0131 18.546Z" fill="white"/>
</g>
<defs>
<linearGradient id="paint0_linear_1_15779" x1="5.27208" y1="5.96153" x2="30.7279" y2="31.4174" gradientUnits="userSpaceOnUse">
<stop stop-color="#F9AF1A"/>
<stop offset="1" stop-color="#FBC349"/>
</linearGradient>
<clipPath id="clip0_1_15779">
<rect width="36" height="36" fill="white" transform="translate(0 0.689453)"/>
</clipPath>
</defs>
</svg>
