<svg width="36" height="37" viewBox="0 0 36 37" fill="none" xmlns="http://www.w3.org/2000/svg">
<g clip-path="url(#clip0_1_15682)">
<path d="M35.6974 18.6358C35.6912 28.4211 27.7928 36.3085 17.9871 36.3574C8.3254 36.4056 0.0256692 28.4957 0.235333 18.2375C0.432253 8.60156 8.31028 0.904759 17.9471 0.910159C27.7552 0.915559 35.7036 8.84506 35.6974 18.6358ZM17.8805 35.8719C27.0724 35.9094 35.1018 28.6279 35.1939 18.7343C35.2804 9.4341 27.8573 1.47183 18.04 1.4007C8.84063 1.3341 1.28041 8.52711 0.755317 17.6083C0.176509 27.6173 8.10328 35.8135 17.8805 35.8719Z" fill="#048EE2"/>
<path d="M10.7324 26.9279C10.9481 25.7388 11.1525 24.6126 11.3613 23.4616C11.7331 23.4616 12.0541 23.4627 12.375 23.4613C14.5723 23.4523 16.7719 23.5005 18.9663 23.4148C20.6424 23.3494 22.1204 22.7669 23.0037 21.1904C23.4366 20.4176 23.6143 19.559 23.8058 18.7077C23.9576 18.0325 24.0529 17.3496 24.0259 16.653C23.9709 15.2297 23.2414 14.3495 21.8519 14.0154C21.2045 13.8598 20.5495 13.8061 19.8877 13.806C17.767 13.8055 15.6464 13.8072 13.5257 13.8068C13.3897 13.8068 13.2536 13.7952 13.0412 13.7856C13.2493 12.6184 13.4516 11.4829 13.6592 10.318C13.9428 10.318 14.1866 10.3176 14.4304 10.318C16.9812 10.3222 19.5331 10.2852 22.0826 10.3453C23.761 10.3848 25.3733 10.7454 26.6774 11.9306C27.5879 12.7582 28.0548 13.8345 28.1404 15.0163C28.3799 18.3257 27.7844 21.4461 25.6815 24.123C24.3935 25.7626 22.6175 26.5614 20.5822 26.8435C19.7565 26.9579 18.9274 26.9468 18.0982 26.9479C15.7931 26.951 13.488 26.9498 11.1829 26.9489C11.0469 26.9487 10.9111 26.9365 10.7324 26.9279Z" fill="#048EE2"/>
<path d="M18.1208 16.8923C17.917 17.7118 17.8274 18.4968 17.5023 19.2104C17.1398 20.0062 16.441 20.3513 15.6055 20.3579C13.0244 20.3785 10.4431 20.3671 7.86194 20.3664C7.83545 20.3664 7.80895 20.3423 7.73047 20.3043C7.91407 19.394 8.0032 18.4367 8.55465 17.6367C8.90457 17.1291 9.48381 16.9069 10.08 16.9019C12.7353 16.8796 15.3909 16.8923 18.1208 16.8923Z" fill="#048EE2"/>
</g>
<defs>
<clipPath id="clip0_1_15682">
<rect width="36" height="36" fill="white" transform="translate(0 0.689453)"/>
</clipPath>
</defs>
</svg>
