<svg width="36" height="37" viewBox="0 0 36 37" fill="none" xmlns="http://www.w3.org/2000/svg">
<g clip-path="url(#clip0_1_15938)">
<path d="M30.4918 5.05227C30.4702 2.67627 28.5262 0.761071 26.1502 0.775471C23.7526 0.775471 21.8086 2.69067 21.8086 5.05227V9.33627H26.1358C28.5334 9.33627 30.4774 7.42107 30.4774 5.05227" fill="#199AFF"/>
<path d="M30.492 8.89648V23.6421C30.492 30.7269 24.6528 36.4869 17.4672 36.4869C10.2672 36.4869 4.44238 30.7413 4.44238 23.6421C4.44238 16.5429 10.2672 10.8117 17.4672 10.8117H26.1504C27.7992 10.8117 29.376 10.1205 30.4848 8.89648M13.1184 23.6421C13.1328 26.0181 15.0768 27.9405 17.4528 27.9261C19.8504 27.9261 21.7944 26.0109 21.7944 23.6421V19.3581H17.46C15.0624 19.3581 13.1256 21.2733 13.1256 23.6421" fill="#199AFF"/>
</g>
<defs>
<clipPath id="clip0_1_15938">
<rect width="36" height="36" fill="white" transform="translate(0 0.689453)"/>
</clipPath>
</defs>
</svg>
