<svg width="36" height="37" viewBox="0 0 36 37" fill="none" xmlns="http://www.w3.org/2000/svg">
<g clip-path="url(#clip0_1_15769)">
<path d="M22.8598 9.87695H22.8238C22.6654 9.87695 22.543 10.0066 22.543 10.1578V11.893C22.543 12.0514 22.6654 12.1738 22.8238 12.1738C28.627 12.325 33.3718 17.0626 33.5158 22.8658C33.523 23.0242 33.6454 23.1466 33.7966 23.1466H35.5318C35.6902 23.1466 35.8198 23.017 35.8126 22.8586C35.6614 15.709 30.0454 9.87695 22.8598 9.87695Z" fill="#FF5A07"/>
<path d="M22.7734 13.377H22.7518C22.6366 13.377 22.543 13.4706 22.543 13.5858V15.3786C22.543 15.4938 22.6366 15.5874 22.7518 15.5874C26.8126 15.5874 30.1966 19.065 30.1966 22.953C30.1966 23.0682 30.2902 23.1618 30.4054 23.1618H32.1118C32.227 23.1618 32.3206 23.0682 32.3206 22.953C32.1982 17.6754 28.0654 13.377 22.7734 13.377Z" fill="#FF5A07"/>
<path d="M22.6942 16.7012H22.6798C22.6006 16.7012 22.543 16.766 22.543 16.838V18.6452C22.543 18.7172 22.6006 18.782 22.6798 18.782C24.595 18.782 26.8342 20.7188 26.8342 23.0156C26.8342 23.0876 26.899 23.1524 26.971 23.1524H28.8574C28.9366 23.1524 28.9942 23.0876 28.9942 23.0156C28.915 19.538 26.1862 16.7012 22.6942 16.7012Z" fill="#FF5A07"/>
<path d="M26.7911 23.5629V23.5269C26.7911 23.3685 26.6615 23.2461 26.5103 23.2461H24.7751C24.6167 23.2461 24.4943 23.3685 24.4943 23.5269C24.3431 29.3301 19.6055 34.0749 13.8023 34.2189C13.6439 34.2261 13.5215 34.3485 13.5215 34.4997V36.2349C13.5215 36.3933 13.6511 36.5229 13.8095 36.5157C20.9591 36.3645 26.7911 30.7485 26.7911 23.5629Z" fill="#FF5A07"/>
<path d="M23.2916 23.4765V23.4549C23.2916 23.3397 23.198 23.2461 23.0828 23.2461H21.29C21.1748 23.2461 21.0812 23.3397 21.0812 23.4549C21.0812 27.5157 17.6036 30.8997 13.7156 30.8997C13.6004 30.8997 13.5068 30.9933 13.5068 31.1085V32.8149C13.5068 32.9301 13.6004 33.0237 13.7156 33.0237C18.9932 32.9013 23.2916 28.7685 23.2916 23.4765Z" fill="#FF5A07"/>
<path d="M19.9658 23.3973V23.3829C19.9658 23.3037 19.901 23.2461 19.829 23.2461H18.0218C17.9498 23.2461 17.885 23.3037 17.885 23.3829C17.885 25.2981 15.9482 27.5373 13.6514 27.5373C13.5794 27.5373 13.5146 27.6021 13.5146 27.6741V29.5605C13.5146 29.6397 13.5794 29.6973 13.6514 29.6973C17.129 29.6181 19.9658 26.8893 19.9658 23.3973Z" fill="#FF5A07"/>
<path d="M13.1546 27.5385H13.1906C13.349 27.5385 13.4714 27.4089 13.4714 27.2577V25.5225C13.4714 25.3641 13.349 25.2417 13.1906 25.2417C7.38742 25.0905 2.64262 20.3457 2.49142 14.5425C2.48422 14.3841 2.36182 14.2617 2.21062 14.2617H0.475422C0.317022 14.2617 0.187422 14.3913 0.194622 14.5497C0.345822 21.7065 5.96182 27.5385 13.1546 27.5385Z" fill="#FF5A07"/>
<path d="M13.2334 24.0387H13.255C13.3702 24.0387 13.4638 23.9451 13.4638 23.8299V22.0371C13.4638 21.9219 13.3702 21.8283 13.255 21.8283C9.19416 21.8283 5.81016 18.3507 5.81016 14.4627C5.81016 14.3475 5.71656 14.2539 5.60136 14.2539H3.90216C3.78696 14.2539 3.69336 14.3475 3.69336 14.4627C3.80856 19.7403 7.94136 24.0387 13.2334 24.0387Z" fill="#FF5A07"/>
<path d="M13.3123 20.7129H13.3267C13.4059 20.7129 13.4635 20.6481 13.4635 20.5761V18.7689C13.4635 18.6969 13.4059 18.6321 13.3267 18.6321C11.4115 18.6321 9.17233 16.6953 9.17233 14.3985C9.17233 14.3265 9.10753 14.2617 9.03553 14.2617H7.15633C7.07713 14.2617 7.01953 14.3265 7.01953 14.3985C7.09153 17.8761 9.82033 20.7129 13.3123 20.7129Z" fill="#FF5A07"/>
<path d="M9.25879 13.8236V13.8596C9.25879 14.018 9.38839 14.1404 9.53959 14.1404H11.2748C11.4332 14.1404 11.5556 14.018 11.5556 13.8596C11.7068 8.05637 16.4444 3.31157 22.2476 3.16757C22.406 3.16037 22.5284 3.03797 22.5284 2.88677V1.14437C22.5284 0.985967 22.3988 0.856367 22.2404 0.863567C15.0908 1.02197 9.25879 6.63797 9.25879 13.8236Z" fill="#FF5A07"/>
<path d="M12.7588 13.9085V13.9301C12.7588 14.0453 12.8524 14.1389 12.9676 14.1389H14.7604C14.8756 14.1389 14.9692 14.0453 14.9692 13.9301C14.9692 9.86933 18.4468 6.48533 22.3348 6.48533C22.45 6.48533 22.5436 6.39173 22.5436 6.27653V4.57013C22.5436 4.45493 22.45 4.36133 22.3348 4.36133C17.0572 4.47653 12.7588 8.61653 12.7588 13.9085Z" fill="#FF5A07"/>
<path d="M16.085 13.9875V14.0019C16.085 14.0811 16.1498 14.1387 16.2218 14.1387H18.029C18.101 14.1387 18.1658 14.0811 18.1658 14.0019C18.1658 12.0867 20.1026 9.8475 22.3994 9.8475C22.4714 9.8475 22.5362 9.7827 22.5362 9.7107V7.8243C22.5362 7.7451 22.4714 7.6875 22.3994 7.6875C18.9218 7.7595 16.085 10.4883 16.085 13.9875Z" fill="#FF5A07"/>
</g>
<defs>
<clipPath id="clip0_1_15769">
<rect width="36" height="36" fill="white" transform="translate(0 0.689453)"/>
</clipPath>
</defs>
</svg>
