<svg width="36" height="37" viewBox="0 0 36 37" fill="none" xmlns="http://www.w3.org/2000/svg">
<g clip-path="url(#clip0_1_15676)">
<path d="M4.24707 18.4956C10.1117 12.6399 16.0094 6.75114 21.8632 0.90625C24.8317 3.89058 27.8542 6.92927 31.0543 10.1464C31.0543 15.4716 31.0571 21.0997 31.0447 26.7277C31.0441 26.9731 30.9772 27.2902 30.8177 27.4529C27.9011 30.4268 24.9656 33.3821 22.0898 36.2851C16.068 30.2812 10.1488 24.3797 4.24707 18.4956ZM19.9535 5.17729C15.4308 9.66361 10.9151 14.1431 6.66051 18.3634C8.82929 20.6016 11.0416 22.8848 13.2886 25.2037C15.509 18.5321 17.7412 11.8251 19.9535 5.17729ZM15.5987 26.0653C20.1635 26.0653 24.6365 26.0653 29.2384 26.0653C28.0793 22.591 26.9594 19.2341 25.8317 15.854C22.3657 19.3127 19.0219 22.6494 15.5987 26.0653ZM25.1739 13.9094C24.1509 10.8328 23.103 7.68131 21.9138 4.10492C19.6615 10.8635 17.5501 17.1996 15.3938 23.6703C18.7079 20.3625 21.8836 17.1932 25.1739 13.9094ZM28.1647 27.7424C23.9921 27.7424 19.8526 27.7424 15.7131 27.7424C17.8283 29.8556 19.9141 31.9395 21.9082 33.9318C23.9392 31.9225 26.0221 29.862 28.1647 27.7424ZM28.8565 10.312C27.1882 8.54415 25.5597 6.81839 23.7632 4.91471C24.6877 7.65445 25.5379 10.1742 26.3928 12.7078C27.3318 11.7947 28.1925 10.9577 28.8565 10.312ZM29.488 22.0356C29.488 18.3154 29.488 15.29 29.488 12.1397C28.586 13.0057 27.7916 13.7685 26.9884 14.5398C27.7708 16.8861 28.527 19.1538 29.488 22.0356Z" fill="#282629"/>
</g>
<defs>
<clipPath id="clip0_1_15676">
<rect width="36" height="36" fill="white" transform="translate(0 0.689453)"/>
</clipPath>
</defs>
</svg>
