<svg width="36" height="37" viewBox="0 0 36 37" fill="none" xmlns="http://www.w3.org/2000/svg">
<path d="M9.28608 25.3054C9.03933 25.2618 8.8836 25.1354 8.84745 24.9106C8.78784 24.5397 8.73996 24.1669 8.6838 23.7954C8.6429 23.525 8.53505 23.4054 8.26541 23.3686C7.24351 23.2295 6.22061 23.0976 5.19799 22.9636C4.62912 22.8891 4.05924 22.8216 3.4913 22.7405C3.03036 22.6747 2.89457 22.3786 3.13937 21.9806C4.61472 19.5825 6.09266 17.1861 7.56773 14.7878C7.67853 14.6076 7.82873 14.5227 8.03961 14.5166C8.18873 14.5124 8.34065 14.4954 8.48486 14.4587C8.69251 14.406 8.85365 14.456 9.00657 14.6034C9.9366 15.4994 10.8706 16.3913 11.8038 17.284C12.5839 18.0302 13.3642 18.7763 14.1459 19.521C14.387 19.7507 14.4038 19.9934 14.1756 20.2375C13.3358 21.1361 12.4932 22.032 11.6511 22.9284C10.982 23.6405 10.3149 24.3544 9.63974 25.0606C9.54269 25.1621 9.40495 25.2247 9.28608 25.3054ZM22.3825 29.9173C23.2034 30.8789 24.0186 31.8452 24.8379 32.8081C25.021 33.0232 25.2852 33.089 25.5426 32.9955C25.8022 32.9011 25.959 32.6852 25.9564 32.398C25.9538 32.1181 25.9531 31.8364 25.9205 31.559C25.8699 31.1281 26.0004 30.8223 26.3822 30.5767C27.8423 29.6373 29.2872 28.6745 30.737 27.7191C31.7815 27.0308 32.8266 26.3433 33.8675 25.6495C34.2527 25.3926 34.3025 24.904 33.9695 24.6158C33.1428 23.9002 32.3091 23.1926 31.475 22.4857C31.2858 22.3254 31.0677 22.2723 30.8238 22.3604C30.5118 22.4731 30.2033 22.45 29.9074 22.3064C29.647 22.1801 29.4087 22.2121 29.1713 22.3663C26.9867 23.7841 24.8014 25.2008 22.6149 26.6155C22.3881 26.7622 22.2714 26.9644 22.2701 27.2296C22.2667 27.8648 22.269 28.5 22.269 29.1352C22.2283 29.4056 22.1814 29.6816 22.3825 29.9173ZM12.5208 29.1836C13.3058 29.1487 14.0906 29.112 14.8757 29.0793C15.654 29.0468 16.4327 29.0223 17.2108 28.9838C17.3432 28.9772 17.4823 28.9368 17.6024 28.8791C18.6132 28.3938 19.6212 27.9026 20.6283 27.4096C21.1865 27.1363 21.268 26.6452 20.8273 26.2022C19.0621 24.4281 17.2953 22.6554 15.528 20.8834C15.197 20.5515 14.8309 20.5506 14.5089 20.8866C14.0785 21.3357 13.656 21.7924 13.2298 22.2455C12.0916 23.4555 10.9526 24.6646 9.81535 25.8755C9.51943 26.1907 9.52188 26.5754 9.83292 26.8776C10.5537 27.5778 11.2764 28.2764 12.0106 28.9625C12.1422 29.0854 12.333 29.1451 12.4964 29.234C12.5045 29.2171 12.5126 29.2004 12.5208 29.1836ZM25.2237 11.7826C26.7327 14.3134 28.2466 16.8411 29.7625 19.3677C29.8248 19.4716 29.9034 19.5732 29.9959 19.6499C30.3737 19.9636 30.9263 19.8898 31.2276 19.4835C32.1234 18.2753 33.0163 17.065 33.9053 15.8518C34.0256 15.6876 34.1305 15.5087 34.2192 15.3253C34.3576 15.0389 34.3331 14.7599 34.1472 14.4918C33.9604 14.2222 33.788 13.9426 33.6095 13.6672C32.8172 12.4455 32.0244 11.2239 31.2331 10.0015C31.0001 9.64156 30.6874 9.49554 30.2543 9.57647C28.7897 9.85007 27.3227 10.1112 25.8569 10.378C25.3763 10.4655 25.0845 10.8239 25.0524 11.332C25.1084 11.4829 25.1427 11.6467 25.2237 11.7826ZM23.0996 11.9266C23.0293 11.8994 22.888 11.9607 22.824 12.0271C22.359 12.5091 21.9068 13.0035 21.4485 13.4919C19.5493 15.5156 17.6497 17.5389 15.7494 19.5615C15.5062 19.8204 15.5034 19.8877 15.7584 20.1318C16.6569 20.9924 17.5566 21.8517 18.4554 22.7119C19.4035 23.6195 20.3492 24.5296 21.3026 25.4317C21.3809 25.5058 21.5333 25.5852 21.6094 25.5553C21.6897 25.5238 21.7532 25.3684 21.7664 25.2601C21.8903 24.2497 22.0026 23.2379 22.1166 22.2263C22.2613 20.9431 22.4039 19.6596 22.5483 18.3764C22.6918 17.1 22.8366 15.8237 22.9806 14.5474C23.0686 13.7666 23.1563 12.9858 23.2523 12.133C23.2236 12.0901 23.1811 11.9581 23.0996 11.9266ZM22.6438 25.5402C22.7925 25.6532 22.9546 25.5884 23.1005 25.4937C25.0389 24.2368 26.9771 22.9794 28.9172 21.7251C29.0969 21.609 29.1527 21.4596 29.1657 21.2469C29.1808 21.0014 29.2296 20.7422 29.3338 20.5223C29.4385 20.3013 29.4353 20.136 29.3118 19.933C28.7436 18.9986 28.1863 18.0576 27.6245 17.1194C26.6482 15.4893 25.6732 13.8583 24.6897 12.2326C24.6396 12.1499 24.5035 12.0564 24.4266 12.0707C24.3506 12.0849 24.2565 12.2235 24.243 12.3179C24.015 13.9071 23.7965 15.4975 23.5798 17.0883C23.3216 18.9836 23.0675 20.8795 22.8111 22.7751C22.7013 23.5875 22.5904 24.3998 22.4701 25.2849C22.5059 25.3401 22.5519 25.4703 22.6438 25.5402ZM15.3476 18.9828C16.8914 17.3479 18.4309 15.7089 19.9702 14.0698C20.7375 13.2527 21.5018 12.4329 22.2697 11.6163C22.3742 11.5052 22.4248 11.3886 22.3457 11.2476C22.2686 11.1101 22.1438 11.111 22.0055 11.1366C21.5149 11.2274 21.0232 11.3115 20.532 11.3989C16.9459 12.0376 13.3601 12.6772 9.77352 13.3131C9.56299 13.3504 9.39257 13.4209 9.3251 13.6425C9.25886 13.86 9.3719 14.0061 9.51741 14.1452C10.2044 14.8014 10.8892 15.46 11.5749 16.1176C12.591 17.0923 13.6056 18.0686 14.6259 19.0388C14.7137 19.1222 14.8399 19.1653 14.9808 19.2456C15.1153 19.151 15.2508 19.0852 15.3476 18.9828ZM23.045 9.13929C22.456 7.84573 21.8642 6.55341 21.2768 5.25906C21.0944 4.85701 20.9345 4.81093 20.5713 5.06236C18.6834 6.36952 16.7942 7.67481 14.9058 8.98117C13.3097 10.0854 11.7133 11.1892 10.1201 12.2978C10.0589 12.3403 10.0309 12.4306 9.98743 12.4985C10.0625 12.5113 10.1411 12.5452 10.212 12.5334C10.7106 12.4498 11.2077 12.3573 11.7051 12.2667C14.0644 11.8367 16.4235 11.4062 18.7828 10.9762C19.9994 10.7545 21.2167 10.5363 22.4318 10.3069C22.542 10.2861 22.6743 10.2197 22.7349 10.1321C22.8731 9.93201 22.9742 9.70607 23.0878 9.48928C23.1063 9.45407 23.1117 9.41195 23.1273 9.35881C23.1021 9.29099 23.0785 9.21287 23.045 9.13929ZM9.59028 5.93277C7.84255 6.95178 6.09561 7.97217 4.35552 9.00414C4.18164 9.10725 4.01265 9.26377 3.91106 9.4365C3.03115 10.933 2.16665 12.4385 1.29912 13.9422C1.12452 14.2448 1.13676 14.5373 1.32432 14.7654C1.53132 15.0171 1.81176 15.0892 2.15621 14.9649C3.57705 14.4524 4.99581 13.9341 6.41774 13.4246C6.66585 13.3357 6.81122 13.1819 6.88358 12.9281C7.01527 12.4657 7.32156 12.157 7.78689 12.0339C8.03436 11.9685 8.18649 11.8324 8.29493 11.6051C8.80699 10.5317 9.33079 9.46386 9.84631 8.39214C10.107 7.8502 10.3728 7.30998 10.6107 6.75796C10.8146 6.28499 10.494 5.81195 9.98282 5.77998C9.85149 5.83002 9.71009 5.86285 9.59028 5.93277ZM18.9822 4.25733C18.6683 4.25733 18.354 4.2471 18.0404 4.25905C16.354 4.32328 14.668 4.40608 12.981 4.45129C12.5695 4.46231 12.3549 4.61423 12.1921 4.98258C11.2413 7.13351 10.2708 9.2758 9.30804 11.4214C9.27182 11.5021 9.22632 11.5864 9.22157 11.6711C9.21753 11.7422 9.24749 11.8394 9.29839 11.8816C9.33893 11.9153 9.43965 11.8998 9.50294 11.8767C9.57789 11.8493 9.64226 11.7917 9.70973 11.745C12.5503 9.78225 15.3908 7.81931 18.2312 5.85609C18.6193 5.58789 19.0088 5.32163 19.3929 5.04781C19.5973 4.90209 19.6571 4.73202 19.5961 4.53575C19.5312 4.32666 19.3768 4.2219 19.126 4.21722C19.0782 4.21636 19.0303 4.21708 18.9824 4.21708C18.9824 4.23054 18.9823 4.24393 18.9822 4.25733ZM2.66827 21.4488C3.44537 20.1857 4.22498 18.9242 5.00337 17.6619C5.60961 16.6788 6.21787 15.697 6.81626 14.7092C6.86767 14.6243 6.89388 14.4797 6.85694 14.3957C6.79466 14.254 6.64915 14.3108 6.53021 14.3461C6.52365 14.3481 6.5171 14.3499 6.51055 14.352C4.55258 14.9825 2.5944 15.6124 0.636934 16.2444C0.312214 16.3492 0.230278 16.5162 0.342382 16.8388C0.649606 17.7232 0.959566 18.6066 1.26953 19.4902C1.49352 20.1286 1.72061 20.7658 1.94323 21.4048C2.00299 21.5762 2.10314 21.6886 2.3478 21.6939C2.47754 21.6989 2.58057 21.5913 2.66827 21.4488ZM35.7754 21.6052C35.5076 20.0642 35.2424 18.5228 34.9695 16.9828C34.9135 16.6667 34.6168 16.4785 34.3269 16.5852C34.1964 16.6333 34.0726 16.7477 33.9873 16.8628C33.2109 17.9114 32.4447 18.9676 31.6726 20.0196C31.5305 20.2132 31.5165 20.404 31.5864 20.6357C31.6537 20.8591 31.7052 21.1068 31.6788 21.334C31.6462 21.6147 31.7244 21.8085 31.9286 21.9815C32.7259 22.6571 33.518 23.3386 34.3164 24.0128C34.7147 24.3491 35.1095 24.226 35.2466 23.7278C35.4152 23.1153 35.5782 22.5013 35.7425 21.8875C35.7618 21.8152 35.7737 21.741 35.7852 21.6862C35.7804 21.6458 35.7789 21.6253 35.7754 21.6052ZM25.3303 9.78196C26.7827 9.51585 28.2349 9.2493 29.6873 8.98369C29.8174 8.95993 29.9571 8.90745 29.9383 8.76654C29.9242 8.66041 29.8321 8.52628 29.7368 8.47552C29.1096 8.14086 28.4721 7.82543 27.838 7.50381C26.777 6.96561 25.7165 6.42661 24.655 5.88949C23.868 5.49126 23.0817 5.09123 22.289 4.70459C22.2024 4.66233 22.0279 4.66125 21.9787 4.71647C21.916 4.78667 21.9344 4.93355 21.9287 5.04789C21.9269 5.08425 21.96 5.12233 21.977 5.15963C22.1676 5.57615 22.3585 5.9926 22.5487 6.40926C22.9263 7.23647 23.3043 8.06346 23.6799 8.89153C23.7402 9.02452 23.8157 9.12604 23.9779 9.13259C24.4066 9.14987 24.7482 9.33909 25.0278 9.65941C25.0857 9.72573 25.1762 9.76353 25.2222 9.79456C25.2897 9.78678 25.3103 9.78563 25.3303 9.78196Z" fill="#5BC2D4"/>
</svg>
