<svg width="36" height="37" viewBox="0 0 36 37" fill="none" xmlns="http://www.w3.org/2000/svg">
<g clip-path="url(#clip0_1_15845)">
<path d="M35.7988 18.8332C35.7268 28.7188 27.6772 36.6316 17.8564 36.5597C12.982 36.5597 8.60443 34.5796 5.42203 31.3324C2.18203 28.0852 0.13003 23.5636 0.20203 18.5452C0.27403 8.65965 8.32363 0.746847 18.1444 0.818847C27.9652 0.890847 35.8708 8.94045 35.7988 18.8332Z" fill="black"/>
<path d="M9.45378 24.7653L5.50098 31.4757C5.50098 31.4757 7.12818 33.6645 11.7146 35.4285L13.9754 29.2869L15.5306 25.1901L17.0858 20.5965L17.6474 19.1133L17.7194 18.9693C17.7194 18.9693 17.7194 18.8973 17.7914 18.8973L17.8634 18.8253C17.8634 18.8253 17.8634 18.8253 17.9354 18.8253H18.0074H18.0794L18.1514 18.9693L18.2954 19.3941L18.5762 20.2437L19.6346 23.4909L20.5562 26.3853L22.0394 30.8349L23.1698 33.9453L23.6666 35.6373C23.6666 35.6373 27.2666 34.6509 30.305 31.6125L28.1162 28.2933L26.705 25.8237L25.2218 23.0013L24.0194 20.5317L23.033 18.2709L22.2554 15.9381L21.5498 13.7493L20.7578 11.2725L19.9802 8.6589L19.2746 6.0453L18.497 3.1509L18.0002 1.5957L17.1506 4.3533L15.9482 8.2413L15.0338 11.1285L13.9034 14.4477L12.9818 17.1333L11.9234 19.6749L10.793 22.1445L9.45378 24.7653Z" fill="white"/>
</g>
<defs>
<clipPath id="clip0_1_15845">
<rect width="36" height="36" fill="white" transform="translate(0 0.689453)"/>
</clipPath>
</defs>
</svg>
