<svg width="36" height="37" viewBox="0 0 36 37" fill="none" xmlns="http://www.w3.org/2000/svg">
<path d="M7.08753 10.6552C4.82059 8.68262 2.57844 6.73162 0.333388 4.7781C0.407854 4.67658 0.50176 4.72394 0.57808 4.72383C3.05942 4.72068 5.54075 4.72194 8.02209 4.71942C8.18236 4.71926 8.31587 4.74331 8.44599 4.85746C12.249 8.19376 16.0556 11.526 19.8619 14.8585C19.9101 14.9006 19.9631 14.9372 19.9846 15.0379C19.8825 15.0379 19.7803 15.0379 19.6781 15.0379C16.9738 15.0379 14.2696 15.0324 11.5653 15.0395C8.69419 15.047 6.26246 17.0161 5.67509 19.7949C4.9946 23.0142 7.25619 26.2818 10.5235 26.8048C11.5936 26.9761 12.6711 26.9 13.7448 26.8922C14.192 26.889 14.5195 27.0127 14.8517 27.3116C16.5157 28.8091 18.2017 30.2822 19.8783 31.7658C19.9475 31.827 20.0398 31.8714 20.0701 31.9774C19.9594 32.0408 19.8414 32.0082 19.7297 32.0083C16.8801 32.0106 14.0304 32.0098 11.1807 32.0103C6.07782 32.0111 1.57852 28.3269 0.532144 23.3302C-0.611396 17.8696 2.28012 12.7273 6.94335 10.7365C6.97852 10.7214 7.01051 10.6989 7.08753 10.6552Z" fill="#2972FE"/>
<path d="M35.6706 31.962C35.5597 32.038 35.4705 32.0094 35.3878 32.0095C32.9163 32.0114 30.4448 32.0091 27.9734 32.015C27.7843 32.0155 27.6465 31.958 27.5069 31.8356C24.1551 28.8967 20.8001 25.9617 17.4459 23.0257C16.9659 22.6055 16.487 22.184 15.9953 21.7524C16.1021 21.6551 16.212 21.6955 16.3077 21.6954C19.0118 21.6926 21.7159 21.6977 24.42 21.692C27.3164 21.6859 29.7925 19.6661 30.3234 16.8879C30.9232 13.7488 28.928 10.7121 25.7945 9.99207C25.1569 9.84557 24.5106 9.81967 23.8599 9.8258C23.1912 9.8321 22.5224 9.82649 21.8536 9.82784C21.7269 9.82809 21.6136 9.82314 21.5056 9.72752C19.6421 8.07728 17.775 6.43131 15.9092 4.7849C15.9647 4.67402 16.0532 4.72185 16.1187 4.72178C19.0651 4.71874 22.0121 4.68268 24.9578 4.72703C30.2065 4.80607 34.3762 8.51742 35.4155 13.2611C36.3085 17.3368 35.2359 20.8922 32.2817 23.8531C31.3978 24.7389 30.3553 25.4095 29.2147 25.9253C29.1353 25.9612 29.0558 25.9969 28.9774 26.035C28.9621 26.0424 28.9517 26.06 28.9223 26.0898C31.1687 28.0445 33.4144 29.9987 35.6706 31.962Z" fill="#2ED7A3"/>
</svg>
