<svg width="36" height="37" viewBox="0 0 36 37" fill="none" xmlns="http://www.w3.org/2000/svg">
<g clip-path="url(#clip0_1_15719)">
<path d="M16.9406 12.547C16.9406 11.7477 16.9413 10.9484 16.9404 10.1491C16.9395 9.35355 17.1952 8.98239 17.9266 8.69028C19.8814 7.90966 21.9298 7.62324 23.9896 7.90915C25.8383 8.16583 27.5908 8.83162 29.0991 10.0034C30.481 11.0769 31.5492 12.3915 32.377 13.9467C33.4572 15.9763 33.8297 18.1313 33.6098 20.3663C33.4606 21.8833 32.9542 23.3298 32.2443 24.7121C31.2285 26.6898 29.6821 28.091 27.8561 29.288C26.999 29.8498 26.1109 30.358 25.2544 30.9185C25.0014 31.084 24.6958 31.1674 24.419 31.2986C23.2769 31.8399 22.0878 32.3043 21.0109 32.9541C20.1056 33.5003 19.1522 34.0516 18.6085 35.0606C18.4318 35.3885 18.2643 35.7565 17.9087 35.974C17.3691 36.3039 16.8408 36.1923 16.5109 35.6613C16.1986 35.1586 16.0235 34.5906 15.9208 34.0303C15.6556 32.5828 15.3531 31.1209 15.6652 29.6425C15.9851 28.1268 16.5192 26.7011 17.3285 25.3552C18.4172 23.5446 19.9382 22.1551 21.5415 20.866C22.8637 19.8028 24.3662 18.9862 25.963 18.3579C26.8482 18.0095 27.7376 17.685 28.6568 17.4478C29.1547 17.3193 29.2599 16.9776 29.1655 16.5598C29.0657 16.1182 28.6875 16.1694 28.3598 16.226C26.9591 16.4681 25.5968 16.8576 24.268 17.3575C21.5546 18.3783 19.1066 19.8675 16.7213 21.504C15.0502 22.6506 13.6094 24.0264 12.246 25.4864C11.503 26.282 10.7807 27.1245 10.2218 28.0815C9.9532 28.5414 9.51861 28.6554 9.01418 28.5372C8.52177 28.4219 8.31909 28.1155 8.33983 27.608C8.36099 27.091 8.5523 26.6259 8.72495 26.1582C9.46353 24.1575 10.4167 22.2603 11.5519 20.4559C11.8636 19.9605 11.9781 19.4317 11.5387 19.0188C11.1588 18.6617 10.6909 18.596 10.1135 18.8526C8.05175 19.7691 6.06031 20.8005 4.19803 22.0762C3.66141 22.4437 3.15057 22.4784 2.79655 22.1659C2.38831 21.8057 2.34669 21.3421 2.70367 20.7457C3.3174 19.7205 4.20515 18.9252 5.02041 18.0752C5.87908 17.1799 6.79615 16.3402 7.69463 15.4835C7.99387 15.1981 8.32125 15.0994 8.75671 15.2408C10.4527 15.7911 12.074 16.5301 13.7323 17.1747C15.3771 17.814 17.022 16.545 16.9389 15.003C16.8949 14.1865 16.9312 13.3657 16.9312 12.5469C16.9344 12.547 16.9375 12.547 16.9406 12.547ZM17.519 34.1536C18.8851 32.6105 20.5615 31.5899 22.4088 30.7517C20.4788 30.2853 18.9365 29.2695 17.7381 27.7143C16.7835 29.1132 16.655 32.905 17.519 34.1536Z" fill="#A7CE50"/>
<path d="M15.7456 11.5158C15.7456 12.5297 15.7461 13.5437 15.745 14.5576C15.7448 14.694 15.7499 14.8324 15.7296 14.9663C15.5801 15.954 15.0253 16.3634 14.0969 16.0172C11.9285 15.2085 9.75406 14.4009 7.64489 13.453C6.20374 12.8053 4.97563 11.7996 3.87151 10.6327C3.39718 10.1315 2.93983 9.63115 2.52079 9.08402C1.92103 8.30087 2.2711 7.42759 3.21984 7.19445C4.72126 6.82552 6.13001 7.02165 7.52674 7.6258C8.24105 7.93475 8.84304 7.49707 9.34287 7.09811C10.0112 6.56481 10.4264 5.83034 10.3686 4.91947C10.2817 3.54851 10.8775 2.4287 11.6816 1.39773C12.0907 0.87321 12.8752 0.90669 13.2752 1.43834C13.895 2.26202 14.2225 3.2387 14.6725 4.15187C15.8267 6.49339 15.8127 8.99942 15.7456 11.5158ZM5.88967 10.6335C6.28452 10.3319 6.69219 9.86687 6.84317 9.56195C7.12714 8.98855 6.95974 8.65922 6.34515 8.58276C5.99854 8.53963 5.65164 8.461 5.30539 8.46338C4.88434 8.46633 4.4172 8.28871 4.00011 8.6945C4.62845 9.36057 5.09825 10.1252 5.88967 10.6335ZM11.6638 5.71492C12.1956 5.80492 12.5876 5.58086 13.0026 5.5144C13.5732 5.42303 13.7192 5.13143 13.4618 4.61491C13.1607 4.01068 12.8141 3.42907 12.4472 2.76523C11.7641 3.68121 11.695 4.66329 11.6638 5.71492Z" fill="#A7CE50"/>
<path d="M17.5191 34.1522C16.655 32.9036 16.7836 29.1118 17.7381 27.7129C18.9366 29.268 20.4789 30.2839 22.4089 30.7503C20.5616 31.5885 18.8852 32.6091 17.5191 34.1522Z" fill="#FDFDFD"/>
<path d="M5.88957 10.6341C5.09822 10.1258 4.62834 9.36118 4 8.69503C4.4171 8.28931 4.88423 8.46686 5.30529 8.46391C5.65161 8.46146 5.9985 8.54016 6.34504 8.58329C6.95963 8.65975 7.1271 8.98908 6.84306 9.56249C6.69201 9.86748 6.28442 10.3325 5.88957 10.6341Z" fill="#FDFDFD"/>
<path d="M11.6641 5.71532C11.6953 4.66362 11.7644 3.68154 12.4475 2.76562C12.8144 3.42946 13.1609 4.01108 13.462 4.6153C13.7194 5.1319 13.5735 5.42343 13.0029 5.5148C12.588 5.58133 12.1959 5.80539 11.6641 5.71532Z" fill="#FDFDFD"/>
</g>
<defs>
<clipPath id="clip0_1_15719">
<rect width="36" height="36" fill="white" transform="translate(0 0.689453)"/>
</clipPath>
</defs>
</svg>
