<svg width="36" height="37" viewBox="0 0 36 37" fill="none" xmlns="http://www.w3.org/2000/svg">
<g clip-path="url(#clip0_1_15870)">
<path d="M15.6027 18.9553V5.08811C15.6027 3.87131 16.5891 2.88491 17.8059 2.88491C19.0227 2.88491 20.0091 3.87131 20.0091 5.08811V11.5177C20.7363 10.9921 21.3987 10.3729 21.9819 9.68891V5.08811C21.9819 2.78411 20.1099 0.912109 17.8059 0.912109C15.5019 0.912109 13.6299 2.78411 13.6299 5.08811V15.4057C13.6299 16.9033 14.4147 18.2209 15.6027 18.9553Z" fill="black"/>
<path d="M16.3945 16.8671L28.4041 9.93354C29.4553 9.32154 30.8089 9.68874 31.4137 10.7399C32.0185 11.7911 31.6585 13.1447 30.6073 13.7495L25.0417 16.9607C25.8625 17.3279 26.7265 17.5943 27.6121 17.7527L31.5937 15.4559C33.5953 14.3039 34.2721 11.7479 33.1201 9.75354C31.9681 7.75194 29.4121 7.07514 27.4177 8.22714L18.4825 13.3895C17.1865 14.1383 16.4377 15.4775 16.3945 16.8671Z" fill="black"/>
<path d="M31.5933 21.7429L22.6581 16.5805C21.3621 15.8317 19.8285 15.8605 18.6045 16.5157L30.6141 23.4493C31.6653 24.0613 32.0325 25.4077 31.4205 26.4589C30.8085 27.5101 29.4621 27.8773 28.4109 27.2653L22.8453 24.0541C22.9389 24.9469 23.1405 25.8325 23.4429 26.6749L27.4245 28.9717C29.4261 30.1237 31.9749 29.4397 33.1269 27.4453C34.2717 25.4509 33.5949 22.8949 31.5933 21.7429Z" fill="black"/>
<path d="M20.0091 18.2422V32.1094C20.0091 33.3262 19.0227 34.3126 17.8059 34.3126C16.5891 34.3126 15.6027 33.3262 15.6027 32.1094V25.6798C14.8755 26.2054 14.2131 26.8246 13.6299 27.5086V32.1022C13.6299 34.4062 15.5019 36.2782 17.8059 36.2782C20.1099 36.2782 21.9819 34.4062 21.9819 32.1022V21.7918C21.9819 20.2942 21.1971 18.9838 20.0091 18.2422Z" fill="black"/>
<path d="M19.2164 20.3387L7.20681 27.2723C6.15561 27.8843 4.80201 27.5171 4.19721 26.4659C3.58521 25.4147 3.95241 24.0611 5.00361 23.4563L10.5692 20.2451C9.74841 19.8779 8.88441 19.6115 7.99881 19.4531L4.01721 21.7499C2.01561 22.9019 1.33881 25.4579 2.49081 27.4523C3.64281 29.4539 6.19881 30.1307 8.19321 28.9787L17.1284 23.8163C18.4244 23.0675 19.1732 21.7283 19.2164 20.3387Z" fill="black"/>
<path d="M4.01748 15.4641L12.9599 20.6265C14.2559 21.3753 15.7895 21.3465 17.0135 20.6913L5.00388 13.7577C3.95268 13.1457 3.58548 11.7993 4.19748 10.7481C4.80948 9.69693 6.15588 9.32973 7.20708 9.94173L12.7727 13.1529C12.6791 12.2601 12.4775 11.3745 12.1751 10.5321L8.19348 8.23533C6.19188 7.08333 3.64308 7.76733 2.49108 9.76173C1.33188 11.7561 2.01588 14.3049 4.01748 15.4641Z" fill="black"/>
</g>
<defs>
<clipPath id="clip0_1_15870">
<rect width="36" height="36" fill="white" transform="translate(0 0.689453)"/>
</clipPath>
</defs>
</svg>
