<svg width="36" height="37" viewBox="0 0 36 37" fill="none" xmlns="http://www.w3.org/2000/svg">
<path d="M35.885 27.8627L21.5858 3.09472C21.4346 2.82832 21.1538 2.66992 20.8514 2.66992H15.149C14.8466 2.66992 14.5658 2.83552 14.4146 3.09472L0.115353 27.8627C-0.0358469 28.1291 -0.0358469 28.4531 0.115353 28.7123L2.96655 33.6515C3.11775 33.9179 3.39855 34.0763 3.70095 34.0763H32.2994C32.6018 34.0763 32.8826 33.9107 33.0338 33.6515L35.885 28.7123C36.0362 28.4531 36.0362 28.1291 35.885 27.8627ZM15.6386 4.37632H19.3754L8.75535 22.8875C8.60415 23.1539 8.60415 23.4779 8.75535 23.7371C8.90655 23.9963 9.18735 24.1619 9.48975 24.1619H15.2066H20.3114L22.205 27.3803H2.36175L15.6386 4.37632ZM18.0002 20.1803L19.3178 22.4627H16.6754L18.0002 20.1803ZM2.28975 29.0795H23.6882C23.9906 29.0795 24.2786 28.9139 24.4298 28.6475C24.581 28.3811 24.581 28.0571 24.4226 27.7907L21.5282 22.8875L18.9794 18.4739L20.8658 15.2051L30.8234 32.3771H4.19055L2.28975 29.0795ZM32.2994 31.5275L21.6002 13.0739C21.449 12.8147 21.1682 12.6491 20.8658 12.6491C20.5634 12.6491 20.2826 12.8147 20.1314 13.0739L17.2658 18.0419L14.717 22.4555H10.9658L20.8514 5.22592L34.1642 28.2875L32.2994 31.5275Z" fill="url(#paint0_linear_1_15838)"/>
<defs>
<linearGradient id="paint0_linear_1_15838" x1="5.6854" y1="11.7841" x2="30.3149" y2="36.4136" gradientUnits="userSpaceOnUse">
<stop stop-color="#0EDAAB"/>
<stop offset="1" stop-color="#2C9DE1"/>
</linearGradient>
</defs>
</svg>
