<svg width="36" height="37" viewBox="0 0 36 37" fill="none" xmlns="http://www.w3.org/2000/svg">
<g clip-path="url(#clip0_1_15805)">
<path fill-rule="evenodd" clip-rule="evenodd" d="M21.9172 31.8374V5.53577C27.5763 7.22777 31.7164 12.4838 31.7164 18.6902C31.7164 24.8966 27.5835 30.1454 21.9172 31.8374ZM18.0004 1.04297V15.911L15.7612 13.6718L15.4732 8.08457L17.806 1.05017C16.3084 1.06457 14.8612 1.28057 13.4788 1.64777L12.3484 5.04617L9.14435 3.44057C7.87715 4.18217 6.70355 5.06057 5.65955 6.08297L11.5924 9.05657L11.7652 12.4622L8.36675 12.2894L5.39315 6.35657C4.37795 7.39337 3.49235 8.56697 2.75075 9.83417L4.35635 13.0382L0.957952 14.1686C0.590752 15.551 0.374752 16.9982 0.360352 18.4958L7.39475 16.163L12.982 16.451L15.2212 18.6902L12.982 20.9294L7.39475 21.2174L0.360352 18.8774C0.374752 20.375 0.590752 21.8222 0.957952 23.2046L4.35635 24.335L2.75075 27.539C3.49235 28.8062 4.37075 29.9798 5.39315 31.0238L8.36675 25.091L11.7652 24.9182L11.5924 28.3166L5.65955 31.2902C6.70355 32.3126 7.87715 33.191 9.14435 33.9326L12.3484 32.327L13.4788 35.7254C14.8612 36.0926 16.3084 36.3086 17.806 36.323L15.4732 29.2886L15.7612 23.7014L18.0004 21.4622V36.3302C27.742 36.3302 35.6404 28.4318 35.6404 18.6902C35.6404 8.94857 27.742 1.04297 18.0004 1.04297Z" fill="#FF00AF"/>
</g>
<defs>
<clipPath id="clip0_1_15805">
<rect width="36" height="36" fill="white" transform="translate(0 0.689453)"/>
</clipPath>
</defs>
</svg>
