<svg width="36" height="37" viewBox="0 0 36 37" fill="none" xmlns="http://www.w3.org/2000/svg">
<g clip-path="url(#clip0_1_15655)">
<path d="M17.1947 0.788145C17.808 0.756753 18.3469 0.749265 18.9806 0.788145C19.4566 0.826017 19.858 0.911697 20.2974 0.968649C24.8606 1.56049 28.6665 3.59903 31.6198 7.10845C35.1957 11.3577 36.4863 16.278 35.5724 21.7575C35.0914 24.6417 33.9266 27.2427 32.1146 29.5333C29.1117 33.3293 25.2109 35.5866 20.4041 36.2582C18.0754 36.5836 15.7711 36.4387 13.5087 35.8343C10.2153 34.9544 7.38452 33.2709 5.05575 30.7692C2.59925 28.1302 1.07033 25.0322 0.493903 21.4706C0.390151 20.8295 0.316495 20.1834 0.228943 19.5397C0.174943 18.929 0.183007 18.3574 0.228943 17.7538C0.259183 17.581 0.420607 16.0501 0.531127 15.4688C1.3407 11.2126 3.38981 7.67048 6.72428 4.8969C9.19712 2.84007 12.0337 1.5561 15.2145 1.0508C15.8719 0.946401 16.5179 0.842577 17.1947 0.788145ZM14.2946 14.2862C12.1907 14.2862 10.1464 14.2862 8.07637 14.2862C8.07637 19.2903 8.07637 24.2317 8.07637 29.1897C8.24607 29.1975 8.37848 29.2091 8.51096 29.2091C11.9768 29.2089 15.4428 29.2058 18.9086 29.2075C19.9906 29.208 21.0399 29.0087 22.0539 28.654C27.7748 26.6531 30.72 20.4451 28.4959 14.8045C26.9379 10.8531 23.9334 8.5586 19.687 8.10284C17.9803 7.91967 16.2408 8.04236 14.5162 8.0289C14.4613 8.02846 14.406 8.06094 14.2945 8.09571C14.2946 10.1355 14.2946 12.1801 14.2946 14.2862ZM8.01862 11.7074C9.28186 11.7074 10.4891 11.7074 11.7013 11.7074C11.7013 10.4575 11.7013 9.25131 11.7013 8.05683C10.4461 8.05683 9.23852 8.05683 8.01862 8.05683C8.01862 9.2876 8.01862 10.4725 8.01862 11.7074Z" fill="#1241F3"/>
<path d="M14.2953 14.2853C14.2953 12.1792 14.2953 10.1345 14.2953 8.09464C14.4068 8.05994 14.462 8.02739 14.517 8.02783C16.2416 8.04136 17.9811 7.9186 19.6878 8.10177C23.9341 8.5576 26.9387 10.852 28.4967 14.8034C30.7208 20.4441 27.7756 26.6521 22.0547 28.6529C21.0407 29.0076 19.9914 29.2069 18.9094 29.2064C15.4435 29.2048 11.9776 29.2078 8.51174 29.208C8.37926 29.208 8.24685 29.1965 8.07715 29.1886C8.07715 24.2306 8.07715 19.2892 8.07715 14.2851C10.1472 14.2853 12.1915 14.2853 14.2953 14.2853ZM14.3753 22.8314C14.4498 22.8538 14.5057 22.8852 14.5615 22.8852C15.9899 22.8844 17.4183 22.8832 18.8467 22.8737C19.0687 22.8722 19.2958 22.8531 19.5113 22.8029C21.6248 22.3114 23.0983 20.3244 22.879 18.2735C22.6329 15.9721 20.8717 14.3748 18.5561 14.3617C17.3209 14.3547 16.0856 14.3591 14.8505 14.3617C14.694 14.362 14.5376 14.3822 14.3753 14.3936C14.3753 17.2394 14.3753 20.0325 14.3753 22.8314Z" fill="white"/>
<path d="M8.01855 11.7072C8.01855 10.4723 8.01855 9.28748 8.01855 8.05664C9.23845 8.05664 10.446 8.05664 11.7012 8.05664C11.7012 9.25119 11.7012 10.4573 11.7012 11.7072C10.489 11.7072 9.28179 11.7072 8.01855 11.7072Z" fill="white"/>
<path d="M14.375 22.8328C14.375 20.0338 14.375 17.2409 14.375 14.3951C14.5373 14.3836 14.6937 14.3635 14.8501 14.3631C16.0854 14.3606 17.3206 14.3561 18.5558 14.3631C20.8713 14.3762 22.6326 15.9735 22.8786 18.2749C23.0979 20.3259 21.6245 22.3129 19.511 22.8044C19.2954 22.8545 19.0683 22.8737 18.8463 22.8752C17.418 22.8847 15.9895 22.8858 14.5611 22.8866C14.5053 22.8867 14.4495 22.8552 14.375 22.8328Z" fill="#1241F3"/>
</g>
<defs>
<clipPath id="clip0_1_15655">
<rect width="36" height="36" fill="white" transform="translate(0 0.689453)"/>
</clipPath>
</defs>
</svg>
