<svg width="36" height="37" viewBox="0 0 36 37" fill="none" xmlns="http://www.w3.org/2000/svg">
<g clip-path="url(#clip0_1_15674)">
<path d="M18.0003 36.0768C27.6034 36.0768 35.3883 28.2919 35.3883 18.6888C35.3883 9.08565 27.6034 1.30078 18.0003 1.30078C8.39718 1.30078 0.612305 9.08565 0.612305 18.6888C0.612305 28.2919 8.39718 36.0768 18.0003 36.0768Z" fill="#002352"/>
<path d="M18.0003 36.3888C15.6114 36.3888 13.293 35.9208 11.1114 34.9978C10.0631 34.5543 9.05073 34.0056 8.10465 33.3663C7.16721 32.7327 6.28593 32.0055 5.48529 31.2048C4.68465 30.4042 3.95745 29.5229 3.32385 28.5855C2.68449 27.6394 2.13585 26.6285 1.69233 25.5787C0.770734 23.3971 0.302734 21.0787 0.302734 18.6898C0.302734 16.3008 0.770734 13.9824 1.69377 11.8008C2.13729 10.7525 2.68593 9.74019 3.32529 8.79411C3.95889 7.85667 4.68609 6.97539 5.48673 6.17475C6.28737 5.37555 7.16865 4.64835 8.10609 4.01475C9.05217 3.37539 10.0631 2.82675 11.1128 2.38323C13.2944 1.46019 15.6128 0.992188 18.0018 0.992188C20.3907 0.992188 22.7091 1.46019 24.8907 2.38323C25.9391 2.82675 26.9514 3.37539 27.8975 4.01475C28.8349 4.64835 29.7162 5.37555 30.5168 6.17619C31.3175 6.97683 32.0447 7.85811 32.6783 8.79555C33.3176 9.74163 33.8663 10.7525 34.3098 11.8023C35.2328 13.9839 35.7008 16.3023 35.7008 18.6912C35.7008 21.0802 35.2328 23.3986 34.3098 25.5802C33.8663 26.6285 33.3176 27.6408 32.6783 28.5869C32.0447 29.5243 31.3175 30.4056 30.5168 31.2063C29.7162 32.0069 28.8349 32.7341 27.8975 33.3677C26.9514 34.0071 25.9405 34.5557 24.8907 34.9992C22.7077 35.9208 20.3893 36.3888 18.0003 36.3888ZM18.0003 1.61283C15.6949 1.61283 13.4586 2.06499 11.3533 2.95491C10.341 3.38259 9.36609 3.91251 8.45313 4.52883C7.54881 5.13939 6.69777 5.84211 5.92449 6.61395C5.15265 7.38723 4.44993 8.23827 3.83937 9.14259C3.22305 10.0555 2.69313 11.0319 2.26545 12.0427C1.37553 14.148 0.923374 16.3843 0.923374 18.6898C0.923374 20.9952 1.37553 23.2315 2.26545 25.3368C2.69313 26.3491 3.22305 27.324 3.83937 28.237C4.44993 29.1413 5.15265 29.9923 5.92449 30.7642C6.69777 31.5375 7.54737 32.2387 8.45169 32.8493C9.36465 33.4656 10.341 33.9955 11.3519 34.4232C13.4571 35.3131 15.6935 35.7653 17.9989 35.7653C20.3043 35.7653 22.5407 35.3131 24.6459 34.4232C25.6583 33.9955 26.6331 33.4656 27.5461 32.8493C28.4504 32.2387 29.3015 31.536 30.0733 30.7642C30.8466 29.9909 31.5479 29.1413 32.1584 28.237C32.7747 27.324 33.3047 26.3477 33.7323 25.3368C34.6223 23.2315 35.0744 20.9952 35.0744 18.6898C35.0744 16.3843 34.6223 14.148 33.7323 12.0427C33.3047 11.0304 32.7747 10.0555 32.1584 9.14259C31.5479 8.23827 30.8451 7.38723 30.0733 6.61539C29.3043 5.84211 28.4533 5.13939 27.549 4.52883C26.636 3.91251 25.6597 3.38259 24.6488 2.95491C22.5435 2.06355 20.3058 1.61283 18.0003 1.61283Z" fill="#0066CC"/>
<path d="M8.25665 14.175H20.5355C20.5355 14.175 24.7735 14.1346 21.8431 19.6009C21.8431 19.6009 19.7047 23.8791 14.3968 23.7999L17.261 16.4977C17.3776 16.1996 17.2307 15.8626 16.9312 15.746C16.8679 15.7215 16.7987 15.7071 16.7311 15.7057L12.9712 15.6409L8.21777 27.207C8.21777 27.207 9.80177 27.3654 10.673 27.2862L10.1978 28.4742H12.4442C12.5709 28.4742 12.6832 28.3964 12.7279 28.2783L13.1296 27.207L14.08 27.1278L13.5256 28.4742H15.7101C15.8728 28.4742 16.0183 28.3748 16.0787 28.2236L16.6936 26.6526C16.6936 26.6526 23.3479 25.5438 26.3575 20.1567C26.3575 20.1567 30.3981 13.8985 25.6447 11.6809C24.7187 11.2561 23.728 10.9882 22.7143 10.8889L23.273 9.52232C23.3291 9.38264 23.2629 9.22424 23.1232 9.16664C23.0901 9.15368 23.0555 9.14648 23.0195 9.14648H20.969L20.3354 10.8097H19.4642L19.9567 9.518C20.0099 9.37688 19.9394 9.21848 19.7983 9.16376C19.7666 9.15224 19.7335 9.14648 19.7003 9.14648H17.6411L17.0075 10.8097H10.6082C10.2568 10.8082 9.93425 11.0026 9.77009 11.3122L8.25665 14.175Z" fill="white"/>
</g>
<defs>
<clipPath id="clip0_1_15674">
<rect width="36" height="36" fill="white" transform="translate(0 0.689453)"/>
</clipPath>
</defs>
</svg>
