<svg width="36" height="37" viewBox="0 0 36 37" fill="none" xmlns="http://www.w3.org/2000/svg">
<g clip-path="url(#clip0_1_15925)">
<path d="M18.022 36.5167C27.8518 36.5167 35.8204 28.5481 35.8204 18.7183C35.8204 8.88854 27.8518 0.919922 18.022 0.919922C8.19225 0.919922 0.223633 8.88854 0.223633 18.7183C0.223633 28.5481 8.19225 36.5167 18.022 36.5167Z" fill="url(#paint0_linear_1_15925)"/>
<path d="M18.59 27.143H12.0308V18.1502H16.0124V23.1326H18.59C21.002 23.1326 22.7372 20.9438 22.7372 18.8702V18.791C22.7372 16.4654 20.75 14.4134 18.59 14.4134H14.6084C11.6276 14.4134 10.7348 12.599 9.62598 10.5254H18.59C24.0692 10.5254 26.942 14.0102 26.942 18.791V18.8702C26.9492 24.1478 23.378 27.143 18.59 27.143Z" fill="white"/>
</g>
<defs>
<linearGradient id="paint0_linear_1_15925" x1="5.43591" y1="6.13387" x2="30.6039" y2="31.3019" gradientUnits="userSpaceOnUse">
<stop stop-color="#814BEC"/>
<stop offset="0.9996" stop-color="#3D6AD7"/>
</linearGradient>
<clipPath id="clip0_1_15925">
<rect width="36" height="36" fill="white" transform="translate(0 0.689453)"/>
</clipPath>
</defs>
</svg>
