<svg width="36" height="37" viewBox="0 0 36 37" fill="none" xmlns="http://www.w3.org/2000/svg">
<g clip-path="url(#clip0_1_15706)">
<path d="M3.62765 0.955078H32.3733C34.2295 0.955078 35.7343 2.45986 35.7343 4.31612V33.0618C35.7343 34.918 34.2295 36.4228 32.3733 36.4228H3.62765C1.7714 36.4228 0.266602 34.918 0.266602 33.0618V4.31612C0.266602 2.45988 1.7714 0.955078 3.62765 0.955078Z" fill="#322A3F"/>
<path d="M17.7842 10.4021L10.965 24.6203H22.2859C22.6141 24.6202 22.9106 24.8159 23.0396 25.1176L23.0516 25.1451C23.1365 25.343 23.1236 25.5692 23.0169 25.7562C22.8247 26.091 22.4683 26.2976 22.0822 26.2978H10.0508C9.86524 26.2977 9.68386 26.2427 9.52955 26.1396L9.46604 26.0977C9.20468 25.9231 9.04777 25.6296 9.04785 25.3153C9.04758 25.1733 9.07953 25.0332 9.14131 24.9055L17.1875 8.34708C17.2715 8.17425 17.3912 8.02113 17.5385 7.89774C17.8266 7.65753 18.244 7.65352 18.5367 7.88815C18.6003 7.93845 18.6518 8.00231 18.6876 8.07508L26.8488 24.7473C26.9595 24.9739 26.9825 25.2333 26.9135 25.4758C26.8357 25.75 26.585 25.939 26.3 25.9383H26.2066C25.8259 25.9383 25.4795 25.7184 25.3175 25.374L18.2791 10.4045C18.2158 10.2675 18.0534 10.2078 17.9165 10.2711C17.8584 10.2979 17.8116 10.3443 17.7842 10.4021Z" fill="#F4AE95"/>
</g>
<defs>
<clipPath id="clip0_1_15706">
<rect width="36" height="36" fill="white" transform="translate(0 0.689453)"/>
</clipPath>
</defs>
</svg>
