<svg width="36" height="37" viewBox="0 0 36 37" fill="none" xmlns="http://www.w3.org/2000/svg">
<path d="M14.0114 17.1909L9.92176 10.1133L5.79616 2.96369C5.55856 2.56049 5.22736 2.21489 4.83136 1.96289H4.76656C4.34176 2.20769 3.99616 2.56049 3.76576 2.99249L0.669761 8.34929C0.223361 9.11249 0.223361 10.0629 0.669761 10.8261L4.38496 17.2557C4.64416 17.7021 4.77376 18.2133 4.76656 18.7317C4.75936 19.2501 4.62976 19.7541 4.38496 20.2077L0.705761 26.5797C0.259361 27.3429 0.259361 28.2933 0.705761 29.0565L3.80176 34.4133C4.03216 34.8309 4.36336 35.1837 4.76656 35.4429H4.79536C5.20576 35.2125 5.55136 34.8741 5.79616 34.4709L9.92176 27.3213L14.0114 20.2365C14.5298 19.2933 14.5298 18.1413 14.0114 17.1909Z" fill="url(#paint0_linear_1_15668)"/>
<path opacity="0.25" d="M15.5015 17.1909L11.3975 10.1133L7.29348 2.96369C7.05588 2.56049 6.72468 2.21489 6.32868 1.96289H6.29988C5.87508 2.20769 5.52948 2.56049 5.29908 2.99249L2.20308 8.34929C1.75668 9.11249 1.75668 10.0629 2.20308 10.8261L5.91828 17.2557C6.17748 17.7021 6.30708 18.2133 6.29988 18.7317C6.29268 19.2501 6.16308 19.7541 5.91828 20.2077L2.18148 26.5797C1.73508 27.3429 1.73508 28.2933 2.18148 29.0565L5.27748 34.4133C5.51508 34.8381 5.86068 35.1909 6.27828 35.4429H6.30708C6.71748 35.2125 7.05588 34.8741 7.29348 34.4709L11.3975 27.2997L15.5015 20.2149C16.0127 19.2717 16.0127 18.1341 15.5015 17.1909Z" fill="url(#paint1_linear_1_15668)"/>
<path opacity="0.25" d="M35.2159 17.0187L31.1262 9.90508L26.8999 2.55388C26.7055 2.22268 26.4463 1.92748 26.1439 1.69708C25.9927 1.56748 25.7983 1.48828 25.6039 1.48828C23.4367 1.48828 21.9606 1.56028 20.8662 1.56028C20.6934 1.56028 20.5855 1.76908 20.6287 1.94188L21.6942 7.91788C21.7014 7.98988 21.6871 8.06188 21.6655 8.12668C21.2551 8.89708 21.2839 9.82588 21.7375 10.5675L25.5247 17.1627C25.7911 17.6235 25.9351 18.1491 25.9351 18.6747C25.9351 19.2075 25.7911 19.7259 25.5247 20.1867L21.6727 26.7819C21.2407 27.5307 21.2119 28.4523 21.6007 29.2227C21.6295 29.2875 21.6367 29.3595 21.6295 29.4315L20.5567 35.3643C20.5279 35.5371 20.6286 35.7459 20.7942 35.7459C21.795 35.7459 20.3839 35.8467 25.6759 35.8467C25.7911 35.8395 25.9062 35.8179 26.0142 35.7747C26.3958 35.6379 26.6478 35.1843 26.8422 34.8171L31.0687 27.4731L35.1582 20.3595C35.8134 19.3443 35.8351 18.0555 35.2159 17.0187Z" fill="url(#paint2_linear_1_15668)"/>
<path d="M33.567 17.1915L25.3158 2.96428C24.7902 2.06428 23.8326 1.50988 22.7886 1.48828H6.37257C5.80377 1.48828 5.24937 1.63948 4.75977 1.93468V1.96348C5.16297 2.20828 5.49417 2.54668 5.71737 2.96428L9.84297 10.1139C10.239 9.93388 10.671 9.84028 11.103 9.83308H17.9286C18.9798 9.82588 19.9446 10.3947 20.4558 11.3091L23.8614 17.1843C24.3798 18.0987 24.3798 19.2219 23.8614 20.1363L20.4918 26.0475C19.9662 26.9475 19.0086 27.5019 17.9646 27.5235H11.1966C10.7574 27.5235 10.3326 27.4299 9.93657 27.2427L5.83257 34.4067C5.59497 34.8099 5.26377 35.1483 4.87497 35.4075V35.4363C5.34297 35.7243 5.87577 35.8755 6.42297 35.8827H22.8894C23.9406 35.8899 24.9054 35.3211 25.4166 34.4067L33.5598 20.1435C34.071 19.2363 34.0782 18.1131 33.567 17.1915Z" fill="url(#paint3_linear_1_15668)"/>
<defs>
<linearGradient id="paint0_linear_1_15668" x1="0.368186" y1="18.704" x2="14.3875" y2="18.704" gradientUnits="userSpaceOnUse">
<stop stop-color="#00BA95"/>
<stop offset="0.52" stop-color="#00D9AD"/>
<stop offset="1" stop-color="#00F9AB"/>
</linearGradient>
<linearGradient id="paint1_linear_1_15668" x1="1.84869" y1="18.704" x2="15.8844" y2="18.704" gradientUnits="userSpaceOnUse">
<stop stop-color="#00BA95"/>
<stop offset="0.52" stop-color="#00D9AD"/>
<stop offset="1" stop-color="#00D9AD"/>
</linearGradient>
<linearGradient id="paint2_linear_1_15668" x1="20.5441" y1="18.6696" x2="35.6634" y2="18.6696" gradientUnits="userSpaceOnUse">
<stop stop-color="#008D85"/>
<stop offset="1" stop-color="#00FFDE"/>
</linearGradient>
<linearGradient id="paint3_linear_1_15668" x1="4.76705" y1="18.6899" x2="33.9172" y2="18.6899" gradientUnits="userSpaceOnUse">
<stop stop-color="#008D95"/>
<stop offset="1" stop-color="#00FFDE"/>
</linearGradient>
</defs>
</svg>
