<svg width="36" height="38" viewBox="0 0 36 38" fill="none" xmlns="http://www.w3.org/2000/svg">
<path d="M35.3909 15.9093C35.1448 14.7101 34.705 13.5591 34.089 12.5013C32.8253 10.3952 30.0683 7.3318 26.622 4.9194C26.622 4.9194 24.0181 3.23454 22.7927 2.66016C18.3126 0.592387 13.2963 0.171163 9.00754 3.9621C1.80857 10.3569 -1.79089 19.279 1.80857 28.1628C1.88515 28.3543 3.87635 33.7918 15.8235 37.4295C21.0696 37.5827 24.133 37.2764 27.5027 35.3235C31.9063 32.7962 34.4719 28.2011 35.3909 23.5295C35.6589 22.1126 35.6972 17.3261 35.3909 15.9093Z" fill="#04FFCC"/>
<path d="M21.4518 3.31206V11.8512L11.5724 11.2386L7.51343 16.3697L7.01562 26.0577L10.3853 29.6571L15.4399 32.1844L22.0645 32.912L29.2634 31.0739V13.268L27.8849 5.87764C27.8849 5.87764 24.0174 2.85255 21.4901 2.125" fill="#7DF8FB"/>
<path d="M33.0158 24.4867C31.6373 24.4102 32.4031 22.2275 31.7904 19.7385C31.0629 16.9815 32.1351 15.0668 33.5519 15.1434C34.2173 15.2471 34.8478 15.5098 35.3899 15.9093C35.1438 14.7101 34.704 13.5591 34.088 12.5013C32.8243 10.3952 30.0673 7.3318 26.621 4.9194V28.0096C26.6223 29.2976 25.5793 30.3427 24.2913 30.344C23.3873 30.3449 22.5641 29.8232 22.1791 29.0052C17.9135 31.649 12.3123 30.3342 9.66853 26.0686C7.02476 21.803 8.33953 16.2018 12.6052 13.558C15.4558 11.7912 19.0479 11.7383 21.9493 13.4203V4.45989C21.9365 3.76194 22.2476 3.09737 22.7918 2.66016C18.3116 0.592386 13.2953 0.171163 9.00657 3.9621C1.8076 10.3569 -1.79188 19.279 1.8076 28.1628C1.88418 28.3543 1.96076 28.5457 2.03736 28.6989C2.1426 28.484 2.28523 28.2895 2.45857 28.1245C4.3349 26.2099 6.40267 30.1157 10.8063 32.375C13.6016 33.7918 15.2099 35.6681 15.8226 37.4295C19.9198 37.9273 24.132 37.2764 27.5017 35.3235C31.9053 32.7962 34.4709 28.2011 35.3899 23.5294C34.7285 24.1062 33.8922 24.4434 33.0158 24.4867ZM18.0052 6.33621C19.0391 6.29791 19.9964 7.52327 20.0347 8.09766C20.073 8.67204 19.154 8.44228 18.1584 8.78691C17.0479 9.16984 16.2438 8.82521 16.2055 8.25082C16.1672 7.67643 16.933 6.37451 18.0052 6.33621Z" fill="#2C398F"/>
<path d="M15.746 24.6394C17.9669 25.9031 20.6474 25.4053 21.1452 22.5717C21.4132 20.9251 21.2601 18.3595 19.805 17.5554C14.9801 14.7983 10.9212 21.8824 15.746 24.6394Z" fill="#2C398F"/>
</svg>
