<svg width="36" height="37" viewBox="0 0 36 37" fill="none" xmlns="http://www.w3.org/2000/svg">
<g clip-path="url(#clip0_1_15665)">
<path d="M17.9486 0.978528C27.7147 0.967224 35.6433 8.87102 35.6459 18.6203C35.6485 28.3907 27.7426 36.3317 17.9886 36.2983C8.29568 36.2652 0.360411 28.4105 0.326283 18.6907C0.291939 8.91394 8.19466 0.989832 17.9486 0.978528ZM17.6664 16.1148C16.9864 16.6954 16.4471 17.1029 15.9722 17.575C15.4139 18.1303 15.3118 18.7912 15.9178 19.3664C16.5017 19.9205 17.1338 19.7705 17.666 19.24C18.8213 18.0882 19.9633 16.923 21.1007 15.7536C21.6681 15.1701 21.6893 14.5438 21.1186 13.9557C19.9826 12.7852 18.8304 11.6302 17.6781 10.4755C17.1226 9.91884 16.4902 9.75799 15.8937 10.3611C15.299 10.9625 15.4674 11.5828 16.0202 12.1475C16.4338 12.5701 16.8336 13.0063 17.3191 13.5209C17.0271 13.535 16.9015 13.5455 16.7757 13.5466C11.9659 13.5892 8.48165 17.1249 8.53047 21.9145C8.57201 25.9915 12.0261 29.5669 16.0894 29.7387C20.474 29.924 24.3867 26.7377 24.5698 22.5137C24.7641 18.0304 24.6534 13.5332 24.6472 9.0421C24.6462 8.2871 24.2192 7.77626 23.406 7.82724C22.5471 7.8811 22.3047 8.48899 22.304 9.2519C22.3 13.3627 22.2984 17.4734 22.2865 21.5842C22.2812 23.409 21.5869 24.9312 20.1628 26.0771C18.2977 27.5777 15.6515 27.7368 13.6732 26.511C11.5688 25.207 10.5378 22.8397 11.0289 20.4395C11.6169 17.5656 14.6442 15.4346 17.6664 16.1148Z" fill="url(#paint0_linear_1_15665)"/>
<path d="M17.6667 16.1153C14.6445 15.4352 11.6172 17.5662 11.0292 20.44C10.5381 22.8402 11.5691 25.2075 13.6735 26.5114C15.6518 27.7372 18.298 27.5782 20.1631 26.0776C21.5873 24.9317 22.2816 23.4095 22.2868 21.5847C22.2987 17.4739 22.3003 13.3632 22.3043 9.25238C22.305 8.48954 22.5473 7.88165 23.4063 7.82772C24.2196 7.77674 24.6465 8.28758 24.6475 9.04257C24.6537 13.5336 24.7644 18.0308 24.5701 22.5142C24.387 26.7382 20.4742 29.9246 16.0897 29.7392C12.0265 29.5674 8.57232 25.992 8.53078 21.915C8.48196 17.1254 11.9662 13.5897 16.776 13.547C16.9018 13.546 17.0274 13.5354 17.3195 13.5213C16.8339 13.0068 16.4341 12.5706 16.0205 12.148C15.4677 11.5832 15.2992 10.963 15.894 10.3616C16.4905 9.75847 17.1229 9.91925 17.6785 10.476C18.8307 11.6307 19.983 12.7856 21.1189 13.9562C21.6896 14.5443 21.6684 15.1706 21.101 15.7541C19.9636 16.9235 18.8216 18.0887 17.6664 19.2404C17.1341 19.771 16.5019 19.921 15.9181 19.3669C15.3121 18.7917 15.4143 18.1308 15.9726 17.5755C16.4473 17.1034 16.9867 16.696 17.6667 16.1153Z" fill="white"/>
</g>
<defs>
<linearGradient id="paint0_linear_1_15665" x1="5.25943" y1="31.3661" x2="30.8914" y2="5.73405" gradientUnits="userSpaceOnUse">
<stop stop-color="#70B3DF"/>
<stop offset="1" stop-color="#7D64BD"/>
</linearGradient>
<clipPath id="clip0_1_15665">
<rect width="36" height="36" fill="white" transform="translate(0 0.689453)"/>
</clipPath>
</defs>
</svg>
