<svg width="36" height="37" viewBox="0 0 36 37" fill="none" xmlns="http://www.w3.org/2000/svg">
<path fill-rule="evenodd" clip-rule="evenodd" d="M22.2047 12.3109C22.3559 12.0733 22.4999 11.7997 22.6151 11.5117C22.8167 11.0149 22.9247 10.5181 22.9535 10.0645C23.0615 9.10687 22.8311 8.33647 22.2911 8.09887C21.7583 7.86847 21.0599 8.22847 20.4623 8.94847C20.4623 8.89807 20.4623 8.85487 20.4623 8.80447C20.4623 6.81007 19.5551 5.19727 18.4463 5.19727C17.3375 5.19727 16.4303 6.81007 16.4303 8.80447C16.4303 8.94847 16.4375 9.08527 16.4447 9.22207C15.7679 8.29327 14.8751 7.81087 14.2343 8.12047C13.4351 8.50207 13.3415 9.97087 14.0183 11.3893C14.1335 11.6269 14.3855 12.0373 14.5223 12.2389C5.87505 13.6213 0.950255 20.6413 0.331055 32.1541H5.16946C5.68066 22.6717 10.0871 17.3221 18.0431 17.4877C25.3511 17.6389 30.9383 22.4341 30.8591 32.1541H35.6975C35.7839 20.6917 30.1535 14.0893 22.2047 12.3109Z" fill="#FFF700"/>
<path fill-rule="evenodd" clip-rule="evenodd" d="M14.0252 23.082C13.442 23.082 12.9668 23.6148 12.9668 24.2628V27.1716C12.9668 27.8268 13.442 28.3524 14.0252 28.3524C14.6084 28.3524 15.0836 27.8196 15.0836 27.1716V24.2628C15.0764 23.6148 14.6084 23.082 14.0252 23.082Z" fill="#FFF700"/>
<path fill-rule="evenodd" clip-rule="evenodd" d="M22.4715 23.082C21.8883 23.082 21.4131 23.6148 21.4131 24.2628V27.1716C21.4131 27.8268 21.8883 28.3524 22.4715 28.3524C23.0547 28.3524 23.5299 27.8196 23.5299 27.1716V24.2628C23.5227 23.6148 23.0475 23.082 22.4715 23.082Z" fill="#FFF700"/>
</svg>
