<svg width="36" height="37" viewBox="0 0 36 37" fill="none" xmlns="http://www.w3.org/2000/svg">
<g clip-path="url(#clip0_1_15652)">
<path d="M17.9999 8.23505C21.5827 8.23505 24.4871 6.54591 24.4871 4.46225C24.4871 2.37859 21.5827 0.689453 17.9999 0.689453C14.4171 0.689453 11.5127 2.37859 11.5127 4.46225C11.5127 6.54591 14.4171 8.23505 17.9999 8.23505Z" fill="#E6007A"/>
<path d="M17.9999 36.6823C21.5827 36.6823 24.4871 34.9932 24.4871 32.9095C24.4871 30.8259 21.5827 29.1367 17.9999 29.1367C14.4171 29.1367 11.5127 30.8259 11.5127 32.9095C11.5127 34.9932 14.4171 36.6823 17.9999 36.6823Z" fill="#E6007A"/>
<path d="M8.9556 13.4687C10.747 10.366 10.7336 7.00463 8.92572 5.96081C7.11783 4.91699 4.20003 6.58604 2.40864 9.68873C0.617248 12.7914 0.630626 16.1528 2.43852 17.1966C4.24641 18.2405 7.16421 16.5714 8.9556 13.4687Z" fill="#E6007A"/>
<path d="M33.5798 27.6842C35.3712 24.5815 35.3607 21.2217 33.5562 20.1799C31.7518 19.138 28.8367 20.8087 27.0454 23.9114C25.254 27.0141 25.2646 30.3739 27.069 31.4157C28.8735 32.4575 31.7885 30.7869 33.5798 27.6842Z" fill="#E6007A"/>
<path d="M8.93158 31.4122C10.7395 30.3684 10.7528 27.007 8.96146 23.9043C7.17007 20.8016 4.25227 19.1326 2.44438 20.1764C0.636485 21.2202 0.623108 24.5816 2.4145 27.6843C4.20589 30.787 7.12368 32.4561 8.93158 31.4122Z" fill="#E6007A"/>
<path d="M33.5611 17.1932C35.3655 16.1514 35.3761 12.7916 33.5847 9.68887C31.7933 6.58618 28.8783 4.91552 27.0739 5.95735C25.2694 6.99918 25.2588 10.359 27.0502 13.4617C28.8416 16.5644 31.7566 18.235 33.5611 17.1932Z" fill="#E6007A"/>
</g>
<defs>
<clipPath id="clip0_1_15652">
<rect width="36" height="36" fill="white" transform="translate(0 0.689453)"/>
</clipPath>
</defs>
</svg>
