<svg width="36" height="37" viewBox="0 0 36 37" fill="none" xmlns="http://www.w3.org/2000/svg">
<g clip-path="url(#clip0_1_15956)">
<path d="M24.6006 9.62552C24.6006 9.62552 25.1633 9.06277 25.4193 8.49994C25.4193 8.49994 24.8051 7.78347 25.4193 7.06729C25.4193 7.06729 25.5727 6.14734 24.9074 5.63463C24.9074 5.63463 26.0844 4.71469 27.4147 6.2997C27.4147 6.2997 27.8238 5.9929 28.182 6.50454C28.182 6.50454 32.1218 7.5278 30.8428 14.64L24.6006 9.62552Z" fill="#1797E5"/>
<path d="M30.9361 14.8877L24.3994 9.6367L24.5058 9.53028C24.5117 9.52438 25.0074 9.02491 25.2629 8.51558C25.2051 8.43213 25.1147 8.28151 25.0598 8.08942C24.9827 7.81949 24.9621 7.41622 25.291 7.01129C25.3082 6.849 25.349 6.14506 24.8256 5.74171L24.6879 5.63558L24.8249 5.52852C24.8382 5.51808 25.1574 5.2727 25.6534 5.23836C25.9437 5.21827 26.2348 5.27421 26.5187 5.40468C26.8396 5.55213 27.1515 5.79571 27.4467 6.1295C27.5308 6.09293 27.6558 6.05815 27.7996 6.08112C27.9748 6.10906 28.1311 6.21238 28.2649 6.38849C28.357 6.41801 28.5721 6.49663 28.8472 6.65964C29.177 6.85512 29.6624 7.2162 30.1022 7.82647C30.5933 8.50795 30.9291 9.35546 31.1002 10.3455C31.3125 11.5733 31.2708 13.0262 30.9763 14.664L30.9361 14.8877ZM24.8001 9.61243L30.7497 14.3917C31.0017 12.884 31.0313 11.5447 30.8372 10.4077C30.6752 9.45958 30.3584 8.64979 29.8952 8.00093C29.6686 7.68341 29.2815 7.23485 28.7246 6.90084C28.3908 6.70068 28.1509 6.63595 28.1485 6.6353L28.1008 6.6227L28.0722 6.58217C27.9767 6.4458 27.8717 6.36703 27.7601 6.34817C27.6152 6.32376 27.4966 6.40778 27.4954 6.40858L27.3932 6.48526L27.3121 6.38669C27.0244 6.0439 26.7226 5.79744 26.4151 5.65409C26.1743 5.54191 25.9289 5.4923 25.6859 5.50678C25.4477 5.52089 25.2561 5.59454 25.1348 5.6556C25.6903 6.21957 25.5595 7.05182 25.5532 7.0897L25.547 7.12678L25.5226 7.15536C24.9931 7.77276 25.5009 8.38678 25.5228 8.41262L25.5781 8.47786L25.5429 8.55598C25.3449 8.99129 24.9791 9.41782 24.8001 9.61243Z" fill="#122A44"/>
<path d="M26.7756 8.83466C26.7756 8.83466 27.2355 8.98809 27.4918 8.73242C27.4918 8.73242 28.3957 10.4549 27.7391 12.1518L25.7012 10.7789C25.7012 10.7789 26.7756 10.267 26.7756 8.83466Z" fill="url(#paint0_linear_1_15956)"/>
<path d="M27.7385 12.1918C27.7305 12.1918 27.7227 12.1894 27.7159 12.1849L25.678 10.812C25.666 10.8038 25.6592 10.7899 25.6603 10.7754C25.6613 10.7609 25.6701 10.7481 25.6832 10.7419C25.6858 10.7406 25.9498 10.6123 26.2098 10.314C26.4492 10.0393 26.7346 9.55969 26.7346 8.83414C26.7346 8.82111 26.7408 8.80894 26.7514 8.80131C26.7619 8.79368 26.7755 8.79166 26.7879 8.79577C26.789 8.79613 26.9008 8.83277 27.0409 8.83853C27.2232 8.84609 27.3652 8.80052 27.4627 8.70325C27.4719 8.69417 27.4847 8.68993 27.4974 8.69187C27.5102 8.69381 27.5212 8.70166 27.5271 8.71311C27.5294 8.71743 27.7573 9.15584 27.9007 9.79642C28.0332 10.3883 28.1192 11.2799 27.7763 12.1659C27.7719 12.1775 27.7625 12.1862 27.7507 12.19C27.7468 12.1911 27.7426 12.1918 27.7385 12.1918ZM25.7786 10.7822L27.7187 12.0892C28.0329 11.2386 27.9494 10.3862 27.8221 9.81644C27.7079 9.30509 27.5393 8.92515 27.4783 8.79742C27.3674 8.88519 27.2157 8.92724 27.0353 8.91939C26.9435 8.91543 26.8642 8.89959 26.815 8.88742C26.8014 9.6103 26.512 10.0916 26.2682 10.3702C26.0707 10.596 25.8747 10.7262 25.7786 10.7822Z" fill="#122A44"/>
<path d="M27.8613 8.46998C27.8613 8.46998 28.3213 8.47214 28.5794 8.11523C28.5794 8.11523 30.771 9.84878 29.7028 13.7577L28.2009 12.2579C28.2009 12.2579 29.0794 10.4714 27.8613 8.46998Z" fill="url(#paint1_linear_1_15956)"/>
<path d="M29.7032 13.7976C29.6926 13.7976 29.6823 13.7934 29.6746 13.7858L28.1727 12.286C28.1605 12.2738 28.1574 12.2551 28.165 12.2395C28.1672 12.235 28.383 11.7889 28.4484 11.1065C28.4868 10.7063 28.4666 10.3041 28.3886 9.91125C28.291 9.42021 28.1021 8.9422 27.8272 8.49047C27.8195 8.47794 27.8193 8.46225 27.8265 8.4495C27.8337 8.43676 27.8472 8.42891 27.8618 8.42891H27.862C27.8687 8.42891 28.3053 8.42524 28.5471 8.09094C28.5536 8.08202 28.5634 8.07611 28.5743 8.0746C28.5853 8.07309 28.5964 8.07611 28.605 8.08295C28.6108 8.08749 28.7473 8.19642 28.9366 8.42056C29.1104 8.62655 29.3631 8.97294 29.5791 9.45354C29.8216 9.99311 29.9695 10.5886 30.0188 11.2234C30.0802 12.0157 29.9872 12.8717 29.7424 13.7679C29.7386 13.7818 29.7277 13.7926 29.7137 13.7963C29.7101 13.7972 29.7067 13.7976 29.7032 13.7976ZM28.2499 12.2488L29.6823 13.6791C29.9108 12.8177 29.9968 11.9952 29.9381 11.233C29.89 10.6081 29.745 10.022 29.5071 9.49113C29.158 8.7123 28.7076 8.28066 28.586 8.17324C28.3765 8.43287 28.0677 8.49234 27.9307 8.50595C28.1924 8.94954 28.3731 9.41747 28.4683 9.89778C28.5478 10.2988 28.5681 10.7094 28.5285 11.1178C28.4696 11.727 28.298 12.1422 28.2499 12.2488Z" fill="#122A44"/>
<path d="M4.94222 12.791C4.94222 12.791 1.78063 13.9739 2.24114 15.6625C2.24114 15.6625 2.33856 16.2183 3.33885 16.0684C3.33885 16.0684 5.54284 12.9382 4.94222 12.791Z" fill="#1797E5"/>
<path d="M3.01728 16.2435C2.72488 16.2435 2.49189 16.1748 2.32204 16.0381C2.15126 15.9007 2.10625 15.7404 2.09689 15.6979C1.98184 15.2711 2.0655 14.8411 2.34551 14.4201C2.56093 14.0962 2.89372 13.7773 3.33479 13.4723C4.0743 12.9609 4.85745 12.6652 4.89043 12.6528L4.93334 12.6367L4.97783 12.6476C5.06927 12.67 5.13796 12.7313 5.1713 12.8201C5.23243 12.9832 5.17475 13.2398 4.98424 13.6521C4.84946 13.9439 4.64793 14.3105 4.38513 14.7419C3.94017 15.4722 3.46526 16.1479 3.46051 16.1546L3.42393 16.2066L3.36115 16.216C3.23868 16.2343 3.12398 16.2435 3.01728 16.2435ZM2.38742 15.6367C2.39555 15.6698 2.50139 16.0243 3.25444 15.931C3.37504 15.7573 3.77162 15.1798 4.14357 14.5675C4.40212 14.142 4.59803 13.7839 4.72584 13.5031C4.86991 13.1867 4.89662 13.0356 4.89806 12.9694C4.38405 13.1813 2.00797 14.2437 2.38453 15.6243L2.38742 15.6367Z" fill="#122A44"/>
<path d="M3.76276 24.2598C3.76276 24.2598 2.43156 25.8434 3.60394 27.5704C3.67795 27.6803 3.81605 27.7276 3.9419 27.686C4.32854 27.5566 5.16921 27.1177 5.92601 25.6404L3.76276 24.2598ZM5.85883 28.525C5.75062 29.0764 5.62699 30.3269 6.55068 31.048C6.6095 31.0942 6.68798 31.107 6.75847 31.0818C7.01278 30.9912 7.6386 30.6719 8.18054 29.6275C8.2367 29.5201 8.19508 29.3875 8.08773 29.3314C8.08672 29.3309 8.08579 29.3304 8.08478 29.3299L6.17131 28.3731C6.06324 28.319 5.9317 28.3627 5.87755 28.4708C5.86898 28.488 5.86272 28.5062 5.85883 28.525Z" fill="#1797E5"/>
<path d="M6.68421 31.2512C6.60191 31.2512 6.52098 31.2238 6.45387 31.1711C6.02065 30.8329 5.75447 30.3535 5.66303 29.7464C5.5901 29.2619 5.64575 28.7986 5.70529 28.4952L5.70551 28.494C5.71206 28.4618 5.72286 28.4306 5.73762 28.4013C5.83028 28.2164 6.05601 28.1413 6.24091 28.234L8.16028 29.1938C8.24855 29.2399 8.314 29.3182 8.34402 29.4139C8.37405 29.5096 8.36498 29.6113 8.31854 29.7002C8.07474 30.1701 7.78696 30.5505 7.46347 30.8307C7.19455 31.0635 6.95996 31.1759 6.81049 31.2292C6.76916 31.2439 6.72655 31.2512 6.68421 31.2512ZM6.01144 28.5561C5.95672 28.8353 5.90546 29.26 5.9717 29.6999C6.05083 30.2253 6.27777 30.6376 6.64627 30.9253C6.6634 30.9388 6.68543 30.9424 6.70552 30.9352C6.93448 30.8536 7.52264 30.5559 8.04155 29.556C8.05235 29.5353 8.04904 29.5167 8.04608 29.5073C8.04313 29.498 8.03521 29.4807 8.01498 29.4702L6.10108 28.5132C6.06998 28.4976 6.03218 28.5102 6.0167 28.5412C6.01439 28.5458 6.01259 28.5509 6.01144 28.5561ZM3.84964 27.857C3.70204 27.857 3.5594 27.7846 3.47408 27.6578C2.83415 26.7152 2.91422 25.8129 3.094 25.2222C3.28732 24.5871 3.62845 24.1767 3.64285 24.1595L3.73091 24.0547L6.12916 25.5854L6.06443 25.7118C5.2959 27.212 4.43543 27.6854 3.99098 27.8341C3.94454 27.8497 3.8968 27.857 3.84964 27.857ZM3.80083 24.4698C3.6947 24.623 3.50828 24.9277 3.38934 25.324C3.16103 26.0847 3.27652 26.8111 3.73264 27.483C3.76778 27.5351 3.8333 27.5575 3.89241 27.538C4.07349 27.4774 4.35954 27.3437 4.69161 27.0517C5.06961 26.7193 5.41535 26.2633 5.7207 25.6951L3.80083 24.4698Z" fill="#122A44"/>
<path d="M26.8518 8.91055C26.8518 8.91055 26.8136 10.196 26.04 10.551L26.4581 10.5948C26.4581 10.5948 26.9548 9.98501 26.9548 8.96167L26.8518 8.91055ZM27.9776 8.55228C27.9776 8.55228 28.9498 10.0872 28.387 11.6221L28.6938 11.7758C28.6938 11.7758 29.3592 10.2409 28.1822 8.50195L27.9776 8.55228Z" fill="#7DA4B7"/>
<path d="M3.37983 18.028C3.37983 18.028 0.834049 20.5205 1.99995 21.9347C1.99995 21.9347 2.33136 22.4237 3.23266 21.8493C3.2315 21.8493 4.0238 17.9092 3.37983 18.028Z" fill="#1797E5"/>
<path d="M2.45584 22.2852C2.3806 22.2852 2.30838 22.2762 2.23926 22.2584C2.01584 22.2008 1.90367 22.067 1.87631 22.0301C1.58255 21.6715 1.47937 21.2243 1.5698 20.701C1.63928 20.2987 1.82425 19.8507 2.11953 19.3693C2.6146 18.5623 3.24395 17.9423 3.27051 17.9163L3.30457 17.883L3.35144 17.8744C3.44936 17.8563 3.54196 17.8855 3.6123 17.9564C3.7517 18.0972 3.88648 18.4584 3.68949 20.0154C3.59647 20.7508 3.46283 21.4785 3.39983 21.8061L3.46585 21.8856L3.31646 21.9807C2.99865 22.1833 2.71021 22.2851 2.45584 22.2852ZM2.12853 21.8461C2.15077 21.8744 2.40486 22.1668 3.09225 21.7525C3.15503 21.4265 3.2901 20.6919 3.38255 19.9542C3.44404 19.4635 3.4755 19.0603 3.47593 18.7557C3.47644 18.4221 3.43965 18.2768 3.41394 18.2161C3.01161 18.6364 1.16668 20.6785 2.12032 21.8353L2.12853 21.8461Z" fill="#122A44"/>
<path d="M9.4209 32.7575C9.4209 32.7575 9.78133 34.0481 10.6731 34.4539C10.6731 34.4539 12.1204 34.763 11.2259 32.1758L9.4209 32.7575Z" fill="#122A44"/>
<path d="M4.33903 13.6161C4.33903 13.6161 2.49698 14.3837 2.70154 15.7653C2.70154 15.7653 2.34355 15.7141 2.49698 15.1002C2.49698 15.1002 2.5993 14.2303 4.23672 13.4116L4.64611 13.207L4.39015 13.6161H4.33903ZM3.05973 18.8351C3.05973 18.8351 1.2691 20.7794 2.29243 21.8027C2.29243 21.8027 2.24131 19.8584 3.36689 19.1422L3.05973 18.8351ZM4.03188 24.7191C4.03188 24.7191 3.31569 25.9983 3.98076 27.2264C3.98076 27.2264 4.28784 27.1239 4.33896 27.0216C4.33896 27.0216 4.28784 27.2776 3.87902 27.431C3.87902 27.431 2.80456 26.3565 3.8279 24.6171L4.03188 24.7191ZM6.2322 29.1708C6.2322 29.1708 6.28332 30.2964 6.79495 30.6546C6.79495 30.6546 6.84607 30.6546 6.94839 30.6035C6.94839 30.6035 6.89726 30.7569 6.69271 30.808C6.69271 30.808 5.92512 30.2453 6.07855 29.1708H6.2322Z" fill="#5DC5F9"/>
<path d="M31.0996 23.3883C31.0996 23.3883 33.6067 18.7321 30.7416 14.7924L29.9229 13.2575C29.9229 13.2575 29.8207 13.0015 29.5647 13.0526C29.5647 13.0526 28.8485 11.8248 27.9786 11.62C27.9786 11.62 27.3133 10.5967 26.0847 10.5455C26.0847 10.5455 25.7776 9.1115 24.1404 9.36882C24.1404 9.36882 23.7821 7.93617 22.2983 8.55011C22.2983 8.55011 22.0427 7.78252 21.1216 8.03848C21.1216 8.03848 21.0705 6.65694 17.5399 7.7314C17.5399 7.7314 6.94845 6.24762 4.85022 12.6433C4.85022 12.6433 4.75468 12.8825 5.02526 12.9447C5.03419 12.9465 5.04001 12.9551 5.03821 12.9641C5.03764 12.967 5.03634 12.9696 5.03447 12.9718C4.68124 13.3802 4.47265 13.8938 4.44083 14.4329C4.44083 14.4329 2.64998 15.661 3.52089 17.6564C3.52089 17.6564 2.90695 19.0904 3.62313 20.0612C3.62313 20.0612 2.59986 21.3916 3.72565 22.6705C3.72565 22.6705 3.00919 24.1543 4.54415 24.9731C4.54415 24.9731 3.93021 26.508 5.31175 27.0197C5.31175 27.0197 5.26063 28.8617 6.94896 29.3737C6.94896 29.3737 7.00007 30.3969 8.07475 30.5506C8.07475 30.5506 7.56311 31.9847 9.40487 32.4949C9.40487 32.4949 10.2748 34.2344 11.554 33.3646C11.554 33.3646 12.3725 34.4904 14.2656 34.2345C14.2656 34.2345 15.4426 35.2577 17.3357 34.7461C17.3357 34.7461 18.6147 35.3602 20.2522 34.4393C20.2522 34.4393 21.2243 34.8992 22.0942 34.1322C22.0942 34.1322 23.578 34.1833 24.0897 33.6206C24.0897 33.6206 24.9596 33.9277 25.6758 33.4157C25.6758 33.4157 27.313 33.0578 27.7735 33.7739C27.7735 33.7739 28.3877 34.9509 27.2108 36.2299C27.2108 36.2299 30.0761 36.844 30.2809 33.2623C30.2809 33.2623 30.4343 31.318 28.1318 30.8064L31.0996 23.3883Z" fill="url(#paint2_linear_1_15956)"/>
<path d="M27.6826 36.4061C27.396 36.4061 27.2011 36.366 27.182 36.3619L26.951 36.3124L27.111 36.1386C27.571 35.6387 27.8023 35.1002 27.7982 34.5379C27.7955 34.1481 27.6744 33.8801 27.6557 33.841C27.4487 33.5283 26.9441 33.4617 26.5559 33.4612C26.5544 33.4612 26.5528 33.4612 26.5513 33.4612C26.1707 33.4612 25.825 33.5237 25.7299 33.5424C25.3824 33.7818 25.0078 33.8479 24.7001 33.8479C24.4459 33.8479 24.2374 33.8028 24.1275 33.773C23.5952 34.2581 22.4124 34.2718 22.1426 34.2682C21.671 34.6636 21.1759 34.7263 20.8393 34.7081C20.5714 34.6936 20.3618 34.6271 20.2604 34.5888C19.4089 35.0518 18.6557 35.1082 18.1697 35.0727C17.737 35.041 17.4364 34.9342 17.3247 34.8885C16.3341 35.145 15.5395 34.9879 15.0445 34.809C14.6147 34.6536 14.3332 34.4581 14.2256 34.3756C13.2411 34.4957 12.5457 34.2462 12.133 34.0129C11.8276 33.8402 11.6288 33.6523 11.5267 33.5414C11.1984 33.7349 10.8663 33.7897 10.5376 33.704C9.86354 33.5283 9.42563 32.8135 9.3123 32.6089C8.68915 32.4255 8.26118 32.1166 8.03964 31.6899C7.82666 31.2796 7.86396 30.8705 7.90737 30.6567C7.3938 30.5383 7.12581 30.223 6.98937 29.9681C6.88425 29.7716 6.84163 29.584 6.82464 29.4755C6.13632 29.2414 5.63455 28.7509 5.37052 28.0524C5.21716 27.6467 5.18426 27.2797 5.17771 27.1118C4.80821 26.9554 4.54771 26.711 4.40277 26.3846C4.17014 25.8606 4.30499 25.2771 4.37951 25.0358C3.61451 24.5859 3.43603 23.967 3.42393 23.5185C3.41392 23.1474 3.51329 22.8371 3.56851 22.6949C3.00475 22.0119 3.01151 21.321 3.12031 20.8556C3.20793 20.4807 3.37159 20.1948 3.45842 20.0614C3.18612 19.6448 3.08618 19.0995 3.16912 18.477C3.22082 18.0889 3.32803 17.7795 3.37433 17.6582C2.93282 16.5988 3.21787 15.7527 3.53841 15.2262C3.82238 14.76 4.1764 14.4634 4.31011 14.3611C4.35143 13.8707 4.5346 13.3968 4.83261 13.0057C4.78386 12.9703 4.75399 12.9296 4.73577 12.8948C4.66809 12.7656 4.71086 12.6298 4.72238 12.5985C5.21184 11.1089 6.19644 9.91896 7.64904 9.06152C8.8037 8.37996 10.2546 7.90692 11.9617 7.65557C12.797 7.5326 14.151 7.39961 15.8567 7.46477C16.7565 7.49912 17.3868 7.57565 17.5281 7.59394C18.4207 7.32416 19.1721 7.1875 19.7621 7.1875C19.7732 7.1875 19.7843 7.18757 19.7953 7.18764C20.2726 7.19182 20.6449 7.28686 20.9019 7.46996C21.0921 7.60553 21.1801 7.76271 21.221 7.87668C21.6773 7.78978 21.9728 7.94429 22.1447 8.0978C22.2516 8.1932 22.3228 8.29882 22.3669 8.37903C22.814 8.21933 23.2084 8.22315 23.541 8.39069C23.9618 8.60273 24.1591 9.01738 24.2336 9.22006C25.0703 9.12365 25.561 9.46292 25.8281 9.77273C26.0393 10.0176 26.1435 10.2782 26.1881 10.4171C26.6849 10.4587 27.1633 10.6583 27.5774 10.9977C27.8336 11.2077 27.9959 11.4135 28.0601 11.5019C28.8348 11.7174 29.4643 12.6394 29.6356 12.911C29.8608 12.9134 29.9975 13.0893 30.0446 13.1999L30.8559 14.7208C31.5186 15.6345 31.9502 16.6621 32.1388 17.7752C32.2898 18.6662 32.2861 19.613 32.1277 20.5895C31.8664 22.2012 31.2793 23.3367 31.2217 23.4455L28.3145 30.7118C28.7933 30.837 29.1996 31.0351 29.5241 31.3017C29.814 31.5398 30.0387 31.8321 30.1922 32.1704C30.4483 32.735 30.4179 33.2331 30.4151 33.2712C30.3449 34.494 29.9633 35.3779 29.2807 35.8981C28.7291 36.3186 28.1059 36.4061 27.6826 36.4061ZM27.476 36.127C27.8341 36.1523 28.5329 36.1302 29.1194 35.6819C29.7352 35.2111 30.0805 34.3945 30.1457 33.2547L30.1459 33.2519C30.1462 33.2475 30.1776 32.7844 29.9414 32.2711C29.8042 31.973 29.6041 31.7154 29.3466 31.5053C29.0219 31.2403 28.6031 31.0496 28.102 30.9382L27.947 30.9038L28.006 30.7563L30.9767 23.3313L30.9803 23.3246C30.9865 23.3131 31.602 22.1549 31.8627 20.5377C32.0152 19.5918 32.0183 18.6758 31.8718 17.8152C31.6892 16.7425 31.2721 15.7523 30.6319 14.872L30.6265 14.8644L30.622 14.8561L29.7991 13.3135L29.797 13.3078C29.7867 13.2836 29.7263 13.1582 29.5905 13.1852L29.4961 13.2041L29.4475 13.1209C29.4407 13.1091 28.7498 11.9406 27.9471 11.7516L27.8944 11.7392L27.8649 11.6938C27.8634 11.6916 27.7017 11.447 27.3992 11.2009C26.9995 10.8756 26.5552 10.7005 26.0784 10.6807L25.974 10.6763L25.9521 10.5741C25.9514 10.5711 25.8759 10.2373 25.6168 9.94121C25.276 9.55184 24.7861 9.40416 24.1607 9.50252L24.0387 9.52167L24.0088 9.40193C24.0075 9.39675 23.8649 8.85509 23.4175 8.63096C23.129 8.48638 22.7695 8.50121 22.3493 8.67516L22.2154 8.73053L22.1696 8.59308C22.1693 8.59208 22.1107 8.42568 21.9569 8.29234C21.7565 8.1186 21.4874 8.07699 21.1571 8.16879L20.9873 8.21602L20.9861 8.04466C20.9846 8.02688 20.9634 7.8404 20.735 7.68279C20.521 7.53519 20.1989 7.45944 19.7775 7.45757C19.2061 7.4552 18.4661 7.5907 17.5785 7.86077L17.55 7.86941L17.5204 7.86531C17.4941 7.86164 14.8534 7.50171 11.9952 7.92356C10.3241 8.17016 8.90709 8.63182 7.78361 9.29559C6.38961 10.1191 5.44555 11.2597 4.97777 12.6856L4.9751 12.6931C4.96955 12.7094 4.96271 12.7476 4.97503 12.7704C4.98827 12.7946 5.02967 12.8076 5.05386 12.8133C5.13407 12.8309 5.18599 12.9098 5.16993 12.9908C5.16475 13.0168 5.15272 13.0412 5.13522 13.0611C4.80402 13.4442 4.6048 13.9345 4.57492 14.4411L4.57104 14.507L4.51654 14.5444C4.51236 14.5473 4.08288 14.8469 3.76392 15.375C3.34315 16.0715 3.30283 16.821 3.64397 17.6027L3.66729 17.6562L3.64433 17.7098C3.63857 17.7233 3.07012 19.0854 3.73115 19.9814L3.79149 20.0632L3.7295 20.1438C3.7272 20.1468 3.48621 20.466 3.3808 20.9267C3.24242 21.5318 3.39225 22.0885 3.82634 22.5817L3.88552 22.6489L3.84657 22.7296C3.84499 22.7328 3.67953 23.0844 3.69386 23.5211C3.71265 24.0926 4.01988 24.5412 4.60704 24.8544L4.71374 24.9112L4.66881 25.0235C4.66615 25.0302 4.39975 25.7153 4.64987 26.2767C4.77537 26.5584 5.01362 26.7659 5.35792 26.8934L5.44864 26.927L5.44598 27.0237C5.44591 27.028 5.43705 27.4713 5.62605 27.9658C5.87445 28.6159 6.33245 29.0462 6.98743 29.2448L7.07829 29.2723L7.08305 29.3672C7.08513 29.404 7.14525 30.2817 8.0932 30.4173L8.25671 30.4407L8.2012 30.5963C8.19962 30.6008 8.03193 31.0937 8.28055 31.569C8.47329 31.9375 8.86346 32.2054 9.44026 32.3652L9.49807 32.3812L9.52492 32.4349C9.5291 32.4432 9.95296 33.2737 10.6063 33.4434C10.8903 33.5172 11.1834 33.4532 11.4775 33.2533L11.5856 33.1798L11.6625 33.2856C11.6643 33.2879 11.8628 33.5536 12.2783 33.7854C12.6612 33.9991 13.3136 34.2272 14.247 34.1011L14.3075 34.0929L14.3536 34.133C14.3563 34.1353 14.6429 34.3795 15.1478 34.5598C15.6117 34.7255 16.3617 34.8698 17.3 34.6162L17.3484 34.6031L17.3936 34.6248C17.3964 34.6261 17.7057 34.7706 18.2024 34.8048C18.6596 34.8362 19.3746 34.778 20.1855 34.322L20.2462 34.2878L20.3093 34.3176C20.3112 34.3185 20.5404 34.4239 20.8641 34.4395C21.2904 34.4598 21.6739 34.3226 22.0043 34.0313L22.0446 33.9958L22.0982 33.9977C22.1018 33.9979 22.4662 34.0094 22.8855 33.9535C23.4206 33.8822 23.8022 33.7358 23.9892 33.5301L24.0495 33.4638L24.1339 33.4936C24.1418 33.4964 24.9483 33.7697 25.5966 33.3063L25.6192 33.2902L25.6462 33.2843C25.7168 33.2689 27.3808 32.9153 27.8863 33.7014L27.8924 33.7119C27.8993 33.7251 28.0609 34.0401 28.0677 34.5208C28.0736 34.9182 27.9702 35.5045 27.476 36.127Z" fill="#122A44"/>
<path d="M18.5637 33.5205C25.1761 33.5205 30.5366 28.2517 30.5366 21.7524C30.5366 15.2531 25.1761 9.98438 18.5637 9.98438C11.9513 9.98438 6.59082 15.2531 6.59082 21.7524C6.59082 28.2517 11.9513 33.5205 18.5637 33.5205Z" fill="url(#paint3_linear_1_15956)"/>
<path d="M20.9214 14.5625L21.7358 15.5095C21.7358 15.5095 22.3498 13.3607 20.9171 21.8029L20.0984 24.2077L9.89095 23.2607C9.89095 23.2607 8.50942 23.0047 8.68777 21.4506L20.9214 14.5625Z" fill="url(#paint4_linear_1_15956)"/>
<path d="M20.0981 24.3029C20.0952 24.3029 20.0923 24.3027 20.0893 24.3024L9.88188 23.3555C9.879 23.3552 9.87619 23.3548 9.87339 23.3543C9.85834 23.3515 9.50085 23.2829 9.1631 23.013C8.84968 22.7625 8.49646 22.2863 8.59351 21.4406C8.59697 21.4105 8.6146 21.3839 8.64103 21.369L20.8748 14.4809C20.914 14.4588 20.9633 14.4675 20.9927 14.5017L21.6987 15.3225C21.7275 15.2478 21.7743 15.153 21.8657 15.1738C21.9672 15.1968 21.9676 15.3197 21.9564 15.5195C21.9451 15.7207 21.9107 16.0415 21.854 16.473C21.7112 17.5613 21.4272 19.3601 21.0098 21.8194C21.009 21.8244 21.0077 21.8293 21.0061 21.8341L20.1874 24.2389C20.1743 24.2774 20.1381 24.3029 20.0981 24.3029ZM9.90427 23.1678L20.0326 24.1074L20.8249 21.7802C21.2147 19.4828 21.4884 17.7603 21.6383 16.6605C21.7118 16.1214 21.7465 15.7965 21.7616 15.6009C21.7597 15.6015 21.7577 15.602 21.7557 15.6024C21.7217 15.6098 21.6865 15.5981 21.6638 15.5717L20.8999 14.6835L8.7761 21.5096C8.72037 22.0937 8.88813 22.5481 9.2752 22.8607C9.55903 23.0899 9.86741 23.1601 9.90427 23.1678Z" fill="#122A44"/>
<path d="M9.40409 15.969L9.91572 12.7969L20.9676 14.2295L20.5071 17.5042L19.6886 22.8255L8.63672 21.4439L9.40409 15.969Z" fill="#C91111"/>
<path d="M19.8023 22.9759L8.48438 21.5611L9.27112 15.9478L9.80363 12.6465L21.1205 14.1135L20.6408 17.525L19.8023 22.9759ZM8.78973 21.3273L19.5755 22.6756L20.374 17.4848L20.8153 14.3461L10.0285 12.9478L9.53788 15.9894L8.78973 21.3273Z" fill="#122A44"/>
<path d="M9.30187 18.4785L9.14844 19.4507L12.5254 19.8598L17.6418 20.9856V20.4229L20.1333 20.9123L20.2515 19.8598L9.30187 18.4785Z" fill="#750606"/>
<path d="M19.1206 14.7413L11.6562 13.668C11.2804 14.7413 10.2236 14.8447 10.2236 14.8447L9.40723 19.8945C10.588 20.2165 10.6343 21.394 10.6343 21.394L18.156 22.4173C18.5319 21.2362 19.5359 21.4451 19.5359 21.4451L20.3035 16.2261C18.9077 15.743 19.1206 14.7413 19.1206 14.7413ZM19.3814 21.2404C19.3814 21.2404 18.3581 21.087 17.9999 22.2126L10.8374 21.2404C10.8374 21.2404 10.787 20.1138 9.66067 19.8078L10.3271 15.9703L10.4808 15.0504C10.4808 15.0504 11.5041 14.8969 11.8621 13.8737L18.9239 14.8969C18.9239 14.8969 18.7172 15.92 20.0473 16.3799L19.3814 21.2404Z" fill="#3D0000"/>
<path d="M17.2849 17.1992L20.6618 17.762L22.4014 20.2691L20.8664 21.139L20.4059 20.1157L17.0801 19.5018L17.2849 17.1992Z" fill="url(#paint5_linear_1_15956)"/>
<path d="M20.8039 21.3302L20.3117 20.2364L16.9346 19.613L17.1632 17.043L20.74 17.6391L22.5962 20.3144L20.8039 21.3302ZM17.2252 19.3922L20.4997 19.9966L20.9285 20.9494L22.206 20.2254L20.5832 17.8866L17.4062 17.3571L17.2252 19.3922Z" fill="#4F1A00"/>
<path d="M8.86773 16.1484L12.5515 16.6084L12.1941 18.9114L8.76607 18.502L8.66354 19.0137C8.66339 19.0137 8.61177 16.6601 8.86773 16.1484Z" fill="url(#paint6_linear_1_15956)"/>
<path d="M8.66349 19.109C8.66075 19.109 8.65795 19.1088 8.65514 19.1086C8.60719 19.1043 8.57003 19.0647 8.56902 19.0166C8.56686 18.9195 8.51985 16.6335 8.78322 16.1069C8.80115 16.0711 8.8396 16.0504 8.87942 16.0554L12.5632 16.5154C12.5886 16.5185 12.6115 16.5319 12.6269 16.5522C12.6424 16.5726 12.6488 16.5984 12.6449 16.6236L12.2875 18.9267C12.2797 18.9769 12.2335 19.0119 12.1829 19.006L8.84148 18.607L8.75608 19.0331C8.74715 19.0776 8.70813 19.109 8.66349 19.109ZM8.76587 18.4084C8.76962 18.4084 8.77336 18.4086 8.77718 18.409L12.1147 18.8076L12.4433 16.6908L8.92694 16.2518C8.79324 16.626 8.7573 17.6598 8.75363 18.4092C8.75766 18.4087 8.76177 18.4084 8.76587 18.4084Z" fill="#4F1A00"/>
<path d="M12.2698 15.459L11.707 19.8081L17.1306 20.5757L17.7448 16.1754L12.2698 15.459Z" fill="#F7AE2D"/>
<path d="M17.2451 20.7292L11.5557 19.9239L12.1529 15.3086L17.8968 16.0603L17.2451 20.7292ZM11.8576 19.6941L17.0152 20.424L17.5919 16.2925L12.386 15.6113L11.8576 19.6941Z" fill="#4F1A00"/>
<path opacity="0.63" d="M17.3869 16.9425L17.2335 17.9661L15.4426 19.9103L15.2378 19.1682L17.3869 16.9425ZM14.7261 16.0215L12.0849 18.8229L11.9932 19.5905L12.1168 19.6033L15.5449 16.124L14.7261 16.0215ZM15.8009 16.1751L12.2702 19.6544L12.6796 19.3987L15.9543 16.1752L15.8009 16.1751Z" fill="white"/>
<path d="M14.47 18.0164L13.9072 19.142L15.206 19.2681L14.9806 18.0675C14.9806 18.0675 15.39 18.0164 15.4405 17.5559C15.4405 17.5559 15.5428 16.8906 14.8778 16.7883C14.8778 16.7883 14.315 16.7372 14.1613 17.2999C14.1629 17.2992 14.0606 17.8116 14.47 18.0164Z" fill="#4F1A00"/>
<path d="M14.9805 16.6875C14.9805 16.6875 15.6455 16.7898 15.6455 17.4548C15.6455 17.4548 15.6967 18.0178 15.2361 18.2224L15.3398 19.6545H15.5443L15.3398 18.3241C15.3398 18.3241 15.9114 18.0163 15.7093 17.2781C15.6688 17.1259 15.5821 16.99 15.4612 16.889C15.3243 16.7761 15.1571 16.706 14.9805 16.6875Z" fill="#4F1A00"/>
<path d="M14.8799 16.7383C14.8799 16.7383 15.4951 16.8403 15.4951 17.5059C15.4951 17.5059 15.4951 17.915 15.0352 18.1198L15.2397 19.7059H15.4446L15.1886 18.171C15.1886 18.171 15.5222 18.0403 15.5823 17.6063C15.6424 17.1906 15.3542 16.8048 14.9385 16.7447C14.9321 16.7438 14.9256 16.7429 14.9191 16.7422L14.8799 16.7383Z" fill="white"/>
<path d="M19.1771 21.6507C19.1771 21.6507 18.5687 21.5811 18.1819 22.6393L19.3817 22.5205L19.1771 21.6507ZM19.4328 14.2828C19.4328 14.2828 19.0234 15.6132 20.4561 16.0736L20.712 14.4362L19.4328 14.2828ZM10.1207 13.0547L9.86473 14.5899C9.86473 14.5899 11.1439 14.5385 11.2974 13.2083L10.1207 13.0547ZM9.04623 20.0646L8.89258 21.2413L10.3764 21.4461C10.3764 21.4461 10.1718 20.3203 9.04623 20.0646Z" fill="#3D0000"/>
<path d="M18.052 8.2952C18.052 8.2952 19.1265 7.42558 20.7639 8.2952L20.663 8.50004C20.663 8.50004 21.6862 8.3466 22.4024 9.83045C22.4024 9.83045 22.7095 7.78363 23.8862 9.83045C23.8862 9.83045 25.4214 9.62561 25.6259 10.7001C25.6259 10.7001 25.37 11.212 25.677 11.57C25.677 11.57 25.4725 10.8027 25.9841 10.8538C25.9841 10.8538 26.8537 10.9049 27.4679 11.7237L27.6724 11.8771C27.6724 11.8771 28.3377 11.9794 29.2073 13.2075C29.4838 13.5687 29.7333 13.9497 29.9538 14.3474C30.0783 14.575 30.2144 14.7961 30.3616 15.0098C30.8616 15.736 31.9609 17.5885 31.561 19.3473C31.561 19.3473 31.4076 22.1103 30.7937 22.8779C30.7937 22.8779 31.7137 21.2916 31.8682 19.3473C31.8682 19.3473 32.0727 16.8402 30.4866 14.8447L29.6167 13.2075L29.3099 13.0539C29.3099 13.0539 28.6446 11.9794 27.6706 11.7238V11.6212C27.6706 11.6212 27.1078 10.7516 25.8797 10.7013L25.8285 10.4967C25.8285 10.4967 25.4705 9.26864 23.9346 9.62684C23.9346 9.62684 23.7811 8.19418 22.2974 8.80834C22.2974 8.80834 21.3774 8.29642 20.8136 8.39895C20.8136 8.39895 21.4275 7.32427 19.0738 7.63135C19.0738 7.63135 18.1304 7.79372 17.8604 7.91684L18.052 8.2952Z" fill="#5DC5F9"/>
<path d="M6.12988 10.8177C6.12988 10.8177 9.81261 6.50487 14.2139 8.14265C17.5533 9.38508 17.3352 10.4966 17.3352 10.4966C17.3352 10.4966 15.0694 10.8516 14.0178 12.2875C14.0178 12.2875 11.9666 10.0474 9.33698 11.9427C9.3369 11.9433 9.28607 8.94646 6.12988 10.8177Z" fill="url(#paint7_linear_1_15956)"/>
<path d="M21.2751 33.8789C21.2751 33.8789 20.9382 34.3118 20.0067 33.7623C20.0067 33.7623 19.1774 34.4419 17.2842 34.0328C17.2842 34.0328 16.005 34.8513 14.4703 33.5729C14.4703 33.5729 12.3723 34.0328 11.8607 32.3448C11.8607 32.3448 10.5817 33.5729 9.9667 31.8332C9.9667 31.8332 8.68748 31.9868 8.53268 30.3494C8.53268 30.3494 8.83947 29.8377 8.53268 29.5821C8.53268 29.5821 7.50913 30.6565 7.50913 28.8656C7.50913 28.8656 4.84865 28.0469 6.58918 26.7679C6.58918 26.7679 4.08186 26.7679 5.25877 24.7725C5.25877 24.7725 3.51903 24.0049 4.44005 22.4699C4.44005 22.4699 3.36567 21.9583 3.92842 20.2185L4.28662 20.0651C4.28662 20.0651 3.31447 18.9395 4.1329 17.8649L4.18431 17.6603C4.18431 17.6603 3.3656 15.4089 4.69594 15.2044L5.20757 15.1533C5.20757 15.1533 4.74764 13.9252 5.66751 13.1065C5.66751 13.1065 5.25812 11.1111 9.09557 9.06445H8.38098C8.38098 9.06445 5.7205 10.2414 5.05515 12.8508L5.25999 13.1065C5.25999 13.1065 4.82705 13.3667 4.67772 14.3657C4.65231 14.5353 4.56951 14.6971 4.42774 14.7945C3.98077 15.1013 3.06111 16.11 3.77621 17.6595C3.77621 17.6595 3.16205 18.9899 3.87845 20.0643C3.87845 20.0643 2.80407 21.4459 4.03189 22.6226C4.03189 22.6226 3.11194 24.0041 4.8506 24.8739C4.8506 24.8739 4.083 26.4088 5.56678 26.8693C5.56678 26.8693 5.36223 28.7633 7.15308 29.1719C7.15308 29.1719 7.10196 30.1952 8.22754 30.3486L8.32985 30.6045C8.32985 30.6045 7.7671 31.8324 9.55796 32.2929C9.55796 32.2929 10.3765 34.0837 11.6046 33.0605C11.6046 33.0605 12.3207 34.2883 14.265 33.9804L14.521 34.1338C14.521 34.1338 15.6977 35.0037 17.3349 34.492C17.3349 34.492 18.6138 35.106 20.2513 34.185C20.2513 34.185 21.1212 34.6449 21.8885 33.9804L21.2751 33.8789Z" fill="#5DC5F9"/>
<path d="M14.5721 26.6125C14.5721 26.6125 11.7068 25.8452 12.065 23.3387C12.065 23.3387 11.1951 22.1617 11.5533 20.9847C11.5533 20.9847 11.7579 20.166 12.0133 20.2171C12.0133 20.2171 12.7806 19.1938 13.4971 19.2972C13.4971 19.2972 13.4459 19.8088 13.6505 19.9113C13.6505 19.9113 14.5204 18.6321 15.3391 18.7343C15.3391 18.7343 14.9809 19.7065 15.3391 20.167C15.3391 20.167 16.0042 19.0414 16.7206 19.0414C16.7206 19.0414 16.6181 19.7065 16.7718 20.0136C16.7718 20.0136 17.5902 19.7576 17.5902 22.3675C17.5902 22.3675 18.2044 22.5721 18.5101 23.1348L18.4079 26.0001L14.5721 26.6125Z" fill="#1797E5"/>
<path d="M14.5661 26.7369L14.5411 26.7302C14.5109 26.7221 13.7942 26.5264 13.1116 26.0129C12.707 25.7085 12.3995 25.3554 12.198 24.9635C11.9517 24.4846 11.8645 23.9486 11.9386 23.3699C11.8718 23.272 11.7031 23.0081 11.5622 22.6477C11.3266 22.0456 11.2832 21.4595 11.4367 20.9526C11.4439 20.9247 11.4949 20.7286 11.576 20.5352C11.6208 20.428 11.7471 20.1266 11.9546 20.096C12.1246 19.8842 12.8227 19.0775 13.5149 19.1773L13.6299 19.194L13.6183 19.3097C13.6047 19.4485 13.6149 19.6106 13.647 19.7113C13.7425 19.5865 13.9029 19.3904 14.104 19.1973C14.5562 18.7633 14.9769 18.5671 15.3545 18.6143L15.5063 18.6332L15.4534 18.7768C15.4525 18.7791 15.3666 19.015 15.3246 19.3004C15.2965 19.4908 15.2837 19.7342 15.3496 19.929C15.579 19.5977 16.1213 18.9204 16.7209 18.9204H16.8626L16.841 19.0604C16.8169 19.2177 16.7778 19.6409 16.8521 19.8862C16.9242 19.8896 17.0226 19.9125 17.1281 19.9901C17.5072 20.2687 17.7035 21.0406 17.7118 22.2848C17.8995 22.3646 18.3577 22.5996 18.6172 23.0773L18.6331 23.1064L18.526 26.1047L14.5661 26.7369ZM11.9899 20.3365C11.971 20.3393 11.8906 20.4036 11.789 20.6556C11.7171 20.834 11.672 21.0127 11.6716 21.0145L11.6699 21.0204C11.3334 22.1262 12.1547 23.2555 12.1631 23.2668L12.1927 23.3068L12.1856 23.3561C12.1077 23.901 12.1839 24.4032 12.4122 24.8488C12.5959 25.2075 12.8784 25.5323 13.2519 25.8144C13.8297 26.2508 14.4517 26.4503 14.58 26.4886L18.2905 25.8963L18.388 23.1648C18.1047 22.674 17.5577 22.4849 17.5521 22.483L17.4694 22.4551L17.4692 22.3678C17.4692 20.8001 17.1717 20.3325 16.9944 20.1933C16.8971 20.117 16.82 20.1277 16.8069 20.1303L16.7057 20.1688L16.6635 20.0682C16.5406 19.8226 16.5592 19.4082 16.5817 19.1798C16.0937 19.2935 15.6039 19.9584 15.444 20.229L15.3532 20.3827L15.2437 20.2418C14.9387 19.8499 15.0843 19.1655 15.1739 18.854C14.8451 18.8876 14.511 19.1437 14.2752 19.3696C13.9675 19.6643 13.7534 19.9768 13.7513 19.9799L13.6915 20.0677L13.5964 20.0202C13.393 19.9182 13.3664 19.6003 13.3696 19.412C13.0776 19.4232 12.7772 19.6285 12.5663 19.8106C12.2979 20.0422 12.1127 20.2878 12.1109 20.2902L12.0649 20.3515L11.9899 20.3365Z" fill="#122A44"/>
<path d="M16.0652 20.5021C16.0652 20.5021 17.7969 24.4129 15.5449 25.6407L17.9497 25.2817L18.052 22.8769C18.052 22.8769 17.7409 22.6039 17.3591 22.5357C17.3591 22.5357 17.4893 20.9326 16.9776 20.3184L16.0652 20.5021Z" fill="url(#paint8_linear_1_15956)"/>
<path d="M12.1166 20.4228C12.1166 20.4228 11.4001 21.8041 12.4748 23.2882C12.4748 23.2882 12.1166 25.4881 14.7259 26.2046L14.0609 26.2566C14.0609 26.2566 11.8606 25.2826 12.27 23.2882C12.27 23.2882 11.0933 22.0089 12.0654 20.3203L12.1166 20.4228ZM24.5048 33.2069L25.7268 32.9071C25.7268 32.9071 26.9549 32.6003 27.927 33.0608C27.927 33.0608 29.1548 33.8281 28.0804 36.0284H27.6705C27.6705 36.0284 28.2333 35.4145 28.1822 34.4423C28.1822 34.4423 28.1822 33.9824 27.9776 33.6236C27.9776 33.6236 27.6194 32.9071 25.9822 33.112L25.5728 33.2142C25.1888 33.4941 24.6928 33.5703 24.2425 33.4188L24.5048 33.2069Z" fill="#5DC5F9"/>
<path d="M21.5819 20.3196C21.5819 20.3196 19.791 20.2173 19.4327 22.4176L18.3583 22.6222C18.3583 22.6222 17.7955 23.3386 18.256 24.1571C18.256 24.1571 18.0512 24.8224 18.3072 25.2317C18.3072 25.2317 14.1115 24.9247 13.1905 28.0456C13.1905 28.0456 12.6277 33.5206 21.0188 33.8274C21.0188 33.8274 26.0333 34.0833 29.7684 29.4271L30.5869 29.1714L31.7127 31.3714C31.7127 31.3714 32.1218 28.2504 34.4244 27.2783C34.4244 27.2783 31.8661 24.7712 33.1454 21.6505L30.5868 23.1854C30.5868 23.1854 30.0749 21.5479 29.6144 21.5479C29.6144 21.5479 29.5633 21.1897 29.2561 21.0879C29.2561 21.0879 28.9493 20.474 29.3075 19.4507C29.3075 19.4507 28.284 18.9391 26.9027 20.5252C26.9027 20.5252 26.3911 20.3203 26.2375 20.8834L25.6235 20.6785C25.6235 20.6785 25.419 19.9623 24.907 20.0135C24.907 20.0135 24.7025 19.8086 25.2652 18.0692C25.2652 18.0692 23.7815 17.8643 22.8093 19.4507C22.8093 19.4507 22.2466 19.2459 22.0931 19.8087C22.0932 19.808 21.735 19.8591 21.5819 20.3196Z" fill="#1797E5"/>
<path d="M21.1709 33.9654C21.0798 33.9654 21.0258 33.963 21.0134 33.9624C19.321 33.9004 17.8638 33.6221 16.6823 33.1352C15.6925 32.7273 14.8852 32.1694 14.2829 31.4771C13.5532 30.6381 13.2585 29.7488 13.1398 29.1507C13.0107 28.5002 13.0547 28.0509 13.0566 28.0321C13.0574 28.0238 13.059 28.0157 13.0614 28.0077C13.2795 27.2683 13.6948 26.6546 14.2955 26.1833C14.7725 25.8092 15.366 25.5249 16.0595 25.3382C16.9279 25.1044 17.7245 25.0829 18.0971 25.089C17.9886 24.7323 18.074 24.3219 18.1119 24.1737C17.9284 23.8196 17.8914 23.4305 18.0054 23.0446C18.0948 22.7419 18.2462 22.5471 18.2525 22.539C18.2727 22.5133 18.3013 22.4958 18.3334 22.4898L19.3161 22.3027C19.4059 21.8203 19.5721 21.4102 19.8108 21.0823C20.0167 20.7997 20.2757 20.5779 20.5809 20.4233C20.9641 20.2292 21.3207 20.1913 21.4891 20.1851C21.5822 19.9689 21.7175 19.8459 21.8205 19.779C21.873 19.7449 21.9332 19.7162 21.9874 19.6975C22.0468 19.5358 22.1449 19.4188 22.2797 19.349C22.4492 19.2612 22.6343 19.2744 22.7478 19.296C23.2639 18.5016 23.9075 18.1722 24.3635 18.036C24.8782 17.8823 25.2677 17.9335 25.284 17.9357C25.3235 17.9412 25.3586 17.9639 25.3799 17.9977C25.4011 18.0316 25.4062 18.073 25.394 18.111C25.0134 19.2873 24.9947 19.731 25.0084 19.878C25.2241 19.8946 25.4164 20.0221 25.5698 20.2522C25.6508 20.3738 25.7029 20.4976 25.7302 20.5721L26.155 20.7138C26.2171 20.5744 26.3092 20.4738 26.4298 20.4138C26.5887 20.3347 26.7564 20.3503 26.858 20.3725C27.4338 19.7298 28.02 19.3557 28.6015 19.2603C29.0679 19.1838 29.3561 19.3243 29.3682 19.3303C29.4289 19.3607 29.4577 19.4315 29.4352 19.4956C29.2612 19.9925 29.2549 20.3829 29.2802 20.623C29.2988 20.799 29.3365 20.9221 29.3592 20.9836C29.5888 21.0874 29.6863 21.3042 29.7251 21.4312C29.9427 21.5024 30.1589 21.787 30.3965 22.3112C30.5134 22.5691 30.607 22.8243 30.662 22.9833L33.0762 21.5349C33.126 21.505 33.1894 21.5104 33.2336 21.5482C33.2777 21.5861 33.2925 21.648 33.2705 21.7018C32.987 22.3935 32.8759 23.111 32.9402 23.8346C32.9919 24.415 33.1558 25.0013 33.4275 25.5773C33.8914 26.5609 34.5129 27.1761 34.5191 27.1821C34.5513 27.2137 34.5656 27.2594 34.5572 27.3037C34.5488 27.3481 34.5187 27.3853 34.4771 27.4029C33.9717 27.6163 33.5194 27.9569 33.1328 28.4152C32.8208 28.785 32.5505 29.2318 32.3292 29.7433C31.951 30.6177 31.8479 31.3816 31.8468 31.3893C31.8391 31.4479 31.7943 31.4946 31.736 31.5047C31.6778 31.5147 31.6197 31.4858 31.5929 31.4332L30.5189 29.3345L29.8481 29.544C28.9927 30.6035 28.0003 31.4948 26.8981 32.1933C26.0071 32.7579 25.0428 33.1986 24.0321 33.5028C22.6421 33.9212 21.5633 33.9654 21.1709 33.9654ZM13.3242 28.071C13.3186 28.1434 13.2947 28.5515 13.4071 29.1102C13.5205 29.6744 13.8007 30.513 14.4906 31.3043C15.0654 31.9636 15.8389 32.4962 16.7892 32.8872C17.9405 33.361 19.3654 33.632 21.0242 33.6926C21.0248 33.6926 21.0255 33.6927 21.0261 33.6927C21.0384 33.6933 22.2848 33.7488 23.9655 33.2409C24.9511 32.943 25.8914 32.5125 26.7601 31.9611C27.8457 31.2721 28.8226 30.3912 29.6636 29.3428C29.6804 29.3219 29.703 29.3065 29.7286 29.2985L30.547 29.0428C30.6097 29.0231 30.6775 29.0517 30.7074 29.1101L31.6532 30.9584C31.7242 30.6395 31.855 30.1597 32.0816 29.636C32.3134 29.1003 32.5976 28.631 32.9265 28.2412C33.296 27.8031 33.7229 27.4648 34.1974 27.2336C33.9807 26.9913 33.5409 26.4501 33.1835 25.6924C32.8983 25.0876 32.726 24.4706 32.6715 23.8585C32.6145 23.2177 32.6872 22.5817 32.8877 21.9629L30.6567 23.3013C30.6212 23.3226 30.5779 23.3264 30.5392 23.3117C30.5006 23.297 30.4708 23.2653 30.4585 23.2259C30.4572 23.2218 30.3302 22.8178 30.1499 22.4205C29.8247 21.7038 29.6354 21.683 29.6149 21.683C29.5477 21.683 29.4908 21.6336 29.4814 21.5672C29.4811 21.5651 29.4363 21.2898 29.2143 21.2163C29.1803 21.205 29.1521 21.1806 29.136 21.1485C29.123 21.1224 28.8336 20.5241 29.1379 19.5366C29.0325 19.5116 28.8552 19.489 28.6238 19.5303C27.9632 19.6483 27.3789 20.1848 27.0051 20.614C26.9674 20.6573 26.9064 20.672 26.8532 20.6507C26.8523 20.6503 26.6852 20.5873 26.5489 20.6562C26.4651 20.6985 26.4042 20.7871 26.3681 20.9192C26.3584 20.955 26.3343 20.9851 26.3016 21.0026C26.2689 21.0201 26.2304 21.0234 26.1953 21.0116L25.5813 20.8068C25.5391 20.7927 25.5065 20.7587 25.4943 20.7159C25.4926 20.71 25.3143 20.1082 24.9209 20.148C24.8807 20.152 24.8407 20.1377 24.8121 20.109C24.6508 19.9475 24.7476 19.2707 25.0839 18.196C24.9364 18.197 24.7013 18.2153 24.4288 18.2982C23.8135 18.4856 23.3076 18.8971 22.925 19.5214C22.8914 19.5761 22.824 19.5996 22.7638 19.5777C22.7623 19.5772 22.5594 19.5071 22.4028 19.5892C22.317 19.6342 22.2584 19.7176 22.224 19.8443C22.2118 19.8888 22.1778 19.924 22.1337 19.9377C22.126 19.9401 22.1183 19.9417 22.1104 19.9427C22.0862 19.9472 21.8301 20.0026 21.7105 20.3622C21.6913 20.4199 21.6359 20.4578 21.5751 20.4544C21.5709 20.4542 21.1477 20.4351 20.6923 20.6695C20.4279 20.8056 20.2033 21.0001 20.0245 21.2477C19.7984 21.561 19.6443 21.962 19.5665 22.4393C19.5574 22.4953 19.5142 22.5396 19.4585 22.5502L18.4378 22.7445C18.3958 22.8083 18.3146 22.9465 18.2617 23.1303C18.1655 23.4642 18.2034 23.7874 18.3741 24.0909C18.3923 24.1232 18.3964 24.1615 18.3855 24.1968C18.3837 24.2027 18.2024 24.8089 18.4221 25.1603C18.449 25.2034 18.4494 25.258 18.4232 25.3015C18.397 25.345 18.3486 25.3702 18.2978 25.3664C18.2876 25.3657 17.2521 25.2952 16.1228 25.6006C15.466 25.7782 14.9064 26.0465 14.4592 26.398C13.9086 26.8308 13.5268 27.3936 13.3242 28.071ZM22.007 19.9123C22.048 19.9468 22.0932 19.9448 22.1082 19.9431C22.0721 19.947 22.0354 19.9361 22.007 19.9123Z" fill="#122A44"/>
<path d="M21.2757 23.6968L19.0242 23.2368L19.8003 23.0434C19.8555 23.0369 19.9013 22.9973 19.9155 22.9435C20.017 22.553 20.5048 20.9978 21.8907 20.7297L21.7373 20.5763C21.7373 20.5763 20.2023 20.5252 19.6907 22.674L18.5137 22.93V23.7993L20.9696 24.4132L21.2757 23.6968Z" fill="url(#paint9_linear_1_15956)"/>
<path d="M17.745 32.9058C17.745 32.9058 15.7493 29.887 18.0518 30.0919C18.0518 30.0919 18.5634 30.0919 20.5077 30.6546C20.5077 30.6546 21.1219 30.757 20.4054 29.9382C20.4054 29.9382 19.3821 29.0683 18.6145 28.8126C18.6145 28.8126 17.9495 27.9939 19.4844 28.3527L20.3543 28.5061C20.3543 28.5061 21.1731 28.7109 21.3776 27.7899C21.3776 27.7899 21.531 26.87 20.252 26.9712C20.252 26.9712 20.0983 26.9712 19.8938 27.1246C19.8938 27.1246 20.6103 26.1014 21.8381 26.7666C22.0214 26.8459 22.1935 26.9491 22.3497 27.0734L22.9626 26.5101L23.5257 26.4078L23.0657 24.924C23.0657 24.924 22.5027 25.0774 22.8609 24.5146L24.1401 24.259C24.1401 24.259 24.9588 24.003 25.2657 23.6959C25.2657 23.6959 26.6997 22.5192 28.4381 22.5703C28.4381 22.5703 29.4613 22.5192 29.5125 21.6504C29.5125 21.6504 29.9219 22.0086 30.3312 23.1853C30.3312 23.1853 30.3824 23.4412 30.638 23.4412L32.2431 22.4637L32.5588 22.9527C32.5588 22.9527 31.9697 24.6169 33.607 27.0729C33.607 27.0729 32.1232 28.7104 31.5603 30.3987L30.8214 28.7366L29.4626 29.222C29.4626 29.222 26.3406 34.9526 17.745 32.9058Z" fill="url(#paint10_radial_1_15956)"/>
<path d="M18.9734 9.77779C18.9734 9.77779 18.8712 8.19148 18.2061 9.0102C18.2061 9.0102 16.978 7.06591 18.9734 4.40515C18.9734 4.40515 19.8933 3.94521 19.5873 3.07502C19.5873 3.07502 19.7411 2.56339 20.8154 2.30743C20.8154 2.30743 20.2015 0.977013 18.4106 1.43752C18.4106 1.43752 17.9507 0.721341 17.0291 1.3864C17.0291 1.3864 8.38205 -0.455643 4.69824 9.67526C4.69824 9.67526 8.27973 8.44744 9.66127 9.11251C9.66127 9.11251 10.2752 9.36847 10.0707 10.4429C10.0707 10.4429 12.7823 8.95915 14.1127 10.9029C14.1127 10.9029 15.7499 9.16312 16.8757 9.57244C16.8757 9.57244 17.3357 9.77728 17.5919 10.4423" fill="#1797E5"/>
<path d="M14.0957 11.1178L14.001 10.9795C13.7153 10.5621 13.3382 10.2798 12.8802 10.1405C12.5092 10.0277 12.0828 10.0066 11.6127 10.0778C10.8015 10.2007 10.1417 10.5581 10.1351 10.5617L9.88426 10.6989L9.93775 10.418C10.1152 9.48615 9.63924 9.25135 9.60842 9.23724L9.60238 9.23451C9.06497 8.97581 8.05841 8.99028 6.6917 9.27641C5.64367 9.49587 4.75058 9.80028 4.74166 9.80331L4.47461 9.89482L4.57109 9.6295C5.4186 7.29871 6.60128 5.40749 8.08613 4.00831C9.27687 2.88634 10.6627 2.07713 12.2051 1.60315C13.5766 1.18167 14.8204 1.10902 15.6223 1.12234C16.3407 1.13422 16.8343 1.21327 16.9981 1.24337C17.3298 1.01643 17.6461 0.929522 17.9388 0.984962C18.203 1.03507 18.3769 1.19031 18.4622 1.28628C19.3904 1.07194 20.0068 1.33092 20.3637 1.59106C20.7648 1.88338 20.9307 2.23632 20.9376 2.25123L21.0067 2.40084L20.8463 2.439C20.3363 2.56054 20.055 2.74011 19.9087 2.86935C19.8056 2.9605 19.7542 3.03963 19.7313 3.08239C19.8495 3.46759 19.7691 3.83724 19.4973 4.15447C19.3298 4.34988 19.1367 4.4689 19.0634 4.51001C18.6299 5.09285 18.3206 5.68663 18.1439 6.27502C18.0015 6.74986 17.9445 7.22261 17.9746 7.68031C18.0087 8.19706 18.1478 8.57931 18.2388 8.77983C18.3796 8.6562 18.5161 8.61459 18.6461 8.65606C18.8261 8.71351 18.954 8.92044 19.037 9.28879C19.092 9.53237 19.107 9.75982 19.1077 9.76939L18.8383 9.78682C18.8136 9.40709 18.6948 8.95493 18.564 8.91324C18.5235 8.90028 18.4356 8.94147 18.3104 9.09562L18.1919 9.24149L18.0915 9.08259C18.0782 9.06156 17.7657 8.55814 17.7064 7.71523C17.6719 7.22369 17.7309 6.71695 17.8819 6.20907C18.0695 5.57835 18.4003 4.94424 18.865 4.32454L18.8842 4.29905L18.9127 4.28479C18.9456 4.26816 19.7218 3.86561 19.4597 3.12012L19.4451 3.07865L19.4577 3.03653C19.4645 3.01392 19.6277 2.50697 20.6075 2.22293C20.5295 2.10946 20.3953 1.9458 20.1944 1.80173C19.7292 1.46794 19.1402 1.38953 18.4439 1.56859L18.3494 1.59286L18.2967 1.51078C18.2958 1.50934 18.154 1.29867 17.8846 1.24935C17.6544 1.20715 17.393 1.29024 17.1077 1.49609L17.0592 1.53115L17.0007 1.5187C16.9954 1.51755 16.4556 1.40508 15.6059 1.39191C14.8233 1.37995 13.6095 1.45203 12.2724 1.86473C10.772 2.32783 9.42382 3.11703 8.26519 4.21042C6.86954 5.52751 5.74541 7.29324 4.92145 9.46152C5.26841 9.35316 5.91512 9.1633 6.63368 9.01267C8.07922 8.70977 9.11667 8.70214 9.71736 8.99014C9.77784 9.01714 10.3202 9.28664 10.2391 10.211C10.5137 10.0876 11.0039 9.89691 11.5722 9.81079C12.669 9.64455 13.5489 9.95012 14.1277 10.6953C14.5291 10.3009 15.8912 9.07128 16.9215 9.4459L16.9302 9.44943C16.9511 9.45871 17.4443 9.68508 17.7175 10.3941L17.4656 10.4911C17.2442 9.91649 16.8688 9.7195 16.8237 9.69754C16.2983 9.51077 15.6252 9.86321 15.1524 10.1926C14.6194 10.5638 14.2146 10.9913 14.2105 10.9956L14.0957 11.1178Z" fill="#122A44"/>
<path d="M19.5346 12.5432C19.5346 12.5432 17.6406 10.2409 15.4926 11.827C15.4926 11.827 14.0856 11.8013 13.4715 13.0805C13.4715 13.0805 13.3691 13.234 13.3691 13.3362C13.3691 13.3362 14.1879 13.5411 14.1879 14.5643C14.1879 14.5643 14.3924 14.5643 14.904 13.2339C14.904 13.2339 15.7228 13.3876 15.824 14.5131C15.824 14.5131 16.0288 14.5643 16.4893 14.2061C16.4893 14.2061 16.6428 13.3361 16.8984 13.2339C16.8984 13.2339 17.5638 13.2339 17.7172 14.3598C17.7172 14.3598 17.8194 14.5643 18.7404 13.7456L20.1219 13.8993C20.1219 13.8993 20.3791 13.4899 19.5346 12.5432Z" fill="#1797E5"/>
<path d="M14.1884 14.6043H14.1479V14.5638C14.1479 14.1516 14.0148 13.8262 13.7523 13.5965C13.5573 13.4258 13.3617 13.3755 13.3598 13.375L13.3291 13.3673V13.3357C13.3291 13.2286 13.4198 13.0855 13.4366 13.06C13.76 12.3886 14.3015 12.0779 14.6991 11.9355C15.087 11.7966 15.409 11.7864 15.4798 11.786C15.9735 11.4243 16.4951 11.2369 17.0302 11.2288C17.461 11.2223 17.9012 11.3317 18.3379 11.5537C19.0672 11.9246 19.5462 12.4929 19.5657 12.5163C20.42 13.4743 20.1679 13.9026 20.1568 13.9203L20.1433 13.9418L18.7544 13.7873C18.2529 14.2315 17.9048 14.45 17.7467 14.4196C17.7015 14.4109 17.6853 14.3851 17.6815 14.3773L17.6785 14.3714L17.6776 14.3647C17.6168 13.9184 17.4623 13.5883 17.231 13.41C17.0798 13.2934 16.9403 13.2767 16.9066 13.2743C16.8174 13.3172 16.7221 13.4922 16.6375 13.769C16.5687 13.9943 16.5301 14.2105 16.5298 14.2126L16.5271 14.2279L16.5147 14.2375C16.0441 14.6036 15.8239 14.5543 15.8148 14.5519L15.7868 14.545L15.7842 14.5163C15.7333 13.9488 15.4932 13.6407 15.3009 13.4822C15.1438 13.3527 14.9935 13.2996 14.9295 13.2814C14.7215 13.8186 14.5394 14.2017 14.3879 14.4205C14.2772 14.5804 14.2154 14.6043 14.1884 14.6043ZM13.4131 13.3065C13.4814 13.3291 13.643 13.3932 13.8057 13.5355C13.9899 13.6968 14.208 13.9916 14.2274 14.491C14.3109 14.4109 14.5132 14.1383 14.8668 13.2189L14.8789 13.1874L14.912 13.1936C14.9208 13.1953 15.1295 13.2361 15.3523 13.4197C15.5525 13.5847 15.8013 13.9011 15.8614 14.4745C15.928 14.4724 16.119 14.4399 16.4528 14.1829C16.463 14.1287 16.5002 13.9408 16.5597 13.746C16.6567 13.4281 16.7658 13.243 16.8838 13.1958L16.891 13.1929H16.8988C16.9061 13.1929 17.081 13.1946 17.2751 13.3418C17.5879 13.5792 17.7092 14.0116 17.7555 14.3385C17.7871 14.3502 17.976 14.3708 18.7139 13.7147L18.7274 13.7028L20.0974 13.8552C20.1307 13.7605 20.2065 13.3563 19.5047 12.5696L19.5036 12.5683C19.4989 12.5627 19.0254 11.9935 18.2988 11.6247C17.8742 11.4092 17.4473 11.3029 17.0298 11.3097C16.5086 11.3179 15.9995 11.5027 15.517 11.859L15.506 11.8671L15.4922 11.8669C15.4888 11.867 15.1406 11.8627 14.7235 12.0126C14.3407 12.1502 13.8191 12.4502 13.5083 13.0975L13.5055 13.1024C13.4823 13.1374 13.4265 13.2337 13.4131 13.3065Z" fill="#122A44"/>
<path d="M21.2749 23.3892C21.2749 23.3892 21.1223 24.1565 20.9167 24.2077L18.6142 23.645C18.6142 23.645 18.5631 23.2356 18.7679 22.9799L19.7395 22.8411C19.7981 22.8331 19.8432 22.7853 19.8477 22.7264C19.8783 22.3265 20.102 20.854 21.736 20.6774L21.6277 20.5751C21.6277 20.5751 20.0479 20.4217 19.6899 22.366C19.6899 22.366 19.6388 22.6216 19.434 22.6728L18.514 22.8264C18.514 22.8264 18.1558 23.338 18.4118 23.9009L20.9189 24.5659C20.9189 24.5659 21.3772 24.6682 21.2749 23.3892ZM23.3215 23.952C23.3215 23.952 22.8615 24.4119 22.8615 24.8219C22.8615 24.8219 25.9828 24.7194 27.62 25.6915L22.6054 25.0264C22.6054 25.0264 22.2471 24.6682 23.3215 23.952ZM19.74 27.5846C19.74 27.5846 19.9185 26.9588 20.5271 27.0026C20.6289 27.0099 20.7241 27.0555 20.7936 27.1304C20.9132 27.2589 21.0707 27.5184 21.0707 27.994C21.0704 27.994 20.7633 26.9196 19.74 27.5846ZM16.9258 26.6639C16.9258 26.6639 17.1046 26.0388 17.7131 26.0816C17.8149 26.0888 17.9102 26.1345 17.9796 26.2093C18.0992 26.3379 18.2567 26.5973 18.2567 27.073C18.2562 27.073 17.9491 25.9986 16.9258 26.6639Z" fill="#5DC5F9"/>
<path d="M20.8399 28.0495C20.8018 28.0495 20.7678 28.0225 20.7605 27.9837C20.7057 27.6964 20.6031 27.5249 20.4556 27.474C20.2434 27.401 19.9608 27.5916 19.8698 27.6713C19.8361 27.7008 19.785 27.6974 19.7555 27.6637C19.726 27.6301 19.7294 27.5789 19.7631 27.5494C19.7794 27.5352 20.165 27.2027 20.5083 27.3209C20.7147 27.392 20.8531 27.6049 20.9195 27.9534C20.9279 27.9973 20.8991 28.0398 20.8551 28.0481C20.85 28.049 20.8449 28.0495 20.8399 28.0495ZM18.0596 27.0565C18.0247 27.0565 17.9925 27.0338 17.982 26.9986C17.9062 26.7435 17.7983 26.5977 17.6614 26.5652C17.4243 26.509 17.1525 26.7947 17.1498 26.7976C17.1192 26.8302 17.068 26.8319 17.0354 26.8013C17.0028 26.7708 17.0011 26.7196 17.0316 26.6869C17.0453 26.6723 17.3697 26.33 17.6982 26.4074C17.896 26.454 18.0437 26.6374 18.1373 26.9523C18.15 26.9952 18.1256 27.0402 18.0827 27.053C18.075 27.0554 18.0672 27.0565 18.0596 27.0565ZM27.6195 25.8763C27.6159 25.8763 27.6124 25.8761 27.6088 25.8756L22.7243 25.2333C22.5379 25.2092 22.3961 25.0554 22.3872 24.8676C22.3613 24.2778 23.2487 23.8463 23.2864 23.8283C23.3268 23.809 23.3751 23.826 23.3944 23.8663C23.4137 23.9067 23.3967 23.955 23.3564 23.9743C23.3542 23.9753 23.1407 24.0785 22.9341 24.244C22.7524 24.3895 22.5382 24.6145 22.549 24.8601C22.5541 24.9691 22.6366 25.0586 22.7452 25.0726L27.63 25.7149C27.6743 25.7207 27.7055 25.7614 27.6997 25.8057C27.6943 25.8466 27.6595 25.8763 27.6195 25.8763Z" fill="#122A44"/>
<path d="M23.211 25.2148C23.211 25.2148 22.9529 26.3226 24.1467 26.8615C24.5792 27.0547 25.0594 27.1156 25.5265 27.0365C26.0994 26.9413 26.8664 26.6396 27.092 25.7245L23.211 25.2148Z" fill="#F3F5F7"/>
<path d="M25.1241 27.1524C24.7776 27.1524 24.4342 27.0796 24.1136 26.9364C23.467 26.6444 23.2341 26.1879 23.1526 25.8563C23.0643 25.4973 23.1294 25.2095 23.1322 25.1974C23.1416 25.1568 23.1803 25.1301 23.2216 25.1354L27.1026 25.6452C27.1255 25.6482 27.146 25.6608 27.1589 25.6798C27.1719 25.6988 27.1762 25.7225 27.1707 25.7448C27.0648 26.1742 26.8343 26.5142 26.4856 26.7554C26.2272 26.9341 25.9091 27.0559 25.5399 27.1173C25.4016 27.1407 25.2626 27.1524 25.1241 27.1524ZM23.2785 25.3062C23.2663 25.4068 23.2557 25.6019 23.3115 25.8243C23.4191 26.2525 23.7114 26.577 24.18 26.7886C24.5991 26.9758 25.0602 27.0344 25.5131 26.9576C26.0605 26.8666 26.7508 26.5897 26.9896 25.7937L23.2785 25.3062Z" fill="#122A44"/>
<path d="M20.9145 24.7715C20.8696 24.7715 20.8238 24.7654 20.7785 24.7527L18.1977 24.0611C18.1545 24.0495 18.1289 24.0051 18.1405 23.9619C18.1521 23.9187 18.1964 23.8931 18.2396 23.9047L20.8214 24.5966C20.9823 24.6418 21.1481 24.5646 21.2167 24.4132C21.3741 24.049 21.2983 23.4058 21.2975 23.3993C21.2921 23.3549 21.3237 23.3146 21.368 23.3092C21.4126 23.3038 21.4528 23.3354 21.4582 23.3798C21.4615 23.4079 21.54 24.0734 21.3647 24.4788C21.2819 24.6615 21.1049 24.7715 20.9145 24.7715Z" fill="#122A44"/>
<path d="M20.6099 24.6666C20.6099 24.6666 21.019 25.2808 20.5073 25.8436C20.5073 25.8436 19.4841 25.332 18.1025 25.332L18.3085 24.0527L20.6099 24.6666Z" fill="#F3F5F7"/>
<path d="M20.5072 25.9255C20.4949 25.9255 20.4825 25.9227 20.471 25.9169C20.4609 25.9119 19.4471 25.4138 18.1024 25.4138C18.0788 25.4138 18.0562 25.4034 18.0408 25.3854C18.0254 25.3673 18.0187 25.3434 18.0225 25.32L18.2284 24.0408C18.2321 24.0182 18.2452 23.9981 18.2643 23.9857C18.2835 23.9732 18.3071 23.9695 18.3292 23.9754L20.6307 24.5893C20.6497 24.5944 20.6662 24.6063 20.6772 24.6227C20.6817 24.6295 20.7894 24.7932 20.8302 25.0313C20.8682 25.2534 20.8534 25.5842 20.5671 25.899C20.5514 25.9163 20.5295 25.9255 20.5072 25.9255ZM18.1973 25.2527C19.3672 25.2719 20.2555 25.6399 20.4861 25.745C20.8436 25.3056 20.6217 24.8493 20.5575 24.7374L18.374 24.155L18.1973 25.2527Z" fill="#122A44"/>
<path d="M21.1224 26.4256C21.1049 26.4256 21.0874 26.4189 21.0742 26.4054C21.0688 26.3999 20.5292 25.8551 19.8582 25.6817C19.8222 25.6724 19.8005 25.6355 19.8098 25.5994C19.8191 25.5634 19.8559 25.5417 19.892 25.551C20.6001 25.7341 21.1477 26.2875 21.1706 26.311C21.1967 26.3376 21.1962 26.3803 21.1696 26.4064C21.1565 26.4192 21.1395 26.4256 21.1224 26.4256Z" fill="#122A44"/>
<path d="M30.6594 14.6413C30.6594 14.6413 29.0776 14.0541 29.2831 16.4064C29.2831 16.4064 29.4622 14.2319 30.9175 15.0481L30.6594 14.6413Z" fill="#122A44"/>
<path d="M16.5685 2.10547C16.5685 2.10547 16.4406 2.79624 16.6965 3.20426C16.6965 3.20426 13.2173 4.38124 10.5565 8.986C10.5565 8.986 9.94259 7.14424 6.15625 8.62802C6.15625 8.62917 7.69121 2.2332 16.5685 2.10547Z" fill="url(#paint11_linear_1_15956)"/>
<path d="M10.5561 9.02604C10.5547 9.02604 10.5533 9.02597 10.552 9.02582C10.5361 9.02424 10.5227 9.01344 10.5176 8.99832C10.5162 8.99414 10.3674 8.56977 9.79813 8.3046C9.44216 8.13885 8.99879 8.06851 8.48032 8.0958C7.82397 8.13021 7.04686 8.32181 6.17055 8.66525L6.17048 8.6651C6.16443 8.66755 6.15767 8.66849 6.15083 8.66769C6.1324 8.66546 6.11793 8.65099 6.11555 8.63263C6.1149 8.62737 6.11526 8.62212 6.11655 8.61722C6.13462 8.54436 6.54322 6.95287 8.02794 5.36037C8.89971 4.42524 9.96784 3.67521 11.2026 3.13097C12.7422 2.45237 14.5472 2.09359 16.5674 2.0645C16.5795 2.06385 16.5911 2.06961 16.599 2.07883C16.6068 2.08812 16.61 2.10036 16.6078 2.11231C16.6066 2.11908 16.4859 2.79249 16.7303 3.18223C16.7368 3.19274 16.7383 3.20563 16.7341 3.21729C16.7299 3.22896 16.7207 3.2381 16.709 3.24206C16.4092 3.34358 15.592 3.7169 14.6444 4.40292C13.9489 4.90641 13.2832 5.50056 12.6658 6.16893C11.8941 7.00442 11.196 7.95885 10.5911 9.00573C10.5838 9.01841 10.5704 9.02604 10.5561 9.02604ZM8.69315 8.00918C9.13451 8.00918 9.51798 8.08413 9.83571 8.23289C10.2932 8.44701 10.4906 8.75409 10.5613 8.89601C11.1603 7.87022 11.8487 6.93393 12.6082 6.11205C13.2296 5.43957 13.8998 4.84169 14.6001 4.33509C15.5097 3.67709 16.3015 3.30441 16.6364 3.18194C16.4419 2.82425 16.4969 2.30707 16.5204 2.14629C14.5305 2.18013 12.7527 2.53632 11.2353 3.20513C10.0107 3.74491 8.95148 4.4886 8.08726 5.41567C6.77773 6.82025 6.31434 8.22043 6.21598 8.56085C7.07134 8.23195 7.83239 8.04835 8.47931 8.01487C8.55203 8.01105 8.62338 8.00918 8.69315 8.00918Z" fill="#122A44"/>
<path d="M16.7984 3.56445L17.2583 4.02439C17.2583 4.02439 14.548 6.89028 13.933 9.55104C13.933 9.55104 12.8587 8.78344 11.1191 9.39739C11.1189 9.39732 12.9098 5.35531 16.7984 3.56445Z" fill="url(#paint12_linear_1_15956)"/>
<path d="M13.9326 9.591C13.9242 9.591 13.916 9.58841 13.909 9.58344C13.9064 9.58157 13.6385 9.39343 13.1643 9.28183C12.7269 9.17887 12.0193 9.12185 11.1321 9.43498C11.1212 9.43887 11.1091 9.43779 11.099 9.43217C11.0889 9.42655 11.0817 9.41683 11.0792 9.40546C11.0758 9.39041 11.075 9.38681 11.1669 9.20148C11.2187 9.09708 11.3053 8.92831 11.4239 8.71721C11.633 8.3449 11.984 7.76681 12.4678 7.12731C13.0116 6.40853 13.6089 5.76017 14.2433 5.20037C15.0366 4.50024 15.8904 3.93727 16.7809 3.52716C16.7962 3.52003 16.8145 3.52335 16.8265 3.5353L17.2864 3.99523C17.3019 4.01071 17.3023 4.03577 17.2872 4.05168C17.2804 4.05881 16.6023 4.77888 15.8579 5.81395C15.172 6.76788 14.2881 8.19197 13.9719 9.55961C13.9689 9.57279 13.9594 9.58359 13.9468 9.58834C13.9422 9.59014 13.9374 9.591 13.9326 9.591ZM12.4389 9.11926C12.737 9.11926 12.9891 9.15706 13.1872 9.204C13.5613 9.29263 13.8069 9.42475 13.9064 9.48531C14.2364 8.12163 15.1118 6.71287 15.793 5.76571C16.4566 4.84296 17.0681 4.16926 17.2016 4.02483L16.7893 3.61248C15.9181 4.01691 15.0823 4.56915 14.3047 5.25423C13.6755 5.80855 13.0826 6.45065 12.5426 7.16273C11.7679 8.18434 11.3244 9.05885 11.1956 9.32777C11.6657 9.17275 12.0847 9.11926 12.4389 9.11926Z" fill="#122A44"/>
<path d="M17.6177 4.43359C17.6177 4.43359 15.878 6.68496 17.6177 9.39663C17.6177 9.39663 16.2362 8.16881 14.5479 9.60147C14.5487 9.60147 15.5712 5.91737 17.6177 4.43359Z" fill="url(#paint13_linear_1_15956)"/>
<path d="M14.5473 9.64131C14.5304 9.64131 14.5152 9.63072 14.5093 9.61481C14.5062 9.60624 14.5061 9.59703 14.5087 9.58867L14.5099 9.58443C14.5583 9.41602 14.8245 8.52315 15.3124 7.48311C15.6085 6.8521 15.9294 6.28812 16.2663 5.80687C16.6857 5.20783 17.1322 4.73458 17.5934 4.40028C17.6096 4.38847 17.6322 4.39042 17.6462 4.40489C17.6602 4.41936 17.6614 4.4419 17.6492 4.45781C17.6449 4.46343 17.2157 5.02661 17.0033 5.91063C16.8787 6.42895 16.8519 6.9547 16.9236 7.47339C17.0132 8.12189 17.258 8.76139 17.6512 9.37426C17.6621 9.39125 17.6588 9.41371 17.6434 9.42689C17.6281 9.43999 17.6053 9.43985 17.5902 9.42646C17.5868 9.42343 17.2436 9.12334 16.7027 9C16.3861 8.92779 16.0642 8.92937 15.7461 9.00461C15.3473 9.09893 14.9528 9.30996 14.5734 9.63195C14.5653 9.63922 14.5556 9.64131 14.5473 9.64131ZM17.4482 4.61455C17.0625 4.9302 16.6881 5.34579 16.3328 5.85324C15.9985 6.33067 15.6799 6.89062 15.3859 7.51745C14.9728 8.39779 14.7197 9.17165 14.6237 9.48586C14.9823 9.20203 15.3539 9.01354 15.73 8.92505C16.0608 8.84722 16.3953 8.84614 16.7245 8.92174C17.059 8.99863 17.3168 9.13745 17.4733 9.23962C17.1373 8.67067 16.9255 8.08042 16.8431 7.48217C16.7703 6.95304 16.798 6.41679 16.9254 5.88823C17.0662 5.30467 17.2999 4.85806 17.4482 4.61455Z" fill="#122A44"/>
<path d="M25.6685 25.5391C25.6685 25.5391 25.0886 26.5298 26.1498 26.8532C26.1498 26.8532 26.936 26.3545 27.0223 25.7168L25.6685 25.5391ZM19.6451 24.4121C19.6451 24.4121 19.0753 25.13 19.5369 25.437L20.509 25.6927C20.509 25.6927 20.9324 24.9973 20.3626 24.6031L19.6451 24.4121Z" fill="#122A44"/>
<path d="M25.6241 26.6643C25.7655 26.6643 25.8801 26.5497 25.8801 26.4083C25.8801 26.2669 25.7655 26.1523 25.6241 26.1523C25.4828 26.1523 25.3682 26.2669 25.3682 26.4083C25.3682 26.5497 25.4828 26.6643 25.6241 26.6643Z" fill="white"/>
<path d="M19.4327 25.1799C19.5741 25.1799 19.6887 25.0653 19.6887 24.9239C19.6887 24.7826 19.5741 24.668 19.4327 24.668C19.2914 24.668 19.1768 24.7826 19.1768 24.9239C19.1768 25.0653 19.2914 25.1799 19.4327 25.1799Z" fill="white"/>
<path d="M25.9313 17.7365C25.9306 17.7365 25.9298 17.7365 25.929 17.7364C25.9142 17.7352 25.9032 17.7221 25.9044 17.7072C25.9049 17.7009 25.9629 17.0705 26.4399 17.0176C26.4409 17.0175 26.4419 17.0175 26.4429 17.0175C26.4482 17.0175 26.8886 17.0222 27.0658 17.3598C27.0669 17.2883 27.0727 17.2071 27.0879 17.1232C27.1485 16.7856 27.3303 16.5724 27.6135 16.5066C27.628 16.5032 27.6425 16.5123 27.6459 16.5267C27.6493 16.5413 27.6402 16.5557 27.6258 16.5591C27.3615 16.6205 27.1984 16.8135 27.141 17.1328C27.1099 17.3058 27.1198 17.4708 27.1282 17.5514C27.131 17.5686 27.1332 17.5864 27.1349 17.6048C27.1362 17.6193 27.1259 17.6321 27.1115 17.634C27.097 17.6359 27.0838 17.626 27.0815 17.6117C27.081 17.609 27.0777 17.5889 27.0742 17.5558C27.0417 17.3617 26.9318 17.222 26.747 17.1402C26.6019 17.0759 26.4598 17.0717 26.4443 17.0714C26.013 17.1207 25.9587 17.7058 25.9582 17.7117C25.957 17.7258 25.9452 17.7365 25.9313 17.7365Z" fill="black"/>
<path d="M32.1138 19.1816C32.1138 19.1816 31.4057 18.5293 30.4847 20.5247C30.4847 20.5247 31.6882 19.2717 32.1098 19.3865L32.1138 19.1816ZM31.9909 17.7181C31.9909 17.7181 31.098 16.4313 30.5358 18.2222C30.5358 18.2222 30.8125 17.7378 31.1102 17.5371C31.2259 17.459 31.3792 17.4666 31.4865 17.5557C31.658 17.7002 31.9164 18.0498 32.1107 18.8915L31.9909 17.7181ZM29.5098 12.9682C29.5098 12.9682 28.3353 13.1577 28.7444 14.3335C28.7444 14.3335 28.6676 13.2042 29.9349 13.2826L29.5098 12.9682ZM28.112 11.6619C28.112 11.6619 27.332 11.7272 27.8536 12.9461C27.8937 13.04 27.8612 13.1492 27.7762 13.2058C27.6889 13.2642 27.5719 13.2498 27.5013 13.172C27.3899 13.0492 27.1766 12.8019 26.9754 12.6639C26.8999 12.6115 26.7962 12.6301 26.7437 12.7057C26.7321 12.7224 26.7237 12.741 26.7188 12.7608C26.6728 12.9567 26.6709 13.3783 26.8517 14.2825C26.8517 14.2825 26.1806 13.2757 26.4729 12.5535C26.5781 12.2927 26.8955 12.1798 27.1341 12.329C27.2225 12.3868 27.3005 12.4591 27.3649 12.5427C27.3649 12.5427 27.0187 11.1903 28.112 11.6619ZM26.3983 10.5827C26.3983 10.5827 25.1807 10.6714 25.6739 11.5508C25.6913 11.5812 25.7135 11.6085 25.7394 11.6319L25.9407 11.8159C25.9962 11.8837 26.0032 11.9791 25.958 12.0543C25.9134 12.1289 25.827 12.1677 25.7416 12.1514C25.4845 12.1017 24.9079 11.8779 24.5638 12.4203C24.5113 12.501 24.4978 12.601 24.527 12.6928C24.5757 12.8417 24.6741 12.9694 24.8057 13.0545C24.8057 13.0545 23.9872 12.6451 24.6012 12.0312C24.6012 12.0312 24.8057 11.7756 25.3685 11.7756C25.3685 11.7756 24.6073 10.4376 26.0625 10.4668L26.3983 10.5827ZM20.1482 8.85863C20.1482 8.85863 21.3219 7.73363 22.1871 9.11783C22.224 9.17723 22.2537 9.24081 22.2756 9.30726L22.3992 9.67849C22.3992 9.67849 21.7853 9.62737 21.4793 10.1901L21.2748 9.98557C21.2748 9.98557 21.377 10.5995 22.2469 11.4693C22.2469 11.4693 22.298 11.06 21.7353 10.4461C21.7353 10.4461 22.3492 9.52614 23.0145 10.139C23.0145 10.139 23.3213 10.2927 23.8841 11.2137C23.8841 11.2137 23.7307 10.3438 22.7585 9.72961C22.7585 9.72961 22.4515 8.39949 21.4793 8.14353C21.4794 8.14245 20.5584 7.93868 20.1482 8.85863ZM18.0483 1.15823C18.0483 1.15823 17.6424 1.49072 18.0001 2.61659C18.0001 2.61659 17.5402 1.90012 17.6933 1.13281L18.0483 1.15823ZM18.2561 2.97457C18.2561 2.97457 18.9393 3.69241 19.6465 3.35905L19.607 3.6994C19.607 3.6994 18.5118 3.69076 18.2561 2.97457Z" fill="#122A44"/>
<path d="M16.8746 2.15627C16.8746 2.15627 17.0791 1.59352 17.7445 1.23633L16.9769 1.28745C16.9769 1.28745 16.8238 1.49092 16.8746 2.15627ZM17.9493 3.64005C17.9493 3.64005 18.3076 4.35623 19.4331 3.53781L19.3308 4.25399C19.3308 4.25399 18.2053 4.45876 17.9493 3.64005Z" fill="#122A44"/>
<path d="M20.6104 2.2582C20.6104 2.2582 19.5868 2.56528 19.4334 3.23063C19.4334 3.23063 18.0007 2.7707 18.3078 1.54202C18.3089 1.54173 20.1488 1.08151 20.6104 2.2582Z" fill="url(#paint14_linear_1_15956)"/>
<path d="M25.1123 5.73732C25.1123 5.73732 25.7617 6.46272 25.5722 7.11885C25.5722 7.11885 27.0063 7.42593 27.3117 6.40267C27.3123 6.4026 26.0858 4.93157 25.1123 5.73732Z" fill="url(#paint15_linear_1_15956)"/>
<path d="M29.0907 19.5854C29.0907 19.5854 28.6943 20.6092 29.0528 21.1901C29.0528 21.1901 27.6188 21.5995 26.9551 20.7807C26.9551 20.7807 28.0806 19.1946 29.0907 19.5854Z" fill="url(#paint16_linear_1_15956)"/>
<path d="M25.0101 18.3245C25.0101 18.3245 24.4985 19.2967 24.703 20.2185C24.703 20.2185 23.4195 20.594 22.8516 19.689C22.8516 19.6881 23.8843 17.864 25.0101 18.3245Z" fill="url(#paint17_linear_1_15956)"/>
<path d="M16.6658 19.0996C16.6658 19.0996 16.4555 19.7065 16.774 20.2682C16.774 20.2682 16.0976 20.7473 15.5459 20.2682C15.5448 20.2682 15.8519 19.3472 16.6658 19.0996Z" fill="url(#paint18_linear_1_15956)"/>
<path d="M15.1113 18.9336C15.1113 18.9336 14.8334 19.5123 15.0842 20.1065C15.0842 20.1065 14.3577 20.5056 13.8643 19.9666C13.8643 19.9666 14.2744 19.0862 15.1113 18.9336Z" fill="url(#paint19_linear_1_15956)"/>
<path d="M13.2678 15.1769C13.2678 15.1769 13.5589 14.6517 14.1878 14.5118C14.1878 14.5118 14.0963 13.5605 13.3712 13.4707C13.3723 13.4707 12.9075 14.4061 13.2678 15.1769Z" fill="url(#paint20_linear_1_15956)"/>
<path d="M13.2676 15.2378C13.2669 15.2378 13.2662 15.2378 13.2655 15.2378C13.2427 15.2371 13.2222 15.2235 13.2126 15.2029C13.0621 14.8809 13.03 14.4966 13.1172 14.0605C13.1787 13.7526 13.2835 13.5147 13.3141 13.4491L13.315 13.4471C13.3162 13.4442 13.3178 13.4413 13.3195 13.4386C13.332 13.4186 13.355 13.4077 13.3784 13.4106C13.6969 13.4501 13.9487 13.6539 14.1064 14C14.2227 14.2553 14.247 14.4961 14.2479 14.5062C14.2509 14.5367 14.2306 14.5646 14.2007 14.5713C13.6055 14.7037 13.3234 15.2015 13.3207 15.2065C13.31 15.2259 13.2896 15.2378 13.2676 15.2378ZM13.4073 13.5379C13.3669 13.6304 13.2867 13.8326 13.2363 14.0843C13.1635 14.4482 13.1782 14.7719 13.2797 15.0483C13.3957 14.8894 13.6681 14.5849 14.1199 14.466C14.1067 14.3844 14.0725 14.2175 13.9946 14.0475C13.8608 13.7557 13.6634 13.5844 13.4073 13.5379Z" fill="#122A44"/>
<path d="M14.8905 14.9826C14.8905 14.9826 15.1451 14.5998 15.7749 14.4599C15.7749 14.4599 15.647 13.4109 14.9819 13.3086C14.9808 13.3086 14.4703 14.2296 14.8905 14.9826Z" fill="url(#paint21_linear_1_15956)"/>
<path d="M14.8902 15.0434C14.8893 15.0434 14.8886 15.0434 14.8877 15.0434C14.8666 15.0425 14.8474 15.0308 14.8371 15.0123C14.6599 14.6947 14.6178 14.2977 14.7155 13.8642C14.7932 13.5193 14.9276 13.2808 14.9289 13.2786C14.9414 13.2573 14.9665 13.245 14.9909 13.2487C15.2848 13.2939 15.5244 13.5188 15.6837 13.8993C15.8007 14.1789 15.8337 14.4416 15.8351 14.4527C15.8388 14.4837 15.8184 14.5125 15.7879 14.5193C15.192 14.6516 14.9432 15.0128 14.9408 15.0165C14.9293 15.0334 14.9104 15.0434 14.8902 15.0434ZM15.0145 13.3769C14.9308 13.5443 14.6154 14.2517 14.9017 14.8718C15.0094 14.7523 15.2621 14.5258 15.7059 14.4139C15.6703 14.2103 15.5101 13.4905 15.0145 13.3769Z" fill="#122A44"/>
<path d="M16.7327 14.9826C16.7327 14.9826 17.043 14.4206 17.6729 14.2804C17.6729 14.2804 17.6004 13.3982 16.8753 13.3086C16.8749 13.3086 16.3722 14.2118 16.7327 14.9826Z" fill="url(#paint22_linear_1_15956)"/>
<path d="M16.7325 15.0434C16.7317 15.0434 16.731 15.0434 16.7304 15.0434C16.7075 15.0426 16.6871 15.0291 16.6774 15.0085C16.3027 14.207 16.8183 13.2848 16.8238 13.2762C16.8364 13.2564 16.8592 13.2456 16.8825 13.2485C17.2007 13.2878 17.4491 13.4794 17.6008 13.8025C17.7129 14.0414 17.7325 14.2662 17.7332 14.2757C17.7357 14.3059 17.7155 14.3333 17.6859 14.3399C17.0914 14.4721 16.7886 15.0068 16.7856 15.0122C16.7749 15.0315 16.7545 15.0434 16.7325 15.0434ZM16.9089 13.3752C16.8268 13.5384 16.5167 14.2245 16.7443 14.8527C16.8636 14.6848 17.1472 14.3561 17.6055 14.2345C17.5936 14.158 17.5627 14.0061 17.4894 13.851C17.3611 13.5798 17.166 13.4199 16.9089 13.3752Z" fill="#122A44"/>
<path d="M13.4467 19.4494C13.4467 19.4494 13.0936 19.9205 13.3446 20.515C13.3446 20.515 12.6682 20.8126 12.1758 20.2715C12.1758 20.2728 12.6279 19.398 13.4467 19.4494Z" fill="url(#paint23_linear_1_15956)"/>
<path d="M18.378 1.39648C18.378 1.39648 18.1031 2.51364 19.5357 3.23011L19.4335 3.38354C19.4335 3.38354 17.8985 2.9236 18.2057 1.43925L18.378 1.39648ZM27.7223 6.24856C27.7223 6.24856 27.8761 6.96396 27.0062 7.47804C27.0062 7.47804 27.8761 7.22208 27.9261 6.40358L27.7223 6.24856Z" fill="#122A44"/>
<path d="M12.5262 32.5988C12.5262 32.5988 5.10701 28.1985 6.94905 18.1699L4.95365 20.1131C4.95365 20.1131 4.59537 28.6091 12.5262 32.5988Z" fill="url(#paint24_radial_1_15956)"/>
<path d="M7.25586 16.3281C7.25586 16.3281 7.71579 16.9932 8.33031 16.3281C8.33031 16.3281 7.7932 17.198 7.25586 16.3281Z" fill="#5DC5F9"/>
<path d="M27.9732 6.57812C27.9732 6.57812 28.2035 7.03511 28.036 7.68095C28.036 7.68095 28.2914 7.41469 28.3583 6.751L27.9732 6.57812ZM25.3682 7.47777C25.3682 7.47777 25.7776 8.09171 26.6986 7.6312C26.6986 7.6312 25.7786 7.83604 25.4197 7.32412L25.3682 7.47777Z" fill="#122A44"/>
<path d="M25.3687 7.58034C25.3687 7.58034 25.5224 8.50029 26.4945 8.39906C26.4945 8.39906 25.9634 8.71614 25.3852 8.45536L25.3687 7.58034ZM27.313 6.30112C27.313 6.30112 27.0062 7.4781 25.4712 7.01759L25.4201 7.27326C25.4201 7.27326 27.1595 7.7849 27.6712 6.25L27.313 6.30112ZM16.21 33.4191C16.21 33.4191 17.7295 33.3777 17.763 34.8823L17.1651 34.792C17.1651 34.792 17.5403 33.7786 16.21 33.4191ZM13.8051 32.3446C13.8051 32.3446 14.9464 32.9028 14.478 34.389L14.1133 34.2556C14.1133 34.2556 14.5211 32.754 13.8051 32.3446ZM8.79096 29.0708C8.79096 29.0708 9.45602 30.4012 7.97224 30.7594L7.66545 30.2994C7.66545 30.2994 8.84208 30.6052 8.79096 29.0708ZM6.28391 26.5629C6.28391 26.5629 6.2328 27.2282 5.26066 27.0745L5.30853 26.7868C5.30954 26.7791 5.31666 26.7737 5.32437 26.7747C5.32581 26.775 5.32725 26.7754 5.32862 26.776C5.42481 26.8218 5.917 27.0223 6.28391 26.5629ZM5.15942 18.5812C5.15942 18.5812 4.74895 20.4232 3.7254 19.9627L3.52055 20.3718C3.52055 20.3718 5.15942 21.0371 5.15942 18.5812ZM3.46973 17.1996C3.46973 17.1996 4.18541 18.6834 4.85126 16.3297C4.85126 16.3297 4.9535 18.4274 3.52084 17.9672L3.46973 17.1996ZM4.69783 14.2831C4.69783 14.2831 4.5953 15.4087 5.92565 14.9482C5.92565 14.9482 4.74895 16.0575 4.21161 14.7607L4.69783 14.2831ZM5.10694 12.5434C5.10694 12.5434 5.46513 13.6178 7.05122 12.0317C7.05122 12.0317 5.51633 14.2831 6.94898 14.3857C6.94898 14.3857 5.66997 14.5906 6.2328 13.1065C6.2328 13.1065 5.63887 13.6782 4.9638 13.0597L5.10694 12.5434ZM6.38616 16.9437C6.38616 16.9437 6.94891 17.0973 7.20487 16.432C7.20487 16.432 7.51166 16.9948 8.07477 16.688C8.07477 16.688 8.27932 16.5857 8.43275 16.1252C8.43275 16.1252 8.07477 16.9437 7.51281 16.5852C7.51281 16.5852 7.20602 16.4315 7.20602 15.971C7.20494 15.9715 7.05122 16.9437 6.38616 16.9437Z" fill="#122A44"/>
<path d="M17.438 2.10448C17.438 2.10448 17.7962 3.02443 18.1542 3.43461C18.1542 3.43461 17.2335 3.12782 17.438 2.10448ZM5.56738 8.90956C5.56738 8.90956 7.46134 4.25339 11.0935 2.92298C11.0935 2.92298 13.9074 1.74628 16.7213 1.84852C16.7213 1.84852 11.9628 1.28577 9.09747 3.74248C9.09804 3.74169 6.59093 5.63486 5.56738 8.90956ZM18.1542 4.50928C18.1542 4.50928 16.5681 6.24873 17.8474 9.16523C17.8474 9.16523 16.0053 6.76043 18.1542 4.50928ZM26.1939 7.96795C26.1939 7.96795 27.2761 8.05831 27.9163 7.32074C27.9163 7.32074 27.4985 8.50233 26.1939 7.96795ZM28.8481 7.68146C28.8481 7.68146 30.5364 9.26755 30.2821 13.1564C30.2807 13.1564 31.1504 9.37007 28.8481 7.68146Z" fill="#5DC5F9"/>
<path d="M22.042 21.0363C22.042 21.0363 22.1443 21.3945 22.6048 21.6503C22.6048 21.6503 21.8883 20.3711 23.4233 20.3199L22.502 19.6543C22.502 19.6543 21.8375 20.2687 22.042 21.0363Z" fill="url(#paint25_linear_1_15956)"/>
<path d="M6.64181 8.39789L6.23242 8.55132C6.23242 8.55132 6.99893 5.73684 9.81283 3.99739C9.81283 3.99739 12.32 2.10343 16.5156 2.15534C16.485 2.21942 16.4676 2.28898 16.4645 2.3599C16.4645 2.3599 8.79065 2.3599 6.64181 8.39789ZM11.2469 9.26722C11.2469 9.26722 13.0889 5.32745 16.7729 3.63941L16.8747 3.74143C16.8747 3.74143 14.0608 4.66138 11.4511 9.2161L11.2469 9.26722Z" fill="#7DA4B7"/>
<path d="M22.5022 19.6543C22.4769 19.7991 22.5142 19.9479 22.6048 20.0637C22.6048 20.0637 21.9906 20.5236 22.1448 21.2404C22.1448 21.2409 21.5824 20.0642 22.5022 19.6543Z" fill="#5DC5F9"/>
<path d="M17.3346 4.76562C17.3346 4.76562 15.646 6.14716 14.6738 9.42179L14.8787 9.26815C14.8787 9.26815 15.34 7.22155 17.3346 4.76562Z" fill="#7DA4B7"/>
<path d="M22.7592 19.5527C22.7592 19.5527 23.3732 20.4727 24.8569 20.1155L25.0618 20.2178C25.0618 20.2178 23.578 21.0365 22.4521 19.6039L22.7592 19.5527Z" fill="#122A44"/>
<path d="M22.35 19.7051C22.35 19.7051 22.7083 20.625 23.527 20.7283C23.527 20.7283 22.7595 20.7795 22.1455 19.8584L22.35 19.7051Z" fill="#122A44"/>
<path d="M26.5551 20.7676C26.5551 20.7676 25.8292 21.9056 26.1363 22.3149C26.1363 22.3149 26.1874 22.5706 26.5962 22.6729C26.5962 22.6729 26.3917 21.9567 26.8519 21.5473C27.097 21.7031 27.3536 21.84 27.6195 21.9567L27.876 21.5476C27.876 21.5476 27.2807 21.5227 26.5551 20.7679" fill="url(#paint26_linear_1_15956)"/>
<path d="M23.9368 20.8309C23.9368 20.8309 25.0626 20.8823 25.0626 20.1147L25.2672 20.3704C25.2672 20.3704 25.1641 20.9846 23.9368 20.8309ZM22.1454 19.9102C22.1454 19.9102 21.7871 20.4218 22.1454 21.2403C22.1454 21.2403 21.48 20.6263 21.5311 20.2681L22.1454 19.9102Z" fill="#122A44"/>
<path d="M24.2432 21.6495C24.2432 21.6495 25.3687 22.0588 25.5736 20.6262L25.2665 20.2168C25.2665 20.2168 25.2664 21.5474 24.2432 21.6495ZM26.4434 20.9844C26.4434 20.9844 25.9318 21.7006 26.1874 22.417C26.1874 22.417 25.6247 22.11 26.1363 20.8307L26.4434 20.9844ZM27.4667 22.9287C27.4667 22.9287 29.4035 23.9996 29.7141 21.571L29.4621 21.2401C29.4621 21.2401 29.4622 23.4914 27.4667 22.9287Z" fill="#122A44"/>
<path d="M12.5773 20.5761C12.5773 20.5761 12.1174 22.5715 14.4713 23.7996C14.4713 23.7996 13.6526 22.068 13.448 20.5449L12.5773 20.5761Z" fill="url(#paint27_linear_1_15956)"/>
<path d="M14.2913 20.1655C14.2913 20.1655 13.9076 22.5194 15.9031 23.747L15.8009 23.0308C15.8009 23.0308 15.1355 21.2399 15.2378 20.1133L14.2913 20.1655Z" fill="url(#paint28_linear_1_15956)"/>
<path d="M28.0288 22.0075C28.0288 22.0075 29.2944 22.2258 29.4546 21.3746L29.3591 21.1887C29.3591 21.1887 29.2566 21.9566 28.0288 22.0075ZM26.4427 20.7285C26.4427 20.7285 26.3401 21.1885 27.21 21.7518C27.21 21.7518 26.6472 21.7007 26.29 20.9333L26.4427 20.7285Z" fill="#122A44"/>
<path d="M26.9034 20.6289C26.9034 20.6289 27.5685 21.6522 29.1546 21.0383L29.3594 21.3965C29.3594 21.3965 27.5174 22.2661 26.4941 20.68L26.9034 20.6289Z" fill="#122A44"/>
<path d="M26.6985 22.3144C26.6985 22.3144 27.415 22.6724 28.8476 22.4678C28.8476 22.467 27.4662 23.3888 26.6985 22.3144ZM22.7588 21.0352C22.7588 21.0352 23.4239 21.3419 24.8565 21.1374C24.8562 21.1374 23.7309 22.1095 22.7588 21.0352Z" fill="#5DC5F9"/>
<path d="M11.9629 20.423C11.9629 20.423 12.4745 20.9347 13.4978 20.6787L13.6512 19.9114L13.2995 19.7637C13.2995 19.7637 13.1371 20.1154 13.1896 20.4742C13.1896 20.4742 12.5757 20.6276 12.1152 20.2182L11.9629 20.423Z" fill="#122A44"/>
<path d="M11.9883 20.4473C11.9883 20.4473 12.0394 20.8055 12.6022 20.8567C12.6022 20.8567 12.1152 20.9335 11.8604 20.5242L11.9883 20.4473ZM12.8838 20.8824C12.8838 20.8824 13.3955 20.9335 13.4978 20.5753L13.5489 20.8824C13.3366 20.9734 13.0962 20.9734 12.8838 20.8824Z" fill="#122A44"/>
<path d="M13.805 20.0134C13.805 20.0134 13.4982 21.2924 13.8564 22.1112C13.8564 22.1112 13.191 21.139 13.5493 19.9623L13.805 20.0134ZM13.9076 19.8086C13.9076 19.8086 14.4192 20.2685 15.2377 19.9622V20.1146C15.2377 20.1146 14.3681 20.5745 13.8564 19.9612L13.9076 19.8086Z" fill="#122A44"/>
<path d="M13.7536 19.9609C13.9068 20.1952 14.1456 20.3603 14.419 20.4209C14.419 20.4209 13.9073 20.4209 13.6514 20.1138L13.7536 19.9609ZM14.7769 20.4214C14.7769 20.4214 15.2368 20.3189 15.2368 20.0632L15.2882 20.3189C15.2882 20.3189 15.1351 20.4726 14.7769 20.4214Z" fill="#122A44"/>
<path d="M15.2374 20.2676C15.2374 20.2676 14.7258 21.1875 15.6468 22.5701C15.6468 22.5701 15.0841 21.0352 15.4423 20.2676H15.2374Z" fill="#122A44"/>
<path d="M15.4949 20.166C15.4949 20.166 16.2111 20.626 16.8252 20.166L17.0298 20.3194C17.0298 20.3194 16.3136 20.9336 15.3926 20.3706L15.4949 20.166Z" fill="#122A44"/>
<path d="M15.3398 20.3715C15.3398 20.3715 15.4933 20.6786 16.1583 20.7809C16.1583 20.7809 15.6467 20.832 15.2887 20.6275L15.3398 20.3715ZM16.4145 20.7298C16.4145 20.7298 16.8239 20.7298 17.0284 20.2698L17.1819 20.5258C16.961 20.6881 16.6869 20.761 16.4145 20.7298ZM16.6188 21.1391C16.6188 21.1391 17.1304 21.088 17.2841 20.6792L17.3344 20.9345C17.3344 20.9345 17.1304 21.1903 16.6188 21.1391ZM16.9258 13.1574C16.9258 13.1574 16.9259 12.1853 18.4608 12.2375C18.4608 12.2375 16.5164 11.8281 16.7213 13.4141L16.9258 13.1574ZM17.7446 13.567C17.7446 13.567 17.9492 13.8741 17.8469 14.3346L18.0731 14.2659C18.0731 14.2659 18.0514 13.7201 17.7446 13.567ZM15.013 13.2672C15.013 13.2672 15.2886 12.1849 17.0793 12.0315C17.0793 12.0315 14.9304 11.9804 14.8281 13.2596L15.013 13.2672Z" fill="#122A44"/>
<path d="M18.8708 12.0312C18.8708 12.0312 20.15 13.0034 20.0986 13.8221L18.7188 13.6687C18.7188 13.6687 19.4336 13.2082 18.8708 12.0312Z" fill="url(#paint29_linear_1_15956)"/>
<path d="M14.9805 29.6326C14.9805 29.6326 16.0549 27.9951 19.6366 29.9906C19.6378 29.9903 16.6188 27.279 14.9805 29.6326Z" fill="#122A44"/>
<path d="M14.9805 29.9392C14.9805 29.9392 15.9526 28.4043 19.6883 30.2463C19.6883 30.2463 16.4653 27.7392 14.9805 29.9392Z" fill="#5DC5F9"/>
<path d="M20.9684 26.5614C20.9684 26.5614 16.7667 24.3314 14.2886 27.1753C13.8003 27.7377 13.6506 28.5184 13.8962 29.2214C14.3451 30.5144 15.6116 32.5344 19.1777 33.1119C19.1777 33.1119 25.164 34.3911 29.3086 29.2233L30.0759 28.5068C30.0759 28.5068 25.9316 35.7202 17.182 32.9574C17.182 32.9574 13.2222 31.7896 13.3941 28.1396C13.3958 28.1074 13.4006 28.0754 13.4084 28.0441C13.4985 27.6881 14.1541 25.6271 17.2851 25.4869C17.2851 25.4869 20.0479 25.2313 21.019 26.4591L21.1229 26.6639C21.0768 26.6223 21.0247 26.5878 20.9684 26.5614Z" fill="#5DC5F9"/>
<path d="M32.5582 22.9531C32.5582 22.9531 32.1953 24.922 33.8352 26.9702L33.6578 27.4315C33.6578 27.4315 32.3274 28.148 31.611 30.6039L30.7925 29.0176C30.7925 29.0176 30.6899 28.8642 30.3831 28.9665L29.8203 29.1713L29.8714 28.9665L30.4854 28.7108C30.4854 28.7108 30.8436 28.6086 30.997 28.9154L31.5598 30.0924C31.5598 30.0924 31.918 28.3526 33.5041 27.227C33.5041 27.227 32.0714 24.9757 32.3274 23.2873L32.5582 22.9531Z" fill="#5DC5F9"/>
<path d="M28.9502 29.9895C28.9502 29.9895 30.2291 28.4547 30.3317 27.9941C30.3317 27.9941 29.9735 29.2734 29.4118 29.9895H28.9502Z" fill="#122A44"/>
<path d="M30.332 24.7721C30.332 24.7721 31.5598 24.0556 32.226 22.4695L32.6351 22.3672C32.6351 22.3672 32.7368 24.3627 30.332 24.7721Z" fill="#5DC5F9"/>
<path d="M32.4298 22.0078C32.4298 22.0078 32.0204 23.8499 30.332 24.7709C30.332 24.7709 32.0715 24.0033 32.8391 22.2636L32.4298 22.0078ZM30.8949 26.2038C30.8949 26.2038 32.2287 27.2511 34.12 26.9321V27.4251C34.12 27.4251 32.2253 27.4828 30.8949 26.2038Z" fill="#122A44"/>
<path opacity="0.63" d="M9.66058 18.4264L11.3489 16.6357H11.2467L9.55834 18.4264H9.66058ZM9.25119 18.3753L11.0932 16.5846L10.6327 16.5332L8.8418 18.3241L9.25119 18.3753Z" fill="white"/>
<path d="M10.3254 16.7375L11.8603 17.0446V16.8909L10.3254 16.7375ZM10.0186 18.1702L11.7069 18.3236L11.6558 18.4773L10.0186 18.1702ZM14.777 16.3281L17.0793 16.6863L16.7213 19.6028L16.9259 19.5004L17.2841 16.584L14.777 16.3281ZM17.7447 17.6073L19.2284 17.9141L17.6932 17.8119L17.7447 17.6073ZM17.4887 19.0912L18.9725 19.3983L17.4887 19.2446V19.0912Z" fill="#4F1A00"/>
<path d="M18.1025 17.6602L20.5073 18.0184L21.582 19.6044L20.6099 18.3763L20.4561 19.809H20.3539L20.4561 18.1718L18.1025 17.6602Z" fill="white"/>
<path d="M20.0469 19.5532C20.0469 19.5532 20.7122 19.5532 20.8656 20.2694C20.8656 20.2694 20.8656 19.502 20.0469 19.5532Z" fill="#4F1A00"/>
<path d="M12.8329 16.2773C12.8329 16.2773 12.6284 18.4776 12.4238 19.2961C12.4238 19.2961 12.5773 16.9935 12.8329 16.2773Z" fill="white"/>
<path d="M14.3163 16.1238L12.6277 15.9702C12.6277 15.9702 12.3718 18.4261 12.1678 19.4496C12.1678 19.4496 12.3212 16.7378 12.526 15.7656L14.3163 16.1238ZM8.89258 18.2727L9.19966 16.5329L11.7068 16.84L9.0463 16.3795L8.89258 18.2727Z" fill="white"/>
<path opacity="0.63" d="M17.0281 15.8167L16.5676 16.2773L16.1582 16.2261L16.6187 15.7656L17.0281 15.8167Z" fill="white"/>
</g>
<defs>
<linearGradient id="paint0_linear_1_15956" x1="28.0578" y1="10.5879" x2="26.0064" y2="9.90472" gradientUnits="userSpaceOnUse">
<stop offset="0.33" stop-color="#F3F5F7"/>
<stop offset="0.78" stop-color="#8099B9"/>
</linearGradient>
<linearGradient id="paint1_linear_1_15956" x1="29.8917" y1="10.9783" x2="27.5307" y2="10.858" gradientUnits="userSpaceOnUse">
<stop offset="0.33" stop-color="#F3F5F7"/>
<stop offset="0.37" stop-color="#E4E9EF"/>
<stop offset="0.48" stop-color="#C0CCDC"/>
<stop offset="0.59" stop-color="#A4B6CC"/>
<stop offset="0.7" stop-color="#90A6C2"/>
<stop offset="0.81" stop-color="#849CBB"/>
<stop offset="0.91" stop-color="#8099B9"/>
</linearGradient>
<linearGradient id="paint2_linear_1_15956" x1="26.2766" y1="26.2656" x2="31.24" y2="29.0619" gradientUnits="userSpaceOnUse">
<stop offset="0.12" stop-color="#1797E5"/>
<stop offset="0.14" stop-color="#1693E1"/>
<stop offset="0.33" stop-color="#0A6FBA"/>
<stop offset="0.48" stop-color="#0358A2"/>
<stop offset="0.57" stop-color="#005099"/>
<stop offset="0.71" stop-color="#0663AD"/>
<stop offset="0.99" stop-color="#1694E2"/>
<stop offset="1" stop-color="#1797E5"/>
</linearGradient>
<linearGradient id="paint3_linear_1_15956" x1="10.7596" y1="14.4942" x2="28.2974" y2="30.7985" gradientUnits="userSpaceOnUse">
<stop offset="0.13" stop-color="#1797E5"/>
<stop offset="0.26" stop-color="#1693E1"/>
<stop offset="0.4" stop-color="#1287D4"/>
<stop offset="0.54" stop-color="#0B73BE"/>
<stop offset="0.69" stop-color="#0257A0"/>
<stop offset="0.72" stop-color="#005099"/>
</linearGradient>
<linearGradient id="paint4_linear_1_15956" x1="19.2485" y1="27.0288" x2="13.5573" y2="15.1242" gradientUnits="userSpaceOnUse">
<stop offset="0.33" stop-color="#F3F5F7"/>
<stop offset="0.78" stop-color="#8099B9"/>
</linearGradient>
<linearGradient id="paint5_linear_1_15956" x1="21.2047" y1="19.5455" x2="16.0059" y2="18.4105" gradientUnits="userSpaceOnUse">
<stop offset="0.17" stop-color="#F7AE2D"/>
<stop offset="0.86" stop-color="#B04211"/>
</linearGradient>
<linearGradient id="paint6_linear_1_15956" x1="8.66262" y1="17.5714" x2="12.5407" y2="17.9104" gradientUnits="userSpaceOnUse">
<stop offset="0.17" stop-color="#F7AE2D"/>
<stop offset="0.86" stop-color="#B04211"/>
</linearGradient>
<linearGradient id="paint7_linear_1_15956" x1="9.97357" y1="16.1894" x2="13.1368" y2="6.25428" gradientUnits="userSpaceOnUse">
<stop offset="0.26" stop-color="#1797E5"/>
<stop offset="0.4" stop-color="#1694E2"/>
<stop offset="0.51" stop-color="#138BD8"/>
<stop offset="0.61" stop-color="#0E7CC8"/>
<stop offset="0.7" stop-color="#0767B1"/>
<stop offset="0.77" stop-color="#005099"/>
</linearGradient>
<linearGradient id="paint8_linear_1_15956" x1="18.6915" y1="23.7086" x2="16.2904" y2="22.987" gradientUnits="userSpaceOnUse">
<stop offset="0.26" stop-color="#1797E5"/>
<stop offset="0.77" stop-color="#005099"/>
</linearGradient>
<linearGradient id="paint9_linear_1_15956" x1="22.0231" y1="22.3221" x2="18.7343" y2="23.0881" gradientUnits="userSpaceOnUse">
<stop offset="0.26" stop-color="#1797E5"/>
<stop offset="0.77" stop-color="#005099"/>
</linearGradient>
<radialGradient id="paint10_radial_1_15956" cx="0" cy="0" r="1" gradientUnits="userSpaceOnUse" gradientTransform="translate(27.2337 26.9564) rotate(6.67929) scale(10.9379 7.54718)">
<stop offset="0.26" stop-color="#1797E5"/>
<stop offset="0.77" stop-color="#005099"/>
</radialGradient>
<linearGradient id="paint11_linear_1_15956" x1="6.37399" y1="4.85799" x2="15.7046" y2="5.80796" gradientUnits="userSpaceOnUse">
<stop offset="0.33" stop-color="#F3F5F7"/>
<stop offset="0.78" stop-color="#8099B9"/>
</linearGradient>
<linearGradient id="paint12_linear_1_15956" x1="11.1218" y1="6.55708" x2="17.261" y2="6.55708" gradientUnits="userSpaceOnUse">
<stop offset="0.33" stop-color="#F3F5F7"/>
<stop offset="0.78" stop-color="#8099B9"/>
</linearGradient>
<linearGradient id="paint13_linear_1_15956" x1="14.5505" y1="7.01691" x2="17.6204" y2="7.01691" gradientUnits="userSpaceOnUse">
<stop offset="0.33" stop-color="#F3F5F7"/>
<stop offset="0.78" stop-color="#8099B9"/>
</linearGradient>
<linearGradient id="paint14_linear_1_15956" x1="20.1535" y1="3.32585" x2="18.7251" y2="1.10203" gradientUnits="userSpaceOnUse">
<stop offset="0.33" stop-color="#F3F5F7"/>
<stop offset="0.78" stop-color="#8099B9"/>
</linearGradient>
<linearGradient id="paint15_linear_1_15956" x1="27.1248" y1="5.75749" x2="25.1162" y2="6.81121" gradientUnits="userSpaceOnUse">
<stop offset="0.33" stop-color="#F3F5F7"/>
<stop offset="0.78" stop-color="#8099B9"/>
</linearGradient>
<linearGradient id="paint16_linear_1_15956" x1="29.4191" y1="21.1432" x2="27.2594" y2="19.7087" gradientUnits="userSpaceOnUse">
<stop offset="0.33" stop-color="#F3F5F7"/>
<stop offset="0.78" stop-color="#8099B9"/>
</linearGradient>
<linearGradient id="paint17_linear_1_15956" x1="25.2031" y1="19.5638" x2="22.9821" y2="18.8733" gradientUnits="userSpaceOnUse">
<stop offset="0.33" stop-color="#F3F5F7"/>
<stop offset="0.78" stop-color="#8099B9"/>
</linearGradient>
<linearGradient id="paint18_linear_1_15956" x1="15.4864" y1="19.8512" x2="16.9682" y2="19.7411" gradientUnits="userSpaceOnUse">
<stop offset="0.33" stop-color="#F3F5F7"/>
<stop offset="0.78" stop-color="#8099B9"/>
</linearGradient>
<linearGradient id="paint19_linear_1_15956" x1="13.8688" y1="19.5578" x2="15.3536" y2="19.6172" gradientUnits="userSpaceOnUse">
<stop offset="0.33" stop-color="#F3F5F7"/>
<stop offset="0.78" stop-color="#8099B9"/>
</linearGradient>
<linearGradient id="paint20_linear_1_15956" x1="12.982" y1="13.6896" x2="13.9609" y2="14.9546" gradientUnits="userSpaceOnUse">
<stop offset="0.33" stop-color="#F3F5F7"/>
<stop offset="0.78" stop-color="#8099B9"/>
</linearGradient>
<linearGradient id="paint21_linear_1_15956" x1="14.583" y1="13.528" x2="15.6157" y2="14.8625" gradientUnits="userSpaceOnUse">
<stop offset="0.33" stop-color="#F3F5F7"/>
<stop offset="0.78" stop-color="#8099B9"/>
</linearGradient>
<linearGradient id="paint22_linear_1_15956" x1="16.4794" y1="13.522" x2="17.4093" y2="14.7238" gradientUnits="userSpaceOnUse">
<stop offset="0.33" stop-color="#F3F5F7"/>
<stop offset="0.78" stop-color="#8099B9"/>
</linearGradient>
<linearGradient id="paint23_linear_1_15956" x1="12.175" y1="19.9871" x2="13.6748" y2="20.0471" gradientUnits="userSpaceOnUse">
<stop offset="0.33" stop-color="#F3F5F7"/>
<stop offset="0.78" stop-color="#8099B9"/>
</linearGradient>
<radialGradient id="paint24_radial_1_15956" cx="0" cy="0" r="1" gradientUnits="userSpaceOnUse" gradientTransform="translate(8.74127 25.4358) scale(10.1845 6.41595)">
<stop offset="0.17" stop-color="#3FC0E5"/>
<stop offset="0.62" stop-color="#20A1E6"/>
</radialGradient>
<linearGradient id="paint25_linear_1_15956" x1="23.4266" y1="21.095" x2="21.9718" y2="20.3542" gradientUnits="userSpaceOnUse">
<stop offset="0.26" stop-color="#1797E5"/>
<stop offset="0.77" stop-color="#005099"/>
</linearGradient>
<linearGradient id="paint26_linear_1_15956" x1="27.9354" y1="22.4244" x2="26.0814" y2="21.4807" gradientUnits="userSpaceOnUse">
<stop offset="0.26" stop-color="#1797E5"/>
<stop offset="0.77" stop-color="#005099"/>
</linearGradient>
<linearGradient id="paint27_linear_1_15956" x1="15.9419" y1="23.0027" x2="11.6528" y2="21.2026" gradientUnits="userSpaceOnUse">
<stop offset="0.26" stop-color="#1797E5"/>
<stop offset="0.77" stop-color="#005099"/>
</linearGradient>
<linearGradient id="paint28_linear_1_15956" x1="17.4279" y1="22.6164" x2="12.7043" y2="20.8674" gradientUnits="userSpaceOnUse">
<stop offset="0.26" stop-color="#1797E5"/>
<stop offset="0.77" stop-color="#005099"/>
</linearGradient>
<linearGradient id="paint29_linear_1_15956" x1="18.3188" y1="12.523" x2="20.495" y2="14.0069" gradientUnits="userSpaceOnUse">
<stop offset="0.26" stop-color="#1797E5"/>
<stop offset="0.77" stop-color="#005099"/>
</linearGradient>
<clipPath id="clip0_1_15956">
<rect width="36" height="36" fill="white" transform="translate(0 0.689453)"/>
</clipPath>
</defs>
</svg>
