<svg width="36" height="37" viewBox="0 0 36 37" fill="none" xmlns="http://www.w3.org/2000/svg">
<g clip-path="url(#clip0_1_15659)">
<path d="M19.0968 16.0425C18.8871 12.0217 18.6357 8.00297 18.3929 3.98393C18.3281 2.91041 18.2322 1.83884 18.1505 0.766327C18.1341 0.764815 18.1176 0.763231 18.1012 0.761719C18.0916 0.824863 18.0777 0.887719 18.0731 0.951223C17.876 3.64813 17.6306 6.34265 17.4942 9.04273C17.3731 11.4411 17.2589 13.84 17.1572 16.2394C17.8179 16.3095 18.5148 16.4426 19.1333 16.7917C19.1219 16.5419 19.1098 16.2921 19.0968 16.0425Z" fill="url(#paint0_linear_1_15659)"/>
<path d="M16.875 26.4336C16.8876 27.8003 16.9246 29.1674 16.9669 30.5328C17.0205 32.2648 17.1906 33.9937 17.3282 35.7223C17.366 36.1972 17.5996 36.5473 18.1436 36.5423C18.6828 36.5374 18.8952 36.1813 18.9274 35.7149C19.0685 33.6628 19.2545 31.6111 19.3051 29.5563C19.3071 29.475 19.3081 29.3937 19.3099 29.3124C18.7381 28.1541 17.9664 27.1346 16.875 26.4336Z" fill="#77D1F3"/>
<path d="M19.2877 22.2499C19.2847 22.0518 19.2806 21.8537 19.2772 21.6556C18.6086 21.0963 17.8317 20.6556 16.9958 20.3828C16.9626 21.3187 16.9311 22.2545 16.903 23.1905C16.8707 24.2706 16.8657 25.3519 16.8757 26.4334C17.9671 27.1344 18.7389 28.154 19.3106 29.3123C19.3623 26.9594 19.3237 24.6037 19.2877 22.2499Z" fill="#44BCEE"/>
<path d="M19.1335 16.7925C18.515 16.4433 17.8181 16.3103 17.1574 16.2402C17.0989 17.6213 17.0452 19.0027 16.9961 20.3841C17.832 20.6569 18.6089 21.0977 19.2774 21.6569C19.2493 20.035 19.2077 18.4128 19.1335 16.7925Z" fill="#34ADE6"/>
<path d="M22.7577 19.1145C22.7377 18.8603 22.717 18.6061 22.695 18.3522C22.3144 13.9503 21.4918 9.6275 20.0718 5.43263C19.8049 4.64423 19.484 3.87412 19.1376 2.96289C19.1211 3.14087 19.114 3.16831 19.1168 3.19466C19.3915 5.74648 19.6563 8.29939 19.9445 10.8497C20.1934 13.0513 20.3674 15.2567 20.4637 17.4647C21.2714 17.9526 22.1639 18.403 22.7577 19.1145Z" fill="url(#paint1_linear_1_15659)"/>
<path d="M20.5035 24.4346C20.3875 27.9422 20.1378 31.4453 19.9557 34.9509C19.9356 35.3381 20.101 35.6494 20.5028 35.7569C20.8903 35.8607 21.1586 35.6684 21.3117 35.3292C21.4839 34.948 21.6454 34.5594 21.7757 34.1622C22.4446 32.1215 22.7719 30.029 22.9124 27.9163C22.4767 26.1188 21.8896 24.195 20.5417 22.8223C20.5336 23.3596 20.5213 23.897 20.5035 24.4346Z" fill="#49C0F0"/>
<path d="M22.7579 19.1147C22.1642 18.4032 21.2717 17.9529 20.4639 17.4648C20.5416 19.2486 20.568 21.0342 20.5413 22.821C21.8893 24.1937 22.4763 26.1175 22.9121 27.9151C22.9749 26.9701 23.0006 26.0213 23.0026 25.071C23.0068 23.086 22.9135 21.0957 22.7579 19.1147Z" fill="#3AA8E2"/>
<path d="M17.0362 3.11523C16.7569 3.85554 16.4456 4.58555 16.2032 5.33773C15.0343 8.96423 14.2133 12.6306 13.7412 16.3357C14.4496 16.1996 15.162 16.0271 15.9273 16.0629C16.1718 12.4955 16.5561 8.93593 16.8724 5.37272C16.9387 4.62644 17.0351 3.88275 17.1175 3.13791C17.0904 3.13028 17.0633 3.12272 17.0362 3.11523Z" fill="url(#paint2_linear_1_15659)"/>
<path d="M15.7377 20.118C14.954 19.8253 14.1704 20.0963 13.3867 20.0613C13.2759 21.7961 13.2404 23.5391 13.2808 25.2905C14.1334 25.2982 15.0313 25.3784 15.7717 25.785C15.7253 23.8969 15.699 22.0055 15.7377 20.118Z" fill="#49BFEF"/>
<path d="M16.3017 34.83C16.1252 32.1266 15.871 29.4253 15.7964 26.7191C15.7879 26.4081 15.7798 26.0968 15.7722 25.7856C15.0317 25.3789 14.1338 25.2987 13.2812 25.291C13.3131 26.6672 13.3918 28.0483 13.5181 29.4346C13.6993 31.4243 14.0827 33.3815 14.8966 35.2286C15.0618 35.6034 15.3065 35.8769 15.7503 35.7572C16.2087 35.6335 16.3304 35.2688 16.3017 34.83Z" fill="#77D1F3"/>
<path d="M15.7377 20.118C15.7549 19.2778 15.7845 18.4384 15.8315 17.6003C15.8602 17.0878 15.8924 16.5755 15.9275 16.0634C15.1622 16.0275 14.4499 16.2001 13.7414 16.3362C13.5837 17.5735 13.4664 18.8153 13.3867 20.0613C14.1704 20.0963 14.9541 19.8253 15.7377 20.118Z" fill="#2DB4EC"/>
<path d="M24.068 21.0059C24.0915 21.4123 24.1121 21.8193 24.126 22.2273C24.2563 26.0522 23.9177 29.8328 22.9037 33.5369C22.7938 33.9385 22.868 34.2776 23.2513 34.471C23.6428 34.6686 23.9444 34.4608 24.1178 34.1287C24.4484 33.4952 24.8287 32.8658 25.0241 32.1875C25.592 30.2152 25.909 28.2154 26.0435 26.1989C25.8128 24.3357 25.138 22.5073 24.068 21.0059Z" fill="url(#paint3_linear_1_15659)"/>
<path d="M26.046 21.249C25.8017 17.029 24.6126 13.06 22.7233 9.29314C22.4468 8.7417 22.1146 8.21811 21.8082 7.68164C21.7872 7.6915 21.7661 7.70144 21.7451 7.7113C21.7581 7.76574 21.7695 7.82067 21.7844 7.8746C22.9821 12.1804 23.8097 16.5484 24.068 21.006C25.138 22.5074 25.6991 24.3489 26.0435 26.1991C26.153 24.5583 26.1419 22.9063 26.046 21.249Z" fill="url(#paint4_linear_1_15659)"/>
<path d="M12.6281 16.6348C11.9595 16.7978 11.3379 17.14 10.7205 17.4037C10.4741 18.6714 10.3089 19.9625 10.2217 21.2757C10.8052 20.76 11.5357 20.5884 12.2336 20.3569C12.3224 19.1096 12.4553 17.8691 12.6281 16.6348Z" fill="#2FBBF0"/>
<path d="M12.1677 21.4318C12.1857 21.0724 12.2081 20.7137 12.2336 20.3555C11.5356 20.5871 10.8051 20.7587 10.2216 21.2743C10.2017 21.5745 10.1845 21.8755 10.1729 22.178C10.121 23.5271 10.1428 24.8739 10.2389 26.2161C10.8524 25.8793 11.4686 25.6082 12.1441 25.4594C12.0898 24.1232 12.1001 22.7806 12.1677 21.4318Z" fill="#52C4F1"/>
<path d="M12.1435 25.4609C11.468 25.6098 10.8519 25.8808 10.2383 26.2177C10.3188 27.3435 10.4515 28.4661 10.6385 29.5841C10.9014 31.1564 11.194 32.7268 12.1094 34.0879C12.3188 34.3992 12.5745 34.6756 12.9988 34.4756C13.4175 34.2783 13.457 33.9138 13.3485 33.5118C12.6323 30.8587 12.2539 28.1733 12.1435 25.4609Z" fill="#77D1F3"/>
<path d="M14.5297 7.61328C14.4171 7.78435 14.359 7.86449 14.3091 7.94945C12.554 10.9372 11.3642 14.0914 10.7207 17.4024C11.3382 17.1387 11.9598 16.7966 12.6283 16.6335C12.917 14.5716 13.3153 12.5263 13.7992 10.4936C14.0202 9.56542 14.2676 8.64353 14.5297 7.61328Z" fill="url(#paint5_linear_1_15659)"/>
<path d="M26.6893 16.1265C26.3113 15.4303 25.9225 14.7399 25.5386 14.0469C25.518 14.0568 25.4973 14.0668 25.4766 14.0768C25.5 14.1408 25.5236 14.2048 25.5466 14.269C27.0727 18.5319 27.6655 22.9068 27.0455 27.4087C26.8417 28.8886 26.4993 30.349 26.2491 31.8232C26.2236 31.9729 26.1835 32.2179 26.221 32.3783C26.2547 32.5223 26.417 32.5926 26.5464 32.5211C26.6859 32.444 26.8922 32.2193 26.9914 32.1066C28.4996 30.394 28.9753 28.4127 29.0913 26.1994C29.2797 22.6088 28.389 19.2569 26.6893 16.1265Z" fill="url(#paint6_linear_1_15659)"/>
<path d="M9.37829 19.2731C9.44373 18.9327 9.51725 18.594 9.59407 18.2559C9.06552 18.567 8.64223 18.9833 8.16415 19.3449C7.52947 21.0827 7.18639 22.8402 7.15039 24.6101C7.6721 23.7588 8.29641 23.0551 8.97833 22.3632C9.04766 21.3348 9.18 20.3047 9.37829 19.2731Z" fill="#3AC1F1"/>
<path d="M9.11946 27.2275C8.91814 25.6116 8.86875 23.9896 8.97855 22.3633C8.29671 23.0552 7.67233 23.7589 7.15062 24.6103C7.1203 26.0989 7.30822 27.5963 7.72208 29.0979C8.06689 28.3746 8.5328 27.7689 9.11946 27.2275Z" fill="#5DCAF2"/>
<path d="M10.0288 32.1933C10.0314 31.7459 9.96225 31.363 9.84849 30.939C9.51758 29.7062 9.27364 28.4691 9.11913 27.2285C8.53247 27.7699 8.06656 28.3755 7.72168 29.0989C7.79685 29.3717 7.87864 29.6447 7.96886 29.9177C8.29127 30.8937 8.81183 31.769 9.58857 32.4656C9.64365 32.515 9.72191 32.5385 9.80176 32.5603C9.87851 32.5811 9.95915 32.5433 9.99213 32.471C10.027 32.3945 10.0284 32.2654 10.0288 32.1933Z" fill="#77D1F3"/>
<path d="M8.36372 18.8204C8.29388 18.995 8.228 19.1698 8.16406 19.3448C8.64214 18.9833 9.06543 18.5669 9.59398 18.2558C9.89444 16.9334 10.2655 15.6246 10.599 14.3086C9.84332 15.8083 8.98486 17.2669 8.36372 18.8204Z" fill="#08B2EF"/>
<path d="M10.7277 14.0971C10.7036 14.0947 10.6795 14.0923 10.6555 14.0898C10.6373 14.163 10.6182 14.2359 10.5996 14.309C10.6081 14.2922 10.6167 14.2755 10.6251 14.2587C10.6536 14.2019 10.6933 14.1508 10.7277 14.0971Z" fill="#77D1F3"/>
</g>
<defs>
<linearGradient id="paint0_linear_1_15659" x1="17.8881" y1="0.765196" x2="18.1501" y2="16.8077" gradientUnits="userSpaceOnUse">
<stop stop-color="#6556A5"/>
<stop offset="0.9989" stop-color="#3084CB"/>
</linearGradient>
<linearGradient id="paint1_linear_1_15659" x1="20.8028" y1="2.93564" x2="21.0674" y2="19.1421" gradientUnits="userSpaceOnUse">
<stop stop-color="#6556A5"/>
<stop offset="0.9989" stop-color="#3084CB"/>
</linearGradient>
<linearGradient id="paint2_linear_1_15659" x1="15.3217" y1="3.14321" x2="15.5366" y2="16.3064" gradientUnits="userSpaceOnUse">
<stop stop-color="#5267B3"/>
<stop offset="0.9989" stop-color="#0FA1E3"/>
</linearGradient>
<linearGradient id="paint3_linear_1_15659" x1="21.3371" y1="33.3581" x2="25.893" y2="23.8665" gradientUnits="userSpaceOnUse">
<stop stop-color="#03ACEC"/>
<stop offset="1" stop-color="#3EA8E1"/>
</linearGradient>
<linearGradient id="paint4_linear_1_15659" x1="23.831" y1="9.30111" x2="24.0208" y2="20.9282" gradientUnits="userSpaceOnUse">
<stop stop-color="#6556A5"/>
<stop offset="0.9989" stop-color="#3084CB"/>
</linearGradient>
<linearGradient id="paint5_linear_1_15659" x1="12.5458" y1="7.64566" x2="12.7046" y2="17.37" gradientUnits="userSpaceOnUse">
<stop stop-color="#3480C8"/>
<stop offset="0.9994" stop-color="#03B0EE"/>
</linearGradient>
<linearGradient id="paint6_linear_1_15659" x1="26.667" y1="14.4143" x2="27.9484" y2="32.4956" gradientUnits="userSpaceOnUse">
<stop stop-color="#5465B2"/>
<stop offset="1" stop-color="#03ACEC"/>
</linearGradient>
<clipPath id="clip0_1_15659">
<rect width="36" height="36" fill="white" transform="translate(0 0.689453)"/>
</clipPath>
</defs>
</svg>
