<svg width="36" height="37" viewBox="0 0 36 37" fill="none" xmlns="http://www.w3.org/2000/svg">
<g clip-path="url(#clip0_1_15816)">
<path d="M8.24609 3.76888L13.5161 0.810547L33.6092 12.5207V19.0456L28.2078 22.0271L13.8185 13.811V12.7797L27.896 20.8402L27.8689 16.0361L13.8643 7.83998L13.848 6.86215L28.1946 15.3851L32.5915 12.7525L13.5939 1.83302L9.19491 4.26741L8.24609 3.76888Z" fill="#6FD562"/>
<path d="M33.6087 19.0442V24.8261L13.5765 36.4245L7.92578 33.1621V26.9979L22.3165 18.6621L23.1238 19.1231L9.22819 27.3171L13.4022 29.6956L27.436 21.5853L28.2073 22.0257L13.8786 30.3331L13.8846 35.4272L32.84 24.4346L32.8368 19.4702L33.6087 19.0442Z" fill="#1F2645"/>
<path d="M7.92578 33.1628L2.78613 30.2422L2.78656 6.93231L8.43727 3.66992L13.8475 6.86139L13.7995 23.5962L13.0078 24.0626L12.9778 7.85571L8.70122 10.3068L8.71209 26.5431L7.92578 26.9986V10.3068L3.67015 7.89236L3.62544 29.6609L7.92578 32.1798V33.1628Z" fill="#2470D5"/>
</g>
<defs>
<clipPath id="clip0_1_15816">
<rect width="36" height="36" fill="white" transform="translate(0 0.689453)"/>
</clipPath>
</defs>
</svg>
