<svg width="36" height="37" viewBox="0 0 36 37" fill="none" xmlns="http://www.w3.org/2000/svg">
<g clip-path="url(#clip0_1_15837)">
<path d="M21.4052 33.1116C21.4052 34.998 19.8932 36.51 18.0068 36.51C16.1348 36.51 14.6084 34.998 14.6084 33.1116V4.34762C14.6084 2.46122 16.142 0.949219 18.0068 0.949219C19.8932 0.949219 21.4052 2.48282 21.4052 4.34762V33.1116Z" fill="#51DED2"/>
<path d="M31.6084 6.06836C29.7364 6.06836 28.21 7.58036 28.21 9.46676V20.6988C28.21 22.5852 29.722 24.0972 31.6084 24.0972C33.4948 24.0972 35.0068 22.5636 35.0068 20.6988V9.46676C35.014 7.58036 33.4948 6.06836 31.6084 6.06836Z" fill="#51DED2"/>
<path d="M7.79778 33.1111C7.79778 34.9975 6.26418 36.5095 4.39938 36.5095C2.52738 36.5095 1.00098 34.9975 1.00098 33.1111V28.2871C1.00098 26.4151 2.53458 24.8887 4.39938 24.8887C6.27138 24.8887 7.79778 26.4223 7.79778 28.2871V33.1111Z" fill="#51DED2"/>
</g>
<defs>
<clipPath id="clip0_1_15837">
<rect width="36" height="36" fill="white" transform="translate(0 0.689453)"/>
</clipPath>
</defs>
</svg>
