<svg width="36" height="37" viewBox="0 0 36 37" fill="none" xmlns="http://www.w3.org/2000/svg">
<path d="M5.14503 17.0038C5.97044 18.6648 5.83774 19.9069 4.75241 20.8697C3.86415 21.6578 2.52178 21.7664 1.50701 21.1323C0.420389 20.4534 -0.059419 19.1821 0.311381 17.9646C0.719765 16.6239 1.79026 15.9982 3.65463 16.0418C4.21594 15.1187 4.79144 14.1737 5.36571 13.2278C6.05129 12.0986 6.73486 10.9683 7.42116 9.83949C7.7785 9.25175 8.25212 9.08197 8.73099 9.36486C9.20648 9.64573 9.27934 10.1489 8.92157 10.7386C7.80701 12.5756 6.689 14.4103 5.5748 16.2474C5.42079 16.5016 5.28082 16.7642 5.14503 17.0038ZM2.9496 19.7921C3.48838 19.7948 3.95804 19.3256 3.96473 18.778C3.97143 18.2294 3.51344 17.78 2.94939 17.7817C2.37411 17.7835 1.93815 18.2129 1.93865 18.7776C1.93908 19.3228 2.40413 19.7895 2.9496 19.7921ZM9.90545 29.1652C11.6971 29.1952 12.7378 29.9018 13.0849 31.3049C13.3735 32.4717 12.7912 33.7601 11.7049 34.3579C10.6329 34.9478 9.25234 34.7315 8.40072 33.8403C7.41749 32.8112 7.39244 31.583 8.3432 29.9963C7.38963 28.3356 6.42663 26.658 5.46298 24.9807C5.19989 24.5227 4.9273 24.07 4.67285 23.6073C4.3778 23.0709 4.485 22.5792 4.93637 22.3203C5.38421 22.0635 5.87223 22.212 6.17916 22.7406C7.33757 24.7356 8.4836 26.7377 9.63567 28.7364C9.72264 28.887 9.82092 29.0312 9.90545 29.1652ZM10.3858 30.9292C9.80249 30.9322 9.38633 31.3496 9.38857 31.9294C9.3908 32.5086 9.81293 32.9288 10.3916 32.9277C10.9572 32.9267 11.3961 32.4879 11.3971 31.9228C11.3982 31.3663 10.9502 30.9263 10.3858 30.9292ZM25.9553 8.54946C24.4703 8.67957 23.2588 7.94121 22.8609 6.7041C22.4533 5.4364 22.9372 4.12024 24.0583 3.4479C25.1669 2.78305 26.5461 2.96622 27.4496 3.89826C28.4456 4.9257 28.473 6.24813 27.5069 7.73269C28.4185 9.31698 29.3393 10.917 30.2599 12.517C30.5584 13.0358 30.8622 13.5517 31.1535 14.0745C31.4761 14.6535 31.392 15.141 30.9358 15.4155C30.4792 15.6903 29.9986 15.5317 29.6652 14.9585C28.5144 12.9801 27.3745 10.9953 26.23 9.01314C26.143 8.86245 26.0526 8.71362 25.9553 8.54946ZM25.4636 6.81865C26.0267 6.82636 26.4679 6.40163 26.4831 5.83729C26.4979 5.28556 26.0594 4.82109 25.5081 4.80438C24.9289 4.78689 24.4644 5.23869 24.4636 5.82023C24.4628 6.38622 24.8881 6.81073 25.4636 6.81865ZM32.3232 21.6721C31.4675 23.0817 30.6003 24.5096 29.7336 25.938C29.3226 26.6154 28.9215 27.2992 28.4995 27.9697C28.1526 28.5208 27.6656 28.6574 27.2078 28.3613C26.789 28.0903 26.7071 27.5722 27.0208 27.054C28.2971 24.9454 29.5787 22.84 30.8543 20.7403C29.9875 19.4499 30.0105 18.0474 31.1587 16.9324C32.0702 16.0473 33.4537 15.9627 34.5257 16.6584C35.5578 17.3281 36.017 18.6321 35.636 19.8111C35.2016 21.1558 34.117 21.7744 32.3232 21.6721ZM33.0334 17.9415C32.4479 17.9436 31.9939 18.4027 32.0066 18.9798C32.0189 19.5355 32.463 19.9787 33.0151 19.9862C33.5713 19.9937 34.0477 19.5101 34.0423 18.9433C34.037 18.3978 33.5756 17.9396 33.0334 17.9415ZM13.0202 5.08828C15.4361 5.08828 17.8317 5.07942 20.2272 5.09965C20.5226 5.10217 20.8999 5.17792 21.0877 5.36886C21.2677 5.55189 21.3913 6.0039 21.2856 6.20248C21.1401 6.47557 20.7674 6.77092 20.4715 6.79396C19.5257 6.86776 18.5705 6.82002 17.619 6.81988C16.0689 6.81959 14.5187 6.81981 12.9791 6.81981C12.1736 8.47019 10.7283 8.90219 9.50398 8.51829C8.29496 8.13913 7.53284 7.05849 7.56502 5.79719C7.59634 4.56981 8.45984 3.50104 9.66728 3.19497C11.0302 2.84944 12.0478 3.41471 13.0202 5.08828ZM11.3213 5.87452C11.3168 5.32653 10.8507 4.86004 10.3096 4.86191C9.75965 4.86378 9.31628 5.32516 9.32125 5.89029C9.32621 6.45909 9.76181 6.89195 10.3291 6.89188C10.8811 6.89181 11.3259 6.43576 11.3213 5.87452ZM22.7583 31.1254C23.5431 29.5774 24.6631 28.9457 26.0312 29.2422C27.2215 29.5002 28.1101 30.5358 28.1779 31.7439C28.2503 33.035 27.4963 34.17 26.3054 34.5626C24.9517 35.0087 23.8161 34.4806 22.7726 32.8784C22.6218 32.8784 22.4322 32.8783 22.2426 32.8784C19.9524 32.8798 17.6622 32.8854 15.3721 32.8798C14.7905 32.8783 14.3871 32.4989 14.3918 32C14.3965 31.5126 14.7725 31.1668 15.3408 31.1348C15.5165 31.1248 15.693 31.1302 15.8692 31.13C17.948 31.1283 20.0267 31.1269 22.1055 31.1254C22.3159 31.1252 22.5262 31.1254 22.7583 31.1254ZM25.4495 30.9296C24.8922 30.9224 24.4487 31.3537 24.4366 31.9147C24.4245 32.4792 24.8476 32.9278 25.4063 32.9428C25.9966 32.9585 26.4464 32.5198 26.4431 31.9313C26.4399 31.3607 26.0196 30.937 25.4495 30.9296ZM25.6942 18.217C25.5698 18.0731 25.1588 18.073 24.9247 18.1506C24.4922 18.294 24.4575 18.7149 24.4372 19.1164C24.2772 22.2861 22.1435 24.7585 19.0389 25.3571C18.626 25.4367 18.1982 25.4363 17.7787 25.4852C17.2919 25.5419 17.0583 25.8659 17.058 26.3151C17.0576 26.7822 17.3449 27.0629 17.8137 27.1116C18.0398 27.1352 18.2722 27.1221 18.4998 27.1024C22.6284 26.7454 25.8057 23.4828 26.2089 19.2711C26.0455 18.9126 25.9414 18.503 25.6942 18.217ZM10.7347 19.6314C11.1965 19.4579 11.2362 19.0628 11.265 18.6375C11.4277 16.2364 12.5134 14.3856 14.5972 13.1495C15.5726 12.5709 16.6328 12.2999 17.7678 12.2766C18.3388 12.2649 18.6707 11.9268 18.6693 11.4496C18.6679 10.9565 18.294 10.6367 17.7061 10.6268C17.6358 10.6256 17.5652 10.6286 17.4949 10.631C13.2681 10.7739 9.72005 14.3676 9.62861 18.5981C9.61119 19.4093 10.0999 19.87 10.7347 19.6314ZM20.5601 18.8879C20.5555 20.3686 19.3474 21.5762 17.866 21.5807C16.3629 21.5853 15.1338 20.3585 15.1394 18.8592C15.1449 17.3887 16.368 16.1684 17.8418 16.163C19.3421 16.1576 20.5648 17.3832 20.5601 18.8879ZM16.8024 18.8647C16.7979 19.4697 17.2642 19.9326 17.8723 19.9268C18.4447 19.9214 18.9091 19.4549 18.9127 18.8818C18.9165 18.2786 18.4441 17.8117 17.8387 17.8202C17.261 17.8282 16.8067 18.2862 16.8024 18.8647ZM23.3864 19.0105C23.3833 18.3876 22.9845 17.9752 22.4512 18.0714C21.9225 18.1668 21.7801 18.5459 21.7423 19.0373C21.5806 21.1429 20.0794 22.6456 18.0499 22.7613C17.3907 22.7988 17.0345 23.0949 17.0406 23.6003C17.0468 24.1229 17.4424 24.4178 18.1181 24.4036C20.9281 24.345 23.4008 21.8137 23.3864 19.0105ZM13.0924 19.6915C13.5867 19.717 13.9301 19.36 13.9737 18.7754C14.1407 16.5341 15.5401 15.1441 17.8022 14.9724C18.3504 14.9308 18.6833 14.592 18.6577 14.1017C18.6333 13.6357 18.2978 13.3537 17.7553 13.343C14.9707 13.2881 12.3946 15.7744 12.338 18.5715C12.3235 19.2806 12.5826 19.6652 13.0924 19.6915Z" fill="url(#paint0_linear_1_15656)"/>
<defs>
<linearGradient id="paint0_linear_1_15656" x1="0.187519" y1="18.8827" x2="35.7689" y2="18.8827" gradientUnits="userSpaceOnUse">
<stop stop-color="#ED274D"/>
<stop offset="1" stop-color="#313192"/>
</linearGradient>
</defs>
</svg>
