<svg width="36" height="37" viewBox="0 0 36 37" fill="none" xmlns="http://www.w3.org/2000/svg">
<g clip-path="url(#clip0_1_15829)">
<path d="M35.5318 17.5595L22.7878 4.8155C22.1614 4.1891 21.1534 4.1891 20.527 4.8155L13.0606 12.2891L10.9006 10.1291C10.2742 9.5027 9.26625 9.5027 8.63265 10.1291L0.467847 18.2867C-0.158553 18.9131 -0.158553 19.9211 0.467847 20.5547L8.63265 28.7195C9.25905 29.3459 10.267 29.3459 10.9006 28.7195L12.3334 27.2867L6.32145 21.2819C5.69505 20.6555 5.69505 19.6475 6.32145 19.0211L6.65265 18.6899L20.5198 32.5571C21.1462 33.1835 22.1542 33.1835 22.7806 32.5571L35.5246 19.8131C36.1582 19.1939 36.1582 18.1859 35.5318 17.5595Z" fill="#6436FF"/>
</g>
<defs>
<clipPath id="clip0_1_15829">
<rect width="36" height="36" fill="white" transform="translate(0 0.689453)"/>
</clipPath>
</defs>
</svg>
