<svg width="36" height="37" viewBox="0 0 36 37" fill="none" xmlns="http://www.w3.org/2000/svg">
<g clip-path="url(#clip0_1_15654)">
<path d="M18 36.7617C27.9411 36.7617 36 28.7028 36 18.7617C36 8.82059 27.9411 0.761719 18 0.761719C8.05887 0.761719 0 8.82059 0 18.7617C0 28.7028 8.05887 36.7617 18 36.7617Z" fill="url(#paint0_radial_1_15654)"/>
<path d="M8.83436 9.59642C12.708 5.72282 18.432 4.81562 23.1696 6.87482L20.7 9.34442C17.3952 8.40122 13.6872 9.22922 11.0808 11.8356C7.63916 15.2772 7.29356 20.6484 10.0512 24.4716L13.7304 20.7924L15.9696 23.0316L10.0296 28.9716C9.61916 28.6476 9.22316 28.302 8.84156 27.9204C3.77276 22.866 3.77276 14.658 8.83436 9.59642Z" fill="white"/>
<path d="M12.8301 30.6489C17.5677 32.7081 23.2845 31.8009 27.1653 27.9273C32.2269 22.8657 32.2269 14.6577 27.1653 9.59612C26.7837 9.21452 26.3877 8.86892 25.9773 8.54492L20.0373 14.4849L22.2765 16.7241L25.9557 13.0449C28.7133 16.8681 28.3677 22.2393 24.9261 25.6809C22.3197 28.2873 18.6117 29.1153 15.3069 28.1721L12.8301 30.6489Z" fill="white"/>
<path d="M20.2391 18.7607L17.9999 16.5215L15.7607 18.7607L17.9999 20.9999L20.2391 18.7607Z" fill="white"/>
<path d="M13.7236 12.2461L15.9628 14.4853L13.7236 16.7245L11.4844 14.4853L13.7236 12.2461Z" fill="white"/>
<path d="M24.5165 23.038L22.2773 20.7988L20.0381 23.038L22.2773 25.2772L24.5165 23.038Z" fill="white"/>
</g>
<defs>
<radialGradient id="paint0_radial_1_15654" cx="0" cy="0" r="1" gradientUnits="userSpaceOnUse" gradientTransform="translate(18 18.7617) rotate(90) scale(18)">
<stop stop-color="#304FFE"/>
<stop offset="1" stop-color="#3D5AFE"/>
</radialGradient>
<clipPath id="clip0_1_15654">
<rect width="36" height="36" fill="white" transform="translate(0 0.689453)"/>
</clipPath>
</defs>
</svg>
