<svg width="36" height="37" viewBox="0 0 36 37" fill="none" xmlns="http://www.w3.org/2000/svg">
<g clip-path="url(#clip0_1_15761)">
<path d="M7.09863 12.6535C10.6382 14.6012 13.9687 16.4338 17.4947 18.3741C13.9497 20.4678 10.6073 22.4418 7.09863 24.514C7.09863 20.4647 7.09863 16.6736 7.09863 12.6535ZM18.1606 30.1727C21.732 32.2817 25.0765 34.2568 28.5421 36.3034C28.5421 32.2812 28.5421 28.4872 28.5421 24.473C25.0409 26.3952 21.6876 28.2363 18.1606 30.1727ZM28.5541 0.976562C25.0551 2.8981 21.6902 4.74612 18.167 6.68091C21.6804 8.75983 25.0035 10.7262 28.5541 12.8272C28.5541 8.78014 28.5541 4.98257 28.5541 0.976562Z" fill="black"/>
</g>
<defs>
<clipPath id="clip0_1_15761">
<rect width="36" height="36" fill="white" transform="translate(0 0.689453)"/>
</clipPath>
</defs>
</svg>
