<svg width="36" height="37" viewBox="0 0 36 37" fill="none" xmlns="http://www.w3.org/2000/svg">
<g clip-path="url(#clip0_1_15934)">
<path d="M34.1943 24.2975C34.1943 20.3464 34.1943 16.4011 34.1943 12.4614C34.1943 11.7503 34.028 11.0449 33.7299 10.4084C33.2654 9.38762 32.5542 8.4414 31.5737 7.86799C27.9208 5.74622 24.2564 3.64735 20.6035 1.52558C20.1849 1.28474 19.7146 1.15284 19.2501 1.02093C19.2501 1.04959 19.2558 1.11266 19.2558 1.13563C19.2501 1.11266 19.2329 1.05535 19.2157 1.02669C18.1949 0.831715 17.1226 0.883339 16.1305 1.1987C15.5283 1.39944 15.0065 1.77218 14.4503 2.07033C11.0898 4.00864 7.73513 5.94688 4.37467 7.87944C3.93309 8.14324 3.54314 8.48733 3.22202 8.88297C2.4306 9.82351 1.86864 11.0048 1.7998 12.2492C1.7998 16.5099 1.7998 20.7707 1.7998 25.0315C1.7998 25.8859 2.09227 26.706 2.48798 27.4572C2.97542 28.3174 3.63487 29.1145 4.51802 29.602C8.13076 31.6836 11.7436 33.771 15.3621 35.8469C15.8896 36.1508 16.4861 36.3286 17.0882 36.4089C18.2523 36.5465 19.491 36.4547 20.5404 35.9042C23.9754 33.9258 27.3989 31.9474 30.834 29.969C31.3386 29.6765 31.8719 29.4127 32.2963 29.0113C33.1909 28.1798 33.8331 27.073 34.1027 25.8802C34.223 25.3641 34.1943 24.8251 34.1943 24.2975Z" fill="#2B1544"/>
<path d="M20.4204 21.5046C20.8848 21.0516 21.5444 20.7764 22.2038 20.8337C22.9149 20.8509 23.6031 21.2294 23.9872 21.8372C24.5779 22.7261 24.4059 23.9992 23.6432 24.7389C22.8633 25.4844 21.5214 25.5704 20.6841 24.8708C20.0591 24.3489 19.5315 23.7181 18.9351 23.1676C18.9236 23.1332 18.9179 23.0587 18.9121 23.0185C19.4053 22.5139 19.9157 22.0207 20.4204 21.5046Z" fill="#2B1544"/>
<path d="M15.2131 11.1897C16.2281 10.255 17.1055 9.18259 17.8911 8.05859C18.0116 8.09877 18.0919 8.17905 18.1492 8.29375C18.7972 9.49226 19.7147 10.5302 20.6724 11.4993C21.2917 12.0957 21.7505 12.8756 21.9053 13.7301C22.1061 14.682 21.5383 15.7315 20.6322 16.0755C19.9613 16.3278 19.1929 16.2819 18.5506 15.9723C18.4301 15.9321 18.2294 15.7945 18.1549 15.9608C18.2753 16.7808 18.6996 17.4977 19.0839 18.2145C19.1756 18.3693 18.9978 18.4783 18.9119 18.5758C18.5161 18.9371 18.1778 19.3729 17.7478 19.6998C17.6159 19.6596 17.5298 19.5392 17.4381 19.4532C17.0653 19.069 16.6754 18.6962 16.3027 18.3063C16.2969 18.2776 16.2912 18.2088 16.2854 18.1858C16.6984 17.4575 17.2145 16.7465 17.3464 15.9035C17.2145 15.8805 17.0826 15.9035 16.9564 15.9551C16.2798 16.2189 15.5055 16.2762 14.8174 16.0067C14.1465 15.7545 13.6246 15.1179 13.5443 14.4011C13.4755 13.8678 13.6361 13.3345 13.8827 12.8699C14.1808 12.2105 14.6855 11.6829 15.2131 11.1897Z" fill="#FEFEFD"/>
<path d="M11.3482 19.6347C12.369 19.0211 13.6765 18.9409 14.766 19.4053C14.8577 19.4397 14.8749 19.457 14.9438 19.4971C15.2935 19.6347 15.5918 19.8584 15.8785 20.105C16.515 20.6497 17.0369 21.3207 17.6906 21.854C18.3214 21.2633 18.9063 20.6153 19.5486 20.0361C20.449 19.2161 21.7679 18.9752 22.9377 19.2104C24.767 19.5659 26.1318 21.4354 25.9999 23.2876C25.9426 24.4575 25.3519 25.6159 24.3771 26.2868C23.7176 26.7341 22.9377 27.0553 22.1292 27.0381C21.0682 27.0782 20.0246 26.6079 19.2676 25.874C17.8511 24.469 16.4748 23.0124 15.0469 21.6132C14.6283 21.1659 14.0663 20.8448 13.447 20.8047C13.0112 20.7874 12.5639 20.8907 12.1682 21.0857C11.5547 21.4125 11.1475 22.0548 11.0442 22.7372C10.9181 23.4597 11.1819 24.2396 11.7267 24.7328C12.5639 25.5299 14.0434 25.5242 14.8577 24.7042C15.0699 24.5322 15.2649 24.1766 15.586 24.32C15.7924 24.4404 15.9301 24.6411 16.1079 24.796C16.2398 24.9508 16.4519 25.0827 16.4692 25.3121C16.4692 25.5415 16.2627 25.6734 16.1194 25.8225C15.7409 26.2124 15.3051 26.5393 14.7947 26.7457C13.8026 27.1299 12.6614 27.1357 11.6751 26.7171C10.1211 26.0232 9.11753 24.2512 9.36981 22.5595C9.54182 21.3493 10.2643 20.2139 11.3482 19.6347ZM20.4203 21.5042C19.9214 22.0203 19.411 22.5077 18.9121 23.0181C18.9236 23.0526 18.9293 23.1271 18.9351 23.1673C19.5315 23.7178 20.0591 24.3486 20.6841 24.8704C21.5213 25.5758 22.8633 25.484 23.6432 24.7385C24.4059 23.9988 24.5779 22.7257 23.9873 21.8368C23.6088 21.2289 22.9149 20.8505 22.2038 20.8333C21.5442 20.7759 20.8848 21.0454 20.4203 21.5042Z" fill="#FEFEFD"/>
</g>
<defs>
<clipPath id="clip0_1_15934">
<rect width="36" height="36" fill="white" transform="translate(0 0.689453)"/>
</clipPath>
</defs>
</svg>
