<svg width="36" height="36" viewBox="0 0 36 36" fill="none" xmlns="http://www.w3.org/2000/svg">
<g clip-path="url(#clip0_1_15726)">
<path d="M16.416 11.8193L5.33517 22.9001C5.16957 23.0657 4.91037 23.0657 4.74477 22.9001L0.63357 18.7817C0.20157 18.3497 0.20157 17.6441 0.63357 17.2121L11.2248 6.62811C11.3904 6.46251 11.6496 6.46251 11.8152 6.62811L16.4232 11.2361C16.5816 11.3945 16.5816 11.6537 16.416 11.8193Z" fill="#214859"/>
<path d="M22.9175 5.31796L18.2591 9.97636C18.0935 10.142 17.8343 10.142 17.6687 9.97636L13.0607 5.36836C12.8951 5.20276 12.8951 4.94356 13.0607 4.77796L17.2295 0.609156C17.6615 0.177156 18.3671 0.177156 18.7991 0.609156L22.9175 4.72756C23.0831 4.89316 23.0831 5.15236 22.9175 5.31796Z" fill="#00B39E"/>
<path d="M19.5333 24.0312L30.6141 12.9504C30.7797 12.7848 31.0389 12.7848 31.2045 12.9504L35.3229 17.0688C35.7549 17.5008 35.7549 18.2064 35.3229 18.6384L24.7245 29.2296C24.5589 29.3952 24.2997 29.3952 24.1341 29.2296L19.5261 24.6216C19.3677 24.4632 19.3677 24.1968 19.5333 24.0312Z" fill="#214859"/>
<path d="M13.09 30.5892L17.7484 25.9308C17.914 25.7652 18.1732 25.7652 18.3388 25.9308L22.9468 30.5388C23.1124 30.7044 23.1124 30.9636 22.9468 31.1292L18.778 35.298C18.346 35.73 17.6404 35.73 17.2084 35.298L13.09 31.1796C12.9244 31.0212 12.9244 30.7548 13.09 30.5892Z" fill="#00B39E"/>
<path d="M29.3042 11.8193L24.6458 16.4777C24.4802 16.6433 24.221 16.6433 24.0554 16.4777L19.4474 11.8697C19.2818 11.7041 19.2818 11.4449 19.4474 11.2793L24.113 6.62811C24.2786 6.46251 24.5378 6.46251 24.7034 6.62811L29.3114 11.2361C29.4698 11.3945 29.4698 11.6537 29.3042 11.8193Z" fill="#214859"/>
<path d="M22.9175 18.264L18.2591 22.9224C18.0935 23.088 17.8343 23.088 17.6687 22.9224L13.0607 18.3144C12.8951 18.1488 12.8951 17.8896 13.0607 17.724L17.7191 13.0656C17.8847 12.9 18.1439 12.9 18.3095 13.0656L22.9175 17.6736C23.0831 17.8392 23.0831 18.1056 22.9175 18.264Z" fill="#00B39E"/>
<path d="M16.4156 24.7074L11.7572 29.3658C11.5916 29.5314 11.3324 29.5314 11.1668 29.3658L6.55877 24.7578C6.39317 24.5922 6.39317 24.333 6.55877 24.1674L11.2172 19.509C11.3828 19.3434 11.642 19.3434 11.8076 19.509L16.4156 24.117C16.5812 24.2826 16.5812 24.549 16.4156 24.7074Z" fill="#214859"/>
</g>
<defs>
<clipPath id="clip0_1_15726">
<rect width="36" height="36" fill="white" transform="translate(0 0.00390625)"/>
</clipPath>
</defs>
</svg>
