<svg width="36" height="36" viewBox="0 0 36 36" fill="none" xmlns="http://www.w3.org/2000/svg">
<g clip-path="url(#clip0_1_15735)">
<path d="M22.0388 14.5268C21.8156 13.6772 21.29 13.1372 20.426 12.8924C19.6988 12.6908 18.95 12.6116 18.2084 12.5684C17.3588 12.59 16.4948 12.6476 15.6668 12.8924C14.7956 13.1372 14.2772 13.6772 14.054 14.5268C13.9316 14.9876 13.8956 15.4772 13.874 15.938C13.8308 16.3844 13.8308 16.442 14.1332 16.442H21.758C22.2836 16.442 22.2836 16.442 22.2188 15.9164C22.1972 15.4772 22.1396 14.9948 22.0388 14.5268Z" fill="#496DDB"/>
<path d="M21.8954 19.5527H14.285C13.7594 19.5527 13.7594 19.5527 13.8242 20.0783C13.8458 20.5391 13.8818 21.0287 14.0042 21.4895C14.2274 22.3391 14.753 22.8791 15.617 23.1239C16.3442 23.3255 17.093 23.4047 17.8346 23.4479C18.6842 23.4263 19.5482 23.3687 20.3762 23.1239C21.2474 22.8791 21.7658 22.3391 21.989 21.4895C22.1114 21.0287 22.1474 20.5391 22.169 20.0783C22.2194 19.6391 22.2194 19.5743 21.8954 19.5527Z" fill="#496DDB"/>
<path d="M18 -0.00390625C8.0712 -0.00390625 0 8.07449 0 17.9961C0 27.9177 8.0712 35.9961 18 35.9961C27.9504 35.9961 36 27.9249 36 17.9961C36 8.06729 27.9504 -0.00390625 18 -0.00390625ZM25.5888 13.9425C25.668 14.4681 25.7328 14.9937 25.7904 15.5337V16.4625H28.5768C28.8 16.4625 29.0016 16.4625 29.2032 16.5057C29.6856 16.5849 29.988 16.8657 30.0096 17.3337V18.6873C29.988 19.1481 29.6856 19.4361 29.2032 19.5153C29.0016 19.5585 28.8 19.5585 28.5768 19.5585H25.7544V20.4657C25.6968 21.0129 25.632 21.5385 25.5528 22.0569C25.4736 22.5825 25.3296 23.0433 25.1496 23.4465H28.7208C29.1456 23.4465 29.5488 23.4897 29.8296 23.8929C30.2544 24.5553 30.0312 25.4481 29.3688 25.8729C29.2896 25.9305 29.1888 25.9953 29.088 26.0169C28.3392 26.2617 27.576 26.2977 26.784 26.3409C23.5728 26.3985 20.2896 26.4201 18.0648 26.4201C15.444 26.4201 11.9304 26.3769 9.2664 26.3193C8.4816 26.2977 7.7112 26.2617 6.984 25.9953C6.8616 25.9737 6.7824 25.9377 6.7032 25.8513C6.0408 25.4265 5.8176 24.5625 6.2424 23.8713C6.5016 23.4681 6.9048 23.4249 7.3296 23.4249H10.8576C10.6992 23.0217 10.5552 22.5537 10.476 22.0497C10.3968 21.5241 10.332 20.9985 10.2744 20.4585V19.5297H7.452C7.2288 19.5297 7.0272 19.5297 6.8256 19.4865C6.3432 19.4073 6.0408 19.1265 6.0192 18.6585V17.3049C6.0408 16.8441 6.3432 16.5561 6.8256 16.4769C7.0272 16.4337 7.2288 16.4337 7.452 16.4337H10.2744V15.5265C10.332 14.9793 10.3968 14.4537 10.476 13.9353C10.5552 13.4169 10.6992 12.9489 10.8792 12.5457H7.308C6.8832 12.5457 6.48 12.5025 6.1992 12.0993C5.7744 11.4369 5.9976 10.5441 6.66 10.1193C6.7392 10.0617 6.84 9.99689 6.9408 9.97529C7.6896 9.73049 8.4528 9.69449 9.2232 9.65129C12.4344 9.59369 15.7176 9.57209 17.9424 9.57209C20.5632 9.57209 24.0984 9.61529 26.7408 9.67289C27.5256 9.69449 28.296 9.73049 29.0232 9.99689C29.1456 10.0185 29.2248 10.0545 29.304 10.1409C29.9664 10.5657 30.1896 11.4297 29.7648 12.1209C29.5056 12.5241 29.1024 12.5673 28.6776 12.5673H25.1496C25.3656 12.9777 25.488 13.4169 25.5888 13.9425Z" fill="#496DDB"/>
</g>
<defs>
<clipPath id="clip0_1_15735">
<rect width="36" height="36" fill="white" transform="translate(0 0.00390625)"/>
</clipPath>
</defs>
</svg>
