<svg width="36" height="36" viewBox="0 0 36 36" fill="none" xmlns="http://www.w3.org/2000/svg">
<g clip-path="url(#clip0_1_15653)">
<path d="M16.38 0.111328C16.38 1.32813 16.38 2.54493 16.38 3.81213C18.936 3.23613 21.4344 3.26493 23.9544 4.01373C23.9544 5.23053 23.9544 6.44733 23.9544 7.67133C27.4896 9.26253 29.7648 11.8833 30.5496 15.6705C31.1544 18.6009 30.6216 21.3729 28.9584 23.8713C25.4304 29.1489 18.7416 30.0993 14.0904 27.1329C14.0904 26.4921 14.0904 25.8441 14.0904 25.1889C18.0504 27.7881 21.9528 27.8673 25.7832 24.9369C28.6128 22.3737 29.6784 19.2345 28.7784 15.4977C28.0512 12.4881 25.3008 9.06093 20.4408 8.54253C20.4408 8.16813 20.4552 7.10253 20.4624 6.89373C21.0816 6.97293 21.6648 7.05213 22.2768 7.13133C22.2768 6.53373 22.2768 5.95773 22.2768 5.38173C19.6632 4.63293 15.3144 5.23053 12.4344 7.49853C12.5856 7.77933 13.2336 8.45613 13.6728 8.78013C15.3288 7.66413 17.1576 7.03053 19.2168 6.90813C19.2168 7.93773 19.2168 8.93133 19.2168 9.96093C20.9808 9.90333 22.5936 10.2561 24.0696 11.2209C24.0696 11.7681 24.0624 14.6481 24.0624 15.2457C24.0624 15.3537 24.1488 15.4041 24.3288 15.7785C25.6824 18.6585 23.9256 22.1001 20.7 22.7049C20.628 22.7193 20.556 22.6977 20.4696 22.6977C20.4552 22.6257 20.4408 22.5681 20.4336 22.5105C20.4336 22.0497 20.4336 21.5889 20.4336 21.0777C21.6576 20.7249 22.572 20.0265 22.968 18.7089C22.716 18.7089 22.5 18.7089 22.2408 18.7089C21.9312 19.4217 21.4272 19.9833 20.6352 20.2425C20.0952 20.4225 19.5552 20.4225 19.0152 20.2353C17.9136 19.8537 17.2296 18.8313 17.2872 17.6433C17.3376 16.5849 18.1872 15.5769 19.224 15.3393C20.4696 15.0513 21.4776 15.5841 22.2624 16.9593C22.4568 16.9593 22.6728 16.9593 22.9608 16.9593C22.8096 16.3041 22.4712 15.8217 22.0176 15.3969C21.5712 14.9793 21.024 14.7489 20.448 14.5833C20.448 14.0145 20.448 13.4817 20.448 12.9273C21.0528 12.9417 21.5784 13.2081 22.1544 13.4097C22.1544 12.9633 22.1544 12.5601 22.1544 12.1065C20.232 11.3433 18.3672 11.4873 16.6032 12.5601C14.976 13.5537 14.0256 15.0153 13.7232 16.9593C14.1552 16.9593 14.5152 16.9593 14.9328 16.9593C15.2208 15.6561 15.876 14.5689 16.9776 13.7841C17.6328 13.3161 18.3528 13.0281 19.188 12.9129C19.188 13.4745 19.188 14.0145 19.188 14.5761C17.5752 15.0657 16.5528 16.1241 16.5672 17.8593C16.5816 19.5513 17.5968 20.5809 19.2024 21.0705C19.2024 22.5969 19.2024 24.1089 19.2024 25.6569C17.316 25.4841 15.7104 24.7569 14.3712 23.4537C13.032 22.1505 12.2616 20.5521 12.0168 18.6945C11.5488 18.6945 11.124 18.6945 10.656 18.6945C10.656 18.8313 10.6416 18.9609 10.656 19.0833C10.8936 20.7105 11.4912 22.1865 12.5136 23.4681C12.744 23.7561 12.8304 23.8497 12.8304 23.8497C12.8304 23.8497 12.8232 25.5345 12.78 26.1105C10.296 24.0153 8.99278 21.3369 8.89198 18.1185C8.79838 14.9001 9.98638 12.1569 12.2472 9.91773C11.8224 9.49293 11.412 9.08973 11.0016 8.67933C4.73038 14.3241 5.88958 25.7361 15.084 29.6601C15.084 30.2217 15.084 30.7977 15.084 31.4385C12.3264 30.4593 10.0728 28.8321 8.32318 26.5209C6.58078 24.2169 5.63758 21.6033 5.42878 18.6945C4.79518 18.6945 4.19038 18.6945 3.59278 18.6945C3.77998 28.0401 12.708 35.2905 21.6432 34.0089C21.6432 33.4113 21.6432 32.8065 21.6432 32.1513C19.872 32.3457 18.1296 32.2737 16.3872 31.8273C16.3872 31.2657 16.3872 30.7185 16.3872 30.1209C20.3904 31.1073 24.0912 30.4881 27.4176 28.0473C29.664 26.3985 31.1976 24.2169 32.0112 21.5529C32.94 18.5145 32.7456 15.5193 31.4424 12.6177C30.1464 9.73053 28.0296 7.62813 25.2 6.23853C25.2 5.63373 25.2 5.05773 25.2 4.47453C29.0304 5.82093 33.408 9.93213 34.1424 16.0593C34.5744 19.6593 33.7752 22.9929 31.716 25.9881C29.6712 28.9689 26.8488 30.8841 23.3496 31.8273C23.3496 33.0441 23.3496 34.2321 23.3496 35.4633C23.1768 35.5065 23.0256 35.5569 22.8744 35.5785C22.284 35.6505 21.6936 35.7441 21.1032 35.7801C20.5128 35.8161 19.3824 35.8377 18.504 35.7801C17.46 35.7081 16.4304 35.5497 15.4224 35.2905C7.73998 33.3249 2.39038 26.6505 1.88638 19.1625C1.85038 18.6513 1.83598 17.3481 1.87918 16.5129C1.93678 15.5121 2.10238 14.5329 2.33998 13.5609C3.91678 6.98733 9.10798 1.74573 15.6888 0.219328C15.8688 0.212128 16.344 0.111328 16.38 0.111328ZM5.39998 16.9809C6.04798 10.9257 9.15118 6.72093 14.6664 4.32333C14.6664 3.66093 14.6664 3.02733 14.6664 2.33613C11.1528 3.57453 8.36638 5.68413 6.30718 8.72973C4.63678 11.2065 3.68638 13.9425 3.54238 16.9809C4.19038 16.9809 4.77358 16.9809 5.39998 16.9809ZM12.0024 16.9809C12.5352 13.6401 14.4072 11.4297 17.532 10.2921C17.532 9.80973 17.532 9.37053 17.532 8.92413C13.8312 9.67293 10.7784 13.4169 10.6704 16.9809C11.0952 16.9809 11.5272 16.9809 12.0024 16.9809ZM13.7592 18.6945C13.9032 20.9697 16.092 23.2089 17.4888 23.4681C17.4888 23.0505 17.4888 22.6401 17.4888 22.2153C16.1136 21.4233 15.2784 20.2425 14.94 18.6945C14.6808 18.6945 14.4576 18.6945 14.2416 18.6945C14.0904 18.6945 13.9464 18.6945 13.7592 18.6945ZM19.8576 18.7233C20.304 18.7305 20.7144 18.3273 20.7288 17.8737C20.7504 17.3913 20.3616 16.9881 19.872 16.9809C19.3896 16.9737 18.9792 17.3625 18.972 17.8449C18.972 18.3057 19.3752 18.7161 19.8576 18.7233Z" fill="#243454"/>
</g>
<defs>
<clipPath id="clip0_1_15653">
<rect width="36" height="36" fill="white" transform="translate(0 0.00390625)"/>
</clipPath>
</defs>
</svg>
