<svg width="36" height="36" viewBox="0 0 36 36" fill="none" xmlns="http://www.w3.org/2000/svg">
<g clip-path="url(#clip0_1_15651)">
<path fill-rule="evenodd" clip-rule="evenodd" d="M28.8287 7.16115C28.6847 7.01715 28.6055 6.86595 28.6055 6.67875C28.6055 6.49155 28.6775 6.34755 28.8287 6.19635C29.1239 5.93715 29.5631 5.93715 29.8583 6.19635C30.0023 6.34035 30.0815 6.49155 30.0815 6.67875C30.0815 6.86595 30.0095 7.00995 29.8583 7.16115C29.7143 7.26915 29.5271 7.34835 29.3399 7.34835C29.1599 7.38435 28.9799 7.30515 28.8287 7.16115Z" fill="black"/>
<path fill-rule="evenodd" clip-rule="evenodd" d="M27.0212 9.07522C26.9132 8.93122 26.834 8.78002 26.834 8.59282C26.834 8.40562 26.906 8.26162 27.0212 8.11042C27.2804 7.85122 27.7196 7.85122 27.9788 8.11042C28.0868 8.25442 28.166 8.40562 28.166 8.59282C28.166 8.78002 28.094 8.92402 27.9788 9.07522C27.8348 9.18322 27.6836 9.26242 27.4964 9.26242C27.3164 9.26242 27.1724 9.19042 27.0212 9.07522Z" fill="black"/>
<path fill-rule="evenodd" clip-rule="evenodd" d="M25.07 10.9561C24.962 10.8481 24.8828 10.6609 24.8828 10.4737C24.8828 10.2865 24.9548 10.1425 25.07 9.99127C25.3292 9.73207 25.7684 9.73207 26.0276 9.99127C26.1356 10.0993 26.2148 10.2865 26.2148 10.4737C26.2148 10.6609 26.1428 10.8049 26.0276 10.9561C25.8836 11.1001 25.7324 11.1433 25.5452 11.1433C25.3652 11.1433 25.178 11.0713 25.07 10.9561Z" fill="black"/>
<path fill-rule="evenodd" clip-rule="evenodd" d="M23.1841 12.8408C23.0401 12.7328 22.9609 12.5456 22.9609 12.3584C22.9609 12.1712 23.0329 12.0272 23.1841 11.876C23.4793 11.6168 23.9185 11.6168 24.2137 11.876C24.3577 11.984 24.4369 12.1712 24.4369 12.3584C24.4369 12.5456 24.3649 12.7256 24.2137 12.8408C24.0697 12.9848 23.8825 13.028 23.6953 13.028C23.5153 13.0208 23.3353 12.9848 23.1841 12.8408Z" fill="black"/>
<path fill-rule="evenodd" clip-rule="evenodd" d="M21.3767 14.7217C21.2327 14.6137 21.1895 14.4265 21.1895 14.2393C21.1895 14.0521 21.2615 13.9081 21.3767 13.7569C21.6359 13.4977 22.0751 13.4977 22.3343 13.7569C22.4783 13.8649 22.5215 14.0521 22.5215 14.2393C22.5215 14.4265 22.4495 14.6065 22.3343 14.7217C22.2263 14.8657 22.0391 14.9089 21.8519 14.9089C21.6719 14.9449 21.4919 14.8729 21.3767 14.7217Z" fill="black"/>
<path fill-rule="evenodd" clip-rule="evenodd" d="M19.2021 16.1241C19.2021 15.9369 19.2741 15.7929 19.3893 15.6417C19.6485 15.3825 20.0877 15.3825 20.3469 15.6417C20.4909 15.7857 20.5341 15.9369 20.5341 16.1241C20.5341 16.3113 20.4621 16.4553 20.3469 16.6065C20.2389 16.7145 20.0517 16.7937 19.8645 16.7937C19.6773 16.7937 19.5333 16.7217 19.3821 16.6065C19.2741 16.4913 19.2021 16.3041 19.2021 16.1241Z" fill="black"/>
<path fill-rule="evenodd" clip-rule="evenodd" d="M15.696 20.294C15.588 20.186 15.5088 19.9988 15.5088 19.8116C15.5088 19.6244 15.5808 19.4804 15.696 19.3292C15.9552 19.07 16.3944 19.07 16.6536 19.3292C16.7976 19.4732 16.8408 19.6244 16.8408 19.8116C16.8408 19.9988 16.7688 20.1428 16.6536 20.294C16.5456 20.438 16.3584 20.4812 16.1712 20.4812C15.9912 20.51 15.8472 20.438 15.696 20.294Z" fill="black"/>
<path fill-rule="evenodd" clip-rule="evenodd" d="M13.7447 22.1729C13.6007 22.0649 13.5215 21.8777 13.5215 21.6905C13.5215 21.5033 13.5935 21.3593 13.7447 21.2081C14.0399 20.9489 14.4791 20.9489 14.7743 21.2081C14.9183 21.3521 14.9975 21.5033 14.9975 21.6905C14.9975 21.8777 14.9255 22.0217 14.7743 22.1729C14.6303 22.3169 14.4431 22.3601 14.2559 22.3601C14.0759 22.3961 13.8887 22.3169 13.7447 22.1729Z" fill="black"/>
<path fill-rule="evenodd" clip-rule="evenodd" d="M11.9372 24.0889C11.8292 23.9809 11.75 23.7937 11.75 23.6065C11.75 23.4193 11.822 23.2393 11.9372 23.1241C12.1964 22.8649 12.6356 22.8649 12.8948 23.1241C13.0028 23.2321 13.082 23.4193 13.082 23.6065C13.082 23.7937 13.01 23.9377 12.8948 24.0889C12.7508 24.2329 12.5996 24.2761 12.4124 24.2761C12.2252 24.2761 12.0812 24.2041 11.9372 24.0889Z" fill="black"/>
<path fill-rule="evenodd" clip-rule="evenodd" d="M10.0583 25.9678C9.91429 25.8598 9.87109 25.6726 9.87109 25.4854C9.87109 25.2982 9.94309 25.1542 10.0583 25.003C10.3175 24.7438 10.7567 24.7438 11.0159 25.003C11.1239 25.147 11.2031 25.2982 11.2031 25.4854C11.2031 25.6726 11.1311 25.8526 11.0159 25.9678C10.8719 26.1118 10.7207 26.155 10.5335 26.155C10.3463 26.155 10.1663 26.119 10.0583 25.9678Z" fill="black"/>
<path fill-rule="evenodd" clip-rule="evenodd" d="M8.10015 27.8526C7.95615 27.7446 7.87695 27.5574 7.87695 27.3702C7.87695 27.183 7.94895 27.039 8.10015 26.8878C8.39535 26.6286 8.83455 26.6286 9.09375 26.8878C9.23775 27.0318 9.31695 27.183 9.31695 27.3702C9.31695 27.5574 9.24495 27.7374 9.09375 27.8526C8.94255 27.9678 8.76255 28.0398 8.57535 28.0398C8.38815 28.0398 8.20815 27.9966 8.10015 27.8526Z" fill="black"/>
<path fill-rule="evenodd" clip-rule="evenodd" d="M6.25654 29.7334C6.11254 29.5894 6.06934 29.4382 6.06934 29.251C6.06934 29.0638 6.14134 28.9198 6.25654 28.7686C6.51574 28.5094 6.95494 28.5094 7.21414 28.7686C7.35814 28.9126 7.40134 29.0638 7.40134 29.251C7.40134 29.4382 7.32934 29.5822 7.21414 29.7334C7.10614 29.8414 6.91894 29.9206 6.73174 29.9206C6.58774 29.9566 6.40054 29.8774 6.25654 29.7334Z" fill="black"/>
<path fill-rule="evenodd" clip-rule="evenodd" d="M7.21414 7.16115C7.32214 7.01715 7.40134 6.86595 7.40134 6.67875C7.40134 6.49155 7.32934 6.34755 7.21414 6.19635C6.95494 5.93715 6.51574 5.93715 6.25654 6.19635C6.11254 6.34035 6.06934 6.49155 6.06934 6.67875C6.06934 6.86595 6.14134 7.00995 6.25654 7.16115C6.36454 7.26915 6.55174 7.34835 6.73894 7.34835C6.91894 7.38435 7.10614 7.30515 7.21414 7.16115Z" fill="black"/>
<path fill-rule="evenodd" clip-rule="evenodd" d="M9.09362 9.07522C9.23762 8.93122 9.31682 8.78002 9.31682 8.59282C9.31682 8.40562 9.24482 8.26162 9.09362 8.11042C8.79842 7.85122 8.35922 7.85122 8.06402 8.11042C7.92002 8.25442 7.84082 8.40562 7.84082 8.59282C7.84082 8.78002 7.91282 8.92402 8.06402 9.07522C8.20802 9.18322 8.39522 9.26242 8.58242 9.26242C8.76962 9.26242 8.94962 9.19042 9.09362 9.07522Z" fill="black"/>
<path fill-rule="evenodd" clip-rule="evenodd" d="M11.0159 10.9561C11.1239 10.8481 11.2031 10.6609 11.2031 10.4737C11.2031 10.2865 11.1311 10.1425 11.0159 9.99127C10.7567 9.73207 10.3175 9.73207 10.0583 9.99127C9.95029 10.0993 9.87109 10.2865 9.87109 10.4737C9.87109 10.6609 9.94309 10.8049 10.0583 10.9561C10.2023 11.1001 10.3535 11.1433 10.5407 11.1433C10.6847 11.1433 10.8647 11.0713 11.0159 10.9561Z" fill="black"/>
<path fill-rule="evenodd" clip-rule="evenodd" d="M12.8948 12.8408C13.0028 12.7328 13.082 12.5456 13.082 12.3584C13.082 12.1712 13.01 12.0272 12.8948 11.876C12.6356 11.6168 12.1964 11.6168 11.9372 11.876C11.8292 11.984 11.75 12.1712 11.75 12.3584C11.75 12.5456 11.822 12.7256 11.9372 12.8408C12.0812 12.9848 12.2324 13.028 12.4196 13.028C12.5636 13.0208 12.7508 12.9848 12.8948 12.8408Z" fill="black"/>
<path fill-rule="evenodd" clip-rule="evenodd" d="M14.7383 14.7217C14.8823 14.6137 14.9615 14.4265 14.9615 14.2393C14.9615 14.0521 14.8895 13.9081 14.7383 13.7569C14.4791 13.4977 14.0039 13.4977 13.7447 13.7569C13.6007 13.8649 13.5215 14.0521 13.5215 14.2393C13.5215 14.4265 13.5935 14.6065 13.7447 14.7217C13.8887 14.8657 14.0759 14.9089 14.2631 14.9089C14.4431 14.9449 14.6303 14.8729 14.7383 14.7217Z" fill="black"/>
<path fill-rule="evenodd" clip-rule="evenodd" d="M16.8408 16.1241C16.8408 15.9369 16.7688 15.7929 16.6536 15.6417C16.3944 15.3825 15.9552 15.3825 15.696 15.6417C15.552 15.7857 15.5088 15.9369 15.5088 16.1241C15.5088 16.3113 15.5808 16.4553 15.696 16.6065C15.804 16.7145 15.9912 16.7937 16.1784 16.7937C16.3656 16.7937 16.5096 16.7217 16.6608 16.6065C16.812 16.4913 16.8408 16.3041 16.8408 16.1241Z" fill="black"/>
<path fill-rule="evenodd" clip-rule="evenodd" d="M18.5403 18.5225C18.6843 18.3785 18.7275 18.2273 18.7275 18.0401C18.7275 17.8529 18.6555 17.7089 18.5403 17.5577C18.2811 17.2985 17.8419 17.2985 17.5827 17.5577C17.4387 17.7017 17.3955 17.8529 17.3955 18.0401C17.3955 18.2273 17.4675 18.3713 17.5827 18.5225C17.6907 18.6305 17.8779 18.7097 18.0651 18.7097C18.2523 18.7097 18.4251 18.6305 18.5403 18.5225Z" fill="black"/>
<path fill-rule="evenodd" clip-rule="evenodd" d="M20.4189 20.294C20.5629 20.186 20.6421 19.9988 20.6421 19.8116C20.6421 19.6244 20.5701 19.4804 20.4189 19.3292C20.1237 19.07 19.6845 19.07 19.4253 19.3292C19.2813 19.4732 19.2021 19.6244 19.2021 19.8116C19.2021 19.9988 19.2741 20.1428 19.4253 20.294C19.5765 20.4452 19.7565 20.4812 19.9437 20.4812C20.0877 20.51 20.2749 20.438 20.4189 20.294Z" fill="black"/>
<path fill-rule="evenodd" clip-rule="evenodd" d="M22.3343 22.1729C22.4423 22.0649 22.5215 21.8777 22.5215 21.6905C22.5215 21.5033 22.4495 21.3593 22.3343 21.2081C22.0751 20.9489 21.6359 20.9489 21.3767 21.2081C21.2687 21.3521 21.1895 21.5033 21.1895 21.6905C21.1895 21.8777 21.2615 22.0217 21.3767 22.1729C21.5207 22.3169 21.6719 22.3601 21.8591 22.3601C22.0031 22.3961 22.1903 22.3169 22.3343 22.1729Z" fill="black"/>
<path fill-rule="evenodd" clip-rule="evenodd" d="M24.221 24.0889C24.329 23.9809 24.4082 23.7937 24.4082 23.6065C24.4082 23.4193 24.3362 23.2393 24.221 23.1241C23.9618 22.8649 23.5226 22.8649 23.2634 23.1241C23.1554 23.2321 23.0762 23.4193 23.0762 23.6065C23.0762 23.7937 23.1482 23.9377 23.2634 24.0889C23.4074 24.2329 23.5586 24.2761 23.7458 24.2761C23.933 24.2761 24.0698 24.2041 24.221 24.0889Z" fill="black"/>
<path fill-rule="evenodd" clip-rule="evenodd" d="M25.9925 25.9678C26.1365 25.8598 26.1797 25.6726 26.1797 25.4854C26.1797 25.2982 26.1077 25.1542 25.9925 25.003C25.7333 24.7438 25.2941 24.7438 25.0349 25.003C24.9269 25.147 24.8477 25.2982 24.8477 25.4854C24.8477 25.6726 24.9197 25.8526 25.0349 25.9678C25.1789 26.1118 25.3301 26.155 25.5173 26.155C25.6973 26.155 25.8773 26.119 25.9925 25.9678Z" fill="black"/>
<path fill-rule="evenodd" clip-rule="evenodd" d="M27.9788 27.8526C28.1228 27.7446 28.166 27.5574 28.166 27.3702C28.166 27.183 28.094 27.039 27.9788 26.8878C27.7196 26.6286 27.2804 26.6286 27.0212 26.8878C26.8772 27.0318 26.834 27.183 26.834 27.3702C26.834 27.5574 26.906 27.7374 27.0212 27.8526C27.1364 27.9678 27.3164 28.0398 27.5036 28.0398C27.6836 28.0326 27.8708 27.9966 27.9788 27.8526Z" fill="black"/>
<path fill-rule="evenodd" clip-rule="evenodd" d="M29.8652 29.7334C30.0092 29.5894 30.0884 29.4382 30.0884 29.251C30.0884 29.0638 30.0164 28.9198 29.8652 28.7686C29.57 28.5094 29.1308 28.5094 28.8716 28.7686C28.7276 28.9126 28.6484 29.0638 28.6484 29.251C28.6484 29.4382 28.7204 29.5822 28.8716 29.7334C29.0156 29.8414 29.2028 29.9206 29.39 29.9206C29.5268 29.9566 29.714 29.8774 29.8652 29.7334Z" fill="black"/>
<path fill-rule="evenodd" clip-rule="evenodd" d="M11.6781 7.67911C13.5933 6.42631 15.6957 5.83591 18.0213 5.79991C20.3109 5.79991 22.4133 6.42631 24.3645 7.67911L28.4253 3.61831C25.2501 1.22071 21.8229 0.00390625 18.0213 0.00390625C14.2197 0.00390625 10.7565 1.22071 7.65332 3.61831L11.6781 7.67911Z" fill="black"/>
<path fill-rule="evenodd" clip-rule="evenodd" d="M7.61762 24.3117C6.32882 22.3533 5.70242 20.2509 5.70242 18.0045C5.70242 15.7149 6.32882 13.6125 7.61762 11.6973L3.60002 7.67969C1.23842 10.7757 0.0576172 14.2101 0.0576172 18.0477C0.0576172 21.8133 1.23842 25.2765 3.63602 28.4157L7.61762 24.3117Z" fill="black"/>
<path fill-rule="evenodd" clip-rule="evenodd" d="M24.3644 28.3281C22.4492 29.6169 20.3468 30.2865 18.0572 30.3225C15.7316 30.3225 13.5932 29.6961 11.678 28.3641L7.61719 32.3817C10.7492 34.8153 14.2196 36.0321 18.0572 35.9961C21.8588 35.9601 25.286 34.7433 28.382 32.3817L24.3644 28.3281Z" fill="black"/>
<path fill-rule="evenodd" clip-rule="evenodd" d="M28.3105 11.6613C29.5993 13.6197 30.2689 15.7581 30.2257 18.0765C30.1897 20.3229 29.5633 22.3893 28.3105 24.2757L32.3713 28.2933C34.7689 25.1973 35.9857 21.7629 35.9857 18.0045C36.0217 14.1669 34.8049 10.7037 32.3713 7.56445L28.3105 11.6613Z" fill="black"/>
<path fill-rule="evenodd" clip-rule="evenodd" d="M32.5516 29.5879C34.0996 29.5879 35.3884 30.8407 35.3884 32.4247C35.3884 33.9727 34.1356 35.2615 32.5516 35.2615C31.0036 35.2615 29.7148 34.0087 29.7148 32.4247C29.7148 30.8407 30.9676 29.5879 32.5516 29.5879Z" fill="black"/>
<path fill-rule="evenodd" clip-rule="evenodd" d="M3.56447 29.5879C5.11247 29.5879 6.36527 30.8407 6.36527 32.4247C6.36527 33.9727 5.11247 35.2615 3.56447 35.2615C2.01647 35.2615 0.763672 34.0087 0.763672 32.4247C0.763672 30.8407 2.01647 29.5879 3.56447 29.5879Z" fill="black"/>
<path fill-rule="evenodd" clip-rule="evenodd" d="M32.5947 0.630859C34.1427 0.630859 35.3955 1.88366 35.3955 3.46766C35.3955 5.05166 34.1427 6.30446 32.5947 6.30446C31.0467 6.30446 29.7939 5.05166 29.7939 3.46766C29.7939 1.88366 31.0395 0.630859 32.5947 0.630859Z" fill="black"/>
<path fill-rule="evenodd" clip-rule="evenodd" d="M3.52824 0.630859C5.07624 0.630859 6.36504 1.88366 6.36504 3.43166C6.36504 4.97966 5.11224 6.23966 3.52824 6.23966C1.98024 6.23966 0.691437 4.98686 0.691437 3.43886C0.684237 1.88366 1.94424 0.630859 3.52824 0.630859Z" fill="black"/>
</g>
<defs>
<clipPath id="clip0_1_15651">
<rect width="36" height="36" fill="white" transform="translate(0 0.00390625)"/>
</clipPath>
</defs>
</svg>
