<svg width="36" height="36" viewBox="0 0 36 36" fill="none" xmlns="http://www.w3.org/2000/svg">
<g clip-path="url(#clip0_1_15784)">
<path d="M17.9998 35.7144C8.14902 35.7209 0.210083 27.8078 0.212891 17.96C0.215699 8.39115 7.76828 0.173647 17.9932 0.164071C28.1613 0.154567 35.8067 8.35918 35.7921 18.0319C35.7773 27.8542 27.5814 35.8567 17.9998 35.7144ZM28.8052 7.22252C25.4838 4.09131 21.5899 2.74246 17.1459 2.99302C12.6613 3.24589 9.0249 5.1991 6.22489 8.66734C1.44661 14.586 1.87321 23.1893 7.13447 28.7845C12.3032 34.2813 21.2503 34.9882 27.2674 30.4604C30.3414 28.1472 32.368 25.1124 33.0764 21.3357C33.9788 16.524 32.9792 12.1023 29.8654 8.34212C30.0608 7.41843 30.2311 6.61376 30.4013 5.80909C30.3284 5.77971 30.2556 5.75041 30.1827 5.72103C29.7565 6.18572 29.3302 6.65041 28.8052 7.22252Z" fill="#F5BE1D"/>
<path d="M28.8054 7.22163C29.2883 6.69545 29.7493 6.28498 30.1519 5.86097C30.1943 5.81633 30.2687 5.84851 30.2644 5.90993C30.2342 6.3487 30.0257 7.58487 29.8656 8.34137C32.9794 12.1015 33.979 16.5232 33.0766 21.335C32.3684 25.1115 30.3417 28.1464 27.2677 30.4596C21.2505 34.9875 12.3035 34.2805 7.13473 28.7838C1.87341 23.1886 1.44688 14.5853 6.22516 8.66659C9.02517 5.19835 12.6617 3.24514 17.1462 2.99227C21.59 2.74157 25.4839 4.09042 28.8054 7.22163ZM27.9955 7.95027C24.0007 4.46871 19.5575 3.16551 14.5432 4.48944C8.84416 5.99417 5.05717 10.3927 4.13709 15.9899C3.34408 20.8135 4.95767 24.9372 8.39049 28.369C8.35607 27.8775 8.17981 27.4244 8.09694 26.9548C7.16217 21.6555 10.079 16.3147 15.1041 14.3011C17.6384 13.2855 20.2608 12.4919 22.815 11.5232C24.7691 10.7822 26.3999 9.52735 27.9955 7.95027ZM29.534 9.77467C29.421 9.82903 29.3557 9.83854 29.3347 9.87425C29.2175 10.0736 29.1017 10.2749 29.0023 10.4835C28.1345 12.3039 26.9087 13.8468 25.0919 14.7383C23.4343 15.5517 21.7155 16.3231 19.9392 16.7963C14.719 18.1872 11.1925 21.2308 9.77425 26.5432C9.29761 28.3286 9.5535 29.5579 10.6935 30.2438C14.2033 32.3557 17.955 32.9883 21.9173 31.8629C29.8594 29.6073 34.1788 21.4313 31.5737 13.6116C31.1121 12.2262 30.4518 10.9198 29.534 9.77467Z" fill="white"/>
<path d="M27.9947 7.95106C26.3991 9.52815 24.7683 10.783 22.8142 11.524C20.2599 12.4926 17.6375 13.2863 15.1032 14.3019C10.0782 16.3155 7.16138 21.6563 8.09609 26.9556C8.17889 27.4252 8.35522 27.8783 8.38963 28.3698C4.95682 24.9379 3.34322 20.8143 4.13616 15.9907C5.05625 10.3935 8.84323 5.99497 14.5422 4.49024C19.5566 3.1663 23.9997 4.4695 27.9947 7.95106Z" fill="#F5BE1D"/>
<path d="M29.4801 9.69922C30.3978 10.8442 31.1115 12.2273 31.573 13.6126C34.1781 21.4323 29.8587 29.6083 21.9166 31.8639C17.9543 32.9893 14.2027 32.3568 10.6928 30.2449C9.55278 29.5589 9.29689 28.3296 9.77353 26.5442C11.1918 21.2318 14.7183 18.1882 19.9385 16.7973C21.7147 16.3241 23.4336 15.5527 25.0912 14.7393C26.908 13.8478 28.1337 12.3049 29.0016 10.4845C29.101 10.2759 29.2168 10.0746 29.334 9.87526C29.355 9.83962 29.3948 9.7872 29.4801 9.69922ZM27.3348 13.8011C27.0157 14.032 26.8262 14.1961 26.6129 14.3186C25.7009 14.8423 24.8247 15.4607 23.8567 15.8478C21.6335 16.7369 19.3469 17.467 17.1198 18.3471C15.552 18.9666 14.0997 19.8135 13.1206 21.2642C12.9372 21.5359 12.8311 21.8597 12.6633 22.2143C12.9032 22.2514 12.9855 22.2909 13.0474 22.2698C15.7958 21.3379 18.631 21.1018 21.511 21.1692C22.0168 21.181 22.5369 21.0934 23.0318 20.9744C25.9614 20.2698 27.3027 16.6501 27.3348 13.8011ZM23.8775 21.6463C23.8274 21.5732 23.7772 21.5 23.7271 21.4269C22.6548 21.4796 21.5775 21.4837 20.5114 21.5952C18.4683 21.809 16.4118 21.9836 14.4007 22.3776C13.4576 22.5624 12.5556 23.1415 11.7299 23.6857C11.0211 24.1529 10.6176 24.9062 10.5839 25.8233C10.7583 25.8418 10.8347 25.8644 10.9064 25.854C11.0073 25.8394 11.1128 25.8161 11.2023 25.7695C12.9567 24.8544 14.8184 25.0163 16.6456 25.3504C19.3873 25.8516 21.4891 24.8947 23.1593 22.7815C23.4355 22.4321 23.6399 22.0261 23.8775 21.6463ZM20.2472 25.775C18.4225 26.6984 16.6467 26.4353 14.8485 26.1376C13.7826 25.9611 12.6911 25.895 11.6505 26.3689C10.6373 26.8303 9.92502 27.7295 9.98391 28.5849C11.3613 27.9823 12.7077 28.3493 14.0747 28.6301C14.9233 28.8045 15.8058 28.9127 16.6695 28.8931C18.2366 28.8577 19.8993 27.4084 20.2472 25.775Z" fill="#F5BE1D"/>
<path d="M27.3352 13.8008C27.3031 16.6497 25.9618 20.2695 23.0321 20.9741C22.5372 21.0932 22.0171 21.1808 21.5113 21.1689C18.6314 21.1015 15.796 21.3376 13.0477 22.2696C13.0018 22.2851 12.8862 22.2928 12.7748 22.2616C12.713 22.2444 12.6823 22.175 12.7087 22.1164C12.8517 21.7999 12.9545 21.5105 13.1209 21.2639C14.1001 19.8131 15.5523 18.9664 17.1202 18.3468C19.3473 17.4667 21.6339 16.7367 23.8571 15.8475C24.825 15.4604 25.7012 14.842 26.6132 14.3183C26.8266 14.1958 27.0161 14.0316 27.3352 13.8008Z" fill="white"/>
<path d="M23.8665 21.6635C23.6337 22.038 23.4314 22.4367 23.1596 22.7804C21.4894 24.8936 19.3876 25.8505 16.6459 25.3492C14.8187 25.0152 12.957 24.8533 11.2026 25.7683C11.1132 25.815 11.0076 25.8382 10.9067 25.8528C10.8636 25.8591 10.8186 25.8534 10.7517 25.8438C10.655 25.8301 10.5866 25.7423 10.5955 25.6451C10.6718 24.8081 11.0676 24.1214 11.7302 23.6846C12.5559 23.1402 13.4579 22.5612 14.401 22.3765C16.4121 21.9824 18.4686 21.8079 20.5117 21.594C21.5778 21.4825 22.6551 21.4784 23.7274 21.4258C23.791 21.5346 23.8028 21.5547 23.8665 21.6635Z" fill="white"/>
<path d="M20.2473 25.7754C19.8993 27.4088 18.2367 28.8581 16.6695 28.8936C15.8058 28.9131 14.9233 28.8049 14.0746 28.6306C12.7077 28.3498 11.3613 27.9828 9.98387 28.5853C9.92497 27.7298 10.6373 26.8307 11.6505 26.3693C12.6911 25.8954 13.7826 25.9615 14.8484 26.1381C16.6467 26.4357 18.4226 26.6988 20.2473 25.7754Z" fill="white"/>
</g>
<defs>
<clipPath id="clip0_1_15784">
<rect width="36" height="36" fill="white" transform="translate(0 0.00390625)"/>
</clipPath>
</defs>
</svg>
