<svg width="36" height="36" viewBox="0 0 36 36" fill="none" xmlns="http://www.w3.org/2000/svg">
<g clip-path="url(#clip0_1_15647)">
<path d="M18.0578 35.8519C27.9154 35.8519 35.9066 27.8607 35.9066 18.0031C35.9066 8.14548 27.9154 0.154297 18.0578 0.154297C8.20016 0.154297 0.208984 8.14548 0.208984 18.0031C0.208984 27.8607 8.20016 35.8519 18.0578 35.8519Z" fill="url(#paint0_linear_1_15647)"/>
<path d="M15.7102 14.3313H9.04297V11.7969H19.339L17.8846 13.3737C17.3302 13.9857 16.5382 14.3313 15.7102 14.3313Z" fill="white"/>
<path d="M15.7102 21.6895H9.04297V24.2239H19.339L17.8846 22.6471C17.3302 22.0351 16.5382 21.6895 15.7102 21.6895Z" fill="white"/>
<path d="M13.147 16.7441H9.04297V19.2785H13.147V16.7441Z" fill="white"/>
<path d="M26.9065 11.834L20.7289 18.0116L26.9065 24.1892H24.3433C23.7385 24.1892 23.1625 23.9516 22.7377 23.5268L17.1865 17.9756L22.6513 12.5036C23.0761 12.0788 23.6593 11.834 24.2641 11.834H26.9065Z" fill="white"/>
</g>
<defs>
<linearGradient id="paint0_linear_1_15647" x1="5.43769" y1="30.6209" x2="30.677" y2="5.38157" gradientUnits="userSpaceOnUse">
<stop stop-color="#C08429"/>
<stop offset="1" stop-color="#FDEA8C"/>
</linearGradient>
<clipPath id="clip0_1_15647">
<rect width="36" height="36" fill="white" transform="translate(0 0.00390625)"/>
</clipPath>
</defs>
</svg>
