<svg width="36" height="36" viewBox="0 0 36 36" fill="none" xmlns="http://www.w3.org/2000/svg">
<path d="M26.9346 2.82617L35.8469 7.98742L26.9346 13.1205V2.82617Z" fill="#B3D002"/>
<path d="M26.9347 2.82617L17.9961 7.97338L26.9347 13.1205V2.82617Z" fill="#F4EA1B"/>
<path d="M26.9347 13.1198L17.9961 18.2247V7.97266L26.9347 13.1198Z" fill="#66B72F"/>
<path d="M17.996 7.97266L9.02539 13.0986L17.996 18.2247V7.97266Z" fill="#0568B2"/>
<path d="M17.996 7.97338L9.02539 2.82617V13.0993L17.996 7.97338Z" fill="#5EB9DD"/>
<path d="M9.02595 2.82617L0.198242 7.97338L9.02595 13.0993V2.82617Z" fill="#1D3691"/>
<path d="M26.9092 17.9219L35.8215 23.0831L26.9092 28.2161V17.9219Z" fill="#B3D002"/>
<path d="M26.9085 17.9219L17.9697 23.069L26.9085 28.2161V17.9219Z" fill="#F4EA1B"/>
<path d="M26.9085 28.2155L17.9697 33.3204V23.0684L26.9085 28.2155Z" fill="#66B72F"/>
<path d="M17.9696 23.0684L8.99902 28.1944L17.9696 33.3204V23.0684Z" fill="#0568B2"/>
<path d="M17.9696 23.069L8.99902 17.9219V28.1951L17.9696 23.069Z" fill="#5EB9DD"/>
<path d="M8.99958 28.1951V17.9219L0.171875 23.069" fill="#1D3691"/>
</svg>
