<svg width="36" height="36" viewBox="0 0 36 36" fill="none" xmlns="http://www.w3.org/2000/svg">
<g clip-path="url(#clip0_1_15750)">
<path d="M28.1779 10.306C32.2301 10.306 35.5147 13.5906 35.5147 17.6428C35.5147 21.695 32.2301 24.9796 28.1779 24.9796C24.1258 24.9796 20.8411 21.695 20.8411 17.6428C20.8411 13.5906 24.1258 10.306 28.1779 10.306ZM18.9058 0.476562C20.8598 0.476562 22.4438 2.06056 22.4438 4.01464C22.4438 5.96872 20.8598 7.55272 18.9058 7.55272C16.9517 7.55272 15.3677 5.96872 15.3677 4.01464C15.3677 2.06056 16.9531 0.476562 18.9058 0.476562ZM18.9058 27.7502C20.8598 27.7502 22.4438 29.3342 22.4438 31.2882C22.4438 33.2423 20.8598 34.8263 18.9058 34.8263C16.9517 34.8263 15.3677 33.2423 15.3677 31.2882C15.3677 29.3342 16.9531 27.7502 18.9058 27.7502ZM17.2858 22.9406C17.4946 23.0097 17.7221 23.0457 17.9482 23.0457C19.1678 23.0457 20.1614 22.0521 20.1614 20.8324C20.1614 19.6127 19.1678 18.6191 17.9482 18.6191C17.1634 18.6191 16.4837 19.0194 16.0834 19.63V19.6473C16.0142 19.7351 15.961 19.8388 15.9264 19.9439C13.487 24.2481 8.5896 21.3724 8.5896 21.3724C7.78752 20.9015 6.86448 20.6236 5.8536 20.6236C2.9088 20.6236 0.521277 23.0111 0.521277 25.9559C0.521277 28.9007 2.9088 31.2882 5.8536 31.2882C7.90992 31.2882 9.7056 30.1204 10.5768 28.4126V28.3953C10.7338 28.0986 10.8562 27.7847 10.9598 27.4535C13.5043 21.6158 17.2858 22.9406 17.2858 22.9406ZM16.0301 15.1156C16.1352 15.3071 16.2734 15.4986 16.4304 15.6556C17.3016 16.5268 18.6955 16.5268 19.5494 15.6556C20.4206 14.7844 20.4206 13.3905 19.5494 12.5366C18.9922 11.9793 18.2246 11.7878 17.5277 11.9447H17.5104C17.4053 11.962 17.2843 11.9966 17.1792 12.0498C12.4042 13.3746 10.9757 7.86664 10.9757 7.86664C10.7496 6.96088 10.2787 6.10696 9.58176 5.41C7.49088 3.31768 4.12848 3.31768 2.05344 5.39128C-0.0216035 7.46488 -0.0374433 10.846 2.05344 12.9196C3.51792 14.3841 5.59152 14.819 7.43904 14.2271H7.45632C7.77024 14.122 8.08416 13.9838 8.39808 13.8268C14.305 11.4911 16.0301 15.1156 16.0301 15.1156Z" fill="#2B5EBA"/>
</g>
<defs>
<clipPath id="clip0_1_15750">
<rect width="36" height="35.2944" fill="white" transform="translate(0 0.00390625)"/>
</clipPath>
</defs>
</svg>
