<svg width="36" height="36" viewBox="0 0 36 36" fill="none" xmlns="http://www.w3.org/2000/svg">
<path d="M26.9435 2.57617L35.8122 18.0173L26.9435 33.4964L25.0548 30.2938L32.199 18.0363L25.0548 5.45336H10.8897L9.00098 2.57617H26.9435Z" fill="#C4A9D4"/>
<path d="M9.0008 2.57617L0.163086 18.0363L9.0008 33.4964H26.9433L25.0546 30.2938H10.919L3.878 18.0363L10.8895 5.45336L9.0008 2.57617Z" fill="#AE9ACD"/>
<path d="M11.3066 11.2891H24.5392V24.4681L21.873 21.802V14.1068H19.2604V19.2429L16.5675 16.6927V14.0711H11.3066V11.2891Z" fill="#C4A9D4"/>
<path d="M16.5675 16.6914H11.3066V19.2594H19.2604L16.5675 16.6914Z" fill="#AE9ACD"/>
<path d="M21.873 21.8008H11.3066V24.4669H24.5392L21.873 21.8008Z" fill="#AE9ACD"/>
</svg>
