<svg width="36" height="36" viewBox="0 0 36 36" fill="none" xmlns="http://www.w3.org/2000/svg">
<path d="M12.7626 5.4668C12.6969 5.4668 12.6364 5.50229 12.6044 5.55968L9.03202 11.958C8.96463 12.0787 9.0519 12.2275 9.19021 12.2275H16.7533L20.4707 5.46687L12.7626 5.4668Z" fill="#0277AF"/>
<path d="M20.4713 5.4668L16.7539 12.2274H24.2876L28.1938 5.4668H20.4713Z" fill="#01A4CF"/>
<path d="M35.4486 5.4668H28.1933L24.2871 12.2274H31.9295C31.9956 12.2274 32.0564 12.1914 32.0883 12.1335L35.6074 5.73521C35.6738 5.61454 35.5864 5.4668 35.4486 5.4668Z" fill="#01CEFD"/>
<path d="M8.51158 14.375C8.44592 14.375 8.38544 14.4105 8.3534 14.4679L4.78105 20.8661C4.71365 20.9868 4.80092 21.1356 4.93923 21.1356H12.5023L16.2196 14.375H8.51158Z" fill="#0277AF"/>
<path d="M16.2193 14.375L12.502 21.1356H20.0357L23.9419 14.375H16.2193Z" fill="#01A4CF"/>
<path d="M31.1976 14.375H23.9423L20.0361 21.1356H27.6786C27.7447 21.1356 27.8054 21.0996 27.8373 21.0417L31.3564 14.6434C31.4227 14.5227 31.3354 14.375 31.1976 14.375Z" fill="#01CEFD"/>
<path d="M3.99017 23.1484C3.92451 23.1484 3.86403 23.1839 3.83199 23.2413L0.259563 29.6395C0.192171 29.7603 0.279435 29.909 0.417747 29.909H7.98084L11.6982 23.1484H3.99017Z" fill="#0277AF"/>
<path d="M11.6978 23.1484L7.98047 29.909H15.5142L19.4203 23.1484H11.6978Z" fill="#01A4CF"/>
<path d="M26.6762 23.1484H19.4208L15.5146 29.909H23.1571C23.2232 29.909 23.284 29.873 23.3158 29.8151L26.8349 23.4169C26.9013 23.2962 26.8139 23.1484 26.6762 23.1484Z" fill="#01CEFD"/>
</svg>
