<svg width="36" height="36" viewBox="0 0 36 36" fill="none" xmlns="http://www.w3.org/2000/svg">
<g clip-path="url(#clip0_1_15638)">
<path d="M2.66511 9.09206C7.80411 6.12523 12.9389 3.16085 18.0756 0.195312C23.2209 3.16603 28.3559 6.13078 33.4884 9.09408C33.4884 15.0434 33.4884 20.9727 33.4884 26.919C28.3559 29.8824 23.2211 32.8471 18.0754 35.8182C12.9387 32.8527 7.80353 29.8881 2.66504 26.9216C2.66511 20.981 2.66511 15.0522 2.66511 9.09206ZM10.2682 22.5126C10.2682 19.5517 10.2682 16.5997 10.2682 13.6401C7.89505 12.2277 5.53078 10.8207 3.13664 9.3959C3.13664 15.1691 3.13664 20.895 3.13664 26.6326C8.02796 29.4564 12.9167 32.2787 17.8366 35.1189C17.8366 32.3386 17.8366 29.6179 17.8366 26.8841C15.3159 25.4282 12.7963 23.9728 10.2682 22.5126ZM25.8785 22.5151C23.3438 23.9788 20.8298 25.4304 18.3331 26.8723C18.3331 29.6249 18.3331 32.3554 18.3331 35.1088C23.247 32.2715 28.134 29.4498 33.0035 26.6382C33.0035 20.9736 33.0035 15.3413 33.0035 9.66842C30.6077 11.0518 28.2441 12.4166 25.8785 13.7826C25.8785 16.7007 25.8785 19.5995 25.8785 22.5151ZM32.7711 9.2411C27.8435 6.3961 22.9587 3.57586 18.0749 0.756192C13.2527 3.5405 8.4452 6.31632 3.60637 9.11021C5.97394 10.5203 8.29458 11.9023 10.6275 13.2917C13.1117 11.8579 15.5911 10.4269 18.0754 8.99299C20.6027 10.4518 23.1223 11.9063 25.6392 13.3591C28.0164 11.9865 30.3737 10.6254 32.7711 9.2411ZM17.8319 26.3188C17.8319 23.5727 17.8319 20.8636 17.8319 18.144C15.4799 16.7444 13.1303 15.3463 10.7548 13.9328C10.7548 16.7313 10.7548 19.4745 10.7548 22.2336C13.1042 23.5898 15.4545 24.9465 17.8319 26.3188ZM18.3194 26.3179C20.7042 24.9414 23.0498 23.5874 25.3827 22.2407C25.3827 19.5117 25.3827 16.8048 25.3827 14.0681C23.0041 15.4415 20.6529 16.7992 18.3194 18.1466C18.3194 20.8761 18.3194 23.5731 18.3194 26.3179ZM11.1093 13.5756C13.445 14.9673 15.7564 16.3445 18.0766 17.7269C20.4285 16.3681 22.7744 15.0129 25.1516 13.6396C22.7625 12.2601 20.4176 10.9064 18.0752 9.55387C15.7515 10.8954 13.4459 12.2266 11.1093 13.5756Z" fill="black"/>
<path d="M17.832 26.3195C15.4546 24.9472 13.1042 23.5905 10.7549 22.2344C10.7549 19.4751 10.7549 16.7321 10.7549 13.9336C13.1304 15.3471 15.48 16.7453 17.832 18.1448C17.832 20.8645 17.832 23.5735 17.832 26.3195Z" fill="#104F9D"/>
<path d="M18.3193 26.3182C18.3193 23.5733 18.3193 20.8763 18.3193 18.1469C20.6529 16.7995 23.0041 15.4418 25.3826 14.0684C25.3826 16.805 25.3826 19.5119 25.3826 22.2409C23.0497 23.5876 20.7041 24.9416 18.3193 26.3182Z" fill="#33AFFF"/>
<path d="M11.1094 13.5765C13.446 12.2274 15.7516 10.8963 18.0752 9.55469C20.4177 10.9071 22.7625 12.261 25.1517 13.6404C22.7745 15.0137 20.4286 16.369 18.0766 17.7277C15.7565 16.3453 13.4451 14.9681 11.1094 13.5765Z" fill="#E32EA2"/>
<path d="M6.95923 24.7762C6.96499 24.9876 6.80162 25.1591 6.58865 25.1654C6.36962 25.1719 6.20035 25.0169 6.19171 24.8022C6.18329 24.5933 6.35018 24.4167 6.56215 24.4103C6.77506 24.404 6.95362 24.5684 6.95923 24.7762Z" fill="black"/>
<path d="M4.48227 26.4126C4.26015 26.4089 4.10535 26.2509 4.10744 26.0303C4.10953 25.8132 4.27268 25.6558 4.49279 25.6582C4.71296 25.6607 4.87136 25.8233 4.86546 26.0408C4.85941 26.2672 4.70562 26.4164 4.48227 26.4126Z" fill="black"/>
<path d="M9.03831 23.5295C9.04364 23.7494 8.88826 23.9152 8.67212 23.9203C8.45842 23.9252 8.28656 23.7621 8.28231 23.5503C8.27799 23.3348 8.43783 23.1655 8.65218 23.1584C8.86832 23.1514 9.03298 23.3097 9.03831 23.5295Z" fill="black"/>
<path d="M31.2014 26.3744C30.9863 26.3767 30.8128 26.213 30.8077 26.0032C30.8028 25.7999 30.9794 25.6184 31.1851 25.6153C31.4 25.6121 31.5688 25.7727 31.5752 25.9866C31.5814 26.1956 31.4111 26.3723 31.2014 26.3744Z" fill="black"/>
<path d="M26.9891 23.9246C26.7819 23.9245 26.6109 23.7495 26.6123 23.5389C26.6137 23.3275 26.7846 23.1572 26.9943 23.1582C27.1985 23.1591 27.3731 23.3366 27.3746 23.5446C27.3761 23.747 27.1959 23.9246 26.9891 23.9246Z" fill="black"/>
<path d="M29.1241 24.4024C29.3174 24.4045 29.4825 24.5804 29.4776 24.7789C29.4726 24.9782 29.284 25.1573 29.0852 25.1514C28.9027 25.146 28.7156 24.9563 28.7148 24.7761C28.7139 24.5631 28.8928 24.3998 29.1241 24.4024Z" fill="black"/>
<path d="M18.3394 4.93771C18.3433 5.13917 18.1645 5.325 17.9625 5.32954C17.7631 5.334 17.5736 5.15371 17.5675 4.95398C17.5616 4.75966 17.7466 4.56763 17.9465 4.56072C18.1391 4.55402 18.3357 4.74266 18.3394 4.93771Z" fill="black"/>
<path d="M17.9539 7.75485C17.7425 7.75434 17.5674 7.58241 17.5684 7.37613C17.5693 7.17093 17.7456 6.99993 17.9561 7C18.1664 7 18.3426 7.17316 18.3409 7.37822C18.3393 7.58471 18.1639 7.75535 17.9539 7.75485Z" fill="black"/>
<path d="M17.948 2.13487C18.1564 2.12983 18.3361 2.30083 18.3389 2.50697C18.3417 2.71332 18.1696 2.8867 17.9592 2.88972C17.7452 2.89275 17.5728 2.72952 17.5675 2.51878C17.5624 2.31732 17.7382 2.13999 17.948 2.13487Z" fill="black"/>
</g>
<defs>
<clipPath id="clip0_1_15638">
<rect width="36" height="36" fill="white" transform="translate(0 0.00390625)"/>
</clipPath>
</defs>
</svg>
