<svg width="36" height="36" viewBox="0 0 36 36" fill="none" xmlns="http://www.w3.org/2000/svg">
<g clip-path="url(#clip0_1_15635)">
<path d="M17.9696 34.9158C27.4409 34.9158 35.119 27.2378 35.119 17.7665C35.119 8.2952 27.4409 0.617188 17.9696 0.617188C8.49832 0.617188 0.820312 8.2952 0.820312 17.7665C0.820312 27.2378 8.49832 34.9158 17.9696 34.9158Z" fill="url(#paint0_radial_1_15635)"/>
<path d="M18.6198 31.7865C25.5609 31.7865 31.1878 26.515 31.1878 20.0124C31.1878 13.5097 25.5609 8.23828 18.6198 8.23828C11.6787 8.23828 6.05176 13.5097 6.05176 20.0124C6.05176 26.515 11.6787 31.7865 18.6198 31.7865Z" fill="url(#paint1_linear_1_15635)"/>
<path d="M18.0884 35.148C25.5823 35.148 31.6573 29.4567 31.6573 22.4363C31.6573 15.4158 25.5823 9.72461 18.0884 9.72461C10.5945 9.72461 4.51953 15.4158 4.51953 22.4363C4.51953 29.4567 10.5945 35.148 18.0884 35.148Z" fill="url(#paint2_radial_1_15635)"/>
<path d="M14.2865 29.5221C14.2245 29.5154 12.7594 29.3544 11.9977 28.9191C11.868 28.845 8.80746 27.079 7.58425 24.8772C6.553 23.0208 4.80635 19.6676 4.69597 18.0659C4.59553 16.61 4.67452 13.4926 5.18924 12.4632C5.2251 12.3915 5.26938 12.2935 5.32547 12.1692C5.6612 11.4254 6.35989 9.87765 7.74712 8.51073C9.46655 6.8165 11.6718 5.95538 14.3017 5.95135C14.3191 5.95113 16.2159 5.92773 18.3498 5.92773C19.6035 5.92773 20.6927 5.93565 21.5872 5.95142C24.4274 6.00125 26.6962 6.24144 27.7761 6.43202L27.9622 6.46449C28.7192 6.59561 29.0025 6.64471 29.0637 7.19587C29.1161 7.66797 29.5376 11.0934 29.542 11.1279L29.5533 11.2203L26.9367 12.8089H29.7482L30.0254 18.0733L26.9699 20.3043H29.7287L28.7854 25.9087L23.541 28.8824L14.2992 29.5234L14.2865 29.5221Z" fill="url(#paint3_linear_1_15635)"/>
<path d="M18.3497 6.0712C19.4288 6.0712 20.5743 6.07711 21.5845 6.09482C24.6146 6.14796 26.8472 6.41378 27.7509 6.57326C28.6546 6.73274 28.8673 6.73274 28.9204 7.21118C28.9736 7.68962 29.3989 11.1449 29.3989 11.1449L26.422 12.9523H29.6115L29.8773 18.0024L26.5283 20.4477H29.5584L28.6547 25.8167L23.4983 28.7404L14.3019 29.3783C14.3019 29.3783 12.8134 29.2188 12.0692 28.7936C11.325 28.3683 8.77333 26.7204 7.71018 24.8067C6.64703 22.893 4.94596 19.5971 4.83961 18.0555C4.73327 16.5139 4.83961 13.4839 5.31805 12.527C5.79649 11.5701 7.71011 6.1049 14.3019 6.09482C14.3017 6.09482 16.192 6.0712 18.3497 6.0712ZM18.3497 5.7832C16.2149 5.7832 14.317 5.8066 14.2982 5.80682C11.6324 5.81085 9.39318 6.68594 7.64588 8.4076C6.23951 9.79339 5.5334 11.3577 5.19407 12.1094C5.14086 12.2273 5.09485 12.3292 5.06036 12.3982C4.53397 13.4511 4.45081 16.6053 4.55219 18.0753C4.66458 19.7047 6.42124 23.0798 7.45832 24.9465C8.70076 27.183 11.7951 28.9686 11.9262 29.0436C12.7137 29.4936 14.2079 29.6579 14.2711 29.6647L14.2964 29.6674L14.3217 29.6657L23.5181 29.0278L23.5834 29.0232L23.6403 28.991L28.7967 26.0673L28.9159 25.9997L28.9387 25.8645L29.8423 20.4955L29.8989 20.1597H29.5583H27.411L30.047 18.235L30.173 18.143L30.1648 17.9873L29.899 12.9372L29.8847 12.6643H29.6114H27.4512L29.5483 11.3911L29.7074 11.2944L29.6847 11.1097C29.6804 11.0751 29.259 7.6506 29.2066 7.17936C29.1335 6.5207 28.7502 6.45432 27.9867 6.32205C27.9283 6.3119 27.8664 6.30124 27.801 6.28965C26.716 6.0982 24.4382 5.85686 21.5895 5.80689C20.6943 5.7912 19.6042 5.7832 18.3497 5.7832Z" fill="#692CC2"/>
<path d="M4.99805 18.0684C4.99805 18.0684 5.14205 19.9404 5.91007 21.6685C6.67809 23.3966 8.55362 26.1295 9.22221 26.8527C10.2173 27.929 12.1506 29.1903 13.3506 29.3343C14.5506 29.4783 17.8305 29.2497 18.573 29.2393C19.0554 29.2325 22.9705 28.8373 23.4986 28.7414C24.0266 28.6454 28.5289 26.0676 28.655 25.8176C28.7581 25.6132 28.8154 24.8652 28.8154 24.8652L25.1475 25.7095L14.0982 26.2316C13.7365 26.2462 13.1981 26.1867 12.7728 26.1499C12.2374 26.1034 11.7254 26.0025 11.1036 25.8062C10.4371 25.5957 9.60324 25.1648 8.92233 24.6482C7.96445 23.9215 6.8159 22.7805 6.15026 21.1405C5.72748 20.0993 4.99805 18.0684 4.99805 18.0684Z" fill="white"/>
<path d="M10.3154 13.0057L11.6444 11.1983C11.6444 11.1983 11.5913 10.7198 14.0897 10.6667C16.5881 10.6136 28.8146 11.0388 28.8146 11.0388L26.3161 13.0057H10.3154Z" fill="url(#paint4_linear_1_15635)"/>
<path d="M29.239 18.0566L26.1026 20.4488L12.2282 20.8741C12.2282 20.8741 11.0056 19.8641 10.7929 19.4654C10.5803 19.0667 10.3145 18.5351 10.3145 18.5351C10.3145 18.5351 24.7736 18.4287 26.1558 18.3756C27.5379 18.3224 29.239 18.0566 29.239 18.0566Z" fill="url(#paint5_linear_1_15635)"/>
<path d="M27.6442 25.9773C27.6442 25.9773 23.6041 28.3695 23.2852 28.4758C22.9662 28.5822 15.2703 29.1135 14.514 29.1137C13.5384 29.1139 12.3345 28.7948 11.5371 28.2101C10.7397 27.6253 9.51705 26.4559 9.25123 25.9774C8.9854 25.499 8.24121 24.6484 8.24121 24.6484C8.24121 24.6484 10.0486 25.8179 11.3244 26.19C12.6002 26.5621 15.2888 26.4779 16.5115 26.4247C17.7342 26.3716 27.6442 25.9773 27.6442 25.9773Z" fill="url(#paint6_linear_1_15635)"/>
<path d="M26.1441 4.88116C26.1441 4.88116 23.3085 4.03048 21.4856 4.07101C19.6627 4.11155 17.3132 4.27355 16.0979 4.67862C14.8826 5.08369 14.3966 5.32677 14.3966 5.32677C14.3966 5.32677 15.1662 6.25845 15.0852 7.14966C15.0042 8.04088 14.113 9.0941 13.0598 9.37763C12.0066 9.66117 10.9534 9.82324 10.1432 9.66117C9.33294 9.49917 7.46958 8.44588 7.46958 8.44588L6.05176 7.43313C6.05176 7.43313 7.46958 5.48869 9.81909 4.35448C12.1686 3.22026 14.5586 2.24805 17.5563 2.24805C20.5539 2.24805 22.7009 2.93673 23.9567 3.54433C25.2124 4.15201 26.1441 4.88116 26.1441 4.88116Z" fill="white"/>
<path d="M6.05224 7.43359C6.05224 7.43359 4.97375 8.79857 4.70022 9.4002C4.42669 10.0019 3.52417 11.7522 3.36009 13.4753C3.196 15.1983 3.16864 16.5336 3.36009 17.4386C3.55153 18.3435 3.87971 19.6016 3.87971 19.6016C3.87971 19.6016 5.00104 14.9796 5.16513 13.8582C5.32921 12.7369 6.12237 10.3575 6.80608 9.537C7.48979 8.71649 8.11885 7.73196 8.11885 7.73196L6.05224 7.43359Z" fill="url(#paint7_linear_1_15635)"/>
<path d="M8.11885 7.73047C8.11885 7.73047 6.923 9.29157 6.6651 9.72451C6.40719 10.1574 5.34008 11.8683 5.27449 12.7354C5.2089 13.6025 5.02832 15.443 5.02832 15.443C5.02832 15.443 6.9428 11.997 7.46242 11.3953C7.98205 10.7936 9.48627 8.79708 9.48627 8.79708L8.11885 7.73047Z" fill="url(#paint8_linear_1_15635)"/>
</g>
<defs>
<radialGradient id="paint0_radial_1_15635" cx="0" cy="0" r="1" gradientUnits="userSpaceOnUse" gradientTransform="translate(9.78445 7.18871) scale(18.5127)">
<stop stop-color="#21FFE3"/>
<stop offset="1" stop-color="#8549DF"/>
</radialGradient>
<linearGradient id="paint1_linear_1_15635" x1="19.1748" y1="31.8051" x2="18.1673" y2="10.3977" gradientUnits="userSpaceOnUse">
<stop stop-color="#21FFE3"/>
<stop offset="1" stop-color="#8549DF"/>
</linearGradient>
<radialGradient id="paint2_radial_1_15635" cx="0" cy="0" r="1" gradientUnits="userSpaceOnUse" gradientTransform="translate(18.0884 22.4363) scale(16.0461)">
<stop stop-color="#21FFE3"/>
<stop offset="0.1916" stop-color="#23FCE3" stop-opacity="0.8084"/>
<stop offset="0.3419" stop-color="#28F2E3" stop-opacity="0.6581"/>
<stop offset="0.478" stop-color="#31E1E2" stop-opacity="0.522"/>
<stop offset="0.6059" stop-color="#3ECAE2" stop-opacity="0.3941"/>
<stop offset="0.728" stop-color="#4FACE1" stop-opacity="0.272"/>
<stop offset="0.8458" stop-color="#6386E0" stop-opacity="0.1542"/>
<stop offset="0.958" stop-color="#7B5BDF" stop-opacity="0.042"/>
<stop offset="1" stop-color="#8549DF" stop-opacity="0"/>
</radialGradient>
<linearGradient id="paint3_linear_1_15635" x1="6.39496" y1="9.57254" x2="28.3472" y2="22.4755" gradientUnits="userSpaceOnUse">
<stop stop-color="#21FFE3"/>
<stop offset="1" stop-color="#F8FFFB"/>
</linearGradient>
<linearGradient id="paint4_linear_1_15635" x1="10.3154" y1="11.8339" x2="28.8146" y2="11.8339" gradientUnits="userSpaceOnUse">
<stop stop-color="#692CC2"/>
<stop offset="0.5189" stop-color="#3E5BDE"/>
<stop offset="1" stop-color="#229EE7"/>
</linearGradient>
<linearGradient id="paint5_linear_1_15635" x1="10.3145" y1="19.4653" x2="29.239" y2="19.4653" gradientUnits="userSpaceOnUse">
<stop stop-color="#692CC2"/>
<stop offset="0.5189" stop-color="#3E5BDE"/>
<stop offset="1" stop-color="#229EE7"/>
</linearGradient>
<linearGradient id="paint6_linear_1_15635" x1="8.2413" y1="26.881" x2="27.6442" y2="26.881" gradientUnits="userSpaceOnUse">
<stop stop-color="#677CF4"/>
<stop offset="0.2764" stop-color="#374CD7"/>
<stop offset="0.3631" stop-color="#3752D8"/>
<stop offset="0.4747" stop-color="#3562DB"/>
<stop offset="0.5999" stop-color="#337CE1"/>
<stop offset="0.7351" stop-color="#30A1E9"/>
<stop offset="0.8766" stop-color="#2DD0F2"/>
<stop offset="1" stop-color="#29FFFC"/>
</linearGradient>
<linearGradient id="paint7_linear_1_15635" x1="5.85435" y1="10.4219" x2="2.56382" y2="18.7978" gradientUnits="userSpaceOnUse">
<stop stop-color="#F8FFFB"/>
<stop offset="1" stop-color="#F8FFFB" stop-opacity="0"/>
</linearGradient>
<linearGradient id="paint8_linear_1_15635" x1="7.34816" y1="10.875" x2="6.79939" y2="18.4009" gradientUnits="userSpaceOnUse">
<stop stop-color="#F8FFFB"/>
<stop offset="1" stop-color="#F8FFFB" stop-opacity="0"/>
</linearGradient>
<clipPath id="clip0_1_15635">
<rect width="36" height="36" fill="white" transform="translate(0 0.00390625)"/>
</clipPath>
</defs>
</svg>
