<svg width="36" height="36" viewBox="0 0 36 36" fill="none" xmlns="http://www.w3.org/2000/svg">
<g clip-path="url(#clip0_1_15630)">
<path d="M18.0808 1.56445L25.5679 11.6787L28.9965 27.5644L18.0808 34.3072L7.16797 27.5644L10.5965 11.1073L18.0808 1.56445Z" fill="white"/>
<path d="M18.2021 0.572338C18.3533 0.71893 18.5292 0.84745 18.652 1.01485C21.0397 4.26911 23.4228 7.5266 25.7992 10.789C25.9271 10.9646 26.0285 11.1798 26.0751 11.3913C27.251 16.7326 28.418 22.0757 29.5858 27.4187C29.6836 27.866 29.6301 27.9812 29.2427 28.2241C25.605 30.5039 21.9677 32.7844 18.331 35.0658C18.3056 35.0817 18.2898 35.1129 18.2696 35.1369C18.1346 35.1369 17.9995 35.1369 17.8645 35.1369C17.8051 35.0896 17.7495 35.0361 17.6855 34.996C14.0589 32.7198 10.4336 30.4415 6.80066 28.1753C6.47522 27.9724 6.48854 27.7081 6.55104 27.4172C6.86229 25.968 7.18291 24.5208 7.49992 23.0728C8.3452 19.2116 9.18674 15.3495 10.0431 11.4906C10.104 11.2162 10.2319 10.936 10.3973 10.7085C12.7509 7.47138 15.115 4.24196 17.4824 1.01499C17.6053 0.847594 17.781 0.71893 17.9321 0.572266C18.0221 0.572338 18.1121 0.572338 18.2021 0.572338ZM13.2801 17.7731C14.2747 20.909 15.2645 24.0301 16.2489 27.1338C17.4968 27.1338 18.6958 27.1338 19.9128 27.1338C20.9045 24.0059 21.8913 20.8933 22.8806 17.7726C21.2853 14.9677 19.6936 12.1691 18.0672 9.30961C16.4541 12.1616 14.8745 14.9541 13.2801 17.7731ZM24.9061 11.3723C22.8273 8.52675 20.7479 5.68038 18.6686 2.83407C18.6027 4.56891 18.6003 6.26603 18.6081 7.96299C18.6086 8.07675 18.6722 8.19829 18.7308 8.30247C20.1966 10.9056 21.6656 13.5069 23.1351 16.1079C23.1811 16.1892 23.2384 16.2642 23.3165 16.3813C23.8547 14.6856 24.377 13.0397 24.9061 11.3723ZM12.8166 16.3492C12.8764 16.273 12.9082 16.2416 12.9294 16.204C14.4371 13.5457 15.9449 10.8875 17.4469 8.22608C17.5039 8.12514 17.5279 7.99266 17.5284 7.87479C17.5336 6.26646 17.532 4.65812 17.5313 3.04979C17.5313 2.987 17.5233 2.92422 17.5129 2.76935C15.3851 5.68232 13.3079 8.52611 11.2281 11.3733C11.7569 13.0301 12.2807 14.6706 12.8166 16.3492ZM28.1712 27.1393C26.6288 24.4179 25.1198 21.7554 23.5736 19.0273C22.704 21.775 21.8599 24.4421 21.0063 27.1393C23.4079 27.1393 25.7522 27.1393 28.1712 27.1393ZM12.5602 19.0541C11.0049 21.799 9.49756 24.4591 7.96886 27.1572C10.3799 27.1572 12.7318 27.1572 15.1256 27.1572C14.274 24.4676 13.4316 21.8067 12.5602 19.0541ZM19.0286 33.3696C21.7804 31.6436 24.4427 29.9738 27.1052 28.3039C27.0943 28.2817 27.0834 28.2596 27.0725 28.2374C24.9395 28.2374 22.8065 28.2374 20.6488 28.2374C20.1172 29.9211 19.5884 31.5963 19.0286 33.3696ZM17.0056 33.3052C17.0278 33.2909 17.0499 33.2765 17.0722 33.2623C16.5432 31.5876 16.0141 29.9129 15.4914 28.2579C13.3181 28.2579 11.185 28.2579 8.95677 28.2579C11.6968 29.9762 14.3512 31.6407 17.0056 33.3052ZM10.7609 13.4472C10.7386 13.4463 10.7164 13.4454 10.6942 13.4444C9.91185 17.0211 9.12957 20.5978 8.34722 24.1745C8.36644 24.1816 8.38567 24.1888 8.40496 24.1959C9.63875 22.019 10.8725 19.8421 12.1058 17.666C11.6531 16.2461 11.207 14.8466 10.7609 13.4472ZM24.0281 17.6407C25.274 19.8373 26.4981 21.9954 27.7221 24.1536C27.7421 24.1438 27.7622 24.134 27.7823 24.1243C27.0021 20.5589 26.2219 16.9935 25.4417 13.4281C25.4172 13.4303 25.3927 13.4326 25.3682 13.4349C24.9223 14.8345 24.4763 16.2342 24.0281 17.6407ZM18.0241 32.7264C18.0527 32.727 18.0814 32.7277 18.1101 32.7283C18.5877 31.2417 19.0654 29.755 19.5503 28.2456C18.5526 28.2456 17.6048 28.2456 16.6104 28.2456C17.0892 29.7634 17.5567 31.2449 18.0241 32.7264Z" fill="black"/>
</g>
<defs>
<clipPath id="clip0_1_15630">
<rect width="36" height="36" fill="white" transform="translate(0 0.00390625)"/>
</clipPath>
</defs>
</svg>
