<svg width="36" height="36" viewBox="0 0 36 36" fill="none" xmlns="http://www.w3.org/2000/svg">
<g clip-path="url(#clip0_1_15465)">
<path fill-rule="evenodd" clip-rule="evenodd" d="M22.5796 0.234375L18.85 2.65357L18.166 10.4152L23.3716 4.59757C23.3716 4.60477 22.5796 0.234375 22.5796 0.234375Z" fill="black"/>
<path fill-rule="evenodd" clip-rule="evenodd" d="M12.6221 4.64062L13.0541 12.4238L16.7045 14.951L17.6333 10.6022L12.6221 4.64062Z" fill="black"/>
<path fill-rule="evenodd" clip-rule="evenodd" d="M18.4102 10.5663L19.2022 14.9367L22.9318 12.5175L23.6158 4.75586L18.4102 10.5663Z" fill="black"/>
<path fill-rule="evenodd" clip-rule="evenodd" d="M23.5077 13.0283L20.9805 16.6715L25.3293 17.6003L31.2909 12.6035L23.5077 13.0283Z" fill="black"/>
<path fill-rule="evenodd" clip-rule="evenodd" d="M25.3724 18.3926L21.002 19.1846L23.4212 22.9142L31.1828 23.5982L25.3724 18.3926Z" fill="black"/>
<path fill-rule="evenodd" clip-rule="evenodd" d="M22.9109 23.4979L19.2677 20.9707L18.3389 25.3123L23.3357 31.2739L22.9109 23.4979Z" fill="black"/>
<path fill-rule="evenodd" clip-rule="evenodd" d="M16.7831 21.0215L13.0463 23.4407L12.3623 31.2023L17.5679 25.3919L16.7831 21.0215Z" fill="black"/>
<path fill-rule="evenodd" clip-rule="evenodd" d="M10.6198 18.3281L4.6582 23.3249L12.4414 22.9001L14.9686 19.2569L10.6198 18.3281Z" fill="black"/>
<path fill-rule="evenodd" clip-rule="evenodd" d="M12.5282 13.0063L4.7666 12.3223L10.577 17.5279L14.9474 16.7359C14.9474 16.7431 12.5282 13.0063 12.5282 13.0063Z" fill="black"/>
<path fill-rule="evenodd" clip-rule="evenodd" d="M4.61552 12.5684L0.245117 13.3604L2.66432 17.0972L10.4259 17.7812C10.4331 17.774 4.61552 12.5684 4.61552 12.5684Z" fill="black"/>
<path fill-rule="evenodd" clip-rule="evenodd" d="M12.3409 4.70628L8.69052 2.17188L7.76172 6.52068L12.7657 12.4895L12.3409 4.70628Z" fill="black"/>
<path fill-rule="evenodd" clip-rule="evenodd" d="M29.4118 7.76562L23.4502 12.7624L31.2334 12.3304L33.7606 8.68722L29.4118 7.76562Z" fill="black"/>
<path fill-rule="evenodd" clip-rule="evenodd" d="M33.2782 18.8383L25.5166 18.1543L31.327 23.3599L35.6974 22.5679L33.2782 18.8383Z" fill="black"/>
<path fill-rule="evenodd" clip-rule="evenodd" d="M23.1768 23.4395L23.6088 31.2227L27.252 33.7499L28.1808 29.4083L23.1768 23.4395Z" fill="black"/>
<path fill-rule="evenodd" clip-rule="evenodd" d="M12.5781 31.3241L13.3701 35.6945L17.1069 33.2753L17.7909 25.5137L12.5781 31.3241Z" fill="black"/>
<path fill-rule="evenodd" clip-rule="evenodd" d="M4.71568 23.5908L2.18848 27.234L6.53728 28.1628L12.4989 23.166L4.71568 23.5908Z" fill="black"/>
<path fill-rule="evenodd" clip-rule="evenodd" d="M6.73242 28.2852L12.1252 31.1365L12.7804 23.2813C12.7732 23.2813 6.73242 28.2852 6.73242 28.2852Z" fill="black"/>
<path fill-rule="evenodd" clip-rule="evenodd" d="M2.72168 17.3125L4.52168 23.1373L10.5409 18.0469L2.72168 17.3125Z" fill="black"/>
<path fill-rule="evenodd" clip-rule="evenodd" d="M7.65357 6.71484L4.80957 12.1004L12.6576 12.7628C12.6648 12.7628 7.65357 6.71484 7.65357 6.71484Z" fill="black"/>
<path fill-rule="evenodd" clip-rule="evenodd" d="M12.8086 4.50374L17.8918 10.5301L18.6262 2.71094L12.8086 4.50374Z" fill="black"/>
<path fill-rule="evenodd" clip-rule="evenodd" d="M23.8392 4.79883L23.1768 12.654L29.2248 7.64283L23.8392 4.79883Z" fill="black"/>
<path fill-rule="evenodd" clip-rule="evenodd" d="M31.4356 12.7988L25.4092 17.882L33.2284 18.6092C33.2356 18.6164 31.4356 12.7988 31.4356 12.7988Z" fill="black"/>
<path fill-rule="evenodd" clip-rule="evenodd" d="M23.2852 23.166L28.2964 29.214L31.1404 23.8284L23.2852 23.166Z" fill="black"/>
<path fill-rule="evenodd" clip-rule="evenodd" d="M18.0573 25.3984L17.3301 33.2176L23.1477 31.4248L18.0573 25.3984Z" fill="black"/>
</g>
<defs>
<clipPath id="clip0_1_15465">
<rect width="36" height="36" fill="white" transform="translate(0 0.00390625)"/>
</clipPath>
</defs>
</svg>
