<svg width="36" height="36" viewBox="0 0 36 36" fill="none" xmlns="http://www.w3.org/2000/svg">
<path d="M25.862 26.0319C23.8028 26.0319 21.7508 25.2471 20.1812 23.6847L19.0868 22.5904L20.3108 21.3664L21.4052 22.4607C23.8604 24.9159 27.8636 24.9159 30.3188 22.4607C31.5068 21.2727 32.162 19.6888 32.162 18.004C32.162 16.3191 31.5068 14.7352 30.3188 13.5472C29.1308 12.3592 27.5468 11.704 25.862 11.704C24.1772 11.704 22.5932 12.3592 21.4052 13.5472L20.2748 14.6776L19.0508 13.4536L20.1812 12.3232C21.7004 10.804 23.7164 9.96875 25.862 9.96875C28.0076 9.96875 30.0236 10.804 31.5428 12.3232C33.062 13.8424 33.8972 15.8584 33.8972 18.004C33.8972 20.1495 33.062 22.1655 31.5428 23.6847C29.9732 25.2471 27.9212 26.0319 25.862 26.0319Z" fill="#00EAC2"/>
<path d="M10.2242 26.1036C8.31616 26.1036 6.37936 25.3908 4.89616 24.1452C3.65056 23.094 2.16016 21.1788 2.16016 18.018C2.16016 14.9004 3.77296 13.014 5.12656 11.9772C6.88336 10.6308 8.93536 10.1484 10.2746 10.1484C13.3058 10.1484 15.0266 11.7396 15.1922 11.9052L19.3898 15.9084L14.0042 21.294C12.9746 22.3236 11.6498 22.8636 10.181 22.8636C9.06496 22.8636 7.93456 22.4964 7.08496 21.8556C6.29296 21.258 5.35696 20.1348 5.35696 18.1548C5.35696 16.1892 6.27856 14.994 7.05616 14.3388C7.92736 13.5972 9.08656 13.158 10.1522 13.158C12.1322 13.158 13.601 14.6412 13.6658 14.6988L14.2634 15.3108L8.74816 20.826C9.18736 21.0204 9.69136 21.1212 10.181 21.1212C11.2034 21.1212 12.0746 20.7612 12.7874 20.0556L16.9274 15.9156L13.9898 13.1148C13.9394 13.0644 12.665 11.8548 10.2818 11.8548C9.27376 11.8548 7.60336 12.2364 6.18496 13.3236C5.13376 14.1372 3.88816 15.5988 3.88816 18.0108C3.88816 20.502 5.04016 21.9996 6.01216 22.8204C7.16416 23.7924 8.74096 24.3756 10.2242 24.3756C12.8954 24.3756 14.5802 22.5468 14.5946 22.5252L14.6306 22.4892L22.7882 14.382C22.9682 14.202 24.0338 13.194 25.8698 13.194C26.9858 13.194 28.1738 13.6044 29.0594 14.3028C29.873 14.9364 30.8378 16.1172 30.8378 18.126C30.8378 21.69 27.9506 22.986 26.0138 22.986C24.7034 22.986 23.4434 22.4532 22.4786 21.4884L21.413 20.4228L22.637 19.1988L23.7026 20.2644C24.1562 20.718 24.9266 21.258 26.021 21.258C28.469 21.258 29.117 19.2132 29.117 18.126C29.117 17.0748 28.7426 16.2396 28.001 15.6636C27.3026 15.1164 26.4458 14.922 25.877 14.922C24.7322 14.922 24.113 15.5124 24.0482 15.5772L24.0194 15.606L15.8618 23.6988C15.617 23.9652 13.5434 26.1036 10.2242 26.1036ZM10.1522 14.8932C9.15136 14.8932 7.08496 15.6924 7.08496 18.1548C7.08496 18.7524 7.20736 19.2636 7.44496 19.6956L11.7434 15.3972C11.3258 15.1452 10.7642 14.8932 10.1522 14.8932Z" fill="#00EAC2"/>
</svg>
