<svg width="36" height="36" viewBox="0 0 36 36" fill="none" xmlns="http://www.w3.org/2000/svg">
<g clip-path="url(#clip0_1_15681)">
<path d="M18.0358 26.2123C22.6406 26.2123 26.3734 22.4794 26.3734 17.8747C26.3734 13.27 22.6406 9.53711 18.0358 9.53711C13.4311 9.53711 9.69824 13.27 9.69824 17.8747C9.69824 22.4794 13.4311 26.2123 18.0358 26.2123Z" fill="url(#paint0_linear_1_15681)"/>
<path d="M19.246 0.220703H2.93085C1.46925 0.220703 0.28125 1.4087 0.28125 2.8775V19.2287C0.28125 28.3439 7.66845 35.7311 16.7837 35.7311H33.0989C34.5605 35.7311 35.7485 34.5431 35.7485 33.0815V16.7231C35.7485 7.6079 28.3613 0.220703 19.246 0.220703ZM2.31165 5.0951C2.31165 3.6263 3.49965 2.4383 4.96845 2.4383C6.43725 2.4383 7.62525 3.6263 7.62525 5.0951C7.62525 6.5639 6.43725 7.7519 4.96845 7.7519C3.49965 7.7519 2.31165 6.5639 2.31165 5.0951ZM18.0365 31.2167C10.6709 31.2167 4.69485 25.2479 4.69485 17.8751C4.69485 10.5095 10.6637 4.5335 18.0365 4.5335C25.4021 4.5335 31.3781 10.5023 31.3781 17.8751C31.3781 25.2407 25.4021 31.2167 18.0365 31.2167ZM30.9965 33.5639C29.5277 33.5639 28.3397 32.3759 28.3397 30.9071C28.3397 29.4383 29.5277 28.2503 30.9965 28.2503C32.4653 28.2503 33.6533 29.4383 33.6533 30.9071C33.6533 32.3687 32.4653 33.5639 30.9965 33.5639Z" fill="url(#paint1_linear_1_15681)"/>
<path d="M18.0359 9.5372C22.6295 9.5372 26.3735 13.274 26.3735 17.8748C26.3735 22.4756 22.6295 26.2124 18.0359 26.2124C13.4423 26.2124 9.69834 22.4684 9.69834 17.8748C9.69834 13.2812 13.4423 9.5372 18.0359 9.5372ZM18.0359 4.5332C10.6703 4.5332 4.69434 10.502 4.69434 17.8748C4.69434 25.2404 10.6631 31.2164 18.0359 31.2164C25.4015 31.2164 31.3775 25.2476 31.3775 17.8748C31.3775 10.5092 25.4015 4.5332 18.0359 4.5332Z" fill="white"/>
<path d="M4.96832 7.7511C6.43563 7.7511 7.62512 6.56161 7.62512 5.0943C7.62512 3.62699 6.43563 2.4375 4.96832 2.4375C3.50101 2.4375 2.31152 3.62699 2.31152 5.0943C2.31152 6.56161 3.50101 7.7511 4.96832 7.7511Z" fill="white"/>
<path d="M30.9957 33.5636C32.463 33.5636 33.6525 32.3741 33.6525 30.9068C33.6525 29.4395 32.463 28.25 30.9957 28.25C29.5284 28.25 28.3389 29.4395 28.3389 30.9068C28.3389 32.3741 29.5284 33.5636 30.9957 33.5636Z" fill="white"/>
</g>
<defs>
<linearGradient id="paint0_linear_1_15681" x1="-0.186026" y1="-0.347388" x2="35.1193" y2="34.9579" gradientUnits="userSpaceOnUse">
<stop stop-color="#13429B"/>
<stop offset="1" stop-color="#3EA8FF"/>
</linearGradient>
<linearGradient id="paint1_linear_1_15681" x1="-0.245934" y1="-0.286472" x2="35.0593" y2="35.0188" gradientUnits="userSpaceOnUse">
<stop stop-color="#13429B"/>
<stop offset="1" stop-color="#3EA8FF"/>
</linearGradient>
<clipPath id="clip0_1_15681">
<rect width="36" height="36" fill="white" transform="translate(0 0.00390625)"/>
</clipPath>
</defs>
</svg>
