<svg width="36" height="36" viewBox="0 0 36 36" fill="none" xmlns="http://www.w3.org/2000/svg">
<g clip-path="url(#clip0_1_15932)">
<path d="M35.0096 11.4542C35.0096 14.2475 35.0096 17.0408 35.0096 19.8341C34.6641 19.9932 34.3183 20.1517 33.9731 20.3114C32.4686 21.0072 30.9646 21.7042 29.4598 22.3992C28.1841 22.9882 26.9072 23.5748 25.6312 24.1629C24.5638 24.6549 23.4884 25.1307 22.4314 25.644C20.7463 26.4622 18.9871 26.7463 17.1419 26.4211C15.0667 26.0554 13.3547 25.0493 12.0035 23.4331C11.8082 23.1995 11.6328 22.9494 11.4413 22.6981C9.92349 23.428 8.4017 24.1598 6.87501 24.8938C6.90568 24.9477 6.92721 24.9872 6.95025 25.0258C7.56074 26.0483 8.28866 26.9781 9.13984 27.8117C10.0787 28.7311 11.1286 29.499 12.2904 30.1111C14.1135 31.0716 16.0572 31.593 18.1159 31.6751C19.4513 31.7282 20.7665 31.5805 22.059 31.2381C23.0239 30.9825 23.9411 30.6077 24.8372 30.1687C26.2277 29.4873 27.6309 28.8318 29.0281 28.1641C30.7687 27.3324 32.5087 26.4993 34.249 25.6669C34.4487 25.5714 34.6487 25.4765 34.8747 25.3689C34.9143 25.5052 34.9806 25.6287 34.9814 25.7526C34.989 27.0396 34.9861 28.3266 34.9858 29.6136C34.9858 29.6503 34.9828 29.687 34.9812 29.7217C34.0608 30.1646 33.1474 30.6041 32.234 31.0435C30.8656 31.7019 29.4973 32.3604 28.129 33.0188C27.3311 33.4027 26.5408 33.8032 25.7341 34.1674C23.8324 35.0261 21.8355 35.5132 19.7526 35.6451C19.546 35.6582 19.3396 35.6736 19.1331 35.688C18.8009 35.688 18.4687 35.688 18.1365 35.688C18.0807 35.6814 18.0251 35.6706 17.9691 35.6688C16.9302 35.6332 15.9038 35.4993 14.8888 35.277C13.2477 34.9177 11.6901 34.3337 10.218 33.5251C8.50761 32.5854 6.99569 31.3915 5.67996 29.9502C4.44761 28.6004 3.44861 27.0944 2.68454 25.4345C1.75445 23.4138 1.21704 21.2929 1.07916 19.0718C1.06634 18.8653 1.05115 18.659 1.03711 18.4525C1.03711 18.1128 1.03711 17.7731 1.03711 17.4334C1.04395 17.3777 1.05504 17.3222 1.05691 17.2664C1.0842 16.4663 1.17168 15.6728 1.30869 14.8841C1.60281 13.1914 2.13144 11.575 2.89392 10.0363C3.96621 7.87243 5.42068 6.00425 7.25532 4.43306C8.50041 3.36674 9.86877 2.49173 11.3594 1.81082C13.3197 0.915359 15.3758 0.395159 17.5283 0.261959C17.7311 0.249431 17.9338 0.234455 18.1365 0.220703C18.4687 0.220703 18.8008 0.220703 19.133 0.220703C19.1888 0.227327 19.2445 0.235103 19.3005 0.240359C19.9534 0.301991 20.61 0.337415 21.2586 0.429647C23.0639 0.686471 24.7803 1.23994 26.4117 2.05231C28.343 3.01402 30.0421 4.28777 31.5068 5.87306C32.8262 7.30118 33.8808 8.90369 34.6726 10.6792C34.7875 10.9364 34.8974 11.1958 35.0096 11.4542ZM31.0353 15.4694C31.038 15.4329 31.0415 15.407 31.0415 15.3811C31.0418 14.3733 31.0422 13.3655 31.0404 12.3577C31.0403 12.3107 31.0276 12.2599 31.007 12.2175C30.8658 11.926 30.7305 11.6309 30.5755 11.3466C29.449 9.2809 27.8983 7.60733 25.9141 6.34114C24.1035 5.18575 22.1255 4.50139 19.9903 4.27646C18.8631 4.15766 17.7381 4.18898 16.6165 4.35869C15.0853 4.59038 13.6331 5.06494 12.2695 5.79602C9.55492 7.2515 7.5508 9.38681 6.25956 12.1795C5.25343 14.3555 4.85282 16.6471 5.03944 19.0398C5.11829 20.0511 5.31045 21.0401 5.60695 22.0095C5.61948 22.0505 5.63575 22.0904 5.65296 22.138C7.19469 21.3965 8.72138 20.6622 10.2522 19.926C9.91644 18.4928 9.92745 17.0742 10.3018 15.6615C10.6772 14.2449 11.3649 12.9993 12.3683 11.9315C13.3698 10.8658 14.5686 10.1027 15.9587 9.65098C19.5725 8.47666 23.1148 9.91255 24.9598 12.094C21.3479 13.6915 17.7384 15.2881 14.1114 16.8923C15.903 18.1686 17.6718 19.4286 19.4488 20.6946C23.312 18.9524 27.174 17.2108 31.0353 15.4694Z" fill="#263A4F"/>
</g>
<defs>
<clipPath id="clip0_1_15932">
<rect width="36" height="36" fill="white" transform="translate(0 0.00390625)"/>
</clipPath>
</defs>
</svg>
