<svg width="36" height="36" viewBox="0 0 36 36" fill="none" xmlns="http://www.w3.org/2000/svg">
<g clip-path="url(#clip0_1_15767)">
<path d="M6.89001 19.6095C10.8068 21.6903 14.8892 23.8647 18.05 25.5495L29.1164 19.6095C25.106 25.5639 21.7652 30.5175 18.0428 36.0039C14.3204 30.5319 10.202 24.4911 6.89001 19.6095ZM7.31481 17.9679L18.0572 12.2367L28.6628 17.9319L18.0644 23.6703L7.31481 17.9679ZM18.0428 10.3935L6.88281 16.2687L17.9996 0.00390625L29.1164 16.3047L18.0428 10.3935Z" fill="#3AB83A"/>
<path d="M18.0432 25.5495L29.1096 19.6095C25.1064 25.5639 18.0432 36.0039 18.0432 36.0039V25.5495ZM18.0576 12.2295L28.6632 17.9247L18.0648 23.6631L18.0576 12.2295ZM18.0432 10.3935L18 0.00390625L29.1168 16.3047L18.0432 10.3935Z" fill="#0B8311"/>
<path d="M7.31543 17.9676L18.0578 18.846L28.6634 17.9316L18.065 23.67L7.31543 17.9676Z" fill="#0B8311"/>
<path d="M18.0576 18.846L28.6632 17.9316L18.0648 23.67L18.0576 18.846Z" fill="#146714"/>
</g>
<defs>
<clipPath id="clip0_1_15767">
<rect width="36" height="36" fill="white" transform="translate(0 0.00390625)"/>
</clipPath>
</defs>
</svg>
