<svg width="36" height="36" viewBox="0 0 36 36" fill="none" xmlns="http://www.w3.org/2000/svg">
<g clip-path="url(#clip0_1_15732)">
<path d="M24.2464 13.9345L27.1885 16.1618L29.0459 17.5672L26.9718 18.6269L22.8005 20.7574L24.2315 21.7467L26.2334 23.1305L24.0708 24.2467L10.8027 31.0887C13.0066 32.3036 15.4829 32.9391 17.9994 32.9354C26.2457 32.9354 32.9306 26.2505 32.9306 18.0043C32.9358 14.5068 31.7081 11.1194 29.4631 8.4375L24.2464 13.9345Z" fill="#091B26"/>
<path d="M11.7526 22.8521L8.81051 20.6255L6.95312 19.2201L9.02716 18.1605L13.1985 16.0293L11.7675 15.04L9.76559 13.6562L11.9282 12.5401L25.901 5.33394C23.5322 3.85218 20.7936 3.06832 17.9995 3.07228C9.75328 3.07228 3.06836 9.75719 3.06836 18.0034C3.06836 21.8371 4.51362 25.3327 6.88854 27.9766L11.7526 22.8521Z" fill="#091B26"/>
<path d="M5.97862 28.9353C3.3481 26.0466 1.74351 22.2087 1.74351 18.0034C1.74351 9.03986 9.03589 1.74749 17.9995 1.74749C21.3048 1.74389 24.5318 2.75376 27.2454 4.64088L28.6982 3.89186C25.7238 1.63113 22.0155 0.287109 17.9995 0.287109C8.23078 0.287109 0.283203 8.23461 0.283203 18.0034C0.283203 22.6251 2.06284 26.8384 4.97185 29.996L5.97862 28.9353Z" fill="#091B26"/>
<path d="M30.3757 7.47706C32.7936 10.3154 34.2555 13.9921 34.2555 18.0043C34.2555 26.9678 26.9631 34.2602 17.9996 34.2602C14.9647 34.2636 11.9903 33.4122 9.41688 31.8035L7.92871 32.5711C10.885 34.6253 14.3996 35.7245 17.9996 35.7206C27.7683 35.7206 35.7159 27.7731 35.7159 18.0043C35.7159 13.5752 34.0824 9.52136 31.3864 6.41211L30.3757 7.47706Z" fill="#091B26"/>
<path d="M9.6918 19.4621L13.9363 22.6741L4.34961 32.7744L23.4008 22.9482L19.9594 20.5691L26.3075 17.3259L22.0631 14.1139L31.6497 4.01367L12.5985 13.8399L16.0399 16.219L9.6918 19.4621Z" fill="#23BEE2"/>
</g>
<defs>
<clipPath id="clip0_1_15732">
<rect width="36" height="36" fill="white" transform="translate(0 0.00390625)"/>
</clipPath>
</defs>
</svg>
