<svg width="36" height="36" viewBox="0 0 36 36" fill="none" xmlns="http://www.w3.org/2000/svg">
<path d="M11.2396 12.4238L8.31641 14.1374L11.4052 15.8726V26.1974L14.3284 24.3686V14.2454L11.2396 12.4238Z" fill="#383534"/>
<path d="M17.3236 12.4238L14.4004 14.1374L17.4892 15.8726V26.1974L20.4196 24.3686V14.2454L17.3236 12.4238Z" fill="#383534"/>
<path d="M23.5075 12.4238L20.5771 14.1374L23.6731 15.8726V26.1974L26.5963 24.3686V14.2454L23.5075 12.4238Z" fill="#383534"/>
<path d="M30.9021 9.97605C31.3793 9.97605 31.7661 9.58922 31.7661 9.11205C31.7661 8.63487 31.3793 8.24805 30.9021 8.24805C30.4249 8.24805 30.0381 8.63487 30.0381 9.11205C30.0381 9.58922 30.4249 9.97605 30.9021 9.97605Z" fill="#FAC83A"/>
<path d="M33.6386 18.7089C34.8117 18.7089 35.7626 17.758 35.7626 16.5849C35.7626 15.4119 34.8117 14.4609 33.6386 14.4609C32.4656 14.4609 31.5146 15.4119 31.5146 16.5849C31.5146 17.758 32.4656 18.7089 33.6386 18.7089Z" fill="#13608A"/>
<path d="M32.3063 26.4348C33.2407 26.4348 33.9983 25.6772 33.9983 24.7428C33.9983 23.8083 33.2407 23.0508 32.3063 23.0508C31.3718 23.0508 30.6143 23.8083 30.6143 24.7428C30.6143 25.6772 31.3718 26.4348 32.3063 26.4348Z" fill="#1077A6"/>
<path d="M27.0794 32.2233C27.8826 32.2233 28.5338 31.5721 28.5338 30.7689C28.5338 29.9656 27.8826 29.3145 27.0794 29.3145C26.2762 29.3145 25.625 29.9656 25.625 30.7689C25.625 31.5721 26.2762 32.2233 27.0794 32.2233Z" fill="#228DC1"/>
<path d="M19.5839 34.6639C20.1804 34.6639 20.6639 34.1804 20.6639 33.5839C20.6639 32.9874 20.1804 32.5039 19.5839 32.5039C18.9874 32.5039 18.5039 32.9874 18.5039 33.5839C18.5039 34.1804 18.9874 34.6639 19.5839 34.6639Z" fill="#29A7D6"/>
<path d="M11.4983 32.8365C11.896 32.8365 12.2183 32.5141 12.2183 32.1165C12.2183 31.7188 11.896 31.3965 11.4983 31.3965C11.1007 31.3965 10.7783 31.7188 10.7783 32.1165C10.7783 32.5141 11.1007 32.8365 11.4983 32.8365Z" fill="#33BDEE"/>
<path d="M5.25581 29.7401C6.69529 29.7401 7.86221 28.5732 7.86221 27.1337C7.86221 25.6943 6.69529 24.5273 5.25581 24.5273C3.81634 24.5273 2.64941 25.6943 2.64941 27.1337C2.64941 28.5732 3.81634 29.7401 5.25581 29.7401Z" fill="#E61912"/>
<path d="M2.5053 21.6903C3.75789 21.6903 4.7733 20.6749 4.7733 19.4223C4.7733 18.1697 3.75789 17.1543 2.5053 17.1543C1.25272 17.1543 0.237305 18.1697 0.237305 19.4223C0.237305 20.6749 1.25272 21.6903 2.5053 21.6903Z" fill="#E44114"/>
<path d="M3.96719 13.3523C5.04878 13.3523 5.92559 12.4755 5.92559 11.3939C5.92559 10.3124 5.04878 9.43555 3.96719 9.43555C2.88559 9.43555 2.00879 10.3124 2.00879 11.3939C2.00879 12.4755 2.88559 13.3523 3.96719 13.3523Z" fill="#E65A12"/>
<path d="M9.0504 6.98752C9.98486 6.98752 10.7424 6.22998 10.7424 5.29552C10.7424 4.36105 9.98486 3.60352 9.0504 3.60352C8.11593 3.60352 7.3584 4.36105 7.3584 5.29552C7.3584 6.22998 8.11593 6.98752 9.0504 6.98752Z" fill="#EE7523"/>
<path d="M16.6677 3.86269C17.4431 3.86269 18.0717 3.2341 18.0717 2.45869C18.0717 1.68328 17.4431 1.05469 16.6677 1.05469C15.8923 1.05469 15.2637 1.68328 15.2637 2.45869C15.2637 3.2341 15.8923 3.86269 16.6677 3.86269Z" fill="#EA8E17"/>
<path d="M24.8835 4.93685C25.4879 4.93685 25.9779 4.44687 25.9779 3.84245C25.9779 3.23803 25.4879 2.74805 24.8835 2.74805C24.279 2.74805 23.7891 3.23803 23.7891 3.84245C23.7891 4.44687 24.279 4.93685 24.8835 4.93685Z" fill="#EDA717"/>
</svg>
