<svg width="36" height="36" viewBox="0 0 36 36" fill="none" xmlns="http://www.w3.org/2000/svg">
<g clip-path="url(#clip0_1_15623)">
<path d="M18.0214 5.84975L30.2686 18.097L18.0214 30.3442L5.77419 18.097L18.0214 5.84975ZM18.0214 5.09375L17.647 5.46815L5.39979 17.7154L5.02539 18.0898L5.39979 18.4642L17.647 30.7114L18.0214 31.0858L18.3958 30.7114L30.643 18.4642L31.0174 18.0898L30.643 17.7154L18.403 5.46815L18.0214 5.09375Z" fill="#178AFD"/>
<path d="M18.0212 1.32146L27.806 18.0975L18.0212 34.7295L8.294 18.0975L18.0212 1.32146ZM18.0212 0.255859L17.5604 1.04786L7.83321 17.8239L7.6748 18.0903L7.83321 18.3567L17.5604 34.9887L18.0212 35.7735L18.482 34.9887L28.2668 18.3567L28.4252 18.0903L28.2668 17.8167L18.482 1.04066L18.0212 0.255859Z" fill="#178AFD"/>
<path d="M18.0229 13.7925L13.7158 18.0996L18.0229 22.4067L22.33 18.0996L18.0229 13.7925Z" fill="#178AFD"/>
</g>
<defs>
<clipPath id="clip0_1_15623">
<rect width="36" height="36" fill="white" transform="translate(0 0.00390625)"/>
</clipPath>
</defs>
</svg>
