<svg width="36" height="36" viewBox="0 0 36 36" fill="none" xmlns="http://www.w3.org/2000/svg">
<g clip-path="url(#clip0_1_15622)">
<path d="M17.9998 0.460938C8.31093 0.460938 0.457046 8.31483 0.457046 18.0037C0.453374 20.8569 1.14842 23.6676 2.48146 26.1903L4.4581 24.2137L8.58435 19.9927C9.46685 20.5635 10.6076 20.541 11.467 19.9359L13.2632 21.7322L14.9039 20.0915L12.5656 17.7525C12.5296 16.3247 11.3429 15.1964 9.91511 15.2324C8.51213 15.2679 7.39344 16.4158 7.39423 17.8192C7.39423 17.8801 7.39917 17.9394 7.40329 17.9996L3.59825 21.8038C1.50426 13.85 6.25456 5.70461 14.2084 3.61059C22.1622 1.51657 30.3076 6.26689 32.4016 14.2207C33.0648 16.7399 33.0556 19.3889 32.375 21.9035L26.3289 15.8574L26.3157 15.8706C26.325 15.7825 26.3297 15.6939 26.3297 15.6053C26.3297 14.1416 25.1431 12.955 23.6794 12.955C22.2156 12.955 21.029 14.1416 21.029 15.6054C21.0295 15.7225 21.0381 15.8394 21.0545 15.9554L7.92136 28.9683L7.76157 29.1223L6.046 30.8412C9.28872 33.8704 13.5623 35.5525 17.9998 35.5464C27.6887 35.5464 35.5425 27.6926 35.5425 18.0037C35.5425 8.3148 27.6887 0.460938 17.9998 0.460938ZM17.9998 32.8961C15.0737 32.9004 12.2118 32.0387 9.77448 30.4195L22.5403 17.9955C23.3472 18.3831 24.2957 18.3348 25.0589 17.867L31.4978 24.3059C29.0491 29.5482 23.7858 32.8978 17.9998 32.8961Z" fill="#004DA7"/>
<path d="M23.7421 16.869C24.4044 16.869 24.9413 16.3321 24.9413 15.6699C24.9413 15.0076 24.4044 14.4707 23.7421 14.4707C23.0798 14.4707 22.543 15.0076 22.543 15.6699C22.543 16.3321 23.0798 16.869 23.7421 16.869Z" fill="white"/>
<path d="M9.98529 19.0136C10.6476 19.0136 11.1845 18.4767 11.1845 17.8144C11.1845 17.1521 10.6476 16.6152 9.98529 16.6152C9.32302 16.6152 8.78613 17.1521 8.78613 17.8144C8.78613 18.4767 9.32302 19.0136 9.98529 19.0136Z" fill="white"/>
</g>
<defs>
<clipPath id="clip0_1_15622">
<rect width="36" height="36" fill="white" transform="translate(0 0.00390625)"/>
</clipPath>
</defs>
</svg>
