<svg width="36" height="36" viewBox="0 0 36 36" fill="none" xmlns="http://www.w3.org/2000/svg">
<g clip-path="url(#clip0_1_15609)">
<path d="M18.0285 35.5218C27.7151 35.5218 35.5677 27.6692 35.5677 17.9826C35.5677 8.29593 27.7151 0.443359 18.0285 0.443359C8.34182 0.443359 0.489258 8.29593 0.489258 17.9826C0.489258 27.6692 8.34182 35.5218 18.0285 35.5218Z" fill="#AF5EFF"/>
<path d="M13.9824 27.7104C13.0248 27.7104 12.0744 27.4656 11.1672 26.9688C8.51762 25.5144 6.77522 22.1232 6.62402 18.12L8.38082 17.3496C8.52482 21.4824 9.95042 24.2328 12.0456 25.3776C13.3704 26.1048 14.796 26.0688 16.1568 25.2696L17.4168 26.5944C16.308 27.3288 15.0192 27.7104 13.9824 27.7104Z" fill="white"/>
<path d="M22.0323 27.796C17.0787 27.796 14.8467 22.2376 14.8467 18.2992C14.8467 13.6264 17.0211 13.1224 17.9571 13.1224C19.4763 13.1224 21.2475 14.4688 21.2475 18.2488C21.2475 21.3592 19.6563 23.7928 19.5987 23.872L18.4467 22.2736C18.4539 22.2592 19.4403 20.7616 19.4403 18.2488C19.4403 15.9664 18.6699 14.9296 17.9571 14.9296C17.1579 14.9296 16.6611 16.2184 16.6611 18.2992C16.6611 20.7112 18.0147 25.9888 22.0395 25.9888C26.2371 25.9888 27.5979 20.2288 27.5979 17.4424C27.5979 13.9432 26.3451 12.2152 25.2435 10.6888C25.1427 10.552 24.7611 10.0696 24.6675 9.93277L26.4243 9.23438C26.5179 9.36398 26.6115 9.49358 26.7051 9.62318C27.8427 11.1928 29.4051 13.3456 29.4051 17.4352C29.3979 21.4384 27.3963 27.796 22.0323 27.796Z" fill="white"/>
</g>
<defs>
<clipPath id="clip0_1_15609">
<rect width="36" height="36" fill="white" transform="translate(0 0.00390625)"/>
</clipPath>
</defs>
</svg>
