<svg width="36" height="36" viewBox="0 0 36 36" fill="none" xmlns="http://www.w3.org/2000/svg">
<g clip-path="url(#clip0_1_15620)">
<path d="M18.1944 4.77823L29.6496 11.395V24.6214L18.1944 31.2382L6.74636 24.6214V11.395L18.1944 4.77823ZM18.1944 3.64062C18 3.64062 17.7984 3.69102 17.6256 3.79182L6.17036 10.4086C5.81756 10.6102 5.60156 10.9846 5.60156 11.395V24.6214C5.60156 25.0246 5.81756 25.4062 6.17036 25.6078L17.6256 32.2246C17.7984 32.3254 18 32.3758 18.1944 32.3758C18.3888 32.3758 18.5904 32.3254 18.7632 32.2246L30.2184 25.6078C30.5712 25.4062 30.7872 25.0318 30.7872 24.6214V11.395C30.7872 10.9918 30.5712 10.6102 30.2184 10.4086L18.7632 3.79182C18.5904 3.69102 18.396 3.64062 18.1944 3.64062Z" fill="url(#paint0_linear_1_15620)"/>
<path d="M23.3565 15.6288L22.8525 14.7864L27.2877 12.1152L27.7989 12.9504L23.3565 15.6288Z" fill="url(#paint1_linear_1_15620)"/>
<path d="M13.0322 15.6288L8.58984 12.9504L9.10104 12.1152L13.5362 14.7864L13.0322 15.6288Z" fill="url(#paint2_linear_1_15620)"/>
<path d="M18.6188 24.1387H17.6396V28.6243H18.6188V24.1387Z" fill="url(#paint3_linear_1_15620)"/>
<path d="M9.58303 13.0292V9.06203L6.14863 7.08203L2.70703 9.06203V13.0292L6.14863 15.0164L9.58303 13.0292Z" fill="url(#paint4_linear_1_15620)"/>
<path d="M6.14861 7.0814L9.58301 9.0686V13.0358L6.14861 15.023L2.71421 13.0358V9.0686L6.14861 7.0814ZM6.14861 6.5918C6.06221 6.5918 5.97581 6.6134 5.90381 6.6566L2.46941 8.6438C2.31821 8.7302 2.22461 8.8958 2.22461 9.0686V13.0358C2.22461 13.2086 2.31821 13.3742 2.46941 13.4606L5.90381 15.4406C5.98301 15.4838 6.06221 15.5054 6.14861 15.5054C6.23501 15.5054 6.32141 15.4838 6.39341 15.4406L9.82781 13.4534C9.97901 13.367 10.0726 13.2014 10.0726 13.0286V9.0614C10.0726 8.8886 9.97901 8.723 9.82781 8.6366L6.39341 6.6566C6.31421 6.6134 6.22781 6.5918 6.14861 6.5918Z" fill="white"/>
<path d="M9.58303 26.9466V22.9794L6.14863 20.9922L2.70703 22.9794V26.9466L6.14863 28.9266L9.58303 26.9466Z" fill="url(#paint5_linear_1_15620)"/>
<path d="M6.14861 20.9916L9.58301 22.9788V26.946L6.14861 28.9332L2.71421 26.946V22.9788L6.14861 20.9916ZM6.14861 20.502C6.06221 20.502 5.97581 20.5236 5.90381 20.5668L2.46941 22.554C2.31821 22.6404 2.22461 22.806 2.22461 22.9788V26.946C2.22461 27.1188 2.31821 27.2844 2.46941 27.3708L5.90381 29.358C5.98301 29.4012 6.06221 29.4228 6.14861 29.4228C6.23501 29.4228 6.32141 29.4012 6.39341 29.358L9.82781 27.3708C9.97901 27.2844 10.0726 27.1188 10.0726 26.946V22.9788C10.0726 22.806 9.97901 22.6404 9.82781 22.554L6.39341 20.5668C6.31421 20.5236 6.22781 20.502 6.14861 20.502Z" fill="white"/>
<path d="M21.6358 6.11065V2.14345L18.1942 0.15625L14.7598 2.14345V6.11065L18.1942 8.09065L21.6358 6.11065Z" fill="url(#paint6_linear_1_15620)"/>
<path d="M18.1945 0.155616L21.6289 2.14282V6.11002L18.1945 8.09721L14.7601 6.11002V2.14282L18.1945 0.155616ZM18.1945 -0.333984C18.1081 -0.333984 18.0217 -0.312384 17.9497 -0.269184L14.5153 1.71802C14.3641 1.80442 14.2705 1.97002 14.2705 2.14282V6.11002C14.2705 6.28282 14.3641 6.44841 14.5153 6.53481L17.9497 8.52202C18.0289 8.56522 18.1081 8.58681 18.1945 8.58681C18.2809 8.58681 18.3673 8.56522 18.4393 8.52202L21.8737 6.53481C22.0249 6.44841 22.1185 6.28282 22.1185 6.11002V2.14282C22.1185 1.97002 22.0249 1.80442 21.8737 1.71802L18.4393 -0.269184C18.3673 -0.312384 18.2809 -0.333984 18.1945 -0.333984Z" fill="white"/>
<path d="M21.6358 33.8743V29.9071L18.1942 27.9199L14.7598 29.9071V33.8743L18.1942 35.8543L21.6358 33.8743Z" fill="url(#paint7_linear_1_15620)"/>
<path d="M18.1945 27.9193L21.6289 29.9065V33.8737L18.1945 35.8609L14.7601 33.8737V29.9065L18.1945 27.9193ZM18.1945 27.4297C18.1081 27.4297 18.0217 27.4513 17.9497 27.4945L14.5153 29.4817C14.3641 29.5681 14.2705 29.7337 14.2705 29.9065V33.8737C14.2705 34.0465 14.3641 34.2121 14.5153 34.2985L17.9497 36.2857C18.0289 36.3289 18.1081 36.3505 18.1945 36.3505C18.2809 36.3505 18.3673 36.3289 18.4393 36.2857L21.8737 34.2985C22.0249 34.2121 22.1185 34.0465 22.1185 33.8737V29.9065C22.1185 29.7337 22.0249 29.5681 21.8737 29.4817L18.4393 27.4945C18.3673 27.4513 18.2809 27.4297 18.1945 27.4297Z" fill="white"/>
<path d="M24.1279 21.4313V14.5841L18.1951 11.1641L12.2695 14.5841V21.4313L18.1951 24.8513L24.1279 21.4313Z" fill="url(#paint8_linear_1_15620)"/>
<path d="M18.1947 11.1646L24.1203 14.5846V21.4318L18.1947 24.8518L12.2691 21.4318V14.5846L18.1947 11.1646ZM18.1947 10.5742C18.0939 10.5742 17.9931 10.603 17.8995 10.6534L11.9739 14.0734C11.7939 14.1814 11.6787 14.3758 11.6787 14.5846V21.4318C11.6787 21.6406 11.7939 21.835 11.9739 21.943L17.8995 25.363C17.9931 25.4134 18.0939 25.4422 18.1947 25.4422C18.2955 25.4422 18.3963 25.4134 18.4899 25.363L24.4155 21.943C24.5955 21.835 24.7107 21.6406 24.7107 21.4318V14.5846C24.7107 14.3758 24.5955 14.1814 24.4155 14.0734L18.4899 10.6534C18.4035 10.5958 18.3027 10.5742 18.1947 10.5742Z" fill="white"/>
<path d="M33.6813 13.1009V9.13368L30.2469 7.14648L26.8125 9.13368V13.1009L30.2469 15.0809L33.6813 13.1009Z" fill="url(#paint9_linear_1_15620)"/>
<path d="M30.2472 7.14585L33.6816 9.13305V13.1002L30.2472 15.0875L26.8128 13.1002V9.13305L30.2472 7.14585ZM30.2472 6.65625C30.1608 6.65625 30.0744 6.67785 30.0024 6.72105L26.568 8.70105C26.4168 8.78745 26.3232 8.95305 26.3232 9.12585V13.0931C26.3232 13.2659 26.4168 13.4314 26.568 13.5178L30.0024 15.5051C30.0816 15.5483 30.1608 15.5698 30.2472 15.5698C30.3336 15.5698 30.42 15.5483 30.492 15.5051L33.9264 13.5178C34.0776 13.4314 34.1712 13.2659 34.1712 13.0931V9.12585C34.1712 8.95305 34.0776 8.78745 33.9264 8.70105L30.492 6.71385C30.42 6.67785 30.3336 6.65625 30.2472 6.65625Z" fill="white"/>
<path d="M33.6813 27.0097V23.0425L30.2469 21.0625L26.8125 23.0425V27.0097L30.2469 28.9969L33.6813 27.0097Z" fill="url(#paint10_linear_1_15620)"/>
<path d="M30.2472 21.0632L33.6816 23.0504V27.0176L30.2472 29.0048L26.8128 27.0176V23.0432L30.2472 21.0632ZM30.2472 20.5664C30.1608 20.5664 30.0744 20.588 30.0024 20.6312L26.568 22.6184C26.4168 22.7048 26.3232 22.8704 26.3232 23.0432V27.0104C26.3232 27.1832 26.4168 27.3488 26.568 27.4352L30.0024 29.4224C30.0816 29.4656 30.1608 29.4872 30.2472 29.4872C30.3336 29.4872 30.42 29.4656 30.492 29.4224L33.9264 27.4352C34.0776 27.3488 34.1712 27.1832 34.1712 27.0104V23.0432C34.1712 22.8704 34.0776 22.7048 33.9264 22.6184L30.492 20.6312C30.42 20.5952 30.3336 20.5664 30.2472 20.5664Z" fill="white"/>
</g>
<defs>
<linearGradient id="paint0_linear_1_15620" x1="18.1972" y1="34.5488" x2="18.1972" y2="1.18826" gradientUnits="userSpaceOnUse">
<stop stop-color="#4D92F5"/>
<stop offset="1" stop-color="#2BE5CF"/>
</linearGradient>
<linearGradient id="paint1_linear_1_15620" x1="25.3253" y1="34.549" x2="25.3253" y2="1.18847" gradientUnits="userSpaceOnUse">
<stop stop-color="#4D92F5"/>
<stop offset="1" stop-color="#2BE5CF"/>
</linearGradient>
<linearGradient id="paint2_linear_1_15620" x1="11.0637" y1="34.549" x2="11.0637" y2="1.18847" gradientUnits="userSpaceOnUse">
<stop stop-color="#4D92F5"/>
<stop offset="1" stop-color="#2BE5CF"/>
</linearGradient>
<linearGradient id="paint3_linear_1_15620" x1="18.1331" y1="34.5484" x2="18.1331" y2="1.18791" gradientUnits="userSpaceOnUse">
<stop stop-color="#4D92F5"/>
<stop offset="1" stop-color="#2BE5CF"/>
</linearGradient>
<linearGradient id="paint4_linear_1_15620" x1="6.14622" y1="36.0246" x2="6.14622" y2="1.26639" gradientUnits="userSpaceOnUse">
<stop stop-color="#4D92F5"/>
<stop offset="1" stop-color="#2BE5CF"/>
</linearGradient>
<linearGradient id="paint5_linear_1_15620" x1="6.14622" y1="36.0244" x2="6.14622" y2="1.26614" gradientUnits="userSpaceOnUse">
<stop stop-color="#4D92F5"/>
<stop offset="1" stop-color="#2BE5CF"/>
</linearGradient>
<linearGradient id="paint6_linear_1_15620" x1="18.197" y1="36.0253" x2="18.197" y2="1.26701" gradientUnits="userSpaceOnUse">
<stop stop-color="#4D92F5"/>
<stop offset="1" stop-color="#2BE5CF"/>
</linearGradient>
<linearGradient id="paint7_linear_1_15620" x1="18.197" y1="36.0257" x2="18.197" y2="1.26749" gradientUnits="userSpaceOnUse">
<stop stop-color="#4D92F5"/>
<stop offset="1" stop-color="#2BE5CF"/>
</linearGradient>
<linearGradient id="paint8_linear_1_15620" x1="18.198" y1="36.0243" x2="18.198" y2="1.26602" gradientUnits="userSpaceOnUse">
<stop stop-color="#4D92F5"/>
<stop offset="1" stop-color="#2BE5CF"/>
</linearGradient>
<linearGradient id="paint9_linear_1_15620" x1="30.2479" y1="36.0243" x2="30.2479" y2="1.26604" gradientUnits="userSpaceOnUse">
<stop stop-color="#4D92F5"/>
<stop offset="1" stop-color="#2BE5CF"/>
</linearGradient>
<linearGradient id="paint10_linear_1_15620" x1="30.2479" y1="36.0227" x2="30.2479" y2="1.26446" gradientUnits="userSpaceOnUse">
<stop stop-color="#4D92F5"/>
<stop offset="1" stop-color="#2BE5CF"/>
</linearGradient>
<clipPath id="clip0_1_15620">
<rect width="36" height="36" fill="white" transform="translate(0 0.00390625)"/>
</clipPath>
</defs>
</svg>
