<svg width="36" height="36" viewBox="0 0 36 36" fill="none" xmlns="http://www.w3.org/2000/svg">
<path d="M19.9863 6.53906H23.5012C23.5012 6.53906 22.623 6.68695 22.2057 7.03781C21.4969 7.63389 21.3953 8.64009 21.3953 8.64009C21.3953 8.64009 21.3953 7.72764 21.0137 7.18008C20.5826 6.56174 19.9863 6.53906 19.9863 6.53906Z" fill="#AA1422"/>
<path d="M23.5717 23.5308L19.3008 23.643C19.3008 23.643 20.2608 23.572 20.8489 22.9574C21.4043 22.3769 21.3952 21.373 21.3952 21.373C21.3952 21.373 21.4398 22.1642 21.9454 22.7685C22.3231 23.22 22.7885 23.5053 23.5717 23.5308Z" fill="#AA1422"/>
<path d="M3.92578 29.5909H7.64242L11.9629 23.6465H8.57763L3.92578 29.5909Z" fill="#466790"/>
<path d="M32.0358 29.365H28.7543L24.1602 23.5312H27.4611L32.0358 29.365Z" fill="#AA1422"/>
<path d="M17.771 11.2363L14.3926 11.2953L14.4149 18.8769L17.771 18.8855V11.2363Z" fill="#AA1422"/>
<path d="M15.8457 6.53906H19.9864C19.9864 6.53906 20.6818 6.62654 20.9935 7.13018C21.3052 7.63375 21.3953 8.20874 21.3953 8.8265C21.3953 9.44426 21.3953 11.9993 21.3953 11.9993L17.7705 11.2369V8.58559C17.7705 8.58559 17.7705 7.66975 17.1451 7.1057C16.5872 6.60257 15.8457 6.53906 15.8457 6.53906Z" fill="#466790"/>
<path d="M17.7707 18.8866L21.3956 18.2227V21.4586C21.3956 21.4586 21.5213 22.4059 20.8379 23.0053C20.1545 23.6048 19.6509 23.6462 19.1234 23.6462C18.5958 23.6462 15.9346 23.6462 15.9346 23.6462C15.9346 23.6462 16.9137 23.4755 17.2828 23.0026C17.6189 22.5721 17.7707 22.118 17.7707 21.8063C17.7707 21.4946 17.7707 18.8866 17.7707 18.8866Z" fill="#466790"/>
<path d="M33.4384 23.5301H32.036V29.3639L27.4612 23.5301H23.5531C22.3663 23.5301 21.3953 22.5591 21.3953 21.3724V18.2221L17.7705 18.8861V11.2368L21.3953 11.9993V8.8265C21.3953 7.63973 22.3145 6.53906 23.5013 6.53906L33.3888 6.63741C34.5756 6.63741 35.5963 7.59667 35.5963 9.12156V21.3724C35.5963 22.5591 34.6252 23.5301 33.4384 23.5301Z" fill="#F0081D"/>
<path d="M15.8528 23.6458H8.57762L3.92577 29.5902L3.97056 23.6458H2.74044C1.68549 23.6458 0.302734 22.4149 0.302734 21.36L0.41851 8.78366C0.41851 7.72872 1.52897 6.66643 2.58391 6.66643L15.8461 6.53906C16.901 6.53906 17.7709 7.53057 17.7709 8.58552V11.2368L14.3924 11.2958L14.4148 18.8774L17.7709 18.8861V21.7276C17.7709 22.7827 16.9077 23.6458 15.8528 23.6458Z" fill="#2C3B4D"/>
</svg>
