<svg width="36" height="36" viewBox="0 0 36 36" fill="none" xmlns="http://www.w3.org/2000/svg">
<g clip-path="url(#clip0_1_15790)">
<path d="M24.972 10.6141H24.7461C24.7461 10.5394 24.8208 10.4629 24.8208 10.4629H24.8956C24.972 10.5394 24.972 10.6141 24.972 10.6141Z" fill="#EFF3C9"/>
<path d="M16.7563 0.291533C17.2081 0.291533 17.8113 0.216797 18.2631 0.216797C19.8461 0.216797 20.6007 0.819581 20.2983 2.02544C19.9224 3.45694 17.8866 5.49152 15.2484 7.30008C14.7202 7.52595 14.1935 6.84828 14.3447 6.5461C14.3447 6.47136 14.4194 6.47136 14.4194 6.47136C16.757 4.8883 18.4897 3.15648 18.8663 1.87424C19.1669 0.668453 18.1884 0.140333 16.4539 0.291173H16.7563" fill="#D37D41"/>
<path d="M25.8011 2.02598C26.7049 2.47778 27.0818 3.23176 26.7814 4.36274C25.8777 7.75408 19.2438 12.9541 12.0069 16.0432C10.6493 16.6462 9.29376 17.0976 8.08761 17.4749C7.40973 17.5496 7.33327 16.6462 7.63581 16.1942C7.71055 16.043 7.78702 16.043 7.86168 15.9683C8.99316 15.6677 10.1993 15.2144 11.4802 14.6877C18.3401 11.748 24.5968 6.77567 25.4255 3.61005C25.7261 2.47893 25.2743 1.72675 24.294 1.34961C24.7458 1.57375 25.349 1.79961 25.8008 2.02555" fill="#E8B521"/>
<path d="M35.2244 13.48C35.2991 13.8571 35.2991 14.3087 35.1496 14.837C34.2459 18.1519 28.5922 23.0514 21.7324 26.5921C20.9781 26.8927 20.5263 26.3663 20.6775 25.8381C20.7522 25.6123 20.9034 25.4611 21.0546 25.3863C27.9892 21.7691 33.7941 16.795 34.6975 13.4053C34.8487 12.8025 34.8487 12.2748 34.6975 11.8223C34.9233 12.4233 35.1493 13.0263 35.224 13.4797" fill="#417BA4"/>
<path d="M35.7532 16.6438V17.2465C35.7532 17.5471 35.7532 17.7747 35.6785 18.15C35.1502 20.1845 32.663 22.8219 29.2705 25.3845C28.7423 25.7615 28.4415 25.2333 28.5162 24.8564C28.5909 24.5558 28.8168 24.3282 28.8933 24.2536C32.437 21.6162 34.9988 18.9042 35.528 16.7932C35.6027 16.4162 35.6792 16.0392 35.6027 15.6621L35.7539 16.6438" fill="#D37D41"/>
<path d="M2.66016 10.6912C2.88609 10.2394 3.11195 9.86252 3.4145 9.41057C4.01764 10.1646 5.90152 10.1646 8.46501 9.33584C8.76561 9.2611 8.76561 9.93862 8.76561 9.93862" fill="#D37D41"/>
<path d="M8.76568 9.9375C8.76568 10.3146 8.69094 10.841 5.44958 11.2945C4.54583 11.4457 3.26316 11.3692 2.66016 10.6917" fill="#D37D41"/>
<path d="M22.5598 0.819088C23.5401 1.19615 23.9171 1.87367 23.6147 2.92833C22.8604 5.79213 17.2068 10.2376 11.0264 12.8748C6.12702 14.9111 2.35739 15.2881 1.37891 13.8548C1.53011 13.403 1.67951 12.9513 1.83071 12.4978C2.73445 13.7784 6.20356 13.4777 10.6509 11.5943C16.3047 9.10816 21.5064 5.03915 22.1842 2.47653C22.4101 1.49661 21.6382 0.691 20.8091 0.388672" fill="#417BA4"/>
<path d="M1.60305 17.2698C1.52831 17.4957 1.45185 17.798 1.30245 17.7216C0.548101 17.3462 0.245702 16.7435 0.322166 15.8383C0.24743 16.3665 0.396905 16.8183 0.622769 17.119C0.619241 16.6603 0.773967 16.1391 0.848631 15.6875C0.999831 15.9134 1.2257 16.0646 1.52651 16.2156C1.75418 16.5162 1.60298 17.2702 1.60298 17.2702" fill="#E8B521"/>
<path d="M28.2902 3.45722L29.0446 3.98534C29.6477 4.51346 29.8736 5.26601 29.6477 6.24578C28.6674 10.0142 21.2811 15.8154 13.215 19.2067C5.52583 22.5225 -0.0529442 22.3723 0.32412 19.132C0.249384 19.6601 0.39885 20.1866 0.624714 20.5635C0.549978 20.1117 0.549981 19.5836 0.549981 19.132C5.60049 24.4814 28.2899 10.617 28.516 4.73947C28.5907 3.68489 27.9877 3.30797 27.6869 3.08203L28.2899 3.45737" fill="#D37D41"/>
<path d="M1.07618 23.3491C1.00145 23.0485 0.924977 22.7463 1.00144 22.3691C0.924977 22.7463 1.00152 23.0485 1.07618 23.3491Z" fill="#417BA4"/>
<path d="M31.7571 6.62251C32.2089 7.15063 32.2854 7.82829 32.0577 8.73175C31.0028 12.7261 23.2375 18.8295 14.6448 22.4458C6.50401 25.9883 0.547882 25.8372 1.00184 22.3711C0.927106 22.9739 1.07658 23.5022 1.37891 23.8773C1.22771 23.4255 1.07831 22.9739 1.00184 22.4458C2.35919 24.3291 7.48443 23.8773 14.0437 21.0888C22.4103 17.5463 30.0246 11.5192 31.0794 7.59977C31.3053 6.61985 31.1541 5.94233 30.6276 5.41406C31.0029 5.79293 31.3802 6.24458 31.7573 6.62165" fill="#417BA4"/>
<path d="M29.7964 16.4934C29.9476 16.9452 29.7964 17.2474 29.6452 17.4733C26.3291 20.4878 21.4274 23.502 16.3027 25.6877C8.68863 28.8539 2.96024 29.0791 2.43176 26.3653C2.35702 26.1394 2.20582 25.9882 2.05469 25.7625C3.48677 27.6458 8.76336 27.2687 15.5484 24.331C20.6736 22.1453 25.5747 19.0563 28.8908 16.1166C29.4956 15.8142 29.7217 16.266 29.7964 16.4936" fill="#E8B521"/>
<path d="M10.7265 30.2839C10.8013 30.4351 10.8777 30.7357 10.5753 30.812C7.86239 31.2638 5.90189 31.0379 4.99635 30.058C4.69575 29.6809 4.24201 29.1546 3.94141 28.7773C4.77049 29.8319 6.80521 30.1343 9.74634 29.6808C10.2746 29.6808 10.6501 30.1326 10.7266 30.2836" fill="#417BA4"/>
<path d="M19.0176 30.5837C19.0923 30.6584 19.0923 30.9608 18.6405 31.1865C13.4388 33.221 9.36829 33.6726 7.71035 32.5435C7.33329 32.2429 6.80661 31.8659 6.42969 31.5635C8.01275 32.9205 12.3093 32.467 17.8883 30.2829C18.7156 30.057 19.018 30.5835 19.018 30.5835" fill="#D37D41"/>
<path d="M35.527 21.2406C34.6233 24.4807 28.2154 29.5295 21.2043 32.5441C16.6055 34.5039 12.9123 35.0302 11.103 34.3527C10.6512 34.1269 10.048 33.9009 9.6709 33.6752C15.6887 36.1678 33.9276 26.376 35.7191 19.9453" fill="#417BA4"/>
<path d="M34.4707 24.784C31.8325 30.2091 19.6213 36.2391 14.7966 35.4846C14.2684 35.4099 13.5905 35.2587 13.1387 35.1075C14.8732 35.6356 18.1145 35.0328 22.0338 33.3736C28.3661 30.6616 34.1701 26.1391 35.0756 23.2012C34.9244 23.6528 34.6968 24.3305 34.4708 24.7842" fill="#E8B521"/>
<path d="M30.551 30.2077C30.551 30.2824 26.1781 33.4478 23.8423 34.4277C21.8818 35.2564 20.1491 35.7084 18.8664 35.7847H16.9824C18.4892 35.8594 20.6756 35.3329 23.3147 34.2785C25.953 33.1473 30.7367 29.877 30.8114 29.877C30.8114 29.877 30.6264 30.1331 30.5517 30.2078" fill="#417BA4"/>
<path d="M2.65946 10.6908C2.50826 10.4649 2.43359 10.2461 2.43359 9.86922C2.43359 9.79448 2.43359 9.71802 2.50833 9.56862C2.73419 9.19156 3.03659 8.81464 3.26267 8.4375C3.18793 8.8893 3.18794 9.19148 3.41387 9.41742C3.1114 9.94374 2.88554 10.239 2.65946 10.6908Z" fill="#D37D41"/>
<path d="M1.37914 13.8553C1.15321 13.5547 1.07797 13.1776 1.15321 12.7241C1.15321 12.5729 1.15321 12.4983 1.22795 12.3471C1.37108 11.9073 1.5477 11.4792 1.75621 11.0664C1.60501 11.5945 1.63345 12.1584 1.85939 12.5353C1.63172 13.0652 1.52142 13.4263 1.37914 13.8549" fill="#417BA4"/>
<path d="M0.624397 17.1231C0.398533 16.7461 0.247328 16.3692 0.321992 15.8425L0.47319 14.8626L0.624397 14.2598C0.473197 14.8625 0.549658 15.3909 0.850258 15.6913C0.804034 16.15 0.624397 16.6712 0.624397 17.1228" fill="#E8B521"/>
<path d="M0.62436 20.5072C0.398496 20.2813 0.323757 20.0341 0.323757 19.6573C0.323757 19.2055 0.249023 18.5262 0.249023 18.0742C0.249023 18.526 0.400218 18.8282 0.549618 19.1288" fill="#D37D41"/>
<path d="M12.309 5.56552C12.2343 5.48906 11.932 5.11372 11.7059 5.18846C11.1028 5.56552 10.4232 5.86778 9.74541 6.16838C7.63387 7.07183 5.97592 7.22296 5.52391 6.61967L5.52232 6.62162C5.37306 6.47027 5.46897 5.99464 5.49014 5.97772C5.5666 5.67532 5.7605 5.41583 5.98643 5.11523C5.69044 5.33901 4.48502 6.30928 4.47912 6.96887C4.4478 7.15442 4.47911 7.56669 4.5401 7.75151C5.06836 8.50377 7.18365 8.3543 9.82187 7.22339C10.7256 6.92099 11.5546 6.46941 12.3089 6.01761C12.4602 5.86612 12.3838 5.64019 12.309 5.56552Z" fill="#417BA4"/>
<path d="M1.37935 23.8768C1.22815 23.7256 1.15342 23.5762 1.07875 23.3487C0.927555 22.8969 0.778153 22.2176 0.626953 21.7656C0.701689 21.9915 0.852813 22.2174 1.00401 22.4431C1.15168 22.9731 1.22815 23.4249 1.37935 23.8764" fill="#417BA4"/>
<path d="M2.45215 9.7108C2.45215 9.5596 2.58557 9.28212 2.66023 9.13286C2.73497 8.90692 3.56397 7.62662 3.86637 7.32422C3.86637 7.32422 3.48931 7.85234 3.26323 8.45534C3.03737 8.8324 2.73496 9.20932 2.50888 9.58646" fill="#D37D41"/>
</g>
<defs>
<clipPath id="clip0_1_15790">
<rect width="36" height="36" fill="white" transform="translate(0 0.00390625)"/>
</clipPath>
</defs>
</svg>
