<svg width="36" height="36" viewBox="0 0 36 36" fill="none" xmlns="http://www.w3.org/2000/svg">
<g clip-path="url(#clip0_1_15831)">
<path d="M18 36.0039C27.9411 36.0039 36 27.945 36 18.0039C36 8.06278 27.9411 0.00390625 18 0.00390625C8.05887 0.00390625 0 8.06278 0 18.0039C0 27.945 8.05887 36.0039 18 36.0039Z" fill="#11182D"/>
<path d="M11.5348 13.4329C12.672 13.4329 13.594 12.5109 13.594 11.3737C13.594 10.2364 12.672 9.31445 11.5348 9.31445C10.3975 9.31445 9.47559 10.2364 9.47559 11.3737C9.47559 12.5109 10.3975 13.4329 11.5348 13.4329Z" fill="white"/>
<path opacity="0.5" d="M20.2184 11.7033C20.4006 10.5807 19.6382 9.52297 18.5156 9.34078C17.3931 9.15859 16.3353 9.92094 16.1531 11.0435C15.9709 12.1661 16.7333 13.2239 17.8559 13.4061C18.9785 13.5882 20.0362 12.8259 20.2184 11.7033Z" fill="white"/>
<path opacity="0.9" d="M24.4654 13.4329C25.6027 13.4329 26.5246 12.5109 26.5246 11.3737C26.5246 10.2364 25.6027 9.31445 24.4654 9.31445C23.3282 9.31445 22.4062 10.2364 22.4062 11.3737C22.4062 12.5109 23.3282 13.4329 24.4654 13.4329Z" fill="white"/>
<path opacity="0.7" d="M11.9088 18.5579C13.0461 18.5579 13.968 17.6359 13.968 16.4987C13.968 15.3614 13.0461 14.4395 11.9088 14.4395C10.7715 14.4395 9.84961 15.3614 9.84961 16.4987C9.84961 17.6359 10.7715 18.5579 11.9088 18.5579Z" fill="white"/>
<path d="M20.2174 16.8303C20.3996 15.7077 19.6373 14.6499 18.5147 14.4677C17.3921 14.2855 16.3343 15.0479 16.1521 16.1705C15.97 17.2931 16.7323 18.3508 17.8549 18.533C18.9775 18.7152 20.0352 17.9529 20.2174 16.8303Z" fill="white"/>
<path opacity="0.2" d="M24.4654 18.5579C25.6027 18.5579 26.5246 17.6359 26.5246 16.4987C26.5246 15.3614 25.6027 14.4395 24.4654 14.4395C23.3282 14.4395 22.4062 15.3614 22.4062 16.4987C22.4062 17.6359 23.3282 18.5579 24.4654 18.5579Z" fill="white"/>
<path d="M11.9088 23.6926C13.0461 23.6926 13.968 22.7707 13.968 21.6334C13.968 20.4962 13.0461 19.5742 11.9088 19.5742C10.7715 19.5742 9.84961 20.4962 9.84961 21.6334C9.84961 22.7707 10.7715 23.6926 11.9088 23.6926Z" fill="white"/>
<path opacity="0.3" d="M18.1871 23.6926C19.3244 23.6926 20.2463 22.7707 20.2463 21.6334C20.2463 20.4962 19.3244 19.5742 18.1871 19.5742C17.0499 19.5742 16.1279 20.4962 16.1279 21.6334C16.1279 22.7707 17.0499 23.6926 18.1871 23.6926Z" fill="white"/>
<path opacity="0.85" d="M18.2164 28.8039C19.3537 28.8039 20.2756 27.882 20.2756 26.7447C20.2756 25.6075 19.3537 24.6855 18.2164 24.6855C17.0792 24.6855 16.1572 25.6075 16.1572 26.7447C16.1572 27.882 17.0792 28.8039 18.2164 28.8039Z" fill="white"/>
<path d="M24.4654 23.6926C25.6027 23.6926 26.5246 22.7707 26.5246 21.6334C26.5246 20.4962 25.6027 19.5742 24.4654 19.5742C23.3282 19.5742 22.4062 20.4962 22.4062 21.6334C22.4062 22.7707 23.3282 23.6926 24.4654 23.6926Z" fill="white"/>
</g>
<defs>
<clipPath id="clip0_1_15831">
<rect width="36" height="36" fill="white" transform="translate(0 0.00390625)"/>
</clipPath>
</defs>
</svg>
