<svg width="36" height="36" viewBox="0 0 36 36" fill="none" xmlns="http://www.w3.org/2000/svg">
<g clip-path="url(#clip0_1_15617)">
<path d="M18 36.0039C27.9411 36.0039 36 27.945 36 18.0039C36 8.06278 27.9411 0.00390625 18 0.00390625C8.05887 0.00390625 0 8.06278 0 18.0039C0 27.945 8.05887 36.0039 18 36.0039Z" fill="#22996E"/>
<path d="M17.9996 26.0252H8.14997C6.81797 26.0252 6.01157 24.5492 6.73157 23.426L12.3332 14.6852C12.7436 14.0372 13.4636 13.6484 14.2268 13.6484H21.7724C22.5356 13.6484 23.2556 14.0372 23.666 14.6852L29.2676 23.426C29.9876 24.5492 29.1812 26.0252 27.8492 26.0252H17.9996Z" fill="white"/>
<path d="M19.0077 5.91494L21.3621 9.51494C21.8517 10.2637 21.3117 11.2573 20.4189 11.2573H15.6237C14.7237 11.2573 14.1837 10.2493 14.6949 9.50054L17.1357 5.90054C17.5821 5.23814 18.5685 5.24534 19.0077 5.91494Z" fill="white"/>
</g>
<defs>
<clipPath id="clip0_1_15617">
<rect width="36" height="36" fill="white" transform="translate(0 0.00390625)"/>
</clipPath>
</defs>
</svg>
