<svg width="36" height="36" viewBox="0 0 36 36" fill="none" xmlns="http://www.w3.org/2000/svg">
<g clip-path="url(#clip0_1_15619)">
<path d="M35.4382 10.7613C32.4286 10.7613 29.4838 10.7613 26.6182 10.7613C29.5486 7.83809 32.515 4.87889 35.4382 1.96289C35.4382 4.78529 35.4382 7.73729 35.4382 10.7613Z" fill="black"/>
<path d="M24.9619 0.255859C27.9571 0.255859 30.8947 0.255859 33.7243 0.255859C30.8155 3.14306 27.8563 6.09506 24.9619 8.96786C24.9619 6.22466 24.9619 3.27266 24.9619 0.255859Z" fill="black"/>
<path d="M20.2317 7.9389C20.2317 8.4861 20.2317 8.9253 20.2317 9.4149C18.0645 9.4149 15.9261 9.4149 13.7373 9.4149C13.7373 6.8157 13.7373 4.2381 13.7373 1.5957C15.8469 1.5957 17.9637 1.5957 20.1237 1.5957C20.1237 2.0565 20.1237 2.5101 20.1237 3.0357C18.6333 3.0357 17.1501 3.0357 15.6093 3.0357C15.6093 3.5829 15.6093 4.0581 15.6093 4.6269C16.7397 4.6269 17.8917 4.6269 19.0941 4.6269C19.0941 5.1741 19.0941 5.6277 19.0941 6.1605C17.9349 6.1605 16.7829 6.1605 15.5877 6.1605C15.5877 6.7797 15.5877 7.3269 15.5877 7.9389C17.1357 7.9389 18.6477 7.9389 20.2317 7.9389Z" fill="black"/>
<path d="M31.8887 31.1153C31.8887 30.0713 31.8887 29.0993 31.8887 28.0697C32.4359 28.0697 32.9327 28.0697 33.4727 28.0697C33.4727 30.6761 33.4727 33.2537 33.4727 35.8817C32.9615 35.8817 32.4791 35.8817 31.8887 35.8817C31.8887 34.8593 31.8887 33.8225 31.8887 32.7497C30.7223 32.7497 29.6567 32.7497 28.5191 32.7497C28.5191 33.8009 28.5191 34.8161 28.5191 35.8745C27.9647 35.8745 27.4895 35.8745 26.9639 35.8745C26.9639 33.2753 26.9639 30.6905 26.9639 28.0625C27.4535 28.0625 27.9359 28.0625 28.4831 28.0625C28.4831 29.0633 28.4831 30.0569 28.4831 31.1153C29.6351 31.1153 30.7151 31.1153 31.8887 31.1153Z" fill="black"/>
<path d="M2.39747 3.05742C2.39747 3.66942 2.39747 4.20222 2.39747 4.82142C3.57107 4.82142 4.74467 4.82142 5.96147 4.82142C5.96147 5.34702 5.96147 5.77902 5.96147 6.31902C4.77347 6.31902 3.59987 6.31902 2.36867 6.31902C2.36867 7.39902 2.36867 8.37102 2.36867 9.40062C1.69907 9.40062 1.08707 9.40062 0.388672 9.40062C0.388672 8.07582 0.388672 6.77262 0.388672 5.46942C0.388672 4.18782 0.388672 2.90622 0.388672 1.57422C2.61347 1.57422 4.78067 1.57422 6.98387 1.57422C6.98387 2.06382 6.98387 2.51742 6.98387 3.05742C5.45027 3.05742 3.93827 3.05742 2.39747 3.05742Z" fill="black"/>
<path d="M33.3722 16.2834C33.0698 16.5858 32.7602 16.8954 32.4578 17.1978C30.9098 15.9954 29.4698 15.9234 28.5194 16.9818C27.5978 18.0186 27.5978 19.4946 28.5266 20.481C29.513 21.5322 31.0754 21.4458 32.5802 20.2146C32.861 20.5098 33.149 20.8122 33.4226 21.1002C32.7026 22.3458 30.9026 22.9578 29.2538 22.5474C27.5978 22.137 26.3522 20.6466 26.2586 18.9762C26.165 17.1906 27.2306 15.5922 28.901 15.009C30.6002 14.4258 32.393 14.9298 33.3722 16.2834Z" fill="black"/>
<path d="M20.2173 14.7637C20.2173 15.2389 20.2173 15.6997 20.2173 16.2397C19.4613 16.2397 18.7053 16.2397 17.8557 16.2397C17.8557 18.4069 17.8557 20.5021 17.8557 22.6405C17.2437 22.6405 16.7181 22.6405 16.1061 22.6405C16.1061 20.5237 16.1061 18.4357 16.1061 16.2901C15.2781 16.2901 14.5365 16.2901 13.7373 16.2901C13.7373 15.7645 13.7373 15.2893 13.7373 14.7709C15.8901 14.7637 18.0357 14.7637 20.2173 14.7637Z" fill="black"/>
</g>
<defs>
<clipPath id="clip0_1_15619">
<rect width="36" height="36" fill="white" transform="translate(0 0.00390625)"/>
</clipPath>
</defs>
</svg>
