<svg width="36" height="36" viewBox="0 0 36 36" fill="none" xmlns="http://www.w3.org/2000/svg">
<g clip-path="url(#clip0_1_15616)">
<path d="M18.11 0.724322L17.8652 0.724609L17.8747 8.80301L18.1195 8.80272L18.11 0.724322Z" fill="#6868FC"/>
<path d="M26.1203 22.4687L25.9961 22.6797L32.8588 26.7194L32.983 26.5084L26.1203 22.4687Z" fill="#6868FC"/>
<path d="M9.9164 22.4759L3.05371 26.5156L3.1779 26.7266L10.0406 22.6869L9.9164 22.4759Z" fill="#6868FC"/>
<path d="M17.9857 18.1702C17.9569 18.1702 17.9209 18.163 17.8921 18.1486L9.86411 13.5118C9.80651 13.4759 9.77051 13.4182 9.77051 13.3534C9.77051 13.2886 9.80651 13.231 9.86411 13.195L17.8921 8.55825C17.9497 8.52225 18.0217 8.52225 18.0721 8.55825L26.0857 13.2094C26.1433 13.2454 26.1793 13.3031 26.1793 13.3678C26.1793 13.4327 26.1433 13.4902 26.0857 13.5262L18.0721 18.1486C18.0433 18.163 18.0145 18.1702 17.9857 18.1702ZM10.3249 13.3534L17.9857 17.7814L25.6321 13.3678L17.9857 8.93265L10.3249 13.3534Z" fill="#77E3EF"/>
<path d="M17.9853 27.392C17.9565 27.392 17.9205 27.3848 17.8917 27.3704L9.87814 22.7696C9.82054 22.7336 9.78454 22.676 9.78454 22.6112L9.77734 13.3592C9.77734 13.2944 9.81334 13.2368 9.87094 13.2008C9.92854 13.1648 10.0005 13.1648 10.0509 13.2008L18.0717 17.8304C18.1293 17.8664 18.1653 17.924 18.1653 17.9888V27.212C18.1653 27.2768 18.1293 27.3344 18.0717 27.3704C18.0429 27.3776 18.0141 27.392 17.9853 27.392ZM10.1517 22.5032L17.7981 26.8952V18.0896L10.1373 13.6616L10.1517 22.5032Z" fill="#4ACBDC"/>
<path d="M17.986 27.3933C17.9572 27.3933 17.9212 27.3861 17.8924 27.3717C17.8348 27.3357 17.7988 27.2781 17.7988 27.2133V17.9901C17.7988 17.9253 17.8348 17.8677 17.8924 17.8317L25.906 13.2165C25.9636 13.1805 26.0356 13.1805 26.086 13.2165C26.1436 13.2525 26.1796 13.3101 26.1796 13.3749V22.6341C26.1796 22.6989 26.1436 22.7637 26.086 22.7925L18.0724 27.3645C18.0436 27.3789 18.0148 27.3933 17.986 27.3933ZM18.166 18.0909V26.8893L25.8124 22.5189V13.6845L18.166 18.0909Z" fill="#07ABC5"/>
<path d="M17.9855 35.7303L2.62793 26.8599V9.12626L17.9855 0.255859L33.3503 9.12626V26.8599L17.9855 35.7303ZM3.47753 26.3703L17.9855 34.7439L32.4935 26.3703V9.61586L17.9855 1.24226L3.47753 9.61586V26.3703Z" fill="#7C7CFF"/>
<path d="M17.9857 18.5006L2.86572 9.7526C2.66412 9.6374 2.59212 9.371 2.70732 9.1694C2.82252 8.9678 3.08892 8.8958 3.29052 9.011L17.9857 17.507L32.7313 9.0038C32.9329 8.8886 33.1993 8.9534 33.3145 9.1622C33.4297 9.3638 33.3649 9.6302 33.1561 9.7454L17.9857 18.5006Z" fill="#7C7CFF"/>
<path d="M18.0146 35.6651C17.777 35.6651 17.5898 35.4707 17.5898 35.2403V18.0107C17.5898 17.7731 17.7842 17.5859 18.0146 17.5859C18.245 17.5859 18.4394 17.7803 18.4394 18.0107V35.2403C18.4394 35.4707 18.245 35.6651 18.0146 35.6651Z" fill="#7C7CFF"/>
</g>
<defs>
<clipPath id="clip0_1_15616">
<rect width="36" height="36" fill="white" transform="translate(0 0.00390625)"/>
</clipPath>
</defs>
</svg>
