<svg width="36" height="36" viewBox="0 0 36 36" fill="none" xmlns="http://www.w3.org/2000/svg">
<g clip-path="url(#clip0_1_15615)">
<path d="M18 36.0039C27.9411 36.0039 36 27.945 36 18.0039C36 8.06278 27.9411 0.00390625 18 0.00390625C8.05887 0.00390625 0 8.06278 0 18.0039C0 27.945 8.05887 36.0039 18 36.0039Z" fill="#0090FF"/>
<path fill-rule="evenodd" clip-rule="evenodd" d="M19.7104 15.8441L19.1704 18.7241L24.3004 19.4441L23.9404 20.7941L18.9004 20.0741C18.5404 21.2441 18.3604 22.5041 17.9104 23.5841C17.4604 24.8441 17.0104 26.1041 16.4704 27.2741C15.7504 28.8041 14.4904 29.8841 12.7804 30.1541C11.7904 30.3341 10.7104 30.2442 9.90035 29.6141C9.63035 29.4342 9.36035 29.0741 9.36035 28.8041C9.36035 28.4441 9.54035 27.9941 9.81035 27.8141C9.99035 27.7241 10.4404 27.8141 10.7104 27.9041C10.9804 28.1741 11.2504 28.5341 11.4304 28.8941C11.9704 29.6141 12.6904 29.7041 13.4104 29.1642C14.2204 28.4441 14.6704 27.4541 14.9404 26.4641C15.4804 24.3041 16.0204 22.2341 16.4704 20.0741V19.7141L11.7004 18.9941L11.8804 17.6441L16.8304 18.3641L17.4604 15.5741L12.3304 14.7641L12.5104 13.3241L17.8204 14.0441C18.0004 13.5041 18.0904 13.0541 18.2704 12.6041C18.7204 10.9841 19.1704 9.36415 20.2504 7.92415C21.3304 6.48415 22.5904 5.58415 24.4804 5.67415C25.2904 5.67415 26.1004 5.94415 26.6404 6.57415C26.7304 6.66415 26.9104 6.84415 26.9104 7.02415C26.9104 7.38415 26.9104 7.83415 26.6404 8.10415C26.2804 8.37415 25.8304 8.28415 25.4704 7.92415C25.2004 7.65415 25.0204 7.38415 24.7504 7.11415C24.2104 6.39415 23.4004 6.30415 22.7704 6.93415C22.3204 7.38415 21.8704 8.01415 21.6004 8.64415C20.9704 10.5341 20.5204 12.5141 19.8904 14.4941L24.8404 15.2141L24.4804 16.5641L19.7104 15.8441Z" fill="white"/>
</g>
<defs>
<clipPath id="clip0_1_15615">
<rect width="36" height="36" fill="white" transform="translate(0 0.00390625)"/>
</clipPath>
</defs>
</svg>
