<svg width="36" height="36" viewBox="0 0 36 36" fill="none" xmlns="http://www.w3.org/2000/svg">
<g clip-path="url(#clip0_1_15613)">
<path d="M25.1498 8.69336H18.0722H12.4346V12.1998V28.7022H18.0722V12.1998H25.1498V8.69336Z" fill="#00A3E0"/>
<path d="M22.6302 16.1335L19.0664 19.6973L22.6302 23.261L26.194 19.6973L22.6302 16.1335Z" fill="white"/>
<path d="M17.9639 36.0039C8.02067 36.0039 -0.0361328 27.9471 -0.0361328 18.0039C-0.0361328 8.06071 8.02067 0.00390625 17.9639 0.00390625C27.9071 0.00390625 35.9639 8.06071 35.9639 18.0039C35.9567 27.9399 27.8999 35.9967 17.9639 36.0039ZM17.9639 2.66791C9.49667 2.66791 2.62787 9.53671 2.62787 18.0039C2.62787 26.4711 9.49667 33.3399 17.9639 33.3399C26.4311 33.3399 33.2999 26.4711 33.2999 18.0039C33.2927 9.53671 26.4311 2.67511 17.9639 2.66791Z" fill="#6363FF"/>
</g>
<defs>
<clipPath id="clip0_1_15613">
<rect width="36" height="36" fill="white" transform="translate(0 0.00390625)"/>
</clipPath>
</defs>
</svg>
