<svg width="36" height="36" viewBox="0 0 36 36" fill="none" xmlns="http://www.w3.org/2000/svg">
<g clip-path="url(#clip0_1_15612)">
<path d="M18.0356 35.9324C27.917 35.9324 35.9276 27.9219 35.9276 18.0404C35.9276 8.15896 27.917 0.148438 18.0356 0.148438C8.15408 0.148438 0.143555 8.15896 0.143555 18.0404C0.143555 27.9219 8.15408 35.9324 18.0356 35.9324Z" fill="#00EF8B"/>
<path d="M25.8913 15.2383H20.8369V20.2927H25.8913V15.2383Z" fill="white"/>
<path d="M15.782 22.1869C15.782 23.2309 14.9324 24.0805 13.8884 24.0805C12.8444 24.0805 11.9948 23.2309 11.9948 22.1869C11.9948 21.1429 12.8444 20.2933 13.8884 20.2933H15.782V15.2461H13.8884C10.0508 15.2461 6.94043 18.3565 6.94043 22.1941C6.94043 26.0317 10.0508 29.1421 13.8884 29.1421C17.726 29.1421 20.8364 26.0317 20.8364 22.1941V20.3005H15.7892V22.1869H15.782Z" fill="white"/>
<path d="M22.7302 12.7126H28.411V7.6582H22.7302C18.8926 7.6654 15.7894 10.7686 15.7822 14.6062V15.2398H20.8294V14.6062C20.8366 13.5622 21.6862 12.7126 22.7302 12.7126Z" fill="white"/>
<path d="M15.7822 20.2927H20.8366V15.2383H15.7822V20.2927Z" fill="#16FF99"/>
</g>
<defs>
<clipPath id="clip0_1_15612">
<rect width="36" height="36" fill="white" transform="translate(0 0.00390625)"/>
</clipPath>
</defs>
</svg>
