<svg width="36" height="36" viewBox="0 0 36 36" fill="none" xmlns="http://www.w3.org/2000/svg">
<g clip-path="url(#clip0_1_15709)">
<path d="M0.387695 17.5978C0.533711 17.3447 0.718103 16.794 1.08494 16.4242C6.20753 11.2598 11.3573 6.12232 16.4943 0.972303C17.4578 0.00642347 18.7612 0.0626555 19.8708 1.17232C22.4945 3.79629 25.1209 6.41752 27.7456 9.04048C28.5164 9.81073 29.2882 10.5801 30.0539 11.3554C30.6493 11.9585 30.6533 12.6781 30.0632 13.2873C29.5306 13.837 28.9482 14.3438 28.4586 14.9288C27.9137 15.5797 26.9023 15.5535 26.2987 14.9347C23.9143 12.4903 21.4838 10.0907 19.0715 7.67349C18.45 7.05076 17.7244 7.05141 17.1034 7.67673C16.5018 8.28239 15.8927 8.88071 15.2959 9.49105C14.5708 10.2327 14.551 10.8183 15.2686 11.5901C15.8698 12.2368 16.5168 12.8407 17.1364 13.4705C17.8473 14.193 17.872 14.7782 17.1814 15.5259C16.6625 16.0876 16.1133 16.6234 15.553 17.1442C14.8383 17.8086 14.2701 17.8181 13.5627 17.1631C12.9367 16.5834 12.3082 15.9981 11.7522 15.3535C11.024 14.5092 10.1095 14.5897 9.41822 15.317C7.8569 16.9595 6.23006 18.5397 4.63591 20.1512C3.29664 21.505 2.81798 21.5086 1.46734 20.129C0.857711 19.5063 0.398999 18.8046 0.387695 17.5978ZM19.9139 34.7242C21.496 33.099 23.1175 31.5123 24.721 29.908C28.1572 26.47 31.5862 23.0249 35.035 19.5995C35.4199 19.2172 35.6017 18.8033 35.6401 18.2846C35.7019 17.4498 35.5222 16.7161 34.8556 16.1469C34.5875 15.9179 34.349 15.6541 34.0979 15.4054C33.2516 14.5667 32.7196 14.6214 31.9491 15.3873C31.761 15.5742 31.5695 15.7575 31.382 15.945C29.7781 17.5489 28.1572 19.1365 26.5794 20.7657C25.871 21.4971 25.1757 21.5038 24.4074 20.7484C23.7774 20.1289 23.1599 19.4968 22.5332 18.8739C21.8268 18.1719 21.2699 18.1488 20.556 18.8227C19.9993 19.3481 19.4634 19.8964 18.9306 20.4464C18.3476 21.0481 18.3393 21.9116 18.9285 22.5382C19.5534 23.203 20.2187 23.8298 20.8438 24.4945C21.624 25.3244 21.6183 25.653 20.8173 26.4967C20.2495 27.0947 19.6573 27.6695 19.0724 28.2509C18.5611 28.7591 17.9805 28.8714 17.3303 28.5113C16.9796 28.3171 16.6658 28.0361 16.3786 27.7507C14.1008 25.4878 11.8358 23.2121 9.56121 20.946C8.96758 20.3545 8.33297 20.335 7.71787 20.9002C7.20041 21.3756 6.69468 21.8671 6.21876 22.3836C5.40545 23.2663 5.42222 23.996 6.23359 24.8755C6.2935 24.9405 6.35815 25.001 6.42065 25.0635C8.1678 26.8119 9.91596 28.5592 11.6618 30.3089C13.0128 31.663 14.3499 33.031 15.7151 34.3707C16.3398 34.9837 16.964 35.6459 18.0287 35.5377C18.7699 35.6266 19.3634 35.2897 19.9139 34.7242Z" fill="#3D424D"/>
</g>
<defs>
<clipPath id="clip0_1_15709">
<rect width="36" height="36" fill="white" transform="translate(0 0.00390625)"/>
</clipPath>
</defs>
</svg>
