<svg width="36" height="36" viewBox="0 0 36 36" fill="none" xmlns="http://www.w3.org/2000/svg">
<g clip-path="url(#clip0_1_15815)">
<path fill-rule="evenodd" clip-rule="evenodd" d="M31.9032 3.12924L30.3264 12.5972L24.7176 5.98764L31.9032 3.12924ZM30.3624 16.6724L31.7664 21.8636L21.024 24.8156L30.3624 16.6724ZM6.97682 14.066L12.7368 6.54204H22.7376L29.1312 14.066H6.97682ZM28.3896 15.9236L17.9784 25.01L7.37282 15.9236H28.3896ZM10.8072 5.99484L5.65922 12.7196L4.08242 3.16524L10.8072 5.99484ZM14.8896 24.8156L4.04642 21.8636L5.52962 16.802L14.8896 24.8156ZM16.8984 27.2924L14.8536 29.546C13.1184 27.8972 11.2104 26.4356 9.17282 25.19L16.8984 27.2924ZM26.82 25.1468C24.7824 26.414 22.8816 27.8972 21.1608 29.5604L19.0728 27.2852L26.82 25.1468ZM34.2792 0.184438L22.9896 4.67724H12.4632L1.69922 0.148438L4.14722 14.9372L1.80002 22.9364L7.92722 26.6012C10.8288 28.3364 13.428 30.5108 15.6528 33.0524L18.036 35.7812L20.5416 32.9084C22.6872 30.446 25.1928 28.3292 27.9792 26.6156L33.9912 22.9292L31.824 14.9372L34.2792 0.184438Z" fill="#0A1832"/>
</g>
<defs>
<clipPath id="clip0_1_15815">
<rect width="36" height="36" fill="white" transform="translate(0 0.00390625)"/>
</clipPath>
</defs>
</svg>
