<svg width="36" height="36" viewBox="0 0 36 36" fill="none" xmlns="http://www.w3.org/2000/svg">
<g clip-path="url(#clip0_1_15610)">
<path d="M30.6139 25.9895C31.1035 25.2407 31.5211 24.4559 31.8739 23.6279C32.6587 21.7703 33.0619 19.7975 33.0619 17.7671C33.0619 15.7367 32.6659 13.7639 31.8739 11.9064C31.5283 11.0855 31.1107 10.3007 30.6283 9.55915L35.7547 4.43275L31.3483 0.02635L26.2291 5.14555C25.4875 4.65595 24.6955 4.23835 23.8675 3.89275C22.0099 3.10795 20.0371 2.70475 18.0067 2.70475C15.9763 2.70475 14.0035 3.10075 12.1459 3.89275C11.3179 4.24555 10.5259 4.66315 9.78432 5.15275L4.59312 -0.03125L0.19392 4.37515L5.37792 9.55915C4.89552 10.3007 4.47792 11.0783 4.13232 11.8991C3.34752 13.7567 2.94432 15.7295 2.94432 17.7599C2.94432 19.7903 3.34032 21.7631 4.13232 23.6207C4.48512 24.4487 4.90272 25.2335 5.38512 25.9823L0.0283203 31.3391L4.43472 35.7455L9.79152 30.3887C10.5331 30.8711 11.3179 31.2887 12.1387 31.6343C13.9963 32.4191 15.9691 32.8223 17.9995 32.8223C20.0299 32.8223 22.0027 32.4263 23.8603 31.6343C24.6811 31.2887 25.4659 30.8711 26.2003 30.3887L31.4995 35.688L35.9059 31.2815L30.6139 25.9895ZM17.9995 26.8032C16.6459 26.8032 15.3643 26.5079 14.2051 25.9751C12.2683 25.0751 10.6987 23.5127 9.79872 21.5759C9.25872 20.4167 8.95632 19.1279 8.95632 17.7671C8.95632 16.4135 9.25152 15.1319 9.78432 13.9799C10.6771 12.0359 12.2467 10.4735 14.1835 9.56635C15.3427 9.02635 16.6315 8.72395 17.9995 8.72395C19.3603 8.72395 20.6491 9.02635 21.8083 9.56635C23.7451 10.4663 25.3147 12.0359 26.2075 13.9727C26.7403 15.1247 27.0355 16.4135 27.0355 17.7671C27.0355 19.1279 26.7331 20.424 26.1931 21.5832C25.2931 23.5199 23.7235 25.0823 21.7795 25.9823C20.6347 26.5079 19.3531 26.8032 17.9995 26.8032Z" fill="black"/>
</g>
<defs>
<clipPath id="clip0_1_15610">
<rect width="36" height="36" fill="white" transform="translate(0 0.00390625)"/>
</clipPath>
</defs>
</svg>
