<svg width="36" height="36" viewBox="0 0 36 36" fill="none" xmlns="http://www.w3.org/2000/svg">
<g clip-path="url(#clip0_1_15817)">
<path d="M17.9998 35.7301C27.7899 35.7301 35.7262 27.7938 35.7262 18.0037C35.7262 8.21372 27.7899 0.277344 17.9998 0.277344C8.20982 0.277344 0.273438 8.21372 0.273438 18.0037C0.273438 27.7938 8.20982 35.7301 17.9998 35.7301Z" fill="url(#paint0_linear_1_15817)"/>
<path d="M25.6612 9.06836L25.5676 9.32756L25.2508 10.1628L25.042 10.7028C23.4508 14.7564 22.2196 16.6788 20.902 16.6788C20.146 16.6788 19.6996 16.4556 19.1164 15.9228L18.9508 15.7644C18.5332 15.3684 18.3604 15.2676 17.9572 15.2676C17.7484 15.2676 17.374 15.5412 16.8988 16.1892C16.4092 16.8588 15.8692 17.8452 15.286 19.1484L15.2356 19.2708H20.8732L20.1748 20.7684H14.9044V26.9316H13.3564V9.06836H25.6612ZM23.4724 10.566H14.9116V16.5204C15.9412 14.6844 16.9132 13.7628 17.9644 13.7628C18.778 13.7628 19.2604 14.0004 19.8652 14.5476L20.038 14.706C20.4268 15.0732 20.578 15.1596 20.9092 15.1596C21.2692 15.174 22.2484 13.5828 23.4724 10.566Z" fill="white"/>
</g>
<defs>
<linearGradient id="paint0_linear_1_15817" x1="17.9998" y1="35.7308" x2="17.9998" y2="0.276725" gradientUnits="userSpaceOnUse">
<stop stop-color="#291C19"/>
<stop offset="0.5156" stop-color="#402A27"/>
<stop offset="1" stop-color="#4C3835"/>
</linearGradient>
<clipPath id="clip0_1_15817">
<rect width="36" height="36" fill="white" transform="translate(0 0.00390625)"/>
</clipPath>
</defs>
</svg>
