<svg width="36" height="36" viewBox="0 0 36 36" fill="none" xmlns="http://www.w3.org/2000/svg">
<g clip-path="url(#clip0_1_15861)">
<path d="M17.9162 35.7641C27.7712 35.7641 35.7602 27.7751 35.7602 17.9201C35.7602 8.06519 27.7712 0.0761719 17.9162 0.0761719C8.06128 0.0761719 0.0722656 8.06519 0.0722656 17.9201C0.0722656 27.7751 8.06128 35.7641 17.9162 35.7641Z" fill="#1F9AD8"/>
<path d="M20.5003 26.1607C22.5904 26.1607 24.2847 24.4664 24.2847 22.3763C24.2847 20.2862 22.5904 18.5918 20.5003 18.5918C18.4102 18.5918 16.7158 20.2862 16.7158 22.3763C16.7158 24.4664 18.4102 26.1607 20.5003 26.1607Z" fill="white"/>
<path d="M12.6465 7.52216C12.6465 7.52216 15.4543 3.53422 17.9773 2.15067C20.5002 0.767119 22.0467 0.563575 23.1861 0.889159C24.3255 1.21467 25.709 1.82509 26.1159 2.31339C26.5229 2.8017 26.6449 3.0866 26.6449 3.0866C26.6449 3.0866 24.7629 2.37445 22.5756 3.24939C20.7934 3.96226 19.6906 4.80322 18.3435 5.97582C17.3618 6.83038 17.3335 7.10362 17.3335 7.10362C17.3335 7.10362 19.661 6.82534 23.4047 7.88331C27.1484 8.94128 28.1506 10.6555 28.7609 11.6322C29.3714 12.6088 29.6562 13.8296 29.6562 13.8296C29.6562 13.8296 26.5228 11.5915 21.9245 11.1439C17.3261 10.6963 14.4776 10.6963 14.4776 10.6963C14.4776 10.6963 11.8732 14.4807 10.0827 19.2419C8.29221 24.003 5.9728 31.1649 5.9728 31.1649C5.9728 31.1649 5.24034 26.2411 7.23431 19.8929C9.22828 13.5447 10.6933 10.8997 10.6933 10.8997C10.6933 10.8997 7.84473 10.9404 5.07762 11.9984C2.31052 13.0564 0.316406 14.969 0.316406 14.969C0.316406 14.969 1.03 12.4051 4.1823 10.5741C7.10709 8.87518 8.53643 8.33598 12.6465 7.52216Z" fill="#FBFFFF"/>
</g>
<defs>
<clipPath id="clip0_1_15861">
<rect width="36" height="36" fill="white" transform="translate(0 0.00390625)"/>
</clipPath>
</defs>
</svg>
