<svg width="36" height="36" viewBox="0 0 36 36" fill="none" xmlns="http://www.w3.org/2000/svg">
<g clip-path="url(#clip0_1_15851)">
<path d="M7.53949 3.76359C7.54396 5.84057 5.99488 7.42328 3.94619 7.43509C1.90269 7.44682 0.32243 5.8778 0.298526 3.8132C0.27383 1.67768 1.85985 0.0579664 3.95771 0.0763264C5.99315 0.0941104 7.53503 1.68142 7.53949 3.76359ZM3.92265 9.86746C1.86273 9.88093 0.297806 11.4696 0.294926 13.5504C0.292046 15.6372 1.86251 17.2322 3.92149 17.2336C5.96269 17.2349 7.53265 15.6349 7.53921 13.5467C7.54583 11.4494 5.9776 9.85407 3.92265 9.86746ZM14.0565 6.84425C15.7047 6.85945 17.1561 5.42989 17.1637 3.78375C17.1714 2.13373 15.7422 0.673566 14.1085 0.662406C12.4298 0.650886 11.0574 2.02306 11.0432 3.72709C11.0288 5.44666 12.3648 6.8287 14.0565 6.84425ZM14.1685 16.6028C15.8061 16.5585 17.1667 15.1743 17.1609 13.5585C17.1548 11.8343 15.798 10.5022 14.0577 10.5119C12.3046 10.5216 11.0153 11.8432 11.0403 13.6048C11.0648 15.3353 12.4364 16.6498 14.1685 16.6028ZM3.89075 20.2681C2.2269 20.2918 0.83291 21.7166 0.847742 23.3782C0.863078 25.0945 2.20343 26.3842 3.95181 26.365C5.73863 26.3454 6.98985 25.0816 6.97134 23.315C6.95341 21.6124 5.57001 20.2441 3.89075 20.2681ZM1.91579 33.7258C1.89592 34.887 2.81521 35.799 3.97405 35.7676C5.07889 35.7376 5.93145 34.8493 5.91834 33.7416C5.90509 32.6186 5.05067 31.7713 3.92862 31.7685C2.81701 31.7658 1.93458 32.6238 1.91579 33.7258ZM12.0885 23.2534C12.0394 24.3968 12.8238 25.2788 13.945 25.3413C15.1003 25.4056 16.0856 24.5115 16.0991 23.3865C16.1122 22.3005 15.2333 21.3834 14.1469 21.3493C13.0317 21.3142 12.1362 22.1427 12.0885 23.2534ZM26.0762 13.5315C26.0564 12.4582 25.104 11.5352 24.036 11.5542C22.958 11.5734 22.0564 12.5138 22.0791 13.5952C22.1022 14.6978 23.0058 15.5728 24.1087 15.5605C25.2032 15.5483 26.0963 14.6273 26.0762 13.5315ZM26.0692 3.70743C26.0392 2.62952 25.2222 1.84025 24.1204 1.82513C22.9438 1.80901 22.0932 2.60813 22.0789 3.74321C22.0646 4.87289 22.9149 5.69542 24.0882 5.68671C25.2583 5.678 26.1005 4.83639 26.0692 3.70743ZM34.1861 2.40423C33.3298 2.39062 32.6475 3.0379 32.6607 3.85165C32.6733 4.6309 33.4355 5.33693 34.2163 5.29265C34.9959 5.24845 35.5774 4.61477 35.5695 3.81788C35.5615 2.98822 35.0027 2.41726 34.1861 2.40423ZM34.1167 12.1899C33.3529 12.1962 32.6831 12.8376 32.6594 13.5855C32.6339 14.3878 33.3256 15.0808 34.1511 15.0797C34.9567 15.0787 35.5463 14.501 35.5656 13.6938C35.5859 12.8408 34.9522 12.183 34.1167 12.1899ZM12.8303 33.7543C12.9021 34.5164 13.3711 34.9268 14.1164 34.9718C14.8544 35.0164 15.4593 34.3984 15.4488 33.6717C15.4381 32.9399 14.8267 32.3583 14.0948 32.3837C13.3554 32.4094 12.7622 33.0294 12.8303 33.7543ZM25.418 23.3843C25.3874 22.6031 24.9273 22.2088 24.1913 22.1532C23.4578 22.0978 22.8509 22.6987 22.8468 23.4183C22.8427 24.1439 23.4328 24.7324 24.1582 24.726C24.8864 24.7195 25.447 24.1294 25.418 23.3843Z" fill="#0DB07B"/>
</g>
<defs>
<clipPath id="clip0_1_15851">
<rect width="36" height="36" fill="white" transform="translate(0 0.00390625)"/>
</clipPath>
</defs>
</svg>
