<svg width="36" height="36" viewBox="0 0 36 36" fill="none" xmlns="http://www.w3.org/2000/svg">
<path d="M18.0004 1.44531C8.86318 1.44531 1.44043 8.86806 1.44043 18.0053C1.44043 27.1426 8.86318 34.5653 18.0004 34.5653C27.1377 34.5653 34.5604 27.1426 34.5604 18.0053C34.5604 8.86806 27.1377 1.44531 18.0004 1.44531ZM18.0004 2.88531C26.3595 2.88531 33.1204 9.64628 33.1204 18.0053C33.1204 26.3643 26.3595 33.1253 18.0004 33.1253C9.6414 33.1253 2.88043 26.3643 2.88043 18.0053C2.88043 9.64628 9.6414 2.88531 18.0004 2.88531ZM26.4337 7.20391C23.8454 8.53675 21.5715 10.528 19.4432 12.4619C19.1811 12.6995 18.6512 13.0559 18.5489 13.3042C18.4662 13.505 18.48 13.8431 18.4448 14.1016C18.4088 14.3623 18.3781 14.6418 18.3407 14.8736C18.2609 15.3703 18.1877 15.8619 17.8809 16.2011C17.5094 15.903 17.5336 15.1363 17.4098 14.5445C17.3285 14.5164 17.2832 14.6275 17.2256 14.6837C16.7626 15.136 16.2122 15.6659 15.7364 16.1223C15.56 17.3449 15.3907 18.6533 15.1092 19.8081C15.0228 20.1639 14.943 20.5748 14.6803 20.8037C14.3627 20.2407 14.3464 19.2614 14.3371 18.3737C14.3335 18.0289 14.2902 17.6824 14.309 17.3542C14.2291 17.3205 14.1476 17.4473 14.077 17.5202C13.8683 17.7362 13.5966 18.0233 13.3936 18.25C13.4821 19.5741 13.6801 21.2346 13.5989 22.6783C13.58 23.0225 13.5451 23.4582 13.3767 23.4827C13.1238 23.5195 12.7886 22.5306 12.7143 22.3225C12.5329 21.8092 12.428 21.3913 12.2812 20.9191C12.1856 20.8822 12.1541 21.0276 12.1223 21.0808C11.6658 21.8447 11.6296 23.09 11.7159 24.3967C11.2912 23.4931 10.7945 22.676 10.2309 21.9372C10.1091 21.7774 10.0183 21.8188 10.0959 22.0075C10.4452 22.8527 10.7543 23.8581 11.017 24.82C10.5152 24.1115 9.74434 23.5901 8.9048 23.1775C8.62468 23.04 8.54424 23.2006 8.77543 23.4208C9.34496 23.963 9.85852 24.5705 10.3856 25.1631C10.0709 25.5051 9.84418 26.2367 10.1114 26.838C10.2157 26.6327 10.2987 26.4428 10.439 26.2066C10.5346 26.0454 10.6882 25.7245 10.9214 25.7453C11.1489 25.7656 11.3171 26.343 11.2336 26.6706C11.0592 27.3504 10.3018 28.1357 10.0115 28.5719C9.88974 28.7541 9.88946 28.8807 10.0312 28.7519C10.6663 28.1759 11.2946 27.5684 11.7215 26.8197C12.2638 27.2964 12.9436 27.6103 13.6664 27.873C13.9032 27.9587 13.9116 27.8786 13.6818 27.7309C13.4571 27.5869 13.2459 27.4213 13.0659 27.2261C12.7202 26.8517 12.3434 26.3466 12.3614 25.7102C12.5723 25.7633 12.5729 25.9672 12.6707 26.1011C13.2279 26.8686 14.3636 27.1417 15.5114 27.2669C15.733 27.2913 15.7305 27.2027 15.5311 27.1431C14.4511 26.8191 13.5592 26.2729 13.1503 25.1547C15.1036 25.4354 18.0871 25.8128 19.8173 24.7905C17.6351 24.8107 15.5988 24.658 13.5736 24.4923C14.1957 23.441 16.0311 23.256 17.6446 23.2337C18.0421 23.2281 18.5536 23.3561 18.8006 23.2675C18.9252 23.2228 19.0897 22.874 19.2056 22.7078C20.1163 21.4017 21.0424 20.1203 21.8648 18.8266C21.2486 18.8086 20.5145 18.932 20.1928 18.5664C20.4096 18.0717 21.122 17.9696 21.8198 17.9617C21.9711 17.9603 22.1371 18.0092 22.2768 17.9603C22.472 17.892 22.8509 17.3061 23.0475 17.0477C23.7582 16.1159 24.5471 15.0823 25.2103 14.2169C25.687 13.5947 26.1761 12.9552 26.5743 12.2481C26.9675 11.5503 27.3396 10.6967 27.359 9.75203C27.3821 8.64391 27.0041 7.71072 26.4337 7.20391ZM24.1795 11.0612C22.8323 13.0801 21.556 15.1672 20.0662 17.0687C18.5829 18.961 16.9064 20.6938 15.3426 22.4491C18.0384 18.4157 21.0928 14.7231 24.1795 11.0612Z" fill="#354A51"/>
</svg>
