<svg width="36" height="36" viewBox="0 0 36 36" fill="none" xmlns="http://www.w3.org/2000/svg">
<g clip-path="url(#clip0_1_15605)">
<path fill-rule="evenodd" clip-rule="evenodd" d="M19.7426 12.5031L26.2298 8.75906V16.2471L19.7426 12.5031ZM26.2298 28.4799L17.6834 33.4191L9.13696 28.4871V19.8039L17.6834 24.7359L26.2298 19.8039V28.4799ZM9.13696 8.75906L15.6242 12.5031L9.13696 16.2471V8.75906ZM18.713 14.2815L25.2002 18.0183L18.713 21.7623V14.2815ZM16.6538 21.7623L10.1738 18.0183L16.6538 14.2743V21.7623ZM25.2002 6.97346L17.6834 11.3151L10.1594 6.97346L17.6834 2.63186L25.2002 6.97346ZM7.08496 6.37586V17.4351V18.6159V29.6751L17.6834 35.7951L28.2818 29.6679V18.6159V17.4279V6.37586L17.6834 0.255859L7.08496 6.37586Z" fill="#040505"/>
</g>
<defs>
<clipPath id="clip0_1_15605">
<rect width="36" height="36" fill="white" transform="translate(0 0.00390625)"/>
</clipPath>
</defs>
</svg>
