<svg width="36" height="36" viewBox="0 0 36 36" fill="none" xmlns="http://www.w3.org/2000/svg">
<path d="M34.5468 7.45117H23.2616L19.9156 15.9451H9.36291V11.572H19.9156L21.46 7.45119H5.4803C5.06577 7.45119 4.72973 7.78722 4.72973 8.20176V15.9451H2.15573L0.611328 20.0635H4.72973V27.796C4.72973 28.216 5.07025 28.5565 5.49028 28.5565H13.2237L14.7676 24.4386H9.36244V20.0635H18.114L14.7676 28.5566H19.9156L23.5192 20.0631H34.6028C35.0203 20.0631 35.3589 19.7248 35.3591 19.3073V8.26355C35.3591 7.81489 34.9954 7.45117 34.5468 7.45117ZM30.986 15.2944C30.986 15.6543 30.6942 15.9461 30.3343 15.9461H25.0636L26.8652 11.5729H30.3319C30.6914 11.5713 30.9841 11.8613 30.986 12.2208V15.2944Z" fill="#4096D0"/>
</svg>
