<svg width="36" height="36" viewBox="0 0 36 36" fill="none" xmlns="http://www.w3.org/2000/svg">
<g clip-path="url(#clip0_1_15603)">
<path d="M12.8625 1.71064C13.3743 2.16892 18.0149 8.1378 18.335 8.76434C15.2438 8.70134 12.6562 9.80186 10.696 12.1717C8.74419 14.5315 8.17064 17.2665 8.76781 20.3576C10.9499 18.7074 13.0041 17.0129 15.18 15.3778C16.786 17.4323 18.3602 19.4463 19.9735 21.51C18.8812 22.4076 17.7852 23.2279 16.7098 24.0739C15.6465 24.9106 14.5838 25.7481 13.517 26.5883C15.7499 29.4421 17.9593 32.2658 20.1774 35.1008C18.4339 35.6151 14.3686 35.3588 11.3063 34.0386C6.80142 32.0966 3.59655 28.8501 1.86517 24.2662C-1.58831 15.1234 3.0914 4.80484 12.8625 1.71064ZM17.9865 28.5393C19.1125 29.9875 20.2447 31.4309 21.3762 32.8748C21.8052 33.4221 22.2381 33.9663 22.67 34.5113C22.8121 34.6907 22.95 34.823 23.2248 34.7236C24.4497 34.2805 25.6489 33.7838 26.7699 33.1141C29.0915 31.7271 31.015 29.9156 32.4799 27.6422C34.0724 25.1706 35.0564 22.4739 35.2189 19.5229C35.2893 18.2442 35.3045 16.9595 35.1182 15.6781C34.8364 13.7395 34.2668 11.903 33.3614 10.1652C31.7201 7.01524 29.3278 4.59676 26.2375 2.87193C23.9629 1.60243 21.4929 0.964077 18.9066 0.784149C17.7715 0.705237 16.6327 0.781341 15.5002 0.904605C15.4521 0.909861 15.4074 0.946437 15.3058 0.994749C16.4428 2.45491 17.5639 3.8962 18.6867 5.33628C19.8128 6.78052 20.9406 8.22355 22.0951 9.70228C19.9296 11.3949 17.7847 13.0715 15.6207 14.7629C17.2983 16.9654 18.9829 19.0785 20.6626 21.2111C21.7388 20.3688 22.763 19.5649 23.7897 18.7643C24.8202 17.9608 25.8255 17.1235 26.9135 16.3529C27.36 18.3473 27.0718 21.0665 25.6268 23.181C23.6196 26.1184 20.7867 27.4335 17.1374 27.3641C17.4746 27.8325 17.7189 28.195 17.9865 28.5393ZM18.9556 28.2473C26.3861 27.3314 29.5294 19.8867 27.4108 14.7379C25.2081 16.4553 23.0185 18.1626 20.8087 19.8855C19.5164 18.234 18.2512 16.6171 16.9477 14.9512C18.0179 14.0611 19.1112 13.2427 20.1815 12.3968C21.2456 11.556 22.3221 10.7311 23.4275 9.87249C21.3266 7.17876 19.2428 4.50684 17.1063 1.76752C17.4004 1.74355 17.6308 1.70784 17.8611 1.70863C20.5051 1.71756 23.0181 2.29327 25.3794 3.4889C27.1154 4.36788 28.6303 5.54061 29.9591 6.9642C31.5338 8.65116 32.6985 10.577 33.4522 12.7573C33.8358 13.8671 34.0761 15.0024 34.2273 16.1675C34.3749 17.3053 34.3784 18.4469 34.2896 19.5746C34.1259 21.6519 33.5604 23.6344 32.6174 25.5069C31.3081 28.1071 29.4335 30.2001 27.0349 31.8325C25.8774 32.6202 24.6231 33.2155 23.2312 33.7032C21.7948 31.8703 20.3862 30.0728 18.9556 28.2473Z" fill="#DD2664"/>
</g>
<defs>
<clipPath id="clip0_1_15603">
<rect width="36" height="36" fill="white" transform="translate(0 0.00390625)"/>
</clipPath>
</defs>
</svg>
