<svg width="36" height="36" viewBox="0 0 36 36" fill="none" xmlns="http://www.w3.org/2000/svg">
<g clip-path="url(#clip0_1_15600)">
<path d="M18 36.0039C27.9411 36.0039 36 27.945 36 18.0039C36 8.06278 27.9411 0.00390625 18 0.00390625C8.05887 0.00390625 0 8.06278 0 18.0039C0 27.945 8.05887 36.0039 18 36.0039Z" fill="url(#paint0_linear_1_15600)"/>
<path fill-rule="evenodd" clip-rule="evenodd" d="M15.7499 12.0253V15.9468C15.7499 16.2039 15.9749 16.3968 16.1999 16.3968H22.3713C22.5963 16.3968 22.8213 16.5896 22.8213 16.8468V18.5182C22.8213 18.7432 22.6284 18.9682 22.3713 18.9682H16.1999C15.9749 18.9682 15.7499 19.1932 15.7499 19.4182V28.5468C15.7499 28.9003 15.557 29.0932 15.2999 28.9325L13.4999 27.6468C13.2749 27.5182 13.1784 27.3896 13.1784 27.1325V19.4182C13.1784 19.1932 12.9213 18.9682 12.7284 18.9682H9.77129C9.51415 18.9682 9.32129 18.7432 9.32129 18.5182V16.8468C9.32129 16.5896 9.51415 16.3968 9.77129 16.3968H12.7284C12.9213 16.3968 13.1784 16.2039 13.1784 15.9468V9.45391C13.1784 9.19676 13.3713 9.00391 13.5963 9.00391H24.9427C25.1677 9.00391 25.3927 9.22891 25.3927 9.45391V11.1253C25.3927 11.3503 25.1999 11.5753 24.9427 11.5753H16.1999C15.9749 11.5753 15.7499 11.8003 15.7499 12.0253Z" fill="white"/>
</g>
<defs>
<linearGradient id="paint0_linear_1_15600" x1="5.27207" y1="5.27598" x2="30.7279" y2="30.7318" gradientUnits="userSpaceOnUse">
<stop stop-color="#9A00FF"/>
<stop offset="1" stop-color="#6502FF"/>
</linearGradient>
<clipPath id="clip0_1_15600">
<rect width="36" height="36" fill="white" transform="translate(0 0.00390625)"/>
</clipPath>
</defs>
</svg>
