<svg width="36" height="36" viewBox="0 0 36 36" fill="none" xmlns="http://www.w3.org/2000/svg">
<g clip-path="url(#clip0_1_15853)">
<path d="M33.0767 8.14772L18.0287 0.0117188L3.05273 8.14772L18.0287 16.8741L23.7599 13.5837L21.3407 12.1509L18.0287 14.1093L7.86233 8.21252L18.0287 2.77652L30.5567 9.54452L33.0767 8.14772Z" fill="black"/>
<path d="M2.03027 9.35742V26.623L17.2439 35.9974V18.2062L11.4695 14.7934V17.6446L14.8175 19.5382V31.6774L4.42067 25.2262V10.819L2.03027 9.35742Z" fill="black"/>
<path d="M18.792 24.8806V18.235L34.0344 9.35742V26.6518L18.792 35.9974V33.139L31.644 25.2262V13.5838L21.2112 19.5382V23.5126L18.792 24.8806Z" fill="black"/>
</g>
<defs>
<clipPath id="clip0_1_15853">
<rect width="36" height="36" fill="white" transform="translate(0 0.00390625)"/>
</clipPath>
</defs>
</svg>
