<svg width="36" height="36" viewBox="0 0 36 36" fill="none" xmlns="http://www.w3.org/2000/svg">
<g clip-path="url(#clip0_1_15599)">
<path d="M18 35.7089C27.7701 35.7089 35.6904 27.7887 35.6904 18.0185C35.6904 8.24839 27.7701 0.328125 18 0.328125C8.22983 0.328125 0.30957 8.24839 0.30957 18.0185C0.30957 27.7887 8.22983 35.7089 18 35.7089Z" fill="url(#paint0_linear_1_15599)"/>
<path d="M20.5845 21.3007C20.5845 19.1191 22.3557 17.3479 24.5373 17.3479H35.6973C35.6109 14.9359 35.0349 12.6535 34.0773 10.5799H24.5373C23.5005 10.5799 22.4853 10.7239 21.5061 11.0191C21.4413 10.8319 21.3693 10.6447 21.2901 10.4647C20.7501 9.19032 19.9797 8.03832 18.9933 7.05912C18.0141 6.07992 16.8621 5.30232 15.5877 4.76232C14.2629 4.20072 12.8589 3.91992 11.4117 3.91992H7.27892C4.96052 5.67672 3.09572 8.00232 1.87172 10.6807H11.4117C13.5933 10.6807 15.3645 12.4519 15.3645 14.6335C15.3645 16.8151 13.5933 18.5863 11.4117 18.5863H0.294922C0.374122 20.9983 0.928522 23.2807 1.87172 25.3543H11.4117C12.4485 25.3543 13.4637 25.2103 14.4429 24.9151C14.5077 25.1023 14.5797 25.2895 14.6589 25.4695C15.1989 26.7439 15.9693 27.8959 16.9557 28.8751C17.9349 29.8543 19.0869 30.6319 20.3613 31.1719C21.6861 31.7335 23.0901 32.0143 24.5373 32.0143H28.8357C31.1253 30.2431 32.9685 27.9175 34.1637 25.2463H24.5373C22.3557 25.2607 20.5845 23.4895 20.5845 21.3007Z" fill="white"/>
</g>
<defs>
<linearGradient id="paint0_linear_1_15599" x1="5.4925" y1="5.51097" x2="30.5056" y2="30.5241" gradientUnits="userSpaceOnUse">
<stop stop-color="#FF7600"/>
<stop offset="1" stop-color="#FD2600"/>
</linearGradient>
<clipPath id="clip0_1_15599">
<rect width="36" height="36" fill="white" transform="translate(0 0.00390625)"/>
</clipPath>
</defs>
</svg>
