<svg width="36" height="36" viewBox="0 0 36 36" fill="none" xmlns="http://www.w3.org/2000/svg">
<g clip-path="url(#clip0_1_15597)">
<path d="M18.0015 28.3346C14.535 22.7971 11.1152 17.3344 7.66211 11.8184C14.5663 11.8184 21.4023 11.8184 28.306 11.8184C24.8705 17.3248 21.4567 22.7966 18.0015 28.3346Z" fill="#FF7093"/>
<path d="M16.3869 28.8536C11.7195 28.1742 7.14224 27.5079 2.5166 26.8346C3.85285 22.211 5.17794 17.6263 6.52571 12.9629C9.82187 18.2745 13.0784 23.5221 16.3869 28.8536Z" fill="#9E4B69"/>
<path d="M29.4792 12.9629C30.8272 17.6273 32.15 22.2047 33.4876 26.8333C28.8684 27.5065 24.2857 28.1744 19.6172 28.8549C22.9182 23.5354 26.1744 18.2884 29.4792 12.9629Z" fill="#9E4B69"/>
<path d="M27.8128 10.1727C21.2793 10.1727 14.7253 10.1727 8.08887 10.1727C11.41 6.82796 14.6795 3.53518 17.9182 0.273438C21.2314 3.58832 24.5211 6.87951 27.8128 10.1727Z" fill="#A55271"/>
<path d="M5.94054 29.0625C9.67914 29.5874 13.4177 30.1123 17.1735 30.6396C17.1735 32.284 17.1735 33.8987 17.1735 35.579C13.3967 33.4156 9.65682 31.2733 5.91699 29.1311C5.92484 29.1083 5.93269 29.0854 5.94054 29.0625Z" fill="#613B5A"/>
<path d="M30.0934 29.1239C26.3541 31.2672 22.6147 33.4106 18.832 35.5787C18.832 33.9042 18.832 32.2922 18.832 30.6397C22.5819 30.1127 26.3249 29.5867 30.0681 29.0605C30.0765 29.0816 30.085 29.1028 30.0934 29.1239Z" fill="#613B5A"/>
<path d="M22.3769 2.24609C25.9135 3.99721 29.45 5.74832 33.0374 7.52463C32.0211 8.34824 31.0513 9.13412 30.0424 9.95168C27.4658 7.39841 24.8989 4.85494 22.332 2.3114C22.347 2.28958 22.3619 2.26784 22.3769 2.24609Z" fill="#613B5A"/>
<path d="M13.6681 2.31285C11.109 4.8484 8.54996 7.38402 5.96307 9.94715C4.97026 9.14449 3.99272 8.35422 2.96484 7.5232C6.54771 5.74948 10.0841 3.9988 13.6203 2.24805C13.6363 2.26965 13.6522 2.29125 13.6681 2.31285Z" fill="#613D5B"/>
<path d="M5.19524 11.3112C4.26363 14.6537 3.33605 17.982 2.40841 21.3104C2.39206 21.3068 2.37572 21.3033 2.35938 21.2999C2.35938 17.2617 2.35938 13.2236 2.35938 9.11523C3.33188 9.86828 4.25578 10.5837 5.19524 11.3112Z" fill="#613B5A"/>
<path d="M30.8086 11.3134C31.7445 10.5875 32.668 9.87124 33.6404 9.11719C33.6404 13.2213 33.6404 17.2586 33.6404 21.2959C33.6253 21.2999 33.6103 21.3039 33.5953 21.3079C32.6682 17.9828 31.7411 14.6578 30.8086 11.3134Z" fill="#613B5A"/>
</g>
<defs>
<clipPath id="clip0_1_15597">
<rect width="36" height="36" fill="white" transform="translate(0 0.00390625)"/>
</clipPath>
</defs>
</svg>
