<svg width="36" height="36" viewBox="0 0 36 36" fill="none" xmlns="http://www.w3.org/2000/svg">
<g clip-path="url(#clip0_1_15595)">
<path d="M27.9863 15.4126L30.6431 12.7558L18.0071 0.126953L5.37109 12.763L8.02789 15.4198L5.37109 18.0766L7.96309 20.6686L5.37109 23.2606L18.0071 35.8966L30.6431 23.2606L27.9863 20.6686L30.5783 18.0766L27.9863 15.4126ZM7.01269 12.763L18.0071 1.83335L28.9367 12.763L27.1655 14.5342L18.0071 5.36855L8.78389 14.527L7.01269 12.763ZM18.0071 23.7502L12.3191 18.0622L18.0071 12.3742L23.6951 18.0622L18.0071 23.7502ZM24.5087 18.8254L26.2799 20.5966L18.0071 28.999L9.66229 20.6614L11.4335 18.8902L17.9999 25.399L24.5087 18.8254ZM18.0071 10.6102L11.4407 17.1766L9.66229 15.4126L18.0071 7.07495L26.3447 15.4126L24.5159 17.1838L18.0071 10.6102ZM7.01269 18.0046L8.78389 16.2334L10.5551 18.0046L8.78389 19.7758L7.01269 18.0046ZM28.9295 23.2462L18.0071 34.2406L7.01269 23.2462L8.78389 21.475L17.9423 30.6334L27.1007 21.475L28.9295 23.2462ZM25.3943 18.0046L27.1655 16.2334L28.9367 18.0046L27.1655 19.7758L25.3943 18.0046Z" fill="#2E2E2E"/>
</g>
<defs>
<clipPath id="clip0_1_15595">
<rect width="36" height="36" fill="white" transform="translate(0 0.00390625)"/>
</clipPath>
</defs>
</svg>
