<svg width="36" height="36" viewBox="0 0 36 36" fill="none" xmlns="http://www.w3.org/2000/svg">
<path d="M19.3747 19.3169C20.8263 20.06 21.8723 19.9555 22.7965 19.0253C23.4842 18.3331 23.905 16.8966 23.0226 15.7343C23.208 15.5489 23.3931 15.3636 23.578 15.1786C25.0406 17.1908 25.3524 20.8682 22.8588 23.5022C20.1855 26.326 15.8139 26.3518 13.0826 23.5349C10.5081 20.8798 10.8859 17.1846 12.3251 15.1738C12.5254 15.3813 12.7249 15.5877 12.9257 15.7955C12.204 17.0314 12.3173 18.2026 13.3883 19.1688C14.3394 20.0269 15.4282 20.0616 16.5358 19.3791C16.9889 19.8471 17.4443 20.3174 17.9305 20.8195C18.441 20.2883 18.9134 19.7968 19.3747 19.3169Z" fill="#039DBD"/>
<path d="M10.4046 17.1367C9.94079 19.4497 10.3878 21.5482 11.7768 23.484C11.392 23.4407 11.0458 23.405 10.7003 23.3623C9.00983 23.1534 7.3426 22.8347 5.73311 22.2636C4.29189 21.7522 2.94498 21.0743 1.84734 19.976C1.08018 19.2084 0.547024 18.3038 0.2524 17.259C0.24592 17.2359 0.240592 17.212 0.238432 17.1882C0.237208 17.1749 0.243688 17.1609 0.249016 17.1367C3.62618 17.1367 7.00341 17.1367 10.4046 17.1367Z" fill="#039DBD"/>
<path d="M35.7023 17.1406C35.5784 17.4746 35.4767 17.7949 35.3431 18.1013C34.7117 19.5493 33.6097 20.5541 32.2646 21.3181C30.4918 22.3248 28.5527 22.8296 26.5612 23.159C25.8049 23.2842 25.0412 23.3647 24.2808 23.4647C24.2451 23.4694 24.2084 23.4652 24.1309 23.4652C24.8169 22.539 25.2743 21.5429 25.5075 20.448C25.741 19.3518 25.7313 18.2542 25.4943 17.1406C28.894 17.1406 32.2743 17.1406 35.7023 17.1406Z" fill="#039DBD"/>
<path d="M17.9449 19.7227C16.1262 17.9021 14.2924 16.0663 12.4365 14.2086C13.869 12.6006 15.6571 11.7116 17.8354 11.6805C20.1034 11.6482 21.9702 12.5355 23.4686 14.2051C21.6108 16.0608 19.7763 17.8933 17.9449 19.7227ZM17.9554 18.793C19.4801 17.2714 21.0017 15.7529 22.5435 14.2143C21.0587 12.8309 19.324 12.1988 17.3109 12.3829C15.7827 12.5227 14.4751 13.1538 13.3743 14.2069C14.9138 15.7481 16.4309 17.2669 17.9554 18.793Z" fill="#039DBD"/>
<path d="M20.3398 18.4121C20.9896 17.7719 21.633 17.138 22.2785 16.502C22.7096 16.8453 22.6993 17.7961 22.2376 18.3021C21.7521 18.8343 20.7942 18.8935 20.3398 18.4121Z" fill="#039DBD"/>
<path d="M13.6822 16.5625C14.3205 17.2034 14.9539 17.8392 15.5874 18.4752C15.212 18.8629 14.3275 18.8263 13.864 18.3905C13.3526 17.9099 13.2683 17.0287 13.6822 16.5625Z" fill="#039DBD"/>
</svg>
