<svg width="36" height="36" viewBox="0 0 36 36" fill="none" xmlns="http://www.w3.org/2000/svg">
<g clip-path="url(#clip0_1_15593)">
<path d="M17.9998 35.7164C27.7823 35.7164 35.7125 27.7862 35.7125 18.0037C35.7125 8.22127 27.7823 0.291016 17.9998 0.291016C8.21736 0.291016 0.287109 8.22127 0.287109 18.0037C0.287109 27.7862 8.21736 35.7164 17.9998 35.7164Z" fill="#002D64"/>
<path d="M21.3089 15.3475C22.1839 14.4725 22.6587 13.3212 22.6587 12.0813C22.6586 10.9989 22.2787 9.95082 21.5853 9.11974L24.2705 6.4345L23.6718 5.85352L20.9866 8.53876C20.1576 7.84796 19.1303 7.46537 18.0427 7.46537C15.4917 7.46711 13.425 9.53657 13.4268 12.0877C13.4276 13.3101 13.913 14.4823 14.7765 15.3475C15.5417 16.1127 16.5407 16.5909 17.6141 16.6831V20.0874C16.5383 20.1767 15.5308 20.6509 14.7765 21.423C12.9769 23.2286 12.9769 26.1498 14.7765 27.9554C15.6515 28.8304 16.8028 29.3051 18.0427 29.3051C19.2679 29.3088 20.4438 28.8229 21.3089 27.9554C22.1839 27.0804 22.6587 25.9291 22.6587 24.6892C22.6587 23.4493 22.1839 22.298 21.3089 21.423C20.5438 20.6578 19.5448 20.1796 18.4714 20.0874V16.6831C19.5473 16.5946 20.5551 16.1203 21.3089 15.3475ZM20.7103 22.0181C21.4152 22.7373 21.8155 23.676 21.8155 24.6856C21.8171 25.6866 21.4193 26.6467 20.7103 27.3532C20.0053 28.0723 19.0523 28.4584 18.0427 28.4584C17.0418 28.4601 16.0817 28.0622 15.3752 27.3532C14.6702 26.634 14.2699 25.6953 14.2699 24.6856C14.2683 23.6847 14.6662 22.7246 15.3752 22.0181C16.0802 21.299 17.0331 20.9128 18.0427 20.9128C19.0559 20.9164 20.0053 21.299 20.7103 22.0181ZM18.0427 15.8683C17.0418 15.8699 16.0816 15.472 15.3752 14.763C14.6702 14.0439 14.2699 13.1051 14.2699 12.0955C14.269 11.0947 14.6667 10.1348 15.3752 9.42794C16.0802 8.70881 17.0331 8.32267 18.0427 8.32267C19.0436 8.32106 20.0038 8.7189 20.7102 9.42794C21.4294 10.1329 21.8155 11.0859 21.8155 12.0955C21.8171 13.0964 21.4193 14.0565 20.7102 14.763C20.0053 15.4857 19.0559 15.8683 18.0427 15.8683Z" fill="white"/>
</g>
<defs>
<clipPath id="clip0_1_15593">
<rect width="36" height="36" fill="white" transform="translate(0 0.00390625)"/>
</clipPath>
</defs>
</svg>
