<svg width="36" height="36" viewBox="0 0 36 36" fill="none" xmlns="http://www.w3.org/2000/svg">
<path d="M29.7978 11.4082H18.1467L12.2246 21.5358H15.9581L19.9491 14.6911H27.9525L31.8791 21.5358L27.9096 28.402L20.2866 28.4211L17.9999 24.8616H17.8858L14.5683 25.6253L17.9999 31.6635H29.8407L35.677 21.5358L29.7978 11.4082Z" fill="#11466B"/>
<path d="M14.1348 24.8613L14.5688 25.625L17.8863 24.8613H14.1348Z" fill="#203361"/>
<path d="M23.8069 14.6914H19.9493L19.2363 15.9142L23.7725 14.7515L23.8069 14.6914Z" fill="#F6C329"/>
<path d="M19.2358 15.9131L15.9578 21.535H8.15547L4.17862 14.6843L8.16735 7.86085L16.0579 7.84321L18.1464 11.4074H21.8821L17.8796 4.50781H6.28253L0.330078 14.6903L6.20557 24.8608H17.9996L23.7721 14.7504L19.2358 15.9131Z" fill="#F8DC1A"/>
</svg>
