<svg width="36" height="36" viewBox="0 0 36 36" fill="none" xmlns="http://www.w3.org/2000/svg">
<g clip-path="url(#clip0_1_15590)">
<path d="M17.755 0.478516C27.4102 0.478516 35.2294 8.30492 35.2294 17.9529V18.0321C35.2294 27.6873 27.403 35.5137 17.7478 35.5137C16.4518 35.5137 15.4006 34.4625 15.4006 33.1665C15.4006 31.8705 16.4518 30.8841 17.7478 30.8841H17.8558C24.7318 30.8841 30.5206 25.2393 30.5206 18.3633V16.6785C30.5206 16.1313 30.0742 15.6849 29.3182 15.6849H17.6398C16.3222 15.6849 15.2566 16.7505 15.2566 18.0681C15.2566 19.3137 16.2718 20.3289 17.5174 20.3289H24.2998C24.6958 20.3289 25.0198 20.6529 25.0198 21.0489C25.0198 22.6041 21.8374 26.0529 18.2302 26.0529H17.7118C13.1758 26.0529 9.48937 22.3881 9.46777 17.8449C9.46777 17.7657 9.46777 17.6865 9.46777 17.6145C9.59017 12.5025 14.6518 8.76572 19.987 10.2921C21.9382 10.8537 22.8526 12.3009 24.8758 12.3009C25.999 12.3009 26.9134 11.3937 26.9278 10.2705C26.9278 7.62092 22.2982 5.28812 18.8998 5.11532H17.755C16.459 5.11532 15.4006 4.20812 15.3718 2.91212C15.343 1.58012 16.423 0.478516 17.755 0.478516Z" fill="#232A7E"/>
<path d="M10.5482 6.93037C11.7252 6.93037 12.6794 5.9762 12.6794 4.79917C12.6794 3.62214 11.7252 2.66797 10.5482 2.66797C9.37116 2.66797 8.41699 3.62214 8.41699 4.79917C8.41699 5.9762 9.37116 6.93037 10.5482 6.93037Z" fill="#008BCD"/>
<path d="M5.14097 12.6257C6.318 12.6257 7.27217 11.6715 7.27217 10.4945C7.27217 9.31745 6.318 8.36328 5.14097 8.36328C3.96394 8.36328 3.00977 9.31745 3.00977 10.4945C3.00977 11.6715 3.96394 12.6257 5.14097 12.6257Z" fill="#008BCD"/>
<path d="M2.96616 20.0925C4.14319 20.0925 5.09736 19.1383 5.09736 17.9613C5.09736 16.7842 4.14319 15.8301 2.96616 15.8301C1.78913 15.8301 0.834961 16.7842 0.834961 17.9613C0.834961 19.1383 1.78913 20.0925 2.96616 20.0925Z" fill="#008BCD"/>
<path d="M5.08335 27.5144C6.26038 27.5144 7.21455 26.5602 7.21455 25.3832C7.21455 24.2061 6.26038 23.252 5.08335 23.252C3.90632 23.252 2.95215 24.2061 2.95215 25.3832C2.95215 26.5602 3.90632 27.5144 5.08335 27.5144Z" fill="#008BCD"/>
<path d="M10.5482 33.3112C11.7252 33.3112 12.6794 32.3571 12.6794 31.18C12.6794 30.003 11.7252 29.0488 10.5482 29.0488C9.37116 29.0488 8.41699 30.003 8.41699 31.18C8.41699 32.3571 9.37116 33.3112 10.5482 33.3112Z" fill="#008BCD"/>
</g>
<defs>
<clipPath id="clip0_1_15590">
<rect width="36" height="36" fill="white" transform="translate(0 0.00390625)"/>
</clipPath>
</defs>
</svg>
