<svg width="36" height="36" viewBox="0 0 36 36" fill="none" xmlns="http://www.w3.org/2000/svg">
<g clip-path="url(#clip0_1_15588)">
<path d="M18.086 35.7599C27.8999 35.7599 35.8556 27.8042 35.8556 17.9903C35.8556 8.17642 27.8999 0.220703 18.086 0.220703C8.27213 0.220703 0.316406 8.17642 0.316406 17.9903C0.316406 27.8042 8.27213 35.7599 18.086 35.7599Z" fill="#FBE300"/>
<path fill-rule="evenodd" clip-rule="evenodd" d="M14.8389 19.875C13.0893 19.875 11.6709 21.3006 11.6709 23.0502C11.6709 23.223 11.6853 23.3886 11.7141 23.5542H13.4565C13.3989 23.3958 13.3629 23.2302 13.3629 23.0502C13.3629 22.2366 14.0253 21.567 14.8389 21.567C15.6525 21.567 16.3149 22.2294 16.3149 23.0502C16.3149 23.2302 16.2789 23.3958 16.2213 23.5542H17.9637C17.9925 23.3886 18.0069 23.223 18.0069 23.0502C18.0069 21.3006 16.5885 19.875 14.8389 19.875Z" fill="#00191B"/>
<path fill-rule="evenodd" clip-rule="evenodd" d="M27.6189 20.9847C26.9709 20.8767 26.3517 21.1791 26.0205 21.7047C25.9557 22.1079 25.8693 22.5111 25.7541 22.8999C25.6245 23.3463 25.8837 23.8215 26.3301 23.9511C26.4093 23.9727 26.4885 23.9871 26.5677 23.9871C26.9349 23.9871 27.2733 23.7423 27.3813 23.3751C27.5973 22.6119 27.7413 21.8271 27.8061 21.0351C27.7413 21.0135 27.6837 20.9991 27.6189 20.9847Z" fill="#00191B"/>
<path fill-rule="evenodd" clip-rule="evenodd" d="M21.9382 16.0742C22.4062 16.0742 22.7806 15.6926 22.7806 15.2246C22.7806 14.7566 22.399 14.375 21.9382 14.375C21.4774 14.375 21.0958 14.7566 21.0958 15.2246C21.0886 15.6926 21.4702 16.0742 21.9382 16.0742Z" fill="#00191B"/>
<path fill-rule="evenodd" clip-rule="evenodd" d="M30.8014 18.768C30.7078 18.5016 30.4126 18.372 30.1534 18.4656C29.3974 18.7392 28.6054 18.912 27.8134 18.984C27.5398 15.7656 26.0062 12.6264 23.6662 10.6032C21.7006 8.90398 19.3534 8.15518 17.0422 8.49358C14.3998 8.88238 12.5566 10.812 12.5566 13.1808C12.5566 15.024 13.6438 16.6224 15.2134 17.3568L16.5094 16.0248C15.2134 15.7296 14.2486 14.5632 14.2486 13.1808C14.2486 11.9424 15.199 10.4736 17.287 10.164C19.6126 9.81838 21.4342 10.9056 22.5574 11.8776C24.5302 13.5912 25.8406 16.2336 26.107 18.9696C24.8326 18.8472 23.6014 18.4584 22.5142 17.8464C22.3486 17.7528 22.147 17.7168 21.9454 17.7528C21.499 17.8392 21.2038 18.2784 21.2974 18.7248L21.3046 18.7752C21.5926 20.0856 21.5782 21.468 21.2758 22.7712C21.2182 23.0304 21.139 23.2896 21.0598 23.5416H22.8238C22.8598 23.412 22.8886 23.2824 22.9246 23.16C23.1766 22.0872 23.2558 20.9856 23.1766 19.8912C24.1558 20.1864 25.171 20.3304 26.179 20.3376C27.691 20.3448 29.1886 20.0136 30.5422 19.3944C30.7726 19.3008 30.8878 19.02 30.8014 18.768Z" fill="#00191B"/>
<path fill-rule="evenodd" clip-rule="evenodd" d="M11.6429 13.6111C11.7581 13.3807 11.8229 13.1359 11.8229 12.8767C11.8229 12.4447 11.6717 12.0415 11.4053 11.7031C8.38847 13.6399 6.48047 17.0239 6.48047 20.7247C6.48047 21.6895 6.61007 22.6399 6.86207 23.5615H8.62607C8.32367 22.6543 8.17247 21.7039 8.17247 20.7247C8.16527 17.8951 9.49007 15.2887 11.6429 13.6111Z" fill="#00191B"/>
</g>
<defs>
<clipPath id="clip0_1_15588">
<rect width="36" height="36" fill="white" transform="translate(0 0.00390625)"/>
</clipPath>
</defs>
</svg>
