<svg width="36" height="36" viewBox="0 0 36 36" fill="none" xmlns="http://www.w3.org/2000/svg">
<g clip-path="url(#clip0_1_15587)">
<path d="M33.7729 16.8135C33.7842 17.0484 33.7999 17.2244 33.7999 17.4005C33.8014 20.2599 33.7883 23.1193 33.8093 25.9786C33.8149 26.7496 33.5082 27.2611 32.8494 27.6406C28.2898 30.2678 23.7355 32.9041 19.1866 35.5496C18.5351 35.9286 17.9375 35.8908 17.3058 35.5228C15.074 34.223 5.88588 28.8919 3.51125 27.5481C2.79946 27.1454 2.46099 26.639 2.46488 25.7963C2.48928 20.5651 2.48655 15.3336 2.46646 10.1023C2.46358 9.34379 2.75036 8.85549 3.39533 8.48382C7.33575 6.2133 11.2662 3.92536 15.2004 1.64397C15.931 1.22032 16.6623 0.797752 17.3952 0.378136C18.1038 -0.0275838 18.7568 0.153208 19.4137 0.540064C21.177 1.57852 29.5585 6.42146 31.9723 7.82769C32.9322 8.38691 32.9477 9.15299 31.9939 9.71423C29.7681 11.024 27.5268 12.307 25.2975 13.6109C24.8829 13.8534 24.5128 13.8226 24.1096 13.5881C22.3687 12.5757 18.4813 10.3496 18.2449 10.2165C13.8049 12.7845 9.36788 15.3508 4.8372 17.9713C5.11512 18.1413 13.7275 23.1307 17.8303 25.5098C18.0893 25.66 18.306 25.7296 18.5925 25.5624C20.7388 24.3101 25.1665 21.725 25.2866 21.6263C24.7994 21.0882 22.6687 18.7916 22.0784 18.1652C21.8269 17.8983 21.5942 17.6212 21.767 17.2163C21.9366 16.8188 22.2883 16.761 22.6591 16.7608C26.2009 16.7584 29.7426 16.7583 33.2843 16.7604C33.4262 16.7606 33.568 16.7905 33.7729 16.8135Z" fill="#4AACF5"/>
</g>
<defs>
<clipPath id="clip0_1_15587">
<rect width="36" height="36" fill="white" transform="translate(0 0.00390625)"/>
</clipPath>
</defs>
</svg>
