<svg width="36" height="36" viewBox="0 0 36 36" fill="none" xmlns="http://www.w3.org/2000/svg">
<g clip-path="url(#clip0_1_15819)">
<path d="M17.9991 35.7834C27.819 35.7834 35.7795 27.8229 35.7795 18.003C35.7795 8.1832 27.819 0.222656 17.9991 0.222656C8.1793 0.222656 0.21875 8.1832 0.21875 18.003C0.21875 27.8229 8.1793 35.7834 17.9991 35.7834Z" fill="black"/>
<path d="M17.963 33.8811C26.7322 33.8811 33.8411 26.7723 33.8411 18.0031C33.8411 9.23385 26.7322 2.125 17.963 2.125C9.19381 2.125 2.08496 9.23385 2.08496 18.0031C2.08496 26.7723 9.19381 33.8811 17.963 33.8811Z" fill="#FEF102"/>
<path d="M25.4886 12.0424C25.107 11.1928 24.7542 9.51524 23.7822 9.14084C22.5294 8.65844 21.759 11.8048 21.5718 12.604H21.3846C21.0678 11.2432 20.643 9.30644 19.1526 8.88164C18.4614 11.7904 19.8798 14.9296 21.2046 17.4496C22.6158 16.7728 23.307 14.656 23.4366 13.1656H23.6238L25.1142 17.6368C26.3094 17.2912 26.727 16.1032 27.159 15.0304C28.0878 12.7192 28.8654 9.87524 28.275 7.39844C26.4894 7.89524 25.9494 10.4512 25.4886 12.0424ZM7.61098 18.004C9.20938 17.2408 9.97258 14.8216 10.2174 13.1656H10.4046C10.5918 13.9648 11.103 16.024 12.0966 16.1608C13.371 16.3264 14.0334 13.504 14.127 12.6112H14.3142C14.7174 14.0152 15.1494 15.8368 16.5462 16.5208C17.0646 14.3464 16.4454 12.0352 15.6534 10.0048C15.4518 9.47924 15.027 8.07524 14.307 8.07524C13.1262 8.07524 12.4638 11.1856 12.2622 12.0568H12.075L10.5846 7.58564C7.97098 8.82404 6.54538 15.484 7.61098 18.004ZM4.81738 20.236C6.76138 28.7176 15.7326 33.5272 23.811 29.9488C26.7486 28.6456 29.0814 26.32 30.4278 23.404C30.7734 22.648 31.4574 21.2872 31.0614 20.3008C30.6654 19.3144 26.8206 20.9272 25.863 21.3448C25.7262 21.4024 25.6326 21.532 25.611 21.676C25.5822 21.8848 25.6326 22.0936 25.7622 22.2592C25.8918 22.4248 26.0862 22.5256 26.295 22.54C27.0006 22.5976 27.9078 22.6624 27.9078 22.6624C24.9846 28.3144 17.0862 30.82 11.5206 26.2984C10.275 25.2904 9.16618 24.088 8.41738 22.6624C8.05738 21.9712 7.71898 21.0928 7.10698 20.6176C6.50938 20.164 5.61658 20.0056 4.81738 20.236Z" fill="black"/>
</g>
<defs>
<clipPath id="clip0_1_15819">
<rect width="36" height="36" fill="white" transform="translate(0 0.00390625)"/>
</clipPath>
</defs>
</svg>
