<svg width="36" height="36" viewBox="0 0 36 36" fill="none" xmlns="http://www.w3.org/2000/svg">
<g clip-path="url(#clip0_1_15584)">
<path d="M27.7294 32.5515C27.25 32.9052 26.7404 33.2085 26.2031 33.4654C26.1947 33.0888 26.2717 32.6974 26.0122 32.3643C25.8144 31.8475 25.3533 31.661 24.8886 31.5041C24.3929 31.3366 23.8726 31.2613 23.3518 31.2183C20.2453 30.9615 17.118 31.0336 14.0207 30.6283C13.8755 30.6093 13.7417 30.61 13.6303 30.7354C12.9664 31.4829 12.3213 32.242 11.998 33.2135C11.8076 33.5876 11.7797 33.987 11.8145 34.3961C11.1316 34.1865 10.4906 33.8812 9.86426 33.5424C9.99141 33.142 10.3426 32.8958 10.5484 32.5496C11.221 31.8451 11.8934 31.1407 12.5733 30.4286C12.2094 30.1702 11.8918 29.9599 11.591 29.7279C10.5989 28.9629 10.4128 28.1586 10.9211 27.0056C11.3165 26.1089 11.989 25.4383 12.6813 24.7817C13.0674 24.4154 13.4668 24.0633 13.8894 23.6782C13.7168 23.5704 13.5999 23.494 13.48 23.4228C10.236 21.5008 9.33779 17.1935 11.5636 14.1533C13.5031 11.5042 16.2134 10.8061 19.3148 11.1668C20.4436 11.298 21.4952 11.6893 22.4695 12.2836C23.1287 11.6994 23.6913 11.075 24.2349 10.4363C25.0516 9.47679 25.7989 8.46965 26.0656 7.19748C26.3559 5.81278 25.68 4.59123 24.4764 4.3105C23.4743 4.07672 22.447 4.60786 21.9217 5.61262C21.8332 5.78204 21.8438 6.0894 21.5139 6.02856C21.4187 5.91941 21.4684 5.80997 21.4887 5.7037C21.8213 3.96951 22.8629 3.08924 24.6615 3.02148C24.7512 3.0937 24.8511 3.09694 24.9562 3.06483C25.0213 3.07318 25.0866 3.08146 25.1517 3.08981C25.8046 3.2593 26.3685 3.58258 26.8393 4.06671C27.7006 5.15952 27.641 6.32196 27.0846 7.51191C26.6021 8.54403 25.8995 9.42207 25.1262 10.2487C24.4059 11.0187 23.6908 11.7937 22.8855 12.6611C24.2724 12.6336 25.534 12.7252 26.7925 12.5975C27.1674 12.5595 27.4635 12.3253 27.6959 12.0259C27.7901 11.9046 27.8641 11.7404 28.1203 11.8833C27.8131 12.7657 27.5045 13.6521 27.1883 14.5605C26.2448 14.5605 25.3502 14.5605 24.4045 14.5605C24.4848 14.7254 24.5351 14.8381 24.5932 14.9468C25.3127 16.2942 25.4429 17.7445 25.1866 19.207C24.7472 21.715 22.6911 23.702 20.0813 24.2554C18.3747 24.6173 16.6795 24.5532 14.9813 24.0864C14.3514 24.5912 13.7964 25.1464 13.5242 25.9262C13.3037 26.5576 13.5262 27.0617 14.1452 27.3116C14.3784 27.4057 14.6286 27.4684 14.8769 27.5124C15.5968 27.64 16.3268 27.6663 17.0558 27.687C19.1008 27.7453 21.1487 27.7687 23.1839 27.9932C25.2663 28.2229 26.9224 29.0791 27.6292 31.2219C27.6978 31.6624 27.7633 32.1032 27.7294 32.5515ZM21.6508 18.8081C21.6526 16.9366 21.414 15.3666 20.5594 13.9467C19.9767 12.9785 19.1822 12.2757 18.0126 12.1548C16.1226 11.9596 14.6813 13.0432 14.1971 14.9777C13.9313 16.0392 13.931 17.1192 14.0205 18.194C14.1403 19.6347 14.4983 21.0048 15.431 22.1671C17.0643 24.2026 20.1924 23.7657 21.1974 21.3579C21.5716 20.4618 21.663 19.5205 21.6508 18.8081Z" fill="#FBFCFC"/>
<path d="M10.5485 32.5489C10.3426 32.8952 9.99149 33.1413 9.86434 33.5418C8.51772 32.9402 7.34758 32.0707 6.25836 31.0968C3.35251 28.4987 1.488 25.2825 0.697657 21.466C0.319513 19.6401 0.277753 17.7915 0.476545 15.9312C0.825385 12.6674 1.99754 9.74279 4.01232 7.15965C6.52879 3.93333 9.74395 1.73776 13.7492 0.826386C20.3436 -0.674166 26.0916 0.975498 30.7921 5.82743C34.2763 9.42383 35.8458 13.8391 35.5618 18.8504C35.2365 24.5896 32.6176 29.0829 27.9806 32.4319C27.9067 32.4853 27.8136 32.5119 27.7294 32.5509C27.7633 32.1026 27.6978 31.6618 27.6293 31.2213C28.3546 30.9611 28.8402 30.3732 29.38 29.8803C30.4345 28.917 31.3031 27.7915 32.0642 26.5775C33.4613 24.3487 34.269 21.9168 34.4737 19.3122C34.6012 17.6908 34.5498 16.0519 34.1919 14.4467C33.3269 10.5668 31.3289 7.38724 28.2253 4.91311C27.8077 4.58025 27.4342 4.12816 26.8393 4.0661C26.3685 3.58197 25.8047 3.25869 25.1518 3.08927C25.1216 3.03707 25.1036 2.95521 25.0594 2.93714C24.4156 2.67347 23.7815 2.37597 23.1193 2.16897C20.8773 1.46805 18.5883 1.22138 16.2412 1.4746C14.6733 1.64373 13.1516 1.99538 11.7074 2.60205C8.52053 3.94067 5.96439 6.05157 4.0805 8.97304C2.34386 11.6662 1.5263 14.6291 1.44127 17.8018C1.41564 18.7584 1.54812 19.7185 1.70112 20.6718C2.03441 22.7479 2.78414 24.6654 3.85608 26.458C5.00707 28.3827 6.50683 30.0035 8.33693 31.2983C9.02647 31.7862 9.69096 32.3463 10.5485 32.5489Z" fill="#829FAA"/>
<path d="M26.0122 32.3633C26.2718 32.6964 26.1948 33.0877 26.2031 33.4644C25.1241 34.1475 23.9307 34.5718 22.7122 34.8959C19.1798 35.8353 15.6663 35.7596 12.1929 34.5722C12.0597 34.5267 11.9155 34.5082 11.8146 34.3951C11.7798 33.9861 11.8076 33.5867 11.9981 33.2126C12.0744 33.3256 12.196 33.3641 12.3154 33.4072C13.2955 33.7609 14.2881 34.0495 15.3269 34.196C17.2987 34.474 19.2603 34.468 21.2173 34.1003C22.909 33.7824 24.5006 33.1816 26.0122 32.3633Z" fill="#829FAA"/>
<path d="M10.5489 32.5482C9.69138 32.3455 9.02696 31.7855 8.33734 31.2976C6.50725 30.0028 5.00749 28.382 3.8565 26.4573C2.78456 24.6647 2.03482 22.7472 1.70154 20.6711C1.54846 19.7178 1.41598 18.7577 1.44169 17.8011C1.52672 14.6284 2.34435 11.6655 4.08092 8.97235C5.9648 6.05088 8.52094 3.93998 11.7077 2.60136C13.152 1.99469 14.6736 1.64304 16.2416 1.47391C18.5886 1.22069 20.8776 1.46736 23.1197 2.16828C23.7818 2.37528 24.416 2.67278 25.0598 2.93645C25.1039 2.95452 25.122 3.03646 25.1522 3.08858C25.0869 3.08023 25.0218 3.07195 24.9566 3.06367C24.8676 2.98656 24.7646 3.00449 24.6618 3.02026C22.8633 3.08801 21.8217 3.96828 21.4891 5.70247C21.4687 5.80874 21.4191 5.91818 21.5143 6.02734C21.8442 6.0881 21.8335 5.78081 21.9221 5.61139C22.4474 4.6067 23.4746 4.07549 24.4768 4.30927C25.6803 4.59007 26.3562 5.81162 26.0659 7.19626C25.7992 8.46835 25.0519 9.47549 24.2352 10.4351C23.6917 11.0738 23.1291 11.6982 22.4699 12.2823C21.4956 11.6881 20.444 11.2969 19.3152 11.1655C16.2138 10.8048 13.5034 11.5029 11.564 14.1521C9.33822 17.1923 10.2363 21.4996 13.4803 23.4216C13.6003 23.4927 13.7171 23.5691 13.8898 23.677C13.4672 24.062 13.0677 24.4142 12.6816 24.7805C11.9894 25.4371 11.3168 26.1076 10.9215 27.0043C10.4131 28.1574 10.5994 28.9617 11.5914 29.7267C11.8922 29.9587 12.2098 30.1689 12.5736 30.4274C11.8939 31.1393 11.2214 31.8437 10.5489 32.5482Z" fill="#6590A1"/>
<path d="M26.8395 4.06641C27.4344 4.12854 27.8079 4.58056 28.2255 4.91341C31.3291 7.38748 33.3271 10.5671 34.1921 14.447C34.5499 16.0522 34.6013 17.6911 34.4739 19.3125C34.2692 21.9171 33.4615 24.3489 32.0644 26.5778C31.3033 27.7918 30.4347 28.9173 29.3802 29.8806C28.8405 30.3736 28.3548 30.9614 27.6294 31.2216C26.9227 29.0788 25.2665 28.2227 23.1842 27.993C21.149 27.7685 19.1011 27.745 17.056 27.6868C16.327 27.666 15.5971 27.6397 14.8772 27.5122C14.6288 27.4682 14.3786 27.4054 14.1454 27.3113C13.5265 27.0616 13.304 26.5573 13.5244 25.926C13.7967 25.1463 14.3517 24.5909 14.9816 24.0861C16.6798 24.5529 18.3749 24.6171 20.0815 24.2552C22.6914 23.7017 24.7474 21.7148 25.1868 19.2068C25.4431 17.7442 25.3129 16.294 24.5934 14.9465C24.5354 14.838 24.4851 14.7252 24.4048 14.5603C25.3505 14.5603 26.2451 14.5603 27.1886 14.5603C27.5048 13.6519 27.8133 12.7655 28.1206 11.8831C27.8644 11.7402 27.7904 11.9044 27.6962 12.0256C27.4637 12.3251 27.1677 12.5592 26.7928 12.5973C25.5342 12.725 24.2726 12.6333 22.8857 12.6609C23.691 11.7934 24.4061 11.0185 25.1264 10.2485C25.8997 9.42184 26.6024 8.5438 27.0849 7.51168C27.6412 6.32166 27.7009 5.15922 26.8395 4.06641Z" fill="#6590A1"/>
<path d="M21.6506 18.8067C21.6627 19.5191 21.5714 20.4603 21.1973 21.3565C20.1922 23.7643 17.0641 24.2012 15.4309 22.1657C14.4982 21.0034 14.1402 19.6333 14.0203 18.1926C13.9309 17.1178 13.9312 16.0378 14.1969 14.9763C14.6812 13.0418 16.1225 11.9581 18.0124 12.1534C19.1821 12.2743 19.9767 12.9771 20.5593 13.9453C21.4138 15.3652 21.6525 16.9352 21.6506 18.8067Z" fill="#6590A1"/>
<path d="M26.0122 32.3642C24.5006 33.1824 22.909 33.7833 21.2173 34.1012C19.2603 34.4688 17.2987 34.4748 15.3269 34.1968C14.2881 34.0504 13.2954 33.7617 12.3154 33.4081C12.196 33.365 12.0744 33.3264 11.998 33.2135C12.3213 32.2419 12.9664 31.4828 13.6304 30.7353C13.7417 30.6099 13.8756 30.6092 14.0208 30.6282C17.118 31.0335 20.2454 30.9613 23.3519 31.2181C23.8727 31.2612 24.393 31.3365 24.8887 31.504C25.3533 31.6609 25.8143 31.8474 26.0122 32.3642Z" fill="#6590A1"/>
<path d="M24.6621 3.02163C24.7649 3.00586 24.8679 2.98793 24.9569 3.06504C24.8517 3.09708 24.7518 3.09384 24.6621 3.02163Z" fill="#829FAA"/>
</g>
<defs>
<clipPath id="clip0_1_15584">
<rect width="36" height="36" fill="white" transform="translate(0 0.00390625)"/>
</clipPath>
</defs>
</svg>
