<svg width="36" height="36" viewBox="0 0 36 36" fill="none" xmlns="http://www.w3.org/2000/svg">
<g clip-path="url(#clip0_1_15760)">
<path fill-rule="evenodd" clip-rule="evenodd" d="M15.9917 20.0055C11.5709 20.0055 7.99246 16.4199 7.99246 12.0063C7.99246 7.58551 11.5709 4.00711 15.9917 4.00711C20.4125 4.00711 23.9909 7.58551 23.9909 12.0063C23.9909 16.4199 20.4125 20.0055 15.9917 20.0055ZM15.9917 0.00390625C22.6157 0.00390625 27.9941 5.37511 27.9941 12.0063C27.9941 18.6375 22.6229 24.0087 15.9917 24.0087C9.36766 24.0087 3.98926 18.6375 3.98926 12.0063C3.98926 5.37511 9.36766 0.00390625 15.9917 0.00390625ZM27.4037 24.5919C28.1813 25.3695 28.1813 26.6367 27.4037 27.4215L19.4045 35.4207C18.6269 36.1983 17.3597 36.1983 16.5749 35.4207C15.7973 34.6431 15.7973 33.3759 16.5749 32.5911L24.5741 24.5919C25.3589 23.8071 26.6261 23.8071 27.4037 24.5919ZM31.9901 2.00551C31.9901 3.10711 31.0973 4.00711 29.9885 4.00711C28.8869 4.00711 27.9869 3.11431 27.9869 2.00551C27.9869 0.896706 28.8869 0.00390625 29.9957 0.00390625C31.0973 0.00390625 31.9901 0.896706 31.9901 2.00551Z" fill="black"/>
</g>
<defs>
<clipPath id="clip0_1_15760">
<rect width="36" height="36" fill="white" transform="translate(0 0.00390625)"/>
</clipPath>
</defs>
</svg>
