<svg width="36" height="36" viewBox="0 0 36 36" fill="none" xmlns="http://www.w3.org/2000/svg">
<g clip-path="url(#clip0_1_15582)">
<path d="M35.7152 0.319424C35.6859 2.45163 34.8511 4.10965 33.2943 5.40932C32.0714 6.43035 30.6366 6.9219 29.047 6.92622C25.3822 6.93622 21.7174 6.93183 18.0526 6.93234C11.5276 6.9332 6.37002 12.7272 7.13106 19.2022C7.84256 25.256 13.0363 29.5369 19.1065 29.073C24.515 28.6596 28.8543 24.0647 28.9616 18.6359C28.9733 18.0424 28.9743 17.4485 28.9892 16.855C28.9994 16.453 28.8448 16.2576 28.4128 16.259C25.0142 16.2695 21.6155 16.2537 18.217 16.2772C17.1189 16.2848 16.2505 17.2701 16.2599 18.3932C16.2692 19.5105 17.2265 20.4655 18.4084 20.4806C20.1075 20.5024 21.807 20.4879 23.5063 20.4889C23.726 20.489 23.9456 20.4889 24.2357 20.4889C24.1787 20.7052 24.1639 20.8406 24.1092 20.9574C22.9335 23.4686 20.3802 24.9255 17.4952 24.7362C14.8174 24.5605 12.4478 22.6941 11.6369 20.1217C10.2088 15.5918 13.4653 11.1548 18.2209 11.1534C23.4213 11.152 28.6216 11.1525 33.822 11.1533C35.2163 11.1535 35.7361 11.6754 35.73 13.0855C35.7212 15.0507 35.7481 17.0174 35.6804 18.9807C35.4209 26.5054 29.4933 33.599 22.1384 35.2125C16.2246 36.5099 10.8738 35.2715 6.36296 31.247C1.07643 26.5304 -0.851656 20.5262 0.878432 13.6635C2.57518 6.93298 7.1091 2.72624 13.7594 0.874472C15.236 0.46328 16.8273 0.327344 18.3686 0.309128C23.9163 0.243824 35.4157 0.3038 35.7152 0.319424Z" fill="url(#paint0_linear_1_15582)"/>
</g>
<defs>
<linearGradient id="paint0_linear_1_15582" x1="5.1583" y1="30.242" x2="19.2177" y2="16.7847" gradientUnits="userSpaceOnUse">
<stop stop-color="#FF8402"/>
<stop offset="0.9995" stop-color="#FF005A"/>
</linearGradient>
<clipPath id="clip0_1_15582">
<rect width="36" height="36" fill="white" transform="translate(0 0.00390625)"/>
</clipPath>
</defs>
</svg>
