<svg width="36" height="36" viewBox="0 0 36 36" fill="none" xmlns="http://www.w3.org/2000/svg">
<g clip-path="url(#clip0_1_15581)">
<path d="M8.45309 15.7224H4.54349C4.53629 15.672 4.53629 15.6216 4.54349 15.5712C5.06909 12.9072 5.56589 10.236 6.12029 7.57204C6.53069 5.65684 8.66189 3.96484 10.5915 3.96484C17.0715 3.96484 23.5443 3.96484 30.0243 3.96484H30.3483L29.5851 7.88884H11.2251C10.3323 7.88884 9.90029 8.24164 9.73469 9.12724L8.53229 15.3048L8.45309 15.7224Z" fill="black"/>
<path d="M27.3021 19.6738H31.2117C31.1973 19.7746 31.1973 19.861 31.1829 19.9474C30.6717 22.5538 30.1893 25.1674 29.6421 27.7738C29.2317 29.725 27.1149 31.4242 25.1709 31.4242C18.6693 31.4314 12.1677 31.4314 5.67326 31.4242H5.41406L6.17726 27.5074H24.5157C25.4373 27.5074 25.8477 27.1618 26.0277 26.2474C26.4237 24.1882 26.8269 22.129 27.2301 20.0698L27.3021 19.6738Z" fill="black"/>
<path d="M23.3712 19.6738L22.608 23.5906H6.9264L6.1704 27.4642L0 19.6738H23.3712Z" fill="black"/>
<path d="M35.7622 15.7214H12.3838L13.147 11.8046H28.8286L29.5846 7.92383L35.7622 15.7214Z" fill="black"/>
</g>
<defs>
<clipPath id="clip0_1_15581">
<rect width="36" height="36" fill="white" transform="translate(0 0.00390625)"/>
</clipPath>
</defs>
</svg>
