<svg width="36" height="36" viewBox="0 0 36 36" fill="none" xmlns="http://www.w3.org/2000/svg">
<g clip-path="url(#clip0_1_15869)">
<path d="M34.567 9.65243L23.8318 15.2972V21.842L27.5254 19.8764V23.6708L17.1214 29.6684L8.76222 24.8444C7.49502 24.1172 6.71742 22.7636 6.71742 21.302V11.6468L15.343 6.66443C16.4446 6.03083 17.791 6.03083 18.8926 6.66443L27.5182 11.6468L32.803 8.59403L19.3606 0.839634C17.971 0.0404344 16.2646 0.0404344 14.875 0.839634L1.43262 8.60123V24.3476C1.43262 25.8164 2.21742 27.1628 3.48462 27.8972L17.1214 35.7668L30.7366 27.9044C32.0182 27.1628 32.803 25.802 32.803 24.3188V17.0612L34.5598 16.1252L34.567 9.65243Z" fill="#D35756"/>
</g>
<defs>
<clipPath id="clip0_1_15869">
<rect width="36" height="36" fill="white" transform="translate(0 0.00390625)"/>
</clipPath>
</defs>
</svg>
