<svg width="36" height="36" viewBox="0 0 36 36" fill="none" xmlns="http://www.w3.org/2000/svg">
<g clip-path="url(#clip0_1_15579)">
<path d="M18.4731 18.0318C18.4731 23.1199 18.4764 28.2081 18.4713 33.2962C18.4694 35.1454 17.8275 35.7952 16.0035 35.7978C12.3234 35.8033 8.64332 35.8047 4.96326 35.7957C3.11027 35.7912 2.26139 34.6816 3.09831 33.0568C4.44032 30.4514 4.64682 27.7335 4.60326 24.8799C4.51347 18.9932 4.57511 13.104 4.58828 7.21591C4.59764 3.0299 7.39117 0.23234 11.5518 0.21866C13.0238 0.213836 14.4958 0.213764 15.9679 0.217436C17.8596 0.222188 18.4544 0.80078 18.4565 2.67141C18.4623 7.79155 18.4585 12.9117 18.4585 18.0317C18.4633 18.0318 18.4682 18.0318 18.4731 18.0318Z" fill="url(#paint0_linear_1_15579)"/>
<path d="M21.1124 26.2609C21.1124 23.8921 21.1021 21.5232 21.1161 19.1545C21.125 17.6376 21.6302 17.1299 23.1395 17.1247C25.9564 17.1148 28.7735 17.1113 31.5903 17.136C33.02 17.1485 33.9068 18.176 33.2757 19.4077C31.9348 22.0249 32.3422 24.7719 32.2779 27.4962C32.256 28.424 32.2952 29.3534 32.2681 30.2809C32.1767 33.418 29.7849 35.7498 26.639 35.7776C25.4868 35.7877 24.3333 35.8053 23.1822 35.7669C21.812 35.7213 21.1233 35.0178 21.1127 33.6554C21.0936 31.1907 21.1073 28.7257 21.1073 26.2609C21.109 26.2609 21.1107 26.2609 21.1124 26.2609Z" fill="url(#paint1_linear_1_15579)"/>
<path d="M21.1022 7.53891C21.1022 5.81185 21.0863 4.08464 21.1071 2.35779C21.1245 0.910519 21.7964 0.241135 23.229 0.220255C24.4441 0.202543 25.66 0.197215 26.8749 0.221407C29.8047 0.279655 32.2021 2.59906 32.2721 5.51701C32.3311 7.97826 32.3023 10.4421 32.2857 12.9046C32.2776 14.0929 31.7286 14.8448 30.527 14.8997C28.0076 15.0149 25.4779 15.0343 22.9577 14.9455C21.6827 14.9006 21.1163 14.1203 21.099 12.8159C21.0757 11.0572 21.0933 9.29794 21.0933 7.53891C21.0962 7.53891 21.0992 7.53891 21.1022 7.53891Z" fill="url(#paint2_linear_1_15579)"/>
</g>
<defs>
<linearGradient id="paint0_linear_1_15579" x1="10.6248" y1="0.37282" x2="10.6248" y2="35.7453" gradientUnits="userSpaceOnUse">
<stop stop-color="#FDD900"/>
<stop offset="1" stop-color="#F36E1F"/>
</linearGradient>
<linearGradient id="paint1_linear_1_15579" x1="27.2924" y1="17.1906" x2="27.2924" y2="35.3817" gradientUnits="userSpaceOnUse">
<stop stop-color="#38E8DC"/>
<stop offset="1" stop-color="#48A9F2"/>
</linearGradient>
<linearGradient id="paint2_linear_1_15579" x1="26.6972" y1="0.309679" x2="26.6972" y2="14.9591" gradientUnits="userSpaceOnUse">
<stop stop-color="#D27DFF"/>
<stop offset="1" stop-color="#9453FF"/>
</linearGradient>
<clipPath id="clip0_1_15579">
<rect width="36" height="36" fill="white" transform="translate(0 0.00390625)"/>
</clipPath>
</defs>
</svg>
