<svg width="36" height="36" viewBox="0 0 36 36" fill="none" xmlns="http://www.w3.org/2000/svg">
<g clip-path="url(#clip0_1_15577)">
<path d="M18.0004 35.5966C27.7169 35.5966 35.5937 27.7198 35.5937 18.0034C35.5937 8.28691 27.7169 0.410156 18.0004 0.410156C8.28398 0.410156 0.407227 8.28691 0.407227 18.0034C0.407227 27.7198 8.28398 35.5966 18.0004 35.5966Z" fill="#7F27FF"/>
<path d="M17.4139 15.6582H9.79018V23.2819C9.77429 24.8854 11.0613 26.1982 12.6648 26.2141C12.684 26.2143 12.7032 26.2143 12.7224 26.2141H17.4139L17.4139 15.6582ZM18.5868 15.6582H26.2105V23.2819C26.2264 24.8854 24.9394 26.1982 23.3359 26.2141C23.3167 26.2143 23.2975 26.2143 23.2783 26.2141H18.5868V15.6582Z" fill="white"/>
<path d="M18.5866 14.4848H25.9784C26.7967 14.4848 27.3859 13.7811 27.3859 13.0774C27.3859 12.2591 26.6822 11.6699 25.9784 11.6699H10.1418C9.32354 11.6699 8.73438 12.3736 8.73438 13.0774C8.73438 13.8957 9.4381 14.4848 10.1418 14.4848H17.4137V12.6082H18.5866" fill="white"/>
<path d="M18.8184 12.1397C20.4604 9.20747 21.7506 8.26917 22.6889 9.20747C23.6272 10.1458 23.0407 11.0841 21.0468 12.1397" stroke="white" stroke-width="0.24768"/>
<path d="M17.182 12.1397C15.54 9.20747 14.2498 8.26917 13.3115 9.20747C12.3732 10.1458 12.9597 11.0841 14.9536 12.1397" stroke="white" stroke-width="0.24768"/>
</g>
<defs>
<clipPath id="clip0_1_15577">
<rect width="36" height="36" fill="white" transform="translate(0 0.00390625)"/>
</clipPath>
</defs>
</svg>
