<svg width="36" height="36" viewBox="0 0 36 36" fill="none" xmlns="http://www.w3.org/2000/svg">
<g clip-path="url(#clip0_1_15675)">
<path d="M23.5006 3.04138C26.0278 3.04138 28.4038 4.02778 30.1966 5.81338C31.9822 7.59898 32.9686 9.97498 32.9686 12.5094C32.9686 15.0366 31.9822 17.4126 30.1966 19.2054C28.411 20.991 26.035 21.9774 23.5006 21.9774H14.0326V12.5022C14.0326 9.97498 15.019 7.59898 16.8046 5.80618C18.5902 4.02058 20.9662 3.04138 23.5006 3.04138ZM23.5006 0.175781C16.6894 0.175781 11.1742 5.69818 11.1742 12.5022V22.2654H2.95898V24.8286H11.1742H11.4262H23.5078C30.319 24.8286 35.8342 19.3062 35.8342 12.5022C35.827 5.69818 30.3046 0.175781 23.5006 0.175781Z" fill="#55C8E6"/>
<path d="M22.003 14.0648V23.5328C22.003 26.06 21.0166 28.436 19.231 30.2288C17.4454 32.0144 15.0694 33.0008 12.535 33.0008C10.0078 33.0008 7.63182 32.0144 5.83902 30.2288C4.05342 28.4432 3.06702 26.0672 3.06702 23.5328C3.06702 21.0056 4.05342 18.6296 5.83902 16.8368C7.62462 15.0512 10.0006 14.0648 12.535 14.0648H22.003ZM33.0694 11.1992H24.8686H24.6022H12.5422C5.73102 11.1992 0.21582 16.7216 0.21582 23.5328C0.21582 30.3368 5.73102 35.8592 12.5422 35.8592C19.3534 35.8592 24.8686 30.3368 24.8686 23.5328V13.7624H33.0694V11.1992Z" fill="#55C8E6"/>
</g>
<defs>
<clipPath id="clip0_1_15675">
<rect width="36" height="36" fill="white" transform="translate(0 0.00390625)"/>
</clipPath>
</defs>
</svg>
