<svg width="36" height="36" viewBox="0 0 36 36" fill="none" xmlns="http://www.w3.org/2000/svg">
<path d="M25.1288 14.1053C26.2895 14.1053 27.3432 14.1053 28.4024 14.1053C27.3627 18.2926 22.6588 22.0249 17.3932 21.6671C10.7445 21.2154 5.94126 15.1732 7.16403 8.49027C16.5158 8.49027 25.8763 8.49027 35.3332 8.49027C35.5904 10.6034 35.4834 12.7029 34.9604 14.7759C34.0358 18.4413 32.1313 21.5174 29.2414 23.949C22.6923 29.4596 13.6728 29.2807 7.4228 24.449C1.54206 19.9028 -0.0274724 12.977 0.825079 8.4668C1.8019 8.4668 2.78334 8.4668 3.83684 8.4668C3.29295 14.1922 5.18605 18.8793 9.86057 22.302C12.5121 24.2435 15.5518 25.1033 18.8127 24.8868C27.2107 24.3292 32.0208 17.3921 32.1927 11.737C24.8776 11.737 17.5639 11.737 10.2494 11.737C10.4477 14.4504 12.8495 17.3283 15.6677 18.1494C17.5066 18.6852 19.3518 18.6315 21.1302 17.8683C22.9117 17.1039 24.2326 15.8182 25.1288 14.1053Z" fill="#00BEB1"/>
</svg>
