<svg width="36" height="36" viewBox="0 0 36 36" fill="none" xmlns="http://www.w3.org/2000/svg">
<g clip-path="url(#clip0_1_15573)">
<path d="M6.79685 0.764695C6.99269 0.764695 7.18868 0.768946 7.38445 0.763978C8.33009 0.73993 9.16004 1.07163 9.96795 1.53466C10.5944 1.89366 11.0834 2.39578 11.5817 2.89244C13.6466 4.9507 15.7038 7.01689 17.7639 9.08005C18.0154 9.3319 18.0937 9.33298 18.3519 9.07443C20.2899 7.13497 22.2232 5.19075 24.1671 3.25712C24.6673 2.75953 25.1643 2.24689 25.7261 1.82554C26.5599 1.20022 27.4926 0.76664 28.573 0.768584C29.03 0.769376 29.4872 0.773266 29.944 0.763978C30.8693 0.745258 31.68 1.0779 32.461 1.53747C33.5554 2.18137 34.3484 3.09152 34.8963 4.22293C35.1192 4.68322 35.3144 5.16051 35.32 5.68417C35.3281 6.44514 35.376 7.211 35.3096 7.96621C35.2015 9.19589 34.5983 10.2206 33.7472 11.0811C31.516 13.337 29.2618 15.57 27.0171 17.8124C26.7981 18.0312 26.8043 18.1242 27.0281 18.3485C29.3479 20.6745 31.6903 22.9787 33.9733 25.3402C34.8108 26.2065 35.3173 27.2883 35.3252 28.5422C35.3281 28.9992 35.3269 29.4562 35.3298 29.9131C35.34 31.5044 34.5886 32.7392 33.4956 33.8088C32.848 34.4426 32.0756 34.882 31.2183 35.1602C30.9331 35.2527 30.6225 35.2877 30.321 35.3045C29.8218 35.3324 29.3205 35.3189 28.8203 35.3323C27.3357 35.372 26.1118 34.7691 25.0853 33.7553C22.825 31.523 20.5869 29.2681 18.3401 27.0222C18.1382 26.8203 18.0116 26.8104 17.8168 27.0047C16.3163 28.5015 14.8223 30.0047 13.3168 31.4965C12.3831 32.4218 11.472 33.3757 10.4776 34.2319C9.74036 34.8668 8.84576 35.2761 7.83725 35.3094C7.16348 35.3316 6.48805 35.3342 5.8142 35.3163C5.00895 35.2948 4.30198 34.9728 3.62079 34.5634C2.89035 34.1245 2.27734 33.5615 1.79645 32.8679C1.17423 31.9704 0.725021 31.0043 0.779669 29.8685C0.799541 29.456 0.79472 29.0413 0.780464 28.6283C0.749144 27.7208 1.10525 26.9394 1.53099 26.1709C1.95053 25.4137 2.58795 24.8491 3.18288 24.2479C4.88172 22.5311 6.59165 20.8252 8.29107 19.109C8.44141 18.9572 8.57324 18.9528 8.71342 19.0783C8.93165 19.2736 9.13815 19.4823 9.34652 19.6885C9.90286 20.239 10.457 20.7916 11.0132 21.3422C11.1935 21.5208 11.0814 21.6466 10.9476 21.7798C10.3153 22.4087 9.68614 23.0407 9.05506 23.6709C7.74668 24.9774 6.4321 26.2778 5.13085 27.5913C3.94602 28.7873 4.22134 30.8174 5.86266 31.5296C6.74394 31.912 7.75546 31.7966 8.57439 30.9825C10.0775 29.4883 11.5689 27.9824 13.0657 26.4819C13.741 25.8049 14.4159 25.1275 15.0936 24.453C15.4077 24.1404 15.4082 24.1029 15.0857 23.7806C12.7544 21.4504 10.4241 19.1192 8.09321 16.7887C6.20069 14.8966 4.31141 13.0011 2.41277 11.1151C1.66109 10.3684 1.17207 9.47504 0.870174 8.47222C0.808326 8.26681 0.785789 8.04418 0.779669 7.82854C0.763829 7.274 0.768367 6.71888 0.762895 6.16405C0.750655 4.91247 1.30354 3.88683 2.04162 2.93031C2.5423 2.28145 3.17518 1.78868 3.87884 1.3934C4.69834 0.932963 5.58445 0.696801 6.53585 0.762897C6.62247 0.768945 6.70988 0.763688 6.797 0.763688C6.79685 0.764048 6.79685 0.764335 6.79685 0.764695ZM29.3518 4.45549C28.7439 4.41222 28.2094 4.60381 27.7656 5.0073C27.2997 5.4308 26.8572 5.88037 26.4112 6.32526C24.4176 8.31368 22.4259 10.3042 20.4342 12.2946C18.5807 14.147 16.7286 16.0008 14.8737 17.8517C14.7059 18.0192 14.7147 18.1441 14.8871 18.314C15.8624 19.2752 16.8273 20.247 17.7956 21.2153C18.022 21.4417 18.1077 21.4394 18.3295 21.2174C19.0207 20.5255 19.7126 19.8343 20.4082 19.1467C20.6587 18.899 20.6781 18.899 20.9312 19.1507C21.6481 19.8637 22.3556 20.5862 23.078 21.2935C23.2543 21.4661 23.2476 21.5802 23.0776 21.7469C22.4569 22.3558 21.8449 22.9738 21.2329 23.5918C20.6646 24.1658 20.6223 24.0453 21.231 24.6562C23.0492 26.4809 24.8659 28.3071 26.6952 30.1207C27.1633 30.5848 27.5707 31.1225 28.1755 31.4356C29.403 32.0712 31.0226 31.6319 31.5523 30.1894C31.9123 29.2089 31.6968 28.2829 30.9292 27.5195C29.3031 25.9023 27.6825 24.2798 26.0598 22.6593C24.0604 20.6625 22.0611 18.6657 20.0624 16.6683C19.7396 16.3458 19.4157 16.0242 19.101 15.694C18.979 15.566 18.8776 15.4338 19.0648 15.2508C19.8038 14.5285 20.5301 13.7932 21.2637 13.0653C21.4738 12.8569 21.5397 12.8573 21.7487 13.0657C22.442 13.7569 23.1336 14.4499 23.8235 15.1445C24.054 15.3767 24.1618 15.3821 24.3899 15.1539C26.5635 12.9783 28.7369 10.8024 30.9104 8.62673C31.2872 8.2496 31.5549 7.81911 31.6519 7.28113C31.9418 5.672 30.6827 4.39436 29.3518 4.45549ZM4.44375 6.83991C4.37722 7.53342 4.79561 8.21036 5.17498 8.58872C6.61261 10.0222 8.0444 11.4616 9.47864 12.8986C10.2379 13.6592 10.9962 14.4209 11.7582 15.1787C11.9568 15.3762 12.0606 15.3746 12.2506 15.1846C13.2194 14.2163 14.1872 13.2469 15.1536 12.2761C15.3643 12.0644 15.3644 11.9688 15.1574 11.7599C14.7755 11.3742 14.3905 10.9916 14.0063 10.6081C12.1934 8.79817 10.3809 6.98773 8.56712 5.17873C7.81234 4.42597 6.91033 4.27196 6.01472 4.57033C5.01536 4.90326 4.37384 5.85747 4.44375 6.83991Z" fill="#639BF8"/>
</g>
<defs>
<clipPath id="clip0_1_15573">
<rect width="36" height="36" fill="white" transform="translate(0 0.00390625)"/>
</clipPath>
</defs>
</svg>
