<svg width="36" height="36" viewBox="0 0 36 36" fill="none" xmlns="http://www.w3.org/2000/svg">
<g clip-path="url(#clip0_1_15570)">
<path d="M18 0.00390625C27.9432 0.00390625 36 8.06071 36 18.0039C36 27.9471 27.9432 36.0039 18 36.0039C8.0568 36.0039 0 27.9471 0 18.0039C0 8.06071 8.0568 0.00390625 18 0.00390625Z" fill="white"/>
<path fill-rule="evenodd" clip-rule="evenodd" d="M31.8453 13.6835C31.8237 13.7411 31.8021 13.8059 31.7733 13.8635C31.7589 13.9355 31.7301 14.0363 31.6869 14.1587L31.5861 14.4179L31.4565 14.7275L31.2333 15.2243L30.9597 15.7859L30.6573 16.3907L30.3261 17.0315L29.9805 17.6867L29.6205 18.3419L29.2605 18.9755L28.9077 19.5803L28.5765 20.1347L28.2669 20.6243L28.1445 20.8043L27.9285 21.1139C27.8277 21.2507 27.7341 21.3659 27.6549 21.4523L27.5685 21.5315L26.3949 22.5323L32.1549 25.4195C29.3685 30.3155 24.0981 33.6203 18.0501 33.6203C11.9229 33.6203 6.58768 30.2219 3.83008 25.2107L9.47488 22.5179L8.92768 22.0715L8.26528 21.5243C8.15728 21.4307 8.01328 21.2507 7.84768 20.9987L7.63168 20.6675L7.35088 20.2139L7.20688 19.9619L6.89728 19.4219L6.58048 18.8387L6.25648 18.2267L5.93968 17.6003L5.63008 16.9739L5.33488 16.3691L5.06848 15.7859L4.83088 15.2531L4.62928 14.7707L4.47088 14.3603L4.39168 14.1371L4.36288 14.0363C4.31968 13.9787 4.29088 13.9211 4.25488 13.8635C5.28448 14.5619 7.33648 15.2459 10.0149 15.7283L10.8357 15.8651C11.2533 15.9299 11.6925 15.9947 12.1389 16.0451L13.0461 16.1459C13.9677 16.2395 14.9325 16.3115 15.9405 16.3547L16.4949 16.3763L17.0565 16.3907L17.9277 16.3979L18.7989 16.3907L19.2237 16.3835L19.7853 16.3691C21.0885 16.3187 22.3341 16.2179 23.5005 16.0811L24.3573 15.9731C27.5901 15.5267 30.1173 14.7779 31.4061 13.9931L31.5861 13.8779L31.7445 13.7627L31.8453 13.6835ZM10.4397 17.4635L10.7925 18.7307C11.0229 19.4795 11.2893 20.1851 11.6061 20.9051L11.8509 21.4451L12.4269 22.5827C12.4917 22.7195 12.5853 22.8347 12.7005 22.9427L12.8229 23.0507L13.3125 23.4107C14.1477 23.9723 15.0693 24.3683 16.1565 24.6635L16.5741 24.7715L17.7261 24.9947L17.9421 25.0163H18.1077L18.3237 24.9947L19.5117 24.7643C20.6133 24.4979 21.5637 24.1307 22.4493 23.5979L22.7733 23.3891L23.2413 23.0435C23.3637 22.9571 23.4645 22.8419 23.5437 22.7195L23.6229 22.5899L24.2133 21.4235C24.5445 20.7179 24.8325 20.0123 25.0845 19.2707L25.2717 18.7019L25.5957 17.5211C24.8901 18.8675 23.4861 19.8179 21.7941 19.9835L21.5637 19.9979L21.3117 19.9691C20.0517 19.7963 18.9429 19.1195 18.2445 18.1403L18.1077 17.9387L18.0357 17.8163L17.8917 18.0323C17.2077 19.0187 16.1133 19.7099 14.8245 19.9331L14.5653 19.9691L14.3277 19.9907L14.1045 19.9763C12.4773 19.8035 11.1093 18.8243 10.4397 17.4635ZM18.0213 3.60352C19.0509 3.60352 20.4117 4.40992 22.4277 6.01552L22.7373 6.26032L23.6157 6.98032L25.9557 8.96032L27.6333 9.40672L28.4181 9.62992L28.8645 9.75952L29.2245 9.87472L29.7069 10.0331L29.9949 10.1339L30.2469 10.2347C31.3629 10.6883 31.9245 11.1707 31.9245 11.8115L31.9173 11.9411L31.8885 12.0707L31.7949 12.1427L31.6365 12.2651C29.9013 13.4963 25.3581 14.6843 19.7565 14.9003L19.2309 14.9147L18.8061 14.9219L17.9349 14.9291L17.0637 14.9219L16.5021 14.9075C10.7133 14.7275 5.99008 13.5035 4.22608 12.2435C4.15408 12.0995 4.12528 11.9483 4.12528 11.7971C4.12528 11.0915 4.72288 10.5155 6.01888 10.0115C5.81008 9.79552 5.71648 9.59392 5.46448 9.42832C5.85328 8.98192 6.58048 8.61472 7.07728 8.54272C7.66768 8.44192 8.12848 8.50672 8.53888 8.59312L8.94208 8.67232C9.07168 8.69392 9.20848 8.71552 9.33808 8.72992C8.81968 8.50672 7.82608 7.54192 7.48048 7.10272C7.06288 6.16672 7.35808 5.36032 7.61728 4.90672L7.67488 4.82032L7.76128 4.68352L7.86928 4.53952L7.93408 4.53232L8.12848 4.52512L8.40928 4.53232C8.82688 4.54672 9.35968 4.62592 9.57568 4.86352C10.0725 5.56912 10.2453 6.28912 10.3677 6.88672L10.4397 7.26832C10.4973 7.57072 10.5549 7.82272 10.6557 8.00272C10.6989 7.85152 10.7349 7.70752 10.7637 7.56352L10.8501 7.13152C10.9293 6.77152 11.0301 6.39712 11.2749 5.95792C11.7069 5.17312 13.2261 4.09312 14.2989 4.30912C14.3133 4.41712 14.3349 4.51072 14.3565 4.59712L14.4285 4.84192C14.4717 5.00032 14.4861 5.15872 14.4285 5.39632L14.9685 5.00032C16.2645 4.07152 17.2437 3.60352 18.0213 3.60352Z" fill="#2DA287"/>
</g>
<defs>
<clipPath id="clip0_1_15570">
<rect width="36" height="36" fill="white" transform="translate(0 0.00390625)"/>
</clipPath>
</defs>
</svg>
