<svg width="36" height="36" viewBox="0 0 36 36" fill="none" xmlns="http://www.w3.org/2000/svg">
<path d="M5.42869 8.52152C7.17829 8.52152 8.94949 8.52152 10.7495 8.52152C10.7495 7.82312 10.7495 7.14632 10.7495 6.46952C10.7495 6.31832 10.5119 5.59112 10.4255 5.47592C10.2455 5.23112 9.99349 5.09432 9.68389 5.06552C9.68389 4.74872 9.68389 4.13672 9.68389 4.13672H16.4303C16.4303 4.13672 16.4303 4.74872 16.4303 5.05832C15.9263 5.16632 15.5591 5.56952 15.4871 6.09512C15.4367 6.49112 15.4583 8.52152 15.4583 8.52152C15.4583 8.52152 19.5263 8.52152 21.6215 8.52152C21.6215 7.78712 21.6647 7.05272 21.6071 6.32552C21.5711 5.85032 21.3839 5.38232 20.8727 5.09432C20.8151 5.09432 20.6927 5.08712 20.5631 5.07992C20.5631 4.77032 20.5631 4.14392 20.5631 4.14392H27.4319C27.4319 4.14392 27.4319 4.67672 27.4319 4.95752C27.3671 5.00072 27.2951 5.07992 27.2231 5.08712C26.8919 5.10872 26.6975 5.31752 26.5895 5.59112C26.4671 5.90792 26.3591 6.21752 26.3591 6.57752C26.3663 11.9775 26.3591 23.4975 26.3591 23.4975C26.3591 23.4975 27.7919 23.4975 28.4759 23.4975C28.8791 22.7919 29.2823 22.1007 29.7071 21.3663C29.7071 21.0855 29.7071 20.4447 29.7071 20.4447L35.8271 20.4015L35.8343 21.4239C35.8343 21.4239 35.4599 21.5319 35.2223 21.6039C35.1287 21.6975 35.0135 21.8343 34.8767 21.9495C34.6103 22.1799 34.4447 22.4751 34.2647 22.7703C33.8975 23.3895 31.7447 27.1983 31.7159 27.2775C26.2871 27.2775 15.3935 27.2775 15.3935 27.2775C15.3935 27.2775 15.3863 28.4367 15.3935 29.0055C15.3935 29.2503 15.6671 30.0423 15.8255 30.2223C16.0775 30.5103 16.4231 30.6543 16.7975 30.7191C16.8839 30.7335 16.9847 30.7047 17.0639 30.7335C17.1575 30.7623 17.2367 30.8343 17.3303 30.8847C17.3303 31.1295 17.3303 31.3815 17.3303 31.6479C17.2871 31.6839 17.2295 31.7271 17.1575 31.7919C14.4431 31.7919 11.7071 31.7919 8.94949 31.7919C8.94949 31.4823 8.94949 31.1799 8.94949 30.8703C8.99269 30.8271 9.04309 30.7767 9.10069 30.7191C9.64789 30.8055 10.1087 30.5823 10.4039 30.1431C10.6199 29.8191 10.7711 29.4375 10.7711 29.0055C10.7567 26.3703 10.7639 23.7279 10.7639 21.0927C10.7639 18.5295 10.7639 13.0431 10.7639 12.8559C12.3191 12.8559 13.8383 12.8559 15.3719 12.8559C15.3719 13.9143 15.3719 16.0167 15.3719 16.0167L21.6215 16.0527C21.6215 16.0527 21.6215 13.5903 21.6215 12.3303C17.3159 12.3303 12.9959 12.3303 8.62549 12.3303C8.59669 12.3879 6.01189 16.8591 5.63029 17.4927C5.47909 17.7447 5.42869 17.9895 5.59429 18.2487C5.83189 18.6303 8.36629 23.1231 8.66149 23.5119C9.17269 23.5119 9.69109 23.5119 10.2167 23.5119C10.2167 24.7647 10.2167 25.9959 10.2167 27.2487C8.62549 27.2487 7.03429 27.2487 5.41429 27.2487C5.14789 27.0111 0.316689 18.4359 0.194289 18.2415C0.0214886 17.9751 0.0790886 17.7303 0.237489 17.4855C0.619089 16.8951 5.28469 8.77352 5.42869 8.52152ZM21.6143 19.7463C19.5695 19.7463 17.5391 19.7463 15.5231 19.7463C15.4655 19.8039 15.4295 19.8399 15.3935 19.8759C15.3935 21.0711 15.3935 22.2663 15.3935 23.4759C17.4743 23.4759 19.5479 23.4759 21.6143 23.4759C21.6143 22.2303 21.6143 20.9991 21.6143 19.7463Z" fill="#5C4D94"/>
<path d="M26.8129 8.67196C26.8705 8.61436 26.9065 8.57836 26.9497 8.53516C28.4833 8.53516 30.0241 8.53516 31.6225 8.53516C31.7089 8.65756 31.8169 8.80156 31.9105 8.95996C32.3209 9.65116 32.7241 10.3496 33.1129 11.048C33.4297 11.6168 33.7897 12.164 34.0849 12.74C34.2649 13.1 34.4593 13.46 34.6969 13.7768C34.9129 14.0576 35.2297 14.2448 35.5825 14.3456C35.6617 14.3672 35.7337 14.4104 35.8201 14.4536C35.8201 14.7632 35.8201 15.368 35.8201 15.368L29.7001 15.4112C29.7001 15.4112 29.7001 15.0656 29.7001 14.8928C29.7001 14.7344 29.7001 14.5688 29.7001 14.4896C29.2609 13.7336 28.8649 13.0352 28.4401 12.308C27.9721 12.308 27.4537 12.308 26.9569 12.308C26.8993 12.2504 26.8633 12.2144 26.8057 12.1568C26.8129 11.012 26.8129 9.85276 26.8129 8.67196Z" fill="#5C4D94"/>
<path d="M28.1806 30.8267C28.1806 31.1651 28.1806 31.4603 28.1806 31.7771C25.387 31.7771 22.6006 31.7771 19.7998 31.7771C19.7998 31.4603 19.7998 31.1651 19.7998 30.8627C20.0086 30.6971 20.2462 30.7043 20.4622 30.7115C20.6638 30.5963 20.851 30.5171 21.0094 30.4019C21.4342 30.0995 21.5782 29.6387 21.6142 29.1491C21.643 28.7243 21.6214 28.2923 21.6214 27.8603C21.6358 27.8459 21.643 27.8315 21.6574 27.8243C21.6718 27.8171 21.6862 27.8027 21.7006 27.8027C23.2054 27.8027 24.703 27.8027 26.2006 27.8027C26.251 27.8531 26.287 27.8891 26.359 27.9611C26.359 28.2923 26.3734 28.6667 26.359 29.0411C26.3302 29.6963 26.647 30.1715 27.1294 30.5459C27.2662 30.6539 27.475 30.6611 27.6478 30.7115C27.8278 30.7547 28.0078 30.7907 28.1806 30.8267Z" fill="#5C4D94"/>
</svg>
