<svg width="36" height="36" viewBox="0 0 36 36" fill="none" xmlns="http://www.w3.org/2000/svg">
<g clip-path="url(#clip0_1_15629)">
<path d="M18.0991 31.6362C22.0208 29.3724 25.9005 27.1327 29.8081 24.8771C29.8081 20.3194 29.8081 15.7607 29.8081 11.1242C28.3907 10.3027 26.9373 9.46055 25.343 8.53665C25.343 13.5975 25.343 18.533 25.343 23.4623C24.0752 24.1932 22.8954 24.8733 21.5984 25.621C21.5984 23.5159 21.5984 21.5311 21.5984 19.4904C19.2351 19.4904 16.9567 19.4904 14.6178 19.4904C14.6178 24.2698 14.6178 29.0109 14.6178 33.8429C14.3775 33.7514 14.2085 33.7116 14.0644 33.6286C10.4776 31.5618 6.89823 29.4822 3.30392 27.4287C2.75412 27.1145 2.54122 26.7259 2.54338 26.0949C2.56152 20.7126 2.5616 15.3302 2.54201 9.94799C2.53964 9.29027 2.75103 8.88282 3.33315 8.54954C8.00112 5.87747 12.6571 3.18424 17.3063 0.479344C17.8478 0.164344 18.3213 0.10984 18.8461 0.468472C19.1919 0.704848 19.5633 0.903784 19.9392 1.12907C19.9392 2.51277 19.9392 3.87652 19.9392 5.37203C19.2899 5.02204 18.7037 4.70603 18.0647 4.36158C14.1689 6.61079 10.2464 8.87541 6.30394 11.1515C6.30394 15.7065 6.30394 20.2358 6.30394 24.8405C7.74624 25.6731 9.21836 26.5228 10.794 27.4323C10.794 22.3612 10.794 17.4164 10.794 12.4054C12.013 11.6982 13.2128 11.0021 14.5434 10.2302C14.5434 12.0955 14.5434 13.84 14.5434 15.6514C16.9183 15.6514 19.1935 15.6514 21.5643 15.6514C21.5643 11.1719 21.5643 6.68315 21.5643 2.05211C23.1743 2.98062 24.6519 3.83217 26.129 4.68486C28.3668 5.97669 30.5959 7.28399 32.8475 8.55126C33.4277 8.87786 33.6491 9.28617 33.6467 9.94655C33.6274 15.2761 33.6223 20.6057 33.6506 25.9351C33.6546 26.6979 33.3846 27.1387 32.7343 27.5104C28.2017 30.101 23.6768 32.7056 19.174 35.3476C18.3918 35.8067 17.733 35.9076 17.0044 35.3356C16.7596 35.1433 16.4732 35.004 16.1915 34.8317C16.1915 33.4417 16.1915 32.0765 16.1915 30.5774C16.8578 30.9474 17.4449 31.2731 18.0991 31.6362Z" fill="black"/>
</g>
<defs>
<clipPath id="clip0_1_15629">
<rect width="36" height="36" fill="white" transform="translate(0 0.00390625)"/>
</clipPath>
</defs>
</svg>
