<svg width="36" height="36" viewBox="0 0 36 36" fill="none" xmlns="http://www.w3.org/2000/svg">
<path d="M35.5537 17.0675L27.4177 3.02748C27.1441 2.55948 26.6473 2.27148 26.1073 2.27148H9.82091C9.28091 2.27148 8.77691 2.55948 8.51051 3.02748L0.367309 17.0675C0.0937094 17.5355 0.0937094 18.1187 0.367309 18.5939L2.24651 21.8411L7.63211 12.3587C7.83371 11.9987 8.21531 11.7827 8.62571 11.7827H20.7145C21.1249 11.7827 21.5065 12.0059 21.7081 12.3587L27.7705 23.0219C27.9721 23.3747 27.9721 23.7995 27.7705 24.1523L22.5217 33.3899H26.1073C26.6473 33.3899 27.1513 33.1019 27.4177 32.6339L35.5537 18.5939C35.8273 18.1259 35.8273 17.5427 35.5537 17.0675Z" fill="url(#paint0_linear_1_15563)"/>
<path d="M26.0783 22.9282L20.8223 13.957C20.6495 13.6546 20.3255 13.4746 19.9799 13.4746H9.44629C9.10069 13.4746 8.77669 13.6618 8.60389 13.957L3.34789 22.9282C3.16789 23.2306 3.16789 23.6122 3.34789 23.9146L4.96069 26.6722L7.84069 21.733C7.96309 21.5314 8.17909 21.4018 8.41669 21.4018H15.5519C15.7895 21.4018 16.0055 21.5242 16.1279 21.733L19.6919 27.8386C19.8143 28.0474 19.8143 28.2994 19.6919 28.5082L16.8479 33.3682H19.9799C20.3255 33.3682 20.6495 33.181 20.8223 32.8858L26.0783 23.9146C26.2583 23.6122 26.2583 23.2306 26.0783 22.9282Z" fill="url(#paint1_linear_1_15563)"/>
<path d="M14.8393 22.957H9.30252C9.12252 22.957 8.95692 23.0506 8.86332 23.209L6.09852 27.8674C6.00492 28.0258 6.00492 28.2274 6.09852 28.3858L8.85612 33.0514C8.94972 33.2098 9.11532 33.3034 9.29532 33.3034H14.8321C15.0121 33.3034 15.1777 33.2098 15.2713 33.0514L18.0289 28.3858C18.1225 28.2274 18.1225 28.0258 18.0289 27.8674L15.2713 23.2018C15.1849 23.0506 15.0193 22.957 14.8393 22.957Z" fill="url(#paint2_linear_1_15563)"/>
<defs>
<linearGradient id="paint0_linear_1_15563" x1="9.06482" y1="33.0278" x2="26.4113" y2="3.39958" gradientUnits="userSpaceOnUse">
<stop stop-color="#FFD802"/>
<stop offset="0.5306" stop-color="#FE5D49"/>
<stop offset="1" stop-color="#FF02F8"/>
</linearGradient>
<linearGradient id="paint1_linear_1_15563" x1="9.08211" y1="33.038" x2="26.4285" y2="3.40976" gradientUnits="userSpaceOnUse">
<stop stop-color="#FFD802"/>
<stop offset="0.5026" stop-color="#FE5D49"/>
<stop offset="1" stop-color="#FF02F8"/>
</linearGradient>
<linearGradient id="paint2_linear_1_15563" x1="9.16717" y1="33.0877" x2="26.5136" y2="3.45945" gradientUnits="userSpaceOnUse">
<stop stop-color="#FFD802"/>
<stop offset="0.5026" stop-color="#FE5D49"/>
<stop offset="1" stop-color="#FF02F8"/>
</linearGradient>
</defs>
</svg>
