<svg width="36" height="36" viewBox="0 0 36 36" fill="none" xmlns="http://www.w3.org/2000/svg">
<g clip-path="url(#clip0_1_15561)">
<path d="M25.7324 20.0126C25.8548 20.0126 25.9268 20.1422 25.8692 20.243L18.2156 33.4694C18.1868 33.5198 18.1364 33.5486 18.0788 33.5486H13.406C13.2836 33.5486 13.2116 33.419 13.2692 33.3182L20.9228 20.0918C20.9516 20.0414 21.002 20.0126 21.0596 20.0126H25.7324ZM21.1892 16.2182C21.1316 16.2182 21.0812 16.1894 21.0524 16.139L13.2764 2.68938C13.2188 2.58858 13.2908 2.45898 13.4132 2.45898H18.086C18.1436 2.45898 18.194 2.48778 18.2228 2.53818L25.9988 15.9878C26.0564 16.0886 25.9844 16.2182 25.862 16.2182H21.1892Z" fill="#E31337"/>
<path d="M22.1112 2.68938C22.0536 2.58858 22.1256 2.45898 22.248 2.45898H26.928C26.9856 2.45898 27.036 2.48778 27.0648 2.53818L35.9784 17.9318C36.0072 17.9822 36.0072 18.0398 35.9784 18.083L27.0648 33.4694C27.036 33.5198 26.9856 33.5486 26.928 33.5486H22.248C22.1256 33.5486 22.0536 33.419 22.1112 33.3182L30.9816 18.0038L22.1112 2.68938ZM18.3096 17.9246C18.3384 17.975 18.3384 18.0326 18.3096 18.083L9.3456 33.4694C9.288 33.5702 9.1368 33.5702 9.0792 33.4694L0.0216 18.083C-0.0072 18.0326 -0.0072 17.975 0.0216 17.9246L8.9784 2.53818C9.036 2.43738 9.1872 2.43738 9.2448 2.53818L18.3096 17.9246Z" fill="#E31337"/>
</g>
<defs>
<clipPath id="clip0_1_15561">
<rect width="36" height="36" fill="white" transform="translate(0 0.00390625)"/>
</clipPath>
</defs>
</svg>
