<svg width="36" height="36" viewBox="0 0 36 36" fill="none" xmlns="http://www.w3.org/2000/svg">
<g clip-path="url(#clip0_1_15558)">
<path d="M27.5904 14.1735C26.9928 14.7711 26.2656 15.1383 25.4952 15.2895C26.5608 18.1695 25.8696 21.4599 23.6736 23.6559C22.1616 25.1679 20.124 25.9743 18.0576 25.9743C17.1288 25.9743 16.1928 25.8087 15.3 25.4775C15.1488 26.2479 14.7816 26.9823 14.184 27.5799C12.5928 29.1711 10.0152 29.1711 8.424 27.5799C6.8328 25.9887 6.8328 23.4111 8.424 21.8199C9.0144 21.2295 9.7488 20.8551 10.5192 20.7039C9.432 17.8167 10.116 14.5047 12.3264 12.3015C14.5296 10.0983 17.8344 9.40711 20.7216 10.4943C20.8728 9.73111 21.2472 9.00391 21.8376 8.41351C23.4288 6.82231 26.0064 6.82231 27.5976 8.41351C29.1816 10.0047 29.1816 12.5823 27.5904 14.1735ZM18 0.00390625C8.0568 0.00390625 0 8.06071 0 18.0039C0 27.9471 8.0568 36.0039 18 36.0039C27.9432 36.0039 36 27.9471 36 18.0039C36 8.06071 27.9432 0.00390625 18 0.00390625ZM20.124 20.1063C18.9576 21.2727 17.0712 21.2727 15.912 20.1063C14.7456 18.9399 14.7456 17.0535 15.912 15.8943C17.0784 14.7279 18.9648 14.7279 20.124 15.8943C21.2904 17.0535 21.2904 18.9399 20.124 20.1063ZM22.788 9.37111C22.176 9.98311 21.8952 10.8615 22.0392 11.7183C22.0896 11.9991 22.0608 12.2871 21.9312 12.5535C21.7728 12.8991 21.4848 13.1511 21.1536 13.2735C20.8224 13.3959 20.4408 13.3887 20.0952 13.2303C18.144 12.3303 15.8112 12.7407 14.292 14.2599C12.7728 15.7791 12.3552 18.1119 13.2624 20.0631C13.428 20.4159 13.428 20.8047 13.2984 21.1359C13.176 21.4599 12.9312 21.7407 12.5856 21.8991C12.3984 21.9855 12.1968 22.0287 12.0024 22.0287C11.9088 22.0287 11.8152 22.0143 11.7288 21.9999C10.836 21.8775 10.008 22.1511 9.4032 22.7559C8.892 23.2671 8.6184 23.9367 8.6184 24.6567C8.6184 25.3767 8.8992 26.0535 9.4032 26.5575C10.4544 27.6087 12.1608 27.6087 13.2048 26.5575C13.8168 25.9455 14.0976 25.0671 13.9536 24.2103C13.9464 24.1599 13.9464 24.1167 13.9536 24.0735C13.9392 23.8503 13.9752 23.6127 14.076 23.3895C14.2344 23.0439 14.5224 22.7919 14.8536 22.6695C15.1848 22.5471 15.5664 22.5471 15.9192 22.7127C17.8704 23.6199 20.2032 23.2023 21.7224 21.6831C23.2416 20.1639 23.6592 17.8311 22.752 15.8799C22.5936 15.5343 22.5864 15.1599 22.7088 14.8287C22.8312 14.4903 23.0832 14.2023 23.4288 14.0367C23.6736 13.9215 23.94 13.8855 24.1848 13.9215C24.2208 13.9143 24.264 13.9143 24.3072 13.9215C25.1568 14.0439 25.9848 13.7631 26.5896 13.1583C27.6408 12.1071 27.6408 10.4007 26.5896 9.35671C25.5384 8.31991 23.832 8.31991 22.788 9.37111Z" fill="#474DFF"/>
</g>
<defs>
<clipPath id="clip0_1_15558">
<rect width="36" height="36" fill="white" transform="translate(0 0.00390625)"/>
</clipPath>
</defs>
</svg>
