<svg width="36" height="36" viewBox="0 0 36 36" fill="none" xmlns="http://www.w3.org/2000/svg">
<g clip-path="url(#clip0_1_15557)">
<path d="M19.7886 0.59809C27.1856 1.60285 32.0856 5.67402 34.5397 12.6865C34.951 13.8618 35.1129 15.1244 35.39 16.3466C35.4792 17.4236 35.497 18.3708 35.39 19.4904C35.1813 20.5221 35.0653 21.5831 34.7488 22.5806C32.6896 29.0727 28.4391 33.2856 21.7507 34.9084C20.2015 35.2673 18.2332 35.3356 16.1474 35.2497C14.1807 35.1687 12.3051 34.6038 10.5682 33.7127C9.76541 33.3008 9.03944 33.3309 8.24621 33.4951C7.62262 33.6242 7.00443 33.7797 6.38069 33.908C5.08736 34.174 3.79186 34.4297 2.38102 34.713C2.94514 32.8665 3.49709 31.1655 3.9661 29.4421C4.06928 29.0629 3.97971 28.5549 3.80504 28.1894C3.01001 26.5252 2.04658 24.9339 1.35473 23.2306C0.877805 22.0565 0.745901 20.7422 0.459845 19.4905C0.341549 18.4283 0.407285 17.4048 0.459845 16.3467C0.668573 15.315 0.784565 14.254 1.10101 13.2566C3.16021 6.76431 7.40748 2.53799 14.0992 0.928714C16.8751 0.261058 19.6867 0.584194 19.7886 0.59809ZM11.9452 7.19214C11.9452 14.1224 11.9452 20.9212 11.9452 27.7573C13.4378 27.7573 14.87 27.7573 16.3747 27.7573C16.3747 24.4578 16.3747 21.2335 16.3747 17.9247C17.0599 17.7387 17.6917 17.5241 18.3409 17.3993C19.9983 17.0808 20.4906 17.4945 20.4927 19.1552C20.4959 21.7165 20.4918 24.2778 20.4961 26.8391C20.4966 27.1455 20.5303 27.4518 20.5494 27.7697C22.0559 27.7697 23.4667 27.7697 24.869 27.7697C24.9069 27.625 24.9479 27.5417 24.9478 27.4585C24.9442 23.7915 24.9861 20.1236 24.9105 16.458C24.8692 14.4511 23.8001 13.5289 21.8086 13.4646C19.9567 13.4049 18.1633 13.6353 16.375 14.5687C16.375 11.4997 16.375 8.57641 16.375 5.50763C14.8188 6.09932 13.3907 6.64242 11.9452 7.19214Z" fill="#2C343F"/>
<path d="M11.9455 7.1924C13.3909 6.64268 14.819 6.09958 16.3751 5.50781C16.3751 8.5766 16.3751 11.4999 16.3751 14.5689C18.1634 13.6355 19.9568 13.4051 21.8087 13.4648C23.8003 13.529 24.8693 14.4513 24.9106 16.4582C24.9861 20.1237 24.9443 23.7917 24.9479 27.4587C24.948 27.5419 24.907 27.6252 24.8691 27.7699C23.4668 27.7699 22.056 27.7699 20.5495 27.7699C20.5304 27.452 20.4967 27.1457 20.4962 26.8393C20.4919 24.278 20.496 21.7167 20.4928 19.1553C20.4907 17.4947 19.9984 17.081 18.341 17.3995C17.6918 17.5242 17.06 17.7389 16.3748 17.9249C16.3748 21.2337 16.3748 24.458 16.3748 27.7575C14.8701 27.7575 13.4379 27.7575 11.9453 27.7575C11.9455 20.9214 11.9455 14.1227 11.9455 7.1924Z" fill="white"/>
</g>
<defs>
<clipPath id="clip0_1_15557">
<rect width="36" height="36" fill="white" transform="translate(0 0.00390625)"/>
</clipPath>
</defs>
</svg>
