<svg width="36" height="36" viewBox="0 0 36 36" fill="none" xmlns="http://www.w3.org/2000/svg">
<path d="M0.404754 30.7849C0.951738 29.5318 1.47244 28.3388 1.99509 27.1414C4.59847 27.1324 6.93076 26.3749 8.89276 24.6327C10.2318 23.4437 11.1256 21.9721 11.5665 20.2177C10.1258 20.1372 8.67439 20.3578 7.24079 19.9649C7.76913 18.7539 8.27911 17.5776 8.80219 16.4072C8.82911 16.3468 8.968 16.3082 9.05512 16.3074C9.89875 16.3001 10.7424 16.3031 11.6225 16.3031C11.0942 14.0516 9.88226 12.2886 8.0225 10.9826C6.17404 9.6846 4.08791 9.132 1.82827 9.17966C1.30353 7.97748 0.787146 6.7943 0.240234 5.54114C3.9226 5.11094 7.3174 5.81755 10.4198 7.79294C13.5612 9.79317 15.5683 12.6007 16.2703 16.2964C17.3986 16.2964 18.5184 16.2964 19.6292 16.2964C20.5339 11.9049 23.1501 8.87402 27.1075 6.96336C29.8251 5.6513 32.7096 5.22391 35.7596 5.64021C35.5359 6.15552 35.3357 6.6156 35.1363 7.07597C34.847 7.74413 34.5682 8.41718 34.2581 9.07548C34.2134 9.17023 34.0182 9.24367 33.893 9.24331C32.1415 9.23849 30.4492 9.55277 28.9052 10.3785C28.0289 10.847 27.1991 11.4398 26.4427 12.0869C25.1992 13.1505 24.39 14.5236 23.9508 16.1063C23.935 16.1632 23.9207 16.2204 23.9036 16.2856C25.3171 16.383 26.7476 16.126 28.1535 16.5566C27.8484 17.2555 27.5534 17.9292 27.2602 18.6038C27.0707 19.0398 26.9036 19.4874 26.6843 19.9077C26.614 20.0424 26.4119 20.1843 26.2648 20.1902C25.5469 20.2192 24.8272 20.2033 24.1082 20.2034C24.05 20.2034 23.9918 20.2034 23.9294 20.2034C24.5695 23.1587 27.9024 27.2509 34.1112 27.2324C34.6224 28.405 35.1364 29.584 35.6822 30.8357C32.0167 31.2767 28.6388 30.5803 25.5408 28.6309C22.4035 26.6567 20.383 23.8795 19.6476 20.2103C18.5009 20.2103 17.3612 20.2103 16.239 20.2103C15.296 24.5515 12.6874 27.5409 8.76374 29.4315C6.13473 30.6984 3.34552 31.1158 0.404754 30.7849Z" fill="#00838D"/>
</svg>
