<svg width="36" height="36" viewBox="0 0 36 36" fill="none" xmlns="http://www.w3.org/2000/svg">
<g clip-path="url(#clip0_1_15555)">
<path d="M8.59668 2.85457C8.59668 2.85457 9.71988 2.24977 11.5271 1.99777C13.3343 1.74577 19.7351 0.824172 19.7351 0.824172C19.7351 0.824172 21.0671 0.572172 22.4927 0.795372C23.9183 1.01857 24.5519 1.36417 24.5519 1.36417C24.5519 1.36417 27.7199 3.96337 27.4679 8.55697C27.2159 13.1506 23.8535 16.333 21.0959 17.2402C20.6207 17.3986 20.3327 17.4418 19.8647 17.5282C19.2671 17.6362 18.8783 17.1898 19.0799 16.6642C19.5407 15.4978 20.0159 13.6114 19.5695 11.3794C18.8135 7.60657 15.0695 2.25697 8.59668 2.85457Z" fill="url(#paint0_linear_1_15555)"/>
<path d="M35.7338 17.3984C35.7338 17.3984 35.705 18.6728 35.0282 20.3648C34.3514 22.0568 31.9826 28.076 31.9826 28.076C31.9826 28.076 31.5434 29.3576 30.6434 30.488C29.7434 31.6184 29.1242 31.9928 29.1242 31.9928C29.1242 31.9928 25.2938 33.4616 21.4346 30.9632C17.5754 28.4648 16.4738 23.972 17.0426 21.128C17.1434 20.6384 17.2442 20.3648 17.4026 19.9184C17.6042 19.3496 18.1874 19.2272 18.5402 19.6664C19.325 20.6456 20.729 21.9992 22.889 22.712C26.5466 23.9216 33.0482 23.3168 35.7338 17.3984Z" fill="url(#paint1_linear_1_15555)"/>
<path d="M9.56862 33.6777C9.56862 33.6777 8.48142 33.0153 7.35102 31.5825C6.22062 30.1497 2.18862 25.0953 2.18862 25.0953C2.18862 25.0953 1.29582 24.0801 0.77022 22.7337C0.23742 21.3945 0.21582 20.6673 0.21582 20.6673C0.21582 20.6673 0.85662 16.6209 4.94622 14.5185C9.03582 12.4161 13.4854 13.7121 15.6598 15.6273C16.0342 15.9585 16.2214 16.1817 16.531 16.5417C16.9198 17.0025 16.7398 17.5641 16.1854 17.6505C14.9398 17.8377 13.075 18.3849 11.3758 19.8969C8.50302 22.4673 5.78142 28.4001 9.56862 33.6777Z" fill="url(#paint2_linear_1_15555)"/>
<path d="M26.3956 2.30859C26.3956 2.30859 27.4828 2.97099 28.606 4.41099C29.7364 5.84379 33.7468 10.9126 33.7468 10.9126C33.7468 10.9126 34.6324 11.935 35.158 13.2814C35.6836 14.6278 35.698 15.3478 35.698 15.3478C35.698 15.3478 35.0428 19.3942 30.946 21.4822C26.8492 23.5774 22.4068 22.267 20.2396 20.3446C19.8652 20.0134 19.678 19.7902 19.3756 19.4302C18.9868 18.9694 19.174 18.4006 19.7284 18.3214C20.974 18.1342 22.846 17.5942 24.5452 16.0822C27.4252 13.5334 30.1684 7.60059 26.3956 2.30859Z" fill="url(#paint3_linear_1_15555)"/>
<path d="M27.3172 33.1596C27.3172 33.1596 26.194 33.7572 24.3868 34.002C22.5796 34.2468 16.1716 35.1324 16.1716 35.1324C16.1716 35.1324 14.8396 35.3772 13.414 35.1468C11.9884 34.9164 11.3548 34.5636 11.3548 34.5636C11.3548 34.5636 8.20123 31.95 8.47483 27.3564C8.74843 22.7628 12.1324 19.602 14.89 18.7092C15.3652 18.5508 15.6532 18.5076 16.1212 18.4284C16.7188 18.3276 17.1076 18.774 16.8988 19.2924C16.4308 20.4588 15.9412 22.3452 16.3804 24.5772C17.122 28.3572 20.8372 33.7284 27.3172 33.1596Z" fill="url(#paint4_linear_1_15555)"/>
<path d="M0.208984 18.3288C0.208984 18.3288 0.266584 17.0544 0.979384 15.3768C1.69218 13.6992 4.19058 7.73044 4.19058 7.73044C4.19058 7.73044 4.65858 6.45604 5.58018 5.34724C6.50178 4.23844 7.12818 3.87124 7.12818 3.87124C7.12818 3.87124 10.9874 2.48884 14.7962 5.05924C18.605 7.62964 19.613 12.1512 18.9794 14.9808C18.8714 15.4704 18.7634 15.7368 18.5978 16.1832C18.3818 16.7448 17.7986 16.86 17.4602 16.4136C16.697 15.4128 15.3218 14.0376 13.1762 13.2816C9.53298 12 3.01698 12.468 0.208984 18.3288Z" fill="url(#paint5_linear_1_15555)"/>
</g>
<defs>
<linearGradient id="paint0_linear_1_15555" x1="8.59787" y1="9.12283" x2="27.4797" y2="9.12283" gradientUnits="userSpaceOnUse">
<stop stop-color="#252D6F"/>
<stop offset="1" stop-color="#1BF4F8"/>
</linearGradient>
<linearGradient id="paint1_linear_1_15555" x1="16.9052" y1="24.9118" x2="35.7342" y2="24.9118" gradientUnits="userSpaceOnUse">
<stop stop-color="#252D6F"/>
<stop offset="1" stop-color="#1BF4F8"/>
</linearGradient>
<linearGradient id="paint2_linear_1_15555" x1="0.217908" y1="23.5598" x2="16.7394" y2="23.5598" gradientUnits="userSpaceOnUse">
<stop stop-color="#252D6F"/>
<stop offset="1" stop-color="#1BF4F8"/>
</linearGradient>
<linearGradient id="paint3_linear_1_15555" x1="19.1736" y1="12.4314" x2="46.8358" y2="12.4314" gradientUnits="userSpaceOnUse">
<stop stop-color="#FEFEFF"/>
<stop offset="0.1991" stop-color="#F9FCFD"/>
<stop offset="0.425" stop-color="#ECF6F9"/>
<stop offset="0.6641" stop-color="#D5EDF2"/>
<stop offset="0.9107" stop-color="#B5E0E7"/>
<stop offset="1" stop-color="#A8DAE3"/>
</linearGradient>
<linearGradient id="paint4_linear_1_15555" x1="8.45879" y1="26.8311" x2="27.3139" y2="26.8311" gradientUnits="userSpaceOnUse">
<stop stop-color="#FEFEFF"/>
<stop offset="0.1991" stop-color="#F9FCFD"/>
<stop offset="0.425" stop-color="#ECF6F9"/>
<stop offset="0.6641" stop-color="#D5EDF2"/>
<stop offset="0.9107" stop-color="#B5E0E7"/>
<stop offset="1" stop-color="#A8DAE3"/>
</linearGradient>
<linearGradient id="paint5_linear_1_15555" x1="0.207048" y1="10.9137" x2="19.1439" y2="10.9137" gradientUnits="userSpaceOnUse">
<stop stop-color="#FEFEFF"/>
<stop offset="0.1991" stop-color="#F9FCFD"/>
<stop offset="0.425" stop-color="#ECF6F9"/>
<stop offset="0.6641" stop-color="#D5EDF2"/>
<stop offset="0.9107" stop-color="#B5E0E7"/>
<stop offset="1" stop-color="#A8DAE3"/>
</linearGradient>
<clipPath id="clip0_1_15555">
<rect width="36" height="36" fill="white" transform="translate(0 0.00390625)"/>
</clipPath>
</defs>
</svg>
