<svg width="36" height="36" viewBox="0 0 36 36" fill="none" xmlns="http://www.w3.org/2000/svg">
<path d="M9.57423 4.44727H16.5619C15.7216 5.77122 15.2058 7.23322 15.2379 8.81756C17.3173 8.83875 19.4019 8.83875 21.4812 8.81756C21.5079 7.24382 21.0824 5.73928 20.173 4.44727H27.2085C26.7246 5.45735 25.9002 6.39312 25.98 7.57869C25.9481 12.8793 25.9906 18.1854 25.9747 23.486C26.666 23.486 27.3628 23.486 28.0593 23.4913C28.5699 22.4865 29.0219 21.4612 29.3833 20.3971C31.4732 20.45 33.5739 20.3386 35.653 20.6151C33.5951 22.3804 32.5207 24.8897 31.1807 27.1758C25.8628 27.1863 20.5449 27.1599 15.2217 27.1916C14.9718 29.1216 16.1683 30.4507 17.5563 31.5619H8.57387C9.35553 30.5358 10.9296 29.8766 10.7649 28.3719C10.8179 23.2468 10.7649 18.1156 10.7808 12.9858H15.3388V16.1438H21.3852V12.5232H8.76045C7.71303 14.3522 6.66717 16.1793 5.62282 18.0046C6.66517 19.8335 7.71255 21.6607 8.76502 23.486H10.3185V27.1754H5.56987C3.83618 24.1133 2.03878 21.0882 0.347656 18.0046V17.9993C2.04409 14.921 3.84678 11.8959 5.56987 8.83345C7.3408 8.83345 9.11155 8.83345 10.8825 8.81756C10.8931 7.24912 10.4623 5.74986 9.57423 4.44727ZM15.3389 19.8654V23.486H21.3853V19.8654H15.3389Z" fill="#56428E"/>
<path d="M26.4368 8.83398H31.169C32.4667 10.9075 33.3601 13.3001 35.232 14.9595C35.2692 15.0818 35.3379 15.3316 35.3755 15.4538C33.376 15.7143 31.3507 15.5122 29.3344 15.6127C29.0791 14.5069 28.5739 13.4913 28.0155 12.5185C27.6168 12.5185 26.8296 12.5238 26.4361 12.5238L26.4368 8.83398ZM21.5497 27.6388C22.9483 27.6441 24.3522 27.6388 25.751 27.6335C25.7191 29.4092 26.9691 30.5098 28.1973 31.5625H19.1514C20.3106 30.468 21.6667 29.4305 21.5497 27.6388Z" fill="#56428E"/>
</svg>
