<svg width="36" height="36" viewBox="0 0 36 36" fill="none" xmlns="http://www.w3.org/2000/svg">
<g clip-path="url(#clip0_1_15552)">
<path d="M6.22461 24.0207C6.28739 20.5607 7.59462 17.6572 10.1858 15.3314C12.1929 13.5298 13.8561 11.4437 15.1155 9.06371C15.9355 7.51398 16.2999 5.80456 16.4922 4.06655C16.6142 2.96437 16.6709 1.85802 16.5849 0.748862C16.5721 0.583406 16.5519 0.408518 16.7365 0.320606C16.9193 0.233558 17.0423 0.355382 17.1658 0.468566C19.9086 2.98338 21.6613 6.06261 22.3975 9.70919C22.6317 10.869 22.8316 12.0372 22.5813 13.2307C22.2738 14.6962 21.479 15.8918 20.5447 17.0165C19.9472 17.7357 19.2809 18.3874 18.599 19.0251C14.6753 22.6949 12.0763 27.1446 10.7651 32.3506C10.6303 32.8858 10.4253 32.9585 10.0238 32.5865C7.77261 30.5005 6.50066 27.9358 6.26903 24.8668C6.24815 24.5907 6.23966 24.3137 6.22461 24.0207Z" fill="#484F70"/>
<path d="M17.8614 35.5705C16.5354 35.5853 15.3267 35.3607 14.1386 35.0003C13.9815 34.9527 13.8616 34.8835 13.8401 34.7045C13.8165 34.5076 13.9261 34.4124 14.0884 34.3303C14.9653 33.8868 15.5099 33.1823 15.6945 32.2152C16.1961 29.5876 17.6105 27.4777 19.4484 25.6146C20.9979 24.0439 22.557 22.4839 23.8801 20.709C25.0263 19.1715 25.8756 17.4783 26.5329 15.6833C26.5676 15.5888 26.6023 15.4942 26.6342 15.3987C26.6803 15.2606 26.7441 15.1414 26.9101 15.1264C27.0788 15.111 27.1556 15.2256 27.2255 15.3509C27.7674 16.3223 28.1961 17.3424 28.5223 18.4047C29.0542 20.1371 29.3443 21.9063 29.3365 23.7233C29.3226 26.9081 28.3233 29.7151 26.0992 32.0258C24.1687 34.0314 21.8039 35.1957 19.0265 35.5029C18.6121 35.5485 18.1984 35.5768 17.8614 35.5705Z" fill="#16B4F0"/>
</g>
<defs>
<clipPath id="clip0_1_15552">
<rect width="36" height="36" fill="white" transform="translate(0 0.00390625)"/>
</clipPath>
</defs>
</svg>
