<svg width="36" height="36" viewBox="0 0 36 36" fill="none" xmlns="http://www.w3.org/2000/svg">
<g clip-path="url(#clip0_1_15939)">
<path d="M33.2499 12.207H23.8467V35.9022H33.2499V12.207Z" fill="url(#paint0_linear_1_15939)"/>
<path d="M7.67539 8.48554C9.9857 8.48554 11.8586 6.61266 11.8586 4.30234C11.8586 1.99202 9.9857 0.119141 7.67539 0.119141C5.36507 0.119141 3.49219 1.99202 3.49219 4.30234C3.49219 6.61266 5.36507 8.48554 7.67539 8.48554Z" fill="url(#paint1_linear_1_15939)"/>
<path d="M28.2887 8.48554C30.599 8.48554 32.4719 6.61266 32.4719 4.30234C32.4719 1.99202 30.599 0.119141 28.2887 0.119141C25.9784 0.119141 24.1055 1.99202 24.1055 4.30234C24.1055 6.61266 25.9784 8.48554 28.2887 8.48554Z" fill="url(#paint2_linear_1_15939)"/>
<path d="M2.98828 12.4023V35.9031H12.3915V24.6711C7.43068 22.6191 3.75868 17.9823 2.98828 12.4023Z" fill="url(#paint3_linear_1_15939)"/>
<path d="M23.6518 12.2305C22.8454 14.5705 20.6638 16.2409 18.0934 16.2409C15.523 16.2409 13.3486 14.5633 12.535 12.2305H12.3838V24.6793C14.1478 25.4065 16.0702 25.8169 18.0934 25.8169C25.8478 25.8169 32.263 19.8841 33.2278 12.2377H23.6518V12.2305Z" fill="#24C0FB"/>
<path d="M2.98828 12.2305V12.4033C3.75868 17.9833 7.42348 22.6201 12.3915 24.6721V12.2305H2.98828Z" fill="#FAA01C"/>
</g>
<defs>
<linearGradient id="paint0_linear_1_15939" x1="28.5448" y1="35.9012" x2="28.5448" y2="12.2037" gradientUnits="userSpaceOnUse">
<stop stop-color="#9451D4"/>
<stop offset="1" stop-color="#5094EC"/>
</linearGradient>
<linearGradient id="paint1_linear_1_15939" x1="7.67403" y1="8.49205" x2="7.67403" y2="0.118953" gradientUnits="userSpaceOnUse">
<stop stop-color="#FA9128"/>
<stop offset="0.9996" stop-color="#FAA01C"/>
</linearGradient>
<linearGradient id="paint2_linear_1_15939" x1="28.2905" y1="8.49205" x2="28.2905" y2="0.118953" gradientUnits="userSpaceOnUse">
<stop stop-color="#36AEF5"/>
<stop offset="1" stop-color="#24C0FB"/>
</linearGradient>
<linearGradient id="paint3_linear_1_15939" x1="7.69108" y1="35.9021" x2="7.69108" y2="12.4026" gradientUnits="userSpaceOnUse">
<stop stop-color="#FC515A"/>
<stop offset="0.9996" stop-color="#FB8036"/>
</linearGradient>
<clipPath id="clip0_1_15939">
<rect width="36" height="36" fill="white" transform="translate(0 0.00390625)"/>
</clipPath>
</defs>
</svg>
