<svg width="36" height="36" viewBox="0 0 36 36" fill="none" xmlns="http://www.w3.org/2000/svg">
<g clip-path="url(#clip0_1_15549)">
<path d="M17.9718 35.6721C27.7296 35.6721 35.6399 27.7618 35.6399 18.004C35.6399 8.24621 27.7296 0.335938 17.9718 0.335938C8.21398 0.335938 0.303711 8.24621 0.303711 18.004C0.303711 27.7618 8.21398 35.6721 17.9718 35.6721Z" fill="#1A61F0"/>
<path d="M23.3923 25.2732H20.6563V20.6638C20.6563 19.9502 20.0775 19.3714 19.3639 19.3714H15.3485C13.8041 19.3714 12.5527 18.1193 12.5527 16.5756V10.6133H15.2887V15.3437C15.2887 16.0572 15.8676 16.6361 16.5811 16.6361H20.5966C22.141 16.6361 23.3923 17.8882 23.3923 19.4318V25.2732Z" fill="white"/>
<path d="M23.3923 15.1442C21.881 15.1442 20.6562 13.9195 20.6562 12.4082V10.6133H23.3923V15.1442Z" fill="white"/>
<path d="M15.2878 25.2736H12.5518V20.8535C14.063 20.8535 15.2878 22.0782 15.2878 23.5895V25.2736Z" fill="white"/>
</g>
<defs>
<clipPath id="clip0_1_15549">
<rect width="36" height="36" fill="white" transform="translate(0 0.00390625)"/>
</clipPath>
</defs>
</svg>
