<svg width="36" height="36" viewBox="0 0 36 36" fill="none" xmlns="http://www.w3.org/2000/svg">
<g clip-path="url(#clip0_1_15646)">
<path d="M17.9349 35.7799C27.7408 35.7799 35.6901 27.8307 35.6901 18.0247C35.6901 8.21881 27.7408 0.269531 17.9349 0.269531C8.12896 0.269531 0.179688 8.21881 0.179688 18.0247C0.179688 27.8307 8.12896 35.7799 17.9349 35.7799Z" fill="#0871F5"/>
<path d="M26.8918 20.712C26.8918 15.2832 20.6638 8.37124 18.6478 6.27604C18.3094 5.92324 17.7406 5.91604 17.395 6.26884C15.3718 8.33524 9.1582 15.1464 9.1582 20.712C9.1582 25.608 13.1254 29.5824 18.0286 29.5824C22.9318 29.5824 26.8918 25.608 26.8918 20.712Z" fill="white"/>
</g>
<defs>
<clipPath id="clip0_1_15646">
<rect width="36" height="36" fill="white" transform="translate(0 0.00390625)"/>
</clipPath>
</defs>
</svg>
