<svg width="36" height="36" viewBox="0 0 36 36" fill="none" xmlns="http://www.w3.org/2000/svg">
<g clip-path="url(#clip0_1_15775)">
<path d="M9.72683 12.0207L5.72363 6.68555H19.094L20.354 8.70155H9.74123L10.8716 10.1991L9.72683 12.0207Z" fill="#C69C6D"/>
<path d="M29.9953 29.3004H16.8409L15.6025 27.2916H26.0929L25.0489 25.8228L26.1433 23.9004L29.9953 29.3004Z" fill="#C69C6D"/>
<path d="M23.8388 18.0543C23.8388 17.2983 23.6948 16.5711 23.4284 15.9015L29.9876 6.68555H22.9172L24.1772 8.70155H26.0852L22.2692 14.0583C21.1892 12.8847 19.634 12.1431 17.9204 12.1431C16.2428 12.1431 14.7236 12.8487 13.6508 13.9719L12.9164 13.0359L11.7356 14.9295L12.4268 15.6711L12.5564 15.5703C12.2036 16.3263 12.0092 17.1687 12.0092 18.0543C12.0092 18.8319 12.1604 19.5807 12.4412 20.2647L5.72363 29.3007H12.9884L11.786 27.2847H9.73403L13.6076 22.0935C14.6876 23.2455 16.2212 23.9655 17.9204 23.9655C19.6628 23.9655 21.2396 23.2023 22.3196 21.9999L23.0756 23.0655L24.2924 21.3519L23.4572 20.1351C23.702 19.4871 23.8388 18.7887 23.8388 18.0543ZM17.9276 22.2087C15.638 22.2087 13.7732 20.3439 13.7732 18.0543C13.7732 15.7647 15.638 13.8999 17.9276 13.8999C20.2172 13.8999 22.082 15.7647 22.082 18.0543C22.082 20.3439 20.2172 22.2087 17.9276 22.2087Z" fill="#C69C6D"/>
<path d="M23.0546 11.9487L17.9138 3.92074L16.5458 6.07354H14.249L17.9138 0.119141L24.3002 10.2927L23.0546 11.9487Z" fill="#C69C6D"/>
<path d="M9.76337 22.8358L6.71777 18.055L12.1682 9.37182L14.4938 9.35742L9.09377 18.055L10.9874 21.1294L9.76337 22.8358Z" fill="#C69C6D"/>
<path d="M17.9786 35.9254L11.6426 25.7662L12.845 24.0742L17.9714 32.1382L19.3394 29.9926H21.6506L17.9786 35.9254Z" fill="#C69C6D"/>
<path d="M23.6371 26.7803H21.3691L26.7403 18.0539L24.9187 14.9291L26.1571 13.2227L29.1091 18.0539L23.6371 26.7803Z" fill="#C69C6D"/>
</g>
<defs>
<clipPath id="clip0_1_15775">
<rect width="36" height="36" fill="white" transform="translate(0 0.00390625)"/>
</clipPath>
</defs>
</svg>
