<svg width="36" height="36" viewBox="0 0 36 36" fill="none" xmlns="http://www.w3.org/2000/svg">
<g clip-path="url(#clip0_1_15707)">
<path d="M29.7588 17.8618C29.7588 12.9052 29.7586 7.94849 29.7595 2.99187C29.7595 2.75189 29.76 2.51141 29.7751 2.27209C29.8355 1.31009 30.4808 0.647406 31.4437 0.567414C32.2045 0.504198 32.9669 0.503262 33.728 0.566478C34.6424 0.642366 35.2343 1.1869 35.3835 2.09662C35.4244 2.34589 35.4375 2.60228 35.4375 2.85536C35.4401 12.8534 35.4402 22.8515 35.4373 32.8495C35.4372 33.1165 35.4223 33.3872 35.3773 33.6499C35.226 34.5314 34.6239 35.0816 33.7383 35.149C32.9771 35.207 32.2141 35.2057 31.453 35.1489C30.4978 35.0776 29.8378 34.4055 29.7755 33.4515C29.7599 33.2122 29.7595 32.9717 29.7595 32.7317C29.7586 27.7751 29.7588 22.8185 29.7588 17.8618Z" fill="#4C6F8C"/>
<path d="M15.967 24.8043C15.967 27.5998 15.9691 30.3954 15.966 33.1909C15.9646 34.4802 15.297 35.1458 14.0091 35.1533C13.4727 35.1564 12.9361 35.1555 12.3996 35.154C10.9945 35.15 10.2938 34.4577 10.2903 33.0491C10.2844 30.7053 10.2885 28.3616 10.2885 26.0178C10.2885 22.8835 10.2848 19.749 10.2919 16.6146C10.2934 15.9813 10.4226 15.3945 10.9388 14.9381C11.2684 14.6468 11.6584 14.5049 12.0548 14.4931C12.869 14.4688 13.6893 14.3933 14.5018 14.5474C15.41 14.7197 15.9619 15.361 15.9637 16.2906C15.9693 19.1284 15.9657 21.9664 15.9657 24.8043C15.9661 24.8043 15.9665 24.8043 15.967 24.8043Z" fill="#BFCBD5"/>
<path d="M25.7078 27.2697C25.7079 29.2458 25.7094 31.2221 25.7073 33.1983C25.7059 34.4262 24.9906 35.1457 23.766 35.1536C23.1732 35.1574 22.5802 35.157 21.9875 35.1536C20.7373 35.1462 20.0317 34.435 20.0306 33.1692C20.0276 29.6685 20.024 26.1677 20.0343 22.6671C20.0362 21.9931 19.9487 21.3134 20.1129 20.6445C20.3105 19.839 20.955 19.3112 21.7852 19.2986C22.4767 19.2882 23.1686 19.2896 23.8602 19.2962C24.9702 19.3066 25.7035 20.0484 25.7063 21.1716C25.7114 23.2043 25.7077 25.237 25.7078 27.2697Z" fill="#BFCBD5"/>
<path d="M6.29429 29.6172C6.29429 30.7745 6.31431 31.9322 6.28695 33.0888C6.26996 33.8096 6.11113 34.4914 5.40869 34.8988C5.12026 35.0661 4.81397 35.15 4.48486 35.1519C3.8216 35.1558 3.15826 35.1583 2.495 35.1534C1.32867 35.1446 0.620837 34.4451 0.618245 33.2838C0.612845 30.8283 0.612989 28.3726 0.618317 25.9171C0.620693 24.7979 1.35733 24.0606 2.47081 24.0486C3.04933 24.0423 3.62806 24.0456 4.20665 24.0472C5.55838 24.0508 6.2858 24.7785 6.293 26.1456C6.29912 27.3027 6.29429 28.46 6.29429 29.6172Z" fill="#BFCBD5"/>
</g>
<defs>
<clipPath id="clip0_1_15707">
<rect width="36" height="36" fill="white" transform="translate(0 0.00390625)"/>
</clipPath>
</defs>
</svg>
