<svg width="36" height="36" viewBox="0 0 36 36" fill="none" xmlns="http://www.w3.org/2000/svg">
<g clip-path="url(#clip0_1_15544)">
<path d="M27.2376 9.16211C25.2216 9.16211 23.0256 10.2349 20.7072 12.3517C19.6056 13.3453 18.648 14.4253 17.9424 15.2821C17.9424 15.2821 19.0728 16.5565 20.3112 17.9173C20.9808 17.0893 21.9456 15.9661 23.0616 14.9581C25.1208 13.0717 26.4672 12.6901 27.2448 12.6901C30.1464 12.6901 32.4936 15.0661 32.4936 18.0109C32.4936 20.9269 30.1464 23.3029 27.2448 23.3317C27.108 23.3317 26.9424 23.3173 26.7408 23.2669C27.5832 23.6485 28.4976 23.9293 29.3472 23.9293C34.6608 23.9293 35.6976 20.3365 35.7552 20.0773C35.9064 19.4149 36 18.7309 36 18.0181C35.9856 13.1365 32.0616 9.16211 27.2376 9.16211Z" fill="url(#paint0_linear_1_15544)"/>
<path d="M8.69795 26.8453C10.7139 26.8453 12.9099 25.7725 15.2283 23.6557C16.3299 22.6621 17.2875 21.5821 17.9931 20.7253C17.9931 20.7253 16.8627 19.4509 15.6243 18.0901C14.9547 18.9181 13.9899 20.0413 12.8739 21.0493C10.8147 22.9213 9.45395 23.3173 8.69075 23.3173C5.78915 23.3173 3.44195 20.9413 3.44195 17.9965C3.44195 15.0805 5.78915 12.7045 8.69075 12.6757C8.82755 12.6757 8.99315 12.6901 9.19475 12.7405C8.35235 12.3589 7.43795 12.0781 6.58835 12.0781C1.27475 12.0781 0.237947 15.6709 0.180347 15.9301C0.0291469 16.5925 -0.0644531 17.2765 -0.0644531 17.9893C-0.0644531 22.8709 3.85955 26.8453 8.69795 26.8453Z" fill="url(#paint1_linear_1_15544)"/>
<path fill-rule="evenodd" clip-rule="evenodd" d="M12.7364 15.0373C12.1532 14.4829 9.31637 12.2293 6.60197 12.1501C1.76357 12.0277 0.337972 15.4765 0.215572 15.9229C1.14437 12.0565 4.60037 9.17651 8.71157 9.16211C12.0596 9.16211 15.4436 12.3805 17.9492 15.2821C17.9564 15.2749 17.9564 15.2749 17.9636 15.2677C17.9636 15.2677 19.094 16.5421 20.3324 17.9029C20.3324 17.9029 21.7364 19.5301 23.234 20.9557C23.8172 21.5101 26.6396 23.7349 29.354 23.8069C34.3292 23.9437 35.7044 20.3077 35.7764 20.0341C34.862 23.9149 31.3988 26.8165 27.2732 26.8309C23.9252 26.8309 20.534 23.6125 18.0212 20.7109C18.014 20.7181 18.014 20.7253 18.0068 20.7253C18.0068 20.7253 16.8764 19.4509 15.638 18.0901C15.6308 18.0901 14.2268 16.4629 12.7364 15.0373ZM0.201172 15.9589C0.201172 15.9517 0.208372 15.9373 0.208372 15.9301C0.208372 15.9373 0.208372 15.9445 0.201172 15.9589Z" fill="#29ABE2"/>
</g>
<defs>
<linearGradient id="paint0_linear_1_15544" x1="22.6263" y1="10.47" x2="34.7494" y2="22.9597" gradientUnits="userSpaceOnUse">
<stop offset="0.21" stop-color="#F15A24"/>
<stop offset="0.6841" stop-color="#FBB03B"/>
</linearGradient>
<linearGradient id="paint1_linear_1_15544" x1="13.3065" y1="25.5403" x2="1.18341" y2="13.0506" gradientUnits="userSpaceOnUse">
<stop offset="0.21" stop-color="#ED1E79"/>
<stop offset="0.8929" stop-color="#522785"/>
</linearGradient>
<clipPath id="clip0_1_15544">
<rect width="36" height="36" fill="white" transform="translate(0 0.00390625)"/>
</clipPath>
</defs>
</svg>
