<svg width="36" height="36" viewBox="0 0 36 36" fill="none" xmlns="http://www.w3.org/2000/svg">
<g clip-path="url(#clip0_1_15749)">
<path d="M9.94313 28.7249C11.1455 27.5585 12.3047 26.4353 13.5215 25.2473C15.5159 26.3993 17.7047 26.8961 20.0519 26.3201C21.7367 25.9025 23.1911 25.0673 24.3647 23.7857C26.4455 21.5177 27.8207 17.6585 25.4231 13.3961C26.6111 12.2297 27.7775 11.0705 28.9439 9.92566C32.5079 14.0945 32.9543 21.8993 27.9647 27.2489C23.2487 32.3033 15.2063 32.9945 9.94313 28.7249ZM11.6063 12.3017C14.8319 8.80246 18.6407 8.50006 22.6007 10.5017C23.8319 9.28486 24.9767 8.14726 26.1143 7.01686C21.0095 2.83366 12.8807 3.55366 8.16473 8.64406C3.18953 14.0153 3.73673 21.8561 7.32953 26.0177C7.41593 25.9601 7.51673 25.9169 7.59593 25.8449C8.68313 24.8081 9.77033 23.7569 10.8719 22.7057C8.39513 18.1409 9.68394 14.3825 11.6063 12.3017ZM31.6943 7.75126C33.6383 7.79446 35.3015 6.15286 35.3087 4.18726C35.3159 2.21446 33.6815 0.587257 31.7231 0.601657C29.8007 0.616057 28.2527 2.20726 28.2455 4.15846C28.2383 6.12406 29.7647 7.71526 31.6943 7.75126ZM4.42073 28.0121C2.49113 28.0553 0.935935 29.6393 0.928735 31.5761C0.921535 33.5417 2.55593 35.1761 4.51433 35.1545C6.42953 35.1401 7.98474 33.5417 7.98474 31.5905C7.98474 29.5889 6.36473 27.9689 4.42073 28.0121Z" fill="#19B8BA"/>
</g>
<defs>
<clipPath id="clip0_1_15749">
<rect width="36" height="36" fill="white" transform="translate(0 0.00390625)"/>
</clipPath>
</defs>
</svg>
