<svg width="36" height="36" viewBox="0 0 36 36" fill="none" xmlns="http://www.w3.org/2000/svg">
<g clip-path="url(#clip0_1_15642)">
<path d="M17.9999 6.94471C20.1887 6.94471 22.3271 7.59271 24.1415 8.80951C25.9631 10.0263 27.3743 11.7543 28.2167 13.7703C29.0519 15.7935 29.2751 18.0111 28.8431 20.1567C28.4183 22.3023 27.3599 24.2751 25.8191 25.8159C24.2783 27.3567 22.3055 28.4151 20.1599 28.8399C18.0143 29.2647 15.7895 29.0487 13.7735 28.2135C11.7503 27.3783 10.0223 25.9599 8.81271 24.1383C7.59591 22.3167 6.94791 20.1783 6.94791 17.9967C6.95511 15.0663 8.12151 12.2511 10.1879 10.1847C12.2543 8.11831 15.0695 6.95191 17.9999 6.94471ZM17.9999 0.00390625C14.4431 0.00390625 10.9583 1.06231 7.99911 3.03511C5.03991 5.01511 2.73591 7.82311 1.36791 11.1135C0.00711037 14.4039 -0.34569 18.0255 0.34551 21.5175C1.03671 25.0095 2.75751 28.2135 5.27031 30.7335C7.79031 33.2535 10.9943 34.9671 14.4863 35.6583C17.9783 36.3495 21.5999 35.9967 24.8831 34.6359C28.1735 33.2751 30.9815 30.9639 32.9615 28.0047C34.9415 25.0455 35.9999 21.5607 35.9999 18.0039C35.9999 13.2303 34.1063 8.65111 30.7295 5.27431C27.3527 1.89751 22.7735 0.00390625 17.9999 0.00390625Z" fill="url(#paint0_linear_1_15642)"/>
<path d="M17.9997 32.1166C25.7901 32.1166 32.1117 25.8022 32.1117 18.0046C32.1117 10.207 25.7901 3.89258 17.9997 3.89258C10.2093 3.89258 3.8877 10.2142 3.8877 18.0046C3.8877 25.795 10.2093 32.1166 17.9997 32.1166Z" fill="white"/>
<path d="M17.9996 29.6027C24.4057 29.6027 29.5988 24.4096 29.5988 18.0035C29.5988 11.5974 24.4057 6.4043 17.9996 6.4043C11.5935 6.4043 6.40039 11.5974 6.40039 18.0035C6.40039 24.4096 11.5935 29.6027 17.9996 29.6027Z" fill="#F8A608"/>
<path fill-rule="evenodd" clip-rule="evenodd" d="M13.3994 12.5039H18.101C21.1394 12.5039 23.6018 14.9663 23.6018 18.0047C23.6018 21.0431 21.1394 23.5055 18.101 23.5055H13.3994V12.5039ZM14.609 13.7135V22.2959H18.101C20.4698 22.2959 22.3922 20.3735 22.3922 18.0047C22.3922 15.6359 20.4698 13.7135 18.101 13.7135H14.609Z" fill="white"/>
<path d="M11.8516 17.3346H24.6748V16.125H11.8516V17.3346Z" fill="white"/>
<path d="M11.8516 19.9127H24.6748V18.7031H11.8516V19.9127Z" fill="white"/>
</g>
<defs>
<linearGradient id="paint0_linear_1_15642" x1="33.6599" y1="33.6639" x2="4.85991" y2="4.86391" gradientUnits="userSpaceOnUse">
<stop offset="0.1594" stop-color="#003CDA"/>
<stop offset="1" stop-color="#33DFCC"/>
</linearGradient>
<clipPath id="clip0_1_15642">
<rect width="36" height="36" fill="white" transform="translate(0 0.00390625)"/>
</clipPath>
</defs>
</svg>
