<svg width="36" height="36" viewBox="0 0 36 36" fill="none" xmlns="http://www.w3.org/2000/svg">
<g clip-path="url(#clip0_1_15677)">
<path d="M17.9926 0.277422C27.7774 0.277422 35.7046 8.21182 35.7046 17.9966C35.7046 27.7814 27.7702 35.7086 17.9854 35.7086C8.20064 35.7086 0.273438 27.7742 0.273438 17.9894C0.273438 17.9246 0.273438 17.867 0.273438 17.8022C0.367038 8.14702 8.26544 0.248622 17.9926 0.277422ZM18.367 1.55902C8.95664 1.55902 1.61264 8.90302 1.56944 17.8886C1.52624 26.9606 8.90624 34.4198 17.9854 34.391C22.4854 34.3766 26.3734 32.7854 29.5486 29.6102C33.1702 26.003 34.7542 21.575 34.3366 16.5062C34.0558 12.6758 32.371 9.08302 29.6206 6.41182C26.4166 3.22942 22.5142 1.62382 18.367 1.55902Z" fill="#333333"/>
<path d="M33.9052 16.2542C33.5668 12.6398 31.954 9.26296 29.362 6.72856C26.2228 3.58216 22.3996 1.98376 17.95 1.97656C9.1084 2.14936 2.08119 9.46456 2.26119 18.3062C2.43399 26.8598 9.2956 33.7646 17.842 33.995C22.2772 34.0238 26.1292 32.4758 29.2612 29.3366C32.8684 25.7294 34.4164 21.3302 33.9052 16.2542ZM24.9052 5.52616C25.1716 5.53336 25.3876 5.75656 25.3876 6.02296C25.3876 6.28936 25.1572 6.50536 24.8908 6.50536C24.6244 6.49816 24.4084 6.27496 24.4084 6.00856C24.4084 6.00856 24.4084 6.00856 24.4084 6.00136C24.4156 5.73496 24.6388 5.52616 24.9052 5.52616ZM22.7164 4.51096C22.99 4.51096 23.2132 4.73416 23.2132 5.01496C23.206 5.28136 22.9828 5.49016 22.7164 5.49016C22.4572 5.49736 22.2412 5.28856 22.234 5.02216C22.234 5.01496 22.234 5.00776 22.234 5.00056C22.234 4.72696 22.45 4.51096 22.7164 4.51096ZM20.4052 3.88456C20.6644 3.91336 20.866 4.10776 20.902 4.36696C20.8804 4.64776 20.65 4.86376 20.3692 4.85656C20.1028 4.84936 19.894 4.62616 19.894 4.36696C19.9084 4.09336 20.1388 3.87736 20.4052 3.88456ZM17.9932 3.68296C18.2596 3.68296 18.4828 3.89896 18.4828 4.16536C18.4828 4.43176 18.2668 4.65496 18.0004 4.65496C17.734 4.65496 17.518 4.43896 17.5108 4.17256C17.5108 3.90616 17.7196 3.69016 17.9932 3.68296ZM15.6028 3.88456C15.862 3.89896 16.0708 4.10776 16.0852 4.36696C16.0852 4.63336 15.862 4.85656 15.5956 4.85656C15.5884 4.85656 15.5812 4.85656 15.5812 4.85656C15.3148 4.85656 15.0988 4.63336 15.106 4.37416C15.1204 4.10776 15.3364 3.89896 15.6028 3.89176V3.88456ZM13.27 4.51096C13.5364 4.51816 13.7524 4.73416 13.7524 5.00056C13.7596 5.25976 13.5508 5.47576 13.2916 5.48296C13.2844 5.48296 13.2772 5.48296 13.27 5.48296C13.0036 5.49016 12.7732 5.28136 12.766 5.00776C12.766 5.00056 12.766 4.99336 12.766 4.98616C12.7804 4.71976 13.0036 4.51096 13.27 4.51096ZM11.074 5.52616C11.3404 5.50456 11.578 5.71336 11.5924 5.97976C11.614 6.24616 11.4052 6.48376 11.1388 6.49816C11.1172 6.49816 11.0956 6.49816 11.074 6.49816C10.8076 6.47656 10.5988 6.24616 10.6204 5.97976C10.6348 5.74216 10.8292 5.54776 11.074 5.52616ZM9.11559 6.90856C9.38199 6.91576 9.59799 7.13176 9.60519 7.39816C9.60519 7.66456 9.38919 7.88056 9.11559 7.88776C8.85639 7.90216 8.63319 7.70056 8.626 7.44136C8.626 7.43416 8.626 7.42696 8.626 7.41256C8.61879 7.14616 8.8276 6.92296 9.094 6.90856C9.1012 6.90856 9.10839 6.90856 9.11559 6.90856ZM7.42359 8.60776C7.68999 8.62216 7.89879 8.84536 7.89879 9.11176C7.89159 9.37816 7.67559 9.59416 7.40919 9.58696C7.1428 9.57976 6.92679 9.36376 6.91959 9.09736C6.92679 8.82376 7.14999 8.60776 7.42359 8.60776ZM6.02679 10.5878C6.286 10.5806 6.502 10.7894 6.5092 11.0486C6.5092 11.0558 6.5092 11.063 6.5092 11.0702C6.5092 11.3366 6.3004 11.5598 6.02679 11.567C5.75319 11.5598 5.53 11.3366 5.53 11.063C5.5372 10.7966 5.76039 10.5878 6.02679 10.5878ZM5.01159 12.7694C5.28519 12.7694 5.5012 12.9926 5.5012 13.2662C5.5012 13.2734 5.5012 13.2734 5.5012 13.2806C5.4796 13.5542 5.2348 13.7486 4.96839 13.727C4.72359 13.7054 4.52919 13.5038 4.52199 13.2518C4.52919 12.9782 4.74519 12.7694 5.01159 12.7694ZM4.37799 15.0878C4.65159 15.0878 4.8748 15.311 4.882 15.5846C4.8748 15.851 4.65159 16.067 4.3852 16.0598C4.12599 16.0598 3.91719 15.851 3.90999 15.5918C3.90999 15.5846 3.90999 15.5846 3.90999 15.5774C3.90279 15.3254 4.11159 15.1022 4.37799 15.0878ZM3.67959 17.9894C3.68679 17.723 3.89559 17.507 4.16919 17.4926C4.43559 17.4926 4.65879 17.7086 4.65879 17.975C4.67319 18.2414 4.46439 18.4646 4.19799 18.479C4.18359 18.479 4.16199 18.479 4.14759 18.479C3.88839 18.4646 3.68679 18.2486 3.67959 17.9894ZM3.90999 20.387C3.90999 20.1206 4.12599 19.8974 4.39239 19.8974C4.66599 19.9046 4.88919 20.1278 4.88919 20.4014C4.88199 20.6678 4.65879 20.8766 4.39239 20.8766C4.13319 20.8838 3.91719 20.6822 3.90999 20.423C3.90999 20.4014 3.90999 20.3942 3.90999 20.387ZM5.026 23.2022C4.7596 23.2094 4.53639 22.9934 4.52919 22.727C4.52919 22.4534 4.7524 22.2302 5.026 22.223C5.2852 22.2374 5.49399 22.4462 5.50839 22.7126C5.50839 22.979 5.29239 23.195 5.01879 23.2022H5.026ZM6.0412 25.3838C5.7748 25.3838 5.55879 25.1678 5.54439 24.9014C5.54439 24.6278 5.7604 24.4118 6.034 24.4118C6.0412 24.4118 6.04119 24.4118 6.04839 24.4118C6.3076 24.4046 6.52359 24.6134 6.53079 24.8726C6.53079 24.8798 6.53079 24.887 6.53079 24.9014C6.52359 25.1678 6.3076 25.3838 6.0412 25.3838C6.034 25.3766 6.03399 25.3766 6.02679 25.3766L6.0412 25.3838ZM6.0412 21.5678L6.06279 21.4814H11.2396C12.586 21.4814 12.586 21.4814 12.586 20.1206C12.586 18.983 12.6004 17.8526 12.586 16.715C12.586 16.3478 12.6364 16.175 13.0756 16.1894C14.0476 16.2326 15.0268 16.2182 16.006 16.1894C16.3444 16.1894 16.4596 16.2974 16.4596 16.6286C16.4524 18.5366 16.4524 20.4446 16.4596 22.3526C16.4596 22.7126 16.3444 22.8998 15.9628 22.8638C15.8476 22.8494 15.7396 22.8494 15.6244 22.8638C15.1852 22.9142 15.034 22.7414 15.034 22.3094C15.0556 20.9342 15.034 19.5518 15.034 18.1766C15.034 17.795 14.9188 17.6222 14.5084 17.6222C14.1052 17.6222 13.9684 17.7518 13.9756 18.155C13.9972 19.5302 13.9756 20.9126 13.99 22.2878C13.99 22.7414 13.8532 22.871 13.414 22.8638C12.0172 22.8422 10.6204 22.9286 9.238 22.8278C8.5828 22.7774 7.94919 22.4102 7.31559 22.1654C6.88359 21.9998 6.4588 21.7766 6.02679 21.575L6.0412 21.5678ZM7.474 27.3638C7.2004 27.3926 6.94839 27.1982 6.91959 26.9246C6.91959 26.8958 6.91239 26.8742 6.91959 26.8454C6.93399 26.5718 7.15719 26.3558 7.43079 26.3486C7.70439 26.3846 7.91319 26.615 7.92759 26.8886C7.89159 27.1262 7.70439 27.3134 7.46679 27.3638H7.474ZM9.1084 29.0558C8.8492 29.0558 8.64039 28.847 8.64039 28.5878C8.64039 28.5806 8.64039 28.5734 8.64039 28.5662C8.64759 28.2998 8.8636 28.0838 9.13 28.0838C9.3964 28.091 9.6124 28.307 9.6196 28.5734C9.6196 28.8398 9.3964 29.0558 9.13 29.0558C9.1228 29.0558 9.1084 29.0558 9.10119 29.0558H9.1084ZM11.1028 30.4382C10.8436 30.4454 10.6204 30.2438 10.6132 29.9846C10.6132 29.9774 10.6132 29.9702 10.6132 29.963C10.606 29.6894 10.8148 29.4662 11.0884 29.459C11.0956 29.459 11.0956 29.459 11.1028 29.459C11.3692 29.4662 11.5852 29.6822 11.5924 29.9486C11.5852 30.215 11.3692 30.431 11.1028 30.4382C11.1028 30.4382 11.0956 30.4382 11.0884 30.4382H11.1028ZM13.2844 31.4534C13.0108 31.4678 12.7804 31.259 12.766 30.9926C12.766 30.9854 12.766 30.971 12.766 30.9638C12.7804 30.6974 12.9964 30.4886 13.2628 30.4814C13.5292 30.4814 13.7452 30.6974 13.7524 30.971C13.7524 31.2302 13.5508 31.4462 13.2844 31.4534C13.2844 31.4534 13.2772 31.4534 13.27 31.4534H13.2844ZM11.434 24.0734C11.002 23.9006 10.5916 23.6846 10.1668 23.483L10.2172 23.3462C12.4276 23.3462 14.638 23.3462 16.8484 23.3462C17.878 23.3462 17.7412 23.4398 17.7484 22.439C17.7484 19.4726 17.7628 16.5062 17.7484 13.547C17.7484 13.0574 17.8852 12.9134 18.3676 12.9278C19.3108 12.9638 20.254 12.9494 21.2044 12.9278C21.5428 12.9278 21.694 13.0142 21.694 13.3814C21.6868 17.0534 21.6868 20.7182 21.694 24.3902C21.694 24.7862 21.5284 24.9086 21.1612 24.8438C21.0388 24.815 20.9092 24.7934 20.7868 24.7862C20.182 24.8078 20.182 24.8078 20.182 24.1814C20.182 21.1502 20.182 18.1262 20.182 15.095C20.182 14.843 20.2756 14.5262 19.8652 14.4542C19.3756 14.375 19.2316 14.4902 19.2316 15.0014C19.2316 18.0758 19.2316 21.1574 19.2316 24.2318C19.2316 24.8582 19.2316 24.8582 18.5836 24.8582C16.978 24.8582 15.3796 24.8366 13.774 24.8582C12.8596 24.8942 12.1828 24.3758 11.4196 24.0734H11.434ZM15.6028 32.0726C15.3364 32.0798 15.106 31.871 15.0988 31.6046C15.0988 31.5974 15.0988 31.5902 15.0988 31.583C15.0988 31.3094 15.322 31.0934 15.5884 31.0934C15.862 31.0934 16.078 31.3166 16.078 31.583C16.0852 31.8494 15.8692 32.0654 15.6028 32.0726ZM17.9932 32.303C17.7196 32.2958 17.4964 32.0726 17.5036 31.799C17.5108 31.5254 17.7412 31.3094 18.0076 31.3166C18.2812 31.3238 18.4972 31.5542 18.49 31.8206C18.4756 32.087 18.2596 32.303 17.9932 32.303ZM20.3548 32.0726C20.0956 32.051 19.894 31.835 19.9012 31.5758C19.9084 31.3022 20.1388 31.0934 20.4124 31.1006C20.686 31.1078 20.8948 31.3382 20.8876 31.6118C20.8732 31.8782 20.65 32.087 20.3764 32.0726C20.3692 32.0726 20.362 32.0726 20.3548 32.0726ZM22.7164 31.4534C22.4572 31.4606 22.2412 31.2518 22.234 30.9926C22.234 30.9854 22.234 30.9782 22.234 30.971C22.2412 30.7046 22.45 30.4958 22.7164 30.4886C22.99 30.4958 23.2132 30.719 23.2132 30.9926C23.1988 31.2518 22.9756 31.4534 22.7164 31.4534ZM24.9052 30.431C24.6388 30.4382 24.4156 30.2294 24.4156 29.963V29.9558C24.4156 29.6822 24.6388 29.459 24.9124 29.4518C25.1788 29.459 25.3948 29.675 25.3948 29.9486C25.402 30.2078 25.1932 30.431 24.934 30.431C24.9196 30.4382 24.9124 30.4382 24.9052 30.431ZM25.3156 25.751C25.3876 25.031 25.2868 14.879 25.2868 11.8046C25.2868 11.5094 25.3156 11.2286 24.862 11.2358C24.4948 11.2358 24.4084 11.3726 24.4084 11.7182C24.4228 13.3166 24.3868 25.2758 24.3868 25.2758C24.3868 25.2758 24.3868 26.2622 24.3868 26.7806C24.214 26.8022 24.0772 26.8238 23.9332 26.8238C21.8524 26.8238 19.7716 26.867 17.6908 26.8022C17.1652 26.7878 16.6468 26.4566 16.1428 26.2406C15.5524 26.003 14.9836 25.7078 14.4508 25.3622C14.5876 25.3622 14.7244 25.3406 14.8612 25.3406L21.8308 25.3694C22.8964 25.3694 22.882 25.3694 22.882 24.3398C22.882 19.6598 22.882 14.9798 22.882 10.2998C22.882 9.90376 22.9684 9.72376 23.4148 9.73816C24.4228 9.76696 25.4308 9.75976 26.4388 9.73816C26.7772 9.73816 26.8924 9.85336 26.8924 10.1918C26.8924 13.6982 26.8924 17.2118 26.8924 20.7182C26.8924 22.5326 26.8924 24.3542 26.8924 26.1686C26.8924 26.8166 26.8924 26.8166 26.2228 26.8166C25.1932 26.8238 25.2076 26.795 25.3156 25.751ZM26.8708 29.0486C26.6044 29.0486 26.3812 28.8398 26.3812 28.5662C26.3884 28.2926 26.6116 28.0694 26.8852 28.0694C27.1516 28.0766 27.3676 28.2998 27.3604 28.5662C27.3676 28.8254 27.166 29.0414 26.9068 29.0486C26.8924 29.0558 26.878 29.0558 26.8708 29.0486ZM26.8852 7.88056C26.6188 7.88776 26.3884 7.67896 26.3812 7.41256C26.3812 7.40536 26.3812 7.39816 26.3812 7.39816C26.3884 7.13176 26.5972 6.91576 26.8708 6.90856C27.1372 6.90856 27.3532 7.12456 27.3604 7.39096C27.3748 7.65016 27.1804 7.87336 26.9212 7.88776C26.9068 7.88776 26.8924 7.88776 26.8852 7.88056ZM28.57 27.3494C28.3036 27.3494 28.0804 27.1334 28.0804 26.8598C28.0804 26.5934 28.2964 26.3702 28.57 26.3702C28.8364 26.3702 29.0596 26.5862 29.0596 26.8598C29.0524 27.1334 28.8364 27.3494 28.57 27.3494ZM28.57 9.59416C28.2964 9.59416 28.0804 9.37096 28.0804 9.10456C28.0804 8.83096 28.3036 8.61496 28.57 8.61496C28.8436 8.61496 29.0596 8.83816 29.0596 9.10456C29.0596 9.37096 28.8436 9.59416 28.57 9.59416ZM32.0764 15.5918C32.0836 15.851 31.8748 16.067 31.6156 16.0742C31.6084 16.0742 31.6012 16.0742 31.5868 16.0742C31.3204 16.0742 31.0972 15.8582 31.0972 15.5918C31.1044 15.311 31.3348 15.0878 31.6156 15.095H31.6228C31.882 15.1094 32.0764 15.3326 32.0764 15.5918ZM29.9524 10.595C30.2188 10.595 30.4348 10.811 30.442 11.0774C30.4348 11.351 30.2116 11.567 29.938 11.5742C29.6716 11.567 29.4628 11.3438 29.4628 11.0774C29.4556 10.8182 29.6644 10.6022 29.9236 10.595C29.938 10.595 29.9452 10.595 29.9596 10.595H29.9524ZM29.9524 25.3838C29.686 25.3838 29.47 25.1678 29.47 24.9014C29.4628 24.6422 29.6644 24.4262 29.9236 24.4118C29.9308 24.4118 29.938 24.4118 29.9524 24.4118C30.226 24.4046 30.4492 24.6206 30.4564 24.8942C30.4564 24.9014 30.4564 24.9014 30.4564 24.9086C30.4348 25.1678 30.2188 25.3766 29.9524 25.3838ZM30.9676 12.7694C31.234 12.7694 31.4572 12.9782 31.4644 13.2518C31.4644 13.5254 31.2412 13.7414 30.9676 13.7414C30.694 13.7414 30.478 13.5182 30.478 13.2518C30.4924 12.9854 30.7012 12.7694 30.9676 12.7694ZM30.982 23.195C30.7156 23.2022 30.4924 22.9934 30.478 22.727C30.4564 22.4534 30.658 22.2158 30.9244 22.1942C31.198 22.1726 31.4356 22.3742 31.4572 22.6406C31.4572 22.6622 31.4572 22.6838 31.4572 22.7054C31.4644 22.9718 31.2556 23.1878 30.982 23.195ZM31.5868 20.8694C31.3204 20.8622 31.1044 20.6462 31.1044 20.3798C31.1116 20.1062 31.342 19.8902 31.6228 19.8902C31.882 19.9118 32.0836 20.1278 32.0764 20.3942C32.0764 20.6534 31.8676 20.8622 31.6084 20.8622C31.6012 20.8694 31.594 20.8694 31.5868 20.8694ZM31.8172 18.4718C31.558 18.4862 31.3348 18.2846 31.3276 18.0254C31.3276 18.0182 31.3276 18.0038 31.3276 17.9966C31.2988 17.7446 31.486 17.5214 31.7308 17.4998C31.738 17.4998 31.7524 17.4998 31.7596 17.4998C32.0476 17.4782 32.2924 17.6942 32.314 17.9822C32.314 17.9894 32.314 17.9966 32.314 17.9966C32.314 18.263 32.098 18.4718 31.8388 18.4718C31.8316 18.4718 31.8316 18.4718 31.8244 18.4718H31.8172Z" fill="#004B6A"/>
</g>
<defs>
<clipPath id="clip0_1_15677">
<rect width="36" height="36" fill="white" transform="translate(0 0.00390625)"/>
</clipPath>
</defs>
</svg>
