<svg width="36" height="36" viewBox="0 0 36 36" fill="none" xmlns="http://www.w3.org/2000/svg">
<g clip-path="url(#clip0_1_15495)">
<path d="M17.9999 6.94471C20.1887 6.94471 22.3271 7.59271 24.1415 8.80951C25.9631 10.0263 27.3743 11.7543 28.2167 13.7703C29.0519 15.7935 29.2751 18.0111 28.8431 20.1567C28.4183 22.3023 27.3599 24.2751 25.8191 25.8159C24.2711 27.3639 22.3055 28.4151 20.1599 28.8399C18.0143 29.2647 15.7895 29.0487 13.7735 28.2135C11.7503 27.3783 10.0223 25.9599 8.81271 24.1383C7.59591 22.3167 6.94791 20.1783 6.94791 17.9967C6.95511 15.0663 8.12151 12.2511 10.1879 10.1847C12.2543 8.11831 15.0695 6.95191 17.9999 6.94471ZM17.9999 0.00390625C14.4431 0.00390625 10.9583 1.06231 7.99911 3.03511C5.03991 5.01511 2.73591 7.82311 1.36791 11.1135C0.00711037 14.4039 -0.34569 18.0255 0.34551 21.5175C1.03671 25.0095 2.75751 28.2135 5.27031 30.7335C7.79031 33.2535 10.9943 34.9671 14.4863 35.6583C17.9783 36.3495 21.5999 35.9967 24.8831 34.6359C28.1735 33.2751 30.9815 30.9639 32.9615 28.0047C34.9415 25.0455 35.9999 21.5607 35.9999 18.0039C35.9999 13.2303 34.1063 8.65111 30.7295 5.27431C27.3527 1.89751 22.7735 0.00390625 17.9999 0.00390625Z" fill="url(#paint0_linear_1_15495)"/>
<path d="M17.9997 32.1166C25.7901 32.1166 32.1117 25.8022 32.1117 18.0046C32.1117 10.207 25.7901 3.89258 17.9997 3.89258C10.2093 3.89258 3.8877 10.2142 3.8877 18.0046C3.8877 25.795 10.2093 32.1166 17.9997 32.1166Z" fill="white"/>
<path d="M26.0642 25.9666C24.9986 27.0322 23.7314 27.8674 22.3418 28.4362C20.945 28.9978 19.4546 29.2786 17.9498 29.257C16.4522 29.2858 14.969 29.0122 13.5866 28.4434C12.2042 27.8818 10.9442 27.0394 9.90024 25.9738C8.82744 24.9298 7.97784 23.677 7.41624 22.2874C6.84744 20.8978 6.57384 19.4146 6.60264 17.917C6.60264 14.641 7.70424 11.905 9.90024 9.72337C10.9514 8.65777 12.2042 7.81537 13.5866 7.25377C14.969 6.69217 16.4594 6.41857 17.9498 6.44737C19.4546 6.41857 20.945 6.69937 22.3418 7.26097C23.7386 7.82257 25.0058 8.66497 26.0642 9.72337C28.3106 11.905 29.441 14.641 29.441 17.917C29.4698 19.4218 29.1818 20.9122 28.6058 22.3018C28.0226 23.6842 27.1586 24.937 26.0642 25.9666Z" fill="#C8C8C8"/>
<path d="M18.0144 8.2832L12.1104 18.068L18.0144 15.3896V8.2832Z" fill="#8B8B8B"/>
<path d="M18.0144 15.3906L12.1104 18.069L18.0144 21.5538V15.3906Z" fill="#393939"/>
<path d="M18.0146 8.2832V15.3824L23.9114 18.0608L18.0146 8.2832Z" fill="#343434"/>
<path d="M18.0146 15.3906V21.5538L23.9114 18.069L18.0146 15.3906Z" fill="#161616"/>
<path d="M12.1035 19.1855L18.0075 27.4943V22.6703L12.1035 19.1855Z" fill="#8B8B8B"/>
<path d="M23.9186 19.1855L18.0146 22.6703V27.4943L23.9186 19.1855Z" fill="#343434"/>
</g>
<defs>
<linearGradient id="paint0_linear_1_15495" x1="33.6599" y1="33.6639" x2="4.85992" y2="4.86387" gradientUnits="userSpaceOnUse">
<stop offset="0.1594" stop-color="#003CDA"/>
<stop offset="1" stop-color="#33DFCC"/>
</linearGradient>
<clipPath id="clip0_1_15495">
<rect width="36" height="36" fill="white" transform="translate(0 0.00390625)"/>
</clipPath>
</defs>
</svg>
