<svg width="36" height="36" viewBox="0 0 36 36" fill="none" xmlns="http://www.w3.org/2000/svg">
<g clip-path="url(#clip0_1_15913)">
<path d="M15.9417 0.296875C18.5724 1.86842 21.0462 3.68685 23.6526 5.29864C20.4524 11.0057 17.2504 16.7144 14.0468 22.4248C12.7719 20.138 11.5773 17.8058 10.3174 15.5088C12.1317 10.4163 14.203 5.41442 15.9417 0.296875Z" fill="#F9C011"/>
<path d="M7.60547 35.7115C13.0433 25.602 18.6929 15.6035 24.0704 5.46875C25.5068 8.04786 26.9481 10.6269 28.3945 13.2059C24.2266 20.7011 20.0284 28.1761 15.8909 35.6864C13.1291 35.6863 10.3679 35.6511 7.60547 35.7115Z" fill="#DB712A"/>
<path d="M16.4102 35.6707C18.7132 31.641 20.8855 27.5408 23.2188 23.5312C24.6098 25.3497 26.0209 27.158 27.4018 28.9863C23.7531 31.2432 20.084 33.4595 16.4102 35.6707Z" fill="#B7230F"/>
</g>
<defs>
<clipPath id="clip0_1_15913">
<rect width="36" height="36" fill="white" transform="translate(0 0.00390625)"/>
</clipPath>
</defs>
</svg>
