<svg width="36" height="36" viewBox="0 0 36 36" fill="none" xmlns="http://www.w3.org/2000/svg">
<g clip-path="url(#clip0_1_15746)">
<path d="M17.9999 6.94471C20.1887 6.94471 22.3271 7.59271 24.1415 8.80951C25.9631 10.0263 27.3743 11.7543 28.2167 13.7703C29.0519 15.7935 29.2751 18.0111 28.8431 20.1567C28.4183 22.3023 27.3599 24.2751 25.8191 25.8159C24.2711 27.3639 22.3055 28.4151 20.1599 28.8399C18.0143 29.2647 15.7895 29.0487 13.7735 28.2135C11.7503 27.3783 10.0223 25.9599 8.81271 24.1383C7.59591 22.3167 6.94791 20.1783 6.94791 17.9967C6.95511 15.0663 8.12151 12.2511 10.1879 10.1847C12.2543 8.11831 15.0695 6.95191 17.9999 6.94471ZM17.9999 0.00390625C14.4431 0.00390625 10.9583 1.06231 7.99911 3.03511C5.03991 5.01511 2.73591 7.82311 1.36791 11.1135C0.00711037 14.4039 -0.34569 18.0255 0.34551 21.5175C1.03671 25.0095 2.75751 28.2135 5.27031 30.7335C7.79031 33.2535 10.9943 34.9671 14.4863 35.6583C17.9783 36.3495 21.5999 35.9967 24.8831 34.6359C28.1663 33.2751 30.9815 30.9639 32.9615 28.0047C34.9415 25.0455 35.9999 21.5607 35.9999 18.0039C35.9999 13.2303 34.1063 8.65111 30.7295 5.27431C27.3527 1.89751 22.7735 0.00390625 17.9999 0.00390625Z" fill="url(#paint0_linear_1_15746)"/>
<path d="M17.9997 32.1166C25.7901 32.1166 32.1117 25.8022 32.1117 18.0046C32.1117 10.207 25.7901 3.89258 17.9997 3.89258C10.2093 3.89258 3.8877 10.2142 3.8877 18.0046C3.8877 25.795 10.2093 32.1166 17.9997 32.1166Z" fill="white"/>
<path d="M26.0497 26.1333C24.9841 27.1989 23.7169 28.0341 22.3201 28.5957C20.9233 29.1573 19.4329 29.4381 17.9281 29.4093C16.4305 29.4381 14.9473 29.1645 13.5649 28.5957C12.1825 28.0341 10.9225 27.1917 9.8785 26.1261C8.8057 25.0821 7.9561 23.8293 7.3945 22.4397C6.8257 21.0501 6.5521 19.5669 6.5881 18.0693C6.5881 14.7933 7.6897 12.0573 9.8929 9.87572C10.9441 8.81012 12.1969 7.96772 13.5793 7.40612C14.9617 6.84452 16.4521 6.57091 17.9425 6.59971C19.4473 6.57091 20.9377 6.85172 22.3345 7.41332C23.7313 7.97492 24.9985 8.81732 26.0569 9.87572C28.3033 12.0645 29.4337 14.7933 29.4337 18.0693C29.4625 19.5741 29.1745 21.0645 28.5913 22.4541C28.0081 23.8509 27.1441 25.0965 26.0497 26.1333Z" fill="#49BC98"/>
<path d="M22.5071 13.2804L18.7487 10.5156L18.5615 10.53C18.4679 10.6452 18.3959 10.7676 18.3455 10.9044C18.0143 12.33 17.6903 13.7628 17.3663 15.1956C17.2799 15.5916 17.1863 15.9804 17.0999 16.3764C17.0711 16.5132 17.0423 16.65 17.0063 16.8084L16.9775 16.9452C17.0207 16.9236 17.0567 16.902 17.0927 16.8876C17.1359 16.866 17.1791 16.8444 17.2151 16.8228L21.2543 14.6052C21.7007 14.3604 22.1471 14.1228 22.5935 13.8708C22.6367 13.8492 22.6727 13.8132 22.7015 13.77C22.7303 13.7268 22.7447 13.6836 22.7519 13.6332C22.7591 13.5828 22.7447 13.5324 22.7303 13.4892C22.7087 13.446 22.6799 13.4028 22.6367 13.374L22.5071 13.2804Z" fill="white"/>
<path d="M13.2913 13.5977C13.0537 13.7561 12.8665 13.9865 12.7513 14.2529L12.7441 21.8849C12.8521 22.0793 12.9817 22.2593 13.1329 22.4177C13.9825 23.1089 14.8393 23.8001 15.6889 24.4841C15.9841 24.7217 16.2793 24.9593 16.5817 25.1969C16.6969 25.2905 16.8193 25.3553 16.9561 25.2689C17.0137 25.2257 17.0641 25.1681 17.0857 25.0961C17.1073 25.0241 17.1073 24.9521 17.0785 24.8873C16.6321 22.6985 16.1857 20.5169 15.7465 18.3281C15.7105 18.1625 15.7105 17.9897 15.7465 17.8169C16.1929 15.6353 16.6393 13.4537 17.0929 11.2793C17.1289 11.1209 17.1217 10.9697 16.9705 10.8833C16.8193 10.7969 16.6969 10.8833 16.5817 10.9769C16.2721 11.2217 15.9625 11.4665 15.6601 11.7113C14.8681 12.3449 14.0761 12.9713 13.2913 13.5977Z" fill="white"/>
<path d="M18.5327 25.492C18.4463 25.384 18.3743 25.2688 18.3167 25.1392C17.9711 23.62 17.6327 22.0936 17.2943 20.5744C17.2007 20.1568 17.1071 19.7392 17.0135 19.3144C17.0135 19.2712 17.0063 19.228 16.9919 19.1776C16.9847 19.1488 16.9775 19.12 16.9775 19.084C17.0063 19.0984 17.0279 19.1128 17.0567 19.12C17.1071 19.1416 17.1503 19.1632 17.1935 19.1848L22.5071 22.1152C22.8383 22.2952 22.8455 22.4968 22.5359 22.7056L18.7487 25.4488L18.7199 25.4776L18.5327 25.492Z" fill="white"/>
<path d="M17.9061 17.4862L17.1357 17.9182L17.3373 18.0406L20.8437 20.0062L22.7589 21.1006C22.9461 21.2014 23.1117 21.187 23.1909 21.0502C23.2341 20.9566 23.2557 20.8558 23.2485 20.755V15.1462C23.2485 14.7358 23.0541 14.6278 22.6941 14.8222L17.9061 17.4862Z" fill="white"/>
</g>
<defs>
<linearGradient id="paint0_linear_1_15746" x1="33.6599" y1="33.6639" x2="4.85991" y2="4.86391" gradientUnits="userSpaceOnUse">
<stop offset="0.1594" stop-color="#003CDA"/>
<stop offset="1" stop-color="#33DFCC"/>
</linearGradient>
<clipPath id="clip0_1_15746">
<rect width="36" height="36" fill="white" transform="translate(0 0.00390625)"/>
</clipPath>
</defs>
</svg>
