<svg width="36" height="36" viewBox="0 0 36 36" fill="none" xmlns="http://www.w3.org/2000/svg">
<g clip-path="url(#clip0_1_15634)">
<path d="M17.9999 6.94471C20.1887 6.94471 22.3271 7.59271 24.1415 8.80951C25.9631 10.0263 27.3743 11.7543 28.2167 13.7703C29.0519 15.7935 29.2751 18.0111 28.8431 20.1567C28.4183 22.3023 27.3599 24.2751 25.8191 25.8159C24.2711 27.3639 22.3055 28.4151 20.1599 28.8399C18.0143 29.2647 15.7895 29.0487 13.7735 28.2135C11.7503 27.3783 10.0223 25.9599 8.81271 24.1383C7.59591 22.3167 6.94791 20.1783 6.94791 17.9967C6.95511 15.0663 8.12151 12.2511 10.1879 10.1847C12.2543 8.11831 15.0695 6.95191 17.9999 6.94471ZM17.9999 0.00390625C14.4431 0.00390625 10.9583 1.06231 7.99911 3.03511C5.03991 5.01511 2.73591 7.82311 1.36791 11.1135C0.00711037 14.4039 -0.34569 18.0255 0.34551 21.5175C1.03671 25.0095 2.75751 28.2135 5.27031 30.7335C7.79031 33.2535 10.9943 34.9671 14.4863 35.6583C17.9783 36.3495 21.5999 35.9967 24.8831 34.6359C28.1735 33.2751 30.9815 30.9639 32.9615 28.0047C34.9415 25.0455 35.9999 21.5607 35.9999 18.0039C35.9999 13.2303 34.1063 8.65111 30.7295 5.27431C27.3527 1.89751 22.7735 0.00390625 17.9999 0.00390625Z" fill="url(#paint0_linear_1_15634)"/>
<path d="M17.9997 32.1166C25.7901 32.1166 32.1117 25.8022 32.1117 18.0046C32.1117 10.207 25.7901 3.89258 17.9997 3.89258C10.2093 3.89258 3.8877 10.2142 3.8877 18.0046C3.8877 25.795 10.2093 32.1166 17.9997 32.1166Z" fill="white"/>
<path d="M26.0497 26.1333C24.9841 27.1989 23.7169 28.0341 22.3201 28.5957C20.9233 29.1573 19.4329 29.4381 17.9281 29.4093C16.4305 29.4381 14.9473 29.1645 13.5649 28.5957C12.1825 28.0341 10.9225 27.1917 9.8785 26.1261C8.8057 25.0821 7.9561 23.8293 7.3945 22.4397C6.8257 21.0501 6.5521 19.5669 6.5881 18.0693C6.5881 14.7933 7.6897 12.0573 9.8929 9.87572C10.9441 8.81012 12.1969 7.96772 13.5793 7.40612C14.9617 6.84452 16.4521 6.57091 17.9425 6.59971C19.4473 6.57091 20.9377 6.85172 22.3345 7.41332C23.7313 7.97492 24.9985 8.81732 26.0569 9.87572C28.3033 12.0645 29.4337 14.7933 29.4337 18.0693C29.4625 19.5741 29.1745 21.0645 28.5913 22.4541C28.0081 23.8509 27.1441 25.0965 26.0497 26.1333Z" fill="#4160AB"/>
<path d="M18.0145 9.88281L16.5169 10.7252L12.4201 13.0508L10.9297 13.922V22.0364L12.4273 22.9076L16.5385 25.262L18.0361 26.1332L19.5265 25.262L23.5729 22.9364L25.0705 22.0652V13.9508L23.5729 13.0796L19.5121 10.7252L18.0145 9.88281ZM13.9033 20.3156V15.6284L18.0001 13.3028L22.0969 15.6644V20.3516L18.0001 22.6772L13.9033 20.3156Z" fill="white"/>
</g>
<defs>
<linearGradient id="paint0_linear_1_15634" x1="33.6599" y1="33.6638" x2="4.85995" y2="4.86389" gradientUnits="userSpaceOnUse">
<stop offset="0.1594" stop-color="#003CDA"/>
<stop offset="1" stop-color="#33DFCC"/>
</linearGradient>
<clipPath id="clip0_1_15634">
<rect width="36" height="36" fill="white" transform="translate(0 0.00390625)"/>
</clipPath>
</defs>
</svg>
