<svg width="36" height="36" viewBox="0 0 36 36" fill="none" xmlns="http://www.w3.org/2000/svg">
<g clip-path="url(#clip0_1_15543)">
<path d="M17.9569 0.183594C8.13605 0.183594 0.172852 8.14679 0.172852 17.9676C0.172852 27.7884 8.13605 35.7516 17.9569 35.7516C27.7777 35.7516 35.7409 27.7884 35.7409 17.9676C35.7409 8.14679 27.7777 0.183594 17.9569 0.183594ZM17.9569 34.4556C14.2057 34.4556 10.7569 33.2028 7.98485 31.1004C8.04965 30.3372 8.36645 28.8324 9.66245 26.8524C11.5777 23.9364 14.4361 22.446 19.0441 22.446C23.6521 22.446 26.7625 24.1308 26.9929 24.7356C27.2233 25.3332 26.1649 25.8516 26.1649 25.8516C26.1649 25.8516 27.0505 25.8228 28.2529 25.0812C29.4553 24.3396 28.5409 23.1372 28.5409 23.1372L25.3369 19.9044C25.3369 19.9044 25.3657 19.7028 24.9337 18.4716C24.5017 17.2404 23.2489 14.5836 20.3905 12.726C17.5825 10.9044 15.5881 10.6668 10.6993 10.5516C6.82565 10.458 3.92405 11.0484 2.88005 11.3004C5.44325 5.51879 11.2321 1.48679 17.9569 1.48679C27.0649 1.48679 34.4449 8.86679 34.4449 17.9748C34.4449 27.0828 27.0649 34.4556 17.9569 34.4556ZM19.8433 15.498L23.2777 18.9612H21.3625L19.7425 15.57C19.7137 15.5052 19.7929 15.4476 19.8433 15.498Z" fill="#3A3A3A"/>
</g>
<defs>
<clipPath id="clip0_1_15543">
<rect width="36" height="36" fill="white" transform="translate(0 0.00390625)"/>
</clipPath>
</defs>
</svg>
