<svg width="36" height="37" viewBox="0 0 36 37" fill="none" xmlns="http://www.w3.org/2000/svg">
<g clip-path="url(#clip0_1_15540)">
<path d="M13.9116 12.2284C15.127 12.2284 16.1123 11.253 16.1123 10.0498C16.1123 8.84652 15.127 7.87109 13.9116 7.87109C12.6962 7.87109 11.7109 8.84652 11.7109 10.0498C11.7109 11.253 12.6962 12.2284 13.9116 12.2284Z" fill="#B2A3F6"/>
<path d="M20.1978 9.73821C21.4132 9.73821 22.3984 8.76278 22.3984 7.55953C22.3984 6.35628 21.4132 5.38086 20.1978 5.38086C18.9824 5.38086 17.9971 6.35628 17.9971 7.55953C17.9971 8.76278 18.9824 9.73821 20.1978 9.73821Z" fill="#B2A3F6"/>
<path d="M22.7144 24.6757C23.9298 24.6757 24.915 23.7003 24.915 22.497C24.915 21.2938 23.9298 20.3184 22.7144 20.3184C21.499 20.3184 20.5137 21.2938 20.5137 22.497C20.5137 23.7003 21.499 24.6757 22.7144 24.6757Z" fill="#B2A3F6"/>
<path d="M1.65137 21.5634C2.3455 21.5634 2.9082 21.0062 2.9082 20.3188C2.9082 19.6314 2.3455 19.0742 1.65137 19.0742C0.957236 19.0742 0.394531 19.6314 0.394531 20.3188C0.394531 21.0062 0.957236 21.5634 1.65137 21.5634Z" fill="#B2A3F6"/>
<path d="M5.10889 29.6572C5.63016 29.6572 6.05274 29.239 6.05274 28.7231C6.05274 28.2073 5.63016 27.7891 5.10889 27.7891C4.58762 27.7891 4.16504 28.2073 4.16504 28.7231C4.16504 29.239 4.58762 29.6572 5.10889 29.6572Z" fill="#B2A3F6"/>
<path d="M15.1685 35.8799C15.6897 35.8799 16.1123 35.4617 16.1123 34.9458C16.1123 34.4299 15.6897 34.0117 15.1685 34.0117C14.6472 34.0117 14.2246 34.4299 14.2246 34.9458C14.2246 35.4617 14.6472 35.8799 15.1685 35.8799Z" fill="#B2A3F6"/>
<path d="M31.5171 30.2783C32.0384 30.2783 32.4609 29.8601 32.4609 29.3442C32.4609 28.8284 32.0384 28.4102 31.5171 28.4102C30.9958 28.4102 30.5732 28.8284 30.5732 29.3442C30.5732 29.8601 30.9958 30.2783 31.5171 30.2783Z" fill="#B2A3F6"/>
<path d="M21.4575 28.4131C21.9788 28.4131 22.4014 27.9949 22.4014 27.479C22.4014 26.9631 21.9788 26.5449 21.4575 26.5449C20.9362 26.5449 20.5137 26.9631 20.5137 27.479C20.5137 27.9949 20.9362 28.4131 21.4575 28.4131Z" fill="#B2A3F6"/>
<path d="M27.1157 24.0556C27.637 24.0556 28.0596 23.6374 28.0596 23.1216C28.0596 22.6057 27.637 22.1875 27.1157 22.1875C26.5945 22.1875 26.1719 22.6057 26.1719 23.1216C26.1719 23.6374 26.5945 24.0556 27.1157 24.0556Z" fill="#B2A3F6"/>
<path d="M20.5137 35.8798C21.2078 35.8798 21.7705 35.3226 21.7705 34.6352C21.7705 33.9479 21.2078 33.3906 20.5137 33.3906C19.8195 33.3906 19.2568 33.9479 19.2568 34.6352C19.2568 35.3226 19.8195 35.8798 20.5137 35.8798Z" fill="#B2A3F6"/>
<path d="M26.1719 20.3193C26.866 20.3193 27.4287 19.7621 27.4287 19.0747C27.4287 18.3873 26.866 17.8301 26.1719 17.8301C25.4777 17.8301 24.915 18.3873 24.915 19.0747C24.915 19.7621 25.4777 20.3193 26.1719 20.3193Z" fill="#B2A3F6"/>
<path d="M28.0596 32.7666C28.7537 32.7666 29.3164 32.2093 29.3164 31.5219C29.3164 30.8346 28.7537 30.2773 28.0596 30.2773C27.3654 30.2773 26.8027 30.8346 26.8027 31.5219C26.8027 32.2093 27.3654 32.7666 28.0596 32.7666Z" fill="#B2A3F6"/>
<path d="M3.2207 26.5439C4.08904 26.5439 4.79296 25.8476 4.79296 24.9887C4.79296 24.1299 4.08904 23.4336 3.2207 23.4336C2.35236 23.4336 1.64844 24.1299 1.64844 24.9887C1.64844 25.8476 2.35236 26.5439 3.2207 26.5439Z" fill="#B2A3F6"/>
<path d="M18.313 32.7675C19.5284 32.7675 20.5137 31.7921 20.5137 30.5888C20.5137 29.3856 19.5284 28.4102 18.313 28.4102C17.0976 28.4102 16.1123 29.3856 16.1123 30.5888C16.1123 31.7921 17.0976 32.7675 18.313 32.7675Z" fill="#B2A3F6"/>
<path d="M6.36573 22.1874C7.58113 22.1874 8.56641 21.212 8.56641 20.0088C8.56641 18.8055 7.58113 17.8301 6.36573 17.8301C5.15032 17.8301 4.16504 18.8055 4.16504 20.0088C4.16504 21.212 5.15032 22.1874 6.36573 22.1874Z" fill="#B2A3F6"/>
<path d="M18.3135 27.165C19.1818 27.165 19.8857 26.4687 19.8857 25.6098C19.8857 24.751 19.1818 24.0547 18.3135 24.0547C17.4451 24.0547 16.7412 24.751 16.7412 25.6098C16.7412 26.4687 17.4451 27.165 18.3135 27.165Z" fill="#B2A3F6"/>
<path d="M10.7671 13.4736C11.2884 13.4736 11.7109 13.0554 11.7109 12.5395C11.7109 12.0237 11.2884 11.6055 10.7671 11.6055C10.2458 11.6055 9.82324 12.0237 9.82324 12.5395C9.82324 13.0554 10.2458 13.4736 10.7671 13.4736Z" fill="#B2A3F6"/>
<path d="M16.7407 17.2089C17.7819 17.2089 18.626 16.3725 18.626 15.3408C18.626 14.3091 17.7819 13.4727 16.7407 13.4727C15.6995 13.4727 14.8555 14.3091 14.8555 15.3408C14.8555 16.3725 15.6995 17.2089 16.7407 17.2089Z" fill="#B2A3F6"/>
<path d="M21.1416 19.0732C21.8357 19.0732 22.3984 18.516 22.3984 17.8286C22.3984 17.1412 21.8357 16.584 21.1416 16.584C20.4475 16.584 19.8848 17.1412 19.8848 17.8286C19.8848 18.516 20.4475 19.0732 21.1416 19.0732Z" fill="#B2A3F6"/>
<path d="M23.3423 3.51463C23.8636 3.51463 24.2861 3.09643 24.2861 2.58055C24.2861 2.06468 23.8636 1.64648 23.3423 1.64648C22.821 1.64648 22.3984 2.06468 22.3984 2.58055C22.3984 3.09643 22.821 3.51463 23.3423 3.51463Z" fill="#B2A3F6"/>
<path d="M18.9414 3.51265C19.8097 3.51265 20.5137 2.81639 20.5137 1.9575C20.5137 1.09861 19.8097 0.402344 18.9414 0.402344C18.0731 0.402344 17.3691 1.09861 17.3691 1.9575C17.3691 2.81639 18.0731 3.51265 18.9414 3.51265Z" fill="#B2A3F6"/>
<path d="M19.8848 13.4716C20.5789 13.4716 21.1416 12.9144 21.1416 12.227C21.1416 11.5397 20.5789 10.9824 19.8848 10.9824C19.1906 10.9824 18.6279 11.5397 18.6279 12.227C18.6279 12.9144 19.1906 13.4716 19.8848 13.4716Z" fill="#B2A3F6"/>
<path d="M7.93798 27.1679C8.97917 27.1679 9.82323 26.3315 9.82323 25.2998C9.82323 24.268 8.97917 23.4316 7.93798 23.4316C6.89679 23.4316 6.05273 24.268 6.05273 25.2998C6.05273 26.3315 6.89679 27.1679 7.93798 27.1679Z" fill="#B2A3F6"/>
<path d="M26.1724 29.0332C27.2136 29.0332 28.0576 28.1968 28.0576 27.165C28.0576 26.1333 27.2136 25.2969 26.1724 25.2969C25.1312 25.2969 24.2871 26.1333 24.2871 27.165C24.2871 28.1968 25.1312 29.0332 26.1724 29.0332Z" fill="#B2A3F6"/>
<path d="M23.6587 33.3906C24.6999 33.3906 25.5439 32.5542 25.5439 31.5224C25.5439 30.4907 24.6999 29.6543 23.6587 29.6543C22.6175 29.6543 21.7734 30.4907 21.7734 31.5224C21.7734 32.5542 22.6175 33.3906 23.6587 33.3906Z" fill="#B2A3F6"/>
<path d="M8.88135 33.3906C10.0968 33.3906 11.082 32.4151 11.082 31.2119C11.082 30.0086 10.0968 29.0332 8.88135 29.0332C7.66594 29.0332 6.68066 30.0086 6.68066 31.2119C6.68066 32.4151 7.66594 33.3906 8.88135 33.3906Z" fill="#B2A3F6"/>
<path d="M2.27978 17.2089C3.32097 17.2089 4.16503 16.3725 4.16503 15.3408C4.16503 14.3091 3.32097 13.4727 2.27978 13.4727C1.23859 13.4727 0.394531 14.3091 0.394531 15.3408C0.394531 16.3725 1.23859 17.2089 2.27978 17.2089Z" fill="#B2A3F6"/>
<path d="M11.7104 20.3183C13.1001 20.3183 14.2266 19.2038 14.2266 17.8291C14.2266 16.4543 13.1001 15.3398 11.7104 15.3398C10.3208 15.3398 9.19434 16.4543 9.19434 17.8291C9.19434 19.2038 10.3208 20.3183 11.7104 20.3183Z" fill="#FC4C04"/>
<path d="M24.9155 16.5839C26.3051 16.5839 27.4316 15.4695 27.4316 14.0947C27.4316 12.7199 26.3051 11.6055 24.9155 11.6055C23.5259 11.6055 22.3994 12.7199 22.3994 14.0947C22.3994 15.4695 23.5259 16.5839 24.9155 16.5839Z" fill="#FC4C04"/>
<path d="M31.8296 27.1679C32.8708 27.1679 33.7149 26.3315 33.7149 25.2998C33.7149 24.268 32.8708 23.4316 31.8296 23.4316C30.7884 23.4316 29.9443 24.268 29.9443 25.2998C29.9443 26.3315 30.7884 27.1679 31.8296 27.1679Z" fill="#FC4C04"/>
<path d="M33.7173 19.6972C34.7585 19.6972 35.6026 18.8608 35.6026 17.8291C35.6026 16.7973 34.7585 15.9609 33.7173 15.9609C32.6761 15.9609 31.832 16.7973 31.832 17.8291C31.832 18.8608 32.6761 19.6972 33.7173 19.6972Z" fill="#FC4C04"/>
<path d="M26.4873 10.9834C27.3556 10.9834 28.0596 10.2871 28.0596 9.4282C28.0596 8.56931 27.3556 7.87305 26.4873 7.87305C25.619 7.87305 24.915 8.56931 24.915 9.4282C24.915 10.2871 25.619 10.9834 26.4873 10.9834Z" fill="#FC4C04"/>
<path d="M26.8008 6.00483C27.4949 6.00483 28.0576 5.44761 28.0576 4.76023C28.0576 4.07285 27.4949 3.51562 26.8008 3.51562C26.1066 3.51562 25.5439 4.07285 25.5439 4.76023C25.5439 5.44761 26.1066 6.00483 26.8008 6.00483Z" fill="#FC4C04"/>
<path d="M29.6294 7.249C30.1507 7.249 30.5732 6.8308 30.5732 6.31493C30.5732 5.79906 30.1507 5.38086 29.6294 5.38086C29.1081 5.38086 28.6855 5.79906 28.6855 6.31493C28.6855 6.8308 29.1081 7.249 29.6294 7.249Z" fill="#FC4C04"/>
<path d="M34.6616 14.7177C35.1829 14.7177 35.6055 14.2996 35.6055 13.7837C35.6055 13.2678 35.1829 12.8496 34.6616 12.8496C34.1403 12.8496 33.7178 13.2678 33.7178 13.7837C33.7178 14.2996 34.1403 14.7177 34.6616 14.7177Z" fill="#FC4C04"/>
<path d="M7.62256 6.62791C8.14383 6.62791 8.56641 6.20971 8.56641 5.69384C8.56641 5.17796 8.14383 4.75977 7.62256 4.75977C7.10129 4.75977 6.67871 5.17796 6.67871 5.69384C6.67871 6.20971 7.10129 6.62791 7.62256 6.62791Z" fill="#FC4C04"/>
<path d="M6.36573 14.7177C6.887 14.7177 7.30958 14.2996 7.30958 13.7837C7.30958 13.2678 6.887 12.8496 6.36573 12.8496C5.84445 12.8496 5.42188 13.2678 5.42188 13.7837C5.42188 14.2996 5.84445 14.7177 6.36573 14.7177Z" fill="#FC4C04"/>
<path d="M8.88135 15.9638C9.40262 15.9638 9.8252 15.5456 9.8252 15.0298C9.8252 14.5139 9.40262 14.0957 8.88135 14.0957C8.36008 14.0957 7.9375 14.5139 7.9375 15.0298C7.9375 15.5456 8.36008 15.9638 8.88135 15.9638Z" fill="#FC4C04"/>
<path d="M12.0239 4.13572C12.5452 4.13572 12.9678 3.71752 12.9678 3.20165C12.9678 2.68578 12.5452 2.26758 12.0239 2.26758C11.5027 2.26758 11.0801 2.68578 11.0801 3.20165C11.0801 3.71752 11.5027 4.13572 12.0239 4.13572Z" fill="#FC4C04"/>
<path d="M34.6616 22.8095C35.1829 22.8095 35.6055 22.3913 35.6055 21.8755C35.6055 21.3596 35.1829 20.9414 34.6616 20.9414C34.1403 20.9414 33.7178 21.3596 33.7178 21.8755C33.7178 22.3913 34.1403 22.8095 34.6616 22.8095Z" fill="#FC4C04"/>
<path d="M31.5171 12.8515C32.7325 12.8515 33.7178 11.8761 33.7178 10.6728C33.7178 9.46957 32.7325 8.49414 31.5171 8.49414C30.3017 8.49414 29.3164 9.46957 29.3164 10.6728C29.3164 11.8761 30.3017 12.8515 31.5171 12.8515Z" fill="#FC4C04"/>
<path d="M29.6299 17.8291C30.4982 17.8291 31.2021 17.1328 31.2021 16.2739C31.2021 15.415 30.4982 14.7188 29.6299 14.7188C28.7615 14.7188 28.0576 15.415 28.0576 16.2739C28.0576 17.1328 28.7615 17.8291 29.6299 17.8291Z" fill="#FC4C04"/>
<path d="M8.25292 10.9834C9.12126 10.9834 9.82519 10.2871 9.82519 9.4282C9.82519 8.56931 9.12126 7.87305 8.25292 7.87305C7.38459 7.87305 6.68066 8.56931 6.68066 9.4282C6.68066 10.2871 7.38459 10.9834 8.25292 10.9834Z" fill="#FC4C04"/>
<path d="M15.168 6.62593C16.0363 6.62593 16.7402 5.92967 16.7402 5.07078C16.7402 4.21189 16.0363 3.51562 15.168 3.51562C14.2996 3.51562 13.5957 4.21189 13.5957 5.07078C13.5957 5.92967 14.2996 6.62593 15.168 6.62593Z" fill="#FC4C04"/>
<path d="M11.082 7.24897C11.7762 7.24897 12.3389 6.69175 12.3389 6.00437C12.3389 5.31699 11.7762 4.75977 11.082 4.75977C10.3879 4.75977 9.8252 5.31699 9.8252 6.00437C9.8252 6.69175 10.3879 7.24897 11.082 7.24897Z" fill="#FC4C04"/>
<path d="M4.16504 12.2275C4.85917 12.2275 5.42188 11.6703 5.42188 10.9829C5.42188 10.2955 4.85917 9.73828 4.16504 9.73828C3.47091 9.73828 2.9082 10.2955 2.9082 10.9829C2.9082 11.6703 3.47091 12.2275 4.16504 12.2275Z" fill="#FC4C04"/>
<path d="M30.5732 22.1865C31.2674 22.1865 31.8301 21.6292 31.8301 20.9419C31.8301 20.2545 31.2674 19.6973 30.5732 19.6973C29.8791 19.6973 29.3164 20.2545 29.3164 20.9419C29.3164 21.6292 29.8791 22.1865 30.5732 22.1865Z" fill="#FC4C04"/>
<path d="M17.0562 22.8105C18.2716 22.8105 19.2568 21.835 19.2568 20.6318C19.2568 19.4286 18.2716 18.4531 17.0562 18.4531C15.8407 18.4531 14.8555 19.4286 14.8555 20.6318C14.8555 21.835 15.8407 22.8105 17.0562 22.8105Z" fill="#FC4C04"/>
<path d="M12.9678 24.0537C13.6619 24.0537 14.2246 23.4964 14.2246 22.8091C14.2246 22.1217 13.6619 21.5645 12.9678 21.5645C12.2736 21.5645 11.7109 22.1217 11.7109 22.8091C11.7109 23.4964 12.2736 24.0537 12.9678 24.0537Z" fill="#FC4C04"/>
<path d="M13.5962 29.0332C14.6374 29.0332 15.4814 28.1968 15.4814 27.165C15.4814 26.1333 14.6374 25.2969 13.5962 25.2969C12.555 25.2969 11.7109 26.1333 11.7109 27.165C11.7109 28.1968 12.555 29.0332 13.5962 29.0332Z" fill="#FC4C04"/>
<path d="M13.5957 32.7666C14.2898 32.7666 14.8525 32.2093 14.8525 31.5219C14.8525 30.8346 14.2898 30.2773 13.5957 30.2773C12.9016 30.2773 12.3389 30.8346 12.3389 31.5219C12.3389 32.2093 12.9016 32.7666 13.5957 32.7666Z" fill="#FC4C04"/>
</g>
<defs>
<clipPath id="clip0_1_15540">
<rect width="36" height="36.2757" fill="white" transform="translate(0 0.00390625)"/>
</clipPath>
</defs>
</svg>
