<svg width="36" height="37" viewBox="0 0 36 37" fill="none" xmlns="http://www.w3.org/2000/svg">
<g clip-path="url(#clip0_1_15538)">
<path d="M17.9998 0.693359L2.76953 9.48629V27.0721L17.9998 35.8649L33.23 27.072V9.48622L17.9998 0.693359ZM18.3112 29.1772L6.62117 22.5098L6.66854 19.2674L18.3044 25.9281L23.9159 22.6925L20.1523 20.5197L18.7443 21.332L16.1044 19.8158L17.5192 18.9967L15.6712 17.9272L14.5543 18.577L11.9077 17.0608L13.0313 16.411L7.06786 12.9655L18.3044 6.48086L28.9046 12.5256L26.0616 14.1772L18.3043 9.72994L12.6929 12.9655L15.8336 14.7796L17.4379 13.8455L20.0845 15.3617L18.4668 16.2958L20.3147 17.3653L21.6279 16.6004L24.2746 18.1166L22.9478 18.8883L29.5273 22.6858L18.3112 29.1772Z" fill="black"/>
</g>
<defs>
<clipPath id="clip0_1_15538">
<rect width="36" height="36" fill="white" transform="translate(0 0.279297)"/>
</clipPath>
</defs>
</svg>
