<svg width="36" height="37" viewBox="0 0 36 37" fill="none" xmlns="http://www.w3.org/2000/svg">
<path d="M26.125 31.0602C26.0219 29.9233 27.1261 29.1326 28.0505 29.1589C29.2118 29.1921 30.0312 29.9882 30.0275 31.0345C30.0238 32.1147 29.1606 32.8713 28.0433 32.9031C27.1212 32.9292 26.0406 32.1184 26.125 31.0602ZM24.5398 2.98635C24.0137 3.38595 23.744 4.15656 23.8789 4.76575C24.1752 6.10445 25.7964 6.74561 27.0086 5.89363C27.5787 5.49303 27.8765 4.91163 27.7826 4.22064C27.6423 3.18874 26.8549 2.56651 25.8 2.57033C25.3078 2.57206 24.9139 2.70209 24.5398 2.98635ZM1.332 18.1649C0.806181 18.608 0.585645 19.1841 0.705813 19.8839C0.895173 20.9866 2.00894 21.7033 3.28356 21.319C4.35664 20.9954 4.9996 19.7599 4.35924 18.6735C3.97944 18.0292 3.40056 17.7079 2.59668 17.7251C2.14322 17.68 1.70013 17.8546 1.332 18.1649ZM22.128 32.3507C22.1271 31.3318 21.3254 30.7812 20.4577 30.7512C19.5471 30.7198 18.7725 31.5041 18.7661 32.352C18.7597 33.2131 19.5347 33.9434 20.4552 33.9435C21.3789 33.9437 22.1289 33.2327 22.128 32.3507ZM29.1376 10.0118C29.1422 10.8669 29.9583 11.6262 30.8338 11.6081C31.7515 11.5891 32.5091 10.8521 32.4999 9.98734C32.4905 9.11268 31.729 8.40168 30.8061 8.40593C30.0665 8.36633 29.1322 9.00814 29.1376 10.0118ZM6.88104 18.2148C7.77614 18.2792 8.65951 17.4422 8.6117 16.5805C8.56022 15.6523 7.83712 15.07 6.95469 15.0177C6.01099 14.9617 5.16628 15.8478 5.26168 16.5759C5.18508 17.3394 5.76 18.1341 6.88104 18.2148ZM6.91862 12.6441C6.88348 11.7958 6.19552 11.074 5.19386 11.0917C4.29012 11.1077 3.54794 11.8292 3.56889 12.6605C3.59229 13.5913 4.25837 14.2423 5.23915 14.2387C6.18473 14.2353 6.95563 13.5379 6.91862 12.6441ZM26.4226 10.9974C27.3146 10.9819 28.1024 10.2537 28.0705 9.42077C28.0346 8.48218 27.266 7.83504 26.3675 7.84289C25.3035 7.85218 24.6401 8.70214 24.7182 9.4441C24.7246 10.3368 25.4677 11.0141 26.4226 10.9974ZM21.5441 28.9971C21.5421 29.7549 21.9035 30.2373 22.7186 30.5191C23.3703 30.7446 24.2384 30.4361 24.6076 29.8781C24.9459 29.3669 24.9808 28.8207 24.7138 28.2851C24.4166 27.6888 23.8874 27.4357 23.1751 27.4316C22.3533 27.3662 21.5468 27.9875 21.5441 28.9971ZM12.4592 32.0624C12.4565 32.7974 13.1028 33.4236 13.8833 33.4213C14.6962 33.4189 15.3148 32.908 15.3431 32.0354C15.3669 31.3016 14.6628 30.7012 13.8876 30.7063C13.1034 30.7115 12.4619 31.3205 12.4592 32.0624ZM27.2881 13.6473C27.2783 12.8933 26.5825 12.2707 25.7769 12.2952C24.9998 12.3186 24.3647 12.9596 24.3935 13.691C24.4233 14.4439 25.066 15.0265 25.8543 15.0152C26.618 15.0042 27.2974 14.3559 27.2881 13.6473ZM7.34896 7.45186C7.35861 8.19497 8.01964 8.80445 8.7989 8.78875C9.57117 8.7732 10.2139 8.13334 10.2008 7.39318C10.1876 6.64956 9.53928 6.06139 8.74339 6.07097C7.956 6.08047 7.3391 6.69139 7.34896 7.45186ZM11.0975 16.3056C11.8655 16.275 12.5226 15.6246 12.5136 14.904C12.5047 14.183 11.8271 13.5828 11.031 13.5907C10.201 13.5989 9.64404 14.1571 9.65577 14.9689C9.66679 15.7236 10.3275 16.3362 11.0975 16.3056ZM30.5155 15.55C31.4394 15.4687 32.0689 14.3876 31.4984 13.5216C31.1881 13.0506 30.7308 12.8956 30.2323 12.8789C29.4723 12.8536 28.9037 13.4736 28.8562 14.2142C28.8156 14.8453 29.3714 15.5848 30.1932 15.5703C30.3006 15.5637 30.4083 15.5594 30.5155 15.55ZM18.2691 29.7533C18.2281 29.0344 17.6289 28.42 16.8892 28.3996C16.1298 28.3787 15.3724 29.0809 15.4144 29.8085C15.4588 30.5778 16.0992 31.1715 16.8851 31.1172C17.6411 31.1622 18.3129 30.5207 18.2691 29.7533ZM35.2487 15.5356C35.2143 14.7722 34.6375 14.127 33.8465 14.1625C33.0072 14.2001 32.4341 14.7234 32.4009 15.5177C32.3718 16.2151 32.9995 16.8984 33.827 16.8587C34.6925 16.9062 35.2783 16.1918 35.2487 15.5356ZM18.2087 26.4627C18.2453 27.1983 18.8282 27.7823 19.5883 27.7939C20.3642 27.8059 21.1204 27.1136 21.0652 26.3971C21.0067 25.6388 20.3998 25.0504 19.5883 25.0981C18.8253 25.0583 18.1703 25.6943 18.2087 26.4627ZM9.7164 12.2942C10.3794 12.1725 10.9046 11.4947 10.8101 10.845C10.6583 9.80107 9.36144 9.28368 8.50788 9.90994C8.02648 10.2631 7.8305 10.891 8.0244 11.4588C8.20519 11.9882 8.74368 12.3255 9.45273 12.317C9.50292 12.313 9.61149 12.3135 9.7164 12.2942ZM10.2045 29.2687C10.1953 29.9187 10.7639 30.4463 11.4711 30.4442C12.1218 30.4423 12.6723 29.8981 12.6626 29.2664C12.653 28.6386 12.0966 28.1198 11.433 28.12C10.7684 28.1201 10.2133 28.6391 10.2045 29.2687ZM24.5301 15.9071C23.892 15.9039 23.2865 16.5062 23.2931 17.0502C23.3011 17.697 23.8775 18.2613 24.5506 18.2446C25.1988 18.2285 25.7516 17.6844 25.7522 17.0616C25.7555 16.4616 25.1439 15.9101 24.5301 15.9071ZM13.1763 9.18886C12.5387 9.20441 11.9696 9.62093 11.9061 10.3251C11.8505 10.9418 12.4246 11.4885 13.1027 11.5151C13.7669 11.5412 14.3338 11.0301 14.3498 10.3908C14.4316 9.76983 13.761 9.17453 13.1763 9.18886ZM30.1769 17.6506C30.1288 16.9965 29.6441 16.4836 28.9675 16.4704C28.362 16.4586 27.7376 17.0538 27.7279 17.6518C27.7181 18.2614 28.2918 18.7847 28.9703 18.7849C29.5708 18.8659 30.2226 18.2733 30.1769 17.6506ZM16.0383 14.3021C16.0392 13.6174 15.5612 13.168 14.8343 13.1702C14.1676 13.1722 13.5845 13.7023 13.585 14.3059C13.5855 14.9138 14.1605 15.4333 14.8318 15.4321C15.5599 15.4309 16.0373 14.9838 16.0383 14.3021ZM15.637 27.0058C15.6367 26.3902 15.0707 25.8752 14.3952 25.8762C13.6608 25.8772 13.1864 26.3177 13.1832 27.0013C13.1802 27.6553 13.6878 28.1287 14.3966 28.1331C15.0696 28.1372 15.6372 27.6214 15.637 27.0058ZM15.9137 23.6528C15.9187 24.2711 16.4786 24.7712 17.1658 24.7712C17.8945 24.7712 18.3712 24.3219 18.3689 23.6372C18.3666 22.9815 17.8577 22.5166 17.1442 22.5185C16.4676 22.5205 15.9087 23.0356 15.9137 23.6528ZM33.7635 18.9763C33.7258 18.2604 33.2478 17.7844 32.502 17.7728C31.9588 17.7643 31.2859 18.2219 31.3279 18.9711C31.3648 19.6284 31.8501 20.0868 32.5684 20.0802C33.2169 20.0741 33.7949 19.5749 33.7635 18.9763ZM11.344 6.82747C11.3597 7.50233 11.8606 7.93771 12.5949 7.91489C13.2826 7.89351 13.7346 7.43983 13.7307 6.7747C13.7267 6.08832 13.2414 5.64185 12.5123 5.65359C11.7971 5.66503 11.3278 6.13656 11.344 6.82747ZM23.8038 19.6644C23.819 19.1177 23.3692 18.6747 22.7763 18.6526C22.2161 18.6317 21.7392 19.0778 21.7328 19.6288C21.7257 20.243 22.0935 20.6044 22.7357 20.6143C23.3329 20.6233 23.7884 20.2183 23.8038 19.6644ZM19.139 14.4668C19.1299 13.9089 18.6687 13.4646 18.0973 13.4634C17.523 13.4622 17.0611 13.901 17.0597 14.4491C17.0581 15.0643 17.4281 15.4203 18.0723 15.4233C18.6637 15.426 19.1475 14.9923 19.139 14.4668ZM10.981 26.5004C10.9652 25.9406 10.4931 25.5089 9.92037 25.5303C9.36057 25.5511 8.89552 26.0255 8.9056 26.5654C8.91504 27.0745 9.43574 27.5381 9.99295 27.5335C10.5711 27.5288 10.9975 27.083 10.981 26.5004ZM14.6174 20.8715C14.5963 21.4129 15.0691 21.8758 15.6553 21.8876C16.2173 21.8989 16.6745 21.4924 16.6941 20.9641C16.717 20.3465 16.3354 19.9421 15.7189 19.9305C15.1127 19.9192 14.6387 20.3242 14.6174 20.8715ZM26.1507 20.2342C26.142 20.7848 26.6126 21.2291 27.1966 21.2387C27.7779 21.2483 28.261 20.7179 28.2306 20.2267C28.1968 19.6811 27.8083 19.2858 27.2256 19.2777C26.6203 19.2694 26.1594 19.6794 26.1507 20.2342ZM15.3655 10.5109C15.3891 11.0471 15.7933 11.4902 16.3378 11.511C16.9019 11.5326 17.4269 11.0861 17.4509 10.5645C17.476 10.0176 17.0137 9.56283 16.4267 9.55692C15.9116 9.49363 15.3401 9.93147 15.3655 10.5109ZM16.8167 6.99336C16.8319 6.41707 16.391 5.9508 15.8261 5.94569C15.2353 5.94029 14.7486 6.37423 14.7398 6.91423C14.7306 7.46979 15.1867 7.90467 15.7796 7.90582C16.3698 7.90704 16.8026 7.52623 16.8167 6.99336ZM11.8868 24.2262C11.8781 24.8188 12.3476 25.2642 12.9688 25.2526C13.5109 25.2425 13.9591 24.7963 13.9594 24.2664C13.9599 23.7054 13.5114 23.2935 12.9043 23.2973C12.3213 23.3009 11.8946 23.6904 11.8868 24.2262ZM29.7479 21.5668C29.76 22.091 30.2126 22.5269 30.7511 22.5328C31.308 22.539 31.7958 22.0798 31.8125 21.5335C31.8292 20.9915 31.3577 20.5636 30.7495 20.5687C30.1136 20.5742 29.7339 20.9525 29.7479 21.5668ZM28.7446 22.5295C28.2844 22.5361 27.8482 22.952 27.8563 23.3765C27.8641 23.7874 28.3241 24.2078 28.7744 24.2157C29.2835 24.2245 29.658 23.8378 29.6492 23.3125C29.6414 22.8383 29.2758 22.5219 28.7446 22.5295ZM15.9027 18.379C15.9243 17.9297 15.4546 17.4771 14.9802 17.4903C14.5287 17.5028 14.0888 17.933 14.0964 18.3545C14.1049 18.8222 14.4878 19.1769 14.9904 19.1825C15.5011 19.1884 15.8798 18.8547 15.9027 18.379ZM19.8258 15.2159C19.828 15.6382 20.3092 16.0572 20.7474 16.0441C21.2249 16.0298 21.5816 15.6494 21.6225 15.189C21.6596 14.7731 21.2195 14.2934 20.7607 14.361C20.1709 14.303 19.824 14.8517 19.8258 15.2159ZM19.3483 7.7089C19.3712 7.25652 18.9811 6.858 18.5016 6.84389C17.9566 6.82783 17.5991 7.12123 17.5787 7.60147C17.556 8.13139 17.911 8.51847 18.4274 8.52703C18.8969 8.53488 19.3259 8.15371 19.3483 7.7089ZM19.9259 11.2411C19.9268 10.7935 19.5069 10.3684 19.0673 10.3716C18.603 10.375 18.1501 10.7734 18.1328 11.1937C18.1124 11.6855 18.5076 12.0545 19.0544 12.0545C19.5828 12.0544 19.925 11.735 19.9259 11.2411ZM11.3682 21.7068C11.3696 22.215 11.756 22.5434 12.2974 22.5531C12.7135 22.5606 13.1643 22.1152 13.1559 21.6728C13.1478 21.2486 12.6794 20.8513 12.2258 20.8562C11.7311 20.8615 11.3669 21.2227 11.3682 21.7068ZM8.38188 23.9851C8.35516 24.3448 8.77795 24.8205 9.26265 24.858C9.71985 24.8934 10.1996 24.4239 10.1918 23.9713C10.1838 23.5082 9.79992 23.1727 9.28058 23.1747C8.7598 23.1767 8.41723 23.5081 8.38188 23.9851ZM26.1223 22.1013C26.1502 21.672 25.7301 21.2498 25.262 21.2365C24.7058 21.2208 24.331 21.5557 24.3313 22.0683C24.3316 22.5467 24.7036 22.9146 25.1929 22.9202C25.6475 22.9253 26.0944 22.5315 26.1223 22.1013ZM20.7902 20.6201C20.372 20.5641 19.9422 20.9696 19.908 21.3872C19.8655 21.9046 20.1725 22.265 20.6808 22.2943C21.219 22.3253 21.5918 22.0348 21.6279 21.5562C21.6654 20.9583 21.3445 20.6944 20.7902 20.6201ZM21.1314 11.6246C20.7062 11.6142 20.3437 11.9115 20.3255 12.2854C20.3065 12.6763 20.7023 13.0661 21.1111 13.0591C21.5117 13.0522 21.866 12.714 21.8686 12.3362C21.8717 11.9101 21.5873 11.6357 21.1314 11.6246ZM26.7796 25.2444C27.1395 25.2438 27.5251 24.8718 27.5436 24.5071C27.5619 24.1464 27.1959 23.8117 26.7767 23.8059C26.3017 23.7992 26.0255 24.0411 26.0155 24.4724C26.0057 24.8965 26.3508 25.2452 26.7796 25.2444ZM20.5083 8.01843C20.0553 8.01864 19.7092 8.35762 19.7354 8.77551C19.7613 9.18778 20.0718 9.45216 20.5218 9.44503C20.9841 9.43776 21.2512 9.17525 21.244 8.73497C21.2372 8.30686 20.9409 8.01828 20.5083 8.01843ZM12.2316 18.7744C11.7654 18.762 11.4196 19.0746 11.4299 19.4992C11.4396 19.893 11.7754 20.1998 12.1997 20.2023C12.6388 20.205 12.93 19.9277 12.9406 19.4971C12.9513 19.0536 12.6894 18.7867 12.2316 18.7744ZM22.4091 23.2479C22.4248 23.6068 22.8199 23.9634 23.1966 23.9538C23.5696 23.9443 23.9805 23.5647 23.9532 23.2273C23.9178 22.792 23.6796 22.5281 23.2183 22.5191C22.774 22.5104 22.3921 22.8545 22.4091 23.2479ZM8.50197 21.7612C8.50327 22.1502 8.84318 22.504 9.22514 22.5142C9.60919 22.5243 10.0421 22.1042 10.0244 21.7385C10.0071 21.3796 9.61329 21.027 9.23184 21.0288C8.82712 21.0306 8.50068 21.3582 8.50197 21.7612ZM24.2066 25.095C24.2006 25.3963 24.5079 25.7281 24.8284 25.7257C25.2097 25.7229 25.5333 25.3839 25.508 25.0861C25.4777 24.7288 25.2641 24.4889 24.8944 24.4819C24.5024 24.4747 24.214 24.7318 24.2066 25.095ZM9.02621 19.9045C9.02685 20.2513 9.3366 20.5584 9.67737 20.55C10.006 20.5419 10.346 20.19 10.3224 19.8824C10.296 19.5374 9.98755 19.2814 9.61588 19.2961C9.25552 19.3103 9.02556 19.5476 9.02621 19.9045ZM22.6463 10.0346C22.6567 9.66543 22.3871 9.41717 21.9787 9.41991C21.5959 9.4225 21.3563 9.64332 21.3494 10.0002C21.3417 10.3887 21.5877 10.6155 22.01 10.6093C22.3942 10.6036 22.6364 10.385 22.6463 10.0346Z" fill="black"/>
</svg>
