<svg width="36" height="37" viewBox="0 0 36 37" fill="none" xmlns="http://www.w3.org/2000/svg">
<path d="M21.554 9.57413L14.4463 5.61132L21.554 1.64844V9.57413Z" fill="#32DFC5"/>
<path d="M13.5881 12.8084L6.48047 8.84562L13.5881 4.88281V12.8084Z" fill="#67E9D1"/>
<path d="M12.4631 20.2714L5.35547 16.3085L12.4631 12.3457V20.2714Z" fill="#0BDBB5"/>
<path d="M7.33809 27.3201L0.230469 23.3573L7.33809 19.3945V27.3201Z" fill="#72EBD6"/>
<path d="M20.132 32.828L13.0244 28.8652L20.132 24.9023V32.828Z" fill="#99EFE9"/>
<path d="M35.7688 25.4257L28.6611 21.4628L35.7688 17.5V25.4257Z" fill="#1DD7D6"/>
<path d="M35.7688 17.4998L28.6611 13.537L35.7688 9.57422V17.4998Z" fill="#00D4CD"/>
<path d="M28.6613 13.5369L21.5537 9.57414L28.6613 5.61133V13.5369Z" fill="#00D6C2"/>
<path d="M21.554 25.4257L14.4463 21.4628L21.554 17.5V25.4257Z" fill="#67E7DC"/>
<path d="M20.6955 16.9823L13.5879 13.0194L20.6955 9.05664V16.9823Z" fill="#6AE6D9"/>
<path d="M3.78516 9.24219L10.8929 13.2051L3.78516 17.1679V9.24219Z" fill="#99F1DD"/>
<path d="M7.33887 17.4102L14.4465 21.373L7.33887 25.3358V17.4102Z" fill="#99F1DD"/>
<path d="M13.5879 8.08789L20.6955 12.0507L13.5879 16.0135V8.08789Z" fill="#0BDABB"/>
<path d="M12.0479 23.3574L19.1555 27.3202L12.0479 31.2831V23.3574Z" fill="#1BDAC7"/>
<path d="M21.7031 26.9121L28.8108 30.8749L21.7031 34.8377V26.9121Z" fill="#4DE3DE"/>
<path d="M28.6611 21.4629L35.7688 25.4258L28.6611 29.3886V21.4629Z" fill="#00D3D3"/>
<path d="M28.6611 13.5371L35.7688 17.4999L28.6611 21.4627V13.5371Z" fill="#34DED6"/>
<path d="M28.6611 5.61133L35.7688 9.57414L28.6611 13.5369V5.61133Z" fill="#19DACD"/>
<path d="M21.5537 9.57422L28.6613 13.537L21.5537 17.4998V9.57422Z" fill="#34DFD0"/>
<path d="M21.5537 1.64844L28.6613 5.61132L21.5537 9.57413V1.64844Z" fill="#00D7BC"/>
<path d="M21.5537 17.5L28.6613 21.4629L21.5537 25.4257V17.5Z" fill="#34DFD3"/>
<path d="M28.6613 21.4628L21.5537 17.4999L28.6613 13.5371V21.4628Z" fill="#0DD8CB"/>
<path d="M28.6613 29.3886L21.5537 25.4258L28.6613 21.4629V29.3886Z" fill="#4BE2DC"/>
</svg>
