<svg width="36" height="37" viewBox="0 0 36 37" fill="none" xmlns="http://www.w3.org/2000/svg">
<g clip-path="url(#clip0_1_15535)">
<path d="M35.8054 18.3011C35.8054 27.5675 28.7062 35.1779 19.6486 35.9915C19.5622 35.9987 19.5334 35.8763 19.6126 35.8475C20.4406 35.5235 21.6862 34.9043 23.1694 33.7955C24.5374 32.7731 25.3222 31.5779 25.7686 30.6347C25.9558 30.2387 25.4806 29.8571 25.1422 30.1379C24.487 30.6707 23.5222 31.3331 22.1974 31.9955C19.195 33.4931 17.2726 32.6939 16.3726 32.3195C15.4726 31.9451 13.1254 29.8211 14.4718 24.8747C15.6526 20.5259 19.5406 18.6611 20.8654 18.1355C21.0598 18.0563 21.103 17.8043 20.9374 17.6675C20.6566 17.4299 20.275 17.0987 20.0158 16.8467C19.5622 16.4003 17.6182 14.5211 17.6182 10.1003C17.6182 5.67232 20.4982 3.47632 22.147 3.47632C23.7958 3.47632 24.9694 5.07472 24.9694 7.62352C24.9694 9.94912 23.3854 11.5115 23.1046 11.7707C23.083 11.7923 23.0758 11.8283 23.0902 11.8643C23.6302 12.9227 24.3142 13.3259 25.2718 13.3259C26.4598 13.3259 28.3174 11.2307 28.3174 8.47312C28.3174 4.94512 26.4742 2.67712 26.4742 2.67712L26.4886 2.66992C32.2126 5.60752 35.8054 11.4179 35.8054 18.3011Z" fill="#094B89"/>
<path d="M17.302 0.552734C17.3885 0.552734 17.4244 0.660734 17.3524 0.711134C16.5749 1.19353 15.7612 1.74073 15.0988 2.27353C13.2196 3.78553 11.758 7.15513 11.758 9.84793C11.758 12.7711 13.0037 15.2551 13.4717 16.0903C13.5581 16.2343 13.4932 16.4287 13.3348 16.4935C12.9604 16.6519 12.2116 17.0623 10.8437 18.0775C8.12925 20.0863 6.74685 23.9455 6.63885 27.1711C6.55965 29.6047 7.60365 31.7359 8.44605 33.0535C8.49645 33.1327 8.40285 33.2191 8.33085 33.1687C3.47805 29.9935 0.28125 24.5215 0.28125 18.3007C0.28125 8.73913 7.83405 0.941534 17.302 0.552734Z" fill="#388CE0"/>
<path d="M23.0613 11.8071C23.6085 12.9015 24.2925 13.3191 25.2717 13.3191C26.4597 13.3191 28.3173 11.2239 28.3173 8.46626C28.3173 4.93826 26.4741 2.67026 26.4741 2.67026L26.1573 2.49746L26.1357 2.48306C23.7093 1.23746 20.9589 0.539062 18.0501 0.539062C17.9061 0.539062 17.7693 0.539063 17.6253 0.546263C16.7685 1.06466 15.8397 1.67666 15.0981 2.27426C13.2189 3.78626 11.7573 7.15586 11.7573 9.84866C11.7573 12.7719 13.0029 15.2559 13.4709 16.0911C13.5573 16.2351 13.4925 16.4295 13.3341 16.4943C12.9597 16.6527 12.2109 17.0631 10.8429 18.0783C8.12845 20.0871 6.74605 23.9463 6.63805 27.1719C6.55165 29.8215 7.79725 32.1183 8.66125 33.3855C9.56845 33.9543 10.5405 34.4439 11.5485 34.8399C13.5069 35.6103 15.6309 36.0423 17.8557 36.0639C17.9205 36.0639 17.9853 36.0639 18.0501 36.0639C18.4029 36.0639 18.7557 36.0567 19.1085 36.0351C19.8717 35.7831 21.3405 35.1711 23.1837 33.7959C24.5517 32.7735 25.3365 31.5783 25.7829 30.6351C25.9701 30.2391 25.4949 29.8575 25.1565 30.1383C24.5013 30.6711 23.5365 31.3335 22.2117 31.9959C19.2093 33.4935 17.2869 32.6943 16.3869 32.3199C15.4869 31.9455 13.1397 29.8215 14.4861 24.8751C15.6669 20.5263 19.5549 18.6615 20.8797 18.1359C21.0741 18.0567 21.1173 17.8047 20.9517 17.6679C20.6709 17.4303 20.2893 17.0991 20.0301 16.8471C19.5765 16.4007 17.6325 14.5215 17.6325 10.1007C17.6325 5.67266 20.5125 3.47666 22.1613 3.47666C23.8101 3.47666 24.9837 5.07506 24.9837 7.62386C24.9693 10.1727 23.0613 11.8071 23.0613 11.8071Z" fill="white"/>
</g>
<defs>
<clipPath id="clip0_1_15535">
<rect width="36" height="36" fill="white" transform="translate(0 0.279297)"/>
</clipPath>
</defs>
</svg>
