<svg width="36" height="37" viewBox="0 0 36 37" fill="none" xmlns="http://www.w3.org/2000/svg">
<g clip-path="url(#clip0_1_15503)">
<path d="M17.9999 7.2201C20.1887 7.2201 22.3271 7.8681 24.1415 9.0849C25.9631 10.3017 27.3743 12.0297 28.2167 14.0457C29.0519 16.0689 29.2751 18.2865 28.8431 20.4321C28.4183 22.5777 27.3599 24.5505 25.8191 26.0913C24.2711 27.6393 22.3055 28.6905 20.1599 29.1153C18.0143 29.5401 15.7895 29.3241 13.7735 28.4889C11.7503 27.6537 10.0223 26.2353 8.81271 24.4137C7.59591 22.5921 6.94791 20.4537 6.94791 18.2721C6.95511 15.3417 8.12151 12.5265 10.1879 10.4529C12.2543 8.3937 15.0695 7.2273 17.9999 7.2201ZM17.9999 0.279297C14.4431 0.279297 10.9583 1.3377 7.99911 3.3105C5.03991 5.2905 2.73591 8.0985 1.36791 11.3889C0.00711037 14.6793 -0.34569 18.3009 0.34551 21.7929C1.03671 25.2849 2.75751 28.4889 5.27031 31.0089C7.79031 33.5289 10.9943 35.2425 14.4863 35.9337C17.9783 36.6249 21.5999 36.2721 24.8831 34.9113C28.1735 33.5505 30.9815 31.2393 32.9615 28.2801C34.9415 25.3209 35.9999 21.8361 35.9999 18.2793C35.9999 13.5057 34.1063 8.9265 30.7295 5.5497C27.3527 2.1729 22.7735 0.279297 17.9999 0.279297Z" fill="url(#paint0_linear_1_15503)"/>
<path d="M17.9997 32.392C25.7901 32.392 32.1117 26.0776 32.1117 18.28C32.1117 10.4824 25.7901 4.16797 17.9997 4.16797C10.2093 4.16797 3.8877 10.4896 3.8877 18.28C3.8877 26.0704 10.2093 32.392 17.9997 32.392Z" fill="white"/>
<path d="M26.0355 26.415C24.9699 27.4734 23.7027 28.3158 22.3059 28.8774C20.9091 29.439 19.4187 29.7126 17.9139 29.6838C16.4163 29.7126 14.9331 29.4318 13.5507 28.863C12.1683 28.2942 10.9155 27.4518 9.86429 26.3862C7.66829 24.1974 6.57389 21.5118 6.58109 18.3222C6.58109 15.0462 7.68269 12.3174 9.89309 10.1358C10.9443 9.07024 12.2043 8.23504 13.5867 7.67344C14.9691 7.11184 16.4595 6.83824 17.9571 6.87424C19.4619 6.85264 20.9523 7.13344 22.3491 7.69504C23.7459 8.26384 25.0059 9.09904 26.0715 10.1646C28.3179 12.3534 29.4411 15.0822 29.4267 18.3654C29.4555 19.8702 29.1675 21.3606 28.5843 22.7502C27.9939 24.1326 27.1299 25.3854 26.0355 26.415Z" fill="#5F2652"/>
<path fill-rule="evenodd" clip-rule="evenodd" d="M15.5013 18.5818L15.4797 18.7186L15.4725 18.7762C15.3717 19.5394 15.0837 19.7626 14.3565 20.0866C14.3565 20.0866 14.3565 20.0866 14.3493 20.0866L11.7141 21.2602L17.6685 24.6946V22.729C17.6685 22.009 17.6253 21.8794 16.9917 21.5266C16.8693 21.4546 16.7397 21.3826 16.6029 21.3034L16.5165 21.253C16.1205 21.037 15.8037 20.7274 15.5661 20.353C15.5589 20.3386 15.4941 20.245 15.4869 20.2306C15.5373 20.2018 15.5805 20.173 15.6237 20.1298C15.6669 20.0938 15.7029 20.0434 15.7317 19.993C15.9405 20.4034 16.2573 20.749 16.6605 20.9722L16.7613 21.0298C16.8981 21.109 17.0349 21.181 17.1573 21.253C17.9349 21.685 17.9925 21.9514 17.9925 22.729V24.6946L24.0045 21.1954L21.4341 20.0578L21.2685 19.9858C21.2037 19.957 20.9949 19.8706 20.8365 19.8634C20.6781 19.8562 20.4261 19.8634 20.2965 20.0362C20.1741 20.1946 20.0517 20.353 19.9293 20.5042C19.6485 20.8786 19.2741 21.181 18.8349 21.361C18.8349 21.361 18.8349 21.361 18.8277 21.361C18.7125 21.4114 18.5829 21.4402 18.4605 21.469C18.4317 21.4186 18.3957 21.361 18.3597 21.3178C18.3309 21.2818 18.2949 21.2386 18.2589 21.2026C18.4461 21.1666 18.6621 21.1018 18.8349 21.0226C19.1733 20.8642 19.4613 20.6338 19.6845 20.3458C19.6989 20.3314 19.7061 20.317 19.7133 20.3026C19.7349 20.2738 19.7565 20.245 19.7781 20.209C19.8357 20.1298 19.9293 20.0074 20.0517 19.849C20.1381 19.741 20.2533 19.669 20.3829 19.6186C20.5197 19.5682 20.6781 19.5466 20.8509 19.5466C21.1101 19.5538 21.4053 19.6978 21.4053 19.6978L21.4989 19.7338H21.5061L21.7437 19.8346L23.9901 20.8282L18.0069 11.1802V15.2626C18.0069 15.9682 18.0573 16.1194 18.6981 16.4794C18.7485 16.5082 18.7989 16.5298 18.8493 16.5586L18.9285 16.6018C18.9501 16.609 18.9717 16.6234 18.9861 16.6306C19.8213 17.041 20.4117 17.8618 20.4621 18.8266C20.4045 18.841 20.3253 18.8626 20.2749 18.877C20.2389 18.8842 20.1885 18.913 20.1453 18.9346C20.1381 18.0418 19.6053 17.2786 18.8349 16.9042H18.8277C18.7845 16.8826 18.7413 16.861 18.6909 16.8394C18.5253 16.7602 18.3741 16.6738 18.2229 16.573C18.2013 16.5586 18.1797 16.5442 18.1581 16.5226C18.1077 16.4866 18.0645 16.4506 18.0285 16.4218C18.0069 16.4002 17.9853 16.3858 17.9709 16.3642C17.7117 16.105 17.6613 15.8098 17.6613 15.2626V11.173L11.6565 20.9146L14.3061 19.7338C14.8965 19.4746 15.0693 19.2514 15.1485 18.6178C15.1485 18.6106 15.1557 18.589 15.1557 18.5818C15.3069 17.5738 16.0557 16.7602 17.0349 16.4794L17.1645 16.4434C17.1789 16.4938 17.2005 16.5442 17.2293 16.5946C17.2581 16.645 17.2941 16.6882 17.3373 16.7314L17.2149 16.7602C16.3509 16.9906 15.6669 17.6962 15.5013 18.5818ZM11.1741 21.1306L17.6973 10.5538C17.7117 10.5322 17.7333 10.5106 17.7549 10.4962C17.7765 10.4818 17.8053 10.4746 17.8341 10.4746C17.8629 10.4746 17.8917 10.4818 17.9133 10.4962C17.9349 10.5106 17.9565 10.5322 17.9709 10.5538L24.5085 21.0874C24.5157 21.1018 24.5229 21.1234 24.5301 21.145C24.5301 21.1666 24.5301 21.1882 24.5301 21.2098C24.5229 21.2314 24.5157 21.2458 24.5013 21.2674C24.4869 21.2818 24.4725 21.2962 24.4581 21.3106L17.9205 25.1122C17.8989 25.1266 17.8701 25.1338 17.8413 25.1338C17.8125 25.1338 17.7837 25.1266 17.7621 25.1122L11.2317 21.3466C11.2101 21.3394 11.1957 21.325 11.1885 21.3034C11.1741 21.289 11.1669 21.2674 11.1597 21.2458C11.1525 21.2242 11.1525 21.2026 11.1597 21.181C11.1525 21.1666 11.1597 21.145 11.1741 21.1306Z" fill="white" stroke="white" stroke-width="0.072"/>
</g>
<defs>
<linearGradient id="paint0_linear_1_15503" x1="33.6599" y1="33.9393" x2="4.85992" y2="5.13925" gradientUnits="userSpaceOnUse">
<stop offset="0.1594" stop-color="#003CDA"/>
<stop offset="1" stop-color="#33DFCC"/>
</linearGradient>
<clipPath id="clip0_1_15503">
<rect width="36" height="36" fill="white" transform="translate(0 0.279297)"/>
</clipPath>
</defs>
</svg>
