<svg width="36" height="37" viewBox="0 0 36 37" fill="none" xmlns="http://www.w3.org/2000/svg">
<g clip-path="url(#clip0_1_15532)">
<path d="M10.9296 26.3726L2.66403 27.2942L7.50963 16.1054L2.54883 9.33743L14.616 7.96223L17.8992 0.423828L25.0848 10.187L33.3432 9.25823L28.512 20.3894L33.4368 27.1142L21.4272 28.4822L18.108 36.1358L10.9296 26.3726ZM14.3568 25.6238C14.04 25.775 13.7016 25.9118 13.356 26.0054L13.0392 26.0918L17.6976 32.4206L19.3536 28.619L19.0584 28.583C17.4312 28.3742 15.9552 27.503 14.9976 26.1782L14.5368 25.5374L14.3568 25.6238ZM12.7368 19.8926L16.4952 25.0838C17.2584 26.135 18.4896 26.7686 19.7928 26.7686C19.944 26.7686 20.0952 26.7614 20.2392 26.7398L30.0384 25.6238L26.136 20.303C25.9416 20.0438 25.7184 19.799 25.4736 19.5902L25.2432 19.403L22.4496 25.7102L17.5896 19.2734L12.7368 19.8926ZM12.8952 13.5638C11.4408 13.715 10.1736 14.651 9.59043 15.9974L5.65923 25.0838L12.1968 24.3494C12.5208 24.3134 12.8376 24.2414 13.14 24.1262L13.4208 24.0182L9.37443 18.431L17.352 17.4158L19.2456 12.887L12.8952 13.5638ZM19.0728 18.143L22.032 22.0598L23.832 17.9846L24.624 16.1918C25.2144 14.8526 25.0488 13.283 24.1776 12.1022L18.3168 4.13183L15.6816 10.187C15.552 10.4822 15.4584 10.799 15.4008 11.123L15.3504 11.4182L22.1832 10.691L19.0728 18.143ZM26.2512 11.9366L26.3664 12.2174C27 13.7366 26.9856 15.4646 26.3232 16.955L25.9992 17.675L26.1504 17.7758C26.4456 17.9774 26.7264 18.2006 26.9784 18.4598L27.2088 18.6902L30.3408 11.4758L26.2512 11.9366ZM5.96163 10.835L8.45283 14.2334L8.64003 13.9958C9.62643 12.707 11.1168 11.879 12.708 11.7062L13.4928 11.627L13.5072 11.4398C13.536 11.051 13.6008 10.655 13.7088 10.2734L13.7952 9.94943L5.96163 10.835Z" fill="url(#paint0_linear_1_15532)"/>
<path d="M16.2575 36.2802C11.0735 35.7762 6.4151 33.0834 3.3623 28.8066L5.4503 28.5762C5.7959 29.001 6.16311 29.4042 6.5447 29.793C8.81271 32.0682 11.6423 33.6018 14.7527 34.2354L16.2575 36.2802Z" fill="url(#paint1_linear_1_15532)"/>
<path d="M20.6061 34.3428C23.9685 33.8028 27.0213 32.226 29.4549 29.7852C29.6709 29.5692 29.8869 29.3316 30.1101 29.0868L32.6373 28.7988C29.5989 33.0756 24.9477 35.7756 19.7637 36.2796L20.6061 34.3428Z" fill="url(#paint2_linear_1_15532)"/>
<path d="M33.1562 24.0474C33.8475 22.2114 34.2003 20.2674 34.2003 18.2802C34.2003 16.5234 33.9195 14.7954 33.3795 13.1466L34.3947 10.8066C35.4603 13.161 36.0003 15.6738 36.0003 18.2802C36.0003 20.8866 35.4602 23.3922 34.4018 25.7466L33.1562 24.0474Z" fill="url(#paint3_linear_1_15532)"/>
<path d="M1.6128 25.7672C0.5472 23.4128 0 20.9 0 18.2792C0 15.644 0.5472 13.1168 1.6272 10.748L2.8656 12.44C2.16 14.3048 1.8 16.2632 1.8 18.2792C1.8 20.0432 2.0808 21.7712 2.628 23.4272L1.6128 25.7672Z" fill="url(#paint4_linear_1_15532)"/>
<path d="M3.44141 7.6449C6.48701 3.4401 11.1094 0.776097 16.243 0.279297L15.4078 2.2089C12.0382 2.7489 8.97821 4.3257 6.54461 6.7665C6.35741 6.9537 6.17741 7.1481 5.99021 7.3497L3.44141 7.6449Z" fill="url(#paint5_linear_1_15532)"/>
<path d="M30.5496 7.9833C30.204 7.5585 29.8368 7.1481 29.4552 6.7737C27.1944 4.4985 24.3648 2.9649 21.2688 2.3313L19.7568 0.279297C24.9336 0.783297 29.592 3.4833 32.6304 7.7529L30.5496 7.9833Z" fill="url(#paint6_linear_1_15532)"/>
</g>
<defs>
<linearGradient id="paint0_linear_1_15532" x1="3.45953" y1="32.7699" x2="31.5388" y2="4.69064" gradientUnits="userSpaceOnUse">
<stop stop-color="#009DDE"/>
<stop offset="0.5" stop-color="#694D9F"/>
<stop offset="1" stop-color="#ED3554"/>
</linearGradient>
<linearGradient id="paint1_linear_1_15532" x1="6.52301" y1="35.8339" x2="34.6023" y2="7.75458" gradientUnits="userSpaceOnUse">
<stop stop-color="#009DDE"/>
<stop offset="0.5" stop-color="#694D9F"/>
<stop offset="1" stop-color="#ED3554"/>
</linearGradient>
<linearGradient id="paint2_linear_1_15532" x1="14.5338" y1="43.8444" x2="42.6131" y2="15.7651" gradientUnits="userSpaceOnUse">
<stop stop-color="#009DDE"/>
<stop offset="0.5" stop-color="#694D9F"/>
<stop offset="1" stop-color="#ED3554"/>
</linearGradient>
<linearGradient id="paint3_linear_1_15532" x1="11.6813" y1="40.9918" x2="39.7605" y2="12.9126" gradientUnits="userSpaceOnUse">
<stop stop-color="#009DDE"/>
<stop offset="0.5" stop-color="#694D9F"/>
<stop offset="1" stop-color="#ED3554"/>
</linearGradient>
<linearGradient id="paint4_linear_1_15532" x1="-4.71339" y1="24.5964" x2="23.3659" y2="-3.48283" gradientUnits="userSpaceOnUse">
<stop stop-color="#009DDE"/>
<stop offset="0.5" stop-color="#694D9F"/>
<stop offset="1" stop-color="#ED3554"/>
</linearGradient>
<linearGradient id="paint5_linear_1_15532" x1="-7.56081" y1="21.7493" x2="20.5185" y2="-6.33002" gradientUnits="userSpaceOnUse">
<stop stop-color="#009DDE"/>
<stop offset="0.5" stop-color="#694D9F"/>
<stop offset="1" stop-color="#ED3554"/>
</linearGradient>
<linearGradient id="paint6_linear_1_15532" x1="0.449937" y1="29.7598" x2="28.5292" y2="1.68051" gradientUnits="userSpaceOnUse">
<stop stop-color="#009DDE"/>
<stop offset="0.5" stop-color="#694D9F"/>
<stop offset="1" stop-color="#ED3554"/>
</linearGradient>
<clipPath id="clip0_1_15532">
<rect width="36" height="36" fill="white" transform="translate(0 0.279297)"/>
</clipPath>
</defs>
</svg>
