<svg width="36" height="37" viewBox="0 0 36 37" fill="none" xmlns="http://www.w3.org/2000/svg">
<g clip-path="url(#clip0_1_15480)">
<path d="M17.9999 7.2201C20.1887 7.2201 22.3271 7.8681 24.1415 9.0849C25.9631 10.3017 27.3743 12.0297 28.2167 14.0457C29.0519 16.0689 29.2751 18.2865 28.8431 20.4321C28.4183 22.5777 27.3599 24.5505 25.8191 26.0913C24.2783 27.6321 22.3055 28.6905 20.1599 29.1153C18.0143 29.5401 15.7895 29.3241 13.7735 28.4889C11.7503 27.6537 10.0223 26.2353 8.81271 24.4137C7.59591 22.5921 6.94791 20.4537 6.94791 18.2721C6.95511 15.3417 8.12151 12.5265 10.1879 10.4601C12.2543 8.3937 15.0695 7.2273 17.9999 7.2201ZM17.9999 0.279297C14.4431 0.279297 10.9583 1.3377 7.99911 3.3105C5.03991 5.2905 2.73591 8.0985 1.36791 11.3889C0.00711037 14.6793 -0.34569 18.3009 0.34551 21.7929C1.03671 25.2849 2.75751 28.4889 5.27031 31.0089C7.79031 33.5289 10.9943 35.2425 14.4863 35.9337C17.9783 36.6249 21.5999 36.2721 24.8831 34.9113C28.1735 33.5505 30.9815 31.2393 32.9615 28.2801C34.9415 25.3209 35.9999 21.8361 35.9999 18.2793C35.9999 13.5057 34.1063 8.9265 30.7295 5.5497C27.3527 2.1729 22.7735 0.279297 17.9999 0.279297Z" fill="url(#paint0_linear_1_15480)"/>
<path d="M17.9997 32.392C25.7901 32.392 32.1117 26.0776 32.1117 18.28C32.1117 10.4824 25.7901 4.16797 17.9997 4.16797C10.2093 4.16797 3.8877 10.4896 3.8877 18.28C3.8877 26.0704 10.2093 32.392 17.9997 32.392Z" fill="white"/>
<path d="M18.0005 29.7998C24.3628 29.7998 29.5205 24.6421 29.5205 18.2798C29.5205 11.9174 24.3628 6.75977 18.0005 6.75977C11.6381 6.75977 6.48047 11.9174 6.48047 18.2798C6.48047 24.6421 11.6381 29.7998 18.0005 29.7998Z" fill="url(#paint1_linear_1_15480)"/>
<path d="M23.5584 20.8778C23.5584 20.1218 23.0184 19.625 22.356 19.625H20.376V20.273H22.356C22.6944 20.273 22.968 20.4962 22.968 20.885C22.968 21.2594 22.6944 21.4754 22.356 21.4754H20.376V22.1666H22.3488C23.0184 22.1594 23.5584 21.6554 23.5584 20.8778Z" fill="white"/>
<path d="M23.5584 17.9769C23.5584 17.2857 23.184 16.8105 22.5936 16.8105C22.0752 16.8105 21.7656 17.1561 21.6432 17.7249L21.5784 18.0201C21.5136 18.3153 21.3984 18.4377 21.2328 18.4377C21.024 18.4377 20.8872 18.2793 20.8872 17.9913C20.8872 17.6673 21.0456 17.5161 21.2544 17.4585V16.9185H20.9376C20.556 17.0049 20.3184 17.4009 20.3184 17.9697C20.3184 18.6537 20.664 19.1001 21.2688 19.1001C21.7728 19.1001 22.0752 18.7833 22.1904 18.2145L22.248 17.9265C22.32 17.6097 22.4352 17.4729 22.6368 17.4729C22.8672 17.4729 23.004 17.6673 23.004 17.9553C23.004 18.2865 22.86 18.4881 22.6224 18.5673V19.1073H22.932C23.2704 18.9849 23.5584 18.6177 23.5584 17.9769Z" fill="white"/>
<path d="M23.4936 16.2993V15.2121C23.4936 14.2545 22.788 13.6641 21.924 13.6641C21.0744 13.6641 20.376 14.2545 20.376 15.2121V16.2993H23.4936ZM22.9104 15.6081H20.9664V15.2193C20.9664 14.6793 21.3984 14.3625 21.924 14.3625C22.4712 14.3625 22.9104 14.6721 22.9104 15.2193V15.6081Z" fill="white"/>
<path d="M16.337 17.4729C16.6538 17.4729 16.913 17.7249 16.913 18.0417C16.913 18.3585 16.6538 18.6105 16.337 18.6105H14.8466C13.4066 18.6105 12.2402 17.4441 12.2402 16.0113C12.2402 14.5785 13.4066 13.4121 14.8466 13.4121H18.6842C19.001 13.4121 19.2602 13.6641 19.2602 13.9809C19.2602 14.2977 19.001 14.5497 18.6842 14.5497H14.8466C14.0402 14.5497 13.385 15.2049 13.385 16.0041C13.385 16.8105 14.0402 17.4585 14.8466 17.4585H16.337V17.4729Z" fill="white"/>
<path d="M15.1634 18.6181C14.8466 18.6181 14.5874 18.3589 14.5874 18.0493C14.5874 17.7397 14.8466 17.4805 15.1634 17.4805H16.6538C18.0938 17.4805 19.2602 18.6469 19.2602 20.0797C19.2602 21.5125 18.0938 22.6789 16.6538 22.6789H12.8162C12.4994 22.6789 12.2402 22.4269 12.2402 22.1101C12.2402 21.7933 12.4994 21.5413 12.8162 21.5413H16.6538C17.4602 21.5413 18.1154 20.8861 18.1154 20.0869C18.1154 19.2805 17.4602 18.6325 16.6538 18.6325H15.1634V18.6181Z" fill="white"/>
<path d="M13.2628 22.4404L12.334 21.778L18.1948 13.6348L19.1236 14.2972L13.2628 22.4404Z" fill="white" fill-opacity="0.5"/>
</g>
<defs>
<linearGradient id="paint0_linear_1_15480" x1="33.6599" y1="33.9393" x2="4.85991" y2="5.1393" gradientUnits="userSpaceOnUse">
<stop offset="0.1594" stop-color="#003CDA"/>
<stop offset="1" stop-color="#33DFCC"/>
</linearGradient>
<linearGradient id="paint1_linear_1_15480" x1="10.0805" y1="10.3598" x2="26.8205" y2="27.0998" gradientUnits="userSpaceOnUse">
<stop stop-color="#342F49"/>
<stop offset="1"/>
</linearGradient>
<clipPath id="clip0_1_15480">
<rect width="36" height="36" fill="white" transform="translate(0 0.279297)"/>
</clipPath>
</defs>
</svg>
