<svg width="36" height="37" viewBox="0 0 36 37" fill="none" xmlns="http://www.w3.org/2000/svg">
<g clip-path="url(#clip0_1_15529)">
<path d="M17.9999 7.2201C20.1887 7.2201 22.3271 7.8681 24.1415 9.0849C25.9631 10.3017 27.3743 12.0297 28.2167 14.0457C29.0519 16.0689 29.2751 18.2865 28.8431 20.4321C28.4183 22.5777 27.3599 24.5505 25.8191 26.0913C24.2711 27.6393 22.3055 28.6905 20.1599 29.1153C18.0143 29.5401 15.7895 29.3241 13.7735 28.4889C11.7503 27.6537 10.0223 26.2353 8.81271 24.4137C7.59591 22.5921 6.94791 20.4537 6.94791 18.2721C6.95511 15.3417 8.12151 12.5265 10.1879 10.4529C12.2543 8.3937 15.0695 7.2273 17.9999 7.2201ZM17.9999 0.279297C14.4431 0.279297 10.9583 1.3377 7.99911 3.3105C5.03991 5.2905 2.73591 8.0985 1.36791 11.3889C0.00711037 14.6793 -0.34569 18.3009 0.34551 21.7929C1.03671 25.2849 2.75751 28.4889 5.27031 31.0089C7.79031 33.5289 10.9943 35.2425 14.4863 35.9337C17.9783 36.6249 21.5999 36.2721 24.8831 34.9113C28.1735 33.5505 30.9815 31.2393 32.9615 28.2801C34.9415 25.3209 35.9999 21.8361 35.9999 18.2793C35.9999 13.5057 34.1063 8.9265 30.7295 5.5497C27.3527 2.1729 22.7735 0.279297 17.9999 0.279297Z" fill="url(#paint0_linear_1_15529)"/>
<path d="M17.9997 32.392C25.7901 32.392 32.1117 26.0776 32.1117 18.28C32.1117 10.4824 25.7901 4.16797 17.9997 4.16797C10.2093 4.16797 3.8877 10.4896 3.8877 18.28C3.8877 26.0704 10.2093 32.392 17.9997 32.392Z" fill="white"/>
<path d="M29.4195 18.3014C29.4339 12.0014 24.3291 6.88943 18.0219 6.87503C11.7147 6.86063 6.59549 11.9582 6.58109 18.2582C6.56669 24.5582 11.6715 29.6702 17.9787 29.6846C24.2859 29.699 29.4051 24.6014 29.4195 18.3014Z" fill="#3574B9"/>
<path d="M15.8907 26.1566C15.8907 26.4374 15.6963 26.5382 15.4155 26.5382C13.6803 25.9838 12.1611 24.8966 11.0883 23.4278C10.0083 21.9518 9.43232 20.1734 9.43952 18.3518C9.43952 16.5302 10.0299 14.7518 11.1099 13.2902C12.1899 11.8214 13.7091 10.7342 15.4515 10.1942C15.7323 10.1006 15.9267 10.2878 15.9267 10.5758V11.2526C15.9267 11.3534 15.9051 11.447 15.8547 11.5334C15.8043 11.6198 15.7323 11.6846 15.6459 11.7278C14.2779 12.2174 13.0971 13.1246 12.2547 14.3126C11.4195 15.5006 10.9659 16.919 10.9659 18.3734C10.9659 19.8278 11.4051 21.2462 12.2403 22.4414C13.0755 23.6366 14.2491 24.5438 15.6171 25.0406C15.7035 25.0838 15.7755 25.1558 15.8259 25.235C15.8763 25.3214 15.8979 25.415 15.8979 25.5158L15.8907 26.1566Z" fill="white"/>
<path d="M18.7488 23.7953C18.7488 23.8961 18.7056 23.9897 18.6336 24.0617C18.5616 24.1337 18.468 24.1769 18.3672 24.1841H17.604C17.5032 24.1769 17.4096 24.1337 17.3448 24.0617C17.2728 23.9897 17.2296 23.8961 17.2296 23.7953V22.6721C15.7032 22.4777 14.9472 21.6209 14.6592 20.3825C14.6592 20.1953 14.76 20.0009 14.94 20.0009H15.7968C15.984 20.0009 16.0776 20.0945 16.1784 20.2817C16.3656 20.9513 16.74 21.5201 17.9856 21.5201C18.936 21.5201 19.6056 21.0449 19.6056 20.2889C19.6056 19.5329 19.224 19.2449 17.892 19.0505C15.8904 18.7697 14.94 18.1865 14.9472 16.5737C14.9472 15.3425 15.9048 14.3849 17.2368 14.2049V13.0385C17.244 12.9377 17.2872 12.8441 17.352 12.7793C17.424 12.7073 17.5176 12.6641 17.6112 12.6641H18.3744C18.4752 12.6713 18.5688 12.7145 18.6336 12.7793C18.7056 12.8513 18.7488 12.9449 18.7488 13.0385V14.1833C19.8936 14.3777 20.6496 15.0401 20.8368 16.0841C20.8368 16.2713 20.7432 16.4657 20.556 16.4657H19.8C19.6056 16.4657 19.5192 16.3721 19.4184 16.1849C19.2312 15.5153 18.756 15.2345 17.8992 15.2345C16.9488 15.2345 16.4736 15.7097 16.4736 16.3577C16.4736 17.0057 16.7544 17.4017 18.1872 17.5961C20.1816 17.8769 21.132 18.4601 21.132 20.0729C21.132 21.3041 20.1816 22.3481 18.7488 22.6361V23.7953Z" fill="white"/>
<path d="M20.5563 26.5518C20.2755 26.6454 20.0811 26.4582 20.0811 26.1702V25.5006C20.0811 25.3998 20.1027 25.3062 20.1531 25.227C20.2035 25.1406 20.2755 25.0758 20.3619 25.0326C21.7299 24.543 22.9107 23.6358 23.7531 22.4478C24.5883 21.2598 25.0419 19.8414 25.0419 18.387C25.0419 16.9326 24.6027 15.5142 23.7675 14.319C22.9323 13.1238 21.7587 12.2166 20.3907 11.7198C20.3043 11.6766 20.2323 11.6046 20.1819 11.5254C20.1315 11.439 20.1099 11.3454 20.1099 11.2446V10.575C20.1099 10.2942 20.3043 10.1934 20.5851 10.1934C24.0051 11.3382 26.5683 14.5782 26.5611 18.3798C26.5539 20.2014 25.9707 21.9726 24.8907 23.4414C23.8107 24.9174 22.2915 26.0046 20.5563 26.5518Z" fill="white"/>
</g>
<defs>
<linearGradient id="paint0_linear_1_15529" x1="33.6599" y1="33.9393" x2="4.85992" y2="5.13925" gradientUnits="userSpaceOnUse">
<stop offset="0.1594" stop-color="#003CDA"/>
<stop offset="1" stop-color="#33DFCC"/>
</linearGradient>
<clipPath id="clip0_1_15529">
<rect width="36" height="36" fill="white" transform="translate(0 0.279297)"/>
</clipPath>
</defs>
</svg>
