<svg width="36" height="37" viewBox="0 0 36 37" fill="none" xmlns="http://www.w3.org/2000/svg">
<g clip-path="url(#clip0_1_15528)">
<path d="M17.9999 7.2201C20.1887 7.2201 22.3271 7.8681 24.1415 9.0849C25.9631 10.3017 27.3743 12.0297 28.2167 14.0457C29.0519 16.0689 29.2751 18.2865 28.8431 20.4321C28.4183 22.5777 27.3599 24.5505 25.8191 26.0913C24.2711 27.6393 22.3055 28.6905 20.1599 29.1153C18.0143 29.5401 15.7895 29.3241 13.7735 28.4889C11.7503 27.6537 10.0223 26.2353 8.81271 24.4137C7.59591 22.5921 6.94791 20.4537 6.94791 18.2721C6.95511 15.3417 8.12151 12.5265 10.1879 10.4601C12.2543 8.3937 15.0695 7.2273 17.9999 7.2201ZM17.9999 0.279297C14.4431 0.279297 10.9583 1.3377 7.99911 3.3105C5.03991 5.2905 2.73591 8.0985 1.36791 11.3889C0.00711037 14.6793 -0.34569 18.3009 0.34551 21.7929C1.03671 25.2849 2.75751 28.4889 5.27031 31.0089C7.79031 33.5289 10.9943 35.2425 14.4863 35.9337C17.9783 36.6249 21.5999 36.2721 24.8831 34.9113C28.1663 33.5505 30.9815 31.2393 32.9615 28.2801C34.9415 25.3209 35.9999 21.8361 35.9999 18.2793C35.9999 13.5057 34.1063 8.9265 30.7295 5.5497C27.3527 2.1729 22.7735 0.279297 17.9999 0.279297Z" fill="url(#paint0_linear_1_15528)"/>
<path d="M17.9997 32.392C25.7901 32.392 32.1117 26.0776 32.1117 18.28C32.1117 10.4824 25.7901 4.16797 17.9997 4.16797C10.2093 4.16797 3.8877 10.4896 3.8877 18.28C3.8877 26.0704 10.2093 32.392 17.9997 32.392Z" fill="white"/>
<path d="M29.0735 21.0584C28.5263 23.2472 27.3383 25.2272 25.6679 26.7464C23.9975 28.2656 21.9095 29.252 19.6775 29.5832C17.4455 29.9144 15.1631 29.576 13.1183 28.6112C11.0735 27.6464 9.36713 26.0984 8.20793 24.1616C7.04873 22.2248 6.48713 19.9856 6.59513 17.732C6.71033 15.4784 7.48793 13.304 8.83433 11.4896C10.1807 9.67519 12.0383 8.29999 14.1623 7.544C16.2863 6.788 18.5975 6.67279 20.7863 7.22719C23.7167 7.96879 26.2367 9.8336 27.7919 12.4328C29.3399 15.0176 29.8079 18.1208 29.0735 21.0584Z" fill="url(#paint1_linear_1_15528)"/>
<path d="M23.0397 16.66C23.2701 15.1408 22.1109 14.3416 20.5341 13.78L21.0525 11.7208L19.7997 11.404L19.2957 13.4128C18.9645 13.3264 18.6261 13.2544 18.2949 13.1752L18.7989 11.1592L17.5461 10.8496L17.0277 12.9016C16.7469 12.8368 16.4877 12.7792 16.2285 12.7144L14.5005 12.2824L14.1693 13.6216C14.1693 13.6216 15.0981 13.8376 15.0765 13.852C15.2493 13.8736 15.4077 13.96 15.5157 14.0968C15.6237 14.2336 15.6741 14.4064 15.6597 14.5792L14.2557 20.2024C14.2125 20.3104 14.1333 20.404 14.0325 20.4544C13.9245 20.5048 13.8093 20.5192 13.6941 20.4832C13.6941 20.4976 12.7797 20.2528 12.7797 20.2528L12.1533 21.6856L13.7805 22.096L14.6733 22.3264L14.1261 24.4144L15.3789 24.7312L15.8973 22.672C16.2429 22.7656 16.5669 22.852 16.8981 22.9312L16.3869 24.976L17.6397 25.2928L18.1653 23.2192C20.2965 23.6296 21.9093 23.464 22.5861 21.5344C23.1477 19.9792 22.5645 19.0864 21.4413 18.5032C22.2549 18.3088 22.8741 17.7688 23.0397 16.66ZM20.1669 20.6704C19.7781 22.2184 17.1573 21.376 16.3149 21.1672L17.0061 18.4168C17.8485 18.6256 20.5701 19.0504 20.1669 20.6704ZM20.5629 16.6384C20.2029 18.0424 18.0285 17.3296 17.3229 17.1496L17.9493 14.6512C18.6549 14.8312 20.9301 15.1624 20.5629 16.6384Z" fill="white"/>
</g>
<defs>
<linearGradient id="paint0_linear_1_15528" x1="33.6599" y1="33.9392" x2="4.85995" y2="5.13928" gradientUnits="userSpaceOnUse">
<stop offset="0.1594" stop-color="#003CDA"/>
<stop offset="1" stop-color="#33DFCC"/>
</linearGradient>
<linearGradient id="paint1_linear_1_15528" x1="18.0212" y1="4.385" x2="17.9807" y2="27.4254" gradientUnits="userSpaceOnUse">
<stop stop-color="#F8A94B"/>
<stop offset="1" stop-color="#F6921E"/>
</linearGradient>
<clipPath id="clip0_1_15528">
<rect width="36" height="36" fill="white" transform="translate(0 0.279297)"/>
</clipPath>
</defs>
</svg>
