<svg width="36" height="37" viewBox="0 0 36 37" fill="none" xmlns="http://www.w3.org/2000/svg">
<g clip-path="url(#clip0_1_15820)">
<path d="M17.9999 7.2201C20.1887 7.2201 22.3271 7.8681 24.1415 9.0849C25.9631 10.3017 27.3743 12.0297 28.2167 14.0457C29.0519 16.0689 29.2751 18.2865 28.8431 20.4321C28.4183 22.5777 27.3599 24.5505 25.8191 26.0913C24.2711 27.6393 22.3055 28.6905 20.1599 29.1153C18.0143 29.5401 15.7895 29.3241 13.7735 28.4889C11.7503 27.6537 10.0223 26.2353 8.81271 24.4137C7.59591 22.5921 6.94791 20.4537 6.94791 18.2721C6.95511 15.3417 8.12151 12.5265 10.1879 10.4529C12.2543 8.3937 15.0695 7.2273 17.9999 7.2201ZM17.9999 0.279297C14.4431 0.279297 10.9583 1.3377 7.99911 3.3105C5.03991 5.2905 2.73591 8.0985 1.36791 11.3889C0.00711037 14.6793 -0.34569 18.3009 0.34551 21.7929C1.03671 25.2849 2.75751 28.4889 5.27031 31.0089C7.79031 33.5289 10.9943 35.2425 14.4863 35.9337C17.9783 36.6249 21.5999 36.2721 24.8831 34.9113C28.1735 33.5505 30.9815 31.2393 32.9615 28.2801C34.9415 25.3209 35.9999 21.8361 35.9999 18.2793C35.9999 13.5057 34.1063 8.9265 30.7295 5.5497C27.3527 2.1729 22.7735 0.279297 17.9999 0.279297Z" fill="url(#paint0_linear_1_15820)"/>
<path d="M17.9997 32.392C25.7901 32.392 32.1117 26.0776 32.1117 18.28C32.1117 10.4824 25.7901 4.16797 17.9997 4.16797C10.2093 4.16797 3.8877 10.4896 3.8877 18.28C3.8877 26.0704 10.2093 32.392 17.9997 32.392Z" fill="white"/>
<path d="M26.0355 26.415C24.9699 27.4734 23.7027 28.3158 22.3059 28.8774C20.9091 29.439 19.4187 29.7126 17.9139 29.6838C16.4163 29.7126 14.9331 29.4318 13.5507 28.863C12.1683 28.2942 10.9155 27.4518 9.86429 26.3862C7.66829 24.1974 6.57389 21.5118 6.58109 18.3222C6.58109 15.0462 7.68269 12.3174 9.89309 10.1358C10.9443 9.07024 12.2043 8.23504 13.5867 7.67344C14.9691 7.11184 16.4595 6.83824 17.9571 6.87424C19.4619 6.85264 20.9523 7.13344 22.3491 7.69504C23.7459 8.26384 25.0059 9.09904 26.0715 10.1646C28.3179 12.3534 29.4411 15.0822 29.4267 18.3654C29.4555 19.8702 29.1675 21.3606 28.5843 22.7502C27.9939 24.1326 27.1299 25.3854 26.0355 26.415Z" fill="#6F68AE"/>
<path d="M13.7305 25.6889C15.4513 24.4073 17.1433 23.1545 18.8569 21.8729C19.2745 22.2833 19.6993 22.6865 20.0953 23.1041C20.1241 23.1473 20.1601 23.1761 20.1961 23.2049C20.2393 23.2337 20.2825 23.2481 20.3329 23.2553C20.3833 23.2625 20.4265 23.2625 20.4769 23.2481C20.5201 23.2337 20.5705 23.2121 20.6065 23.1833C21.3625 22.7729 22.0249 22.1969 22.5289 21.4985C22.5721 21.4409 22.6153 21.3833 22.6873 21.2969C22.9969 21.7001 23.2921 22.0817 23.5873 22.4705C23.8825 22.8593 24.1489 23.2409 24.4297 23.6153C24.4585 23.6369 24.4801 23.6729 24.4945 23.7017C24.5089 23.7377 24.5161 23.7737 24.5161 23.8097C24.5161 23.8457 24.5017 23.8817 24.4873 23.9177C24.4729 23.9537 24.4441 23.9753 24.4153 24.0041C23.4001 25.1345 22.1041 25.9769 20.6569 26.4449C19.6561 26.7833 18.5977 26.9273 17.5393 26.8697C16.2505 26.7977 14.9905 26.4305 13.8601 25.8041C13.8097 25.7609 13.7665 25.7249 13.7305 25.6889Z" fill="white"/>
<path d="M14.9828 22.9586C14.162 23.5706 13.3772 24.1538 12.578 24.7298C12.5276 24.7442 12.47 24.7442 12.4196 24.737C12.3692 24.7226 12.3188 24.701 12.2756 24.665C11.1884 23.7074 10.3676 22.4906 9.89236 21.1226C9.51076 20.0786 9.34517 18.9626 9.40277 17.8538C9.46757 16.6298 9.79876 15.4346 10.3604 14.3402C10.4036 14.2538 10.4612 14.1602 10.5332 14.0234C10.7564 14.3042 10.9652 14.585 11.1668 14.837C12.1892 16.1834 13.2116 17.5298 14.2412 18.8762C14.27 18.905 14.2988 18.941 14.3132 18.977C14.3276 19.0202 14.3348 19.0634 14.3348 19.0994C14.3348 19.1426 14.3204 19.1858 14.2988 19.2218C14.2772 19.2578 14.2484 19.2938 14.2124 19.3154C13.8524 19.6538 13.5212 20.0282 13.1612 20.3666C13.1252 20.3954 13.0892 20.4314 13.0676 20.4746C13.046 20.5178 13.0244 20.561 13.0244 20.6114C13.0172 20.6618 13.0244 20.705 13.0388 20.7554C13.0532 20.7986 13.0748 20.8418 13.1036 20.8778C13.514 21.6266 14.09 22.2674 14.774 22.7714C14.8244 22.829 14.882 22.8722 14.9828 22.9586Z" fill="white"/>
<path d="M13.3126 15.2632C12.9022 14.716 12.5134 14.212 12.1246 13.6936C11.9302 13.4344 11.743 13.1608 11.5486 12.9016C11.527 12.88 11.5054 12.8584 11.4982 12.8296C11.4838 12.8008 11.4766 12.772 11.4766 12.7432C11.4766 12.7144 11.4838 12.6856 11.4982 12.6568C11.5126 12.628 11.527 12.6064 11.5486 12.5848C12.7438 11.2384 14.3278 10.3024 16.0846 9.90638C17.2438 9.63278 18.4534 9.61118 19.6198 9.84158C20.4982 10.0144 21.3478 10.3168 22.1326 10.7488C22.183 10.7848 22.2262 10.8208 22.2694 10.864C21.9166 11.1232 21.5782 11.368 21.2398 11.6128C19.9222 12.5488 18.6046 13.4848 17.3014 14.428C17.1214 14.5576 17.0206 14.5576 16.855 14.392C16.531 14.0536 16.1854 13.744 15.8614 13.4056C15.811 13.3408 15.7462 13.3048 15.667 13.2904C15.5878 13.2832 15.5086 13.2976 15.4438 13.348C14.695 13.744 14.047 14.2984 13.543 14.9752C13.4854 15.0544 13.4134 15.1336 13.3126 15.2632Z" fill="white"/>
<path d="M21.0098 13.5999C21.5426 13.1967 22.0466 12.8079 22.5506 12.4335C22.8314 12.2319 23.1122 12.0447 23.3642 11.8359C23.4794 11.7495 23.5586 11.7351 23.6738 11.8359C24.905 12.9159 25.7978 14.3199 26.2514 15.8967C26.5178 16.7823 26.6402 17.7039 26.597 18.6327C26.5322 19.9431 26.1722 21.2175 25.5458 22.3695C25.5458 22.3911 25.5098 22.4055 25.4594 22.4559C25.229 22.1463 24.9914 21.8511 24.7682 21.5487C23.8178 20.2887 22.8674 19.0287 21.917 17.7687C21.6002 17.3511 21.6578 17.4447 21.9458 17.1423C22.2266 16.8399 22.5578 16.4871 22.8818 16.1775C22.9466 16.1271 22.9898 16.0479 22.997 15.9687C23.0042 15.8823 22.9826 15.8031 22.9322 15.7383C22.529 14.9823 21.9674 14.3271 21.2834 13.8231L21.0098 13.5999Z" fill="white"/>
</g>
<defs>
<linearGradient id="paint0_linear_1_15820" x1="33.6599" y1="33.9393" x2="4.85992" y2="5.13925" gradientUnits="userSpaceOnUse">
<stop offset="0.1594" stop-color="#003CDA"/>
<stop offset="1" stop-color="#33DFCC"/>
</linearGradient>
<clipPath id="clip0_1_15820">
<rect width="36" height="36" fill="white" transform="translate(0 0.279297)"/>
</clipPath>
</defs>
</svg>
