<svg width="36" height="37" viewBox="0 0 36 37" fill="none" xmlns="http://www.w3.org/2000/svg">
<g clip-path="url(#clip0_1_15526)">
<path d="M1.63983 18.182C1.63983 16.4054 1.63148 14.6288 1.64214 12.8523C1.65315 11.0232 2.18718 9.37176 3.48051 8.0466C3.9848 7.52993 4.58053 7.07301 5.20405 6.70718C8.27694 4.9043 11.3797 3.1524 14.4575 1.35773C15.5377 0.727871 16.6883 0.362039 17.9247 0.351815C19.0732 0.342311 20.1813 0.600935 21.1901 1.18673C24.6105 3.17285 28.0648 5.10389 31.4346 7.17259C33.1789 8.24345 34.1627 9.96569 34.2141 12.0231C34.3124 15.9662 34.3417 19.9136 34.279 23.8574C34.2388 26.3843 33.0071 28.3241 30.8121 29.604C27.6876 31.4261 24.5469 33.2203 21.4215 35.0408C20.3527 35.6634 19.2005 35.9899 17.9809 35.9916C16.7614 35.9933 15.6072 35.6714 14.5383 35.0493C11.4003 33.2232 8.2503 31.4179 5.11131 29.5934C3.27286 28.5248 2.14239 26.9393 1.75208 24.8446C1.67814 24.4478 1.6471 24.038 1.64458 23.6339C1.63357 21.8167 1.63983 19.9993 1.63983 18.182ZM16.6936 8.51935C16.6831 8.74745 16.6672 8.93414 16.667 9.12091C16.6654 11.766 16.6673 14.4111 16.6657 17.0562C16.6646 18.9959 16.6718 20.9358 16.6513 22.8752C16.6404 23.8991 16.1147 24.635 15.193 25.0331C14.2964 25.4204 13.4216 25.3216 12.6395 24.6893C12.5693 24.6325 12.4861 24.5919 12.4606 24.5761C11.8489 25.1948 11.2633 25.787 10.6687 26.3883C10.6614 26.3742 10.6694 26.4019 10.6868 26.421C10.7324 26.4711 10.7802 26.5195 10.8303 26.565C12.0754 27.6944 13.5432 28.0456 15.1686 27.7534C17.3132 27.3679 19.017 25.5041 19.222 23.3411C19.2829 22.6984 19.2927 22.0509 19.3268 21.3868C21.5216 22.2985 23.5527 22.2277 25.3244 20.5264C24.6814 19.8881 24.0891 19.3001 23.4805 18.6959C23.4368 18.729 23.3606 18.7829 23.2884 18.8416C22.6353 19.3724 21.8822 19.4672 21.1016 19.2697C20.0256 18.9976 19.3027 18.057 19.2978 16.9449C19.2861 14.3135 19.2932 11.6819 19.2908 9.05035C19.2906 8.87942 19.2738 8.70849 19.2638 8.51942C18.3971 8.51935 17.5743 8.51935 16.6936 8.51935Z" fill="#0050DB"/>
<path d="M16.6934 8.51953C17.5741 8.51953 18.397 8.51953 19.2638 8.51953C19.2738 8.7086 19.2906 8.87953 19.2908 9.05046C19.2932 11.682 19.2861 14.3136 19.2978 16.945C19.3027 18.0571 20.0257 18.9977 21.1016 19.2699C21.8821 19.4673 22.6353 19.3726 23.2884 18.8417C23.3606 18.7829 23.4367 18.7291 23.4805 18.696C24.0891 19.3002 24.6814 19.8882 25.3244 20.5265C23.5527 22.2278 21.5215 22.2986 19.3268 21.3869C19.2926 22.051 19.2829 22.6985 19.222 23.3412C19.017 25.5042 17.3131 27.368 15.1686 27.7535C13.5432 28.0457 12.0753 27.6945 10.8303 26.5651C10.7802 26.5196 10.7323 26.4712 10.6868 26.4211C10.6694 26.402 10.6614 26.3743 10.6687 26.3884C11.2633 25.7871 11.8489 25.1949 12.4606 24.5762C12.4861 24.592 12.5693 24.6326 12.6395 24.6894C13.4216 25.3217 14.2963 25.4205 15.193 25.0332C16.1147 24.6351 16.6404 23.8992 16.6513 22.8753C16.6718 20.9359 16.6645 18.996 16.6657 17.0564C16.6673 14.4112 16.6654 11.7662 16.667 9.12102C16.6669 8.93432 16.6829 8.74756 16.6934 8.51953Z" fill="white"/>
</g>
<defs>
<clipPath id="clip0_1_15526">
<rect width="36" height="36" fill="white" transform="translate(0 0.279297)"/>
</clipPath>
</defs>
</svg>
