<svg width="36" height="37" viewBox="0 0 36 37" fill="none" xmlns="http://www.w3.org/2000/svg">
<g clip-path="url(#clip0_1_15771)">
<path d="M17.935 35.9911C27.7529 35.9911 35.7118 28.0322 35.7118 18.2143C35.7118 8.39645 27.7529 0.4375 17.935 0.4375C8.11715 0.4375 0.158203 8.39645 0.158203 18.2143C0.158203 28.0322 8.11715 35.9911 17.935 35.9911Z" fill="#B21514"/>
<path d="M17.8629 13.3255C19.1712 13.3255 20.2317 12.2649 20.2317 10.9567C20.2317 9.64844 19.1712 8.58789 17.8629 8.58789C16.5547 8.58789 15.4941 9.64844 15.4941 10.9567C15.4941 12.2649 16.5547 13.3255 17.8629 13.3255Z" fill="white"/>
<path d="M17.8629 29.7337C19.1712 29.7337 20.2317 28.6731 20.2317 27.3649C20.2317 26.0566 19.1712 24.9961 17.8629 24.9961C16.5547 24.9961 15.4941 26.0566 15.4941 27.3649C15.4941 28.6731 16.5547 29.7337 17.8629 29.7337Z" fill="white"/>
<path d="M27.4753 20.2168H8.07129V23.3848H27.4753V20.2168Z" fill="white"/>
<path d="M24.5595 8.54492C24.5595 8.55212 24.5595 8.56652 24.5595 8.57372C24.5595 12.2961 21.5283 15.3201 17.8131 15.3201C14.0907 15.3201 11.0667 12.2889 11.0667 8.57372C11.0667 8.56652 11.0667 8.55212 11.0667 8.54492H7.9707C7.9707 8.55212 7.9707 8.56652 7.9707 8.57372C7.9707 14.0025 12.3843 18.4161 17.8131 18.4161C23.2419 18.4161 27.6555 14.0025 27.6555 8.57372C27.6555 8.56652 27.6555 8.55212 27.6555 8.54492H24.5595Z" fill="white"/>
</g>
<defs>
<clipPath id="clip0_1_15771">
<rect width="36" height="36" fill="white" transform="translate(0 0.279297)"/>
</clipPath>
</defs>
</svg>
