<svg width="36" height="37" viewBox="0 0 36 37" fill="none" xmlns="http://www.w3.org/2000/svg">
<g clip-path="url(#clip0_1_15488)">
<path d="M17.9783 36.0638C27.9359 36.0638 35.9999 28.0862 35.9999 18.2438C35.9999 8.40143 27.9359 0.423828 17.9783 0.423828C8.02787 0.423828 -0.0361328 8.40143 -0.0361328 18.2438C-0.0361328 28.0862 8.02787 36.0638 17.9783 36.0638Z" fill="white"/>
<path d="M35.6468 18.2508C35.6468 28.0068 27.734 35.9196 17.978 35.9196C8.22201 35.9124 0.316406 28.0068 0.316406 18.2508C0.316406 8.49483 8.22201 0.582031 17.978 0.582031C27.7412 0.582031 35.6468 8.49483 35.6468 18.2508Z" fill="black" stroke="white" stroke-width="0.705074"/>
<path fill-rule="evenodd" clip-rule="evenodd" d="M18.569 11.1446C18.569 10.8062 18.3098 10.5254 17.993 10.5254C17.6762 10.5254 17.417 10.799 17.417 11.1446C17.417 13.6286 17.417 22.8878 17.417 25.3718C17.417 25.7102 17.6762 25.991 17.993 25.991C18.3098 25.991 18.569 25.7174 18.569 25.3718C18.569 22.8878 18.569 13.6286 18.569 11.1446Z" fill="white"/>
<path fill-rule="evenodd" clip-rule="evenodd" d="M16.2508 22.8652C15.934 22.8652 15.6748 23.1388 15.6748 23.4772C15.6748 23.8156 15.934 24.0964 16.2508 24.0964C17.1364 24.0964 18.814 24.0964 19.6996 24.0964C20.0164 24.0964 20.2756 23.8228 20.2756 23.4844C20.2756 23.146 20.0164 22.8652 19.6996 22.8652C18.814 22.8652 17.1364 22.8652 16.2508 22.8652Z" fill="white"/>
<path fill-rule="evenodd" clip-rule="evenodd" d="M13.4061 14.8086C13.0893 14.8086 12.8301 15.0822 12.8301 15.4206C12.8301 15.759 13.0893 16.0398 13.4061 16.0398C15.2133 16.0398 20.7501 16.047 22.5501 16.047C22.8669 16.047 23.1261 15.7734 23.1261 15.435C23.1261 15.0966 22.8669 14.8158 22.5501 14.8158C20.7501 14.8158 15.2133 14.8086 13.4061 14.8086Z" fill="white"/>
<path fill-rule="evenodd" clip-rule="evenodd" d="M15.3072 11.6919C15.084 11.4543 14.7168 11.4543 14.4936 11.6919C14.2704 11.9295 14.2704 12.3255 14.4936 12.5631C15.732 13.8879 19.44 17.8551 20.6784 19.1799C20.9016 19.4175 21.2688 19.4175 21.492 19.1799C21.7152 18.9423 21.7152 18.5463 21.492 18.3087C20.2536 16.9839 16.5384 13.0167 15.3072 11.6919Z" fill="white"/>
<path fill-rule="evenodd" clip-rule="evenodd" d="M14.5004 18.3231C14.2772 18.5607 14.2772 18.9567 14.5004 19.1943C14.7236 19.4319 15.0908 19.4319 15.314 19.1943C16.5452 17.8695 20.246 13.8879 21.4844 12.5631C21.7076 12.3255 21.7076 11.9295 21.4844 11.6919C21.2612 11.4543 20.894 11.4543 20.6708 11.6919C19.4324 13.0095 15.7316 16.9911 14.5004 18.3231Z" fill="white"/>
<path d="M17.9784 34.1053C26.7336 34.1053 33.8328 27.0061 33.8328 18.2509C33.8328 9.49569 26.7408 2.39648 17.9784 2.39648C9.21602 2.39648 2.12402 9.49569 2.12402 18.2509C2.12402 27.0061 9.22322 34.1053 17.9784 34.1053Z" stroke="#F0827D" stroke-width="0.405043"/>
</g>
<defs>
<clipPath id="clip0_1_15488">
<rect width="36" height="36" fill="white" transform="translate(0 0.279297)"/>
</clipPath>
</defs>
</svg>
