<svg width="36" height="37" viewBox="0 0 36 37" fill="none" xmlns="http://www.w3.org/2000/svg">
<g clip-path="url(#clip0_1_15920)">
<path d="M18 0.279297C8.064 0.279297 0 8.3433 0 18.2793C0 28.2153 8.064 36.2793 18 36.2793C27.936 36.2793 36 28.2153 36 18.2793C35.9856 8.3433 27.9216 0.279297 18 0.279297ZM25.5456 14.2545H24.408L20.9736 18.2649L24.408 22.2753H25.5456V25.4937H18.2592V22.3041H19.3968L17.136 19.6689H16.2144V22.3041H17.5032V25.4937H10.44V22.2753H11.9664V18.2793V14.2545H10.44V11.0361H12.1824V12.2313H13.1184V11.0361H14.8248V12.2313H15.7608V11.0361H17.4816V14.2113H16.2V16.8393H17.1216L19.3752 14.2041H18.2376V11.0289H25.5312V14.2473H25.5456V14.2545Z" fill="black"/>
</g>
<defs>
<clipPath id="clip0_1_15920">
<rect width="36" height="36" fill="white" transform="translate(0 0.279297)"/>
</clipPath>
</defs>
</svg>
