<svg width="36" height="37" viewBox="0 0 36 37" fill="none" xmlns="http://www.w3.org/2000/svg">
<g clip-path="url(#clip0_1_15522)">
<path d="M18.0651 0.53125L2.67871 9.41605V27.1785L18.0651 36.0633L33.4515 27.1785V9.41605L18.0651 0.53125ZM21.8739 9.14245H17.9283V11.7633H20.8371C21.3051 11.7633 21.6867 12.1449 21.6867 12.6129C21.6867 13.0809 21.3051 13.4625 20.8371 13.4625H17.9283V21.5769C19.7427 21.9513 21.1179 23.5641 21.1179 25.4865C21.1179 27.6897 19.3251 29.4825 17.1219 29.4825C14.9187 29.4825 13.1259 27.6897 13.1259 25.4865C13.1259 23.5929 14.4507 22.0017 16.2291 21.5985V8.28565C16.2291 7.81765 16.6107 7.43605 17.0787 7.43605H21.8739C22.3419 7.43605 22.7235 7.81765 22.7235 8.28565C22.7307 8.76085 22.3491 9.14245 21.8739 9.14245Z" fill="url(#paint0_linear_1_15522)"/>
<path d="M17.1216 27.7823C18.3861 27.7823 19.4112 26.7572 19.4112 25.4927C19.4112 24.2282 18.3861 23.2031 17.1216 23.2031C15.8571 23.2031 14.832 24.2282 14.832 25.4927C14.832 26.7572 15.8571 27.7823 17.1216 27.7823Z" fill="url(#paint1_linear_1_15522)"/>
</g>
<defs>
<linearGradient id="paint0_linear_1_15522" x1="18.062" y1="35.8081" x2="18.062" y2="0.277179" gradientUnits="userSpaceOnUse">
<stop stop-color="#08BCCD"/>
<stop offset="0.9996" stop-color="#26A5F1"/>
</linearGradient>
<linearGradient id="paint1_linear_1_15522" x1="17.1221" y1="35.8071" x2="17.1221" y2="0.263368" gradientUnits="userSpaceOnUse">
<stop stop-color="#08BCCD"/>
<stop offset="0.9996" stop-color="#26A5F1"/>
</linearGradient>
<clipPath id="clip0_1_15522">
<rect width="36" height="36" fill="white" transform="translate(0 0.279297)"/>
</clipPath>
</defs>
</svg>
