<svg width="36" height="37" viewBox="0 0 36 37" fill="none" xmlns="http://www.w3.org/2000/svg">
<g clip-path="url(#clip0_1_15521)">
<path d="M35.7996 18.1327C35.7988 27.9864 27.8248 35.941 17.9583 35.931C8.19426 35.9211 0.283552 27.9491 0.288088 18.124C0.292624 8.31121 8.24726 0.418359 18.1271 0.423831C27.8993 0.429231 35.8004 8.34657 35.7996 18.1327ZM19.265 33.3642C23.9981 33.3016 29.2308 29.8525 31.584 25.2055C33.868 20.6954 33.8784 16.1289 31.7999 11.4748C28.8702 13.1434 26.0205 14.7664 23.0797 16.4415C24.5266 17.2204 25.8529 17.9214 27.166 18.6462C27.8711 19.0354 28.0911 19.7108 27.7629 20.3391C27.4337 20.9692 26.7361 21.1829 26.0355 20.8141C24.0118 19.7486 21.9861 18.6853 19.9954 17.5608C19.6705 17.3772 19.327 16.8914 19.3184 16.5373C19.2598 14.1337 19.2702 11.7278 19.2998 9.32303C19.3096 8.52793 20.0301 8.02732 20.7956 8.18687C21.4078 8.31445 21.7604 8.81147 21.7642 9.59677C21.7717 11.1387 21.7664 12.6808 21.7664 14.3475C24.742 12.6543 27.616 11.0188 30.4913 9.38265C28.1983 5.51063 22.6415 2.66397 17.704 2.83245C12.5987 3.00669 8.54541 5.1898 5.42457 9.32915C8.40054 11.0207 11.2932 12.6648 14.274 14.3591C14.274 14.0704 14.2739 13.9333 14.274 13.7963C14.2751 12.3163 14.2623 10.836 14.2838 9.35629C14.2933 8.70124 14.7297 8.24721 15.3305 8.17362C15.9515 8.09759 16.5039 8.43858 16.66 9.03085C16.7236 9.27241 16.7283 9.53363 16.7317 9.78628C16.762 11.9813 16.7836 14.1765 16.8134 16.3715C16.8212 16.9529 16.5184 17.3192 16.034 17.5782C14.0781 18.6236 12.1242 19.6725 10.1676 20.7166C9.31631 21.1708 8.60805 21.0304 8.24956 20.3467C7.89798 19.6762 8.18152 19.0067 9.02205 18.5508C10.3 17.8575 11.5816 17.1708 12.9489 16.4343C9.99362 14.7572 7.11275 13.1223 4.23023 11.4863C2.0945 15.4924 1.90715 21.409 4.93367 26.1864C7.66614 30.4995 11.6185 32.8638 16.6927 33.4304C16.6927 29.8887 16.6927 26.4388 16.6927 22.9007C15.2776 23.717 13.9605 24.4822 12.6378 25.2375C11.8456 25.6899 11.1452 25.5649 10.766 24.9218C10.3829 24.2719 10.61 23.5849 11.3862 23.1306C13.3402 21.9867 15.2846 20.8242 17.2731 19.743C17.63 19.549 18.2843 19.5323 18.6223 19.7339C20.6261 20.9289 22.5833 22.203 24.5427 23.4712C25.1734 23.8794 25.318 24.5813 24.958 25.1636C24.5907 25.7577 23.8686 25.9251 23.195 25.514C22.051 24.8158 20.9293 24.0812 19.7958 23.3658C19.631 23.2618 19.4529 23.1791 19.2649 23.0778C19.265 26.5487 19.265 29.9564 19.265 33.3642Z" fill="url(#paint0_linear_1_15521)"/>
</g>
<defs>
<linearGradient id="paint0_linear_1_15521" x1="0.288088" y1="18.1774" x2="35.7996" y2="18.1774" gradientUnits="userSpaceOnUse">
<stop stop-color="#27BAE3"/>
<stop offset="1" stop-color="#5C469B"/>
</linearGradient>
<clipPath id="clip0_1_15521">
<rect width="36" height="36" fill="white" transform="translate(0 0.279297)"/>
</clipPath>
</defs>
</svg>
