<svg width="36" height="37" viewBox="0 0 36 37" fill="none" xmlns="http://www.w3.org/2000/svg">
<g clip-path="url(#clip0_1_15519)">
<path d="M23.8976 13.9516H22.2617V12.3157C22.2617 11.7489 22.7215 11.2891 23.2884 11.2891H23.8976C24.4644 11.2891 24.9242 11.7489 24.9242 12.3157V12.9251C24.9242 13.492 24.4644 13.9516 23.8976 13.9516Z" fill="#005FFF"/>
<path d="M14.2738 13.9515H12.638C12.0711 13.9515 11.6113 13.4919 11.6113 12.9251V12.3157C11.6113 11.7489 12.0711 11.2891 12.638 11.2891H13.2472C13.814 11.2891 14.2738 11.7489 14.2738 12.3157V13.9515Z" fill="#005FFF"/>
<path d="M12.638 24.8675C12.0711 24.8675 11.6113 24.4079 11.6113 23.8411V23.2317C11.6113 22.6649 12.0711 22.2051 12.638 22.2051H14.2738V23.8412C14.2738 24.4081 13.814 24.8676 13.2472 24.8676L12.638 24.8675Z" fill="#005FFF"/>
<path d="M23.2884 24.8676C22.7215 24.8676 22.2617 24.408 22.2617 23.8412V22.2051H23.8976C24.4644 22.2051 24.9242 22.6649 24.9242 23.2317V23.8411C24.9242 24.408 24.4644 24.8675 23.8976 24.8675L23.2884 24.8676Z" fill="#005FFF"/>
<path d="M17.9632 11.555C17.3963 11.555 16.9365 11.0952 16.9365 10.5283V9.91894C16.9365 9.35208 17.3963 8.89258 17.9632 8.89258H18.5724C19.1392 8.89258 19.599 9.35215 19.599 9.91894V10.5283C19.599 11.0952 19.1392 11.555 18.5724 11.555H17.9632Z" fill="#00CCEE"/>
<path d="M17.9632 27.7952C17.3963 27.7952 16.9365 27.3357 16.9365 26.7689V26.1595C16.9365 25.5926 17.3963 25.1328 17.9632 25.1328H18.5724C19.1392 25.1328 19.599 25.5926 19.599 26.1595V26.7689C19.599 27.3357 19.1392 27.7952 18.5724 27.7952H17.9632Z" fill="#00CCEE"/>
<path d="M25.9505 19.5413C25.3834 19.5413 24.9238 19.0817 24.9238 18.515V17.9056C24.9238 17.3387 25.3834 16.8789 25.9505 16.8789H26.5597C27.1265 16.8789 27.5863 17.3387 27.5863 17.9056V18.515C27.5863 19.0818 27.1265 19.5413 26.5597 19.5413H25.9505Z" fill="#00CCEE"/>
<path d="M9.70926 19.5413C9.14212 19.5413 8.68262 19.0817 8.68262 18.515V17.9056C8.68262 17.3387 9.14219 16.8789 9.70926 16.8789H10.3185C10.8853 16.8789 11.3451 17.3387 11.3451 17.9056V18.515C11.3451 19.0818 10.8853 19.5413 10.3185 19.5413H9.70926Z" fill="#00CCEE"/>
<path d="M21.5241 16.9805C21.9315 16.9805 22.2619 16.6467 22.2619 16.2347V14.2169H20.2296C19.8222 14.2169 19.4915 14.5504 19.4915 14.9624L19.4918 15.6255C19.4915 16.374 18.929 17.018 18.1883 17.018C17.4478 17.018 16.8102 16.374 16.8102 15.6255V14.9354C16.8102 14.5384 16.4917 14.2168 16.0987 14.2168H14.2744V22.4705H16.0838C16.4851 22.4705 16.8102 22.142 16.8102 21.737V21.1155C16.8102 20.3272 17.3855 19.6653 18.1263 19.6653C18.8667 19.668 19.4918 20.2995 19.4918 21.0477L19.4915 21.7309C19.4918 22.1393 19.8196 22.4705 20.2237 22.4705H22.2618V20.4297C22.2618 20.0216 21.9341 19.6904 21.5296 19.6904H20.921C20.1803 19.6904 19.4918 19.0839 19.4918 18.3354C19.4945 17.587 20.0946 16.9804 20.8353 16.9804H21.5239L21.5241 16.9805Z" fill="#003EC5"/>
<path d="M22.3048 27.868C22.7801 27.6712 23.3251 27.897 23.5218 28.3722C23.7191 28.8477 23.4931 29.3925 23.0178 29.5895C22.5426 29.7863 21.9976 29.5608 21.8005 29.0853C21.6038 28.6097 21.8296 28.0649 22.3048 27.868Z" fill="#0054FF"/>
<path d="M13.7844 7.10038C14.2596 6.9036 14.8049 7.12939 15.0017 7.60467C15.1984 8.08015 14.9726 8.62491 14.4974 8.82197C14.0219 9.01875 13.4768 8.79324 13.2801 8.31768C13.0833 7.84212 13.3091 7.29737 13.7844 7.10038Z" fill="#0054FF"/>
<path d="M27.658 14.4407C27.4612 13.9652 27.687 13.4205 28.1623 13.2234C28.6378 13.0266 29.1823 13.2524 29.3796 13.7277C29.5764 14.2032 29.3506 14.7482 28.8753 14.945C28.3998 15.1418 27.8548 14.9163 27.658 14.4407Z" fill="#0044FF"/>
<path d="M7.15702 22.9602C6.96024 22.485 7.18604 21.94 7.66131 21.7432C8.1368 21.5459 8.68133 21.7719 8.87861 22.2472C9.07539 22.7225 8.8496 23.2677 8.37432 23.4645C7.89884 23.6612 7.3538 23.4357 7.15702 22.9602Z" fill="#0054FF"/>
<path d="M7.15698 13.7277C7.35426 13.2524 7.89872 13.0266 8.37428 13.2234C8.84956 13.4204 9.07535 13.9655 8.87857 14.4407C8.68129 14.9162 8.13683 15.1418 7.66127 14.945C7.18607 14.7482 6.96028 14.2033 7.15698 13.7277Z" fill="#002DAE"/>
<path d="M22.0383 8.82197C21.563 8.62498 21.3372 8.08023 21.534 7.60467C21.7307 7.12939 22.2757 6.9036 22.7513 7.10038C23.2265 7.29737 23.4523 7.84212 23.2556 8.31768C23.0588 8.79324 22.5135 9.01875 22.0383 8.82197Z" fill="#002DAE"/>
<path d="M27.658 22.2472C27.8552 21.7719 28.4 21.5459 28.8753 21.7432C29.3505 21.94 29.5763 22.485 29.3796 22.9602C29.1828 23.4357 28.6378 23.6613 28.1623 23.4645C27.687 23.2677 27.4613 22.7225 27.658 22.2472Z" fill="#00CCEE"/>
<path d="M13.2521 29.8552C12.7768 29.6582 12.5508 29.1134 12.7481 28.6379C12.9449 28.1626 13.4898 27.9368 13.9651 28.1336C14.4404 28.3306 14.6662 28.8753 14.4694 29.3509C14.2723 29.8264 13.7274 30.052 13.2521 29.8552Z" fill="#0081E9"/>
<path d="M26.944 27.154C27.1523 26.9461 27.4891 26.9461 27.697 27.154C27.9049 27.3619 27.9049 27.699 27.697 27.907C27.4891 28.1149 27.1523 28.1149 26.944 27.907C26.7361 27.699 26.7361 27.3619 26.944 27.154Z" fill="#002DAE"/>
<path d="M8.83857 8.78291C9.04651 8.57497 9.38361 8.57497 9.59155 8.78291C9.79948 8.99084 9.79948 9.32795 9.59155 9.53588C9.38361 9.74382 9.04651 9.74382 8.83857 9.53588C8.63063 9.32787 8.63063 8.99084 8.83857 8.78291Z" fill="#0099C0"/>
<path d="M26.944 9.53588C26.7361 9.32795 26.7361 8.99084 26.944 8.78291C27.1523 8.57497 27.4891 8.57497 27.697 8.78291C27.9049 8.99084 27.9049 9.32795 27.697 9.53588C27.4891 9.74389 27.1523 9.74389 26.944 9.53588Z" fill="#0099C0"/>
<path d="M8.83857 27.907C8.63063 27.699 8.63063 27.3619 8.83857 27.154C9.04651 26.9461 9.38361 26.9461 9.59155 27.154C9.79948 27.3619 9.79948 27.699 9.59155 27.907C9.38361 28.1149 9.04651 28.1149 8.83857 27.907Z" fill="#0099C0"/>
<path d="M30.7812 18.2105C30.7812 17.9163 31.0198 17.6777 31.3135 17.6777C31.6077 17.6777 31.8462 17.9163 31.8462 18.2105C31.8462 18.5042 31.6077 18.7427 31.3135 18.7427C31.0198 18.7427 30.7812 18.5042 30.7812 18.2105Z" fill="#0099C0"/>
<path d="M4.95508 18.2105C4.95508 17.9163 5.1934 17.6777 5.48759 17.6777C5.78149 17.6777 6.0201 17.9163 6.0201 18.2105C6.0201 18.5042 5.78157 18.7427 5.48759 18.7427C5.1934 18.7427 4.95508 18.5042 4.95508 18.2105Z" fill="#0099C0"/>
<path d="M18.2681 5.96346C17.9739 5.96346 17.7354 5.72514 17.7354 5.43095C17.7354 5.13676 17.9739 4.89844 18.2681 4.89844C18.5618 4.89844 18.8003 5.13676 18.8003 5.43095C18.8003 5.72514 18.5618 5.96346 18.2681 5.96346Z" fill="#0099C0"/>
<path d="M18.2681 31.7896C17.9739 31.7896 17.7354 31.5511 17.7354 31.2571C17.7354 30.9629 17.9739 30.7246 18.2681 30.7246C18.5618 30.7246 18.8003 30.9629 18.8003 31.2571C18.8003 31.551 18.5618 31.7896 18.2681 31.7896Z" fill="#83FFEE"/>
<path d="M34.7754 18.2102C34.7754 18.5039 35.0142 18.7428 35.3079 18.7428C35.6016 18.7428 35.8404 18.5039 35.8404 18.2102C35.8404 17.9166 35.6016 17.6777 35.3079 17.6777C35.0142 17.6777 34.7754 17.9166 34.7754 18.2102Z" fill="#005FFF"/>
<path d="M0.56247 17.9453C0.342294 17.9453 0.163086 18.1242 0.163086 18.3447C0.163086 18.5652 0.342294 18.7441 0.56247 18.7441C0.782934 18.7441 0.961854 18.5652 0.961854 18.3447C0.961854 18.1242 0.782934 17.9453 0.56247 17.9453Z" fill="#005FFF"/>
<path d="M17.4688 1.17118C17.4688 1.46487 17.7076 1.7037 18.0013 1.7037C18.2949 1.7037 18.5338 1.46487 18.5338 1.17118C18.5338 0.877496 18.2949 0.638672 18.0013 0.638672C17.7076 0.638672 17.4688 0.877496 17.4688 1.17118Z" fill="#00CCEE"/>
<path d="M33.2405 24.5566C33.0693 24.9621 33.2603 25.4318 33.6658 25.603C33.7669 25.6456 33.8721 25.6659 33.9755 25.6659C34.2872 25.6659 34.5839 25.4827 34.7124 25.1781C34.8837 24.7721 34.693 24.3029 34.2872 24.1315C33.8811 23.9597 33.4117 24.1508 33.2405 24.5566Z" fill="#00CCEE"/>
<path d="M24.5988 33.1631C24.5325 33.1352 24.4625 33.1211 24.3922 33.1211C24.3243 33.1211 24.2564 33.1344 24.1917 33.1605C24.0599 33.214 23.9568 33.3157 23.9014 33.4467C23.8464 33.5774 23.8453 33.722 23.8988 33.8538C23.9523 33.9855 24.054 34.0886 24.185 34.1437C24.3157 34.1991 24.46 34.2004 24.5921 34.1467C24.7238 34.0932 24.8269 33.9917 24.8823 33.8605C24.9374 33.7297 24.9385 33.5851 24.885 33.4534C24.8315 33.3218 24.7301 33.2188 24.5988 33.1631Z" fill="#00CCEE"/>
<path d="M2.50012 11.0635C2.43359 11.0356 2.36354 11.0215 2.29298 11.0215C2.22559 11.0215 2.15769 11.0348 2.09303 11.0609C1.96099 11.1144 1.85795 11.2161 1.8028 11.3471C1.74772 11.4778 1.74664 11.6226 1.80014 11.7542C1.85363 11.8859 1.95508 11.989 2.08634 12.0441C2.21709 12.0995 2.36167 12.1005 2.49343 12.0468C2.62519 11.9933 2.72829 11.8918 2.78366 11.7608C2.83874 11.63 2.83982 11.4852 2.78632 11.3537C2.73283 11.2219 2.63116 11.1192 2.50012 11.0635Z" fill="#00CCEE"/>
<path d="M1.01437 24.7408C1.15737 24.4021 1.54768 24.2437 1.88636 24.3864C2.22505 24.5294 2.38345 24.9197 2.24075 25.2584C2.09776 25.5971 1.70745 25.7555 1.36876 25.6128C1.03007 25.4698 0.871669 25.0792 1.01437 24.7408Z" fill="#83FFEE"/>
<path d="M24.2662 2.71633C23.9275 2.57334 23.7691 2.18303 23.9118 1.84434C24.0548 1.50565 24.4451 1.34726 24.7838 1.48996C25.1225 1.63295 25.2809 2.02326 25.1382 2.36195C24.9952 2.70057 24.6046 2.85904 24.2662 2.71633Z" fill="#83FFEE"/>
<path d="M34.2258 10.7855C34.127 10.8256 34.0496 10.9018 34.0083 11C33.9668 11.0983 33.966 11.2069 34.0061 11.3057C34.0463 11.4041 34.1225 11.4816 34.2207 11.5229C34.319 11.5644 34.4276 11.5652 34.5261 11.525C34.6249 11.4849 34.7024 11.409 34.7439 11.3107C34.8294 11.1078 34.7341 10.8732 34.5314 10.7875C34.4814 10.7662 34.4289 10.7559 34.3762 10.7559C34.3254 10.7559 34.2743 10.7658 34.2258 10.7855Z" fill="#83FFEE"/>
<path d="M10.844 2.21457C10.7583 2.41746 10.8536 2.65204 11.0565 2.73772C11.155 2.77955 11.2636 2.77977 11.3621 2.73988C11.4609 2.6997 11.5384 2.62324 11.5799 2.52503C11.6657 2.32214 11.5701 2.08785 11.3672 2.00238C11.3165 1.98078 11.2641 1.9707 11.2125 1.9707C11.0565 1.97063 10.9082 2.06229 10.844 2.21457Z" fill="#005FFF"/>
<path d="M10.9468 33.6543C10.7911 33.6543 10.6428 33.7459 10.5783 33.8984C10.4926 34.1011 10.5882 34.3359 10.7911 34.4216C10.994 34.5074 11.2288 34.4117 11.3143 34.2088C11.4 34.0062 11.3047 33.7714 11.1018 33.6859C11.0512 33.6644 10.9987 33.6543 10.9468 33.6543Z" fill="#50E7F0"/>
<path d="M29.8273 30.8351C30.0349 30.6271 30.0349 30.2895 29.8273 30.0821C29.7266 29.9812 29.5927 29.9258 29.4505 29.9258C29.3081 29.9258 29.1744 29.9811 29.0737 30.0821C28.8661 30.2895 28.8661 30.6271 29.0737 30.8351C29.2814 31.0427 29.619 31.043 29.8273 30.8351Z" fill="#50E7F0"/>
<path d="M4.9229 5.66546C4.61164 5.977 4.61164 6.48417 4.9229 6.79543C5.07892 6.95116 5.2834 7.02921 5.48817 7.02921C5.69293 7.02921 5.89741 6.95124 6.05344 6.79543C6.36469 6.48417 6.36469 5.977 6.05344 5.66546C5.74161 5.3537 5.23444 5.3537 4.9229 5.66546Z" fill="#50E7F0"/>
<path d="M30.0996 5.81412C30.024 5.88972 29.9824 5.98987 29.9824 6.09658C29.9824 6.20335 30.024 6.30372 30.0996 6.37882C30.2551 6.53513 30.5088 6.53484 30.6643 6.37911C30.82 6.22337 30.82 5.96986 30.6646 5.81412C30.5866 5.73615 30.4843 5.69727 30.3821 5.69727C30.2796 5.69727 30.1773 5.73615 30.0996 5.81412Z" fill="#50E7F0"/>
<path d="M5.07192 30.0429C4.91618 30.1984 4.91618 30.4522 5.07163 30.6076C5.22765 30.7636 5.48138 30.7634 5.6369 30.6076C5.79264 30.4521 5.79264 30.1984 5.6369 30.0429C5.56152 29.9673 5.46115 29.9258 5.35444 29.9258C5.24767 29.9258 5.14759 29.9673 5.07192 30.0429Z" fill="#00CCEE"/>
<path d="M17.7354 35.179C17.7354 35.4727 17.9742 35.7115 18.2679 35.7115C18.5616 35.7115 18.8004 35.4727 18.8004 35.179C18.8004 34.8853 18.5616 34.6465 18.2679 34.6465C17.9742 34.6465 17.7354 34.8853 17.7354 35.179Z" fill="#00CCEE"/>
</g>
<defs>
<clipPath id="clip0_1_15519">
<rect width="36" height="36" fill="white" transform="translate(0 0.279297)"/>
</clipPath>
</defs>
</svg>
