<svg width="36" height="37" viewBox="0 0 36 37" fill="none" xmlns="http://www.w3.org/2000/svg">
<g clip-path="url(#clip0_1_15930)">
<path d="M35.9999 31.5567C35.9999 34.1631 33.8903 36.2727 31.2839 36.2727H4.73748C2.13108 36.2727 0.0214844 34.1631 0.0214844 31.5567V5.00311C0.0214844 2.39671 2.13108 0.287109 4.73748 0.287109H31.2839C33.8903 0.287109 35.9999 2.39671 35.9999 5.00311V31.5567Z" fill="white"/>
<path d="M30.4196 30.5625H18.0068L30.4196 18.2793V30.5625Z" fill="url(#paint0_linear_1_15930)"/>
<path d="M30.4202 30.5618H5.73145V5.87305L30.4202 30.5618Z" fill="url(#paint1_linear_1_15930)"/>
<path opacity="0.14" d="M30.4203 30.6844L24.2139 24.478L25.3299 23.4844L30.4203 30.6844Z" fill="url(#paint2_linear_1_15930)"/>
</g>
<defs>
<linearGradient id="paint0_linear_1_15930" x1="24.2135" y1="18.2234" x2="24.2135" y2="30.5865" gradientUnits="userSpaceOnUse">
<stop stop-color="#FF4681"/>
<stop offset="1" stop-color="#9B44F6"/>
</linearGradient>
<linearGradient id="paint1_linear_1_15930" x1="-0.153078" y1="12.3354" x2="24.5756" y2="37.0629" gradientUnits="userSpaceOnUse">
<stop stop-color="#FF4681"/>
<stop offset="0.739" stop-color="#9B44F6"/>
</linearGradient>
<linearGradient id="paint2_linear_1_15930" x1="27.2079" y1="24.3591" x2="25.4683" y2="28.9549" gradientUnits="userSpaceOnUse">
<stop/>
<stop offset="1"/>
</linearGradient>
<clipPath id="clip0_1_15930">
<rect width="36" height="36" fill="white" transform="translate(0 0.279297)"/>
</clipPath>
</defs>
</svg>
