<svg width="36" height="37" viewBox="0 0 36 37" fill="none" xmlns="http://www.w3.org/2000/svg">
<g clip-path="url(#clip0_1_15518)">
<path d="M0.115234 18.293C0.115234 28.229 8.17203 36.2858 18.1152 36.2786C28.0512 36.2786 36.108 28.2218 36.1008 18.2786C36.1008 16.8746 35.9352 15.4706 35.6112 14.1098C35.3592 13.073 34.3152 12.4322 33.2784 12.6842C32.2416 12.9362 31.6008 13.9802 31.8528 15.017C33.6528 22.6058 28.9656 30.2234 21.3768 32.0234C13.7808 33.8306 6.17043 29.1362 4.36323 21.5474C2.55603 13.9586 7.25763 6.34104 14.8464 4.54104C16.9992 4.02984 19.2384 4.02984 21.3912 4.54104C22.428 4.78584 23.472 4.14504 23.724 3.10104C23.9688 2.06424 23.328 1.02024 22.284 0.768242C12.6216 -1.53576 2.91603 4.42584 0.612034 14.0882C0.280834 15.4706 0.115234 16.8746 0.115234 18.293Z" fill="url(#paint0_radial_1_15518)"/>
<path d="M24.5948 16.7313C24.5588 16.6161 24.5228 16.4937 24.494 16.3785C24.494 16.3641 24.494 16.3425 24.494 16.3209C23.846 13.5561 25.5668 10.7913 28.3316 10.1433C28.562 10.0857 28.7996 10.0497 29.0444 10.0281H29.1524C29.2604 10.0281 29.3684 10.0281 29.4836 10.0281H29.5052C30.1676 9.96332 30.794 9.67532 31.262 9.20012C31.3772 9.08492 31.478 8.96252 31.5716 8.82572C32.522 7.55852 32.2628 5.75852 30.9956 4.81532C29.8364 3.94412 28.2092 4.08092 27.2084 5.12492C27.1868 5.14652 27.1652 5.17532 27.1436 5.20412C26.7044 5.67212 26.438 6.26972 26.3804 6.90332C26.3804 7.00412 26.3804 7.10492 26.3804 7.21292C26.3804 7.31372 26.3804 7.34972 26.3588 7.42172C26.0852 10.2441 23.5724 12.3105 20.7428 12.0369C20.5124 12.0153 20.282 11.9793 20.0588 11.9217C19.9292 11.8929 19.7996 11.8569 19.6772 11.8137C19.13 11.6841 18.5684 11.6193 18.014 11.6265C16.3724 11.6553 14.8028 12.2889 13.6076 13.4049C13.5428 13.4697 13.4708 13.5201 13.406 13.5849C10.9004 16.2777 11.0444 20.4897 13.7372 22.9953C16.2932 25.3785 20.2676 25.3785 22.8236 22.9953C24.4292 21.3465 25.0988 18.9921 24.5948 16.7313Z" fill="url(#paint1_linear_1_15518)"/>
</g>
<defs>
<radialGradient id="paint0_radial_1_15518" cx="0" cy="0" r="1" gradientUnits="userSpaceOnUse" gradientTransform="translate(29.0374 6.81416) scale(15.5904)">
<stop stop-color="#00EDD3"/>
<stop offset="0.42" stop-color="#00EDD3"/>
<stop offset="0.94" stop-color="#1B456E"/>
<stop offset="1" stop-color="#1B456E"/>
</radialGradient>
<linearGradient id="paint1_linear_1_15518" x1="13.3987" y1="23.0014" x2="31.2678" y2="5.13227" gradientUnits="userSpaceOnUse">
<stop stop-color="#1B456E"/>
<stop offset="0.06" stop-color="#1B456E"/>
<stop offset="0.58" stop-color="#00EDD3"/>
<stop offset="1" stop-color="#00EDD3"/>
</linearGradient>
<clipPath id="clip0_1_15518">
<rect width="36" height="36" fill="white" transform="translate(0 0.279297)"/>
</clipPath>
</defs>
</svg>
