<svg width="36" height="37" viewBox="0 0 36 37" fill="none" xmlns="http://www.w3.org/2000/svg">
<g clip-path="url(#clip0_1_15945)">
<path d="M16.5596 18.2078L29.9516 25.8686C30.4196 26.135 31.0028 25.7966 31.0028 25.2638V11.1518C31.0028 10.6118 30.4196 10.2806 29.9516 10.547L16.5596 18.2078Z" fill="#31CB9E"/>
<path d="M29.6563 7.14812L20.5051 0.423322C20.0803 0.113722 19.4755 0.336922 19.3603 0.833723L16.0195 15.7953L29.5627 8.30012C30.0235 8.05532 30.0595 7.45052 29.6563 7.14812Z" fill="#31CB9E"/>
<path d="M20.4985 35.9833L29.6569 29.2585C30.0673 28.9561 30.0241 28.3513 29.5849 28.1065L16.0273 20.6113L19.3681 35.5729C19.4689 36.0769 20.0809 36.2929 20.4985 35.9833Z" fill="#31CB9E"/>
<path d="M13.082 17.941L16.5452 1.66904C16.682 1.02824 15.962 0.567438 15.4436 0.963438L6.58035 7.79624C6.12675 8.14184 5.86035 8.69624 5.86035 9.27224V26.6098C5.86035 27.1858 6.12675 27.733 6.58035 28.0858L15.4436 34.9114C15.9548 35.3074 16.6748 34.8466 16.5452 34.2058L13.082 17.941Z" fill="#31CB9E"/>
</g>
<defs>
<clipPath id="clip0_1_15945">
<rect width="36" height="36" fill="white" transform="translate(0 0.279297)"/>
</clipPath>
</defs>
</svg>
