<svg width="36" height="37" viewBox="0 0 36 37" fill="none" xmlns="http://www.w3.org/2000/svg">
<g clip-path="url(#clip0_1_15516)">
<path d="M35.9638 0.322266H0.0429688V36.2431H35.9638V0.322266Z" fill="black" stroke="black" stroke-width="0.0816336" stroke-miterlimit="11.3379"/>
<path d="M30.4996 10.6759C30.0748 10.3447 29.5708 9.88391 28.6492 9.76871C27.7852 9.65351 26.8996 10.2367 26.3092 10.6183C25.7116 10.9999 24.5884 12.1303 24.1204 12.4687C23.6524 12.8071 22.4644 13.1311 20.542 14.2831C18.6196 15.4351 11.0956 20.2663 11.0956 20.2663L13.054 20.2879L4.32044 24.7951H5.19164L3.93164 25.7527C3.93164 25.7527 5.04044 26.0479 5.96924 25.4575V25.7239C5.96924 25.7239 16.366 21.6271 18.3748 22.6855L17.1508 23.0455C17.2588 23.0455 19.2316 23.1751 19.2316 23.1751C19.3252 24.0031 19.786 24.7447 20.4916 25.1983C21.6868 25.9831 21.7084 26.4151 21.7084 26.4151C21.7084 26.4151 21.0892 26.6671 21.0892 26.9839C21.0892 26.9839 22.0036 26.7031 22.8532 26.7319C23.3932 26.7535 23.926 26.8399 24.4444 26.9839C24.4444 26.9839 24.3796 26.6383 23.5516 26.4151C22.7236 26.1847 21.91 25.2919 21.514 24.8023C21.0172 24.1687 20.8876 23.3191 21.1828 22.5631C21.4708 21.8215 22.4644 21.4111 24.5236 20.3527C26.95 19.0927 27.5044 18.1639 27.8428 17.4367C28.1884 16.7095 28.6924 15.2623 28.9804 14.5855C29.3404 13.7143 29.7796 13.2463 30.1468 12.9727C30.514 12.6919 32.1484 12.0799 32.1484 12.0799C32.1484 12.0799 30.8956 10.9999 30.4996 10.6759Z" fill="white"/>
</g>
<defs>
<clipPath id="clip0_1_15516">
<rect width="36" height="36" fill="white" transform="translate(0 0.279297)"/>
</clipPath>
</defs>
</svg>
