<svg width="36" height="37" viewBox="0 0 36 37" fill="none" xmlns="http://www.w3.org/2000/svg">
<g clip-path="url(#clip0_1_15915)">
<path d="M35.8273 6.65148V1.85628C35.8273 1.39548 35.3665 1.07868 34.9417 1.24428L17.2225 8.06268L20.4049 1.42428C20.6137 0.992281 20.2969 0.488281 19.8145 0.488281H15.0625C14.8105 0.488281 14.5801 0.632281 14.4721 0.855481L10.2457 9.57468L6.97689 0.913081C6.88329 0.661081 6.63849 0.488281 6.36489 0.488281H1.54809C1.08729 0.488281 0.770486 0.949081 0.936086 1.37388L7.78329 19.1795L1.21689 16.1051C0.784886 15.9035 0.288086 16.2203 0.288086 16.6955V21.2531C0.288086 21.5051 0.432086 21.7283 0.655286 21.8435L9.20169 26.0339L0.705686 29.2595C0.453686 29.3531 0.288086 29.5979 0.288086 29.8715V34.6739C0.288086 35.1347 0.748886 35.4443 1.17369 35.2859L18.9937 28.5395L15.7393 35.0915C15.5233 35.5235 15.8401 36.0347 16.3225 36.0347H21.1609C21.4129 36.0347 21.6433 35.8907 21.7513 35.6675L25.8121 27.2579L29.0593 35.6243C29.1601 35.8763 29.3977 36.0419 29.6713 36.0419H34.4737C34.9345 36.0419 35.2513 35.5811 35.0857 35.1563L28.3969 17.5523L34.8121 20.4395C35.2441 20.6339 35.7337 20.3171 35.7337 19.8419V15.2699C35.7337 15.0179 35.5897 14.7947 35.3665 14.6795L26.8489 10.5179L35.4169 7.27068C35.6617 7.16268 35.8273 6.92508 35.8273 6.65148ZM22.2409 21.2027L16.7329 23.2835C16.0921 22.9955 15.7393 22.8371 15.0985 22.5491L13.0177 17.0411C13.3057 16.4003 13.4641 16.0475 13.7521 15.4067L19.2601 13.3259C19.9009 13.6139 20.2537 13.7723 20.8945 14.0603L22.9753 19.5683C22.6873 20.2019 22.5289 20.5619 22.2409 21.2027Z" fill="url(#paint0_linear_1_15915)"/>
</g>
<defs>
<linearGradient id="paint0_linear_1_15915" x1="0.780559" y1="0.987018" x2="35.28" y2="35.4865" gradientUnits="userSpaceOnUse">
<stop stop-color="#38BFB4"/>
<stop offset="1" stop-color="#1281A0"/>
</linearGradient>
<clipPath id="clip0_1_15915">
<rect width="36" height="36" fill="white" transform="translate(0 0.279297)"/>
</clipPath>
</defs>
</svg>
