<svg width="36" height="37" viewBox="0 0 36 37" fill="none" xmlns="http://www.w3.org/2000/svg">
<path d="M2.37906 33.315C3.1231 32.0249 3.81294 30.8287 4.55187 29.5475C3.09366 29.5475 1.7163 29.5475 0.15332 29.5475C5.44921 20.4324 10.6695 11.4477 15.9453 2.36719C16.6968 3.67305 17.3949 4.88611 18.1266 6.15748C18.8753 4.88071 19.5848 3.67075 20.3492 2.36733C25.509 11.4336 30.6154 20.4062 35.784 29.4879C34.2685 29.4879 32.8901 29.4879 31.3801 29.4879C32.1259 30.8102 32.8129 32.0282 33.5387 33.315C23.14 33.315 12.8211 33.315 2.37906 33.315ZM18.1032 9.83179C14.6252 15.8202 11.2099 21.7007 7.76782 27.6272C14.6522 27.6272 21.3971 27.6272 28.2301 27.6272C24.8497 21.687 21.5107 15.8195 18.1032 9.83179ZM19.1582 7.99176C22.9122 14.5864 26.6343 21.1252 30.3432 27.6407C31.1287 27.6407 31.8485 27.6407 32.6573 27.6407C28.5434 20.4119 24.466 13.247 20.3303 5.97993C19.9064 6.70756 19.5455 7.32705 19.1582 7.99176ZM15.9274 5.98526C11.6994 13.262 7.54124 20.4184 3.34962 27.6325C4.17841 27.6325 4.91828 27.6325 5.6511 27.6325C6.3932 26.3594 7.11766 25.1205 7.83838 23.8794C10.8172 18.7499 13.7983 13.6217 16.7622 8.48359C16.8923 8.25808 16.9767 7.8906 16.8838 7.6746C16.6466 7.123 16.2971 6.61972 15.9274 5.98526ZM29.3249 29.5585C21.7262 29.5585 14.1906 29.5585 6.63375 29.5585C6.27058 30.1989 5.91634 30.8235 5.54151 31.4843C13.8738 31.4843 22.1069 31.4843 30.4215 31.4843C30.025 30.788 29.6684 30.1616 29.3249 29.5585Z" fill="black"/>
</svg>
