<svg width="36" height="37" viewBox="0 0 36 37" fill="none" xmlns="http://www.w3.org/2000/svg">
<g clip-path="url(#clip0_1_15513)">
<path d="M18 36.2793C27.9411 36.2793 36 28.2204 36 18.2793C36 8.33817 27.9411 0.279297 18 0.279297C8.05887 0.279297 0 8.33817 0 18.2793C0 28.2204 8.05887 36.2793 18 36.2793Z" fill="#F69988"/>
<path fill-rule="evenodd" clip-rule="evenodd" d="M18.0068 5.54883L24.3212 15.4056L18.0068 19.0776L11.6924 15.4056L18.0068 5.54883ZM13.6292 14.9448L18.0068 8.10483L22.3844 14.9448L17.9996 17.4936L13.6292 14.9448Z" fill="white"/>
<path d="M17.9999 21.2526L10.6775 16.9902L10.4759 17.2998C8.22229 20.8206 8.72629 25.4358 11.6855 28.395C15.1703 31.8726 20.8295 31.8726 24.3143 28.395C27.2807 25.4358 27.7847 20.8278 25.5239 17.2998L25.3223 16.9902L17.9999 21.2526Z" fill="white"/>
</g>
<defs>
<clipPath id="clip0_1_15513">
<rect width="36" height="36" fill="white" transform="translate(0 0.279297)"/>
</clipPath>
</defs>
</svg>
