<svg width="36" height="37" viewBox="0 0 36 37" fill="none" xmlns="http://www.w3.org/2000/svg">
<g clip-path="url(#clip0_1_15738)">
<path d="M17.9857 35.8014C27.6783 35.8014 35.5358 27.944 35.5358 18.2513C35.5358 8.55863 27.6783 0.701172 17.9857 0.701172C8.29301 0.701172 0.435547 8.55863 0.435547 18.2513C0.435547 27.944 8.29301 35.8014 17.9857 35.8014Z" fill="#00A5C5"/>
<path d="M19.1958 24.1505L12.2968 31.0496L10.33 28.9314L15.1109 24.1505L10.1484 19.1881L12.2666 17.07L19.1958 24.1505ZM23.2203 20.1866L25.3384 18.0685L20.3759 13.1061L25.1568 8.32516L23.19 6.20703L16.2607 13.1061L23.2203 20.1866ZM13.1441 16.253L20.1036 23.3336L22.2217 21.2154L15.2622 14.2559L13.1441 16.253Z" fill="white"/>
</g>
<defs>
<clipPath id="clip0_1_15738">
<rect width="36" height="36" fill="white" transform="translate(0 0.279297)"/>
</clipPath>
</defs>
</svg>
