<svg width="36" height="37" viewBox="0 0 36 37" fill="none" xmlns="http://www.w3.org/2000/svg">
<path d="M0.431641 17.4367L2.69964 14.9959C2.99484 14.6791 3.41964 14.5063 3.85884 14.5351L5.91804 14.6575C6.66684 14.7007 7.40124 14.4055 7.91244 13.8583L17.9708 2.98633L20.354 5.08153L11.2316 14.9311C10.8428 15.3559 10.3028 15.5935 9.74124 15.6079C9.46764 15.6151 9.20124 15.5575 8.94924 15.4567L8.50284 15.2767C7.66764 14.9455 6.71724 15.1687 6.11244 15.8383L2.75724 19.5607L0.431641 17.4367Z" fill="url(#paint0_linear_1_15866)"/>
<path d="M5.57324 22.0297L10.3036 17.0113C10.5988 16.6945 11.0236 16.5217 11.4628 16.5505L13.522 16.6729C14.2708 16.7161 15.0052 16.4209 15.5164 15.8737L23.1268 7.59375L25.51 9.68895L18.8356 16.9537C18.4468 17.3785 17.9068 17.6161 17.3452 17.6305C17.0716 17.6377 16.8052 17.5801 16.5532 17.4793L16.1068 17.2993C15.2716 16.9681 14.3212 17.1913 13.7164 17.861L7.89884 24.1609L5.57324 22.0297Z" fill="url(#paint1_linear_1_15866)"/>
<path d="M10.5908 26.5947L17.546 19.0275C17.8412 18.7107 18.266 18.5379 18.7052 18.5667L20.7644 18.6891C21.5132 18.7323 22.2476 18.4371 22.7588 17.8899L28.202 12.1875L30.5852 14.2827L26.0708 18.9627C25.682 19.3875 25.142 19.6251 24.5804 19.6395C24.3068 19.6467 24.0404 19.5891 23.7884 19.4883L23.342 19.3083C22.5068 18.9771 21.5564 19.2003 20.9516 19.8699L12.9092 28.7187L10.5908 26.5947Z" fill="url(#paint2_linear_1_15866)"/>
<path d="M15.667 31.2892L25.135 21.0436C25.4302 20.7268 25.855 20.554 26.2942 20.5828L28.3534 20.7052C29.1022 20.7484 29.8366 20.4532 30.3478 19.906L33.2494 16.918L35.6326 19.0132L33.667 20.986C33.2782 21.4108 32.7382 21.6484 32.1766 21.6628C31.903 21.67 31.6366 21.6124 31.3846 21.5116L30.9382 21.3316C30.103 21.0004 29.1526 21.2236 28.5478 21.8932L17.9926 33.4132L15.667 31.2892Z" fill="url(#paint3_linear_1_15866)"/>
<defs>
<linearGradient id="paint0_linear_1_15866" x1="2.96603" y1="19.5977" x2="17.5807" y2="3.18824" gradientUnits="userSpaceOnUse">
<stop offset="0.2287" stop-color="#2AE38D"/>
<stop offset="0.2856" stop-color="#1ED27B"/>
</linearGradient>
<linearGradient id="paint1_linear_1_15866" x1="8.11468" y1="24.1938" x2="22.7315" y2="7.78199" gradientUnits="userSpaceOnUse">
<stop offset="0.3741" stop-color="#2AE38D"/>
<stop offset="0.4877" stop-color="#1ED27B"/>
</linearGradient>
<linearGradient id="paint2_linear_1_15866" x1="13.1558" y1="28.7828" x2="27.7848" y2="12.3573" gradientUnits="userSpaceOnUse">
<stop offset="0.5512" stop-color="#2AE38D"/>
<stop offset="0.6162" stop-color="#1ED27B"/>
</linearGradient>
<linearGradient id="paint3_linear_1_15866" x1="18.2343" y1="33.4748" x2="32.8333" y2="17.083" gradientUnits="userSpaceOnUse">
<stop offset="0.7235" stop-color="#2AE38D"/>
<stop offset="0.7979" stop-color="#1ED27B"/>
</linearGradient>
</defs>
</svg>
