<svg width="36" height="37" viewBox="0 0 36 37" fill="none" xmlns="http://www.w3.org/2000/svg">
<g clip-path="url(#clip0_1_15918)">
<path d="M18.5184 0.690042C18.5328 0.762042 18.5616 0.819642 18.5544 0.870042C18.5112 1.17244 18.3744 1.49644 18.4248 1.77724C18.4752 2.06524 18.7416 2.30284 18.8568 2.59084C18.9144 2.72044 18.8712 2.92204 18.8136 3.06604C18.4392 3.97324 18.5688 4.93084 18.5832 5.86684C18.5832 6.08284 18.8136 6.29164 18.9432 6.50764C19.0728 6.43564 19.1448 6.39964 19.2168 6.35644C19.872 5.96044 20.3328 6.19084 20.6568 6.98284C20.7216 7.14124 20.7576 7.31404 20.844 7.45084C21.3696 8.27884 21.4416 9.21484 21.4992 10.1436C21.5496 11.0364 21.5136 11.9364 21.5136 12.8292C21.5208 13.5996 21.4848 14.3556 21.2256 15.1044C21.0528 15.6012 21.1032 16.1772 20.988 16.6956C20.8368 17.3868 20.8872 18.1068 20.6856 18.7908C20.592 19.1076 20.5776 19.5036 20.6784 19.8204C20.9736 20.742 20.7576 21.606 20.5632 22.4988C20.4408 23.0748 20.4768 23.7012 20.4984 24.2988C20.5056 24.5004 20.7216 24.6804 20.8152 24.882C20.9736 25.2132 21.06 25.5948 21.276 25.8756C21.492 26.1636 21.8592 26.3364 22.1112 26.6028C22.8024 27.3372 23.6304 27.8628 24.516 28.338C25.2792 28.7484 26.0424 28.9068 26.8848 28.878C27.2232 28.8708 27.5544 28.8492 27.9 29.0076C28.116 29.1084 28.4256 29.0868 28.6704 29.0148C29.664 28.7268 30.672 28.9356 31.6728 28.8924C31.8528 28.8852 32.04 29.0148 32.2632 29.094C32.2416 30.0084 31.9752 30.8652 31.6512 31.7868C30.9528 31.9236 30.1032 31.6716 29.2464 31.9452C29.4336 32.3556 29.5632 32.6292 29.6928 32.91C29.7 32.9316 29.7576 33.7236 29.7504 33.7236C29.4408 33.9036 29.1744 34.2204 28.7496 33.954C28.584 33.8532 28.3824 33.8028 28.1952 33.7524C27.9072 33.6732 27.6912 33.7596 27.5904 34.0548C28.1088 34.674 28.2312 34.7244 29.3904 34.782C29.7432 35.0844 29.664 35.4156 29.4552 35.754C29.412 35.826 29.3256 35.9268 29.268 35.9196C28.7568 35.8836 28.2888 36.2076 27.7704 36.0564C27.612 36.0132 27.4392 35.9772 27.2664 35.9772C26.3232 35.9772 25.3944 35.862 24.48 35.6388C24.4008 35.6172 24.3072 35.6388 24.2208 35.6316C23.3352 35.5668 22.4568 35.5092 21.5712 35.43C21.1752 35.394 20.772 35.3724 20.3976 35.25C19.7784 35.0484 19.152 35.1132 18.5256 35.0988C16.6464 35.0628 14.9688 34.4508 13.464 33.3564C12.7656 32.8524 11.9376 32.6292 11.1456 32.3412C10.6416 32.1612 10.116 32.0388 9.59763 31.9092C9.38163 31.8516 9.14403 31.794 8.92803 31.8228C8.12883 31.9236 7.40883 32.2116 6.78963 32.7588C6.38643 33.1188 5.92563 33.414 5.48643 33.7236C5.20563 33.9252 4.92483 34.1268 4.50723 34.0404C4.01763 33.5292 4.26963 32.874 4.19043 32.2836C4.93923 31.4052 5.85363 30.7356 6.84003 30.138C7.71123 29.6124 8.57523 29.058 9.46083 28.554C10.0224 28.2372 10.6128 27.8628 11.2968 28.0212C11.88 28.158 12.3552 28.1292 12.8664 27.7692C13.3704 27.4164 13.896 27.7332 14.04 28.41C14.0904 28.6404 14.0904 28.8564 14.2776 29.0292C14.58 29.3028 14.688 29.2956 15.1416 28.8564C14.9544 28.698 14.7744 28.5468 14.4864 28.3092C14.5872 28.266 14.6592 28.2156 14.7312 28.2156C14.8392 28.2156 14.9904 28.2084 15.048 28.2732C15.3144 28.5756 15.6672 28.5684 16.0056 28.5396C16.3296 28.5108 16.6824 28.626 16.9704 28.3092C17.3304 27.9204 17.6472 27.5028 17.6616 26.9772C17.6976 25.9404 17.7048 24.8964 17.6544 23.8596C17.6256 23.334 17.496 22.794 17.316 22.2972C17.1936 21.966 16.884 21.6996 16.704 21.3828C16.4304 20.9148 16.164 20.4756 15.6744 20.1804C15.48 20.0652 15.3288 19.7772 15.2784 19.5468C15.1776 19.05 15.0984 18.5316 15.1056 18.0276C15.1344 16.6812 15.1632 15.3276 15.2928 13.9884C15.3432 13.4844 15.4872 12.966 15.408 12.4692C15.2208 11.3244 15.2712 10.1508 14.9544 9.02044C14.796 8.45164 14.76 7.83964 14.7456 7.24924C14.724 6.36364 14.5944 5.50684 14.4216 4.63564C14.292 3.95164 14.2488 3.21004 14.7168 2.56204C14.9688 2.22364 15.12 1.80604 15.3864 1.48204C15.5952 1.22284 15.8904 0.942042 16.1856 0.877242C16.8048 0.740442 17.3592 0.265242 18.0504 0.481242C18.2376 0.517242 18.3816 0.618042 18.5184 0.690042Z" fill="url(#paint0_linear_1_15918)"/>
</g>
<defs>
<linearGradient id="paint0_linear_1_15918" x1="18.2102" y1="36.111" x2="18.2102" y2="0.412525" gradientUnits="userSpaceOnUse">
<stop stop-color="#4B1015"/>
<stop offset="0.9996" stop-color="#AB1B21"/>
</linearGradient>
<clipPath id="clip0_1_15918">
<rect width="36" height="36" fill="white" transform="translate(0 0.279297)"/>
</clipPath>
</defs>
</svg>
