<svg width="36" height="37" viewBox="0 0 36 37" fill="none" xmlns="http://www.w3.org/2000/svg">
<path d="M35.6908 17.2712C35.6908 23.9168 31.4644 29.5976 25.4956 31.9088C29.7796 29.0792 32.5876 24.2984 32.5876 18.8768C32.5804 10.172 25.3444 3.12318 16.4164 3.12318C14.3068 3.12318 12.2908 3.51918 10.4404 4.23198C13.0252 2.51838 16.1572 1.51758 19.5196 1.51758C28.4476 1.51758 35.6908 8.57358 35.6908 17.2712Z" fill="#0B0381"/>
<path d="M16.4157 3.12305C14.3061 3.12305 12.2901 3.51905 10.4397 4.23185C6.15566 7.06865 3.34766 11.8494 3.34766 17.271C3.34766 25.9686 10.5909 33.0175 19.5189 33.0175C21.6285 33.0175 23.6445 32.6214 25.4877 31.9086C29.7717 29.079 32.5797 24.2982 32.5797 18.8766C32.5797 10.1718 25.3437 3.12305 16.4157 3.12305ZM21.3189 25.0542C19.9725 26.055 18.2877 26.6454 16.4733 26.6454C12.0237 26.6454 8.40926 23.0958 8.40926 18.711C8.40926 14.9382 11.0877 11.7774 14.6733 10.971C16.0197 9.97025 17.7045 9.37985 19.5189 9.37985C23.9685 9.37985 27.5829 12.9294 27.5829 17.3142C27.5901 21.0942 24.9117 24.2478 21.3189 25.0542Z" fill="#00024C"/>
<path d="M25.4883 31.9092C22.9035 33.6228 19.7787 34.6236 16.4163 34.6236C7.48832 34.6236 0.245117 27.5748 0.245117 18.8772C0.245117 12.2316 4.46432 6.55082 10.4403 4.23242C6.15632 7.06922 3.34832 11.85 3.34832 17.2716C3.34832 25.9692 10.5915 33.018 19.5195 33.018C21.6291 33.018 23.6451 32.622 25.4883 31.9092Z" fill="#00D397"/>
<path d="M27.5903 17.3153C27.5903 21.0881 24.9119 24.2489 21.3191 25.0553C23.2703 23.6081 24.5375 21.3041 24.5375 18.7121C24.5375 14.3273 20.9303 10.7777 16.4735 10.7777C15.8543 10.7777 15.2567 10.8425 14.6807 10.9721C16.0271 9.97126 17.7119 9.38086 19.5263 9.38086C23.9831 9.38086 27.5903 12.9377 27.5903 17.3153Z" fill="#00D397"/>
<path d="M21.3188 25.0539C19.9724 26.0547 18.2876 26.6451 16.4732 26.6451C12.0236 26.6451 8.40918 23.0955 8.40918 18.7107C8.40918 14.9379 11.0876 11.7771 14.6732 10.9707C12.722 12.4179 11.462 14.7219 11.462 17.3139C11.462 21.6987 15.0692 25.2483 19.526 25.2483C20.1452 25.2483 20.7428 25.1835 21.3188 25.0539Z" fill="#0B0381"/>
</svg>
