<svg width="36" height="37" viewBox="0 0 36 37" fill="none" xmlns="http://www.w3.org/2000/svg">
<g clip-path="url(#clip0_1_15811)">
<path fill-rule="evenodd" clip-rule="evenodd" d="M18.1219 0.279297C17.4811 0.279297 16.8331 0.315297 16.1995 0.387297C7.13474 1.3449 0.0859375 8.9913 0.0859375 18.2937C0.0859375 28.2369 8.15714 36.3009 18.1219 36.3009H18.1651C21.0379 36.3009 23.8603 35.6097 26.4091 34.2921C27.1363 33.9177 26.8195 32.8161 26.0059 32.8377H25.9699C18.7555 33.0177 12.2827 29.9721 9.64034 24.3273C8.05634 20.9505 8.12114 17.8185 8.85554 15.3489C8.86274 15.3273 8.86994 15.3057 8.86994 15.2841C9.24434 13.7577 9.94994 12.3537 10.9939 11.2593C11.0731 11.1657 11.1595 11.0721 11.2531 10.9857C11.3107 10.9209 11.3755 10.8633 11.4403 10.8129C11.4619 10.7841 11.4907 10.7625 11.5195 10.7409C11.5411 10.7265 11.5627 10.7049 11.5843 10.6833C11.6275 10.6401 11.6851 10.5969 11.7355 10.5609C13.5139 9.1137 15.7387 8.3289 18.0283 8.3361C23.4067 8.3361 27.7699 12.5337 27.7699 17.7177C27.7699 19.4961 27.2443 21.2385 26.2579 22.7289C30.5563 21.2457 33.6379 17.2857 33.6379 12.6273C33.6379 9.9777 32.6371 7.5585 30.9739 5.6793C30.2755 4.9665 29.5267 4.3113 28.7203 3.7281L28.7131 3.7209C25.6531 1.4817 21.9523 0.279297 18.1507 0.279297C18.1363 0.279297 18.1291 0.279297 18.1219 0.279297Z" fill="url(#paint0_linear_1_15811)"/>
<path fill-rule="evenodd" clip-rule="evenodd" d="M33.5453 12.5195C33.5453 17.1707 30.6149 21.1307 26.5109 22.6211C25.3589 23.0459 24.1421 23.2547 22.9109 23.2547C18.9653 23.2547 15.5237 21.0875 13.6877 17.8547C13.2413 17.0699 12.8885 15.7307 12.6509 14.5931C12.4277 13.5131 11.0165 13.2323 10.3973 14.1467C10.1813 14.4563 10.0229 14.8019 9.92928 15.1691C9.91488 15.2195 9.90048 15.2771 9.88608 15.3275C9.87888 15.3419 9.87888 15.3563 9.87888 15.3779C9.58368 16.5947 9.49728 17.8547 9.62688 19.1003C9.62688 19.1147 9.62688 19.1291 9.63408 19.1507C9.69168 19.7195 9.79248 20.2739 9.93648 20.8283C10.1093 21.5483 10.3541 22.2539 10.6637 22.9307C12.9101 27.9563 17.9285 31.0523 24.5525 30.5123C25.2077 30.4619 25.8557 30.3683 26.4965 30.2315C31.9613 29.0795 35.8925 24.1259 35.9285 18.2867V18.1787C35.9285 17.4587 35.8853 16.7315 35.7989 16.0187C35.3669 12.1163 33.6749 8.45154 30.9893 5.58594C32.6381 7.52274 33.5453 9.97794 33.5453 12.5195Z" fill="url(#paint1_linear_1_15811)"/>
</g>
<defs>
<linearGradient id="paint0_linear_1_15811" x1="0.0859375" y1="18.2901" x2="33.6379" y2="18.2901" gradientUnits="userSpaceOnUse">
<stop stop-color="#2D2D4B"/>
<stop offset="1" stop-color="#1D1D3A"/>
</linearGradient>
<linearGradient id="paint1_linear_1_15811" x1="9.56836" y1="18.0796" x2="35.9285" y2="18.0796" gradientUnits="userSpaceOnUse">
<stop stop-color="#95A1D4"/>
<stop offset="1" stop-color="#594DA0"/>
</linearGradient>
<clipPath id="clip0_1_15811">
<rect width="36" height="36" fill="white" transform="translate(0 0.279297)"/>
</clipPath>
</defs>
</svg>
