<svg width="36" height="37" viewBox="0 0 36 37" fill="none" xmlns="http://www.w3.org/2000/svg">
<path d="M10.7495 4.11719H25.2935L35.8775 14.7084L18.0503 32.5356L0.194336 14.6796L10.7495 4.11719Z" fill="#71E580"/>
<path d="M6.11328 14.6504L10.5125 10.2512C10.5125 10.2512 12.8813 7.46484 18.0869 7.46484C23.5805 7.46484 25.6613 10.2512 25.6613 10.2512L30.0965 14.6792L25.9493 18.8264C25.9493 18.8264 23.3285 21.944 18.1517 21.944C12.9749 21.944 10.3541 18.9344 10.3541 18.9344L6.11328 14.6504Z" fill="black"/>
<path d="M18.108 9.24414C15.0912 9.24414 12.6504 11.6921 12.6504 14.7017C12.6504 17.7113 15.0984 20.1593 18.108 20.1593C21.1248 20.1593 23.5656 17.7113 23.5656 14.7017C23.5656 11.6921 21.1248 9.24414 18.108 9.24414ZM18.108 17.0993C16.7832 17.0993 15.7104 16.0265 15.7104 14.7017C15.7104 13.3769 16.7832 12.3041 18.108 12.3041C19.4328 12.3041 20.5056 13.3769 20.5056 14.7017C20.5056 16.0265 19.4328 17.0993 18.108 17.0993Z" fill="white"/>
</svg>
