<svg width="36" height="37" viewBox="0 0 36 37" fill="none" xmlns="http://www.w3.org/2000/svg">
<path d="M0.548025 11.332C0.735801 9.84221 1.28386 8.63182 2.237 7.54915C2.46214 7.29341 2.74244 7.07791 3.02331 6.88078C4.9658 5.51753 6.91513 4.164 8.90255 2.7793C9.28875 3.04778 9.68742 3.32369 10.0847 3.60146C11.8666 4.84728 13.6505 6.09022 15.4292 7.34064C18.6752 9.62254 21.9183 11.9088 25.1624 14.1936C26.4347 15.0897 27.7063 15.9869 28.9782 16.8836C28.589 17.1697 28.2134 17.4776 27.8056 17.7341C27.5524 17.8932 27.3433 18.1371 27.0271 18.1905C26.6517 18.0397 26.3573 17.7648 26.0326 17.5371C23.6155 15.8416 21.2014 14.1417 18.7847 12.4456C15.7008 10.2813 12.6159 8.11824 9.52909 5.9581C9.3254 5.81561 9.14195 5.62618 8.91687 5.60148C8.77705 5.61372 8.70354 5.66261 8.62743 5.71553C7.23027 6.6881 5.82519 7.64945 4.43718 8.63477C4.03851 8.91773 3.69219 9.27197 3.40743 9.67812C2.27624 11.2914 2.50455 13.797 4.38498 15.1314C5.19512 15.7063 5.99879 16.2905 6.80533 16.8705C6.38507 17.1732 5.96646 17.4781 5.54396 17.7776C5.32703 17.9314 5.13133 18.1222 4.86198 18.1901C4.72381 18.106 4.57664 18.0336 4.44884 17.9359C3.57447 17.2675 2.58231 16.7474 1.88787 15.8527C1.13871 14.8875 0.603177 13.8423 0.550761 12.5946C0.546153 12.4883 0.491217 11.7831 0.548025 11.332Z" fill="#4DC0C8"/>
<path d="M4.86187 18.1893C5.13123 18.1214 5.32692 17.9306 5.54386 17.7768C5.96635 17.4773 6.38496 17.1724 6.80523 16.8697C6.91287 16.8056 7.02519 16.7481 7.12757 16.6765C8.89524 15.4409 10.6587 14.1992 12.4301 12.9689C12.9908 12.5795 13.5356 12.162 14.1466 11.8398C14.7835 12.2919 15.4001 12.7295 16.0429 13.1857C15.91 13.2922 15.8294 13.3642 15.7417 13.426C14.0081 14.6478 12.2705 15.8641 10.5412 17.092C9.98309 17.4882 9.38405 17.8287 8.87875 18.2977C8.23716 18.6227 7.71459 19.1257 7.09827 19.4888C7.03332 19.5271 7.01287 19.6012 7.02051 19.6783C6.83943 19.6536 6.71544 19.7637 6.58059 19.8571C5.84993 20.3631 5.11258 20.8595 4.38531 21.3702C2.08411 22.9859 2.22941 26.3559 4.37566 27.8382C5.86966 28.8701 7.34955 29.9224 8.87926 30.9962C10.6077 29.7902 12.3445 28.5783 14.0979 27.3547C14.7303 27.7994 15.3518 28.2365 16.0453 28.7242C13.6498 30.4359 11.2676 32.0687 8.8866 33.7443C8.20843 33.2735 7.55287 32.8219 6.90084 32.3651C5.6515 31.49 4.40237 30.6146 3.15655 29.7346C1.75781 28.7465 0.881282 27.4195 0.576362 25.726C0.452378 24.6929 0.563618 23.7906 0.559946 23.632C0.750458 22.2032 1.42315 21.0306 2.45873 20.0491C2.93688 19.596 3.50669 19.2663 4.02804 18.8714C4.31431 18.6545 4.64379 18.4898 4.86187 18.1893Z" fill="#05829C"/>
<path d="M7.0201 19.6794C7.01239 19.6023 7.03284 19.5282 7.09786 19.4899C7.71418 19.1268 8.23675 18.6238 8.87834 18.2988C14.9206 22.5362 20.9628 26.7736 26.9951 31.004C27.1656 30.8939 27.2893 30.8195 27.4074 30.737C28.7135 29.8252 30.0124 28.9029 31.326 28.0021C32.663 27.0851 33.2881 25.8484 33.1526 24.2171C33.0577 23.0747 32.5352 22.1765 31.6496 21.4993C30.8162 20.862 29.9368 20.2849 29.0775 19.6813C29.6342 19.2736 30.1906 18.8653 30.7479 18.4585C30.8408 18.3907 30.9499 18.3991 31.0572 18.4058C31.2283 18.3784 31.3175 18.5163 31.4319 18.5973C32.2152 19.1518 33.0438 19.6449 33.7154 20.3484C34.8299 21.5156 35.3957 22.8985 35.426 24.5116C35.4629 26.4697 34.7063 28.0744 33.255 29.352C32.589 29.9382 31.8188 30.3932 31.0907 30.9006C29.872 31.7497 28.6542 32.6 27.439 33.4542C27.2903 33.5587 27.1434 33.6587 26.96 33.7298C26.1961 33.1995 25.4368 32.6764 24.6818 32.1474C22.9606 30.9413 21.2407 29.7334 19.5219 28.5241C16.2763 26.2409 13.032 23.9558 9.7867 21.6722C8.92716 21.0674 8.06597 20.4651 7.20442 19.8632C7.13098 19.812 7.03997 19.7824 7.0201 19.6794Z" fill="#4DC0C8"/>
<path d="M31.0577 18.4051C30.9504 18.3984 30.8413 18.3901 30.7485 18.4578C30.1911 18.8647 29.6348 19.2729 29.0781 19.6806C29.0133 19.7122 28.9431 19.7357 28.8848 19.7763C27.0407 21.0601 25.2013 22.3508 23.3521 23.6273C22.8349 23.9844 22.3429 24.3837 21.7629 24.6933C21.1317 24.2477 19.8933 23.3734 19.8933 23.3734C19.8933 23.3734 24.5079 20.055 26.5975 18.5833C26.756 18.4717 26.9592 18.403 27.0273 18.1902C27.3434 18.1368 27.5526 17.8929 27.8057 17.7337C28.2136 17.4772 28.5892 17.1694 28.9784 16.8833C29.9596 16.2634 30.9553 15.6529 31.8399 14.9064C33.7164 13.3227 33.6719 10.4102 31.7696 8.90258C30.7181 8.06925 29.5847 7.33917 28.4873 6.56395C28.014 6.22965 27.5383 5.89874 27.0256 5.53961C25.2941 6.7487 23.5709 7.95189 21.8117 9.18029C21.1738 8.73561 20.541 8.29469 19.8477 7.81142C22.2627 6.12057 24.6216 4.46904 27.0211 2.78906C27.7214 3.27477 28.4353 3.76502 29.144 4.26261C30.3478 5.10789 31.5535 5.95065 32.7492 6.80731C34.7737 8.25782 35.662 10.2519 35.3949 12.7058C35.194 14.5521 34.2459 16.0052 32.7225 17.0762C32.2177 17.4311 31.721 17.7977 31.2147 18.1504C31.1172 18.2184 31.0414 18.2773 31.0577 18.4051Z" fill="#05829C"/>
</svg>
