<svg width="36" height="37" viewBox="0 0 36 37" fill="none" xmlns="http://www.w3.org/2000/svg">
<g clip-path="url(#clip0_1_15504)">
<path d="M29.074 17.5237C27.3028 17.5237 25.7692 18.9421 25.5388 20.7061H20.7076C20.5924 20.1157 20.3548 19.5253 20.002 19.0573L25.7764 13.1605C26.8348 13.8661 28.3684 13.7509 29.1964 12.6853C30.0244 11.6269 30.0244 10.0933 29.0812 9.15012C28.138 8.20691 26.7196 8.09172 25.6612 8.91252C24.6028 9.74052 24.3652 11.2741 25.0708 12.4477L19.2964 18.3445C18.8212 17.9917 18.238 17.7541 17.6476 17.6389V7.37892C19.6492 7.14132 20.9524 5.25492 20.7148 3.36852C20.5996 1.36692 18.7132 0.0637158 16.8268 0.301316C14.9404 0.538916 13.5148 2.43252 13.7524 4.43412C13.99 5.96772 15.1708 7.26372 16.8196 7.50132V17.6389C16.2292 17.7541 15.6388 17.9917 15.1708 18.3445L10.57 13.6285C10.9228 12.8005 10.57 11.8573 9.86443 11.5045C9.74923 11.5045 9.74923 11.5045 9.62683 11.3893C8.92123 11.0365 8.20843 11.2741 7.74043 11.8645C7.38763 12.4549 7.38763 13.2829 7.85563 13.7509C8.33083 14.3413 9.03643 14.4565 9.74203 14.1037L14.3428 18.9349C13.5148 20.1157 13.3996 21.7645 14.1052 23.0605L6.79003 30.6133C5.84683 29.7853 4.31323 29.9077 3.48523 30.9661C2.65723 32.0245 2.65723 33.5581 3.60043 34.5013C4.54363 35.4445 5.96203 35.5597 7.02043 34.7389C8.07883 33.9109 8.31643 32.3773 7.61083 31.2037L14.8036 23.7733C15.2788 24.2413 15.9844 24.6013 16.69 24.7165V31.0813C15.394 31.3189 14.566 32.6149 14.6884 33.9109C14.8036 35.3293 15.9844 36.3877 17.4028 36.2725C18.6988 36.1573 19.642 35.2141 19.7644 33.9109C19.8796 32.6149 19.0588 31.3189 17.7628 31.0813V24.7165C18.3532 24.6013 18.9436 24.3637 19.4116 24.0109L24.0124 28.7269C23.8972 28.9645 23.8972 29.2021 23.8972 29.4325C23.8972 30.2605 24.6028 30.9661 25.4308 30.9661C26.2588 30.9661 26.9644 30.2605 26.9644 29.4325C26.9644 28.6045 26.2588 27.8989 25.4308 27.8989C25.1932 27.8989 24.9556 27.8989 24.7252 28.0141L20.1244 23.2981C20.4772 22.8229 20.7148 22.2397 20.83 21.6493H25.6612C25.8988 23.5357 27.6628 24.9541 29.5492 24.8317C31.5508 24.5941 32.9692 22.7077 32.7316 20.7061C32.3788 18.9349 30.9676 17.5237 29.074 17.5237Z" fill="#333333"/>
</g>
<defs>
<clipPath id="clip0_1_15504">
<rect width="36" height="36" fill="white" transform="translate(0 0.279297)"/>
</clipPath>
</defs>
</svg>
