<svg width="36" height="37" viewBox="0 0 36 37" fill="none" xmlns="http://www.w3.org/2000/svg">
<path d="M15.3715 33.6161C23.8453 33.6161 30.7147 26.7467 30.7147 18.2729C30.7147 9.79907 23.8453 2.92969 15.3715 2.92969C6.89771 2.92969 0.0283203 9.79907 0.0283203 18.2729C0.0283203 26.7467 6.89771 33.6161 15.3715 33.6161Z" fill="#2EB6EA"/>
<path d="M15.2854 33.615C0.0285952 33.615 -5.9978 13.5342 7.48059 5.07422C5.87499 21.8502 14.407 22.2246 22.3198 21.8502C35.5822 21.2382 35.5894 33.615 35.5894 33.615H15.2854Z" fill="#1542CD"/>
<path fill-rule="evenodd" clip-rule="evenodd" d="M29.8728 23.291C27.5616 29.2094 21.888 33.4358 15.1992 33.623C15.3576 33.6302 15.516 33.6302 15.6744 33.6302H35.8488C35.8488 33.6302 35.8416 26.3798 29.8728 23.291Z" fill="#745DDF"/>
</svg>
