<svg width="36" height="37" viewBox="0 0 36 37" fill="none" xmlns="http://www.w3.org/2000/svg">
<path d="M17.2229 35.0607C20.1408 31.7875 23.0587 28.5145 25.9996 25.2155C22.3111 18.8771 18.6363 12.5627 14.9545 6.23589C15.9469 4.53467 16.9238 2.85981 17.9665 1.07227C18.1635 1.32196 18.3141 1.4723 18.4178 1.65007C20.7048 5.57399 22.9842 9.50231 25.2701 13.4269C27.5548 17.3496 29.8459 21.2687 32.1309 25.1913C32.2546 25.4037 32.3477 25.634 32.4755 25.8981C32.0736 26.3555 31.6837 26.8059 31.2867 27.25C29.1732 29.6153 27.0193 31.9462 24.9673 34.3638C24.3743 35.0624 23.7851 35.2797 22.9258 35.254C21.2259 35.2031 19.5232 35.2446 17.8217 35.2479C17.6528 35.2481 17.4839 35.2479 17.315 35.2479C17.2843 35.1855 17.2537 35.1231 17.2229 35.0607ZM4.11438 26.5703C4.86901 27.404 5.64013 28.2228 6.38656 29.0637C8.11153 31.0069 9.82938 32.9565 11.5397 34.9127C11.7624 35.1674 12.0139 35.2439 12.3314 35.241C13.0321 35.2348 13.7333 35.235 14.4336 35.2548C14.7361 35.2634 14.9327 35.158 15.1353 34.9273C16.2565 33.6508 17.403 32.3967 18.5329 31.1277C18.8225 30.8025 19.0834 30.4517 19.442 30.0081C19.0984 29.9826 18.8855 29.9542 18.6725 29.9531C17.3709 29.9465 16.069 29.9325 14.7676 29.9513C14.3513 29.9573 14.0803 29.8182 13.8212 29.4897C13.3581 28.9024 12.8363 28.3613 12.3382 27.8018C11.5763 26.9457 10.8136 26.0903 10.0375 25.2191C10.542 24.3509 11.0287 23.5111 11.5173 22.6725C13.2136 19.7611 14.8999 16.8437 16.6168 13.9445C16.9423 13.3948 17.0057 12.9549 16.6441 12.3809C15.8327 11.093 15.0967 9.75763 14.3235 8.44543C14.241 8.30553 14.1155 8.19105 13.9371 7.9775C10.4433 13.9724 6.99373 19.8918 3.52441 25.8449C3.76813 26.1461 3.93085 26.3676 4.11438 26.5703Z" fill="url(#paint0_linear_1_15841)"/>
<defs>
<linearGradient id="paint0_linear_1_15841" x1="17.9999" y1="0.640266" x2="17.9999" y2="35.2759" gradientUnits="userSpaceOnUse">
<stop stop-color="#0C4EA2"/>
<stop offset="1" stop-color="#092D64"/>
</linearGradient>
</defs>
</svg>
