<svg width="36" height="37" viewBox="0 0 36 37" fill="none" xmlns="http://www.w3.org/2000/svg">
<g clip-path="url(#clip0_1_15499)">
<path d="M17.9854 36.1778C27.8629 36.1778 35.8702 28.1705 35.8702 18.293C35.8702 8.4155 27.8629 0.408203 17.9854 0.408203C8.10788 0.408203 0.100586 8.4155 0.100586 18.293C0.100586 28.1705 8.10788 36.1778 17.9854 36.1778Z" fill="#335E9F"/>
<path d="M10.0364 29.266L12.7004 20.6116L9.79883 21.4972L10.5692 19.366L13.2332 18.538L16.9556 6.29076C17.0348 6.03156 17.2796 5.85156 17.5532 5.85156H21.3548C21.7724 5.85156 22.0676 6.25476 21.9524 6.65076L18.9284 16.7596L21.6572 15.9892L21.1604 18.0484L18.3452 18.898L16.3796 25.1764H26.3876C26.69 25.1764 26.906 25.4644 26.8268 25.7524L25.9556 28.9348C25.898 29.1292 25.7252 29.266 25.5164 29.266H10.0364Z" fill="white"/>
</g>
<defs>
<clipPath id="clip0_1_15499">
<rect width="36" height="36" fill="white" transform="translate(0 0.279297)"/>
</clipPath>
</defs>
</svg>
