<svg width="36" height="37" viewBox="0 0 36 37" fill="none" xmlns="http://www.w3.org/2000/svg">
<g clip-path="url(#clip0_1_15533)">
<path d="M21.6288 2.95025L18.2232 6.35585L18.9216 7.05425C19.3104 7.45025 19.944 7.45025 20.34 7.06145L20.3472 7.05425L23.76 3.64865L23.0616 2.95025C22.6728 2.55425 22.0392 2.55425 21.6432 2.94305C21.636 2.94305 21.636 2.95025 21.6288 2.95025ZM12.9744 2.95025L12.1536 3.64865L15.7104 7.05425C16.0848 7.44305 16.6968 7.45025 17.0856 7.07585C17.0928 7.06865 17.1 7.06145 17.1072 7.05425L17.8056 6.35585L14.3712 2.95025C13.9968 2.56145 13.3848 2.55425 12.996 2.92865C12.9888 2.93585 12.9816 2.94305 12.9744 2.95025ZM24.8472 7.42145L18.3816 13.8871L19.6848 15.2263C20.4264 15.9535 21.6144 15.9535 22.356 15.2263L28.8288 8.72465L27.5256 7.42145C26.7912 6.70145 25.6176 6.70145 24.8832 7.42145H24.8472ZM8.4744 7.42145L7.1712 8.72465L13.644 15.1975C14.3496 15.9391 15.5232 15.9607 16.2648 15.2479C16.2864 15.2334 16.3008 15.2119 16.3152 15.1975L17.6184 13.8943L11.1456 7.42145C10.404 6.69425 9.216 6.69425 8.4744 7.42145ZM17.2872 7.26305L16.6176 7.96145L18.0144 9.35825L19.4112 7.96145L18.7128 7.26305C18.3384 6.87425 17.7264 6.86705 17.3376 7.24145C17.3304 7.24865 17.3232 7.25585 17.316 7.26305H17.2872ZM29.4408 13.7359L18.6552 24.4927L20.8152 26.6815C21.96 27.9055 23.8824 27.9703 25.1064 26.8255C25.1568 26.7823 25.2 26.7319 25.2504 26.6815L36 15.9247L33.84 13.7359C32.6952 12.5118 30.7728 12.4471 29.5488 13.5919C29.4984 13.635 29.4552 13.6854 29.4048 13.7359H29.4408ZM2.0952 13.7359L0 15.8959L10.7568 26.6815C11.9016 27.9055 13.824 27.9703 15.048 26.8255C15.0984 26.7823 15.1416 26.7319 15.192 26.6815L17.3808 24.4927L6.624 13.7359C5.4792 12.5118 3.5568 12.4471 2.3328 13.5919C2.2824 13.635 2.2392 13.6854 2.1888 13.7359H2.0952ZM16.5888 15.6223L15.2856 16.9255L17.928 19.5679L20.664 16.9255L19.3608 15.6223C18.6264 14.8807 17.4384 14.8807 16.6968 15.6151L16.6896 15.6223H16.5888ZM15.7968 27.3439L13.608 29.5039L18.0144 33.9103L22.392 29.5039L20.232 27.3439C19.0872 26.1199 17.1648 26.0551 15.9408 27.1999C15.8904 27.2503 15.84 27.3007 15.7968 27.3439Z" fill="url(#paint0_linear_1_15533)"/>
</g>
<defs>
<linearGradient id="paint0_linear_1_15533" x1="13.3605" y1="18.2804" x2="43.2405" y2="18.2804" gradientUnits="userSpaceOnUse">
<stop stop-color="#7CB7FF"/>
<stop offset="1" stop-color="#BA6DF6"/>
</linearGradient>
<clipPath id="clip0_1_15533">
<rect width="36" height="36" fill="white" transform="translate(0 0.279297)"/>
</clipPath>
</defs>
</svg>
