<svg width="36" height="37" viewBox="0 0 36 37" fill="none" xmlns="http://www.w3.org/2000/svg">
<g clip-path="url(#clip0_1_15498)">
<path d="M33.0754 9.34606C32.9765 9.83559 32.6125 10.0203 32.2612 10.2229C29.6183 11.7465 26.9765 13.2721 24.335 14.7981C23.1988 15.4545 22.0649 16.1149 20.9276 16.7695C20.7466 16.8737 20.5535 16.9565 20.426 17.0195C19.8085 16.6695 19.2582 16.3576 18.6293 16.0011C18.6293 14.7893 18.6293 13.4822 18.6293 12.1211C18.847 12.0316 19.0937 11.9409 19.3312 11.8306C20.5313 11.2737 21.1413 9.96619 20.8095 8.67329C20.5147 7.52438 19.3072 6.61575 18.0968 6.69696C16.9645 6.77292 15.8973 7.4359 15.5571 8.88173C15.3001 9.97383 15.8254 11.1354 16.9036 11.7254C17.1587 11.865 17.4335 11.9685 17.7435 12.1086C17.7435 13.4209 17.7435 14.7532 17.7435 16.0085C17.1589 16.3501 16.6352 16.6561 16.079 16.9811C15.46 16.8259 3.9669 10.21 3.44231 9.69029C3.25187 9.11263 3.54851 8.80167 4.02018 8.5316C7.55617 6.50703 11.0847 4.46935 14.6156 2.43586C15.5223 1.91371 16.4519 1.42685 17.3279 0.857474C17.9264 0.468458 18.4125 0.477171 19.0307 0.837027C22.7611 3.00862 26.5126 5.144 30.2576 7.29053C30.9551 7.69028 31.658 8.0808 32.3522 8.48602C32.6783 8.67646 32.998 8.88461 33.0754 9.34606ZM14.0544 16.7026C10.7875 14.8138 7.52053 12.925 4.25187 11.0392C3.90577 10.8396 3.5619 10.6037 3.12522 10.7658C2.62114 11.0527 2.62086 11.5353 2.621 12.0318C2.62201 16.8685 2.63331 21.7055 2.59774 26.542C2.59198 27.3224 2.86623 27.7744 3.53058 28.1453C5.70541 29.3598 7.85461 30.6201 10.0131 31.8639C12.1264 33.0816 14.2372 34.3035 16.3526 35.5174C17.062 35.9245 17.2761 35.8784 17.7597 35.2663C17.8986 30.7458 17.8421 22.097 17.7 21.55C17.1024 21.196 16.5802 20.8867 15.9392 20.507C14.8476 21.1312 13.6791 21.7992 12.5457 22.4473C12.7033 24.2087 11.9809 25.4615 10.653 25.8427C9.4543 26.1868 8.07342 25.6134 7.49965 24.4927C6.89348 23.3087 7.18998 21.9847 8.20064 21.1794C8.67606 20.8006 9.20843 20.5837 9.81776 20.5652C10.8034 20.535 11.5344 21.0491 12.2339 21.7735C13.3987 21.1043 14.5459 20.4452 15.5911 19.8448C15.5911 19.046 15.5911 18.3944 15.5911 17.5994C15.115 17.3214 14.5859 17.0099 14.0544 16.7026ZM33.746 26.9568C33.746 21.9293 33.7461 16.9018 33.746 11.8743C33.746 11.7399 33.7566 11.6038 33.7396 11.4714C33.6586 10.8391 33.1684 10.5609 32.5731 10.81C32.4509 10.8612 32.3407 10.9415 32.225 11.0082C28.5352 13.1337 24.8451 15.2586 21.1569 17.3869C21.0017 17.4764 20.8647 17.5975 20.7969 17.6472C20.7969 18.4345 20.7969 19.1236 20.7969 19.8295C21.9641 20.4945 23.0586 21.1947 24.3194 21.7987C24.4796 21.5936 24.5886 21.3979 24.7477 21.26C25.5931 20.5272 26.5577 20.341 27.5833 20.791C28.6309 21.2508 29.1968 22.0942 29.2224 23.2432C29.2552 24.7186 28.0742 25.8837 26.5871 25.8892C24.9489 25.8953 23.8776 24.8256 23.8793 23.1858C23.8795 22.9496 23.8793 22.7134 23.8793 22.4444C22.6991 21.775 21.544 21.1199 20.4884 20.5211C19.7813 20.919 19.2076 21.2419 18.6172 21.5742C18.6175 21.5732 18.6039 21.599 18.6038 21.6249C18.5952 26.0601 18.5816 30.4954 18.586 34.9306C18.5867 35.6327 19.0954 35.9407 19.7336 35.6765C19.8812 35.6153 20.0156 35.5222 20.1551 35.4419C24.4304 32.9821 28.7066 30.5241 32.9781 28.0578C33.2494 27.9011 33.4841 27.6809 33.7458 27.4826C33.746 27.2241 33.746 27.0905 33.746 26.9568Z" fill="#F9544C"/>
</g>
<defs>
<clipPath id="clip0_1_15498">
<rect width="36" height="36" fill="white" transform="translate(0 0.279297)"/>
</clipPath>
</defs>
</svg>
