<svg width="36" height="37" viewBox="0 0 36 37" fill="none" xmlns="http://www.w3.org/2000/svg">
<path d="M11.0736 30.9155C11.0736 34.9259 10.9296 35.3651 10.9296 35.3651C10.9296 35.3651 10.9008 35.3723 10.8504 35.3867C4.52883 32.6219 0.115234 26.3147 0.115234 18.9707C0.115234 17.3003 0.345634 15.6803 0.777634 14.1467V14.1395C1.09443 13.3043 1.31763 12.7715 1.31763 12.7715C1.31763 12.7715 4.74483 16.4219 7.57443 21.0515C10.0584 25.1339 11.0736 27.4091 11.0736 30.9155Z" fill="#5493F8"/>
<path d="M32.5369 8.48765L13.4209 12.7717C13.4209 12.7717 12.1249 12.9877 10.3825 11.8933C9.87127 11.5693 9.31687 11.1373 8.74807 10.5469C8.43127 10.2229 8.15047 9.82685 7.89127 9.38765C7.22167 8.25005 6.73207 6.79565 6.38647 5.42765C6.37927 5.40605 6.37207 5.39165 6.37207 5.37005C9.50407 2.68445 13.5721 1.06445 18.0217 1.06445C22.8673 1.06445 27.2665 2.99405 30.4921 6.11885C31.2409 6.85325 31.9249 7.64525 32.5369 8.48765Z" fill="#2745AD"/>
<path d="M22.4349 35.1269C22.4349 35.1269 21.1605 35.2493 19.7853 34.4213C18.4101 33.5933 15.4653 31.2677 15.3357 27.7397C15.1989 23.9813 20.3181 21.5117 20.3181 21.5117L33.8397 23.3549C33.8397 23.3549 32.8029 26.9045 31.1829 28.8557C29.5701 30.8069 24.1773 34.7957 22.4349 35.1269Z" fill="#2745AD"/>
<path d="M33.3797 27.3436C33.8333 27.8692 30.4133 32.0164 27.6917 33.766C25.6613 35.0692 24.0341 35.2564 23.4581 34.3492C22.9253 33.4996 23.8253 32.2828 25.2077 31.1308C27.2093 29.482 33.0629 26.9836 33.3797 27.3436Z" fill="#5493F8"/>
<path d="M2.03711 11.0645C2.03711 11.0645 4.02431 7.22688 6.73871 5.14608C10.1659 2.51808 11.6635 2.56848 12.9379 3.41808C13.9819 4.11648 13.2835 5.85888 11.3395 7.37808C9.39551 8.89728 4.83071 11.0429 2.03711 11.0645Z" fill="#5493F8"/>
<path d="M35.9284 18.9711C35.9284 21.3039 35.482 23.5359 34.6684 25.5879C34.2076 25.7967 33.6028 25.9479 32.8684 25.9839C32.7532 25.9911 32.638 25.9911 32.5156 25.9911C30.0244 25.9911 23.8684 24.5655 18.7996 22.4271C17.374 21.8295 16.0348 21.1671 14.8828 20.4687C9.64116 17.2935 9.85716 15.0543 9.83556 14.1183C9.81396 13.3263 10.0156 12.5847 10.39 11.8935C12.1972 8.51668 17.986 6.29188 21.0388 5.37028C24.718 4.25428 28.282 4.31188 30.1252 5.81668C30.2404 5.91028 30.37 6.01828 30.4996 6.12628C31.2484 6.85348 31.9324 7.64548 32.5516 8.49508C34.6756 11.4399 35.9284 15.0615 35.9284 18.9711Z" fill="#5493F8"/>
</svg>
