<svg width="36" height="37" viewBox="0 0 36 37" fill="none" xmlns="http://www.w3.org/2000/svg">
<g clip-path="url(#clip0_1_15720)">
<path d="M10.7062 2.10755H5.41416L17.2006 20.4532L8.84856 33.2692L6.91896 33.2836L15.2926 20.4532L14.4286 19.0996L13.4782 17.6236L2.47656 0.501953H11.563L18.475 10.8268L17.4742 12.1948L10.7062 2.10755Z" fill="#1178BA"/>
<path d="M22.9604 17.3872L21.6428 16.4872L31.4204 2.11598H26.1356L16.3076 16.408L7.73242 3.24638L9.64042 3.23198L16.3508 13.528L25.2932 0.517578H34.4516L22.9604 17.3872Z" fill="#29A7E4"/>
<path d="M34.8554 36.0699H25.5314L17.8418 24.9819L19.0874 23.9091L26.3738 34.4715H31.9466L19.2746 14.4555L27.0218 3.2019L28.9874 3.1875L21.1898 14.4915L34.8554 36.0699Z" fill="#1178BA"/>
<path d="M29.3399 33.2634L27.4103 33.2706L20.1383 22.4562L11.1167 36.1218H1.04395L13.4783 17.625L14.4287 19.101L4.04635 34.5162H10.2527L20.1311 19.569L29.3399 33.2634Z" fill="#29A7E4"/>
</g>
<defs>
<clipPath id="clip0_1_15720">
<rect width="36" height="36" fill="white" transform="translate(0 0.279297)"/>
</clipPath>
</defs>
</svg>
