<svg width="36" height="37" viewBox="0 0 36 37" fill="none" xmlns="http://www.w3.org/2000/svg">
<path d="M19.7498 18.7171L12.7993 6.68545C12.7993 6.68545 12.2831 5.60156 11.1992 5.60156C10.1153 5.60156 1.52131 5.60156 1.52131 5.60156C1.52131 5.60156 -0.465887 6.35 0.463201 8.00168C1.39229 9.65336 13.3593 30.1742 13.3593 30.1742L19.7498 18.7171Z" fill="url(#paint0_linear_1_15493)"/>
<path d="M33.1409 12.0801H25.3305C23.9991 12.0801 23.3297 13.028 22.5282 14.3829L13.4784 28.5027C12.9502 29.3267 13.1967 30.4448 14.0484 30.927C14.4724 31.1671 14.7612 31.293 15.5374 31.293H24.4197C25.7511 31.293 26.4403 30.2029 27.2609 28.9243L35.2611 14.9956C35.5169 14.5741 35.9383 13.8475 35.753 13.3906C35.3931 12.5032 34.1533 12.0801 33.1409 12.0801Z" fill="url(#paint1_linear_1_15493)"/>
<defs>
<linearGradient id="paint0_linear_1_15493" x1="9.9828" y1="30.221" x2="9.9828" y2="5.43658" gradientUnits="userSpaceOnUse">
<stop stop-color="#C23657"/>
<stop offset="1" stop-color="#F7655B"/>
</linearGradient>
<linearGradient id="paint1_linear_1_15493" x1="13.3167" y1="31.0686" x2="35.8471" y2="12.7388" gradientUnits="userSpaceOnUse">
<stop stop-color="#DE7053"/>
<stop offset="1" stop-color="#E5204E"/>
</linearGradient>
</defs>
</svg>
