<svg width="36" height="37" viewBox="0 0 36 37" fill="none" xmlns="http://www.w3.org/2000/svg">
<g clip-path="url(#clip0_1_15637)">
<path d="M35.1499 15.6951L27.2227 4.84471C26.6323 4.03111 25.7179 3.57031 24.7171 3.57031C23.7163 3.57031 22.8019 4.03111 22.2115 4.84471L21.3475 6.02551L20.4835 4.84471C19.8931 4.03111 18.9787 3.57031 17.9779 3.57031C16.9771 3.57031 16.0627 4.03111 15.4723 4.84471L14.6227 6.01111L13.7731 4.84471C13.1827 4.03111 12.2683 3.57031 11.2675 3.57031C10.2667 3.57031 9.35234 4.03111 8.76194 4.84471L0.841941 15.6951C-0.288459 17.2359 -0.288459 19.3095 0.841941 20.8575L8.76914 31.7079C9.35954 32.5143 10.2667 32.9823 11.2747 32.9823C12.2755 32.9823 13.1899 32.5215 13.7803 31.7079L17.9995 25.9335L18.8707 27.1287C18.8779 27.1359 18.8779 27.1359 18.8779 27.1431L22.2187 31.7151C22.8091 32.5215 23.7163 32.9895 24.7243 32.9895C25.7251 32.9895 26.6395 32.5287 27.2299 31.7151L35.1571 20.8647C36.2803 19.3167 36.2803 17.2431 35.1499 15.6951ZM16.7539 5.77351C17.0419 5.37751 17.4955 5.14711 17.9923 5.14711C18.4891 5.14711 18.9427 5.37751 19.2307 5.77351L20.3899 7.35751L17.9995 10.6191L15.6019 7.33591L16.7539 5.77351ZM12.5203 30.7863C12.2323 31.1823 11.7787 31.4127 11.2819 31.4127C10.7851 31.4127 10.3315 31.1823 10.0435 30.7863L2.11634 19.9359C1.39634 18.9495 1.39634 17.6103 2.11634 16.6239L10.0363 5.77351C10.3243 5.37751 10.7779 5.14711 11.2747 5.14711C11.7715 5.14711 12.2251 5.37751 12.5131 5.77351L13.6579 7.34311L7.55234 15.6951C6.42194 17.2359 6.42194 19.3095 7.55954 20.8575L8.02754 21.4839L12.1171 27.1215C12.6355 27.8343 13.4131 28.2807 14.2699 28.3743L12.5203 30.7863ZM15.8683 26.2071C15.5731 26.6031 15.1267 26.8335 14.6299 26.8335C14.1331 26.8335 13.6795 26.6031 13.3915 26.2071L9.18674 20.4111H9.17954L8.82674 19.9359C8.10674 18.9495 8.10674 17.6103 8.82674 16.6239L14.6371 8.67511L17.0347 11.9583L14.2987 15.7023C13.1683 17.2431 13.1683 19.3167 14.2987 20.8647L17.0347 24.6087L15.8683 26.2071ZM17.9995 13.2759L20.4475 16.6167C21.1675 17.6031 21.1675 18.9423 20.4475 19.9287L17.9995 23.2695L15.5515 19.9359C14.8315 18.9495 14.8315 17.6103 15.5515 16.6239L17.9995 13.2759ZM21.7075 20.8575C22.8379 19.3167 22.8379 17.2431 21.7075 15.6951L18.9715 11.9511L21.3619 8.68951L27.1579 16.6239C27.8779 17.6103 27.8779 18.9495 27.1507 19.9431L26.2219 21.2319L22.6147 26.1999C22.3267 26.5959 21.8731 26.8263 21.3763 26.8263C20.8867 26.8263 20.4403 26.6031 20.1451 26.2143L18.9715 24.6015L21.7075 20.8575ZM33.8899 19.9359L25.9627 30.7863C25.6747 31.1823 25.2211 31.4127 24.7243 31.4127C24.2275 31.4127 23.7739 31.1823 23.4859 30.7863L21.7291 28.3815C22.5931 28.2879 23.3635 27.8415 23.8819 27.1287L26.9851 22.8591L26.9923 22.8663L27.4963 22.1607L28.0939 21.3399L28.0867 21.3327L28.4251 20.8647C29.5555 19.3239 29.5555 17.2503 28.4251 15.7023L22.3267 7.35751L23.4859 5.77351C23.7739 5.37751 24.2275 5.14711 24.7243 5.14711C25.2211 5.14711 25.6747 5.37751 25.9627 5.77351L33.8899 16.6239C34.6099 17.6175 34.6099 18.9423 33.8899 19.9359Z" fill="url(#paint0_linear_1_15637)"/>
<path opacity="0.4" d="M14.6237 28.3962C14.5013 28.3962 14.3861 28.389 14.2637 28.3746L12.5645 30.7218L13.8461 31.629L16.9565 27.3594C16.3733 28.0218 15.5237 28.3962 14.6237 28.3962Z" fill="url(#paint1_linear_1_15637)"/>
<path opacity="0.4" d="M21.3692 28.3962C21.4916 28.3962 21.6068 28.389 21.7292 28.3746L23.4284 30.7218L22.1468 31.629L19.0508 27.3594C19.634 28.029 20.4692 28.3962 21.3692 28.3962Z" fill="url(#paint2_linear_1_15637)"/>
<path opacity="0.4" d="M17.0204 24.5938L18.0068 25.9473L16.502 27.9705L15.5156 26.6529L17.0204 24.5938Z" fill="url(#paint3_linear_1_15637)"/>
<path opacity="0.6" d="M13.6579 7.33594L14.6371 8.67514L11.1091 13.5135L9.87793 12.5415L13.6579 7.33594Z" fill="url(#paint4_linear_1_15637)"/>
<path opacity="0.6" d="M17.0356 11.9434L17.9932 13.2826L15.7468 16.3858L14.5156 15.4066L17.0356 11.9434Z" fill="url(#paint5_linear_1_15637)"/>
<path opacity="0.6" d="M20.3832 7.35742L21.3552 8.68942L18.972 11.9438L18 10.619L20.3832 7.35742Z" fill="url(#paint6_linear_1_15637)"/>
</g>
<defs>
<linearGradient id="paint0_linear_1_15637" x1="6.644" y1="29.6343" x2="29.3554" y2="6.92288" gradientUnits="userSpaceOnUse">
<stop stop-color="#FF8506"/>
<stop offset="0.5805" stop-color="#FD3947"/>
<stop offset="1" stop-color="#FB0078"/>
</linearGradient>
<linearGradient id="paint1_linear_1_15637" x1="15.9739" y1="27.3249" x2="13.3209" y2="31.0796" gradientUnits="userSpaceOnUse">
<stop stop-color="#78005B"/>
<stop offset="0.3483" stop-color="#7A025A" stop-opacity="0.6517"/>
<stop offset="0.51" stop-color="#820955" stop-opacity="0.49"/>
<stop offset="0.6332" stop-color="#8E154E" stop-opacity="0.3668"/>
<stop offset="0.7369" stop-color="#A12643" stop-opacity="0.2631"/>
<stop offset="0.8283" stop-color="#B83C36" stop-opacity="0.1717"/>
<stop offset="0.9111" stop-color="#D65725" stop-opacity="0.0889"/>
<stop offset="0.9857" stop-color="#F87711" stop-opacity="0.0143"/>
<stop offset="1" stop-color="#FF7E0D" stop-opacity="0"/>
</linearGradient>
<linearGradient id="paint2_linear_1_15637" x1="22.4582" y1="30.8004" x2="19.9611" y2="27.2087" gradientUnits="userSpaceOnUse">
<stop stop-color="#FF7E0D" stop-opacity="0"/>
<stop offset="0.00928743" stop-color="#F97811" stop-opacity="0.0127"/>
<stop offset="0.0651" stop-color="#D65825" stop-opacity="0.0888"/>
<stop offset="0.1269" stop-color="#B93D36" stop-opacity="0.1729"/>
<stop offset="0.1949" stop-color="#A12643" stop-opacity="0.2657"/>
<stop offset="0.272" stop-color="#8F154E" stop-opacity="0.3707"/>
<stop offset="0.3632" stop-color="#820955" stop-opacity="0.495"/>
<stop offset="0.4822" stop-color="#7A025A" stop-opacity="0.6573"/>
<stop offset="0.7336" stop-color="#78005B"/>
</linearGradient>
<linearGradient id="paint3_linear_1_15637" x1="16.0607" y1="27.3055" x2="18.0799" y2="24.4012" gradientUnits="userSpaceOnUse">
<stop stop-color="#FF7E0D" stop-opacity="0"/>
<stop offset="0.0133" stop-color="#F97910" stop-opacity="0.0192"/>
<stop offset="0.1144" stop-color="#D25427" stop-opacity="0.1659"/>
<stop offset="0.219" stop-color="#B1363A" stop-opacity="0.3175"/>
<stop offset="0.3263" stop-color="#981E48" stop-opacity="0.4731"/>
<stop offset="0.4375" stop-color="#860D53" stop-opacity="0.6344"/>
<stop offset="0.5551" stop-color="#7B0359" stop-opacity="0.8048"/>
<stop offset="0.6897" stop-color="#78005B"/>
</linearGradient>
<linearGradient id="paint4_linear_1_15637" x1="10.0751" y1="12.7397" x2="14.5683" y2="8.24649" gradientUnits="userSpaceOnUse">
<stop stop-color="#FF4630" stop-opacity="0"/>
<stop offset="0.5722" stop-color="#B31F48" stop-opacity="0.5722"/>
<stop offset="1" stop-color="#78005B"/>
</linearGradient>
<linearGradient id="paint5_linear_1_15637" x1="14.8323" y1="15.7282" x2="17.8242" y2="12.7362" gradientUnits="userSpaceOnUse">
<stop stop-color="#FF4630" stop-opacity="0"/>
<stop offset="0.5722" stop-color="#B31F48" stop-opacity="0.5722"/>
<stop offset="1" stop-color="#78005B"/>
</linearGradient>
<linearGradient id="paint6_linear_1_15637" x1="18.1777" y1="11.1521" x2="21.1801" y2="8.14972" gradientUnits="userSpaceOnUse">
<stop stop-color="#FF4630" stop-opacity="0"/>
<stop offset="0.5722" stop-color="#B31F48" stop-opacity="0.5722"/>
<stop offset="1" stop-color="#78005B"/>
</linearGradient>
<clipPath id="clip0_1_15637">
<rect width="36" height="36" fill="white" transform="translate(0 0.279297)"/>
</clipPath>
</defs>
</svg>
