<svg width="36" height="37" viewBox="0 0 36 37" fill="none" xmlns="http://www.w3.org/2000/svg">
<g clip-path="url(#clip0_1_15491)">
<path d="M19.07 18.1726C19.2498 18.0438 19.403 17.9609 19.5226 17.8439C20.1377 17.2419 20.753 16.6395 21.3505 16.0203C21.7065 15.6514 21.6934 15.1992 21.358 14.8719C21.0367 14.5586 20.6073 14.5549 20.2381 14.8711C20.11 14.9807 19.996 15.1068 19.8767 15.2266C19.2603 15.8454 18.6443 16.4646 18.0111 17.1008C17.8744 16.9781 17.7698 16.8923 17.6745 16.7973C15.6174 14.7463 13.5615 12.6942 11.505 10.6427C11.2112 10.3497 10.9266 10.0461 10.6181 9.76942C10.2077 9.4015 9.63553 9.45701 9.39274 9.90838C9.28381 10.1109 9.25573 10.3773 9.25537 10.6148C9.24939 14.3343 9.254 18.0537 9.25609 21.7733C9.25616 21.9543 9.25609 22.1353 9.25609 22.2849C7.93676 23.0845 7.4607 24.0049 7.74358 25.1411C8.00163 26.1778 8.90955 26.911 9.98192 26.9489C11.0012 26.9849 11.9611 26.3286 12.297 25.3662C12.7087 24.1863 12.3022 23.302 10.8744 22.2779C10.8744 18.9861 10.8744 15.6916 10.8744 12.3844C12.8447 14.375 14.7927 16.3431 16.7797 18.3505C16.2261 18.8957 15.5965 19.4816 15.006 20.1046C13.7386 21.4418 13.5394 23.389 14.4819 24.9655C15.4348 26.5594 17.27 27.289 19.104 26.8033C20.8045 26.3528 22.0487 24.7491 22.0857 22.9618C22.11 21.7903 21.6858 20.8031 20.8644 19.9779C20.2941 19.405 19.7249 18.8316 19.07 18.1726ZM10.0489 25.3566C9.61213 25.3558 9.25249 24.9932 9.2612 24.5623C9.26962 24.147 9.61227 23.8037 10.0292 23.7929C10.4672 23.7815 10.8304 24.1297 10.8353 24.5659C10.8402 25.006 10.4907 25.3573 10.0489 25.3566ZM19.6653 24.7232C18.7351 25.5767 17.232 25.5724 16.3025 24.7136C15.3476 23.8313 15.2036 22.3081 16.0523 21.3433C16.6475 20.6667 17.3343 20.0706 17.9716 19.4469C18.6442 20.0944 19.3438 20.6789 19.9347 21.3578C20.7917 22.3424 20.6367 23.832 19.6653 24.7232Z" fill="url(#paint0_linear_1_15491)"/>
<path d="M25.8876 9.51592C24.839 9.53205 23.9272 10.2263 23.6272 11.2372C23.2843 12.3923 23.7271 13.2967 25.1169 14.2228C25.1169 14.3771 25.1167 14.5593 25.1169 14.7414C25.1197 18.3683 25.1225 21.9953 25.1257 25.6223C25.1258 25.8067 25.1179 25.992 25.133 26.1754C25.1705 26.63 25.5239 26.963 25.9463 26.9545C26.3574 26.9464 26.681 26.631 26.7223 26.1892C26.7352 26.0519 26.7295 25.9128 26.7299 25.7745C26.739 22.1015 26.7477 18.4285 26.7564 14.7555C26.7568 14.5728 26.7565 14.3901 26.7565 14.2379C28.2019 13.1814 28.6 12.3212 28.2115 11.1532C27.8811 10.1596 26.9444 9.49965 25.8876 9.51592ZM25.921 12.6696C25.4969 12.6638 25.1612 12.3231 25.1634 11.9009C25.1656 11.4874 25.5189 11.1429 25.9375 11.1459C26.3548 11.149 26.694 11.4976 26.6892 11.9186C26.6843 12.3476 26.349 12.6755 25.921 12.6696Z" fill="url(#paint1_linear_1_15491)"/>
<path d="M17.9345 0.488281C8.05403 0.488209 -0.252893 8.74207 0.230011 19.1421C0.665035 28.5122 8.51656 36.1145 17.9293 36.0106C27.5416 36.1689 35.7266 28.2819 35.7465 18.3191C35.7663 8.43679 27.8204 0.488353 17.9345 0.488281ZM19.1037 26.8029C17.2697 27.2887 15.4345 26.559 14.4816 24.9652C13.5391 23.3887 13.7383 21.4415 15.0057 20.1042C15.5962 19.4812 16.2259 18.8954 16.7794 18.3502C14.7924 16.3428 12.8444 14.3746 10.8741 12.384C10.8741 15.6912 10.8741 18.9858 10.8741 22.2776C12.3019 23.3016 12.7084 24.1859 12.2967 25.3659C11.9609 26.3284 11.001 26.9846 9.98162 26.9486C8.90925 26.9107 8.00133 26.1774 7.74328 25.1408C7.46047 24.0046 7.93653 23.0842 9.25579 22.2846C9.25579 22.1349 9.25586 21.9539 9.25579 21.7729C9.25363 18.0535 9.24909 14.334 9.25507 10.6145C9.25543 10.377 9.28351 10.1106 9.39244 9.90804C9.63523 9.45667 10.2075 9.40116 10.6178 9.76908C10.9264 10.0458 11.2109 10.3493 11.5047 10.6424C13.5612 12.6939 15.6171 14.746 17.6742 16.7969C17.7696 16.892 17.8742 16.9776 18.0108 17.1005C18.6441 16.4642 19.26 15.845 19.8764 15.2262C19.9957 15.1065 20.1097 14.9804 20.2378 14.8707C20.607 14.5546 21.0364 14.5582 21.3577 14.8716C21.6931 15.1987 21.7062 15.651 21.3502 16.02C20.7527 16.6392 20.1375 17.2416 19.5223 17.8435C19.4027 17.9607 19.2495 18.0435 19.0697 18.1723C19.7246 18.8312 20.2938 19.4047 20.8638 19.9774C21.6852 20.8026 22.1094 21.7898 22.0851 22.9613C22.0484 24.7488 20.8042 26.3524 19.1037 26.8029ZM26.7562 14.2386C26.7562 14.3908 26.7565 14.5735 26.7561 14.7562C26.7474 18.4292 26.7387 22.1022 26.7296 25.7752C26.7292 25.9135 26.7349 26.0526 26.722 26.1898C26.6807 26.6317 26.3572 26.9471 25.946 26.9552C25.5236 26.9635 25.1702 26.6306 25.1327 26.176C25.1176 25.9927 25.1255 25.8074 25.1254 25.623C25.1222 21.996 25.1195 18.369 25.1166 14.742C25.1164 14.56 25.1166 14.3778 25.1166 14.2235C23.7268 13.2974 23.284 12.393 23.6269 11.2379C23.9269 10.227 24.8387 9.5327 25.8873 9.51658C26.944 9.50031 27.8808 10.1603 28.2112 11.1539C28.5997 12.3218 28.2016 13.182 26.7562 14.2386Z" fill="url(#paint2_linear_1_15491)"/>
<path d="M17.9717 19.4473C17.3344 20.0709 16.6476 20.667 16.0524 21.3437C15.2038 22.3085 15.3478 23.8316 16.3026 24.7139C17.2321 25.5727 18.7352 25.5771 19.6654 24.7236C20.6367 23.8323 20.7918 22.3427 19.9348 21.3581C19.3438 20.6791 18.6443 20.0947 17.9717 19.4473Z" fill="url(#paint3_linear_1_15491)"/>
<path d="M10.0289 23.7932C9.61204 23.804 9.2694 24.1473 9.2609 24.5626C9.25212 24.9936 9.61176 25.3562 10.0486 25.3569C10.4904 25.3577 10.8399 25.0064 10.835 24.5663C10.8301 24.1301 10.4669 23.7819 10.0289 23.7932Z" fill="url(#paint4_linear_1_15491)"/>
<path d="M25.9372 11.1465C25.5185 11.1435 25.1653 11.488 25.1631 11.9015C25.1609 12.3237 25.4967 12.6643 25.9208 12.6702C26.3487 12.6761 26.684 12.3482 26.6889 11.9192C26.6936 11.4982 26.3545 11.1495 25.9372 11.1465Z" fill="url(#paint5_linear_1_15491)"/>
<path d="M18.0113 17.1009C18.6446 16.4646 19.2605 15.8454 19.8768 15.2267C19.9961 15.1069 20.1102 14.9808 20.2383 14.8711C20.6075 14.555 21.0369 14.5586 21.3582 14.872C21.6936 15.1992 21.7067 15.6515 21.3507 16.0204C20.7532 16.6397 20.1379 17.242 19.5228 17.8439C19.4032 17.9611 19.2499 18.0439 19.0702 18.1727C19.7251 18.8316 20.2943 19.4051 20.8644 19.9778C21.6858 20.803 22.1099 21.7902 22.0857 22.9617C22.0487 24.749 20.8044 26.3527 19.1039 26.8032C17.27 27.289 15.4348 26.5593 14.4819 24.9655C13.5394 23.3889 13.7386 21.4418 15.006 20.1045C15.5964 19.4815 16.2262 18.8957 16.7797 18.3505C14.7927 16.343 12.8447 14.3749 10.8744 12.3843C10.8744 15.6914 10.8744 18.9861 10.8744 22.2778C12.3022 23.3019 12.7087 24.1861 12.297 25.3661C11.9612 26.3286 11.0013 26.9848 9.98189 26.9488C8.90952 26.911 8.0016 26.1777 7.74355 25.1411C7.46073 24.0048 7.9368 23.0845 9.25605 22.2848C9.25605 22.1352 9.25613 21.9542 9.25605 21.7732C9.2539 18.0537 9.24936 14.3343 9.25534 10.6148C9.2557 10.3773 9.28377 10.1109 9.39271 9.90838C9.63549 9.45701 10.2078 9.4015 10.6181 9.76942C10.9267 10.0461 11.2112 10.3497 11.505 10.6427C13.5615 12.6942 15.6174 14.7463 17.6745 16.7973C17.7701 16.8925 17.8746 16.9781 18.0113 17.1009ZM17.9719 19.4471C17.3345 20.0707 16.6478 20.6668 16.0526 21.3435C15.2039 22.3083 15.3479 23.8315 16.3028 24.7137C17.2323 25.5726 18.7354 25.5769 19.6655 24.7234C20.6369 23.8321 20.7919 22.3426 19.9349 21.358C19.344 20.6789 18.6444 20.0945 17.9719 19.4471ZM10.0491 25.3567C10.491 25.3574 10.8404 25.0061 10.8355 24.5661C10.8306 24.1299 10.4675 23.7816 10.0294 23.793C9.6126 23.8038 9.26995 24.1471 9.26145 24.5624C9.25274 24.9933 9.61238 25.356 10.0491 25.3567Z" fill="white"/>
<path d="M26.7565 14.2398C26.7565 14.3921 26.7569 14.5748 26.7564 14.7575C26.7477 18.4305 26.739 22.1035 26.7299 25.7765C26.7296 25.9148 26.7353 26.0539 26.7224 26.1911C26.681 26.633 26.3575 26.9484 25.9464 26.9565C25.5239 26.9648 25.1706 26.6319 25.133 26.1773C25.1179 25.994 25.1258 25.8087 25.1257 25.6243C25.1225 21.9973 25.1198 18.3703 25.1169 14.7433C25.1168 14.5613 25.1169 14.3791 25.1169 14.2248C23.7271 13.2987 23.2843 12.3943 23.6272 11.2392C23.9273 10.2283 24.839 9.534 25.8876 9.51787C26.9443 9.5016 27.8811 10.1616 28.2115 11.1552C28.6 12.3231 28.2019 13.1833 26.7565 14.2398ZM25.9376 11.1479C25.5188 11.1449 25.1656 11.4894 25.1634 11.9029C25.1612 12.3251 25.497 12.6657 25.9211 12.6715C26.349 12.6774 26.6844 12.3496 26.6893 11.9206C26.6939 11.4995 26.3548 11.1509 25.9376 11.1479Z" fill="white"/>
</g>
<defs>
<linearGradient id="paint0_linear_1_15491" x1="30.6771" y1="5.24923" x2="2.72932" y2="27.8473" gradientUnits="userSpaceOnUse">
<stop stop-color="#6790B3"/>
<stop offset="1" stop-color="#2E5170"/>
</linearGradient>
<linearGradient id="paint1_linear_1_15491" x1="35.0364" y1="10.6394" x2="7.08861" y2="33.2375" gradientUnits="userSpaceOnUse">
<stop stop-color="#6790B3"/>
<stop offset="1" stop-color="#2E5170"/>
</linearGradient>
<linearGradient id="paint2_linear_1_15491" x1="32.0252" y1="6.91628" x2="4.07735" y2="29.5144" gradientUnits="userSpaceOnUse">
<stop stop-color="#6790B3"/>
<stop offset="1" stop-color="#2E5170"/>
</linearGradient>
<linearGradient id="paint3_linear_1_15491" x1="34.222" y1="9.63342" x2="6.27416" y2="32.2315" gradientUnits="userSpaceOnUse">
<stop stop-color="#6790B3"/>
<stop offset="1" stop-color="#2E5170"/>
</linearGradient>
<linearGradient id="paint4_linear_1_15491" x1="31.972" y1="6.85133" x2="4.02415" y2="29.4494" gradientUnits="userSpaceOnUse">
<stop stop-color="#6790B3"/>
<stop offset="1" stop-color="#2E5170"/>
</linearGradient>
<linearGradient id="paint5_linear_1_15491" x1="32.0579" y1="6.95673" x2="4.11012" y2="29.5548" gradientUnits="userSpaceOnUse">
<stop stop-color="#6790B3"/>
<stop offset="1" stop-color="#2E5170"/>
</linearGradient>
<clipPath id="clip0_1_15491">
<rect width="36" height="36" fill="white" transform="translate(0 0.279297)"/>
</clipPath>
</defs>
</svg>
