<svg width="36" height="37" viewBox="0 0 36 37" fill="none" xmlns="http://www.w3.org/2000/svg">
<path d="M11.3467 13.5919C12.3925 13.5919 13.2403 12.7441 13.2403 11.6983C13.2403 10.6525 12.3925 9.80469 11.3467 9.80469C10.3009 9.80469 9.45312 10.6525 9.45312 11.6983C9.45312 12.7441 10.3009 13.5919 11.3467 13.5919Z" fill="black"/>
<path d="M8.04204 16.8966C9.08784 16.8966 9.93564 16.0488 9.93564 15.003C9.93564 13.9572 9.08784 13.1094 8.04204 13.1094C6.99623 13.1094 6.14844 13.9572 6.14844 15.003C6.14844 16.0488 6.99623 16.8966 8.04204 16.8966Z" fill="black"/>
<path d="M11.3692 20.2227C12.415 20.2227 13.2628 19.375 13.2628 18.3291C13.2628 17.2833 12.415 16.4355 11.3692 16.4355C10.3234 16.4355 9.47559 17.2833 9.47559 18.3291C9.47559 19.375 10.3234 20.2227 11.3692 20.2227Z" fill="black"/>
<path d="M4.70917 19.7621C5.50048 19.7621 6.14197 19.1206 6.14197 18.3293C6.14197 17.538 5.50048 16.8965 4.70917 16.8965C3.91785 16.8965 3.27637 17.538 3.27637 18.3293C3.27637 19.1206 3.91785 19.7621 4.70917 19.7621Z" fill="black"/>
<path d="M18.0148 19.7621C18.8061 19.7621 19.4476 19.1206 19.4476 18.3293C19.4476 17.538 18.8061 16.8965 18.0148 16.8965C17.2235 16.8965 16.582 17.538 16.582 18.3293C16.582 19.1206 17.2235 19.7621 18.0148 19.7621Z" fill="black"/>
<path d="M21.3478 23.0883C22.1392 23.0883 22.7806 22.4468 22.7806 21.6555C22.7806 20.8641 22.1392 20.2227 21.3478 20.2227C20.5565 20.2227 19.915 20.8641 19.915 21.6555C19.915 22.4468 20.5565 23.0883 21.3478 23.0883Z" fill="black"/>
<path d="M14.6877 23.0883C15.479 23.0883 16.1205 22.4468 16.1205 21.6555C16.1205 20.8641 15.479 20.2227 14.6877 20.2227C13.8964 20.2227 13.2549 20.8641 13.2549 21.6555C13.2549 22.4468 13.8964 23.0883 14.6877 23.0883Z" fill="black"/>
<path d="M8.04217 23.0883C8.83349 23.0883 9.47498 22.4468 9.47498 21.6555C9.47498 20.8641 8.83349 20.2227 8.04217 20.2227C7.25086 20.2227 6.60938 20.8641 6.60938 21.6555C6.60938 22.4468 7.25086 23.0883 8.04217 23.0883Z" fill="black"/>
<path d="M1.36837 22.6059C1.89326 22.6059 2.31877 22.1804 2.31877 21.6555C2.31877 21.1306 1.89326 20.7051 1.36837 20.7051C0.843477 20.7051 0.417969 21.1306 0.417969 21.6555C0.417969 22.1804 0.843477 22.6059 1.36837 22.6059Z" fill="black"/>
<path d="M4.70919 25.9047C5.23408 25.9047 5.65959 25.4792 5.65959 24.9543C5.65959 24.4294 5.23408 24.0039 4.70919 24.0039C4.1843 24.0039 3.75879 24.4294 3.75879 24.9543C3.75879 25.4792 4.1843 25.9047 4.70919 25.9047Z" fill="black"/>
<path d="M31.3273 19.7621C32.1186 19.7621 32.7601 19.1206 32.7601 18.3293C32.7601 17.538 32.1186 16.8965 31.3273 16.8965C30.536 16.8965 29.8945 17.538 29.8945 18.3293C29.8945 19.1206 30.536 19.7621 31.3273 19.7621Z" fill="black"/>
<path d="M28.0012 23.0883C28.7925 23.0883 29.434 22.4468 29.434 21.6555C29.434 20.8641 28.7925 20.2227 28.0012 20.2227C27.2098 20.2227 26.5684 20.8641 26.5684 21.6555C26.5684 22.4468 27.2098 23.0883 28.0012 23.0883Z" fill="black"/>
<path d="M34.6682 22.6059C35.1931 22.6059 35.6186 22.1804 35.6186 21.6555C35.6186 21.1306 35.1931 20.7051 34.6682 20.7051C34.1433 20.7051 33.7178 21.1306 33.7178 21.6555C33.7178 22.1804 34.1433 22.6059 34.6682 22.6059Z" fill="black"/>
<path d="M31.3274 25.9047C31.8522 25.9047 32.2778 25.4792 32.2778 24.9543C32.2778 24.4294 31.8522 24.0039 31.3274 24.0039C30.8025 24.0039 30.377 24.4294 30.377 24.9543C30.377 25.4792 30.8025 25.9047 31.3274 25.9047Z" fill="black"/>
<path d="M18.0149 25.9047C18.5397 25.9047 18.9653 25.4792 18.9653 24.9543C18.9653 24.4294 18.5397 24.0039 18.0149 24.0039C17.49 24.0039 17.0645 24.4294 17.0645 24.9543C17.0645 25.4792 17.49 25.9047 18.0149 25.9047Z" fill="black"/>
<path d="M14.6875 16.8966C15.7334 16.8966 16.5811 16.0488 16.5811 15.003C16.5811 13.9572 15.7334 13.1094 14.6875 13.1094C13.6417 13.1094 12.7939 13.9572 12.7939 15.003C12.7939 16.0488 13.6417 16.8966 14.6875 16.8966Z" fill="black"/>
<path d="M24.6524 13.5919C25.6982 13.5919 26.546 12.7441 26.546 11.6983C26.546 10.6525 25.6982 9.80469 24.6524 9.80469C23.6066 9.80469 22.7588 10.6525 22.7588 11.6983C22.7588 12.7441 23.6066 13.5919 24.6524 13.5919Z" fill="black"/>
<path d="M21.3409 16.8966C22.3867 16.8966 23.2345 16.0488 23.2345 15.003C23.2345 13.9572 22.3867 13.1094 21.3409 13.1094C20.2951 13.1094 19.4473 13.9572 19.4473 15.003C19.4473 16.0488 20.2951 16.8966 21.3409 16.8966Z" fill="black"/>
<path d="M24.6749 20.2227C25.7207 20.2227 26.5685 19.375 26.5685 18.3291C26.5685 17.2833 25.7207 16.4355 24.6749 16.4355C23.629 16.4355 22.7812 17.2833 22.7812 18.3291C22.7812 19.375 23.629 20.2227 24.6749 20.2227Z" fill="black"/>
<path d="M27.9932 16.8966C29.039 16.8966 29.8868 16.0488 29.8868 15.003C29.8868 13.9572 29.039 13.1094 27.9932 13.1094C26.9474 13.1094 26.0996 13.9572 26.0996 15.003C26.0996 16.0488 26.9474 16.8966 27.9932 16.8966Z" fill="black"/>
</svg>
