<svg width="36" height="37" viewBox="0 0 36 37" fill="none" xmlns="http://www.w3.org/2000/svg">
<g clip-path="url(#clip0_1_15649)">
<path d="M27.1656 12.0794C26.5032 11.6906 25.6392 11.6906 24.9048 12.0794L19.7208 15.0818L16.2 17.0402L11.016 20.0426C10.3536 20.4314 9.4896 20.4314 8.7552 20.0426L4.6368 17.6954C3.9744 17.3066 3.5064 16.5866 3.5064 15.8018V11.1722C3.5064 10.3874 3.9024 9.6746 4.6368 9.2786L8.6904 6.9962C9.3528 6.6074 10.2168 6.6074 10.9512 6.9962L15.0048 9.2786C15.6672 9.6674 16.1352 10.3874 16.1352 11.1722V14.1746L19.656 12.1514V9.149C19.656 8.3642 19.26 7.6514 18.5256 7.2554L11.0232 2.9498C10.3608 2.561 9.4968 2.561 8.7624 2.9498L1.1304 7.2554C0.396 7.6442 0 8.3642 0 9.149V17.825C0 18.6098 0.396 19.3226 1.1304 19.7186L8.7696 24.0242C9.432 24.413 10.296 24.413 11.0304 24.0242L16.2144 21.0866L19.7352 19.0634L24.9192 16.1258C25.5816 15.737 26.4456 15.737 27.18 16.1258L31.2336 18.4082C31.896 18.797 32.364 19.517 32.364 20.3018V24.9314C32.364 25.7162 31.968 26.429 31.2336 26.825L27.18 29.1722C26.5176 29.561 25.6536 29.561 24.9192 29.1722L20.8656 26.8898C20.2032 26.501 19.7352 25.781 19.7352 24.9962V21.9938L16.2144 24.017V27.0194C16.2144 27.8042 16.6104 28.517 17.3448 28.913L24.984 33.2186C25.6464 33.6074 26.5104 33.6074 27.2448 33.2186L34.884 28.913C35.5464 28.5242 36.0144 27.8042 36.0144 27.0194V18.3434C36.0144 17.5586 35.6184 16.8458 34.884 16.4498L27.1656 12.0794Z" fill="#8247E5"/>
</g>
<defs>
<clipPath id="clip0_1_15649">
<rect width="36" height="36" fill="white" transform="translate(0 0.279297)"/>
</clipPath>
</defs>
</svg>
