<svg width="36" height="37" viewBox="0 0 36 37" fill="none" xmlns="http://www.w3.org/2000/svg">
<g clip-path="url(#clip0_1_15487)">
<path fill-rule="evenodd" clip-rule="evenodd" d="M26.6039 16.9336C22.5863 16.9336 19.3319 20.188 19.3319 24.2056C19.3319 25.6024 19.7279 26.9128 20.4119 28.0216C16.8767 30.8584 13.2983 32.7592 10.2455 33.5872C7.07749 34.444 4.75909 34.0696 3.47749 32.788C2.05189 31.3624 1.75669 28.648 3.00229 24.9616C3.18229 24.4144 2.89429 23.8312 2.34709 23.644C1.79989 23.464 1.21669 23.752 1.02949 24.2992C-0.273712 28.1872 -0.288111 31.96 2.00869 34.264C4.08229 36.3376 7.35829 36.5248 10.7855 35.6032C14.1911 34.6816 18.0359 32.608 21.7439 29.6272C23.0327 30.7864 24.7391 31.492 26.6039 31.492C30.6215 31.492 33.8759 28.2376 33.8759 24.22C33.8831 20.188 30.6215 16.9336 26.6039 16.9336ZM26.6039 29.6704C23.5871 29.6704 21.1391 27.2224 21.1391 24.2056C21.1391 21.1888 23.5871 18.7408 26.6039 18.7408C29.6207 18.7408 32.0687 21.1888 32.0687 24.2056C32.0687 27.2296 29.6207 29.6704 26.6039 29.6704Z" fill="black"/>
<path fill-rule="evenodd" clip-rule="evenodd" d="M34.0129 2.14359C32.0329 0.163586 28.9513 -0.0956137 25.7041 0.689186C22.5145 1.45959 18.9145 3.28119 15.3865 5.92359C14.1697 5.00919 12.6577 4.46199 11.0161 4.46199C6.99854 4.46199 3.74414 7.71639 3.74414 11.734C3.74414 15.7516 6.99854 19.006 11.0161 19.006C15.0337 19.006 18.2881 15.7516 18.2881 11.734C18.2881 10.114 17.7553 8.61639 16.8625 7.40679C20.1529 4.98039 23.4073 3.37479 26.1865 2.70519C29.1601 1.99239 31.3201 2.39559 32.5441 3.61239C33.9697 5.03799 34.2649 7.75239 33.0193 11.4388C32.8393 11.986 33.1273 12.5692 33.6745 12.7564C34.2217 12.9364 34.8049 12.6484 34.9921 12.1012C36.2953 8.22039 36.3097 4.44759 34.0129 2.14359ZM14.6521 12.4612H11.7433V15.37H10.2889V12.4612H7.38014V11.0068H10.2889V8.09799H11.7433V11.0068H14.6521V12.4612Z" fill="black"/>
<path d="M29.2033 24.8314V23.377H24.0049V24.8314H29.2033Z" fill="black"/>
</g>
<defs>
<clipPath id="clip0_1_15487">
<rect width="36" height="36" fill="white" transform="translate(0 0.279297)"/>
</clipPath>
</defs>
</svg>
