<svg width="36" height="37" viewBox="0 0 36 37" fill="none" xmlns="http://www.w3.org/2000/svg">
<g clip-path="url(#clip0_1_15951)">
<path d="M18 36.2793C27.9411 36.2793 36 28.2204 36 18.2793C36 8.33817 27.9411 0.279297 18 0.279297C8.05887 0.279297 0 8.33817 0 18.2793C0 28.2204 8.05887 36.2793 18 36.2793Z" fill="url(#paint0_linear_1_15951)"/>
<path d="M24.5135 26.6654C23.5638 26.6654 22.6739 26.6654 21.7098 26.6654C21.7098 23.1035 21.7098 19.6108 21.7098 16.1174C21.6414 16.0972 19.8723 19.9571 19.0465 21.9306C18.3049 21.9306 17.6137 21.9306 16.8001 21.9306C16.0016 19.9996 14.2614 16.0727 14.2059 16.0799C14.2059 19.5798 14.2059 23.0805 14.2059 26.6538C13.208 26.6538 12.3188 26.6538 11.3691 26.6538C11.3691 21.0155 11.3691 15.4283 11.3691 9.7792C12.4945 9.7792 13.5565 9.7792 14.7287 9.7792C15.7475 12.3266 17.9449 17.5343 18.0075 17.5466C19.0451 14.9502 20.0819 12.3532 21.1129 9.77344C22.2829 9.77344 23.3658 9.77344 24.5135 9.77344C24.5135 15.4247 24.5135 21.0126 24.5135 26.6654Z" fill="white"/>
<path d="M19.3142 26.6641C18.3797 26.6641 17.4941 26.6641 16.5566 26.6641C16.5566 25.7252 16.5566 24.854 16.5566 23.9043C17.4739 23.9043 18.3574 23.9043 19.3142 23.9043C19.3142 24.8273 19.3142 25.7129 19.3142 26.6641Z" fill="white"/>
</g>
<defs>
<linearGradient id="paint0_linear_1_15951" x1="29.4967" y1="31.2413" x2="5.79936" y2="4.52367" gradientUnits="userSpaceOnUse">
<stop stop-color="#D85BF0"/>
<stop offset="1" stop-color="#5F3CBE"/>
</linearGradient>
<clipPath id="clip0_1_15951">
<rect width="36" height="36" fill="white" transform="translate(0 0.279297)"/>
</clipPath>
</defs>
</svg>
