<svg width="36" height="37" viewBox="0 0 36 37" fill="none" xmlns="http://www.w3.org/2000/svg">
<g clip-path="url(#clip0_1_15486)">
<path d="M7.1685 19.4732L11.1277 16.5255L14.6274 18.7507V22.7514L17.2751 25.2901L17.2739 26.4809L14.7227 28.8601H12.5664L7.1685 19.4732ZM19.6791 26.4838L19.6739 25.2854L22.3127 22.752V18.7507L25.7748 16.4983L29.7264 19.4732L24.3553 28.8329H22.228L19.6791 26.4838ZM15.926 18.7507L14.6378 15.3932H22.2969L21.0347 18.7507L21.4074 22.5021L18.4518 22.5085L15.5313 22.5137L15.926 18.7507ZM18.4518 14.4746L11.1731 14.4711L12.5263 8.45378H24.3427L25.7686 14.4789L18.4518 14.4746ZM18.4518 0.947935L3.5127 9.60439V26.9286L18.4518 35.5819L18.4691 35.5909L33.5223 26.9279V9.60439L18.47 0.939453L18.4518 0.947935Z" fill="#0A2F4B"/>
</g>
<defs>
<clipPath id="clip0_1_15486">
<rect width="36" height="36" fill="white" transform="translate(0 0.279297)"/>
</clipPath>
</defs>
</svg>
