<svg width="36" height="37" viewBox="0 0 36 37" fill="none" xmlns="http://www.w3.org/2000/svg">
<g clip-path="url(#clip0_1_15825)">
<path d="M20.2617 24.557C20.2617 25.2117 20.2617 25.8303 20.2617 26.5117C21.8922 26.5117 23.5073 26.5117 25.172 26.5117C25.172 27.2649 25.172 27.9574 25.172 28.7187C23.5423 28.7187 21.9112 28.7187 20.2378 28.7187C20.2378 29.1415 20.2378 29.4972 20.2378 29.8999C21.8834 29.8999 23.5025 29.8999 25.1716 29.8999C25.1716 30.5767 25.1716 31.2094 25.1716 31.9324C23.5498 31.9324 21.9213 31.9324 20.2512 31.9324C20.2512 33.2864 20.2512 34.5525 20.2512 35.8626C18.8305 35.8626 17.4519 35.8626 16.009 35.8626C16.009 34.5978 16.009 33.3169 16.009 31.9587C14.3346 31.9587 12.722 31.9587 11.0805 31.9587C11.0805 31.2452 11.0805 30.6101 11.0805 29.9142C12.7222 29.9142 14.337 29.9142 15.9851 29.9142C15.9851 29.5108 15.9851 29.1671 15.9851 28.7632C14.3663 28.7632 12.7509 28.7632 11.093 28.7632C11.093 28.0113 11.093 27.3172 11.093 26.5465C12.6985 26.5465 14.3111 26.5465 15.9529 26.5465C15.9529 25.8325 15.9529 25.1939 15.9529 24.513C12.3928 23.8586 9.70424 21.9242 7.90144 18.8071C6.28813 16.0175 6.06018 12.986 6.61573 9.87636C7.45921 5.15496 11.7612 0.448536 18.5777 0.644592C24.9744 0.828624 29.0774 5.83299 29.7175 10.682C30.1378 13.8654 29.6937 16.8951 27.8725 19.6161C26.0512 22.3373 23.5084 23.988 20.2617 24.557ZM12.9147 12.4229C12.9072 14.4445 13.3405 16.1345 14.6622 17.4986C16.6641 19.5648 20.173 19.4064 21.9452 17.1801C23.9011 14.723 23.8362 10.5156 21.8053 8.11841C19.7556 5.699 16.2137 5.76343 14.2593 8.25989C13.2613 9.53472 12.8993 11.0104 12.9147 12.4229Z" fill="#00A65A"/>
</g>
<defs>
<clipPath id="clip0_1_15825">
<rect width="36" height="36" fill="white" transform="translate(0 0.279297)"/>
</clipPath>
</defs>
</svg>
