<svg width="36" height="37" viewBox="0 0 36 37" fill="none" xmlns="http://www.w3.org/2000/svg">
<g clip-path="url(#clip0_1_15793)">
<path d="M14.7979 17.5118C16.2768 17.5118 17.4756 16.3129 17.4756 14.834C17.4756 13.3551 16.2768 12.1562 14.7979 12.1562C13.319 12.1562 12.1201 13.3551 12.1201 14.834C12.1201 16.3129 13.319 17.5118 14.7979 17.5118Z" fill="#1E252C"/>
<path d="M21.3711 17.5118C22.85 17.5118 24.0489 16.3129 24.0489 14.834C24.0489 13.3551 22.85 12.1562 21.3711 12.1562C19.8922 12.1562 18.6934 13.3551 18.6934 14.834C18.6934 16.3129 19.8922 17.5118 21.3711 17.5118Z" fill="#1E252C"/>
<path d="M14.7979 24.084C16.2768 24.084 17.4756 22.8851 17.4756 21.4063C17.4756 19.9274 16.2768 18.7285 14.7979 18.7285C13.319 18.7285 12.1201 19.9274 12.1201 21.4063C12.1201 22.8851 13.319 24.084 14.7979 24.084Z" fill="#1E252C"/>
<path d="M21.3711 24.084C22.85 24.084 24.0489 22.8851 24.0489 21.4063C24.0489 19.9274 22.85 18.7285 21.3711 18.7285C19.8922 18.7285 18.6934 19.9274 18.6934 21.4063C18.6934 22.8851 19.8922 24.084 21.3711 24.084Z" fill="#1E252C"/>
<path d="M27.9436 16.7816C29.0191 16.7816 29.891 15.9097 29.891 14.8342C29.891 13.7586 29.0191 12.8867 27.9436 12.8867C26.868 12.8867 25.9961 13.7586 25.9961 14.8342C25.9961 15.9097 26.868 16.7816 27.9436 16.7816Z" fill="#1E252C"/>
<path d="M27.9436 23.3539C29.0191 23.3539 29.891 22.482 29.891 21.4064C29.891 20.3309 29.0191 19.459 27.9436 19.459C26.868 19.459 25.9961 20.3309 25.9961 21.4064C25.9961 22.482 26.868 23.3539 27.9436 23.3539Z" fill="#1E252C"/>
<path d="M7.98162 16.7816C9.05718 16.7816 9.92909 15.9097 9.92909 14.8342C9.92909 13.7586 9.05718 12.8867 7.98162 12.8867C6.90607 12.8867 6.03418 13.7586 6.03418 14.8342C6.03418 15.9097 6.90607 16.7816 7.98162 16.7816Z" fill="#1E252C"/>
<path d="M7.98162 23.3539C9.05718 23.3539 9.92909 22.482 9.92909 21.4064C9.92909 20.3309 9.05718 19.459 7.98162 19.459C6.90607 19.459 6.03418 20.3309 6.03418 21.4064C6.03418 22.482 6.90607 23.3539 7.98162 23.3539Z" fill="#1E252C"/>
<path d="M14.798 29.9262C15.8736 29.9262 16.7455 29.0543 16.7455 27.9787C16.7455 26.9032 15.8736 26.0312 14.798 26.0312C13.7225 26.0312 12.8506 26.9032 12.8506 27.9787C12.8506 29.0543 13.7225 29.9262 14.798 29.9262Z" fill="#1E252C"/>
<path d="M21.3703 29.9262C22.4458 29.9262 23.3178 29.0543 23.3178 27.9787C23.3178 26.9032 22.4458 26.0312 21.3703 26.0312C20.2947 26.0312 19.4229 26.9032 19.4229 27.9787C19.4229 29.0543 20.2947 29.9262 21.3703 29.9262Z" fill="#1E252C"/>
<path d="M14.798 10.2094C15.8736 10.2094 16.7455 9.33746 16.7455 8.26191C16.7455 7.18636 15.8736 6.31445 14.798 6.31445C13.7225 6.31445 12.8506 7.18636 12.8506 8.26191C12.8506 9.33746 13.7225 10.2094 14.798 10.2094Z" fill="#1E252C"/>
<path d="M21.3703 10.2094C22.4458 10.2094 23.3178 9.33746 23.3178 8.26191C23.3178 7.18636 22.4458 6.31445 21.3703 6.31445C20.2947 6.31445 19.4229 7.18636 19.4229 8.26191C19.4229 9.33746 20.2947 10.2094 21.3703 10.2094Z" fill="#1E252C"/>
<path d="M14.7982 2.90502C15.4704 2.90502 16.0154 2.36008 16.0154 1.68786C16.0154 1.01564 15.4704 0.470703 14.7982 0.470703C14.126 0.470703 13.5811 1.01564 13.5811 1.68786C13.5811 2.36008 14.126 2.90502 14.7982 2.90502Z" fill="#1E252C"/>
<path d="M21.3705 2.90502C22.0427 2.90502 22.5876 2.36008 22.5876 1.68786C22.5876 1.01564 22.0427 0.470703 21.3705 0.470703C20.6983 0.470703 20.1533 1.01564 20.1533 1.68786C20.1533 2.36008 20.6983 2.90502 21.3705 2.90502Z" fill="#1E252C"/>
<path d="M34.516 16.0515C35.1882 16.0515 35.7331 15.5066 35.7331 14.8343C35.7331 14.1621 35.1882 13.6172 34.516 13.6172C33.8438 13.6172 33.2988 14.1621 33.2988 14.8343C33.2988 15.5066 33.8438 16.0515 34.516 16.0515Z" fill="#1E252C"/>
<path d="M34.516 22.6238C35.1882 22.6238 35.7331 22.0788 35.7331 21.4066C35.7331 20.7344 35.1882 20.1895 34.516 20.1895C33.8438 20.1895 33.2988 20.7344 33.2988 21.4066C33.2988 22.0788 33.8438 22.6238 34.516 22.6238Z" fill="#1E252C"/>
<path d="M1.40954 16.0515C2.08176 16.0515 2.62671 15.5066 2.62671 14.8343C2.62671 14.1621 2.08176 13.6172 1.40954 13.6172C0.737326 13.6172 0.192383 14.1621 0.192383 14.8343C0.192383 15.5066 0.737326 16.0515 1.40954 16.0515Z" fill="#1E252C"/>
<path d="M1.40954 22.6238C2.08176 22.6238 2.62671 22.0788 2.62671 21.4066C2.62671 20.7344 2.08176 20.1895 1.40954 20.1895C0.737326 20.1895 0.192383 20.7344 0.192383 21.4066C0.192383 22.0788 0.737326 22.6238 1.40954 22.6238Z" fill="#1E252C"/>
<path d="M14.7982 36.0124C15.4704 36.0124 16.0154 35.4675 16.0154 34.7953C16.0154 34.1231 15.4704 33.5781 14.7982 33.5781C14.126 33.5781 13.5811 34.1231 13.5811 34.7953C13.5811 35.4675 14.126 36.0124 14.7982 36.0124Z" fill="#1E252C"/>
<path d="M21.3705 36.0124C22.0427 36.0124 22.5876 35.4675 22.5876 34.7953C22.5876 34.1231 22.0427 33.5781 21.3705 33.5781C20.6983 33.5781 20.1533 34.1231 20.1533 34.7953C20.1533 35.4675 20.6983 36.0124 21.3705 36.0124Z" fill="#1E252C"/>
</g>
<defs>
<clipPath id="clip0_1_15793">
<rect width="36" height="36" fill="white" transform="translate(0 0.279297)"/>
</clipPath>
</defs>
</svg>
