<svg width="36" height="37" viewBox="0 0 36 37" fill="none" xmlns="http://www.w3.org/2000/svg">
<path d="M13.766 9.8481L5.3852 28.6905C4.8236 29.9577 3.3332 30.5265 2.066 29.9649C0.798798 29.4033 0.229998 27.9129 0.791598 26.6457L9.1724 7.8033C9.734 6.5361 11.2244 5.9673 12.4916 6.5289C13.7588 7.0977 14.3348 8.5809 13.766 9.8481Z" fill="#0073F1"/>
<path d="M35.2367 9.8481L26.8559 28.6905C26.2943 29.9577 24.8039 30.5265 23.5367 29.9649C22.2695 29.4033 21.7007 27.9129 22.2623 26.6457L30.6431 7.8033C31.2047 6.5361 32.6951 5.9673 33.9623 6.5289C35.2295 7.0977 35.8055 8.5809 35.2367 9.8481Z" fill="#C2E4FF"/>
<path d="M24.4876 9.89107L20.3188 19.2655C19.7572 20.5327 18.2668 21.1015 16.9996 20.5399C15.7324 19.9783 15.1636 18.4879 15.7252 17.2207L19.894 7.84627C20.4556 6.57907 21.946 6.01027 23.2132 6.57187C24.4804 7.13347 25.0492 8.61667 24.4876 9.89107Z" fill="#0073F1"/>
<path d="M35.2368 9.8481C34.6752 11.1153 33.1848 11.6841 31.9176 11.1225C30.6504 10.5609 30.0816 9.0705 30.6432 7.8033C31.2048 6.5361 32.6952 5.9673 33.9624 6.5289C35.2296 7.0977 35.8056 8.5809 35.2368 9.8481Z" fill="#0073F1"/>
<path d="M26.8559 28.6899C26.2943 29.9571 24.8039 30.5259 23.5367 29.9643C22.2695 29.4027 21.7007 27.9123 22.2623 26.6451C22.8239 25.3779 24.3143 24.8091 25.5815 25.3707C26.8487 25.9395 27.4175 27.4227 26.8559 28.6899Z" fill="#0073F1"/>
</svg>
