<svg width="36" height="37" viewBox="0 0 36 37" fill="none" xmlns="http://www.w3.org/2000/svg">
<g clip-path="url(#clip0_1_15530)">
<path d="M17.9757 35.9025C8.16341 35.8427 0.2298 27.8641 0.30324 18.1297C0.377472 8.28246 8.35313 0.423732 18.1988 0.496596C27.8864 0.568236 35.7705 8.57716 35.7119 18.287C35.6531 28.0344 27.6717 35.9615 17.9757 35.9025ZM24.7016 20.0709C24.7016 21.0355 24.6996 22 24.7022 22.9644C24.7042 23.7028 25.1255 24.2115 25.7362 24.221C26.3263 24.2301 26.7838 23.6923 26.7862 22.974C26.79 21.876 26.7983 20.7778 26.784 19.6799C26.7704 18.6286 26.8084 17.5684 26.6857 16.5283C26.4231 14.3027 24.3319 12.4812 22.0871 12.4534C20.6309 12.4353 19.3981 12.9851 18.3991 14.0373C18.1664 14.2823 18.0401 14.2879 17.8096 14.0284C16.9171 13.0237 15.7692 12.4968 14.4391 12.4581C11.8224 12.3821 9.51435 14.4776 9.40634 17.0958C9.32383 19.0956 9.38676 21.1014 9.39151 23.1046C9.39252 23.5239 9.61075 23.8391 9.95081 24.0624C10.2608 24.2659 10.6105 24.287 10.9217 24.0978C11.2819 23.8788 11.4763 23.5396 11.475 23.0957C11.4696 21.1964 11.4676 19.297 11.4732 17.3977C11.4781 15.7713 12.7093 14.534 14.3063 14.5371C15.8773 14.5402 17.0405 15.7403 17.045 17.3702C17.0489 18.7353 17.0451 20.1004 17.045 21.4655C17.0449 22.0145 17.0337 22.5639 17.0491 23.1125C17.0666 23.7387 17.5417 24.2361 18.0935 24.2348C18.6381 24.2335 19.1086 23.722 19.1288 23.107C19.1332 22.9736 19.1299 22.8399 19.13 22.7064C19.1304 20.8961 19.1179 19.0857 19.1349 17.2755C19.1495 15.7214 20.4103 14.5296 21.9912 14.5392C23.5092 14.5484 24.6916 15.7544 24.7012 17.3109C24.7068 18.2309 24.7021 19.1509 24.7016 20.0709Z" fill="#29272A"/>
<path d="M24.7012 20.0709C24.7015 19.151 24.7061 18.231 24.7004 17.311C24.6908 15.7545 23.5084 14.5485 21.9904 14.5393C20.4096 14.5297 19.1488 15.7215 19.1341 17.2757C19.117 19.0858 19.1296 20.8962 19.1292 22.7065C19.1292 22.8401 19.1324 22.9737 19.128 23.1071C19.1078 23.7221 18.6373 24.2335 18.0927 24.2349C17.5409 24.2363 17.0658 23.7388 17.0483 23.1127C17.0329 22.5641 17.0441 22.0147 17.0442 21.4657C17.0443 20.1005 17.048 18.7354 17.0442 17.3703C17.0397 15.7404 15.8765 14.5403 14.3055 14.5372C12.7085 14.5341 11.4773 15.7714 11.4724 17.3979C11.4668 19.2972 11.4688 21.1965 11.4742 23.0958C11.4755 23.5398 11.2812 23.879 10.9209 24.098C10.6098 24.2871 10.26 24.266 9.95 24.0625C9.60994 23.8393 9.39171 23.5241 9.3907 23.1047C9.38595 21.1015 9.32302 19.0957 9.40553 17.0959C9.51353 14.4778 11.8216 12.3823 14.4383 12.4582C15.7684 12.4968 16.9163 13.0239 17.8088 14.0286C18.0393 14.288 18.1656 14.2824 18.3983 14.0374C19.3973 12.9852 20.6302 12.4355 22.0862 12.4536C24.3311 12.4814 26.4223 14.3029 26.6849 16.5285C26.8076 17.5685 26.7696 18.6287 26.7832 19.6801C26.7975 20.7779 26.7891 21.8761 26.7854 22.9741C26.7829 23.6925 26.3255 24.2303 25.7353 24.2211C25.1247 24.2116 24.7034 23.7029 24.7014 22.9646C24.6991 21.9999 24.701 21.0354 24.7012 20.0709Z" fill="#7F61F6"/>
</g>
<defs>
<clipPath id="clip0_1_15530">
<rect width="36" height="36" fill="white" transform="translate(0 0.279297)"/>
</clipPath>
</defs>
</svg>
