<svg width="36" height="37" viewBox="0 0 36 37" fill="none" xmlns="http://www.w3.org/2000/svg">
<g clip-path="url(#clip0_1_15833)">
<path d="M34.3372 11.6988V24.774C34.3372 26.43 33.4444 27.9492 32.0044 28.7628L20.2396 35.394C18.8428 36.1788 17.1364 36.1788 15.7396 35.394L14.134 34.4868L10.894 32.6652L3.96757 28.7628C2.52757 27.9492 1.63477 26.43 1.63477 24.774V11.6988C1.63477 10.0428 2.52757 8.52363 3.96757 7.71003L15.7324 1.07883C17.1292 0.294034 18.8356 0.294034 20.2324 1.07883L21.5212 1.80603L24.7612 3.62763L31.9972 7.71003C33.4516 8.52363 34.3372 10.05 34.3372 11.6988Z" fill="url(#paint0_linear_1_15833)"/>
<path d="M27.2443 17.0346L25.5523 22.7514L24.2347 20.4762L15.6739 25.0842C14.3419 25.8042 12.9019 26.1426 11.4907 26.1426C8.33713 26.1426 5.26993 24.4506 3.67153 21.4842C2.54833 19.4034 2.31073 17.0058 2.98753 14.7378C3.66433 12.4698 5.19073 10.605 7.27153 9.48184L21.5275 1.80664L24.7675 3.62824L8.76193 12.2466C5.98273 13.7442 4.94593 17.2146 6.43633 19.9938C7.93393 22.773 11.4043 23.8098 14.1835 22.3194L22.6579 17.7546L21.3691 15.5226L27.2443 17.0346Z" fill="white"/>
<path d="M28.7068 26.6531L14.1412 34.4939L10.9012 32.6723L27.2164 23.8883C29.9956 22.3907 31.0396 18.9203 29.542 16.1411C28.8148 14.7947 27.6124 13.8155 26.1508 13.3763C24.6892 12.9371 23.1412 13.0955 21.7948 13.8155L13.3204 18.3803L14.6092 20.6123L8.74121 19.1003L10.4332 13.3835L11.7436 15.6587L20.3044 11.0507C22.3852 9.92747 24.7828 9.68267 27.0508 10.3667C29.3188 11.0435 31.1836 12.5699 32.3068 14.6507C34.6252 18.9563 33.0052 24.3419 28.7068 26.6531Z" fill="white"/>
</g>
<defs>
<linearGradient id="paint0_linear_1_15833" x1="1.65162" y1="18.2372" x2="34.339" y2="18.2372" gradientUnits="userSpaceOnUse">
<stop stop-color="#26A8E1"/>
<stop offset="0.5086" stop-color="#2B4192"/>
<stop offset="1" stop-color="#582D8C"/>
</linearGradient>
<clipPath id="clip0_1_15833">
<rect width="36" height="36" fill="white" transform="translate(0 0.279297)"/>
</clipPath>
</defs>
</svg>
