<svg width="36" height="37" viewBox="0 0 36 37" fill="none" xmlns="http://www.w3.org/2000/svg">
<g clip-path="url(#clip0_1_15481)">
<path d="M17.4094 28.9565L28.7134 17.6525C29.4622 16.9037 30.4774 16.4861 31.5358 16.4861C32.5942 16.4861 33.6094 16.9037 34.3582 17.6525C35.107 18.4013 35.5246 19.4165 35.5246 20.4749C35.5246 21.5333 35.107 22.5485 34.3582 23.2973L23.0542 34.6013C22.3054 35.3501 21.2902 35.7677 20.2318 35.7677C19.1734 35.7677 18.1582 35.3501 17.4094 34.6013C16.6606 33.8525 16.243 32.8373 16.243 31.7789C16.243 30.7205 16.6606 29.7053 17.4094 28.9565ZM1.63417 18.8333C2.38297 19.5821 3.39817 19.9997 4.45657 19.9997C5.51497 19.9997 6.53017 19.5821 7.27897 18.8333L18.583 7.52934C19.3318 6.78054 19.7494 5.76534 19.7494 4.70694C19.7494 3.64854 19.3318 2.63334 18.583 1.88454C17.8414 1.12854 16.819 0.710938 15.7606 0.710938C14.7022 0.710938 13.687 1.12854 12.9382 1.87734L1.63417 13.1813C0.885374 13.9301 0.467773 14.9453 0.467773 16.0037C0.467773 17.0621 0.885374 18.0845 1.63417 18.8333ZM13.759 22.4765C14.5078 23.2253 15.523 23.6429 16.5814 23.6429C17.6398 23.6429 18.655 23.2253 19.4038 22.4765L22.2262 19.6541C22.975 18.9053 23.3926 17.8901 23.3926 16.8317C23.3926 15.7733 22.975 14.7581 22.2262 14.0093C21.4774 13.2605 20.4622 12.8429 19.4038 12.8429C18.3454 12.8429 17.3302 13.2605 16.5814 14.0093L13.759 16.8317C13.0102 17.5805 12.5926 18.5957 12.5926 19.6541C12.5926 20.7125 13.0102 21.7277 13.759 22.4765Z" fill="#781CFE"/>
</g>
<defs>
<clipPath id="clip0_1_15481">
<rect width="36" height="36" fill="white" transform="translate(0 0.279297)"/>
</clipPath>
</defs>
</svg>
