<svg width="36" height="37" viewBox="0 0 36 37" fill="none" xmlns="http://www.w3.org/2000/svg">
<g clip-path="url(#clip0_1_15478)">
<path d="M9.00045 12.2812H5.99805V15.2836H9.00045V12.2812Z" fill="#FED955"/>
<path d="M9.00045 18.2793H5.99805V21.2817H9.00045V18.2793Z" fill="#FED955"/>
<path d="M9.00045 15.2773H5.99805V18.2797H9.00045V15.2773Z" fill="#FED955"/>
<path d="M9.00045 21.2812H5.99805V24.2836H9.00045V21.2812Z" fill="#FED955"/>
<path d="M21.0024 6.27734H18V9.27974H21.0024V6.27734Z" fill="#FED955"/>
<path d="M21.0024 27.2793H18V30.2817H21.0024V27.2793Z" fill="#FED955"/>
<path d="M24.0044 6.27734H21.002V9.27974H24.0044V6.27734Z" fill="#FED955"/>
<path d="M27.0004 6.27734H23.998V9.27974H27.0004V6.27734Z" fill="#9695F8"/>
<path d="M12.0024 6.27734H9V9.27974H12.0024V6.27734Z" fill="#9695F8"/>
<path d="M30.0024 24.2773H27V27.2797H30.0024V24.2773Z" fill="#9695F8"/>
<path d="M9.00045 24.2773H5.99805V27.2797H9.00045V24.2773Z" fill="#9695F8"/>
<path d="M24.0044 3.28125H21.002V6.28365H24.0044V3.28125Z" fill="#9695F8"/>
<path d="M24.0044 0.279297H21.002V3.2817H24.0044V0.279297Z" fill="#5552FD"/>
<path d="M24.0044 33.2773H21.002V36.2797H24.0044V33.2773Z" fill="#5552FD"/>
<path d="M24.0044 30.2812H21.002V33.2836H24.0044V30.2812Z" fill="#9695F8"/>
<path d="M18.0004 3.28125H14.998V6.28365H18.0004V3.28125Z" fill="#9695F8"/>
<path d="M18.0004 0.279297H14.998V3.2817H18.0004V0.279297Z" fill="#5552FD"/>
<path d="M18.0004 33.2773H14.998V36.2797H18.0004V33.2773Z" fill="#5552FD"/>
<path d="M18.0004 30.2812H14.998V33.2836H18.0004V30.2812Z" fill="#9695F8"/>
<path d="M21.0024 3.28125H18V6.28365H21.0024V3.28125Z" fill="#9695F8"/>
<path d="M21.0024 0.279297H18V3.2817H21.0024V0.279297Z" fill="#5552FD"/>
<path d="M21.0024 33.2773H18V36.2797H21.0024V33.2773Z" fill="#5552FD"/>
<path d="M21.0024 30.2812H18V33.2836H21.0024V30.2812Z" fill="#9695F8"/>
<path d="M15.0044 3.28125H12.002V6.28365H15.0044V3.28125Z" fill="#9695F8"/>
<path d="M15.0044 0.279297H12.002V3.2817H15.0044V0.279297Z" fill="#5552FD"/>
<path d="M15.0044 33.2773H12.002V36.2797H15.0044V33.2773Z" fill="#5552FD"/>
<path d="M15.0044 30.2812H12.002V33.2836H15.0044V30.2812Z" fill="#9695F8"/>
<path d="M30.0024 9.2793H27V12.2817H30.0024V9.2793Z" fill="#9695F8"/>
<path d="M9.00045 9.2793H5.99805V12.2817H9.00045V9.2793Z" fill="#9695F8"/>
<path d="M27.0004 27.2793H23.998V30.2817H27.0004V27.2793Z" fill="#9695F8"/>
<path d="M12.0024 27.2793H9V30.2817H12.0024V27.2793Z" fill="#9695F8"/>
<path d="M33.0044 12.2812H30.002V15.2836H33.0044V12.2812Z" fill="#9695F8"/>
<path d="M6.00435 12.2812H3.00195V15.2836H6.00435V12.2812Z" fill="#9695F8"/>
<path d="M3.0024 12.2812H0V15.2836H3.0024V12.2812Z" fill="#5552FD"/>
<path d="M6.00435 9.2793H3.00195V12.2817H6.00435V9.2793Z" fill="#5552FD"/>
<path d="M33.0044 9.2793H30.002V12.2817H33.0044V9.2793Z" fill="#5552FD"/>
<path d="M27.0004 30.2812H23.998V33.2836H27.0004V30.2812Z" fill="#5552FD"/>
<path d="M6.00435 24.2773H3.00195V27.2797H6.00435V24.2773Z" fill="#5552FD"/>
<path d="M9.00045 6.27734H5.99805V9.27974H9.00045V6.27734Z" fill="#5552FD"/>
<path d="M30.0024 6.27734H27V9.27974H30.0024V6.27734Z" fill="#5552FD"/>
<path d="M30.0024 27.2793H27V30.2817H30.0024V27.2793Z" fill="#5552FD"/>
<path d="M9.00045 27.2793H5.99805V30.2817H9.00045V27.2793Z" fill="#5552FD"/>
<path d="M12.0024 3.28125H9V6.28365H12.0024V3.28125Z" fill="#5552FD"/>
<path d="M27.0004 3.28125H23.998V6.28365H27.0004V3.28125Z" fill="#5552FD"/>
<path d="M33.0044 24.2773H30.002V27.2797H33.0044V24.2773Z" fill="#5552FD"/>
<path d="M12.0024 30.2812H9V33.2836H12.0024V30.2812Z" fill="#5552FD"/>
<path d="M36.0004 12.2812H32.998V15.2836H36.0004V12.2812Z" fill="#5552FD"/>
<path d="M33.0044 15.2773H30.002V18.2797H33.0044V15.2773Z" fill="#9695F8"/>
<path d="M6.00435 15.2773H3.00195V18.2797H6.00435V15.2773Z" fill="#9695F8"/>
<path d="M3.0024 15.2773H0V18.2797H3.0024V15.2773Z" fill="#5552FD"/>
<path d="M36.0004 15.2773H32.998V18.2797H36.0004V15.2773Z" fill="#5552FD"/>
<path d="M33.0044 18.2793H30.002V21.2817H33.0044V18.2793Z" fill="#9695F8"/>
<path d="M6.00435 18.2793H3.00195V21.2817H6.00435V18.2793Z" fill="#9695F8"/>
<path d="M3.0024 18.2793H0V21.2817H3.0024V18.2793Z" fill="#5552FD"/>
<path d="M36.0004 18.2793H32.998V21.2817H36.0004V18.2793Z" fill="#5552FD"/>
<path d="M33.0044 21.2812H30.002V24.2836H33.0044V21.2812Z" fill="#9695F8"/>
<path d="M6.00435 21.2812H3.00195V24.2836H6.00435V21.2812Z" fill="#9695F8"/>
<path d="M3.0024 21.2812H0V24.2836H3.0024V21.2812Z" fill="#5552FD"/>
<path d="M36.0004 21.2812H32.998V24.2836H36.0004V21.2812Z" fill="#5552FD"/>
<path d="M24.0044 27.2793H21.002V30.2817H24.0044V27.2793Z" fill="#FED955"/>
<path d="M21.0024 12.2812H18V15.2836H21.0024V12.2812Z" fill="#FED955"/>
<path d="M21.0024 18.2793H18V21.2817H21.0024V18.2793Z" fill="#FED955"/>
<path d="M21.0024 21.2812H18V24.2836H21.0024V21.2812Z" fill="#FED955"/>
<path d="M21.0024 9.2793H18V12.2817H21.0024V9.2793Z" fill="#FED955"/>
<path d="M21.0024 24.2773H18V27.2797H21.0024V24.2773Z" fill="#FED955"/>
<path d="M15.0044 18.2793H12.002V21.2817H15.0044V18.2793Z" fill="#FED955"/>
<path d="M15.0044 15.2773H12.002V18.2797H15.0044V15.2773Z" fill="#FED955"/>
<path d="M15.0044 21.2812H12.002V24.2836H15.0044V21.2812Z" fill="#FED955"/>
<path d="M15.0044 9.2793H12.002V12.2817H15.0044V9.2793Z" fill="#FED955"/>
<path d="M15.0044 24.2773H12.002V27.2797H15.0044V24.2773Z" fill="#FED955"/>
<path d="M24.0044 18.2793H21.002V21.2817H24.0044V18.2793Z" fill="#FED955"/>
<path d="M24.0044 15.2773H21.002V18.2797H24.0044V15.2773Z" fill="#FED955"/>
<path d="M24.0044 21.2812H21.002V24.2836H24.0044V21.2812Z" fill="#FED955"/>
<path d="M24.0044 9.2793H21.002V12.2817H24.0044V9.2793Z" fill="#FED955"/>
<path d="M24.0044 24.2773H21.002V27.2797H24.0044V24.2773Z" fill="#FED955"/>
<path d="M18.0004 6.27734H14.998V9.27974H18.0004V6.27734Z" fill="#FED955"/>
<path d="M18.0004 27.2793H14.998V30.2817H18.0004V27.2793Z" fill="#FED955"/>
<path d="M15.0044 6.27734H12.002V9.27974H15.0044V6.27734Z" fill="#FED955"/>
<path d="M15.0044 27.2793H12.002V30.2817H15.0044V27.2793Z" fill="#FED955"/>
<path d="M18.0004 12.2812H14.998V15.2836H18.0004V12.2812Z" fill="#FED955"/>
<path d="M18.0004 18.2793H14.998V21.2817H18.0004V18.2793Z" fill="#FED955"/>
<path d="M15.0044 12.2812H12.002V15.2836H15.0044V12.2812Z" fill="#5552FD"/>
<path d="M21.0024 15.2773H18V18.2797H21.0024V15.2773Z" fill="#5552FD"/>
<path d="M27.0004 12.2812H23.998V15.2836H27.0004V12.2812Z" fill="#5552FD"/>
<path d="M27.0004 18.2793H23.998V21.2817H27.0004V18.2793Z" fill="#5552FD"/>
<path d="M27.0004 15.2773H23.998V18.2797H27.0004V15.2773Z" fill="#5552FD"/>
<path d="M27.0004 21.2812H23.998V24.2836H27.0004V21.2812Z" fill="#5552FD"/>
<path d="M27.0004 9.2793H23.998V12.2817H27.0004V9.2793Z" fill="#5552FD"/>
<path d="M27.0004 24.2773H23.998V27.2797H27.0004V24.2773Z" fill="#5552FD"/>
<path d="M12.0024 12.2812H9V15.2836H12.0024V12.2812Z" fill="#5552FD"/>
<path d="M12.0024 18.2793H9V21.2817H12.0024V18.2793Z" fill="#5552FD"/>
<path d="M12.0024 15.2773H9V18.2797H12.0024V15.2773Z" fill="#5552FD"/>
<path d="M12.0024 21.2812H9V24.2836H12.0024V21.2812Z" fill="#5552FD"/>
<path d="M12.0024 9.2793H9V12.2817H12.0024V9.2793Z" fill="#5552FD"/>
<path d="M12.0024 24.2773H9V27.2797H12.0024V24.2773Z" fill="#5552FD"/>
<path d="M24.0044 12.2812H21.002V15.2836H24.0044V12.2812Z" fill="#5552FD"/>
<path d="M18.0004 15.2773H14.998V18.2797H18.0004V15.2773Z" fill="#5552FD"/>
<path d="M18.0004 21.2812H14.998V24.2836H18.0004V21.2812Z" fill="#FED955"/>
<path d="M18.0004 9.2793H14.998V12.2817H18.0004V9.2793Z" fill="#FED955"/>
<path d="M18.0004 24.2773H14.998V27.2797H18.0004V24.2773Z" fill="#FED955"/>
<path d="M30.0024 12.2812H27V15.2836H30.0024V12.2812Z" fill="#FED955"/>
<path d="M30.0024 18.2793H27V21.2817H30.0024V18.2793Z" fill="#FED955"/>
<path d="M30.0024 15.2773H27V18.2797H30.0024V15.2773Z" fill="#FED955"/>
<path d="M30.0024 21.2812H27V24.2836H30.0024V21.2812Z" fill="#FED955"/>
</g>
<defs>
<clipPath id="clip0_1_15478">
<rect width="36" height="36" fill="white" transform="translate(0 0.279297)"/>
</clipPath>
</defs>
</svg>
