<svg width="36" height="37" viewBox="0 0 36 37" fill="none" xmlns="http://www.w3.org/2000/svg">
<path d="M18.1221 17.5237C18.3093 17.1709 18.4389 16.9477 18.5469 16.7101C19.8573 13.9237 21.1605 11.1445 22.4637 8.3581C22.5357 8.1997 22.5933 8.0341 22.6941 7.8973C23.0757 7.3573 23.7021 7.3213 24.1269 7.8253C24.2493 7.9765 24.3429 8.1565 24.4365 8.3221C26.4669 11.9221 28.4469 15.5509 30.5349 19.1221C31.6509 21.0301 32.9541 22.8301 34.1709 24.6805C34.5669 25.2781 34.9629 25.8685 35.3517 26.4661C35.5821 26.8189 35.8125 27.2005 35.5749 27.6325C35.3373 28.0645 34.9053 28.0645 34.4733 28.0645C25.9341 28.0645 17.3877 28.0645 8.84845 28.0645C6.41485 28.0645 3.97405 28.0645 1.54045 28.0645C1.34605 28.0645 1.14445 28.0789 0.950053 28.0501C0.338053 27.9565 0.0428526 27.3733 0.338053 26.8333C0.438853 26.6461 0.604453 26.4805 0.755653 26.3221C2.08045 24.9325 3.37645 23.5141 4.73005 22.1605C5.97565 20.9077 6.86845 19.4029 7.85485 17.9629C9.25165 15.9397 10.6197 13.8949 12.0021 11.8573C12.0741 11.7565 12.1389 11.6485 12.2109 11.5549C12.7509 10.8637 13.2981 10.8637 13.8165 11.5837C14.8749 13.0381 15.9045 14.5069 16.9557 15.9685C17.3229 16.4509 17.6829 16.9333 18.1221 17.5237ZM18.7845 24.0037L23.6661 26.2933L28.2525 26.2717C28.2525 26.2717 24.8685 21.4405 23.1477 18.9853C21.6933 20.7277 18.7845 24.0037 18.7845 24.0037ZM8.97805 26.1565L13.7589 20.1517L12.3621 18.5821L7.62445 20.9653L6.94765 21.8869L8.97805 26.1565ZM17.4885 24.1981C16.4157 23.0389 15.4365 21.9877 14.3493 20.8213C12.9597 22.7077 11.5845 24.4501 10.2165 26.3653C12.1173 26.3653 13.7589 26.3581 15.5373 26.3581C16.1565 25.6885 16.8189 24.9325 17.4885 24.1981ZM22.7805 11.7781L18.4173 20.2525V22.8733L22.6941 18.0565L22.7805 11.7781ZM12.8301 17.8189L17.6181 23.1037L17.7189 19.6117L13.2765 13.8445L12.8301 17.8189ZM28.6989 19.1581L23.6085 10.4893L23.4357 17.9197L28.6989 19.1581ZM28.9869 25.7749L29.4333 20.1661L23.9973 18.7837L28.9869 25.7749ZM2.62045 26.3437H8.06365L6.42205 22.5925L2.62045 26.3437ZM30.2037 21.8221L29.8293 26.2789L33.2349 26.3077L30.2037 21.8221ZM12.2541 14.2405L8.76205 19.4317C8.76205 19.4317 11.0733 18.2149 11.9877 17.6533C12.0741 16.7029 12.2541 14.2405 12.2541 14.2405ZM16.6533 26.3509L21.7797 26.3293L18.1437 24.7021L16.6533 26.3509Z" fill="#003977"/>
</svg>
