<svg width="36" height="37" viewBox="0 0 36 37" fill="none" xmlns="http://www.w3.org/2000/svg">
<path d="M1.57246 7.76014C1.51287 7.85366 1.54216 7.96309 1.54214 8.06545C1.54052 15.4715 1.54092 22.8776 1.53986 30.2837C1.53984 30.4105 1.5407 30.5413 1.51221 30.6635C1.44395 30.9562 1.16335 31.1507 0.876287 31.1224C0.577937 31.0929 0.349715 30.8644 0.324461 30.5644C0.317063 30.4766 0.320771 30.3877 0.320771 30.2994C0.320753 22.4218 0.320861 14.5442 0.320969 6.66662C0.320969 6.62732 0.322787 6.58794 0.320789 6.54877C0.306551 6.27042 0.395399 6.04301 0.656327 5.9146C0.914213 5.78768 1.14483 5.85124 1.36758 6.02119C2.38996 6.80124 3.41665 7.57567 4.44153 8.35244C8.2832 11.2641 12.1235 14.1774 15.9691 17.0838C16.2294 17.2806 16.3444 17.5055 16.344 17.8306C16.338 21.9953 16.3396 26.1601 16.3393 30.3248C16.3393 30.3739 16.3408 30.423 16.3389 30.4721C16.3241 30.8591 16.0743 31.1244 15.7233 31.1267C15.3788 31.1289 15.1205 30.8559 15.1197 30.4674C15.1163 28.886 15.1181 27.3046 15.1181 25.7232C15.118 23.2283 15.1164 20.7334 15.1213 18.2385C15.1216 18.0587 15.081 17.9388 14.9271 17.8224C10.5255 14.4956 6.12867 11.1624 1.73004 7.83165C1.68701 7.79907 1.65338 7.73641 1.57246 7.76014Z" fill="#1EBC9C"/>
<path d="M34.4649 7.68953C34.2541 7.84709 34.0995 7.9613 33.9463 8.07738C29.6817 11.3086 25.4183 14.5412 21.1497 17.7671C20.9587 17.9115 20.883 18.0549 20.8835 18.2983C20.8922 22.2957 20.8897 26.293 20.8895 30.2904C20.8895 30.3788 20.894 30.4677 20.8859 30.5554C20.8574 30.8654 20.6079 31.1097 20.3097 31.1253C20.0019 31.1414 19.7196 30.9048 19.6739 30.5857C19.6615 30.4988 19.6663 30.4093 19.6663 30.321C19.666 26.1763 19.6693 22.0315 19.6602 17.8869C19.6593 17.5141 19.7914 17.2674 20.0857 17.0449C24.9101 13.3985 29.729 9.74483 34.5468 6.08962C34.7951 5.9012 35.0419 5.75781 35.3536 5.91463C35.653 6.0653 35.6891 6.33777 35.689 6.64013C35.6857 14.5465 35.6864 22.4529 35.6861 30.3593C35.686 30.8375 35.4459 31.1332 35.0681 31.1254C34.6881 31.1177 34.4633 30.8258 34.4633 30.3397C34.4638 23.0128 34.4644 15.6859 34.4649 8.35903C34.4649 8.16302 34.4649 7.96704 34.4649 7.68953Z" fill="#576B7C"/>
</svg>
