<svg width="36" height="37" viewBox="0 0 36 37" fill="none" xmlns="http://www.w3.org/2000/svg">
<g clip-path="url(#clip0_1_15774)">
<path d="M13.0965 14.1905C12.9381 13.7081 12.6501 13.2257 12.3333 12.8225C12.0093 12.4985 11.6061 12.3401 11.1669 12.3761H10.7637C11.1237 12.4985 11.4477 12.7361 11.7285 13.0241C12.0093 13.4273 12.2541 13.8737 12.4557 14.3129L17.0133 25.1993C17.1357 24.9977 17.2149 24.7529 17.2581 24.5153C17.2149 24.2345 17.1357 23.9537 17.0133 23.7089L13.0965 14.1905Z" fill="#1D1D1B"/>
<path d="M21.9316 25.2412H22.2916C22.738 25.2412 23.0188 25.1188 23.1412 24.8812C23.2636 24.4348 23.2996 23.9956 23.2996 23.5492V13.9876C23.2564 13.462 23.3428 12.9364 23.5012 12.418C23.2204 12.4612 23.0548 12.4972 22.9396 12.6628C22.8172 12.8212 22.738 12.9868 22.738 13.1884C22.6948 13.5484 22.6948 13.9156 22.6948 14.2756V23.83C22.738 24.154 22.6948 24.478 22.5364 24.7948C22.3348 24.9532 22.1332 25.1188 21.9316 25.2412Z" fill="#1D1D1B"/>
<path d="M18.0145 2.17383C9.14409 2.17383 1.92969 9.39543 1.92969 18.2658C1.92969 27.1362 9.14409 34.3506 18.0145 34.3506C26.8849 34.3506 34.1065 27.1362 34.1065 18.2658C34.1065 9.39543 26.8849 2.17383 18.0145 2.17383ZM26.7265 12.4194C26.2441 12.3762 25.7617 12.4626 25.3153 12.7002C25.0345 12.8586 24.8689 13.1034 24.8689 13.4274C24.8257 13.989 24.7897 14.5578 24.7897 15.1626V23.709C24.7897 24.033 24.8329 24.393 24.9913 24.717C25.1137 24.9618 25.3153 25.1202 25.5529 25.1634C25.9561 25.2858 26.3593 25.3218 26.7625 25.365V25.8906H20.3545V25.365C20.8369 25.4082 21.2833 25.3218 21.7225 25.1202C21.9673 24.9978 22.1689 24.7962 22.2049 24.5154C22.2481 24.1122 22.2841 23.6658 22.2841 23.2626V13.629L17.3233 25.8042H16.7617L11.9233 13.989V22.0962C11.8801 22.8594 12.0817 23.5866 12.4489 24.2346C12.8953 24.7962 13.5001 25.1634 14.1841 25.2858V25.8114H9.18729V25.2858C9.83529 25.2426 10.4401 24.9258 10.8433 24.4362C11.2465 23.8746 11.4481 23.1474 11.4049 22.4634V13.305C11.1601 13.0242 10.8001 12.7794 10.4401 12.657C10.0369 12.5346 9.63369 12.4554 9.23049 12.4554V11.9298H13.7449L18.1369 22.4922L22.4497 11.9298H26.6833L26.7265 12.4194Z" fill="#1D1D1B"/>
<path d="M11.5269 23.9453C11.4477 24.2261 11.2821 24.4709 11.1237 24.6725C10.8789 24.8741 10.6413 25.0757 10.3965 25.2341H12.4557C12.2109 25.1117 12.0093 24.9101 11.8941 24.7085C11.6853 24.4709 11.6061 24.2333 11.5269 23.9453Z" fill="#1D1D1B"/>
<path d="M18.0148 36.2865C8.10036 36.2865 0.0363641 28.2657 -0.00683594 18.3009C-0.00683594 8.3865 8.01397 0.322497 17.9788 0.279297C27.8932 0.279297 35.9572 8.3001 36.0004 18.2649C35.9572 28.1793 27.9364 36.2433 18.0148 36.2865ZM18.0148 1.0065C8.49636 1.0065 0.756364 8.7105 0.756364 18.2649C0.756364 27.7833 8.46037 35.5233 18.0148 35.5233C27.5692 35.5233 35.2732 27.8193 35.2732 18.2649C35.2372 8.7465 27.5332 1.0425 18.0148 1.0065Z" fill="#1D1D1B"/>
</g>
<defs>
<clipPath id="clip0_1_15774">
<rect width="36" height="36" fill="white" transform="translate(0 0.279297)"/>
</clipPath>
</defs>
</svg>
