<svg width="36" height="37" viewBox="0 0 36 37" fill="none" xmlns="http://www.w3.org/2000/svg">
<g clip-path="url(#clip0_1_15473)">
<path fill-rule="evenodd" clip-rule="evenodd" d="M17.0356 8.68916C18.5476 9.46676 20.2036 9.73316 21.7876 9.72596C22.7092 10.5684 23.4724 11.562 24.1924 12.5844C24.4876 13.0092 24.7612 13.4556 24.9988 13.9164C25.546 14.9748 25.9564 16.098 26.3596 17.2284C26.482 17.5596 26.5972 17.898 26.7268 18.2292C26.7628 18.3732 26.806 18.5172 26.8492 18.6612C27.4828 20.8284 28.4044 23.1468 29.6428 25.0548C30.0532 25.6812 30.5068 26.2788 31.0108 26.8332C31.1116 26.9412 31.2124 27.0492 31.3132 27.15C31.7884 27.6468 32.2636 28.1436 32.5372 28.77C32.8756 29.5476 32.8468 30.4476 32.6452 31.2684C31.6876 35.1564 27.9436 36.1788 24.3724 36.2724V36.2652C23.0332 36.294 21.7012 36.1932 20.5204 36.0708C20.5204 36.0708 14.8252 35.4804 9.99404 31.9524L9.83564 31.8372C9.27404 31.4196 8.73404 30.966 8.22284 30.4764C6.86924 29.1876 5.66684 27.7188 4.74524 26.1132C4.75244 26.106 4.75964 26.0988 4.76684 26.0916C4.65884 25.8972 4.55084 25.6956 4.45004 25.494C3.55724 23.7084 3.01724 21.7716 2.98844 19.7052C2.94524 16.242 4.13324 12.6996 6.37964 10.1292V10.122C7.59644 8.78996 9.12284 7.73876 10.9228 7.14116C12.0532 6.76676 13.2412 6.57956 14.4292 6.60836C15.1636 7.47236 16.042 8.17076 17.0356 8.68916Z" fill="url(#paint0_linear_1_15473)"/>
<path fill-rule="evenodd" clip-rule="evenodd" d="M28.8575 5.87444L28.9079 5.84564C22.5575 -4.99036 14.2559 3.53444 14.2559 3.53444L14.2703 3.55604C19.0367 11.9296 28.1159 6.34964 28.8575 5.87444Z" fill="url(#paint1_linear_1_15473)"/>
<path d="M20.9876 24.5366C19.238 28.7198 15.8756 31.4918 11.8076 31.9094C11.7212 31.9238 10.6052 32.0102 9.99316 31.967C14.8244 35.495 20.5196 36.0854 20.5196 36.0854C21.7364 36.2078 23.1188 36.3158 24.5084 36.2798C24.998 35.0054 25.2716 33.551 25.1924 31.895C25.0124 28.0502 27.2372 26.0774 29.6492 25.0694C28.4108 23.1542 27.4892 20.843 26.8556 18.6758C24.962 19.1582 22.5716 20.735 20.9876 24.5366Z" fill="url(#paint2_linear_1_15473)"/>
<path d="M25.1068 31.8592C25.186 33.5152 24.8548 35.0056 24.3652 36.28C27.9436 36.1863 31.6876 35.1639 32.638 31.2759C32.8396 30.448 32.8684 29.5551 32.53 28.7775C32.1988 28.0215 31.5652 27.4455 31.0036 26.8335C30.478 26.2503 30.0028 25.6311 29.578 24.9688C27.1732 25.984 24.9196 28.0144 25.1068 31.8592Z" fill="url(#paint3_linear_1_15473)"/>
<path d="M26.7262 18.2295C26.179 16.7607 25.711 15.2847 24.9982 13.9167C24.7606 13.4559 24.4942 13.0095 24.1918 12.5847C23.4718 11.5623 22.7086 10.5759 21.787 9.72625C20.203 9.73345 18.547 9.46705 17.035 8.68945C15.5014 10.8639 13.7518 14.5503 15.3574 18.7551C17.7262 24.9687 12.9166 29.2167 9.83496 31.8447L9.99336 31.9599C10.5694 32.0031 11.1526 31.9959 11.7286 31.9383C15.7966 31.5207 19.3534 28.6839 21.103 24.5007C22.687 20.7063 24.9982 19.2663 26.8774 18.7623C26.8198 18.5823 26.7694 18.4095 26.7262 18.2295Z" fill="url(#paint4_linear_1_15473)"/>
<path d="M6.5452 9.95703C4.1836 12.5418 2.9452 16.1706 2.9884 19.7202C3.01 21.7866 3.5572 23.7234 4.45 25.509C4.5868 25.7754 4.7236 26.0418 4.8748 26.301C9.8284 21.3258 8.0356 13.9098 6.5452 9.95703Z" fill="url(#paint5_linear_1_15473)"/>
<path d="M15.4368 18.7542C13.8312 14.5422 15.5448 10.8846 17.0784 8.71022C16.0704 8.19182 15.1704 7.47902 14.436 6.61502C13.2408 6.59342 12.06 6.77342 10.9296 7.14782C9.12955 7.74542 7.60315 8.79662 6.38635 10.1286C7.84795 13.9878 9.59755 21.2454 4.75195 26.1126C5.67355 27.7182 6.87595 29.187 8.22955 30.4758C8.76235 30.987 9.33115 31.4622 9.92155 31.8942C12.996 29.2806 17.8056 24.9678 15.4368 18.7542Z" fill="url(#paint6_linear_1_15473)"/>
<path d="M21.4203 4.22442C24.7755 5.54922 27.1299 5.90922 28.8363 5.85882L28.8867 5.83002C22.5291 -5.00599 14.2275 3.51882 14.2275 3.51882L14.2419 3.54042C16.0275 3.22362 18.6339 3.13002 21.4203 4.22442Z" fill="url(#paint7_linear_1_15473)"/>
<path d="M21.4628 4.15308C18.6764 3.05868 16.0628 3.09468 14.2412 3.54828C19.0148 11.9219 28.094 6.34188 28.8356 5.86668C27.1292 5.90988 24.818 5.47788 21.4628 4.15308Z" fill="url(#paint8_linear_1_15473)"/>
</g>
<defs>
<linearGradient id="paint0_linear_1_15473" x1="-0.390136" y1="11.1376" x2="38.4472" y2="34.4108" gradientUnits="userSpaceOnUse">
<stop stop-color="#E54033"/>
<stop offset="0.4896" stop-color="#FECA1A"/>
<stop offset="1" stop-color="#AFD803"/>
</linearGradient>
<linearGradient id="paint1_linear_1_15473" x1="5997.07" y1="6151.24" x2="3565.74" y2="3650.27" gradientUnits="userSpaceOnUse">
<stop offset="0.15" stop-color="#6CBF00"/>
<stop offset="1" stop-color="#AFD803"/>
</linearGradient>
<linearGradient id="paint2_linear_1_15473" x1="5.97776" y1="32.255" x2="30.3136" y2="26.3377" gradientUnits="userSpaceOnUse">
<stop offset="0.21" stop-color="#E54033"/>
<stop offset="0.84" stop-color="#FECA1A"/>
</linearGradient>
<linearGradient id="paint3_linear_1_15473" x1="25.1517" y1="30.613" x2="32.6608" y2="30.6693" gradientUnits="userSpaceOnUse">
<stop stop-color="#FECA1A"/>
<stop offset="0.4" stop-color="#FECA1A"/>
<stop offset="1" stop-color="#AFD803"/>
</linearGradient>
<linearGradient id="paint4_linear_1_15473" x1="8.15468" y1="32.4067" x2="23.55" y2="11.5642" gradientUnits="userSpaceOnUse">
<stop offset="0.16" stop-color="#E54033"/>
<stop offset="0.84" stop-color="#FECA1A"/>
</linearGradient>
<linearGradient id="paint5_linear_1_15473" x1="5.91259" y1="11.6969" x2="5.23085" y2="25.1591" gradientUnits="userSpaceOnUse">
<stop stop-color="#FECA1A"/>
<stop offset="0.76" stop-color="#E54033"/>
</linearGradient>
<linearGradient id="paint6_linear_1_15473" x1="13.4433" y1="8.1999" x2="9.33168" y2="23.8127" gradientUnits="userSpaceOnUse">
<stop offset="0.16" stop-color="#FECA1A"/>
<stop offset="1" stop-color="#E54033"/>
</linearGradient>
<linearGradient id="paint7_linear_1_15473" x1="15.0366" y1="0.724293" x2="30.2602" y2="6.33571" gradientUnits="userSpaceOnUse">
<stop offset="0.15" stop-color="#6CBF00"/>
<stop offset="1" stop-color="#AFD803"/>
</linearGradient>
<linearGradient id="paint8_linear_1_15473" x1="5996.84" y1="6151.41" x2="3565.51" y2="3650.44" gradientUnits="userSpaceOnUse">
<stop offset="0.15" stop-color="#6CBF00"/>
<stop offset="1" stop-color="#AFD803"/>
</linearGradient>
<clipPath id="clip0_1_15473">
<rect width="36" height="36" fill="white" transform="translate(0 0.279297)"/>
</clipPath>
</defs>
</svg>
