<svg width="36" height="37" viewBox="0 0 36 37" fill="none" xmlns="http://www.w3.org/2000/svg">
<path d="M15.8826 12.9317C16.7162 13.9081 17.5206 14.8505 18.3521 15.8243C19.0093 15.6886 19.671 15.5518 20.3538 15.4107C21.5125 16.8931 22.6579 18.3585 23.8007 19.8204C24.4066 19.9247 24.8932 19.8627 25.3689 19.3819C26.5573 18.1811 27.8154 17.0493 29.0924 15.8456C31.342 18.8095 33.571 21.7461 35.8 24.6827C35.7813 24.6994 35.7627 24.7161 35.744 24.7327C33.54 22.2727 31.3361 19.8126 29.0964 17.3129C28.2138 18.2768 27.3576 19.2118 26.4737 20.1771C27.0541 22.3091 27.6346 24.4419 28.2152 26.5747C28.1887 26.5906 28.1622 26.6065 28.1357 26.6224C25.5589 23.5351 22.9819 20.4478 20.3977 17.3518C20.0368 17.3518 19.6834 17.3518 19.3082 17.3518C19.2786 17.4502 19.2498 17.546 19.2031 17.7012C18.0967 16.5292 17.0177 15.3862 15.8723 14.173C14.2123 18.9976 12.5806 23.7396 10.949 28.4817C10.9144 28.4765 10.8799 28.4713 10.8453 28.466C10.6804 26.9315 10.5156 25.397 10.3486 23.8431C8.98943 23.2357 7.64749 22.636 6.27704 22.0236C4.24974 23.6855 2.22899 25.3419 0.208234 26.9984C0.190882 26.9814 0.173602 26.9644 0.15625 26.9474C2.0006 24.7969 3.84503 22.6463 5.70421 20.4785C6.38267 20.8563 7.04269 21.2238 7.73396 21.6088C10.4437 18.7234 13.1401 15.8522 15.8826 12.9317ZM17.2038 8.8582C17.222 8.24138 16.7207 7.71189 16.1139 7.70707C15.4982 7.70217 14.993 8.20912 14.9967 8.82832C15.0003 9.44011 15.47 9.90969 16.0847 9.9161C16.7008 9.92251 17.1858 9.46401 17.2038 8.8582ZM11.34 12.0864C11.3447 11.4629 10.8493 10.9644 10.2254 10.9645C9.64355 10.9646 9.13667 11.4742 9.13019 12.0656C9.12342 12.6862 9.62346 13.1807 10.2517 13.1747C10.8663 13.1688 11.3354 12.6996 11.34 12.0864ZM23.0697 12.0806C23.0718 11.4732 22.5444 10.9512 21.941 10.9631C21.323 10.9754 20.8437 11.4877 20.8604 12.1181C20.8764 12.7252 21.3597 13.1816 21.9785 13.1742C22.5817 13.167 23.0677 12.6798 23.0697 12.0806Z" fill="#354368"/>
</svg>
