<svg width="36" height="37" viewBox="0 0 36 37" fill="none" xmlns="http://www.w3.org/2000/svg">
<g clip-path="url(#clip0_1_15657)">
<path d="M35.0928 15.9102C34.7688 16.3998 33.948 17.2998 31.7448 18.4374C31.2552 18.6822 30.6864 18.927 30.0312 19.1718C29.5416 19.3374 29.4624 19.827 29.376 20.151V20.5614V24.2334C32.6376 23.0886 34.9272 21.5406 35.7408 19.6614C35.9064 19.251 35.9856 18.8478 35.9856 18.3582C36.072 17.4654 35.6616 16.6446 35.0928 15.9102Z" fill="#FF8801"/>
<path d="M25.7036 19.9936C23.9108 20.3176 22.0316 20.5624 19.994 20.6488V22.1176C19.994 22.9312 19.4252 23.6656 18.77 23.6656C18.1148 23.6656 17.546 23.0104 17.546 22.1176V20.728C10.1228 20.6488 3.83716 18.604 1.46836 15.832C0.899559 16.5664 0.568359 17.3008 0.568359 18.1144C0.568359 18.5248 0.647559 18.928 0.813159 19.4176C2.28196 22.8448 9.54676 25.4584 18.2804 25.4584C21.3836 25.4584 24.2348 25.1344 26.7692 24.5584V21.2968C26.6828 20.0728 25.79 19.9936 25.7036 19.9936Z" fill="#FF8801"/>
<path d="M17.7912 3.5918C7.9128 3.5918 0 6.9326 0 11.015C0 11.4254 0.0792 11.915 0.2448 12.3182C1.7136 15.6662 8.6472 18.2798 17.136 18.359V18.2798C17.136 16.811 17.0568 14.7734 16.1568 13.8734C15.588 13.3046 13.3848 12.4838 12.4056 11.915C12.0816 11.7494 11.7504 11.591 11.5056 11.4254C11.4264 11.3462 11.34 11.2598 11.2608 11.1806C10.8504 10.7702 10.6056 10.367 10.6056 9.8774C10.6056 8.1638 14.112 6.7742 18.4392 6.7742C22.7664 6.7742 26.28 8.1638 26.28 9.8774C26.28 10.7774 25.38 11.5118 23.9976 12.0806C23.4288 12.4046 20.9808 12.9806 20.3256 14.2046C19.7568 15.263 19.7568 16.8974 19.7568 18.3662C27.5904 18.0422 33.9552 15.5078 35.2656 12.3254C35.4312 11.915 35.5104 11.5118 35.5104 11.0222C35.5032 6.9326 27.5832 3.5918 17.7912 3.5918Z" fill="#FF8801"/>
<path d="M28.8072 26.3573V28.8845C28.8072 29.5397 28.2384 30.1085 27.5832 30.1085C26.928 30.1085 26.3592 29.5397 26.3592 28.8845V27.0917C23.832 27.6605 20.8944 27.9917 17.8704 27.9917C10.2024 27.9917 3.672 25.9469 1.1448 23.1749C0.4104 23.9093 0 24.8093 0 25.6229C0 29.6189 7.9128 32.9669 17.7912 32.9669C27.5832 32.9669 35.5824 29.7053 35.5824 25.6229C35.5824 24.7229 35.172 23.9093 34.524 23.0957C33.3 24.3989 31.3344 25.5437 28.8072 26.3573Z" fill="#FF8801"/>
</g>
<defs>
<clipPath id="clip0_1_15657">
<rect width="36" height="36" fill="white" transform="translate(0 0.279297)"/>
</clipPath>
</defs>
</svg>
