<svg width="36" height="37" viewBox="0 0 36 37" fill="none" xmlns="http://www.w3.org/2000/svg">
<g clip-path="url(#clip0_1_15471)">
<path d="M18.0432 35.7818C27.7418 35.7818 35.604 27.9195 35.604 18.221C35.604 8.52239 27.7418 0.660156 18.0432 0.660156C8.34466 0.660156 0.482422 8.52239 0.482422 18.221C0.482422 27.9195 8.34466 35.7818 18.0432 35.7818Z" fill="black"/>
<path d="M11.0093 13.6634C11.0093 13.109 10.9733 12.5762 10.9229 12.029H13.3925L13.4789 13.1522C13.7525 12.7706 14.4221 11.8418 16.1645 11.8418C18.1661 11.8418 18.7277 13.0658 18.9005 13.4762C19.6205 12.0794 20.7941 11.8562 21.6941 11.8562C23.4509 11.8562 24.1565 12.9074 24.3437 13.253C24.8117 14.009 24.7757 15.0602 24.7757 15.8234V20.5826H22.2125V15.6146C22.2125 14.6858 22.0757 13.649 20.7509 13.649C19.2173 13.649 19.1813 15.0818 19.1813 16.3706V20.5826H16.6181V15.557C16.6181 14.8874 16.6037 13.6418 15.1853 13.6418C13.5869 13.6418 13.5869 15.0242 13.5869 15.6074V20.5754H11.0165V13.6634H11.0093Z" fill="white"/>
<path d="M10.9229 22.498H24.7757V24.6148H10.9229V22.498Z" fill="white"/>
</g>
<defs>
<clipPath id="clip0_1_15471">
<rect width="36" height="36" fill="white" transform="translate(0 0.279297)"/>
</clipPath>
</defs>
</svg>
