<svg width="36" height="37" viewBox="0 0 36 37" fill="none" xmlns="http://www.w3.org/2000/svg">
<g clip-path="url(#clip0_1_15469)">
<path d="M32.5949 0.765625C33.4497 0.765625 34.1514 0.765625 34.9409 0.765625C34.9409 12.3334 34.9409 23.8613 34.9409 35.485C34.1843 35.485 33.4246 35.485 32.5949 35.485C32.5949 23.9225 32.5949 12.3938 32.5949 0.765625ZM3.42808 0.954697C2.59785 0.954697 1.83846 0.954697 1.08203 0.954697C1.08203 12.5784 1.08203 24.1064 1.08203 35.6741C1.87144 35.6741 2.57322 35.6741 3.42808 35.6741C3.42808 24.046 3.42808 12.5174 3.42808 0.954697ZM10.838 29.3549C11.7618 29.3549 12.6003 29.3549 13.4416 29.3549C13.4416 21.7747 13.4416 14.2938 13.4416 6.75617C12.5605 6.75617 11.7434 6.75617 10.838 6.75617C10.838 14.3382 10.838 21.8122 10.838 29.3549ZM22.0898 23.6261C22.929 23.6261 23.66 23.6261 24.4369 23.6261C24.4369 19.962 24.4369 16.3745 24.4369 12.7482C23.6205 12.7482 22.8853 12.7482 22.0898 12.7482C22.0898 16.4673 22.0898 20.0554 22.0898 23.6261Z" fill="black"/>
</g>
<defs>
<clipPath id="clip0_1_15469">
<rect width="36" height="36" fill="white" transform="translate(0 0.279297)"/>
</clipPath>
</defs>
</svg>
