<svg width="36" height="37" viewBox="0 0 36 37" fill="none" xmlns="http://www.w3.org/2000/svg">
<g clip-path="url(#clip0_1_15468)">
<path d="M30.6432 5.66534C28.5783 3.78808 26.5375 3.86332 24.9176 4.57029C23.575 5.15623 19.0042 5.85311 17.3772 5.79047C15.7503 5.72791 13.0909 5.32118 10.494 4.35127C7.89708 3.38135 5.41012 5.61796 5.41012 5.61796C4.45634 6.57189 3.64202 8.1371 3.6107 9.60763C3.57938 11.0782 5.67516 14.5452 5.44022 18.727C5.3086 21.0701 4.04875 24.3753 3.76716 25.8459C3.48556 27.3164 3.97394 29.4598 5.63779 30.9704C7.52332 32.6822 9.32448 32.6352 11.7455 31.6966C13.653 30.9571 16.7202 30.6642 18.8478 30.6642C20.9753 30.6642 23.8225 31.5715 25.7624 32.1973C27.7022 32.823 29.861 31.5402 30.8623 30.539C31.8635 29.5378 32.9272 27.6605 32.3015 25.7833C31.6757 23.906 30.6745 19.9012 30.6432 17.805C30.6119 15.7087 32.1763 11.5161 32.3328 10.5462C32.4892 9.57631 32.7082 7.54259 30.6432 5.66534ZM28.2622 12.7288C28.1501 13.424 27.2638 15.8765 27.2846 17.7701C27.3011 19.2726 27.7913 22.3038 28.2397 23.6493C28.6882 24.9947 29.6151 26.8426 28.3041 28.1536C26.91 29.5477 24.9434 28.6946 23.5531 28.2462C22.1629 27.7977 19.9657 27.3213 18.4409 27.3213C16.9161 27.3213 14.9102 27.5279 13.5072 27.8874C11.7044 28.3494 9.37639 29.7015 8.08579 28.4109C6.14301 26.4681 7.58726 24.7481 7.78908 23.6941C7.99089 22.6402 8.71219 20.1985 8.80651 18.5192C8.97492 15.5221 7.96958 13.0688 7.67697 12.0561C7.31532 10.8045 6.20544 9.80037 7.88793 8.11795C7.88793 8.11795 9.18112 6.40859 12.6103 8.2888C13.5089 8.7815 15.8606 9.13451 17.4005 9.13451C18.8625 9.13451 21.7307 8.75767 22.9477 8.44583C24.1748 8.13141 26.6395 6.51263 28.2044 8.07755C29.9481 9.82125 28.3743 12.0337 28.2622 12.7288Z" fill="url(#paint0_linear_1_15468)"/>
<path d="M35.8065 18.2998C35.6737 15.5122 34.1775 14.1224 32.5322 13.4768C31.1686 12.9417 27.4438 10.2025 26.3376 9.00781C25.2314 7.81312 23.6385 5.64498 22.488 3.12289C21.3376 0.600804 17.9975 0.423828 17.9975 0.423828C16.6486 0.423828 14.966 0.954828 13.904 1.97248C12.8421 2.9902 11.8725 6.92363 8.74927 9.71449C6.99938 11.2782 3.77134 12.7246 2.53243 13.5653C1.29353 14.4059 0.123168 16.267 0.2316 18.5116C0.354432 21.0553 1.6613 22.2957 4.03687 23.3439C5.90866 24.1699 8.28458 26.1315 9.78902 27.6359C11.2935 29.1404 12.6651 31.7952 13.5943 33.6093C14.5235 35.4235 16.9571 36.0429 18.373 36.0429C19.7889 36.0429 21.8685 35.4677 22.7535 33.6978C23.6384 31.9279 25.7623 28.3881 27.2225 26.8838C28.6826 25.3793 32.7533 23.5209 33.5498 22.9457C34.3464 22.3705 35.9393 21.0873 35.8065 18.2998ZM29.1282 21.6108C28.5574 22.023 26.1965 23.1305 24.8722 24.4842C23.8215 25.5583 22.0247 28.0484 21.3905 29.3169C20.7562 30.5853 20.105 32.5474 18.251 32.5474C16.2794 32.5474 15.492 30.5536 14.8261 29.2534C14.1601 27.9532 12.9434 26.0627 11.8652 24.9845C10.787 23.9063 9.22246 22.634 7.97621 21.8962C6.37486 20.9481 3.77256 20.258 3.77256 18.4328C3.77256 15.6853 6.01003 15.4903 6.89801 14.8878C7.78598 14.2853 10.0225 13.0688 11.2767 11.948C13.5151 9.94777 14.5389 7.50222 15.048 6.57918C15.6773 5.43848 15.6025 3.94369 17.9818 3.94369C17.9818 3.94369 20.105 3.64943 21.2002 7.40372C21.4872 8.38753 22.9007 10.3001 23.9894 11.3889C25.0232 12.4227 27.3179 14.1843 28.3989 14.8244C29.4889 15.4697 32.3763 16.0679 32.3763 18.2811C32.3763 20.7469 29.699 21.1985 29.1282 21.6108Z" fill="url(#paint1_linear_1_15468)"/>
</g>
<defs>
<linearGradient id="paint0_linear_1_15468" x1="18.1045" y1="32.8778" x2="17.9977" y2="3.77334" gradientUnits="userSpaceOnUse">
<stop stop-color="#1D2C87"/>
<stop offset="0.9995" stop-color="#5CBFD7"/>
</linearGradient>
<linearGradient id="paint1_linear_1_15468" x1="18.2044" y1="36.045" x2="17.8306" y2="0.425297" gradientUnits="userSpaceOnUse">
<stop stop-color="#1D2C87"/>
<stop offset="0.9995" stop-color="#5CBFD7"/>
</linearGradient>
<clipPath id="clip0_1_15468">
<rect width="36" height="36" fill="white" transform="translate(0 0.279297)"/>
</clipPath>
</defs>
</svg>
