<svg width="36" height="37" viewBox="0 0 36 37" fill="none" xmlns="http://www.w3.org/2000/svg">
<g clip-path="url(#clip0_1_15639)">
<path d="M22.6508 24.7803L17.9924 20.9355L13.334 24.7803L17.9924 26.5515L22.6508 24.7803Z" fill="#383635"/>
<path d="M18 0.53125C8.20075 0.53125 0.251953 8.48005 0.251953 18.2792C0.251953 28.0784 8.20075 36.0272 18 36.0272C27.7992 36.0272 35.748 28.0784 35.748 18.2792C35.748 8.48005 27.7992 0.53125 18 0.53125ZM22.2696 29.4104L17.9928 27.7832L13.716 29.4104L5.24875 22.3688L6.78235 11.4608L17.748 7.15525L16.4376 18.1496L17.9928 19.4384L19.548 18.1496L18.2376 7.15525L29.2032 11.4608L30.7368 22.3688L22.2696 29.4104Z" fill="#383635"/>
<path d="M17.0855 20.1872L15.2135 18.6392L16.3727 8.93359L7.82626 12.2888L6.47266 21.8936L13.9319 28.0928L16.3727 27.164L11.0735 25.1552L17.0855 20.1872Z" fill="#383635"/>
<path d="M28.1596 12.2888L19.6132 8.93359L20.7724 18.6392L18.9004 20.1872L24.9124 25.1552L19.6132 27.164L22.054 28.0928L29.506 21.8936L28.1596 12.2888Z" fill="#383635"/>
</g>
<defs>
<clipPath id="clip0_1_15639">
<rect width="36" height="36" fill="white" transform="translate(0 0.279297)"/>
</clipPath>
</defs>
</svg>
