<svg width="36" height="37" viewBox="0 0 36 37" fill="none" xmlns="http://www.w3.org/2000/svg">
<path d="M3.18273 31.0162C2.03073 31.0162 1.09473 30.0802 1.09473 28.9282V23.7442C1.09473 22.5922 2.03073 21.6562 3.18273 21.6562C4.33473 21.6562 5.27073 22.5922 5.27073 23.7442V28.9282C5.27073 30.0802 4.33473 31.0162 3.18273 31.0162Z" fill="black"/>
<path d="M33.2496 31.5924C32.0976 31.5924 31.1616 30.6564 31.1616 29.5044V10.5324C31.1616 9.7692 30.5424 9.1428 29.772 9.1428C29.1528 9.1428 28.5984 9.5604 28.4328 10.158L23.7528 26.9916C23.0616 29.4828 20.8656 31.146 18.2808 31.146C18.2664 31.146 18.2448 31.146 18.2304 31.146C15.624 31.1244 13.4352 29.418 12.78 26.898L8.49596 10.374C8.30876 9.654 7.66076 9.15 6.91196 9.15C6.01196 9.15 5.27756 9.8844 5.27756 10.7844V11.9724C5.27756 13.1244 4.34156 14.0604 3.18956 14.0604C2.03756 14.0604 1.10156 13.1244 1.10156 11.9724V10.7844C1.10156 7.5732 3.71516 4.9668 6.91916 4.9668C9.56876 4.9668 11.8872 6.7596 12.5496 9.3228L16.848 25.854C17.1144 26.8836 18.0144 26.97 18.2808 26.9772C18.288 26.9772 18.288 26.9772 18.2952 26.9772C18.576 26.9772 19.4544 26.8908 19.7352 25.8828L24.4152 9.0492C25.0848 6.6516 27.288 4.974 29.7792 4.974C32.8536 4.974 35.352 7.4724 35.352 10.5468V29.5116C35.3448 30.6564 34.4088 31.5924 33.2496 31.5924Z" fill="black"/>
<path d="M5.34213 18.6402L3.91653 20.0658C3.51333 20.469 2.85093 20.469 2.44773 20.0658L1.02213 18.6402C0.618927 18.237 0.618927 17.5746 1.02213 17.1714L2.44773 15.7458C2.85093 15.3426 3.51333 15.3426 3.91653 15.7458L5.34213 17.1714C5.74533 17.5746 5.74533 18.237 5.34213 18.6402Z" fill="#FEBF00"/>
</svg>
