<svg width="36" height="37" viewBox="0 0 36 37" fill="none" xmlns="http://www.w3.org/2000/svg">
<g clip-path="url(#clip0_1_15962)">
<path d="M0.634082 20.3321C0.634082 17.1902 0.640346 14.0483 0.62681 10.9065C0.624938 10.4756 0.766922 10.2117 1.1455 9.9944C6.53499 6.90006 11.9184 3.7952 17.2989 0.685164C17.6421 0.486804 17.9329 0.476148 18.281 0.676668C22.3756 3.03524 26.4768 5.38252 30.5741 7.73641C31.1828 8.08612 31.1884 8.58896 30.5934 8.9494C30.0027 9.30716 29.3946 9.63714 28.8159 10.0128C28.4362 10.2594 28.1155 10.2436 27.7281 10.0192C24.6704 8.24754 21.5986 6.50017 18.5449 4.72192C18.0744 4.44796 17.7081 4.45321 17.2387 4.72595C13.0362 7.16819 8.82358 9.59308 4.60546 12.0084C4.17893 12.2526 3.99691 12.5413 3.9985 13.0419C4.01455 17.9307 4.01535 22.8196 4.00167 27.7085C4.0003 28.2067 4.16467 28.5161 4.60539 28.7441C5.20601 29.0547 5.7787 29.4191 6.36694 29.7542C7.02581 30.1296 7.47725 29.8653 7.47775 29.0995C7.48078 24.6846 7.48049 20.2697 7.4815 15.8548C7.48171 14.8755 7.85431 14.6625 8.7132 15.152C11.56 16.7742 14.411 18.3893 17.2484 20.0279C17.6923 20.2843 18.0416 20.2796 18.4829 20.0198C21.3414 18.3368 24.2138 16.6772 27.0825 15.0116C27.8519 14.5648 28.2484 14.7974 28.2487 15.6928C28.2503 20.0941 28.2509 24.4954 28.2526 28.8968C28.2529 29.8275 28.6716 30.0692 29.4757 29.6057C30.0623 29.2677 30.643 28.9185 31.2388 28.5978C31.6169 28.3944 31.7664 28.1143 31.7656 27.6816C31.7562 22.7928 31.7684 17.9039 31.7513 13.0151C31.7495 12.4827 31.9178 12.1573 32.391 11.9205C32.9348 11.6484 33.4474 11.3139 33.9743 11.0082C34.8087 10.5243 35.1863 10.7363 35.1875 11.6904C35.1918 14.9947 35.192 26.9392 35.2082 29.6071C35.2111 30.0841 35.0464 30.3766 34.6282 30.6164C31.7506 32.2667 28.8889 33.9448 26.0084 35.5901C25.7599 35.732 25.3489 35.8249 25.1308 35.7126C24.945 35.6169 24.8496 35.193 24.8485 34.9138C24.8323 30.5803 24.8382 26.2466 24.8388 21.913C24.8388 21.7776 24.8443 21.6417 24.835 21.5068C24.7918 20.8776 24.3354 20.6173 23.7895 20.9308C22.0166 21.949 20.2438 22.9678 18.4853 24.0105C18.0557 24.2652 17.7061 24.2516 17.2831 24.0019C15.581 22.997 13.8642 22.0167 12.151 21.0305C11.4441 20.6235 10.9992 20.8815 10.9991 21.6999C10.9982 26.1689 11.0055 30.638 10.9872 35.1069C10.9861 35.3797 10.8602 35.7629 10.6613 35.8906C10.4866 36.0028 10.0859 35.9012 9.85678 35.7693C6.9582 34.101 4.07626 32.404 1.1797 30.7322C0.777218 30.4999 0.618674 30.2233 0.621122 29.7577C0.63797 26.6159 0.632714 20.3321 0.634082 20.3321Z" fill="url(#paint0_linear_1_15962)"/>
</g>
<defs>
<linearGradient id="paint0_linear_1_15962" x1="0.678268" y1="10.4833" x2="35.0223" y2="30.294" gradientUnits="userSpaceOnUse">
<stop stop-color="#833CFE"/>
<stop offset="1" stop-color="#4444DA"/>
</linearGradient>
<clipPath id="clip0_1_15962">
<rect width="36" height="36" fill="white" transform="translate(0 0.279297)"/>
</clipPath>
</defs>
</svg>
