<svg width="36" height="37" viewBox="0 0 36 37" fill="none" xmlns="http://www.w3.org/2000/svg">
<path d="M28.0703 20.9219C29.355 20.9219 30.3965 19.8804 30.3965 18.5957C30.3965 17.311 29.355 16.2695 28.0703 16.2695C26.7856 16.2695 25.7441 17.311 25.7441 18.5957C25.7441 19.8804 26.7856 20.9219 28.0703 20.9219Z" fill="#4A4C56"/>
<path d="M18.9102 4.82422H35.7267V32.2057H18.9102V28.4255H31.8497V8.65275H18.9102V4.82422Z" fill="#E7BA05"/>
<path d="M7.85352 21.002C9.13823 21.002 10.1797 19.9605 10.1797 18.6758C10.1797 17.3911 9.13823 16.3496 7.85352 16.3496C6.56881 16.3496 5.52734 17.3911 5.52734 18.6758C5.52734 19.9605 6.56881 21.002 7.85352 21.002Z" fill="#4A4C56"/>
<path d="M17.0128 4.9043H0.196289V32.2858H17.0128V28.5056H4.07335V8.73282H17.0128V4.9043Z" fill="#E7BA05"/>
</svg>
