<svg width="36" height="37" viewBox="0 0 36 37" fill="none" xmlns="http://www.w3.org/2000/svg">
<g clip-path="url(#clip0_1_15517)">
<path d="M16.4518 20.6334L10.4758 26.6094C9.61905 27.4662 8.23665 27.4662 7.38705 26.6094L0.640647 19.827C-0.216153 18.9702 -0.216153 17.5878 0.640647 16.731L7.43025 9.94143C8.28705 9.08463 9.66945 9.08463 10.519 9.94143L16.495 15.9174C17.3518 16.7742 18.7342 16.7742 19.5838 15.9174L25.5166 9.94143C26.3734 9.08463 27.7558 9.08463 28.6054 9.94143L35.3518 16.731C36.2086 17.5878 36.2086 18.9702 35.3518 19.8198L28.6054 26.6094C27.7486 27.4662 26.3662 27.4662 25.5166 26.6094L19.5406 20.6334C18.691 19.7838 17.3086 19.7838 16.4518 20.6334Z" fill="url(#paint0_linear_1_15517)"/>
</g>
<defs>
<linearGradient id="paint0_linear_1_15517" x1="86.9645" y1="18.279" x2="6.27169" y2="18.279" gradientUnits="userSpaceOnUse">
<stop stop-color="#3600C9"/>
<stop offset="1" stop-color="#9E00E7"/>
</linearGradient>
<clipPath id="clip0_1_15517">
<rect width="36" height="36" fill="white" transform="translate(0 0.279297)"/>
</clipPath>
</defs>
</svg>
