<svg width="36" height="37" viewBox="0 0 36 37" fill="none" xmlns="http://www.w3.org/2000/svg">
<path d="M21.5426 2.71289C18.425 2.71289 17.6474 2.71289 14.5298 2.71289L0.381836 27.2217C1.94424 29.9145 2.33304 30.5913 3.88824 33.2913H32.1842C33.7394 30.5913 34.1354 29.9145 35.6906 27.2217L21.5426 2.71289ZM20.7434 11.4969L14.6738 21.2241H11.9594L20.7938 5.78729L33.1706 27.2217L31.709 29.7489L20.7434 11.4969ZM17.9786 20.0577L18.6338 21.2313H17.2442L17.9786 20.0577ZM15.7898 4.90169H18.785L8.20104 23.4129H19.865L21.4706 26.2641L3.42744 26.3145L15.7898 4.90169ZM4.76664 30.4401L3.63624 28.4889L25.2002 28.4313L19.2962 17.9481L20.7074 15.6801L29.981 31.1097H5.14824L4.76664 30.4401Z" fill="url(#paint0_linear_1_15744)"/>
<defs>
<linearGradient id="paint0_linear_1_15744" x1="5.97919" y1="11.2671" x2="30.0932" y2="35.381" gradientUnits="userSpaceOnUse">
<stop stop-color="#4DC5DA"/>
<stop offset="1" stop-color="#76CBC2"/>
</linearGradient>
</defs>
</svg>
