<svg width="36" height="37" viewBox="0 0 36 37" fill="none" xmlns="http://www.w3.org/2000/svg">
<path d="M2.91179 25.804C4.31282 25.804 5.44858 24.6683 5.44858 23.2673C5.44858 21.8662 4.31282 20.7305 2.91179 20.7305C1.51076 20.7305 0.375 21.8662 0.375 23.2673C0.375 24.6683 1.51076 25.804 2.91179 25.804Z" fill="#4A90E2"/>
<path d="M33.1413 10.6895C31.7679 10.6895 30.6045 11.8 30.6045 13.2263C30.6045 15.2353 30.2866 15.763 28.0677 15.763H27.8558C26.5884 15.869 25.5839 16.9265 25.5839 18.2469V18.2998C25.5839 20.2559 25.213 20.7307 23.0471 20.7307C22.9411 20.7307 22.8352 20.7307 22.7822 20.7837C21.5148 20.9426 20.5103 22.0001 20.5103 23.2675C20.5103 24.6408 21.6208 25.8043 23.0471 25.8043C24.3674 25.8043 25.4779 24.7467 25.5309 23.4794V23.2675C25.5309 21.4703 26.1116 20.7837 28.0147 20.7307H28.0677C29.388 20.7307 30.4985 19.6732 30.5515 18.3528V18.1939C30.5515 16.3438 31.1322 15.6571 33.0883 15.6571C34.4616 15.6571 35.6251 14.5466 35.6251 13.1203C35.6251 11.7999 34.5146 10.6895 33.1413 10.6895ZM18.2384 15.763H18.0265C15.8076 15.763 15.4897 15.2353 15.4897 13.2262C15.4897 11.8529 14.3792 10.6895 12.9529 10.6895C11.5796 10.6895 10.4161 11.7999 10.4161 13.2262C10.4161 15.2353 10.0982 15.7101 7.87932 15.7101H7.66741C6.40004 15.816 5.39551 16.8735 5.39551 18.1939C5.39551 19.5672 6.50599 20.7307 7.9323 20.7307C9.25265 20.7307 10.3631 19.6732 10.4161 18.4058V18.2468C10.4161 16.3967 10.9968 15.7101 12.9529 15.7101C14.909 15.7101 15.4897 16.3967 15.4897 18.1939C15.4897 19.5672 16.6002 20.7307 18.0265 20.7307C19.4528 20.7307 20.5633 19.6202 20.5633 18.1939C20.5103 16.9265 19.5058 15.869 18.2384 15.763Z" fill="#4A90E2"/>
</svg>
