<svg width="36" height="37" viewBox="0 0 36 37" fill="none" xmlns="http://www.w3.org/2000/svg">
<g clip-path="url(#clip0_1_15631)">
<path d="M0.359375 18.1891C5.09877 15.8509 9.73234 13.5649 14.3575 11.2831C15.5717 7.70603 16.7749 4.1614 18.0191 0.496094C20.354 5.22887 22.637 9.85624 24.926 14.4961C28.4896 15.7061 32.0461 16.9137 35.7113 18.1583C30.9841 20.4903 26.3644 22.7692 21.711 25.0649C20.5076 28.6093 19.2991 32.1687 18.0509 35.8452C15.7171 31.1155 13.4338 26.4881 11.1451 21.8499C7.58119 20.6402 4.02418 19.4329 0.359375 18.1891ZM18.2231 3.6201C16.3341 9.19168 14.4924 14.6238 12.6082 20.1813C16.3863 18.3175 20.0201 16.5249 23.6928 14.7133C21.8694 11.0154 20.0763 7.37865 18.2231 3.6201ZM32.5828 18.3625C29.8061 17.4212 27.154 16.5223 24.5365 15.635C20.7437 17.5068 17.0084 19.3503 13.1415 21.2587C15.9124 22.1991 18.5302 23.0875 21.1801 23.9868C24.9296 22.1374 28.6889 20.2831 32.5828 18.3625ZM11.1977 20.5981C12.0603 18.0531 12.9071 15.5547 13.754 13.0563C13.7196 13.0286 13.6853 13.001 13.651 12.9733C10.3008 14.6249 6.95047 16.2766 3.48821 17.9835C6.11635 18.8748 8.63311 19.7284 11.1977 20.5981ZM17.8452 32.7182C18.7375 30.0887 19.5909 27.5738 20.4603 25.0114C17.9151 24.1528 15.4159 23.3098 12.7653 22.4157C14.4884 25.9102 16.1389 29.2577 17.8452 32.7182Z" fill="black"/>
<path d="M18.2233 3.61914C20.0765 7.37768 21.8697 11.0145 23.693 14.7123C20.0204 16.524 16.3866 18.3166 12.6084 20.1803C14.4926 14.6228 16.3343 9.19072 18.2233 3.61914Z" fill="white"/>
<path d="M32.5829 18.3623C28.6889 20.2829 24.9297 22.1372 21.1803 23.9865C18.5304 23.0872 15.9125 22.1988 13.1416 21.2584C17.0085 19.35 20.7438 17.5065 24.5366 15.6348C27.1542 16.5221 29.8062 17.4211 32.5829 18.3623Z" fill="white"/>
<path d="M11.1978 20.5975C8.63326 19.7278 6.1165 18.8742 3.48828 17.9829C6.95055 16.276 10.3008 14.6243 13.6511 12.9727C13.6854 13.0003 13.7198 13.028 13.754 13.0557C12.9073 15.554 12.0605 18.0524 11.1978 20.5975Z" fill="white"/>
<path d="M17.8456 32.7185C16.1393 29.258 14.4887 25.9105 12.7656 22.416C15.4163 23.3101 17.9154 24.1531 20.4607 25.0117C19.5912 27.5741 18.7378 30.089 17.8456 32.7185Z" fill="white"/>
</g>
<defs>
<clipPath id="clip0_1_15631">
<rect width="36" height="36" fill="white" transform="translate(0 0.279297)"/>
</clipPath>
</defs>
</svg>
