<svg width="36" height="37" viewBox="0 0 36 37" fill="none" xmlns="http://www.w3.org/2000/svg">
<path d="M27.9103 8.89258H35.4764L27.1826 18.2503L27.9103 8.89258Z" fill="#3EBAEC"/>
<path d="M26.4189 27.6081L27.183 18.2503L35.4768 8.89258L26.4189 27.6081Z" fill="#28B1E9"/>
<path d="M22.3799 20.3335L27.9104 8.89258L27.1827 18.2503L23.5442 22.4075L22.3799 20.3335Z" fill="#439FE2"/>
<path d="M23.5439 22.4071L27.1825 18.25L26.4184 27.6078L23.5439 22.4071Z" fill="#2A96E0"/>
<path d="M23.544 22.4082L22.5127 23.5302L26.4185 27.6088L23.544 22.4082Z" fill="#2E53BD"/>
<path d="M22.5128 23.5293L18.8916 27.608H26.4186L22.5128 23.5293Z" fill="#1244B9"/>
<path d="M18.8916 27.6088L21.4133 22.4082L22.5128 23.5302L18.8916 27.6088Z" fill="#2E53BD"/>
<path d="M21.4131 22.4079L22.3797 20.334L23.544 22.4079L22.5127 23.5299L21.4131 22.4079Z" fill="#4068C6"/>
<path d="M22.38 20.3335L16.0635 8.89258L17.4515 18.2503L21.4134 22.4075L22.38 20.3335Z" fill="#707FD7"/>
<path d="M17.4512 18.25L21.413 22.4071L18.8914 27.6078L17.4512 18.25Z" fill="#5876D4"/>
<path d="M17.4518 18.2514L18.892 27.6092L12.7324 16.5729L13.7388 14.3867L17.4518 18.2514Z" fill="#8371D1"/>
<path d="M17.4513 18.2503L13.7383 14.3857L16.0633 8.89258L17.4513 18.2503Z" fill="#8E81D7"/>
<path d="M16.0635 8.89258L12.5587 13.1364L8.5332 8.89258H16.0635Z" fill="#775CB8"/>
<path d="M12.5586 13.1364L13.7385 14.3857L16.0635 8.89258L12.5586 13.1364Z" fill="#644BB3"/>
<path d="M8.53323 8.89258L0.541016 27.6081L11.5523 14.3857L8.53323 8.89258Z" fill="#B44FC4"/>
<path d="M11.5523 14.3857L12.5587 13.1364L8.5332 8.89258L11.5523 14.3857Z" fill="#7046AC"/>
<path d="M12.7316 16.5722L11.5518 14.386L12.5581 13.1367L13.738 14.386L12.7316 16.5722Z" fill="#5933A5"/>
<path d="M0.541016 27.6092L11.5523 14.3867L12.7322 16.5729L8.15156 27.6092H0.541016Z" fill="#AA3CBD"/>
</svg>
