<svg width="36" height="37" viewBox="0 0 36 37" fill="none" xmlns="http://www.w3.org/2000/svg">
<g clip-path="url(#clip0_1_15755)">
<path d="M14.4341 29.3509L14.3602 28.9204L6.43545 30.2818L6.19461 23.0095L9.34721 15.4102L9.38767 15.4941L9.78108 15.3044L6.52531 8.54974L15.4223 5.1414L17.6659 9.64039L15.4926 10.758L15.747 11.0661L17.9698 9.97397L21.436 11.341L21.5963 10.9347L18.3409 9.65083L23.7543 4.05291L26.9205 7.47593L27.081 7.32761L27.2413 7.17936L21.6766 1.1634L21.4639 1.09961L14.345 2.85418L14.2774 2.8837L6.10569 8.24813L6.02887 8.52547L8.98469 14.6578H2.9014L2.06685 12.5611L1.66113 12.7226L5.74418 22.98L4.06089 28.7233L4.48001 28.8462L5.80171 24.3366L6.00741 30.5467L6.26258 30.7547L14.4341 29.3509ZM14.4858 3.26955L21.4433 1.55472L23.4572 3.73193L18.0143 9.36046L15.832 4.98444L16.3804 4.77442L16.2241 4.36654L8.03666 7.503L14.4858 3.26955ZM9.00528 15.0945L5.97897 22.3893L3.07521 15.0945H9.00528Z" fill="#14566C"/>
<path d="M30.7925 31.0585L27.106 22.082L27.0789 23.0506L30.2488 30.8793L16.1555 29.1817L15.8519 28.8626L21.1496 26.6291L20.9798 26.2268L15.53 28.5244L15.1568 28.1323L14.8405 28.4334L15.7682 29.4082L12.2148 34.3213L12.5687 34.5772L16.0744 29.7299L21.7588 35.7028L22.0753 35.4017L16.6284 29.6785L30.5639 31.3571L30.7925 31.0585Z" fill="#14566C"/>
<path d="M35.4687 23.3267L34.8366 22.9659L30.6737 30.2573L27.8234 27.6534L27.3324 28.1908L30.0423 30.6665L22.6075 32.8605L15.628 27.551L15.4066 28.2101L21.6646 33.0514L12.967 34.6466L15.1273 28.2251L14.4518 28.1096L12.4193 34.0015L10.2739 27.7051L9.67181 28.2875L11.7156 34.1935L5.11421 29.6754L9.27833 28.1272L9.02468 27.4448L4.60632 29.0875L3.08453 21.0438L8.81026 26.954L9.23398 26.3569L2.91404 19.8186L6.40258 9.07535L8.66122 9.55099L8.8112 8.83869L6.73457 8.40143L9.83352 3.28504L16.3675 4.45929L14.1672 8.81154L14.9087 8.8204L16.9955 4.82901L20.7896 9.139L21.3954 8.7731L17.7205 4.55274H27.0468L26.7216 8.85014L27.3765 9.04274L27.7272 5.16683L33.148 12.3082L27.5883 9.42556L27.3765 9.96426L34.2528 13.7062L34.7449 13.217L31.0879 6.1119L30.958 5.97035L27.6187 3.87069L21.6111 0.526936L21.3721 0.486328L9.58973 2.52393L9.39108 2.62854L1.19475 11.0398L1.09172 11.2797L0.673828 22.0941L0.7045 22.2549L3.99584 29.7257L4.12328 29.8794L12.2146 35.4172L12.3991 35.4802L22.3351 36.055L22.5383 36.0068L30.9462 31.1481L31.0801 31.0133L35.4687 23.3267ZM21.9991 35.3064L15.4651 34.9284L22.1305 33.7059L21.9991 35.3064ZM22.8743 33.5407L27.9354 32.0472L22.7509 35.0431L22.8743 33.5407ZM5.8957 8.38127L3.47772 9.73991L7.69268 5.41444L5.8957 8.38127ZM5.52346 9.42542L2.66326 18.2336L1.84606 11.4918L5.52346 9.42542ZM2.12283 19.8241L1.45114 20.8317L1.64302 15.8657L2.12283 19.8241ZM2.30844 20.8579L3.38031 26.5233L1.451 22.1441L2.30844 20.8579ZM26.0393 3.82468H18.0224L21.4621 1.27718L26.0393 3.82468ZM16.8293 3.80265L11.7476 2.8894L19.9857 1.46481L16.8293 3.80265ZM32.1874 9.83862L28.9406 5.56132L30.4862 6.53339L32.1874 9.83862Z" fill="#15A9D5"/>
<path d="M27.2305 26.5869V10.4637C27.5667 10.3214 27.8032 9.98814 27.8032 9.60071C27.8032 9.08425 27.383 8.66406 26.8665 8.66406C26.4791 8.66406 26.1459 8.90051 26.0035 9.23675H22.2573C22.115 8.90058 21.7817 8.66406 21.3943 8.66406C20.8779 8.66406 20.4577 9.08425 20.4577 9.60071C20.4577 9.98814 20.6941 10.3214 21.0303 10.4637V17.0796C21.0059 17.09 20.9822 17.1017 20.9589 17.1141L15.2534 10.182C15.3805 10.0221 15.4571 9.82031 15.4571 9.60071C15.4571 9.08425 15.0369 8.66406 14.5204 8.66406C14.133 8.66406 13.7998 8.90051 13.6574 9.23675H10.2645C10.1221 8.90058 9.78892 8.66406 9.40149 8.66406C8.88504 8.66406 8.46484 9.08425 8.46484 9.60071C8.46484 9.98814 8.70136 10.3214 9.03753 10.4637V26.5869C8.70136 26.7292 8.46484 27.0624 8.46484 27.4499C8.46484 27.9663 8.88504 28.3865 9.40149 28.3865C9.78892 28.3865 10.1222 28.15 10.2645 27.8138H14.0117C14.154 28.1501 14.4872 28.3865 14.8746 28.3865C15.3911 28.3865 15.8113 27.9663 15.8113 27.4499C15.8113 27.0624 15.5748 26.7292 15.2386 26.5869V19.9875C15.2794 19.9702 15.3182 19.9493 15.3557 19.9266L21.187 26.9481C21.0944 27.0933 21.0399 27.2652 21.0399 27.4499C21.0399 27.9663 21.4601 28.3865 21.9765 28.3865C22.3639 28.3865 22.6972 28.15 22.8395 27.8138H26.0034C26.1457 28.1501 26.479 28.3865 26.8664 28.3865C27.3828 28.3865 27.803 27.9663 27.803 27.4499C27.8032 27.0624 27.5667 26.7292 27.2305 26.5869ZM26.8665 9.2464C27.0619 9.2464 27.2208 9.40537 27.2208 9.60071C27.2208 9.79605 27.0619 9.95502 26.8665 9.95502C26.6712 9.95502 26.5122 9.79605 26.5122 9.60071C26.5123 9.40537 26.6712 9.2464 26.8665 9.2464ZM21.3944 9.2464C21.5897 9.2464 21.7487 9.40537 21.7487 9.60071C21.7487 9.79605 21.5897 9.95502 21.3944 9.95502C21.1991 9.95502 21.0401 9.79605 21.0401 9.60071C21.0401 9.40537 21.1991 9.2464 21.3944 9.2464ZM21.3944 17.5884C21.5897 17.5884 21.7487 17.7474 21.7487 17.9427C21.7487 18.138 21.5897 18.297 21.3944 18.297C21.1991 18.297 21.0401 18.138 21.0401 17.9427C21.0401 17.7473 21.1991 17.5884 21.3944 17.5884ZM14.5205 9.2464C14.7159 9.2464 14.8749 9.40537 14.8749 9.60071C14.8749 9.79605 14.7159 9.95502 14.5205 9.95502C14.3252 9.95502 14.1662 9.79605 14.1662 9.60071C14.1662 9.40537 14.3252 9.2464 14.5205 9.2464ZM9.40164 9.2464C9.59697 9.2464 9.75595 9.40537 9.75595 9.60071C9.75595 9.79605 9.59697 9.95502 9.40164 9.95502C9.2063 9.95502 9.04732 9.79605 9.04732 9.60071C9.04732 9.40537 9.2063 9.2464 9.40164 9.2464ZM9.40164 27.8042C9.2063 27.8042 9.04732 27.6452 9.04732 27.4499C9.04732 27.2545 9.2063 27.0956 9.40164 27.0956C9.59697 27.0956 9.75595 27.2545 9.75595 27.4499C9.75595 27.6452 9.59697 27.8042 9.40164 27.8042ZM14.8748 27.8042C14.6795 27.8042 14.5205 27.6452 14.5205 27.4499C14.5205 27.2545 14.6795 27.0956 14.8748 27.0956C15.0701 27.0956 15.2291 27.2545 15.2291 27.4499C15.2291 27.6452 15.0701 27.8042 14.8748 27.8042ZM14.5205 19.1245C14.5205 18.9292 14.6795 18.7702 14.8749 18.7702C15.0702 18.7702 15.2292 18.9292 15.2292 19.1245C15.2292 19.3198 15.0702 19.4788 14.8749 19.4788C14.6795 19.4788 14.5205 19.3198 14.5205 19.1245ZM21.9767 27.8042C21.7814 27.8042 21.6224 27.6452 21.6224 27.4499C21.6224 27.2545 21.7814 27.0956 21.9767 27.0956C22.1721 27.0956 22.331 27.2545 22.331 27.4499C22.331 27.6452 22.1721 27.8042 21.9767 27.8042ZM26.0036 27.0858H22.8397C22.6974 26.7497 22.3642 26.5132 21.9767 26.5132C21.9121 26.5132 21.8491 26.5198 21.7882 26.5323L15.7924 19.3127C15.8049 19.2519 15.8114 19.1889 15.8114 19.1245C15.8114 18.6081 15.3912 18.1879 14.8748 18.1879C14.3583 18.1879 13.9381 18.6081 13.9381 19.1245C13.9381 19.5119 14.1747 19.8452 14.5108 19.9875V26.5869C14.2866 26.6818 14.1068 26.8616 14.0118 27.0858H10.2646C10.1696 26.8616 9.9898 26.6818 9.7656 26.5869V10.4637C9.9898 10.3687 10.1697 10.1889 10.2646 9.96467H13.6576C13.7999 10.3008 14.1331 10.5374 14.5205 10.5374C14.5473 10.5374 14.5737 10.5356 14.5999 10.5333L20.4926 17.6929C20.4705 17.7726 20.4577 17.8561 20.4577 17.9426C20.4577 18.4591 20.8779 18.8793 21.3944 18.8793C21.9108 18.8793 22.331 18.4591 22.331 17.9426C22.331 17.5552 22.0945 17.2219 21.7583 17.0796V10.4637C21.9826 10.3688 22.1625 10.1889 22.2574 9.96467H26.0036C26.0985 10.1889 26.2784 10.3688 26.5026 10.4637V26.5869C26.2784 26.6818 26.0985 26.8616 26.0036 27.0858ZM26.8665 27.8042C26.6712 27.8042 26.5122 27.6452 26.5122 27.4499C26.5122 27.2545 26.6712 27.0956 26.8665 27.0956C27.0619 27.0956 27.2208 27.2545 27.2208 27.4499C27.2208 27.6452 27.0619 27.8042 26.8665 27.8042Z" fill="#E5E5E5"/>
</g>
<defs>
<clipPath id="clip0_1_15755">
<rect width="36" height="36" fill="white" transform="translate(0 0.279297)"/>
</clipPath>
</defs>
</svg>
