<svg width="36" height="37" viewBox="0 0 36 37" fill="none" xmlns="http://www.w3.org/2000/svg">
<path d="M21.8301 28.8784H4.49254C3.78694 28.8784 3.21094 28.3096 3.21094 27.5968C3.21094 26.884 3.77974 26.3152 4.49254 26.3152H21.8301C28.0365 26.3152 33.0837 21.268 33.0837 15.0616C33.0837 8.85515 28.0365 3.81515 21.8301 3.81515H14.9037C14.1981 3.81515 13.6221 3.24635 13.6221 2.53355C13.6221 1.82075 14.1909 1.25195 14.9037 1.25195H21.8301C29.4477 1.25195 35.6397 7.45115 35.6397 15.0616C35.6397 22.672 29.4477 28.8784 21.8301 28.8784Z" fill="#6F51A0"/>
<path d="M21.9962 22.5483H12.2618C11.5562 22.5483 10.9802 21.9795 10.9802 21.2667C10.9802 20.5539 11.549 19.9851 12.2618 19.9851H21.989C24.7034 19.9851 26.9138 17.7747 26.9138 15.0603C26.9138 12.3459 24.7034 10.1355 21.989 10.1355H4.09703C3.39143 10.1355 2.81543 9.56667 2.81543 8.85387C2.81543 8.14107 3.38423 7.57227 4.09703 7.57227H21.9962C26.1218 7.57227 29.4842 10.9275 29.4842 15.0603C29.477 19.1931 26.1218 22.5483 21.9962 22.5483Z" fill="#6F51A0"/>
<path d="M12.8955 16.3073H9.13707C8.43147 16.3073 7.85547 15.7385 7.85547 15.0257C7.85547 14.3129 8.42427 13.7441 9.13707 13.7441H12.8955C13.6011 13.7441 14.1771 14.3129 14.1771 15.0257C14.1771 15.7385 13.6011 16.3073 12.8955 16.3073Z" fill="#6F51A0"/>
<path d="M9.77782 34.9831H1.60582C0.900219 34.9831 0.324219 34.4143 0.324219 33.7015C0.324219 32.9887 0.893019 32.4199 1.60582 32.4199H9.77782C10.4834 32.4199 11.0594 32.9887 11.0594 33.7015C11.0594 34.4143 10.4834 34.9831 9.77782 34.9831Z" fill="#6F51A0"/>
</svg>
