<svg width="36" height="37" viewBox="0 0 36 37" fill="none" xmlns="http://www.w3.org/2000/svg">
<g clip-path="url(#clip0_1_15625)">
<path d="M28.8504 2.13678L21.3336 13.2824C20.8152 14.0384 21.816 14.96 22.5288 14.3192L29.9232 7.88958C30.1248 7.73118 30.4056 7.84638 30.4056 8.12718V28.2224C30.4056 28.5032 30.0456 28.6184 29.8872 28.424L7.5096 1.65438C6.7896 0.775981 5.7528 0.300781 4.5936 0.300781H3.7944C1.7208 0.300781 0 2.01438 0 4.13838V32.4272C0 34.544 1.7208 36.2648 3.8376 36.2648C5.1552 36.2648 6.3936 35.588 7.1136 34.4288L14.6232 23.2832C15.1416 22.5272 14.1408 21.6056 13.428 22.2464L6.0336 28.6256C5.832 28.784 5.5512 28.6688 5.5512 28.388V8.32878C5.5512 8.04798 5.9112 7.93278 6.0696 8.12718L28.4472 34.8968C29.1672 35.7752 30.2472 36.2576 31.3632 36.2576H32.1624C34.2792 36.2576 36 34.5368 36 32.42V4.13838C36 2.02158 34.2792 0.300781 32.1624 0.300781C30.8088 0.300781 29.5704 0.977581 28.8504 2.13678Z" fill="black"/>
</g>
<defs>
<clipPath id="clip0_1_15625">
<rect width="36" height="36" fill="white" transform="translate(0 0.279297)"/>
</clipPath>
</defs>
</svg>
