<svg width="36" height="38" viewBox="0 0 36 38" fill="none" xmlns="http://www.w3.org/2000/svg">
<path d="M8.79551 14.6468V13.9422L1.50808 9.99805C1.02998 10.7679 0.775921 11.6557 0.774414 12.562V18.9681L0.792273 18.9779L8.79551 14.6468Z" fill="#3377B5"/>
<path d="M0.791992 18.9796L8.79506 23.3107V14.6484L0.791992 18.9796Z" fill="#4F6CB0"/>
<path d="M34.5397 10.0822L27.4053 13.9435V14.6481L35.2263 18.8809V12.5633C35.2263 11.6799 34.9815 10.8296 34.5399 10.082" fill="#504CA1"/>
<path d="M8.79455 23.6537V23.3097L0.791295 18.9785L0.773438 18.9883V25.2929C0.773438 26.239 1.05369 27.1476 1.55656 27.9314L8.80864 24.0066L8.79455 23.6537Z" fill="#3B9CC7"/>
<path d="M26.6685 13.4804V4.97461L18.8105 9.2274L26.6685 13.4804Z" fill="#5465AD"/>
<path d="M27.4051 13.8786V13.9434L34.5396 10.0821C34.0667 9.28184 33.368 8.60046 32.4935 8.12671L26.6689 4.97461V13.4804" fill="#513D9A"/>
<path d="M18.0957 27.5155L25.9051 23.289V23.2051L18.0957 18.9785V27.5155Z" fill="#214688"/>
<path d="M9.43066 24.3691V32.9356L9.52474 32.9865L17.4391 28.7033L9.43066 24.3691Z" fill="#4395C4"/>
<path d="M8.8106 24.0342L8.8097 24.0078L1.55762 27.9325C2.02709 28.6644 2.69025 29.2892 3.50657 29.7304L9.43198 32.9368V24.3704L8.8106 24.0342Z" fill="#54A4CB"/>
<path d="M18.1506 8.87019L18.8111 9.22721L26.6688 4.97424L20.7322 1.7611C19.9224 1.32578 19.0198 1.09154 18.1006 1.07812V8.89679L18.1506 8.87019Z" fill="#7F6FB3"/>
<path d="M17.4395 9.25374L18.1 8.89672V1.07716C17.2445 1.06133 16.3963 1.23596 15.6166 1.58841L9.44629 4.92795L17.4395 9.25374Z" fill="#5054A4"/>
<path d="M9.44601 4.92773L9.43066 4.93576V13.5877L17.4391 9.25352L9.44601 4.92773Z" fill="#50479E"/>
<path d="M8.79524 13.9338L9.13441 13.7474L9.43002 13.5868V4.93555L3.17241 8.32292C2.49794 8.7482 1.92877 9.32103 1.50781 9.99822L8.79524 13.9422V13.9338Z" fill="#5057A6"/>
<path d="M18.1506 29.0894L18.1006 29.0625V36.7799C19.0201 36.7663 19.9228 36.5319 20.7327 36.0964L26.5756 32.9343L18.8114 28.7324L18.1506 29.0894Z" fill="#2C7AB6"/>
<path d="M17.4397 28.7031L9.52539 32.9873L15.2677 36.0953C16.1375 36.5626 17.1131 36.7979 18.1004 36.7785V29.0609" fill="#4FA2CA"/>
<path d="M18.8105 28.7311L26.5748 32.933L26.6685 32.8822V24.4785L18.8105 28.7311Z" fill="#4D8DC0"/>
<path d="M27.4049 24.0811L26.6689 24.4796V32.8834L32.4933 29.7311C33.3398 29.2731 34.0231 28.6204 34.4953 27.8536L27.4049 24.0156" fill="#4488BE"/>
<path d="M27.4053 24.0153L34.4956 27.8532C34.9719 27.0844 35.2248 26.1983 35.2263 25.294V19.0781L27.4053 23.3109" fill="#6687BE"/>
<path d="M27.4053 23.3113L35.2263 19.0785V18.8814L27.4053 14.6484V23.3113Z" fill="#415CA8"/>
<path d="M25.9051 23.2049V14.752L18.0957 18.9783L25.9051 23.2049Z" fill="#5D62AC"/>
</svg>
