<svg width="36" height="37" viewBox="0 0 36 37" fill="none" xmlns="http://www.w3.org/2000/svg">
<path d="M6.7611 22.5847C6.0987 21.8287 6.0987 20.6119 6.7611 19.8559L13.4643 12.2239L10.8003 9.17833C10.1379 8.42233 9.0651 8.42233 8.4027 9.17833L0.6843 17.9623C0.0219 18.7183 0.0219 19.9351 0.6843 20.6911L8.8275 29.9647C9.4899 30.7207 10.5627 30.7207 11.2251 29.9647L12.2331 28.8127C12.2403 28.8199 6.7611 22.5847 6.7611 22.5847Z" fill="#6642FA"/>
<path d="M20.4988 34.1402L7.48117 19.3082C6.81877 18.5522 6.81877 17.3354 7.48117 16.5794L19.8652 2.46739C20.5276 1.71139 21.6004 1.71139 22.2628 2.46739L35.2804 17.2922C35.9428 18.0482 35.9428 19.265 35.2804 20.021L22.9108 34.1402C22.2412 34.8962 21.1612 34.8962 20.4988 34.1402Z" fill="#6642FA"/>
</svg>
