<svg width="36" height="37" viewBox="0 0 36 37" fill="none" xmlns="http://www.w3.org/2000/svg">
<path d="M16.3873 25.4799C15.9121 25.4799 15.4297 25.4079 14.9545 25.2567C14.7385 25.1703 14.4361 25.1631 14.0617 25.2135C12.9961 25.3935 12.1393 25.2783 11.4625 24.8751C11.3329 24.8103 11.0521 24.7671 10.7209 24.7671C9.54727 24.8319 8.82007 24.6735 8.34487 24.2631C8.25847 24.2415 8.03527 24.2055 7.72567 24.2055C6.55207 24.2055 5.81047 23.9535 5.56567 23.4639C5.50087 23.4351 5.35687 23.3847 5.12647 23.3487C4.20487 23.2479 3.67927 23.0535 3.43447 22.7367C3.34807 22.6287 3.30487 22.5063 3.29047 22.3767C3.24727 22.3623 3.18247 22.3479 3.08887 22.3335C2.22487 22.1823 1.78567 21.9447 1.64887 21.5703C1.62007 21.4839 1.58407 21.3471 1.62727 21.1743C1.14487 21.0447 0.648069 20.8359 0.576069 20.3967C0.540069 20.1951 0.604869 20.0007 0.763269 19.8207C0.518469 19.6911 0.230469 19.4679 0.230469 19.1151C0.230469 18.7623 0.518469 18.5391 0.763269 18.4095C0.604869 18.2295 0.540069 18.0423 0.576069 17.8335C0.648069 17.3799 1.16647 17.1711 1.62727 17.0487C1.58407 16.8831 1.61287 16.7463 1.64167 16.6599C1.77847 16.2855 2.21767 16.0479 3.06727 15.8967C3.16807 15.8823 3.24007 15.8607 3.28327 15.8463C3.29767 15.6879 3.35527 15.5439 3.44887 15.4215C3.70087 15.0975 4.18327 14.9175 5.07607 14.8239C5.30647 14.7879 5.44327 14.7375 5.50807 14.7087C5.80327 14.1327 6.57367 13.9671 7.64647 13.9167C7.97767 13.9167 8.18647 13.8303 8.22967 13.8015C8.66167 13.3695 9.49687 13.1751 10.6921 13.2399C11.0881 13.2399 11.3473 13.1679 11.3977 13.1391C12.0241 12.7647 12.8449 12.6495 13.9969 12.7863C14.2633 12.8223 14.5585 12.8079 14.9041 12.7431C15.6529 12.4623 16.4881 12.4263 17.5321 12.6207C17.8129 12.6711 18.1657 12.6711 18.4609 12.6207C19.3393 12.3975 20.2105 12.4191 21.0889 12.6927C21.3049 12.7791 21.6073 12.7863 21.9817 12.7359C23.0473 12.5559 23.9041 12.6711 24.5809 13.0743C24.7105 13.1391 24.9913 13.1823 25.3225 13.1823C26.5609 13.1175 27.3025 13.2903 27.7705 13.7583C27.7993 13.7799 28.0081 13.8591 28.3177 13.8591C29.4985 13.8591 30.2401 14.1183 30.4849 14.6079C30.5497 14.6439 30.7009 14.7087 30.8593 14.7087C31.8025 14.7735 32.3929 15.0687 32.6953 15.6015C32.7457 15.7023 32.7601 15.7239 32.8897 15.7239C33.5449 15.7239 34.1353 16.0191 34.3369 16.4367C34.4017 16.5735 34.4233 16.7175 34.4017 16.8615C34.9129 16.9191 35.2873 17.1783 35.3953 17.5383C35.4529 17.7327 35.4385 17.9991 35.2585 18.2367C35.5177 18.3735 35.8057 18.5967 35.8057 18.9495C35.8057 19.2879 35.5393 19.5039 35.3089 19.6335C35.4385 19.7991 35.4961 19.9791 35.4601 20.1663C35.3809 20.6343 34.8337 20.8431 34.3585 20.9655C34.3513 20.9655 34.3369 20.9727 34.3297 20.9727C34.2865 21.7431 33.8617 21.9447 32.9617 22.1031C32.8609 22.1175 32.7961 22.1391 32.7457 22.1535C32.7313 22.3119 32.6737 22.4559 32.5801 22.5783C32.3281 22.9023 31.8457 23.0823 30.9529 23.1759C30.7225 23.2119 30.5857 23.2623 30.5209 23.2911C30.1897 23.9391 29.2465 24.0327 28.3609 24.0327C28.0513 24.0327 27.8425 24.1191 27.7993 24.1479C27.3673 24.5799 26.5393 24.7743 25.3441 24.7095C24.9481 24.7095 24.6889 24.7815 24.6385 24.8103C24.0121 25.1847 23.1841 25.2927 22.0393 25.1631C21.7729 25.1271 21.4849 25.1415 21.1321 25.2063C20.3833 25.4871 19.5481 25.5231 18.5041 25.3287C18.2161 25.2783 17.8705 25.2783 17.5753 25.3287C17.1793 25.4295 16.7833 25.4799 16.3873 25.4799ZM14.4865 24.3351C14.7745 24.3351 15.0265 24.3783 15.2353 24.4575C15.9265 24.6663 16.6465 24.6879 17.4097 24.4935C17.8273 24.4215 18.2737 24.4215 18.6553 24.4863C19.5769 24.6591 20.2537 24.6303 20.8657 24.3927L20.9377 24.3711C21.3985 24.2775 21.7945 24.2559 22.1545 24.3135C23.0833 24.4215 23.7601 24.3495 24.1921 24.0831C24.4873 23.8815 25.0633 23.8527 25.3729 23.8527C26.7193 23.9247 27.1297 23.6223 27.2233 23.5215C27.4393 23.3055 27.8857 23.1687 28.3753 23.1687C29.5345 23.1687 29.7577 22.9527 29.7937 22.8591C29.9377 22.5783 30.2905 22.4055 30.8593 22.3263C31.7809 22.2255 31.9177 22.0527 31.9249 22.0455C31.9105 21.7791 32.0329 21.3831 32.8321 21.2535C33.3577 21.1599 33.4657 21.0879 33.4873 21.0663C33.4873 21.0591 33.4945 21.0159 33.4945 20.8791C33.4945 20.4327 33.7177 20.2743 34.1209 20.1375C34.2865 20.0943 34.4089 20.0511 34.4881 20.0151C34.3009 19.8711 34.2073 19.6623 34.2433 19.4463C34.2865 19.2087 34.4665 19.0287 34.7329 18.9495C34.7545 18.9423 34.7689 18.9351 34.7833 18.9279C34.7617 18.9207 34.7329 18.9063 34.7041 18.8919C34.3153 18.7335 34.2289 18.4743 34.2145 18.3303C34.1929 18.1071 34.3081 17.8911 34.5169 17.7471C34.5241 17.7471 34.5241 17.7399 34.5313 17.7399C34.4809 17.7111 34.3873 17.6823 34.2433 17.6823C33.8833 17.6823 33.5953 17.5167 33.4801 17.2431C33.4081 17.0703 33.4225 16.8831 33.5161 16.7319C33.4225 16.6599 33.1993 16.5519 32.8825 16.5519C32.4433 16.5519 32.1265 16.3575 31.9393 15.9759C31.8529 15.8247 31.6297 15.5871 30.8161 15.5295C30.4345 15.5295 29.8945 15.3351 29.7361 15.0111L29.7145 14.9535C29.6713 14.8887 29.3185 14.6799 28.3033 14.6799C27.8209 14.6799 27.3673 14.5431 27.1585 14.3271C26.8777 14.0463 26.3161 13.9455 25.3297 13.9959H25.3225C24.9697 13.9959 24.5089 13.9599 24.1561 13.7799C23.6305 13.4631 22.9681 13.3911 22.0969 13.5351C21.5569 13.6143 21.1249 13.5855 20.7937 13.4559C20.1025 13.2471 19.3825 13.2255 18.6193 13.4199C18.2017 13.4919 17.7553 13.4919 17.3737 13.4271C16.4665 13.2543 15.7681 13.2831 15.1633 13.5207L15.0913 13.5423C14.6305 13.6359 14.2345 13.6503 13.8745 13.5999C12.9385 13.4919 12.2689 13.5639 11.8369 13.8231C11.5417 14.0247 10.9729 14.0535 10.6561 14.0535C9.30967 13.9815 8.89927 14.2839 8.80567 14.3847C8.59687 14.6007 8.14327 14.7375 7.66087 14.7375C6.59527 14.7951 6.30007 14.9679 6.24247 15.1047C6.10567 15.3855 5.74567 15.5583 5.17687 15.6375C4.25527 15.7383 4.11847 15.9111 4.11127 15.9183C4.12567 16.1775 4.00327 16.5807 3.20407 16.7103C2.82247 16.7751 2.62087 16.8543 2.51287 16.9047C2.57767 17.0199 2.59927 17.1567 2.57047 17.2863C2.49847 17.5959 2.18167 17.7327 1.91527 17.8263C1.74967 17.8695 1.62727 17.9127 1.54807 17.9487C1.72087 18.0783 1.80727 18.2655 1.79287 18.4599C1.77847 18.6975 1.61287 18.9135 1.34647 19.0431C1.31047 19.0575 1.27447 19.0719 1.24567 19.0863C1.26727 19.0935 1.29607 19.1079 1.31767 19.1223C1.61287 19.2663 1.77127 19.4823 1.79287 19.7199C1.80727 19.9215 1.71367 20.1087 1.54087 20.2383C1.62007 20.2671 1.72807 20.3103 1.88647 20.3535C2.35447 20.4255 2.50567 20.6919 2.55607 20.8431C2.60647 20.9943 2.58487 21.1455 2.51287 21.2823C2.62087 21.3327 2.82247 21.4119 3.21127 21.4767C3.96007 21.5847 4.12567 21.9447 4.12567 22.2255C4.20487 22.2759 4.46407 22.4055 5.22007 22.4919C5.80327 22.5783 6.15607 22.7511 6.28567 23.0103L6.30727 23.0679C6.35047 23.1327 6.70327 23.3415 7.71127 23.3415C8.04247 23.3415 8.51767 23.3847 8.74807 23.4999L8.85607 23.5791C9.13687 23.8599 9.69847 23.9607 10.6849 23.9103H10.6921C11.0449 23.9103 11.5057 23.9463 11.8585 24.1263C12.3841 24.4431 13.0465 24.5151 13.9177 24.3711C14.1337 24.3495 14.3209 24.3351 14.4865 24.3351ZM1.80007 17.3727C1.80727 17.3871 1.82167 17.3943 1.82887 17.4087C1.81447 17.3943 1.80727 17.3871 1.80007 17.3727Z" fill="black"/>
<path d="M16.8338 6.42073C17.453 6.19753 18.0218 5.57113 17.9642 4.72153C17.9066 3.87193 17.057 3.59113 15.9842 3.98713C13.8386 4.72153 13.2698 7.15513 12.9314 9.58873C12.8162 10.2655 12.7586 10.9999 12.7082 11.6263C12.089 16.6591 11.6354 22.5991 11.801 27.1207C11.8586 28.0279 12.1394 29.0431 11.405 30.0079C10.1594 30.1231 10.4978 29.3887 9.36737 29.7847C7.61777 30.4039 8.00657 32.7799 9.30977 32.6719C9.70577 32.6719 10.0442 32.5567 10.4978 32.2759C12.701 31.1455 12.989 28.2007 13.385 25.2631C14.0618 19.7767 14.4002 14.4055 14.3498 9.25753V9.19993C14.3498 8.23513 14.177 6.65833 14.8034 6.31273C15.4154 6.02473 15.869 6.81673 16.8338 6.42073Z" fill="black"/>
<path d="M25.1141 4.11741C22.9685 4.85181 22.3997 7.28542 22.0613 9.71902C21.9461 10.3958 21.8885 11.1302 21.8381 11.7566C21.2189 16.7894 20.7653 22.7294 20.9309 27.251C20.9885 28.1582 21.2693 29.1734 20.5349 30.1382C19.2893 30.311 19.6277 29.519 18.4973 29.915C16.7477 30.5342 17.1365 32.9102 18.4397 32.8022C18.8357 32.8022 19.1741 32.687 19.6277 32.4062C21.8309 31.2758 22.1189 28.331 22.5149 25.3934C23.1917 19.907 23.5301 14.5358 23.4797 9.38782V9.33021C23.4797 8.36542 23.3069 6.78861 23.9333 6.44301C24.5525 6.10461 25.0061 6.89662 25.9709 6.50061C26.5901 6.27742 27.1589 5.65101 27.1013 4.80141C27.0365 4.00221 26.1869 3.72141 25.1141 4.11741Z" fill="black"/>
</svg>
