<svg width="36" height="37" viewBox="0 0 36 37" fill="none" xmlns="http://www.w3.org/2000/svg">
<g clip-path="url(#clip0_1_15460)">
<path d="M18.0365 35.9987C27.8106 35.9987 35.7341 28.0752 35.7341 18.3011C35.7341 8.527 27.8106 0.603516 18.0365 0.603516C8.26235 0.603516 0.338867 8.527 0.338867 18.3011C0.338867 28.0752 8.26235 35.9987 18.0365 35.9987Z" fill="#0B69FF"/>
<path d="M23.0619 14.5922H16.9419C16.4955 14.5922 16.1499 14.189 16.2291 13.7498L16.6467 11.273C16.7835 10.4738 17.4747 9.89062 18.2811 9.89062H23.9907C24.4803 9.89062 24.8547 10.3226 24.7899 10.805L24.4299 13.397C24.3435 14.081 23.7603 14.5922 23.0619 14.5922Z" fill="#0048D8"/>
<path d="M23.0183 27.6469H15.1919C14.7455 27.6469 14.3999 27.2437 14.4791 26.8045L14.8967 24.3277C15.0335 23.5285 15.7247 22.9453 16.5311 22.9453H23.9543C24.4439 22.9453 24.8183 23.3773 24.7535 23.8597L24.3935 26.4517C24.2999 27.1357 23.7167 27.6469 23.0183 27.6469Z" fill="#0048D8"/>
<path d="M20.066 21.1664H9.5972C9.1508 21.1664 8.8052 20.7632 8.8844 20.324L9.302 17.8472C9.4388 17.048 10.13 16.4648 10.9364 16.4648H20.9948C21.4844 16.4648 21.8588 16.8968 21.794 17.3792L21.434 19.9712C21.3476 20.6552 20.7644 21.1664 20.066 21.1664Z" fill="#0048D8"/>
<path d="M22.0824 13.5629H15.9624C15.516 13.5629 15.1704 13.1597 15.2496 12.7205L15.6672 10.2437C15.804 9.44453 16.4952 8.86133 17.3016 8.86133H23.0112C23.5008 8.86133 23.8752 9.29333 23.8104 9.77573L23.4504 12.3677C23.364 13.0517 22.7736 13.5629 22.0824 13.5629Z" fill="white"/>
<path d="M22.0392 26.6235H14.2056C13.7592 26.6235 13.4136 26.2203 13.4928 25.7811L13.9104 23.3043C14.0472 22.5051 14.7384 21.9219 15.5448 21.9219H22.968C23.4576 21.9219 23.832 22.3539 23.7672 22.8363L23.4072 25.4283C23.3208 26.1123 22.7304 26.6235 22.0392 26.6235Z" fill="white"/>
<path d="M19.0875 20.1371H8.61868C8.17228 20.1371 7.82668 19.7339 7.90588 19.2947L8.32348 16.8179C8.46028 16.0187 9.15148 15.4355 9.95788 15.4355H20.0163C20.5059 15.4355 20.8803 15.8675 20.8155 16.3499L20.4555 18.9419C20.3691 19.6259 19.7787 20.1371 19.0875 20.1371Z" fill="white"/>
</g>
<defs>
<clipPath id="clip0_1_15460">
<rect width="36" height="36" fill="white" transform="translate(0 0.279297)"/>
</clipPath>
</defs>
</svg>
