<svg width="36" height="37" viewBox="0 0 36 37" fill="none" xmlns="http://www.w3.org/2000/svg">
<g clip-path="url(#clip0_1_15459)">
<path d="M36 18.2793C36 28.2225 27.9432 36.2793 18 36.2793C8.0568 36.2793 0 28.2225 0 18.2793C0 8.3361 8.0568 0.279297 18 0.279297C27.9432 0.279297 36 8.3361 36 18.2793Z" fill="#F8931F"/>
<path d="M26.5175 16.018L25.9415 14.074L23.2127 14.7292L21.9095 10.3516L18.6695 11.1364L21.1391 19.4236L21.0887 19.4524L13.4855 12.382L10.2167 13.1668L11.5199 17.5444L8.76953 18.2068L9.34553 20.1508L12.0959 19.4884L12.4775 20.77L9.72713 21.4324L10.3031 23.3764L13.0535 22.714L14.0903 26.1988L17.3519 25.414L14.8895 17.1268L14.9399 17.098L22.5431 24.1684L25.7831 23.3836L24.7463 19.8988L27.4751 19.2436L26.8991 17.2996L24.1703 17.9548L23.7887 16.6732L26.5175 16.018Z" fill="white"/>
</g>
<defs>
<clipPath id="clip0_1_15459">
<rect width="36" height="36" fill="white" transform="translate(0 0.279297)"/>
</clipPath>
</defs>
</svg>
