<svg width="36" height="37" viewBox="0 0 36 37" fill="none" xmlns="http://www.w3.org/2000/svg">
<g clip-path="url(#clip0_1_15731)">
<path d="M18.0001 0.977697C21.5641 0.977697 24.9985 2.3169 27.4753 4.7937C30.0169 7.2777 31.4209 10.5177 31.4209 14.0169V35.5809H4.57926V14.0169C4.57926 10.5177 5.97606 7.2777 8.52486 4.7937C11.0017 2.3169 14.3713 0.977697 18.0001 0.977697ZM18.0001 0.279297C14.2489 0.279297 10.6849 1.6761 8.01366 4.2897C5.34246 6.9033 3.88086 10.3305 3.88086 14.0241V36.2793H32.1193V14.0169C32.1193 10.3305 30.6577 6.8961 27.9865 4.3473C25.3153 1.6761 21.7513 0.279297 18.0001 0.279297Z" fill="#070001"/>
<path d="M26.3087 6.07503L25.6751 5.44143C23.5727 3.59822 20.9015 2.64062 18.0431 2.64062C14.9255 2.64062 11.9375 3.85023 9.77754 6.07503C7.54554 8.29983 6.33594 11.2302 6.33594 14.3478V33.8094H29.7431V14.4054C29.7431 11.2302 28.4687 8.29983 26.3087 6.07503ZM22.6871 32.5998C21.6071 32.9814 20.3975 33.1758 19.1879 33.1758H10.7279V29.295C10.5335 29.1006 10.3463 28.8486 10.2167 28.6614C8.75514 26.7534 7.99194 24.399 7.99194 21.9798V14.6646C7.99194 11.799 9.07194 9.12783 10.9799 7.03263C11.2319 7.03263 11.5559 7.03263 11.8727 7.09742C13.8455 7.29183 16.5167 7.99022 18.8063 9.58143C20.8439 10.9782 23.3207 13.527 23.3207 17.6598V32.4126C23.1263 32.4702 22.9391 32.535 22.6871 32.5998Z" fill="#070001"/>
<path d="M18.8642 9.57419C16.5746 8.04779 13.9034 7.28459 11.9306 7.09019C11.6138 7.09019 11.297 7.02539 11.0378 7.02539C9.1298 9.12779 8.0498 11.799 8.0498 14.6574V21.9726C8.0498 24.3918 8.813 26.7462 10.2746 28.6542C10.469 28.8486 10.5914 29.1006 10.7858 29.2878V33.1686H19.2458C20.4554 33.1686 21.6002 32.9742 22.745 32.5926C22.997 32.5278 23.1914 32.463 23.4434 32.3406V17.5878C23.3858 13.455 20.9018 10.971 18.8642 9.57419ZM11.4266 32.4702V29.9862C12.5714 31.0662 13.9106 31.959 15.3722 32.4702H11.4266ZM22.6874 31.9014C21.6074 32.283 20.3978 32.4774 19.1882 32.4774C16.3874 32.4774 13.781 31.3974 11.7434 29.3598L11.3618 28.9782C11.1098 28.7262 10.8506 28.4022 10.6634 28.0854C9.3242 26.307 8.6258 24.1398 8.6258 21.915V14.6646C8.6258 12.123 9.5834 9.63899 11.2322 7.73099C15.6818 7.92539 22.6154 10.9782 22.6154 17.5878V31.9014C22.6226 31.9014 22.6874 31.9014 22.6874 31.9014Z" fill="#070001"/>
<path d="M15.3289 23.9669C15.1345 23.9669 14.9473 23.7725 14.9473 23.5853V17.0981C14.9473 15.3773 16.3441 13.9805 18.0649 13.9805C19.7857 13.9805 21.1825 15.3773 21.1825 17.0981C21.1825 17.2925 20.9881 17.4797 20.8009 17.4797C20.6137 17.4797 20.4193 17.2853 20.4193 17.0981C20.4193 15.8237 19.3393 14.7437 18.0649 14.7437C16.7905 14.7437 15.7105 15.8237 15.7105 17.0981V23.5853C15.7105 23.7725 15.5161 23.9669 15.3289 23.9669Z" fill="#070001"/>
<path d="M19.2093 18.9416C19.0149 18.9416 18.8277 18.7471 18.8277 18.5599C18.8277 18.1135 18.5109 17.7967 18.0645 17.7967C17.6181 17.7967 17.3013 18.1135 17.3013 18.5599C17.3013 18.7543 17.1069 18.9416 16.9197 18.9416C16.7325 18.9416 16.5381 18.7471 16.5381 18.5599C16.5381 17.6671 17.2365 16.9688 18.1293 16.9688C19.0221 16.9688 19.7205 17.6671 19.7205 18.5599C19.5909 18.7471 19.3965 18.9416 19.2093 18.9416Z" fill="#070001"/>
<path d="M15.329 23.9664C14.1842 23.9664 13.2266 23.0088 13.2266 21.864C13.2266 21.6696 13.421 21.4824 13.6082 21.4824C13.7954 21.4824 13.9898 21.6768 13.9898 21.864C13.9898 22.5624 14.5658 23.1384 15.2642 23.1384C15.9626 23.1384 16.5386 22.5624 16.5386 21.864C16.5386 21.6696 16.733 21.4824 16.9202 21.4824C17.1074 21.4824 17.3018 21.6768 17.3018 21.864C17.3594 23.0088 16.4738 23.9664 15.329 23.9664Z" fill="#070001"/>
<path d="M13.1035 19.5759C12.9739 19.5759 12.9091 19.5111 12.8515 19.4463L11.1307 17.7255V19.1871C11.1307 19.3815 10.9363 19.5687 10.7491 19.5687C10.5619 19.5687 10.3027 19.3743 10.3027 19.1223V16.7679C10.3027 16.5735 10.4323 16.4511 10.5547 16.3863C10.7491 16.3215 10.8715 16.3215 11.0011 16.4511L12.7219 18.1719V17.1567C12.7219 16.9623 12.9163 16.7751 13.1035 16.7751C13.2907 16.7751 13.4851 16.9695 13.4851 17.1567V19.1295C13.4851 19.3239 13.3555 19.4463 13.2331 19.5111C13.2259 19.5759 13.1611 19.5759 13.1035 19.5759Z" fill="#070001"/>
<path d="M15.2641 17.5449C15.0697 17.5449 14.8825 17.3505 14.8825 17.1633C14.8825 17.0985 14.8825 15.5073 13.8025 15.5073C13.6081 15.5073 13.4209 15.3129 13.4209 15.1257C13.4209 14.9313 13.6153 14.7441 13.8025 14.7441C15.2641 14.7441 15.6457 16.3353 15.6457 17.1633C15.6457 17.3505 15.4513 17.5449 15.2641 17.5449Z" fill="#070001"/>
</g>
<defs>
<clipPath id="clip0_1_15731">
<rect width="36" height="36" fill="white" transform="translate(0 0.279297)"/>
</clipPath>
</defs>
</svg>
