<svg width="36" height="37" viewBox="0 0 36 37" fill="none" xmlns="http://www.w3.org/2000/svg">
<g clip-path="url(#clip0_1_15458)">
<path d="M18.0004 36.0556C27.8183 36.0556 35.7772 28.0966 35.7772 18.2788C35.7772 8.4609 27.8183 0.501953 18.0004 0.501953C8.18258 0.501953 0.223633 8.4609 0.223633 18.2788C0.223633 28.0966 8.18258 36.0556 18.0004 36.0556Z" fill="#EC2032"/>
<path d="M15.5234 30.0231C15.6242 27.0567 15.725 24.2343 15.8258 21.3615C15.221 21.3615 14.6882 21.3615 14.0762 21.3615C14.3426 18.7767 14.5946 16.2351 14.861 13.6575C17.3162 13.2975 22.241 12.5703 22.241 12.5703L19.901 19.3887C19.901 19.3887 21.7298 19.2951 22.6226 19.2519C22.4498 19.7631 16.3442 29.0223 15.5234 30.0231Z" fill="white"/>
<path d="M17.6613 10.5101C17.9997 9.27885 17.5389 8.11965 16.4301 7.52205C16.4589 7.38525 16.6245 6.78765 16.7037 6.56445C17.4957 6.84525 18.0501 7.35645 18.4245 8.08365C18.7917 8.81085 18.8709 9.59565 18.8277 10.3805C19.9149 10.9565 22.0245 12.1085 22.0245 12.1085L14.8965 13.0877C14.8965 13.0877 16.7757 11.3093 17.6613 10.5101Z" fill="white"/>
</g>
<defs>
<clipPath id="clip0_1_15458">
<rect width="36" height="36" fill="white" transform="translate(0 0.279297)"/>
</clipPath>
</defs>
</svg>
