<svg width="36" height="37" viewBox="0 0 36 37" fill="none" xmlns="http://www.w3.org/2000/svg">
<g clip-path="url(#clip0_1_15457)">
<path d="M7.82659 23.377L5.13379 27.8194H10.1162C9.02179 26.5666 8.22979 25.0474 7.82659 23.377Z" fill="#66D5BB"/>
<path d="M25.877 27.8194H30.8594L28.1666 23.377C27.7634 25.0474 26.9714 26.5666 25.877 27.8194Z" fill="#66D5BB"/>
<path d="M17.993 10.4672C18.8642 10.4672 19.7066 10.5752 20.5202 10.7768L17.993 6.61523L15.4658 10.7768C16.2794 10.5752 17.1218 10.4672 17.993 10.4672Z" fill="#66D5BB"/>
<path d="M7.54554 21.0729C7.54554 21.0297 7.54554 20.9793 7.54554 20.9361C7.54554 16.8393 9.89274 13.2969 13.3055 11.5761L16.3943 6.47852C9.13674 7.28492 3.47754 13.4481 3.47754 20.9433C3.47754 22.7865 3.82314 24.5577 4.44954 26.1777L7.54554 21.0729Z" fill="#08192E"/>
<path d="M22.6868 11.5826C26.0996 13.3034 28.4468 16.8458 28.4468 20.9426C28.4468 20.9858 28.4468 21.0362 28.4468 21.0794L31.5428 26.1842C32.1692 24.5642 32.5148 22.793 32.5148 20.9498C32.5148 13.4546 26.8556 7.29139 19.5908 6.49219L22.6868 11.5826Z" fill="#08192E"/>
<path d="M24.5805 29.0801C22.7805 30.5417 20.4909 31.4201 17.9925 31.4201C15.4941 31.4201 13.2045 30.5417 11.4045 29.0801H5.9541C8.5605 32.9465 12.9813 35.4881 17.9925 35.4881C23.0037 35.4881 27.4245 32.9465 30.0309 29.0801H24.5805Z" fill="#08192E"/>
<path d="M16.4015 6.48483L17.9999 3.84963L19.5983 6.48483C20.2463 6.55683 20.8871 6.67203 21.5063 6.83043L17.9999 1.04883L14.4863 6.83043C15.1127 6.67203 15.7463 6.55683 16.4015 6.48483Z" fill="#66D5BB"/>
<path d="M28.75 30.7139H36.0004L32.1196 24.3203C31.9684 24.9539 31.774 25.5803 31.5436 26.1779L33.3004 29.0723H30.0388C29.65 29.6555 29.218 30.1955 28.75 30.7139Z" fill="#66D5BB"/>
<path d="M5.95476 29.0801H2.69316L4.44996 26.1857C4.21956 25.5881 4.02516 24.9617 3.87396 24.3281L-0.00683594 30.7217H7.24356C6.77556 30.1961 6.34356 29.6561 5.95476 29.0801Z" fill="#66D5BB"/>
</g>
<defs>
<clipPath id="clip0_1_15457">
<rect width="36" height="36" fill="white" transform="translate(0 0.279297)"/>
</clipPath>
</defs>
</svg>
