<svg width="36" height="37" viewBox="0 0 36 37" fill="none" xmlns="http://www.w3.org/2000/svg">
<g clip-path="url(#clip0_1_15456)">
<path d="M18.0716 35.9909C27.8775 35.9909 35.8268 28.0416 35.8268 18.2357C35.8268 8.42974 27.8775 0.480469 18.0716 0.480469C8.26568 0.480469 0.316406 8.42974 0.316406 18.2357C0.316406 28.0416 8.26568 35.9909 18.0716 35.9909Z" fill="url(#paint0_linear_1_15456)"/>
<path d="M9.39648 12.6915C13.1117 9.1347 18.5333 10.2075 21.1181 14.3115C17.7125 17.5659 11.9453 17.1915 9.39648 12.6915Z" fill="white"/>
<path d="M14.3353 18.8125C17.9857 23.1829 16.5745 28.2949 12.7513 30.5557C9.72729 27.7477 9.43209 22.1461 14.3353 18.8125Z" fill="white"/>
<path d="M17.5029 22.6711C17.7117 17.6167 22.3197 14.2255 26.9277 15.5719C26.9133 20.5327 22.2477 23.8591 17.5029 22.6711Z" fill="white"/>
<path d="M19.6987 5.21094C22.8451 6.26214 24.3499 10.0349 22.3771 13.0805C18.9139 11.8061 17.8483 7.86774 19.6987 5.21094Z" fill="white"/>
<path d="M13.0896 17.5954C11.664 21.2386 7.68237 22.0666 5.23438 20.2522C6.38637 17.0338 10.0296 15.7378 13.0896 17.5954Z" fill="white"/>
<path d="M17.4668 24.479C20.7932 22.9166 24.4004 24.9686 24.9116 28.0934C22.442 29.447 18.6044 28.475 17.4668 24.479Z" fill="white"/>
<path d="M13.1971 5.95343C15.9907 5.47103 17.8411 7.86143 17.6323 9.91343C15.4795 10.4102 13.0459 8.69663 13.1971 5.95343Z" fill="white"/>
<path d="M6.01968 26.8192C5.66688 25.8328 5.98368 24.94 6.45888 24.0976C7.09968 22.96 8.64768 22.204 9.89328 22.3552C10.4621 24.5584 8.85648 26.4448 6.01968 26.8192Z" fill="white"/>
<path d="M28.9942 23.0393C27.3742 25.0625 24.6814 25.1849 23.083 23.3345C24.523 21.2969 27.5038 21.1385 28.9942 23.0393Z" fill="white"/>
</g>
<defs>
<linearGradient id="paint0_linear_1_15456" x1="18.0696" y1="35.9893" x2="18.0696" y2="0.474997" gradientUnits="userSpaceOnUse">
<stop stop-color="#25346E"/>
<stop offset="1" stop-color="#6073B4"/>
</linearGradient>
<clipPath id="clip0_1_15456">
<rect width="36" height="36" fill="white" transform="translate(0 0.279297)"/>
</clipPath>
</defs>
</svg>
