<svg width="36" height="37" viewBox="0 0 36 37" fill="none" xmlns="http://www.w3.org/2000/svg">
<g clip-path="url(#clip0_1_15455)">
<path fill-rule="evenodd" clip-rule="evenodd" d="M18 36.5762C8.0568 36.5762 0 28.5194 0 18.5762C0 8.63297 8.0568 0.576172 18 0.576172C22.7736 0.576172 27.3528 2.46977 30.7296 5.84657L27.5472 9.02897C22.284 3.74417 13.7304 3.72977 8.4456 9.00017C3.1608 14.2706 3.1464 22.8242 8.4096 28.1018C13.6728 33.3794 22.2264 33.401 27.5112 28.1306C29.4984 26.1506 30.8232 23.5946 31.2912 20.8226H18V16.3226H35.8416C37.1448 26.1218 30.2544 35.1146 20.4624 36.4178C19.6416 36.5258 18.8208 36.5762 18 36.5762Z" fill="#111444"/>
</g>
<defs>
<clipPath id="clip0_1_15455">
<rect width="36" height="36" fill="white" transform="translate(0 0.576172)"/>
</clipPath>
</defs>
</svg>
