<svg width="36" height="37" viewBox="0 0 36 37" fill="none" xmlns="http://www.w3.org/2000/svg">
<g clip-path="url(#clip0_1_15453)">
<path d="M35.7476 36.3247C23.918 36.3247 12.0884 36.3247 0.258789 36.3247C0.258789 24.4951 0.258789 12.6655 0.258789 0.835938C12.0884 0.835938 23.918 0.835938 35.7476 0.835938C35.7476 12.6583 35.7476 24.4951 35.7476 36.3247ZM33.4076 18.5695C33.4076 16.6759 33.4004 14.7823 33.4148 12.8959C33.422 12.2623 33.206 11.8087 32.6804 11.4343C29.8076 9.35354 26.9492 7.25114 24.0836 5.16314C22.3196 3.86714 20.5484 2.57834 18.7844 1.28234C18.4532 1.03754 18.0932 0.929538 17.7044 1.02314C17.4668 1.08074 17.2436 1.21034 17.042 1.35434C14.5076 3.19754 11.9804 5.04794 9.44599 6.89834C7.35799 8.42474 5.27719 9.95834 3.18199 11.4775C2.74999 11.7871 2.51959 12.1759 2.50519 12.7015C2.50519 12.8023 2.50519 12.9103 2.50519 13.0111C2.50519 16.7191 2.50519 20.4343 2.50519 24.1423C2.50519 24.2719 2.50519 24.4087 2.51239 24.5383C2.54119 24.9919 2.74279 25.3447 3.11719 25.6183C7.77559 29.0167 12.434 32.4151 17.078 35.8279C17.6396 36.2383 18.3524 36.1951 18.8708 35.8135C23.4428 32.4511 28.022 29.1031 32.6156 25.7695C33.1772 25.3663 33.422 24.8911 33.4148 24.1999C33.3932 22.3279 33.4076 20.4487 33.4076 18.5695Z" fill="white"/>
<path d="M33.4083 18.5687C33.4083 20.4479 33.3939 22.3271 33.4155 24.1991C33.4227 24.8831 33.1779 25.3583 32.6163 25.7687C28.0227 29.1023 23.4435 32.4503 18.8715 35.8127C18.3531 36.1943 17.6331 36.2375 17.0787 35.8271C12.4347 32.4215 7.77626 29.0231 3.11786 25.6247C2.74346 25.3511 2.54186 24.9983 2.51306 24.5447C2.50586 24.4151 2.50586 24.2783 2.50586 24.1487C2.50586 20.4407 2.50586 16.7255 2.50586 13.0175C2.50586 12.9167 2.50586 12.8087 2.50586 12.7079C2.52026 12.1823 2.75066 11.7935 3.18266 11.4839C5.27786 9.96475 7.35866 8.43115 9.44666 6.90475C11.9739 5.05435 14.5083 3.20395 17.0427 1.36075C17.2443 1.21675 17.4675 1.07995 17.7051 1.02955C18.0939 0.935946 18.4539 1.04395 18.7851 1.28875C20.5491 2.58475 22.3131 3.87355 24.0843 5.16235C26.9499 7.25755 29.8083 9.35995 32.6811 11.4335C33.1995 11.8079 33.4227 12.2687 33.4155 12.8951C33.3939 14.7887 33.4083 16.6751 33.4083 18.5687ZM19.6275 7.07755C19.6275 8.46715 19.6275 9.80635 19.6275 11.1455C19.8723 11.1455 20.0811 11.1455 20.3403 11.1455C20.3403 10.2671 20.3403 9.42475 20.3403 8.58235C20.4843 8.67595 20.5635 8.77675 20.6283 8.88475C21.0099 9.48235 21.3915 10.0799 21.7731 10.6775C21.8595 10.8071 21.9315 10.9727 22.1331 10.8863C22.2483 10.2239 22.2267 10.1015 21.9027 9.58315C21.5067 8.95675 21.1107 8.33755 20.7147 7.71115C20.5707 7.48795 20.4267 7.27195 20.2971 7.07035C20.0595 7.07755 19.8579 7.07755 19.6275 7.07755ZM15.7827 22.2191C15.8259 22.1975 15.8619 22.1759 15.9051 22.1543C15.9339 21.8087 16.0275 21.4559 15.8331 21.1319C15.2571 20.2031 14.6667 19.2887 14.0619 18.3383C13.9323 18.3383 13.7955 18.3311 13.6659 18.3383C13.5795 18.3455 13.4931 18.3599 13.3851 18.3743C13.3851 19.7279 13.3851 21.0671 13.3851 22.4207C13.6299 22.4207 13.8531 22.4207 14.1123 22.4207C14.1123 21.5423 14.1123 20.7071 14.1123 19.8719C14.2707 19.9799 14.3643 20.1023 14.4507 20.2319C14.8035 20.7791 15.1419 21.3335 15.4947 21.8807C15.5667 22.0103 15.6819 22.1111 15.7827 22.2191ZM29.8803 21.5135C29.0019 22.0751 28.1595 22.6079 27.3171 23.1407C27.3171 23.3927 27.3171 23.6231 27.3171 23.8535C28.6851 23.8535 30.0171 23.8535 31.3563 23.8535C31.3563 23.6087 31.3563 23.3927 31.3563 23.1407C30.4779 23.1119 29.6211 23.1479 28.7715 23.0831C29.0523 22.8599 29.3403 22.6799 29.6211 22.4927C29.8947 22.3127 30.2043 22.1759 30.4419 21.9023C30.2547 21.7727 30.0891 21.6575 29.8803 21.5135ZM10.7643 26.7191C10.7643 26.9711 10.7643 27.1871 10.7643 27.3959C11.3115 27.4823 14.5299 27.4607 14.8323 27.3743C14.8323 27.1655 14.8323 26.9495 14.8323 26.6903C13.9467 26.6903 13.1043 26.6903 12.2619 26.6903C12.2547 26.6615 12.2475 26.6327 12.2403 26.6111C12.8019 26.2511 13.3563 25.8911 13.9683 25.5023C13.7163 25.3367 13.5291 25.2071 13.3347 25.0847C12.4563 25.6391 11.5995 26.1863 10.7643 26.7191ZM17.5611 23.9687C18.9507 23.9687 20.2827 23.9687 21.6363 23.9687C21.6363 23.7239 21.6363 23.5151 21.6363 23.2559C20.7579 23.2559 19.9155 23.2559 19.0659 23.2559C19.0587 23.2271 19.0515 23.1983 19.0443 23.1767C19.6059 22.8167 20.1675 22.4495 20.7795 22.0535C20.5347 21.8879 20.3475 21.7655 20.1531 21.6359C19.2675 22.1975 18.4107 22.7447 17.5611 23.2847C17.5611 23.5295 17.5611 23.7311 17.5611 23.9687ZM29.6427 17.5319C29.4699 17.6615 29.3331 17.7551 29.2683 17.8055C29.2683 18.1871 29.2683 18.4751 29.2683 18.7703C29.4987 18.7703 29.6931 18.7703 29.9019 18.7703C29.9235 18.5831 29.9451 18.4247 29.9667 18.2591C30.5067 18.2591 31.0251 18.2591 31.5867 18.2591C31.5867 19.2743 31.5867 20.2535 31.5867 21.2687C31.8387 21.2687 32.0475 21.2687 32.2779 21.2687C32.2779 20.1167 32.2779 19.0007 32.2779 17.8487C32.1771 17.7407 32.0691 17.6255 31.9899 17.5319C31.1547 17.5319 30.3843 17.5319 29.6427 17.5319ZM4.88186 21.7007C4.88186 21.4631 4.88186 21.2687 4.88186 21.0527C4.55066 21.0527 4.26266 21.0527 3.96746 21.0527C3.85226 21.1751 3.73706 21.2903 3.65066 21.3839C3.65066 22.1903 3.65066 22.9607 3.65066 23.7887C3.73706 23.8823 3.85226 23.9975 3.90986 24.0623C5.00426 24.0623 5.99786 24.0623 7.02026 24.0623C7.02026 23.8247 7.02026 23.6159 7.02026 23.3639C6.11306 23.3639 5.24906 23.3639 4.36346 23.3639C4.36346 22.8095 4.36346 22.2983 4.36346 21.7727C4.53626 21.7439 4.69466 21.7223 4.88186 21.7007ZM21.2115 15.5951C21.2115 16.4303 21.2115 17.2151 21.2115 17.9855C21.3195 18.1079 21.4203 18.2159 21.5067 18.3023C22.5507 18.3023 23.5587 18.3023 24.5811 18.3023C24.5811 18.0647 24.5811 17.8559 24.5811 17.6039C23.6739 17.6039 22.8099 17.6039 21.9171 17.6039C21.9027 17.0423 21.8955 16.5239 21.9171 16.0127C22.1331 15.9839 22.2843 15.9551 22.4427 15.9335C22.4427 15.7031 22.4427 15.5087 22.4427 15.2855C22.1187 15.2855 21.8307 15.2855 21.5139 15.2855C21.4131 15.3863 21.3123 15.4871 21.2115 15.5951ZM15.0987 12.0167C15.0987 12.3335 15.0987 12.6215 15.0987 12.9383C15.2067 13.0391 15.3219 13.1471 15.4155 13.2407C16.2291 13.2407 17.0139 13.2407 17.7987 13.2407C17.9211 13.1327 18.0435 13.0319 18.1371 12.9455C18.1227 11.8871 18.1659 10.8935 18.1083 9.88555C17.8635 9.88555 17.6691 9.88555 17.4243 9.88555C17.4243 10.7783 17.4243 11.6423 17.4243 12.5207C16.8555 12.5207 16.3371 12.5207 15.8115 12.5207C15.7827 12.3335 15.7611 12.1823 15.7395 12.0167C15.5235 12.0167 15.3219 12.0167 15.0987 12.0167ZM11.9235 19.5839C11.6283 18.5615 11.3547 17.6039 11.0883 16.6607C10.5987 16.6607 10.1811 16.6607 9.72026 16.6607C9.43946 17.6327 9.16586 18.5831 8.88506 19.5839C9.14426 19.5839 9.34586 19.5839 9.58346 19.5839C9.79946 18.8351 10.0083 18.0863 10.2243 17.3231C10.3755 17.3375 10.4835 17.3519 10.5987 17.3663C10.7067 17.7551 10.8147 18.1295 10.9155 18.4967C11.0163 18.8639 11.1243 19.2311 11.2251 19.5911C11.4699 19.5839 11.6571 19.5839 11.9235 19.5839ZM18.4467 19.4687C18.7707 19.4687 19.0587 19.4687 19.3683 19.4687C19.4691 19.3607 19.5843 19.2455 19.6779 19.1447C19.6779 18.3311 19.6779 17.5463 19.6779 16.7615C19.5699 16.6463 19.4691 16.5383 19.3971 16.4663C18.4755 16.3871 16.6251 16.4159 16.3227 16.5095C16.3227 16.7111 16.3227 16.9127 16.3227 17.1575C17.2227 17.1575 18.0867 17.1575 18.9579 17.1575C18.9579 17.7191 18.9579 18.2231 18.9579 18.7415C18.7707 18.7703 18.6195 18.7919 18.4467 18.8207C18.4467 19.0295 18.4467 19.2239 18.4467 19.4687ZM18.8067 31.0679C18.8067 30.2183 18.8067 29.4263 18.8067 28.6631C18.6915 28.5191 18.5979 28.4039 18.5403 28.3391C17.5251 28.2599 15.7467 28.2887 15.4299 28.3895C15.4299 28.5767 15.4299 28.7639 15.4299 29.0159C16.3227 29.0159 17.2011 29.0159 18.0939 29.0159C18.0939 29.5847 18.0939 30.0959 18.0939 30.6143C17.9067 30.6431 17.7339 30.6647 17.5827 30.6863C17.5827 30.9239 17.5827 31.1255 17.5827 31.3343C17.9067 31.3343 18.2019 31.3343 18.5115 31.3343C18.6123 31.2407 18.7203 31.1399 18.8067 31.0679ZM27.3603 14.0399C27.0795 13.0463 26.8059 12.0887 26.5323 11.1455C26.0427 11.1455 25.6107 11.1455 25.1499 11.1455C24.8763 12.1175 24.6027 13.0679 24.3291 14.0399C24.5955 14.0399 24.7971 14.0399 25.0203 14.0399C25.2291 13.2911 25.4379 12.5639 25.6467 11.8151C25.7907 11.8223 25.8987 11.8295 26.0355 11.8295C26.2515 12.5783 26.4603 13.3055 26.6619 14.0327C26.9139 14.0399 27.1155 14.0399 27.3603 14.0399ZM21.1107 25.1207C20.8299 26.1071 20.5275 27.0503 20.2899 28.0583C20.4555 28.0583 20.5635 28.0655 20.6643 28.0583C20.7651 28.0511 20.8659 28.0367 20.9811 28.0223C21.1899 27.2735 21.3987 26.5391 21.6075 25.7975C21.7443 25.7975 21.8523 25.7975 21.9819 25.7975C22.1979 26.5535 22.4139 27.3023 22.6227 28.0295C22.8747 28.0295 23.0763 28.0295 23.3139 28.0295C23.0259 27.0359 22.7523 26.0783 22.4787 25.1207C22.0107 25.1207 21.5859 25.1207 21.1107 25.1207ZM7.27226 14.1191C6.60266 14.0255 3.96746 14.0543 3.67226 14.1479C3.67226 14.3639 3.67226 14.5727 3.67226 14.8247C4.39226 14.8247 5.08346 14.8247 5.76746 14.8247C5.77466 14.8463 5.78186 14.8751 5.79626 14.8967C5.55866 15.0551 5.32826 15.2207 5.05466 15.4079C5.27066 15.5735 5.45066 15.7103 5.63786 15.8471C6.21386 15.4799 6.75386 15.1343 7.27226 14.8031C7.27226 14.5439 7.27226 14.3423 7.27226 14.1191ZM17.0643 4.13995C17.6331 4.13995 18.1515 4.13995 18.7203 4.13995C18.7203 4.78075 18.7203 5.39275 18.7203 6.01195C18.9651 6.01195 19.1667 6.01195 19.3899 6.01195C19.3899 5.24155 19.3899 4.49275 19.3899 3.73675C19.2891 3.62155 19.1883 3.49915 19.1235 3.41275C18.2595 3.41275 17.4819 3.41275 16.6827 3.41275C16.5675 3.52075 16.4523 3.62875 16.3875 3.68635C16.3875 4.06075 16.3875 4.34875 16.3875 4.62955C16.6251 4.62955 16.8267 4.62955 17.0283 4.62955C17.0427 4.45675 17.0499 4.31275 17.0643 4.13995ZM25.3371 24.1055C25.3371 23.3207 25.3371 22.5719 25.3371 21.8159C25.2291 21.7079 25.1211 21.6071 25.0203 21.5135C24.2139 21.5135 23.4147 21.5135 22.6011 21.5135C22.4931 21.6143 22.3923 21.7151 22.3131 21.7871C22.3131 22.1327 22.3131 22.4279 22.3131 22.7303C22.5507 22.7303 22.7595 22.7303 22.9683 22.7303C22.9971 22.5359 23.0115 22.3775 23.0403 22.2119C23.5731 22.2119 24.0843 22.2119 24.6459 22.2119C24.6459 22.8455 24.6459 23.4575 24.6459 24.1055C24.8835 24.1055 25.0851 24.1055 25.3371 24.1055ZM23.3571 28.8359C22.4859 29.3903 21.6147 29.9447 20.7723 30.4775C20.7723 30.7367 20.7723 30.9455 20.7723 31.1687C21.5211 31.1687 22.2267 31.1687 22.9467 31.1687C22.9467 30.9239 22.9467 30.7079 22.9467 30.4847C22.6947 30.4703 22.4715 30.4559 22.1547 30.4343C22.8027 30.0167 23.3643 29.6495 23.9691 29.2607C23.7387 29.1023 23.5587 28.9799 23.3571 28.8359ZM9.47546 9.55435C9.70586 9.72715 9.88586 9.85675 10.0731 10.0007C10.8579 9.50395 11.6283 9.02155 12.3699 8.55355C12.3699 8.30155 12.3699 8.09995 12.3699 7.87675C11.6499 7.87675 10.9515 7.87675 10.2531 7.87675C10.2531 8.12155 10.2531 8.33755 10.2531 8.55355C10.4835 8.57515 10.6707 8.58955 10.9515 8.61835C10.4187 8.94955 9.97946 9.23035 9.47546 9.55435ZM25.9563 28.9223C26.0715 28.7711 26.1507 28.6703 26.2227 28.5623C26.4315 28.2455 26.6187 27.8999 26.8563 27.6047C27.2235 27.1511 27.1227 26.6615 27.0291 26.1503C26.6835 26.6687 26.3379 27.1943 25.9707 27.7487C25.5963 27.1727 25.2507 26.6543 24.9051 26.1287C24.8691 26.1359 24.8403 26.1503 24.8043 26.1575C24.8187 26.5175 24.7323 26.9279 24.8763 27.2231C25.1571 27.8135 25.5675 28.3319 25.9563 28.9223ZM14.0331 11.7719C14.3499 11.2895 14.6091 10.8431 14.9187 10.4399C15.2859 9.97195 15.1923 9.46795 15.1635 8.85595C14.7603 9.46795 14.4075 10.0007 14.0331 10.5767C13.6443 9.99355 13.2915 9.46795 12.9387 8.93515C12.9027 8.94955 12.8739 8.96395 12.8379 8.97835C12.8667 9.33835 12.7875 9.75595 12.9387 10.0583C13.2339 10.6487 13.6443 11.1815 14.0331 11.7719ZM9.69146 24.4223C9.30986 23.8535 8.95706 23.3279 8.60426 22.7951C8.58266 22.8095 8.56106 22.8167 8.54666 22.8311C8.54666 23.1839 8.54666 23.5295 8.54666 23.8823C8.92106 24.4511 9.29546 25.0127 9.69146 25.6175C10.0947 24.9983 10.4691 24.4295 10.8147 23.9111C10.8147 23.5151 10.8147 23.1767 10.8147 22.7303C10.4115 23.3351 10.0659 23.8607 9.69146 24.4223ZM8.72666 14.6591C9.36026 15.0767 9.93626 15.4511 10.4475 15.7895C10.8579 15.7895 11.1963 15.7895 11.6211 15.7895C11.0163 15.3863 10.4835 15.0335 9.91466 14.6591C10.4907 14.2775 11.0163 13.9319 11.6211 13.5287C10.9587 13.4855 10.4187 13.4351 9.93626 13.8455C9.59066 14.1479 9.17306 14.3639 8.72666 14.6591ZM14.0547 15.4799C14.7675 15.5663 16.8699 15.5375 17.1651 15.4439C17.1651 15.2279 17.1651 15.0191 17.1651 14.8175C16.4451 14.7383 14.3643 14.7671 14.0547 14.8607C14.0547 15.0551 14.0547 15.2567 14.0547 15.4799ZM8.75546 11.4911C7.67546 11.5127 6.64586 11.4551 5.60906 11.5271C5.60906 11.7863 5.60906 11.9879 5.60906 12.2183C6.66746 12.2183 7.70426 12.2183 8.75546 12.2183C8.75546 11.9807 8.75546 11.7791 8.75546 11.4911ZM27.0579 16.3007C28.0947 16.3007 29.1171 16.3007 30.1539 16.3007C30.1539 16.0559 30.1539 15.8327 30.1539 15.6023C29.1027 15.6023 28.0947 15.6023 27.0579 15.6023C27.0579 15.8399 27.0579 16.0487 27.0579 16.3007ZM27.0075 8.94235C25.8411 8.94235 24.7251 8.94235 23.5803 8.94235C23.5803 9.17995 23.5803 9.38875 23.5803 9.59035C24.2859 9.67675 26.6907 9.64795 27.0075 9.54715C27.0075 9.36715 27.0075 9.17995 27.0075 8.94235ZM11.8299 30.3191C12.5139 30.3983 14.3931 30.3767 14.7099 30.2831C14.7099 30.0815 14.7099 29.8799 14.7099 29.6351C13.7451 29.6063 12.7947 29.6063 11.8299 29.6279C11.8299 29.8943 11.8299 30.0959 11.8299 30.3191ZM15.2427 7.83355C15.2427 6.77515 15.2427 5.74555 15.2427 4.70155C15.0051 4.70155 14.7891 4.70155 14.5587 4.70155C14.5587 5.75995 14.5587 6.78235 14.5587 7.83355C14.7891 7.83355 14.9907 7.83355 15.2427 7.83355ZM8.41706 21.4991C9.48266 21.4991 10.4907 21.4991 11.5131 21.4991C11.5131 21.2543 11.5131 21.0455 11.5131 20.8151C10.4691 20.8151 9.46106 20.8151 8.41706 20.8151C8.41706 21.0527 8.41706 21.2615 8.41706 21.4991ZM16.0851 24.5519C16.0851 25.4735 16.0491 26.3591 16.1067 27.2375C16.3731 27.2375 16.5819 27.2375 16.7979 27.2375C16.7979 26.3231 16.7979 25.4519 16.7979 24.5519C16.5675 24.5519 16.3659 24.5519 16.0851 24.5519ZM27.0075 22.3271C27.0075 21.4775 27.0075 20.6639 27.0075 19.8359C26.7627 19.8359 26.5467 19.8359 26.3163 19.8359C26.3163 20.6783 26.3163 21.4919 26.3163 22.3271C26.5611 22.3271 26.7771 22.3271 27.0075 22.3271ZM28.6275 12.8519C28.8795 12.8519 29.1027 12.8519 29.3259 12.8519C29.3259 12.0743 29.3259 11.3471 29.3259 10.5839C29.0883 10.5839 28.8723 10.5839 28.6275 10.5839C28.6275 11.3543 28.6275 12.0959 28.6275 12.8519ZM7.02746 17.6039C7.02746 18.3887 7.02746 19.1159 7.02746 19.8647C7.27946 19.8647 7.50266 19.8647 7.72586 19.8647C7.72586 19.0943 7.72586 18.3671 7.72586 17.6039C7.48106 17.6039 7.27226 17.6039 7.02746 17.6039ZM20.3475 14.9399C20.3475 14.1551 20.3475 13.4207 20.3475 12.6647C20.1171 12.6647 19.9155 12.6647 19.6923 12.6647C19.6923 13.4351 19.6923 14.1767 19.6923 14.9399C19.9155 14.9399 20.1099 14.9399 20.3475 14.9399ZM25.5315 19.7423C24.7683 19.7423 24.0555 19.7423 23.3283 19.7423C23.3283 19.9871 23.3283 20.1959 23.3283 20.4191C24.0771 20.4191 24.7899 20.4191 25.5243 20.4191C25.5387 20.3039 25.5531 20.2175 25.5531 20.1311C25.5459 20.0087 25.5387 19.8935 25.5315 19.7423ZM22.8819 5.86795C22.4211 5.78155 21.2691 5.78875 20.9379 5.88235C20.9379 6.09115 20.9379 6.30715 20.9379 6.56635C21.6003 6.57355 22.2339 6.58075 22.8819 6.55915C22.8819 6.28555 22.8819 6.07675 22.8819 5.86795ZM7.65386 26.7623C7.65386 27.0215 7.65386 27.2375 7.65386 27.4463C8.29466 27.4463 8.89226 27.4463 9.51146 27.4463C9.51146 27.2087 9.51146 26.9927 9.51146 26.7623C8.87786 26.7623 8.27306 26.7623 7.65386 26.7623ZM18.2739 34.5959C18.3747 34.0847 18.3531 33.2711 18.2523 32.9831C18.0363 32.9831 17.8275 32.9831 17.6187 32.9831C17.6187 33.5375 17.6187 34.0559 17.6187 34.5959C17.8419 34.5959 18.0435 34.5959 18.2739 34.5959ZM16.5963 18.8783C16.5027 19.4471 16.5243 20.3543 16.6467 20.6783C16.8411 20.6711 17.0571 20.6567 17.2515 20.6495C17.2515 20.0303 17.2515 19.4687 17.2515 18.8855C17.0211 18.8783 16.8267 18.8783 16.5963 18.8783ZM12.3915 17.1647C12.9891 17.1503 13.5579 17.1935 14.1339 17.1359C14.1339 16.8911 14.1339 16.6895 14.1339 16.4663C13.5435 16.4663 12.9747 16.4663 12.3915 16.4663C12.3915 16.7039 12.3915 16.9199 12.3915 17.1647ZM14.4147 31.4711C14.7171 32.0039 14.9907 32.4863 15.2499 32.9399C15.5163 32.9399 15.7251 32.9399 16.0347 32.9399C15.7467 32.4071 15.4875 31.9391 15.2283 31.4711C14.9763 31.4711 14.7387 31.4711 14.4147 31.4711ZM17.6763 6.22075C17.4027 6.22075 17.1651 6.22075 16.8627 6.22075C17.1651 6.75355 17.4315 7.22155 17.7051 7.69675C17.9643 7.68235 18.1803 7.66795 18.4755 7.65355C18.1803 7.11355 17.9211 6.65275 17.6763 6.22075ZM19.5339 26.7191C19.2963 26.1719 19.0083 25.7183 18.7491 25.2719C18.4755 25.2719 18.2451 25.2719 17.9427 25.2719C18.2379 25.7975 18.5043 26.2655 18.7635 26.7191C19.0227 26.7191 19.2387 26.7191 19.5339 26.7191ZM30.3411 12.0527C30.6507 12.5999 30.9171 13.0607 31.1691 13.5071C31.4355 13.5071 31.6587 13.5071 31.9611 13.5071C31.6587 12.9743 31.3995 12.5063 31.1475 12.0527C30.8811 12.0527 30.6651 12.0527 30.3411 12.0527ZM11.9163 13.2119C12.1539 13.2119 12.3627 13.2119 12.5715 13.2119C12.5715 12.6431 12.5715 12.1103 12.5715 11.5775C12.3339 11.5775 12.1395 11.5775 11.9163 11.5775C11.9163 12.1247 11.9163 12.6503 11.9163 13.2119ZM20.9955 19.6847C20.9955 19.9367 20.9955 20.1599 20.9955 20.3831C21.2403 20.3831 21.4347 20.3831 21.6507 20.3831C21.6507 20.1311 21.6507 19.9079 21.6507 19.6847C21.4131 19.6847 21.2115 19.6847 20.9955 19.6847ZM9.28826 11.5271C9.28826 11.7575 9.28826 11.9807 9.28826 12.2255C9.51866 12.2255 9.73466 12.2255 9.95786 12.2255C9.95786 11.9807 9.95786 11.7647 9.95786 11.5271C9.72746 11.5271 9.52586 11.5271 9.28826 11.5271ZM19.7067 20.3255C19.7067 20.5775 19.7067 20.8007 19.7067 21.0095C19.9443 21.0095 20.1459 21.0095 20.3403 21.0095C20.3403 20.7575 20.3403 20.5487 20.3403 20.3255C20.1099 20.3255 19.9155 20.3255 19.7067 20.3255ZM12.7155 24.1487C12.9747 24.1487 13.1907 24.1487 13.4067 24.1487C13.4067 23.9039 13.4067 23.6951 13.4067 23.4791C13.1547 23.4791 12.9459 23.4791 12.7155 23.4791C12.7155 23.7095 12.7155 23.9111 12.7155 24.1487ZM25.3443 16.3007C25.3443 16.0415 25.3443 15.8327 25.3443 15.6023C25.0995 15.6023 24.8907 15.6023 24.6675 15.6023C24.6675 15.8471 24.6675 16.0631 24.6675 16.3007C24.9051 16.3007 25.0995 16.3007 25.3443 16.3007ZM28.6419 13.9967C28.6419 14.2415 28.6419 14.4647 28.6419 14.6951C28.8867 14.6951 29.1027 14.6951 29.3547 14.6951C29.3403 14.4359 29.3331 14.2199 29.3259 13.9967C29.0667 13.9967 28.8723 13.9967 28.6419 13.9967ZM22.5435 7.65355C22.5435 7.90555 22.5435 8.10715 22.5435 8.31595C22.7883 8.31595 22.9971 8.31595 23.2275 8.31595C23.2275 8.08555 23.2275 7.88395 23.2275 7.65355C22.9899 7.65355 22.7811 7.65355 22.5435 7.65355ZM4.71626 18.8927C4.98266 18.8927 5.19146 18.8927 5.40026 18.8927C5.40026 18.6551 5.40026 18.4607 5.40026 18.2447C5.15546 18.2447 4.94666 18.2447 4.71626 18.2447C4.71626 18.4751 4.71626 18.6767 4.71626 18.8927ZM16.4451 8.13595C16.4451 8.39515 16.4451 8.61115 16.4451 8.81275C16.6899 8.81275 16.8987 8.81275 17.1003 8.81275C17.1003 8.56795 17.1003 8.35915 17.1003 8.13595C16.8627 8.13595 16.6683 8.13595 16.4451 8.13595ZM18.6051 14.8103C18.3675 14.8103 18.1587 14.8103 17.9211 14.8103C17.9211 15.0407 17.9211 15.2495 17.9211 15.4655C18.1659 15.4655 18.3891 15.4655 18.6051 15.4655C18.6051 15.2279 18.6051 15.0263 18.6051 14.8103ZM28.0371 26.2439C28.3035 26.2439 28.5123 26.2439 28.7139 26.2439C28.7139 25.9991 28.7139 25.7903 28.7139 25.5455C28.4619 25.5599 28.2531 25.5671 28.0371 25.5743C28.0371 25.8263 28.0371 26.0207 28.0371 26.2439ZM22.1619 13.5719C22.4139 13.5719 22.6155 13.5719 22.8315 13.5719C22.8315 13.3343 22.8315 13.1183 22.8315 12.9023C22.5939 12.9023 22.3779 12.9023 22.1619 12.9023C22.1619 13.1399 22.1619 13.3415 22.1619 13.5719ZM10.4907 28.5983C10.4907 28.8503 10.4907 29.0591 10.4907 29.2823C10.7355 29.2823 10.9443 29.2823 11.1675 29.2823C11.1675 29.0375 11.1675 28.8287 11.1675 28.5983C10.9371 28.5983 10.7355 28.5983 10.4907 28.5983ZM19.2747 32.2559C19.2747 32.5007 19.2747 32.7095 19.2747 32.9183C19.5195 32.9183 19.7283 32.9183 19.9299 32.9183C19.9299 32.6807 19.9299 32.4791 19.9299 32.2559C19.7139 32.2559 19.5123 32.2559 19.2747 32.2559Z" fill="black"/>
<path d="M19.627 7.07812C19.8502 7.07812 20.0518 7.07812 20.2966 7.07812C20.4262 7.27972 20.5702 7.49572 20.7142 7.71892C21.1102 8.33812 21.5062 8.96452 21.9022 9.59092C22.2262 10.1021 22.2478 10.2245 22.1326 10.8941C21.9238 10.9733 21.8518 10.8149 21.7726 10.6853C21.391 10.0877 21.0094 9.49012 20.6278 8.89252C20.5558 8.78452 20.4838 8.68372 20.3398 8.59012C20.3398 9.43252 20.3398 10.2749 20.3398 11.1533C20.0806 11.1533 19.8718 11.1533 19.627 11.1533C19.627 9.80692 19.627 8.47492 19.627 7.07812Z" fill="white"/>
<path d="M15.7827 22.2186C15.6819 22.1106 15.5667 22.0098 15.4875 21.8874C15.1347 21.3402 14.7891 20.793 14.4435 20.2386C14.3571 20.109 14.2635 19.9794 14.1051 19.8786C14.1051 20.7138 14.1051 21.549 14.1051 22.4274C13.8459 22.4274 13.6227 22.4274 13.3779 22.4274C13.3779 21.0738 13.3779 19.7346 13.3779 18.381C13.4859 18.3666 13.5723 18.345 13.6587 18.345C13.7883 18.3378 13.9179 18.345 14.0547 18.345C14.6595 19.2954 15.2499 20.2098 15.8259 21.1386C16.0275 21.4626 15.9267 21.8154 15.8979 22.161C15.8619 22.1754 15.8187 22.197 15.7827 22.2186Z" fill="white"/>
<path d="M29.8796 21.5137C30.0812 21.6577 30.2468 21.7729 30.4412 21.9097C30.2036 22.1905 29.894 22.3201 29.6204 22.5001C29.3396 22.6873 29.0516 22.8673 28.7708 23.0905C29.6276 23.1553 30.4772 23.1193 31.3556 23.1481C31.3556 23.4001 31.3556 23.6089 31.3556 23.8609C30.0164 23.8609 28.6772 23.8609 27.3164 23.8609C27.3164 23.6305 27.3164 23.4001 27.3164 23.1481C28.1588 22.6081 29.0012 22.0753 29.8796 21.5137Z" fill="white"/>
<path d="M10.7637 26.7197C11.5989 26.1869 12.4557 25.6397 13.3413 25.0781C13.5357 25.2077 13.7229 25.3301 13.9749 25.4957C13.3629 25.8845 12.8085 26.2445 12.2469 26.6045C12.2541 26.6333 12.2613 26.6621 12.2685 26.6837C13.1109 26.6837 13.9605 26.6837 14.8389 26.6837C14.8389 26.9429 14.8389 27.1517 14.8389 27.3677C14.5365 27.4541 11.3181 27.4829 10.7709 27.3893C10.7637 27.1877 10.7637 26.9717 10.7637 26.7197Z" fill="white"/>
<path d="M17.5605 23.9695C17.5605 23.7247 17.5605 23.5231 17.5605 23.2855C18.4101 22.7455 19.2669 22.1983 20.1525 21.6367C20.3469 21.7663 20.5341 21.8959 20.7789 22.0543C20.1669 22.4503 19.6053 22.8103 19.0437 23.1775C19.0509 23.2063 19.0581 23.2351 19.0653 23.2567C19.9077 23.2567 20.7573 23.2567 21.6357 23.2567C21.6357 23.5087 21.6357 23.7247 21.6357 23.9695C20.2821 23.9695 18.9429 23.9695 17.5605 23.9695Z" fill="white"/>
<path d="M29.6423 17.5312C30.3911 17.5312 31.1543 17.5312 31.9823 17.5312C32.0687 17.6248 32.1767 17.74 32.2703 17.848C32.2703 18.9928 32.2703 20.116 32.2703 21.268C32.0399 21.268 31.8311 21.268 31.5791 21.268C31.5791 20.26 31.5791 19.2737 31.5791 18.2585C31.0247 18.2585 30.4991 18.2585 29.9591 18.2585C29.9375 18.4241 29.9231 18.5824 29.8943 18.7696C29.6855 18.7696 29.4839 18.7696 29.2607 18.7696C29.2607 18.4744 29.2607 18.1865 29.2607 17.8049C29.3327 17.7545 29.4623 17.6608 29.6423 17.5312Z" fill="white"/>
<path d="M4.88159 21.7001C4.69439 21.7217 4.53599 21.7433 4.36319 21.7649C4.36319 22.2905 4.36319 22.8017 4.36319 23.3561C5.24879 23.3561 6.11279 23.3561 7.01999 23.3561C7.01999 23.6081 7.01999 23.8169 7.01999 24.0545C6.00479 24.0545 5.00399 24.0545 3.90959 24.0545C3.84479 23.9897 3.73679 23.8745 3.65039 23.7809C3.65039 22.9529 3.65039 22.1897 3.65039 21.3761C3.73679 21.2825 3.85199 21.1673 3.96719 21.0449C4.26239 21.0449 4.55759 21.0449 4.88159 21.0449C4.88159 21.2609 4.88159 21.4625 4.88159 21.7001Z" fill="white"/>
<path d="M21.2109 15.5954C21.3117 15.4946 21.4197 15.3866 21.5133 15.293C21.8301 15.293 22.1181 15.293 22.4421 15.293C22.4421 15.509 22.4421 15.7106 22.4421 15.941C22.2837 15.9626 22.1325 15.9842 21.9165 16.0202C21.8949 16.5314 21.9021 17.0498 21.9165 17.6114C22.8093 17.6114 23.6733 17.6114 24.5805 17.6114C24.5805 17.8634 24.5805 18.0722 24.5805 18.3098C23.5581 18.3098 22.5501 18.3098 21.5061 18.3098C21.4197 18.2162 21.3261 18.1082 21.2109 17.993C21.2109 17.2154 21.2109 16.4306 21.2109 15.5954Z" fill="white"/>
<path d="M15.0986 12.0179C15.3218 12.0179 15.5234 12.0179 15.7466 12.0179C15.7682 12.1835 15.7898 12.3347 15.8186 12.5219C16.3442 12.5219 16.8626 12.5219 17.4314 12.5219C17.4314 11.6435 17.4314 10.7795 17.4314 9.88672C17.6762 9.88672 17.8706 9.88672 18.1154 9.88672C18.173 10.8875 18.1298 11.8883 18.1442 12.9467C18.0506 13.0331 17.9282 13.1339 17.8058 13.2419C17.021 13.2419 16.2362 13.2419 15.4226 13.2419C15.3218 13.1483 15.2066 13.0403 15.1058 12.9395C15.0986 12.6227 15.0986 12.3347 15.0986 12.0179Z" fill="white"/>
<path d="M11.9232 19.5847C11.6568 19.5847 11.4624 19.5847 11.2248 19.5847C11.124 19.2247 11.016 18.8575 10.9152 18.4903C10.8072 18.1231 10.7064 17.7559 10.5984 17.3599C10.4832 17.3455 10.368 17.3383 10.224 17.3167C10.008 18.0799 9.79917 18.8215 9.58317 19.5775C9.35277 19.5775 9.15117 19.5775 8.88477 19.5775C9.17277 18.5839 9.44637 17.6263 9.71997 16.6543C10.1808 16.6543 10.5984 16.6543 11.088 16.6543C11.3616 17.6047 11.6352 18.5623 11.9232 19.5847Z" fill="white"/>
<path d="M18.4463 19.4682C18.4463 19.2234 18.4463 19.029 18.4463 18.8202C18.6191 18.7914 18.7703 18.7698 18.9575 18.741C18.9575 18.2298 18.9575 17.7186 18.9575 17.157C18.0863 17.157 17.2223 17.157 16.3223 17.157C16.3223 16.9122 16.3223 16.7106 16.3223 16.509C16.6247 16.4226 18.4751 16.3866 19.3967 16.4658C19.4687 16.545 19.5695 16.653 19.6775 16.761C19.6775 17.5458 19.6775 18.3234 19.6775 19.1442C19.5839 19.2378 19.4759 19.3602 19.3679 19.4682C19.0583 19.4682 18.7631 19.4682 18.4463 19.4682Z" fill="white"/>
<path d="M18.8065 31.0685C18.7273 31.1405 18.6193 31.2413 18.5113 31.3349C18.2017 31.3349 17.9137 31.3349 17.5825 31.3349C17.5825 31.1189 17.5825 30.9245 17.5825 30.6869C17.7337 30.6653 17.8993 30.6437 18.0937 30.6149C18.0937 30.0965 18.0937 29.5853 18.0937 29.0165C17.2009 29.0165 16.3297 29.0165 15.4297 29.0165C15.4297 28.7645 15.4297 28.5773 15.4297 28.3901C15.7465 28.2893 17.5249 28.2533 18.5401 28.3397C18.5977 28.4117 18.6913 28.5197 18.8065 28.6637C18.8065 29.4269 18.8065 30.2189 18.8065 31.0685Z" fill="white"/>
<path d="M27.3599 14.0395C27.1079 14.0395 26.9135 14.0395 26.6687 14.0395C26.4599 13.3195 26.2511 12.5851 26.0423 11.8363C25.9127 11.8291 25.7975 11.8291 25.6535 11.8219C25.4447 12.5707 25.2359 13.2979 25.0271 14.0467C24.8039 14.0467 24.6023 14.0467 24.3359 14.0467C24.6095 13.0747 24.8831 12.1171 25.1567 11.1523C25.6175 11.1523 26.0495 11.1523 26.5391 11.1523C26.8055 12.0883 27.0791 13.0459 27.3599 14.0395Z" fill="white"/>
<path d="M21.1108 25.1211C21.586 25.1211 22.0036 25.1211 22.4788 25.1211C22.7524 26.0787 23.026 27.0363 23.314 28.0299C23.0764 28.0299 22.882 28.0299 22.6228 28.0299C22.414 27.3027 22.198 26.5611 21.982 25.7979C21.8524 25.7979 21.7444 25.7979 21.6076 25.7979C21.3988 26.5395 21.19 27.2739 20.9812 28.0227C20.866 28.0371 20.7652 28.0515 20.6644 28.0587C20.5636 28.0659 20.4628 28.0587 20.29 28.0587C20.5276 27.0507 20.83 26.1075 21.1108 25.1211Z" fill="white"/>
<path d="M7.27187 14.1199C7.27187 14.3431 7.27187 14.5447 7.27187 14.8039C6.75347 15.1351 6.21348 15.4807 5.63748 15.8479C5.45028 15.7111 5.27027 15.5743 5.05427 15.4087C5.32787 15.2215 5.55827 15.0631 5.79587 14.8975C5.78867 14.8759 5.78147 14.8471 5.76707 14.8255C5.07587 14.8255 4.39187 14.8255 3.67188 14.8255C3.67188 14.5735 3.67188 14.3647 3.67188 14.1487C3.96707 14.0551 6.60227 14.0263 7.27187 14.1199Z" fill="white"/>
<path d="M17.0639 4.13992C17.0495 4.31272 17.0351 4.45672 17.0207 4.63672C16.8191 4.63672 16.6175 4.63672 16.3799 4.63672C16.3799 4.34872 16.3799 4.06792 16.3799 3.69352C16.4447 3.63592 16.5671 3.52792 16.6751 3.41992C17.4743 3.41992 18.2519 3.41992 19.1159 3.41992C19.1807 3.49912 19.2887 3.62152 19.3823 3.74392C19.3823 4.49992 19.3823 5.24872 19.3823 6.01912C19.1591 6.01912 18.9575 6.01912 18.7127 6.01912C18.7127 5.39992 18.7127 4.78792 18.7127 4.14712C18.1583 4.13992 17.6327 4.13992 17.0639 4.13992Z" fill="white"/>
<path d="M25.3369 24.1057C25.0849 24.1057 24.8833 24.1057 24.6385 24.1057C24.6385 23.4649 24.6385 22.8529 24.6385 22.2121C24.0841 22.2121 23.5729 22.2121 23.0329 22.2121C23.0113 22.3777 22.9897 22.5361 22.9609 22.7305C22.7521 22.7305 22.5433 22.7305 22.3057 22.7305C22.3057 22.4281 22.3057 22.1329 22.3057 21.7873C22.3849 21.7153 22.4857 21.6145 22.5937 21.5137C23.4073 21.5137 24.1993 21.5137 25.0129 21.5137C25.1137 21.6073 25.2217 21.7153 25.3297 21.8161C25.3369 22.5721 25.3369 23.3209 25.3369 24.1057Z" fill="white"/>
<path d="M23.3573 28.8359C23.5589 28.9799 23.7389 29.1023 23.9693 29.2607C23.3645 29.6495 22.8029 30.0095 22.1549 30.4343C22.4789 30.4559 22.6949 30.4703 22.9469 30.4847C22.9469 30.7079 22.9469 30.9239 22.9469 31.1687C22.2269 31.1687 21.5213 31.1687 20.7725 31.1687C20.7725 30.9527 20.7725 30.7367 20.7725 30.4775C21.6221 29.9447 22.4861 29.3975 23.3573 28.8359Z" fill="white"/>
<path d="M9.47559 9.55455C9.97959 9.23775 10.4188 8.94975 10.9516 8.61855C10.6708 8.58975 10.4764 8.57535 10.2532 8.55375C10.2532 8.33775 10.2532 8.12895 10.2532 7.87695C10.9516 7.87695 11.6428 7.87695 12.37 7.87695C12.37 8.09295 12.37 8.29455 12.37 8.55375C11.6284 9.02175 10.8652 9.50415 10.0732 10.001C9.87879 9.85695 9.70599 9.72735 9.47559 9.55455Z" fill="white"/>
<path d="M25.9558 28.9225C25.5742 28.3321 25.1566 27.8065 24.8758 27.2233C24.7318 26.9281 24.8182 26.5177 24.8038 26.1577C24.8398 26.1505 24.8686 26.1361 24.9046 26.1289C25.2502 26.6545 25.5958 27.1729 25.9702 27.7489C26.3374 27.1945 26.683 26.6761 27.0286 26.1505C27.1222 26.6617 27.223 27.1585 26.8558 27.6049C26.611 27.9001 26.431 28.2457 26.2222 28.5625C26.1502 28.6777 26.0638 28.7713 25.9558 28.9225Z" fill="white"/>
<path d="M14.0327 11.7715C13.6439 11.1739 13.2335 10.6483 12.9455 10.0579C12.7943 9.75547 12.8735 9.34507 12.8447 8.97787C12.8807 8.96347 12.9095 8.94907 12.9455 8.93467C13.2983 9.46747 13.6511 9.99307 14.0399 10.5763C14.4143 10.0003 14.7671 9.46747 15.1703 8.85547C15.1991 9.46027 15.2927 9.97147 14.9255 10.4395C14.6087 10.8427 14.3495 11.2963 14.0327 11.7715Z" fill="white"/>
<path d="M9.69168 24.4225C10.0661 23.8609 10.4117 23.3353 10.8149 22.7305C10.8149 23.1769 10.8149 23.5153 10.8149 23.9113C10.4693 24.4369 10.1021 24.9985 9.69168 25.6177C9.29568 25.0129 8.92127 24.4513 8.54688 23.8825C8.54688 23.5369 8.54688 23.1841 8.54688 22.8313C8.56848 22.8169 8.59008 22.8097 8.60448 22.7953C8.95728 23.3281 9.31008 23.8537 9.69168 24.4225Z" fill="white"/>
<path d="M8.72656 14.6589C9.17296 14.3709 9.59776 14.1477 9.94336 13.8525C10.4258 13.4349 10.9658 13.4925 11.6282 13.5357C11.0234 13.9317 10.4978 14.2773 9.92176 14.6661C10.4906 15.0405 11.0162 15.3933 11.6282 15.7965C11.2034 15.7965 10.865 15.7965 10.4546 15.7965C9.92896 15.4509 9.36016 15.0693 8.72656 14.6589Z" fill="white"/>
<path d="M14.0547 15.4798C14.0547 15.2566 14.0547 15.055 14.0547 14.8606C14.3643 14.767 16.4451 14.7383 17.1651 14.8175C17.1651 15.0191 17.1651 15.235 17.1651 15.4438C16.8699 15.5374 14.7675 15.5662 14.0547 15.4798Z" fill="white"/>
<path d="M8.7548 11.4918C8.7548 11.7798 8.7548 11.9814 8.7548 12.219C7.7036 12.219 6.6668 12.219 5.6084 12.219C5.6084 11.9886 5.6084 11.787 5.6084 11.5278C6.6452 11.4558 7.6748 11.5134 8.7548 11.4918Z" fill="white"/>
<path d="M27.0576 16.3019C27.0576 16.0571 27.0576 15.8411 27.0576 15.6035C28.0944 15.6035 29.1024 15.6035 30.1536 15.6035C30.1536 15.8339 30.1536 16.0571 30.1536 16.3019C29.1168 16.3019 28.0944 16.3019 27.0576 16.3019Z" fill="white"/>
<path d="M27.0073 8.94336C27.0073 9.18096 27.0073 9.36816 27.0073 9.54816C26.6977 9.64896 24.2857 9.67776 23.5801 9.59136C23.5801 9.38976 23.5801 9.18096 23.5801 8.94336C24.7249 8.94336 25.8409 8.94336 27.0073 8.94336Z" fill="white"/>
<path d="M11.8301 30.3194C11.8301 30.089 11.8301 29.8946 11.8301 29.6282C12.7877 29.5994 13.7381 29.5994 14.7101 29.6354C14.7101 29.8802 14.7101 30.0818 14.7101 30.2834C14.3933 30.377 12.5213 30.3986 11.8301 30.3194Z" fill="white"/>
<path d="M15.2426 7.83317C14.9906 7.83317 14.789 7.83317 14.5586 7.83317C14.5586 6.78197 14.5586 5.75957 14.5586 4.70117C14.789 4.70117 15.005 4.70117 15.2426 4.70117C15.2426 5.74517 15.2426 6.77477 15.2426 7.83317Z" fill="white"/>
<path d="M8.41699 21.4985C8.41699 21.2609 8.41699 21.0521 8.41699 20.8145C9.46099 20.8145 10.469 20.8145 11.513 20.8145C11.513 21.0449 11.513 21.2537 11.513 21.4985C10.4978 21.4985 9.48259 21.4985 8.41699 21.4985Z" fill="white"/>
<path d="M16.0852 24.5527C16.3732 24.5527 16.5748 24.5527 16.8052 24.5527C16.8052 25.4527 16.8052 26.3239 16.8052 27.2383C16.5892 27.2383 16.3732 27.2383 16.114 27.2383C16.0492 26.3527 16.0852 25.4671 16.0852 24.5527Z" fill="white"/>
<path d="M27.0076 22.3271C26.7772 22.3271 26.5612 22.3271 26.3164 22.3271C26.3164 21.4919 26.3164 20.6783 26.3164 19.8359C26.5468 19.8359 26.7628 19.8359 27.0076 19.8359C27.0076 20.6639 27.0076 21.4775 27.0076 22.3271Z" fill="white"/>
<path d="M28.627 12.852C28.627 12.1032 28.627 11.3544 28.627 10.584C28.8718 10.584 29.0806 10.584 29.3254 10.584C29.3254 11.3472 29.3254 12.0744 29.3254 12.852C29.1022 12.852 28.879 12.852 28.627 12.852Z" fill="white"/>
<path d="M7.02734 17.6035C7.27214 17.6035 7.48094 17.6035 7.72574 17.6035C7.72574 18.3595 7.72574 19.0939 7.72574 19.8643C7.50254 19.8643 7.27934 19.8643 7.02734 19.8643C7.02734 19.1155 7.02734 18.3811 7.02734 17.6035Z" fill="white"/>
<path d="M20.3476 14.9393C20.11 14.9393 19.9156 14.9393 19.6924 14.9393C19.6924 14.1689 19.6924 13.4273 19.6924 12.6641C19.9156 12.6641 20.11 12.6641 20.3476 12.6641C20.3476 13.4129 20.3476 14.1545 20.3476 14.9393Z" fill="white"/>
<path d="M25.5313 19.7422C25.5385 19.8934 25.5529 20.0158 25.5529 20.131C25.5529 20.2174 25.5385 20.3038 25.5241 20.419C24.7969 20.419 24.0769 20.419 23.3281 20.419C23.3281 20.1958 23.3281 19.987 23.3281 19.7422C24.0481 19.7422 24.7681 19.7422 25.5313 19.7422Z" fill="white"/>
<path d="M22.8815 5.86914C22.8815 6.07794 22.8815 6.28674 22.8815 6.56034C22.2407 6.58194 21.5999 6.57474 20.9375 6.56754C20.9375 6.30834 20.9375 6.09234 20.9375 5.88354C21.2615 5.78994 22.4207 5.78274 22.8815 5.86914Z" fill="white"/>
<path d="M7.65332 26.7617C8.27972 26.7617 8.87732 26.7617 9.51092 26.7617C9.51092 26.9921 9.51092 27.2081 9.51092 27.4457C8.89172 27.4457 8.29412 27.4457 7.65332 27.4457C7.65332 27.2369 7.65332 27.0281 7.65332 26.7617Z" fill="white"/>
<path d="M18.2737 34.5952C18.0505 34.5952 17.8489 34.5952 17.6113 34.5952C17.6113 34.0552 17.6113 33.5368 17.6113 32.9824C17.8201 32.9824 18.0361 32.9824 18.2449 32.9824C18.3529 33.2704 18.3673 34.0912 18.2737 34.5952Z" fill="white"/>
<path d="M16.5956 18.8789C16.826 18.8789 17.0204 18.8789 17.258 18.8789C17.258 19.4621 17.258 20.0237 17.258 20.6429C17.0564 20.6501 16.8476 20.6645 16.6532 20.6717C16.5236 20.3621 16.502 19.4549 16.5956 18.8789Z" fill="white"/>
<path d="M12.3916 17.1652C12.3916 16.9204 12.3916 16.7044 12.3916 16.4668C12.9748 16.4668 13.5436 16.4668 14.134 16.4668C14.134 16.69 14.134 16.8916 14.134 17.1364C13.5652 17.194 12.9964 17.1508 12.3916 17.1652Z" fill="white"/>
<path d="M14.4141 31.4707C14.7381 31.4707 14.9757 31.4707 15.2349 31.4707C15.4941 31.9387 15.7461 32.4067 16.0413 32.9395C15.7389 32.9395 15.5229 32.9395 15.2565 32.9395C14.9901 32.4859 14.7165 32.0035 14.4141 31.4707Z" fill="white"/>
<path d="M17.6759 6.2207C17.9207 6.6599 18.1727 7.1135 18.4751 7.6535C18.1871 7.6679 17.9639 7.6823 17.7047 7.6967C17.4311 7.2215 17.1647 6.7535 16.8623 6.2207C17.1647 6.2207 17.4023 6.2207 17.6759 6.2207Z" fill="white"/>
<path d="M19.5332 26.7187C19.238 26.7187 19.022 26.7187 18.77 26.7187C18.5108 26.2651 18.2444 25.7971 17.9492 25.2715C18.2444 25.2715 18.482 25.2715 18.7556 25.2715C19.0076 25.7179 19.2956 26.1715 19.5332 26.7187Z" fill="white"/>
<path d="M30.3408 12.0527C30.6576 12.0527 30.8808 12.0527 31.1472 12.0527C31.3992 12.4991 31.6584 12.9743 31.9608 13.5071C31.6584 13.5071 31.4352 13.5071 31.1688 13.5071C30.9168 13.0607 30.6504 12.5927 30.3408 12.0527Z" fill="white"/>
<path d="M11.916 13.2125C11.916 12.6437 11.916 12.1253 11.916 11.5781C12.1392 11.5781 12.3408 11.5781 12.5712 11.5781C12.5712 12.1181 12.5712 12.6509 12.5712 13.2125C12.3696 13.2125 12.1536 13.2125 11.916 13.2125Z" fill="white"/>
<path d="M20.9951 19.6855C21.2111 19.6855 21.4127 19.6855 21.6503 19.6855C21.6503 19.9087 21.6503 20.1319 21.6503 20.3839C21.4343 20.3839 21.2327 20.3839 20.9951 20.3839C20.9951 20.1607 20.9951 19.9375 20.9951 19.6855Z" fill="white"/>
<path d="M9.28809 11.5273C9.52569 11.5273 9.72729 11.5273 9.95769 11.5273C9.95769 11.7649 9.95769 11.9809 9.95769 12.2257C9.72729 12.2257 9.51849 12.2257 9.28809 12.2257C9.28809 11.9809 9.28809 11.7577 9.28809 11.5273Z" fill="white"/>
<path d="M19.7061 20.3262C19.9077 20.3262 20.1093 20.3262 20.3397 20.3262C20.3397 20.5494 20.3397 20.7654 20.3397 21.0102C20.1381 21.0102 19.9437 21.0102 19.7061 21.0102C19.7061 20.7942 19.7061 20.571 19.7061 20.3262Z" fill="white"/>
<path d="M12.7148 24.1481C12.7148 23.9105 12.7148 23.7161 12.7148 23.4785C12.9452 23.4785 13.1612 23.4785 13.406 23.4785C13.406 23.6873 13.406 23.9033 13.406 24.1481C13.1828 24.1481 12.974 24.1481 12.7148 24.1481Z" fill="white"/>
<path d="M25.3438 16.3019C25.099 16.3019 24.8974 16.3019 24.667 16.3019C24.667 16.0643 24.667 15.8555 24.667 15.6035C24.883 15.6035 25.099 15.6035 25.3438 15.6035C25.3438 15.8339 25.3438 16.0427 25.3438 16.3019Z" fill="white"/>
<path d="M28.642 13.9961C28.8652 13.9961 29.0668 13.9961 29.3188 13.9961C29.326 14.2193 29.3404 14.4353 29.3476 14.6945C29.0956 14.6945 28.8868 14.6945 28.6348 14.6945C28.642 14.4569 28.642 14.2409 28.642 13.9961Z" fill="white"/>
<path d="M22.543 7.6543C22.7806 7.6543 22.9894 7.6543 23.227 7.6543C23.227 7.8847 23.227 8.0863 23.227 8.3167C23.0038 8.3167 22.7878 8.3167 22.543 8.3167C22.543 8.1079 22.543 7.9063 22.543 7.6543Z" fill="white"/>
<path d="M4.71582 18.8921C4.71582 18.6761 4.71582 18.4745 4.71582 18.2441C4.94622 18.2441 5.15502 18.2441 5.39982 18.2441C5.39982 18.4529 5.39982 18.6545 5.39982 18.8921C5.19102 18.8921 4.97502 18.8921 4.71582 18.8921Z" fill="white"/>
<path d="M16.4443 8.13672C16.6675 8.13672 16.8691 8.13672 17.0995 8.13672C17.0995 8.35992 17.0995 8.56872 17.0995 8.81352C16.8979 8.81352 16.6891 8.81352 16.4443 8.81352C16.4443 8.60472 16.4443 8.39592 16.4443 8.13672Z" fill="white"/>
<path d="M18.6049 14.8105C18.6049 15.0337 18.6049 15.2281 18.6049 15.4657C18.3817 15.4657 18.1657 15.4657 17.9209 15.4657C17.9209 15.2497 17.9209 15.0409 17.9209 14.8105C18.1585 14.8105 18.3673 14.8105 18.6049 14.8105Z" fill="white"/>
<path d="M28.0371 26.2439C28.0371 26.0207 28.0371 25.8263 28.0371 25.5815C28.2531 25.5743 28.4691 25.5599 28.7139 25.5527C28.7139 25.7903 28.7139 25.9991 28.7139 26.2511C28.5123 26.2439 28.3035 26.2439 28.0371 26.2439Z" fill="white"/>
<path d="M22.1611 13.5719C22.1611 13.3415 22.1611 13.1399 22.1611 12.9023C22.3771 12.9023 22.5859 12.9023 22.8307 12.9023C22.8307 13.1183 22.8307 13.3343 22.8307 13.5719C22.6147 13.5719 22.4203 13.5719 22.1611 13.5719Z" fill="white"/>
<path d="M10.4902 28.5977C10.735 28.5977 10.9366 28.5977 11.167 28.5977C11.167 28.8281 11.167 29.0369 11.167 29.2817C10.9438 29.2817 10.735 29.2817 10.4902 29.2817C10.4902 29.0585 10.4902 28.8497 10.4902 28.5977Z" fill="white"/>
<path d="M19.2744 32.2559C19.512 32.2559 19.7064 32.2559 19.9296 32.2559C19.9296 32.4791 19.9296 32.6735 19.9296 32.9183C19.7208 32.9183 19.512 32.9183 19.2744 32.9183C19.2744 32.7095 19.2744 32.5007 19.2744 32.2559Z" fill="white"/>
</g>
<defs>
<clipPath id="clip0_1_15453">
<rect width="36" height="36" fill="white" transform="translate(0 0.576172)"/>
</clipPath>
</defs>
</svg>
