<svg width="36" height="37" viewBox="0 0 36 37" fill="none" xmlns="http://www.w3.org/2000/svg">
<g clip-path="url(#clip0_1_15881)">
<path fill-rule="evenodd" clip-rule="evenodd" d="M32.9976 13.4281C31.14 12.3625 28.8504 12.3625 27 13.4281L18 18.5761L27 23.7241C28.8576 24.7897 31.1472 24.7897 32.9976 23.7241C34.8552 22.6585 36 20.7001 36 18.5761C36 16.4521 34.8552 14.4865 32.9976 13.4281Z" fill="#050505"/>
<path fill-rule="evenodd" clip-rule="evenodd" d="M3.0024 13.4281C1.1448 14.4865 0 16.4521 0 18.5761C0 20.7001 1.1448 22.6657 3.0024 23.7241C4.86 24.7897 7.1496 24.7897 9 23.7241L18 18.5761L9 13.4281C7.1424 12.3625 4.8528 12.3625 3.0024 13.4281Z" fill="#050505"/>
<path fill-rule="evenodd" clip-rule="evenodd" d="M12.8012 33.4442C13.874 35.2874 15.854 36.4178 17.9996 36.4178C20.1452 36.4178 22.1252 35.2874 23.198 33.4442C24.2708 31.601 24.2708 29.3402 23.198 27.497L17.9996 18.5762L12.8012 27.497C11.7356 29.333 11.7356 31.601 12.8012 33.4442Z" fill="#050505"/>
<path fill-rule="evenodd" clip-rule="evenodd" d="M23.1985 3.70798C22.1257 1.87198 20.1457 0.734375 18.0001 0.734375C15.8545 0.734375 13.8745 1.86477 12.8017 3.70798C11.7289 5.55118 11.7289 7.81198 12.8017 9.65518L18.0001 18.576L23.1985 9.65518C24.2713 7.81918 24.2713 5.55118 23.1985 3.70798Z" fill="#050505"/>
</g>
<defs>
<clipPath id="clip0_1_15881">
<rect width="36" height="36" fill="white" transform="translate(0 0.576172)"/>
</clipPath>
</defs>
</svg>
