<svg width="36" height="37" viewBox="0 0 36 37" fill="none" xmlns="http://www.w3.org/2000/svg">
<g clip-path="url(#clip0_1_15452)">
<path d="M22.5831 26.2433C20.2222 24.3738 17.916 22.5477 15.5903 20.7061C15.5903 20.5404 15.5903 20.3671 15.5903 20.1184C19.4367 23.1576 23.2409 26.1634 27.1212 29.2293C24.103 31.6154 21.1294 33.9663 18.1294 36.338C14.7603 33.6743 11.4071 31.0232 8.05371 28.372C8.05371 22.0646 8.05371 15.7752 8.05371 9.3614C13.0818 13.335 18.033 17.2477 23.0585 21.2191C23.0585 17.8856 23.0585 14.651 23.0585 11.3396C21.4614 10.0785 19.8101 8.77476 18.1294 7.44767C16.6409 8.62368 15.183 9.77556 13.6728 10.9687C16.0488 12.8489 18.3537 14.6728 20.6808 16.5144C20.6808 16.6755 20.6808 16.8486 20.6808 17.1024C16.8343 14.0635 13.0294 11.0576 9.1387 7.98378C12.1444 5.60557 15.114 3.25589 18.1255 0.873047C21.5137 3.54945 24.8816 6.20983 28.2165 8.84422C28.2165 15.1885 28.2165 21.4783 28.2165 27.8599C23.2021 23.8974 18.2492 19.9835 13.2144 16.0049C13.2144 19.3548 13.2144 22.5895 13.2144 25.8846C14.8133 27.1458 16.4511 28.4378 18.1261 29.759C19.599 28.5972 21.0618 27.4433 22.5831 26.2433Z" fill="black"/>
</g>
<defs>
<clipPath id="clip0_1_15452">
<rect width="36" height="36" fill="white" transform="translate(0 0.576172)"/>
</clipPath>
</defs>
</svg>
