<svg width="36" height="37" viewBox="0 0 36 37" fill="none" xmlns="http://www.w3.org/2000/svg">
<g clip-path="url(#clip0_1_15451)">
<path d="M18.0075 36.5618C27.9446 36.5618 36.0002 28.5061 36.0002 18.569C36.0002 8.63182 27.9446 0.576172 18.0075 0.576172C8.0703 0.576172 0.0146484 8.63182 0.0146484 18.569C0.0146484 28.5061 8.0703 36.5618 18.0075 36.5618Z" fill="#3B3B46"/>
<path d="M18.006 17.3778L16.8096 18.5742L18.006 19.7706L19.2024 18.5742L18.006 17.3778Z" fill="#FFBE12"/>
<path d="M16.0773 19.2986L10.0342 25.3418L11.2306 26.5382L17.2738 20.4951L16.0773 19.2986Z" fill="#FFBE12"/>
<path d="M24.7697 10.6111L18.7266 16.6543L19.923 17.8507L25.9661 11.8076L24.7697 10.6111Z" fill="#FFBE12"/>
<path d="M17.2756 16.6506L11.2324 10.6074L10.036 11.8038L16.0792 17.847L17.2756 16.6506Z" fill="#FFBE12"/>
<path d="M25.967 25.3381L19.9238 19.2949L18.7274 20.4913L24.7706 26.5345L25.967 25.3381Z" fill="#FFBE12"/>
</g>
<defs>
<clipPath id="clip0_1_15451">
<rect width="36" height="36" fill="white" transform="translate(0 0.576172)"/>
</clipPath>
</defs>
</svg>
