<svg width="36" height="37" viewBox="0 0 36 37" fill="none" xmlns="http://www.w3.org/2000/svg">
<g clip-path="url(#clip0_1_15449)">
<path fill-rule="evenodd" clip-rule="evenodd" d="M30.3699 28.7712C30.3699 30.1752 29.2539 31.32 27.8931 31.32C27.2091 31.32 26.5899 31.032 26.1363 30.5712C25.6899 30.1104 25.4091 29.4696 25.4091 28.7712V23.6736C25.4091 17.64 21.3051 12.564 15.8115 11.2536C16.3443 9.44637 17.5251 7.91278 19.0587 6.94798C20.1891 6.23518 21.5139 5.83197 22.9251 5.83197C27.0291 5.83197 30.3627 9.25917 30.3627 13.4784V28.7712H30.3699ZM22.9251 0.734375C18.8787 0.734375 15.2787 2.74318 13.0107 5.83197H13.0035C11.8803 7.37278 11.0883 9.17998 10.7355 11.1456C4.9827 12.24 0.612305 17.4456 0.612305 23.6736V28.7712C0.612305 29.5488 0.720305 30.2904 0.929105 30.996C1.8579 34.1352 4.7019 36.4176 8.0499 36.4176C12.1539 36.4176 15.4875 32.9904 15.4875 28.7712V23.6736C15.4875 22.2696 14.3715 21.1248 13.0107 21.1248C11.6427 21.1248 10.5339 22.2696 10.5339 23.6736V28.7712C10.5339 30.1752 9.4179 31.32 8.0571 31.32C7.3731 31.32 6.7539 31.032 6.3003 30.5712C5.8539 30.1104 5.5731 29.4696 5.5731 28.7712V23.6736C5.5731 20.3472 7.6467 17.5176 10.5339 16.4664C11.3115 16.1856 12.1467 16.0272 13.0107 16.0272C13.8819 16.0272 14.7171 16.1856 15.4875 16.4664C18.3747 17.5176 20.4483 20.3544 20.4483 23.6736V28.7712C20.4483 29.5488 20.5563 30.2904 20.7651 30.996C21.6939 34.1352 24.5379 36.4176 27.8859 36.4176C31.9899 36.4176 35.3235 32.9904 35.3235 28.7712V13.4784C35.3235 6.45117 29.7651 0.734375 22.9251 0.734375Z" fill="#2BD0F4"/>
</g>
<defs>
<clipPath id="clip0_1_15449">
<rect width="36" height="36" fill="white" transform="translate(0 0.576172)"/>
</clipPath>
</defs>
</svg>
