<svg width="36" height="37" viewBox="0 0 36 37" fill="none" xmlns="http://www.w3.org/2000/svg">
<path d="M27.1077 7.47349L24.2421 8.83429C24.2277 8.84149 24.2133 8.84869 24.2061 8.86309C24.1917 8.87749 24.1845 8.89189 24.1845 8.90629C24.1773 8.92069 24.1773 8.93509 24.1773 8.95669C24.1773 8.97109 24.1845 8.98549 24.1917 8.99989L28.5549 18.1943C30.1749 21.6143 29.7429 24.2135 27.2805 25.3871C25.2861 26.3303 23.5653 25.6751 22.2189 23.3639L17.0565 12.4703C14.9469 8.05669 12.0957 6.89029 8.70447 8.49589C6.50127 9.53989 5.22687 11.4047 5.24847 13.7807C5.24847 13.8095 5.24127 13.8383 5.21967 13.8599C5.20527 13.8815 5.17647 13.8959 5.14767 13.9031C5.11887 13.9103 5.09007 13.9031 5.06847 13.8959C5.03967 13.8815 5.02527 13.8599 5.01087 13.8383L3.88047 11.4623C3.87327 11.4479 3.86607 11.4335 3.85167 11.4263C3.83727 11.4119 3.82287 11.4047 3.80847 11.4047C3.79407 11.3975 3.77967 11.3975 3.75807 11.3975C3.74367 11.3975 3.72926 11.4047 3.71486 11.4119L0.863665 12.7511C0.834865 12.7655 0.813265 12.7871 0.798865 12.8231C0.784465 12.8519 0.791665 12.8879 0.806065 12.9167L8.72607 29.6207C8.74047 29.6495 8.76207 29.6711 8.79807 29.6855C8.82687 29.6999 8.86287 29.6927 8.89167 29.6783L11.7573 28.3175C11.7717 28.3103 11.7861 28.3031 11.7933 28.2887C11.8077 28.2743 11.8149 28.2599 11.8149 28.2455C11.8221 28.2311 11.8221 28.2167 11.8221 28.1951C11.8221 28.1807 11.8149 28.1663 11.8077 28.1519L7.56687 19.2095C5.83887 15.5663 6.17007 12.9311 8.81247 11.6783C10.8429 10.7135 12.4269 11.3615 13.8453 13.8311C13.8453 13.8311 13.8453 13.8383 13.8525 13.8383L18.9645 24.6239C20.9373 28.7855 24.0045 30.2111 27.2373 28.6775C29.7429 27.4895 30.7797 25.7039 30.7149 23.3567C30.7149 23.3279 30.7221 23.2991 30.7437 23.2775C30.7581 23.2559 30.7869 23.2415 30.8157 23.2343C30.8445 23.2271 30.8733 23.2343 30.8949 23.2415C30.9237 23.2559 30.9381 23.2775 30.9525 23.2991L32.0901 25.7039C32.0973 25.7183 32.1045 25.7327 32.1189 25.7399C32.1333 25.7543 32.1477 25.7615 32.1621 25.7615C32.1765 25.7687 32.1909 25.7687 32.2125 25.7687C32.2269 25.7687 32.2413 25.7615 32.2557 25.7543L35.1213 24.3935C35.1357 24.3863 35.1501 24.3791 35.1573 24.3647C35.1717 24.3503 35.1789 24.3359 35.1789 24.3215C35.1861 24.3071 35.1861 24.2927 35.1861 24.2711C35.1861 24.2567 35.1789 24.2423 35.1717 24.2279L27.2517 7.52389C27.2373 7.49509 27.2157 7.47349 27.1797 7.45909C27.1437 7.44469 27.1365 7.45909 27.1077 7.47349Z" fill="#1E65F3"/>
</svg>
