<svg width="36" height="37" viewBox="0 0 36 37" fill="none" xmlns="http://www.w3.org/2000/svg">
<g clip-path="url(#clip0_1_15448)">
<path d="M15.2934 24.5064L18.0038 28.2194V36.2252L7.82032 31.5252V10.8449C7.81961 10.539 7.95097 10.2478 8.18066 10.0459L9.34 9.01184C9.77084 8.62137 10.4366 8.65408 10.8271 9.08493C10.8556 9.11638 10.8822 9.14953 10.9067 9.18418L20.1815 21.8273L25.3046 25.0861V7.64882L20.7768 5.29878L20.5575 16.2343L18.1605 12.9286L18.0508 0.927734L28.1873 5.83147V26.4177L25.8842 28.3918L18.6305 24.1774L10.5777 13.1949L10.468 29.8801L15.2621 32.4338L15.2934 24.5064Z" fill="#82BD39"/>
</g>
<defs>
<clipPath id="clip0_1_15448">
<rect width="36" height="36" fill="white" transform="translate(0 0.576172)"/>
</clipPath>
</defs>
</svg>
