<svg width="36" height="37" viewBox="0 0 36 37" fill="none" xmlns="http://www.w3.org/2000/svg">
<g clip-path="url(#clip0_1_15447)">
<path d="M33.5123 10.1361C33.3071 10.0719 33.1537 10.0273 33.0026 9.9758C31.9545 9.61861 30.9064 9.27222 29.7906 9.17401C28.4164 9.05305 27.0631 9.18157 25.7203 9.45999C21.2387 10.3894 17.157 12.243 13.4325 14.8773C12.0948 15.8236 10.8415 16.8892 9.54972 17.9004C9.48175 17.9536 9.41501 18.0086 9.34675 18.0614C9.1103 18.2444 8.90215 18.3322 8.5819 18.1507C7.97919 17.8091 7.20598 17.9612 6.70997 18.4405C6.20345 18.9299 6.02374 19.6802 6.33039 20.2996C6.53335 20.7096 6.40843 21.012 6.16191 21.3193C5.75993 21.8205 5.34701 22.3131 4.95533 22.822C4.01544 24.0433 3.21322 25.3436 2.69446 26.806C2.63779 26.9658 2.50517 27.0986 2.37895 27.2871C2.20371 26.9193 2.04754 26.602 1.9003 26.2806C0.976034 24.2625 0.35021 22.1599 0.143642 19.9441C-0.124414 17.0688 0.366842 14.3178 1.54491 11.6877C2.52965 9.48923 3.83818 7.50275 5.53673 5.7903C7.83922 3.46887 10.6084 1.99331 13.8049 1.31132C15.5048 0.948657 17.2254 0.821721 18.9562 0.898401C23.0907 1.08157 26.7125 2.5575 29.8092 5.30207C31.2935 6.61758 32.5313 8.13267 33.4123 9.92216C33.4379 9.97443 33.4616 10.0277 33.5123 10.1361ZM24.6068 13.5099C23.8734 13.2174 23.0995 13.1219 22.3216 13.1139C20.8382 13.0987 19.408 13.4381 17.9995 13.8642C15.3765 14.6577 13.0161 15.9707 10.7983 17.5573C10.3858 17.8524 9.98273 18.161 9.57751 18.4663C9.38369 18.6124 9.29491 18.7527 9.41256 19.0342C9.68998 19.6978 9.55102 20.3198 9.05386 20.842C8.59191 21.3271 7.86629 21.4617 7.22779 21.2049C6.92043 21.0813 6.66173 21.1363 6.47532 21.4088C5.796 22.4021 5.09523 23.3829 4.46415 24.4063C3.86352 25.3803 3.47026 26.4421 3.45903 27.6484C3.46702 27.7801 3.46479 27.9488 3.48919 28.1135C3.70613 29.5742 4.64515 30.3656 5.97715 30.7973C7.38907 31.255 8.81338 31.0981 10.1979 30.7607C16.0171 29.3425 20.8145 26.309 24.4801 21.543C25.5512 20.1503 26.3457 18.6284 26.5645 16.8504C26.7463 15.3731 25.9864 14.0599 24.6068 13.5099Z" fill="url(#paint0_linear_1_15447)"/>
<path d="M11.4824 34.9557C12.2013 34.7631 12.8449 34.6029 13.4814 34.418C16.7355 33.4733 19.7702 32.0467 22.6186 30.2202C25.1433 28.6012 27.5117 26.7822 29.6371 24.6582C31.6751 22.6216 33.2903 20.2926 34.4782 17.6664C34.7406 17.0863 35.0299 16.5183 35.3075 15.9451C35.328 15.9029 35.3546 15.8636 35.4267 15.7402C35.5247 16.1769 35.6336 16.5353 35.6828 16.9016C35.9685 19.0306 35.6754 21.1116 35.1031 23.16C34.2609 26.1745 32.8169 28.8524 30.5652 31.0566C27.6829 33.878 24.2343 35.5515 20.2358 36.0744C17.6121 36.4175 15.0334 36.2133 12.5197 35.3538C12.1905 35.2412 11.8695 35.105 11.4824 34.9557Z" fill="url(#paint1_linear_1_15447)"/>
</g>
<defs>
<linearGradient id="paint0_linear_1_15447" x1="16.8525" y1="0.457372" x2="16.7182" y2="31.2156" gradientUnits="userSpaceOnUse">
<stop stop-color="#71C7EB"/>
<stop offset="1" stop-color="#186D94"/>
</linearGradient>
<linearGradient id="paint1_linear_1_15447" x1="11.4825" y1="25.9864" x2="35.7935" y2="25.9864" gradientUnits="userSpaceOnUse">
<stop stop-color="#71C7EB"/>
<stop offset="1" stop-color="#186D94"/>
</linearGradient>
<clipPath id="clip0_1_15447">
<rect width="36" height="36" fill="white" transform="translate(0 0.576172)"/>
</clipPath>
</defs>
</svg>
