<svg width="36" height="37" viewBox="0 0 36 37" fill="none" xmlns="http://www.w3.org/2000/svg">
<g clip-path="url(#clip0_1_15763)">
<path d="M25.8404 23.7375L15.6585 16.9927H12.9271C11.983 16.9927 11.2176 16.2274 11.2176 15.2833C11.2176 14.3392 11.983 13.5739 12.9271 13.5739H16.6796L26.8616 20.3186H31.2838C31.4138 19.2138 31.4138 18.0976 31.2838 16.9927H26.1936C25.2495 16.9927 24.4841 16.2274 24.4841 15.2833C24.4841 14.3392 25.2495 13.5739 26.1936 13.5739H30.3743C27.5499 6.73638 19.7277 3.48558 12.9086 6.30899C9.19416 7.83273 6.36715 10.9531 5.2163 14.7994L13.5774 20.3365H16.2159C17.1599 20.3365 17.9253 21.1018 17.9253 22.0459C17.9253 22.99 17.1599 23.7553 16.2159 23.7553H12.5185L4.63965 18.5164V18.665C4.6575 26.0599 10.6596 32.0249 18.0545 32.0056C23.4427 31.9878 28.3109 28.7356 30.3734 23.756L25.8398 23.7382L25.8404 23.7375Z" fill="#008FBB"/>
<path opacity="0.3" d="M18.0005 34.3311C15.8744 34.3311 13.8111 33.9145 11.8681 33.0927C9.99204 32.2991 8.30745 31.1634 6.86112 29.7171C5.41471 28.2707 4.27905 26.5861 3.48554 24.7101C2.66373 22.7671 2.24707 20.7038 2.24707 18.5777C2.24707 16.4515 2.66373 14.3883 3.48554 12.4453C4.27905 10.5693 5.41478 8.8846 6.86112 7.43827C8.30745 5.99186 9.99211 4.8562 11.8681 4.06269C13.8111 3.24088 15.8744 2.82422 18.0005 2.82422C20.1267 2.82422 22.1899 3.24088 24.1329 4.06269C26.0089 4.8562 27.6936 5.99193 29.1399 7.43827C30.5863 8.8846 31.722 10.5693 32.5155 12.4453C33.3373 14.3883 33.754 16.4515 33.754 18.5777C33.754 20.7038 33.3373 22.7671 32.5155 24.7101C31.722 26.5861 30.5863 28.2707 29.1399 29.7171C27.6936 31.1635 26.0089 32.2991 24.1329 33.0927C22.1899 33.9144 20.1267 34.3311 18.0005 34.3311ZM18.0005 5.30879C16.2087 5.30879 14.4712 5.65943 12.8361 6.35099C11.2562 7.01923 9.83709 7.97611 8.61806 9.19514C7.3991 10.4141 6.44215 11.8333 5.77392 13.4132C5.08236 15.0482 4.73172 16.7858 4.73172 18.5776C4.73172 20.3694 5.08236 22.107 5.77392 23.742C6.44215 25.3219 7.39903 26.741 8.61806 27.9601C9.83702 29.179 11.2562 30.136 12.8361 30.8042C14.4712 31.4958 16.2087 31.8464 18.0005 31.8464C19.7923 31.8464 21.5299 31.4958 23.1649 30.8042C24.7448 30.136 26.164 29.1791 27.3829 27.9601C28.6019 26.741 29.5588 25.3219 30.2271 23.742C30.9186 22.107 31.2693 20.3694 31.2693 18.5776C31.2693 16.7858 30.9186 15.0482 30.2271 13.4132C29.5588 11.8333 28.6019 10.4142 27.3829 9.19514C26.164 7.97618 24.7448 7.01923 23.1649 6.35099C21.5299 5.65943 19.7923 5.30879 18.0005 5.30879Z" fill="#008FBB"/>
<path opacity="0.1" d="M18.0006 36.3195C15.6058 36.3195 13.282 35.8502 11.094 34.9248C8.98104 34.0311 7.0837 32.7519 5.45456 31.1227C3.82541 29.4936 2.54626 27.5962 1.65252 25.4833C0.727034 23.2952 0.257812 20.9715 0.257812 18.5767C0.257812 16.1819 0.727034 13.8582 1.65252 11.6701C2.54619 9.55722 3.82541 7.65987 5.45456 6.03073C7.0837 4.40158 8.98104 3.12243 11.094 2.2287C13.282 1.30321 15.6058 0.833984 18.0006 0.833984C20.3953 0.833984 22.7191 1.30321 24.9072 2.2287C27.0201 3.12236 28.9174 4.40158 30.5466 6.03073C32.1757 7.65987 33.4549 9.55722 34.3486 11.6701C35.2741 13.8582 35.7433 16.1819 35.7433 18.5767C35.7433 20.9715 35.2741 23.2952 34.3486 25.4833C33.4549 27.5962 32.1757 29.4937 30.5466 31.1227C28.9174 32.7518 27.0201 34.031 24.9072 34.9248C22.7191 35.8503 20.3953 36.3195 18.0006 36.3195ZM18.0006 2.87497C15.8804 2.87497 13.8242 3.28998 11.8891 4.10847C10.0194 4.89925 8.3401 6.03152 6.8978 7.4739C5.45542 8.91627 4.32315 10.5955 3.53237 12.4652C2.71388 14.4003 2.29887 16.4565 2.29887 18.5767C2.29887 20.6968 2.71388 22.753 3.53237 24.6882C4.32315 26.5578 5.45542 28.2371 6.8978 29.6795C8.34018 31.1219 10.0194 32.2541 11.8891 33.0449C13.8242 33.8634 15.8804 34.2784 18.0006 34.2784C20.1207 34.2784 22.1769 33.8634 24.1121 33.0449C25.9817 32.2541 27.661 31.1219 29.1033 29.6795C30.5457 28.2371 31.678 26.5578 32.4687 24.6882C33.2872 22.753 33.7022 20.6968 33.7022 18.5767C33.7022 16.4565 33.2872 14.4003 32.4687 12.4652C31.678 10.5955 30.5457 8.9162 29.1033 7.4739C27.661 6.03152 25.9817 4.89925 24.1121 4.10847C22.1769 3.28998 20.1207 2.87497 18.0006 2.87497Z" fill="#008FBB"/>
<path d="M18.0928 32.1777C25.5324 32.1777 31.5635 26.1467 31.5635 18.707C31.5635 11.2674 25.5324 5.23633 18.0928 5.23633C10.6531 5.23633 4.62207 11.2674 4.62207 18.707C4.62207 26.1467 10.6531 32.1777 18.0928 32.1777Z" fill="#008FBB"/>
<path d="M8.07746 19.0174H10.3071C10.8201 19.0174 11.2361 19.4334 11.2361 19.9464C11.2361 20.4595 10.8201 20.8755 10.3071 20.8755H8.07746C7.56439 20.8755 7.14844 20.4595 7.14844 19.9464C7.14844 19.4334 7.56439 19.0174 8.07746 19.0174ZM22.5701 15.5801H28.1442C28.6573 15.5801 29.0732 15.996 29.0732 16.5091C29.0732 17.0222 28.6573 17.4381 28.1442 17.4381H22.5701C22.0571 17.4381 21.6411 17.0222 21.6411 16.5091C21.641 15.996 22.057 15.5801 22.5701 15.5801Z" fill="white"/>
<path d="M27.2152 18.5719V16.491C27.2164 15.9891 27.6229 15.5825 28.1249 15.5813H28.162C28.6639 15.5825 29.0705 15.989 29.0717 16.491V18.5719C29.0706 19.0738 28.664 19.4804 28.162 19.4816H28.1249C27.6053 19.4823 27.2152 19.0737 27.2152 18.5719ZM10.8645 15.7663L15.8812 19.1108H17.5534C18.0664 19.1108 18.4824 19.5267 18.4824 20.0398C18.4824 20.5528 18.0664 20.9688 17.5534 20.9688H15.3238C14.9893 20.9688 14.692 20.8015 14.5248 20.505L14.5807 20.598L9.93556 17.4385H8.07746C7.56439 17.4385 7.14844 17.0225 7.14844 16.5095C7.14844 15.9964 7.56439 15.5804 8.07746 15.5804H10.3071C10.5671 15.5804 10.8274 15.6919 10.9945 15.8963M18.4631 15.7663L23.722 19.1108H25.4686C25.9888 19.0929 26.4348 19.5196 26.4348 20.0397C26.4169 20.56 25.9889 20.9872 25.4686 20.9686H23.1274C22.793 20.9686 22.4585 20.8013 22.2912 20.5049L22.347 20.5978L17.4789 17.4386H15.5467C15.0264 17.4564 14.5804 17.0297 14.5804 16.5096C14.5983 15.9893 15.0263 15.5621 15.5467 15.5807H17.8878C18.1633 15.5783 18.4268 15.6931 18.6126 15.8965" fill="white"/>
</g>
<defs>
<clipPath id="clip0_1_15763">
<rect width="36" height="36" fill="white" transform="translate(0 0.576172)"/>
</clipPath>
</defs>
</svg>
