<svg width="36" height="37" viewBox="0 0 36 37" fill="none" xmlns="http://www.w3.org/2000/svg">
<g clip-path="url(#clip0_1_15836)">
<path d="M28.483 31.6583L26.9206 11.1455L24.6454 11.3183L25.9486 28.4543L15.055 24.9983C15.1414 24.5807 15.1918 24.1487 15.1918 23.7023C15.1918 22.3487 14.7526 21.0959 14.011 20.0807L27.1582 6.93353L11.8294 4.65833C11.3038 2.54873 9.40303 0.986328 7.12783 0.986328C4.44943 0.986328 2.28223 3.16073 2.28223 5.83193C2.28223 8.20793 3.99583 10.1807 6.24943 10.5983L6.65263 18.0143C4.42783 18.9431 2.86543 21.1391 2.86543 23.7023C2.86543 27.1079 5.62303 29.8655 9.02863 29.8655C11.1742 29.8655 13.0606 28.7711 14.1622 27.1079L28.483 31.6583ZM8.53183 10.4831C10.1734 9.98633 11.4406 8.65433 11.8438 6.97673L22.3342 8.53193L12.3406 18.5183C11.383 17.9063 10.2454 17.5463 9.02143 17.5463C8.98543 17.5463 8.94943 17.5535 8.91343 17.5535L8.53183 10.4831Z" fill="#666472"/>
<path d="M27.3316 36.2374C30.8468 36.2374 33.6964 33.3878 33.6964 29.8726C33.6964 26.3574 30.8468 23.5078 27.3316 23.5078C23.8164 23.5078 20.9668 26.3574 20.9668 29.8726C20.9668 33.3878 23.8164 36.2374 27.3316 36.2374Z" fill="#F07748"/>
<path d="M24.6022 13.6224C27.7237 13.6224 30.2542 11.0919 30.2542 7.97036C30.2542 4.84885 27.7237 2.31836 24.6022 2.31836C21.4807 2.31836 18.9502 4.84885 18.9502 7.97036C18.9502 11.0919 21.4807 13.6224 24.6022 13.6224Z" fill="#F07748"/>
<path d="M24.6025 10.8281C26.1812 10.8281 27.4609 9.54838 27.4609 7.96973C27.4609 6.39108 26.1812 5.11133 24.6025 5.11133C23.0239 5.11133 21.7441 6.39108 21.7441 7.96973C21.7441 9.54838 23.0239 10.8281 24.6025 10.8281Z" fill="#666472"/>
<path d="M9.1579 27.4759C11.3092 27.4759 13.0531 25.732 13.0531 23.5807C13.0531 21.4295 11.3092 19.6855 9.1579 19.6855C7.00664 19.6855 5.2627 21.4295 5.2627 23.5807C5.2627 25.732 7.00664 27.4759 9.1579 27.4759Z" fill="#F07748"/>
</g>
<defs>
<clipPath id="clip0_1_15836">
<rect width="36" height="36" fill="white" transform="translate(0 0.576172)"/>
</clipPath>
</defs>
</svg>
