<svg width="36" height="37" viewBox="0 0 36 37" fill="none" xmlns="http://www.w3.org/2000/svg">
<path d="M21.7367 19.6388H19.4484L17.6412 16.1103L15.835 19.6828L14.8749 21.661L13.8628 23.6922H11.6285L17.6962 11.5228L21.7367 19.6388ZM33.175 11.5208L29.7196 15.9503L30.9937 17.6055L35.7323 11.5208H33.175ZM29.7196 19.2617L33.175 23.6922H35.7323L30.9937 17.6055L29.7196 19.2617ZM10.5644 13.283C9.43339 12.1242 7.87291 11.4855 6.25393 11.5188C4.99324 11.4971 3.76041 11.8907 2.74553 12.639L4.22969 14.1391C4.83896 13.77 5.54184 13.5845 6.25393 13.6051C7.33488 13.5767 8.37758 14.006 9.12525 14.7872C9.8748 15.5587 10.2945 16.5918 10.2954 17.6675C10.321 18.7505 9.89704 19.7957 9.12424 20.5549C9.08523 20.5959 9.04423 20.6359 9.00322 20.6759C7.41746 22.1939 4.90154 22.1397 3.38258 20.5549C2.63295 19.7834 2.21355 18.7502 2.21345 17.6745C2.20855 16.939 2.41097 16.2171 2.79751 15.5913L1.30537 14.0911C0.560214 15.1104 0.167986 16.345 0.188247 17.6075C0.187542 17.6572 0.187469 17.7068 0.188002 17.7565C0.223685 21.0704 2.93904 23.7279 6.25294 23.6922C7.95513 23.6922 9.39529 23.1571 10.5644 21.932C11.7024 20.7821 12.3339 19.2253 12.3186 17.6075C12.3582 15.9852 11.723 14.4193 10.5644 13.283ZM26.2552 11.5748H23.6459L28.4152 17.6325L23.6833 23.6447L22.6968 21.661H20.4605L21.4727 23.6922H23.6459H23.7069H26.2552L29.7106 19.2597L28.4572 17.6325L29.7106 16.0053L26.2552 11.5748Z" fill="#1B457D"/>
</svg>
