<svg width="36" height="37" viewBox="0 0 36 37" fill="none" xmlns="http://www.w3.org/2000/svg">
<g clip-path="url(#clip0_1_15445)">
<path fill-rule="evenodd" clip-rule="evenodd" d="M4.75938 17.9066C4.75938 18.965 3.90258 19.8218 2.84418 19.8218C1.78578 19.8218 0.928984 18.965 0.928984 17.9066C0.928984 16.8482 1.78578 15.9914 2.84418 15.9914C3.90258 15.9914 4.75938 16.8482 4.75938 17.9066ZM35.1722 17.9066C35.1722 18.965 34.3154 19.8218 33.257 19.8218C32.1986 19.8218 31.3418 18.965 31.3418 17.9066C31.3418 16.8482 32.1986 15.9914 33.257 15.9914C34.3154 15.9914 35.1722 16.8482 35.1722 17.9066ZM19.9658 25.4522C19.9658 26.5106 19.109 27.3674 18.0506 27.3674C16.9922 27.3674 16.1354 26.5106 16.1354 25.4522C16.1354 24.3938 16.9922 23.537 18.0506 23.537C19.109 23.5442 19.9658 24.401 19.9658 25.4522ZM12.3122 21.7298C12.3122 22.7882 11.4554 23.645 10.397 23.645C9.33858 23.645 8.48178 22.7882 8.48178 21.7298C8.48178 20.6714 9.33858 19.8146 10.397 19.8146C11.4554 19.8146 12.3122 20.6714 12.3122 21.7298ZM27.5186 21.7298C27.5186 22.7882 26.6618 23.645 25.6034 23.645C24.545 23.645 23.6882 22.7882 23.6882 21.7298C23.6882 20.6714 24.545 19.8146 25.6034 19.8146C26.6618 19.8146 27.5186 20.6714 27.5186 21.7298ZM4.14018 23.6954C4.14018 24.4082 3.56418 24.9914 2.84418 24.9914C2.13138 24.9914 1.54818 24.4082 1.54818 23.6954C1.54818 22.9826 2.12418 22.3994 2.84418 22.3994C3.55698 22.4066 4.14018 22.9826 4.14018 23.6954ZM34.553 23.6954C34.553 24.4082 33.977 24.9914 33.257 24.9914C32.5442 24.9914 31.961 24.4082 31.961 23.6954C31.961 22.9826 32.537 22.3994 33.257 22.3994C33.9698 22.4066 34.553 22.9826 34.553 23.6954ZM19.3466 31.349C19.3466 32.0618 18.7706 32.645 18.0506 32.645C17.3378 32.645 16.7546 32.0618 16.7546 31.349C16.7546 30.6362 17.3378 30.0602 18.0506 30.0602C18.7634 30.0602 19.3466 30.6362 19.3466 31.349ZM11.693 27.5258C11.693 28.2386 11.117 28.8218 10.397 28.8218C9.68419 28.8218 9.10098 28.2458 9.10098 27.5258C9.10098 26.813 9.67698 26.2298 10.397 26.2298C11.1098 26.2298 11.693 26.813 11.693 27.5258ZM26.8994 27.5258C26.8994 28.2386 26.3162 28.8218 25.6034 28.8218C24.8906 28.8218 24.3074 28.2458 24.3074 27.5258C24.3074 26.813 24.8834 26.2298 25.6034 26.2298C26.3162 26.2298 26.8994 26.813 26.8994 27.5258ZM3.52098 28.2458C3.52098 28.6202 3.21858 28.9154 2.85138 28.9154C2.47698 28.9154 2.18178 28.613 2.18178 28.2458C2.18178 27.8714 2.48418 27.5762 2.85138 27.5762C3.21858 27.5762 3.52098 27.8786 3.52098 28.2458ZM33.9338 28.2458C33.9338 28.6202 33.6314 28.9154 33.2642 28.9154C32.8898 28.9154 32.5946 28.613 32.5946 28.2458C32.5946 27.8714 32.897 27.5762 33.2642 27.5762C33.6314 27.5762 33.9338 27.8786 33.9338 28.2458ZM18.7274 35.9066C18.7274 36.281 18.425 36.5762 18.0578 36.5762C17.6834 36.5762 17.3882 36.2738 17.3882 35.9066C17.3882 35.5322 17.6906 35.237 18.0578 35.237C18.425 35.2298 18.7274 35.5322 18.7274 35.9066ZM11.0666 32.0762C11.0666 32.4506 10.7642 32.7458 10.397 32.7458C10.0226 32.7458 9.72739 32.4434 9.72739 32.0762C9.72739 31.7018 10.0298 31.4066 10.397 31.4066C10.7714 31.4066 11.0666 31.7018 11.0666 32.0762ZM26.273 32.0762C26.273 32.4506 25.9706 32.7458 25.6034 32.7458C25.229 32.7458 24.9338 32.4434 24.9338 32.0762C24.9338 31.7018 25.2362 31.4066 25.6034 31.4066C25.9778 31.4066 26.273 31.7018 26.273 32.0762ZM20.585 3.16097C20.585 4.58657 19.4258 5.74577 18.0002 5.74577C16.5746 5.74577 15.4154 4.58657 15.4154 3.16097C15.4154 1.73537 16.5746 0.576172 18.0002 0.576172C19.4258 0.576172 20.585 1.73537 20.585 3.16097ZM20.585 10.8146C20.585 12.2402 19.4258 13.3994 18.0002 13.3994C16.5746 13.3994 15.4154 12.2402 15.4154 10.8146C15.4154 9.38897 16.5746 8.22977 18.0002 8.22977C19.4258 8.22977 20.585 9.38897 20.585 10.8146ZM20.585 18.3674C20.585 19.793 19.4258 20.9522 18.0002 20.9522C16.5746 20.9522 15.4154 19.793 15.4154 18.3674C15.4154 16.9418 16.5746 15.7826 18.0002 15.7826C19.4258 15.7826 20.585 16.9418 20.585 18.3674ZM35.7914 10.8146C35.7914 12.2402 34.6322 13.3994 33.2066 13.3994C31.781 13.3994 30.6218 12.2402 30.6218 10.8146C30.6218 9.38897 31.781 8.22977 33.2066 8.22977C34.6322 8.22977 35.7914 9.38897 35.7914 10.8146ZM5.37858 10.8146C5.37858 12.2402 4.21938 13.3994 2.79378 13.3994C1.36818 13.3994 0.208984 12.2474 0.208984 10.8146C0.208984 9.38897 1.36818 8.22977 2.79378 8.22977C4.21938 8.22977 5.37858 9.38897 5.37858 10.8146ZM13.0322 6.99137C13.0322 8.41697 11.873 9.57617 10.4474 9.57617C9.02179 9.57617 7.86258 8.41697 7.86258 6.99137C7.86258 5.56577 9.02179 4.40657 10.4474 4.40657C11.873 4.40657 13.0322 5.55857 13.0322 6.99137ZM13.0322 14.5442C13.0322 15.9698 11.873 17.129 10.4474 17.129C9.02179 17.129 7.86258 15.9698 7.86258 14.5442C7.86258 13.1186 9.02179 11.9594 10.4474 11.9594C11.873 11.9594 13.0322 13.1114 13.0322 14.5442ZM28.2386 6.99137C28.2386 8.41697 27.0794 9.57617 25.6538 9.57617C24.2282 9.57617 23.069 8.41697 23.069 6.99137C23.069 5.56577 24.2282 4.40657 25.6538 4.40657C27.0866 4.40657 28.2386 5.55857 28.2386 6.99137ZM28.2386 14.5442C28.2386 15.9698 27.0794 17.129 25.6538 17.129C24.2282 17.129 23.069 15.9698 23.069 14.5442C23.069 13.1186 24.2282 11.9594 25.6538 11.9594C27.0866 11.9522 28.2386 13.1114 28.2386 14.5442Z" fill="#141414"/>
</g>
<defs>
<clipPath id="clip0_1_15445">
<rect width="36" height="36" fill="white" transform="translate(0 0.576172)"/>
</clipPath>
</defs>
</svg>
