<svg width="36" height="37" viewBox="0 0 36 37" fill="none" xmlns="http://www.w3.org/2000/svg">
<g clip-path="url(#clip0_1_15444)">
<path d="M18.0045 36.1531C8.21369 36.157 0.349127 28.144 0.428327 18.4308C0.506663 8.81833 8.39196 0.894079 18.2081 1.00107C27.6847 1.10439 35.6388 8.80393 35.5716 18.7391C35.5071 28.2717 27.7643 36.1388 18.0045 36.1531ZM33.9833 19.4157C33.9949 9.67189 26.6622 2.49946 17.8191 2.58075C9.40572 2.65808 1.8589 9.59989 2.02003 18.8224C2.09722 23.2401 3.7476 27.0223 6.93029 30.0813C10.6615 33.6675 15.1893 35.0702 20.2675 34.4134C23.8275 33.953 26.9226 32.3387 29.4366 29.7309C32.4333 26.6224 33.9311 22.8883 33.9833 19.4157Z" fill="#182227"/>
<path d="M33.9834 19.4157C33.9312 22.8883 32.4334 26.6224 29.4367 29.7309C26.9227 32.3387 23.8276 33.953 20.2676 34.4134C15.1893 35.0702 10.6616 33.6675 6.93037 30.0813C3.74775 27.0223 2.0973 23.2402 2.02011 18.8224C1.85898 9.5999 9.4058 2.65809 17.8191 2.58076C26.6623 2.49947 33.9949 9.6719 33.9834 19.4157ZM17.9919 3.56183C9.67321 3.56119 2.9865 10.3003 3.00032 18.7078C3.01378 26.8639 9.79467 33.6699 18.1553 33.5887C26.2457 33.5102 32.9288 26.9109 33.015 18.7463C33.1034 10.3581 26.2884 3.54873 17.9919 3.56183Z" fill="#FBFCFC"/>
<path d="M26.7496 24.2313C25.5364 26.1341 23.8583 27.4682 21.7723 28.3057C21.2017 28.5347 20.6117 28.6891 19.9805 28.8125C19.9805 27.9032 19.9805 27.0032 19.9805 26.0675C22.2868 25.3929 24.0164 23.9752 25.0453 21.764C25.7747 20.1964 25.9304 18.5459 25.5438 16.8608C24.9043 14.0731 22.1001 11.1963 19.9875 11.1752C19.9875 10.2401 19.9875 9.30348 19.9875 8.33789C20.7859 8.46195 21.5493 8.71517 22.2834 9.05652C26.3138 10.9309 28.6236 14.7778 28.4246 19.2429C28.4088 19.5983 28.4468 20.002 28.3651 20.305C28.2028 20.9071 28.0718 21.5303 27.8227 22.1111C27.7371 22.3111 27.1546 23.7819 26.7496 24.2313Z" fill="#FBFCFC"/>
<path d="M8.15165 21.9807C7.34114 19.6875 7.34553 17.3835 8.16345 15.1053C9.22963 12.1356 11.2652 10.07 14.1757 8.85405C14.7733 8.60442 15.3929 8.46662 16.0388 8.32031C16.0388 9.26596 16.0388 10.1709 16.0388 11.0702C12.1758 12.2081 10.3739 15.4706 10.2682 18.3115C10.1522 21.4305 12.1265 24.9759 16.0352 26.0842C16.0352 26.9893 16.0352 27.8954 16.0352 28.8389C12.9191 28.1419 10.5352 26.487 8.94206 23.729C8.69777 23.4304 8.25245 22.3933 8.15165 21.9807Z" fill="#FBFCFC"/>
<path d="M17.9916 3.56252C26.2881 3.54941 33.1031 10.3587 33.0147 18.747C32.9286 26.9116 26.2454 33.5108 18.155 33.5894C9.79437 33.6705 3.01349 26.8646 3.00002 18.7085C2.98605 10.3011 9.67284 3.56194 17.9916 3.56252ZM8.1509 21.982C8.32111 22.6069 8.60004 23.1827 8.94139 23.7303C10.5345 26.4883 12.9185 28.1432 16.0345 28.8403C16.0345 27.8967 16.0345 26.9907 16.0345 26.0855C12.1259 24.9771 10.1516 21.4318 10.2676 18.3128C10.3733 15.4719 12.1751 12.2094 16.0381 11.0715C16.0381 10.1723 16.0381 9.26729 16.0381 8.32165C15.3922 8.46795 14.7726 8.60569 14.175 8.85538C11.2645 10.0713 9.22896 12.1369 8.16278 15.1066C7.34479 17.3848 7.3404 19.6888 8.1509 21.982ZM26.7492 24.2323C27.096 23.7655 27.3205 23.2598 27.5641 22.7112C27.6812 22.4512 27.7367 22.312 27.8225 22.1122C28.0716 21.5314 28.2744 20.7337 28.3249 20.3525C28.3733 20.0179 28.4085 19.5994 28.4243 19.244C28.6233 14.7788 26.3134 10.9319 22.2831 9.05756C21.549 8.71621 20.7856 8.46298 19.9872 8.33893C19.9872 9.30445 19.9872 10.2412 19.9872 11.1762C22.0998 11.1973 24.904 14.0741 25.5435 16.8619C25.9301 18.547 25.7744 20.1975 25.045 21.7651C24.0161 23.9762 22.2864 25.3939 19.9801 26.0685C19.9801 27.0043 19.9801 27.9043 19.9801 28.8135C20.6114 28.6902 21.2014 28.5357 21.7719 28.3067C23.858 27.4692 25.536 26.1351 26.7492 24.2323Z" fill="#182227"/>
</g>
<defs>
<clipPath id="clip0_1_15444">
<rect width="36" height="36" fill="white" transform="translate(0 0.576172)"/>
</clipPath>
</defs>
</svg>
