<svg width="36" height="37" viewBox="0 0 36 37" fill="none" xmlns="http://www.w3.org/2000/svg">
<g clip-path="url(#clip0_1_15443)">
<path d="M24.3899 29.1213C24.4761 29.2442 24.5508 29.3013 24.5512 29.3588C24.5567 30.1809 24.5623 31.0035 24.5391 31.825C24.5357 31.9454 24.3994 32.0767 24.299 32.1774C23.4379 33.0414 22.5844 33.9135 21.7031 34.7566C19.5077 36.8571 16.4859 36.8122 14.3371 34.6652C10.189 30.5205 6.03804 26.3785 1.89206 22.2314C0.013941 20.3529 -0.255843 17.6164 1.27826 15.5762C1.76945 14.923 2.37821 14.3545 2.95867 13.7726C6.71592 10.0059 10.4745 6.24035 14.2447 2.4867C16.0807 0.658839 18.495 0.281415 20.5663 1.49606C21.0168 1.76022 21.4338 2.10676 21.8052 2.47655C25.9189 6.5727 30.024 10.6776 34.1242 14.7872C36.3591 17.0271 36.3422 20.0641 34.0983 22.3087C32.2695 24.138 30.4474 25.974 28.6046 27.789C28.2835 28.1052 28.159 28.4259 28.1643 28.872C28.1862 30.7236 28.175 32.5756 28.1726 34.4273C28.1716 35.1615 27.8086 35.5817 27.1936 35.5741C26.6028 35.5668 26.2265 35.145 26.2394 34.4417C26.2759 32.4594 26.3389 30.4774 26.3659 28.495C26.3691 28.2569 26.2847 27.9438 26.1229 27.7883C23.7823 25.5384 21.4216 23.3095 19.0651 21.0762C19.0443 21.0564 19.0158 21.045 18.9473 21.0029C17.9571 21.2595 16.9941 21.1572 16.2072 20.3745C15.6577 19.828 15.4301 19.1516 15.4653 18.3713C15.5315 16.9034 16.8289 15.8401 18.3869 15.9987C20.011 16.1639 20.7877 17.5383 20.4282 19.7098C22.6356 21.8775 24.8748 24.0765 27.1407 26.302C27.2892 26.1653 30.9935 22.4824 32.7269 20.7448C34.0387 19.4297 34.0437 17.6758 32.7299 16.3602C28.5655 12.1901 24.3982 8.02278 20.228 3.85838C18.9049 2.5371 17.1638 2.53458 15.8432 3.85326C11.6728 8.01745 7.50583 12.1851 3.34106 16.355C2.02447 17.6732 2.02411 19.4287 3.3353 20.7409C7.50093 24.9099 11.6682 29.0772 15.8372 33.2429C17.1496 34.5543 18.9121 34.5545 20.2245 33.2472C21.474 32.0025 24.2215 29.2745 24.3899 29.1213Z" fill="#1CB5E0"/>
</g>
<defs>
<clipPath id="clip0_1_15443">
<rect width="36" height="36" fill="white" transform="translate(0 0.576172)"/>
</clipPath>
</defs>
</svg>
