<svg width="36" height="37" viewBox="0 0 36 37" fill="none" xmlns="http://www.w3.org/2000/svg">
<g clip-path="url(#clip0_1_15441)">
<path d="M26.5177 15.1781C28.3897 13.3061 30.1753 11.5205 32.0401 9.66293C32.3497 10.4981 32.7241 11.3261 32.9617 12.1973C34.5817 18.0725 34.3009 23.8037 31.1185 29.1029C27.8281 34.5821 22.7737 36.8573 16.4737 36.3605C11.7145 35.9861 8.00646 33.7397 5.29927 29.8229C5.04007 29.4485 4.83127 29.0597 4.53607 28.5629C10.8937 22.1981 17.2297 15.8549 23.6953 9.38933C22.9105 8.91413 22.2769 8.43893 21.5785 8.12213C16.3369 5.80373 10.9945 8.60453 9.67687 14.3501C9.18007 16.5101 9.06487 18.6845 9.34567 20.8877C9.38887 21.2477 9.41767 21.6077 9.47527 22.1477C7.74727 23.8685 5.95447 25.6469 4.10407 27.4829C3.93127 27.2381 3.80887 27.1157 3.75847 26.9717C1.10887 19.8365 1.33206 12.9317 5.86807 6.60293C9.10087 2.09573 13.7953 0.410933 19.2385 0.756533C23.2633 1.01573 26.6833 2.62853 29.3761 5.65973C30.1177 6.49493 30.7297 7.43813 31.4497 8.39573C28.1809 11.6645 25.0129 14.8397 21.8377 18.0149C18.6625 21.1829 15.4873 24.3509 12.1753 27.6557C12.9529 28.1525 13.5649 28.6421 14.2633 28.9733C19.1521 31.2701 24.4729 28.8509 26.0857 23.6165C26.8273 21.1973 26.9641 18.7277 26.6545 16.2221C26.5969 15.8405 26.5537 15.4589 26.5177 15.1781Z" fill="#1A82FF"/>
</g>
<defs>
<clipPath id="clip0_1_15441">
<rect width="36" height="36" fill="white" transform="translate(0 0.576172)"/>
</clipPath>
</defs>
</svg>
