<svg width="36" height="37" viewBox="0 0 36 37" fill="none" xmlns="http://www.w3.org/2000/svg">
<g clip-path="url(#clip0_1_15717)">
<path d="M18 36.5762C27.9411 36.5762 36 28.5173 36 18.5762C36 8.63505 27.9411 0.576172 18 0.576172C8.05887 0.576172 0 8.63505 0 18.5762C0 28.5173 8.05887 36.5762 18 36.5762Z" fill="#81949F"/>
<path d="M25.9276 18.3169C25.9276 14.0977 22.378 10.6777 18.0004 10.6777C13.6228 10.6777 10.0732 14.0977 10.0732 18.3169C10.0732 20.7289 11.2324 22.8817 13.0468 24.2785H10.0732V26.5537H16.2508V25.7689V23.5657C14.0044 22.8385 12.3844 20.7649 12.3844 18.3097C12.3844 15.2569 14.8972 12.7801 17.9932 12.7801C21.0892 12.7801 23.602 15.2569 23.602 18.3097C23.602 20.7649 21.982 22.8385 19.7356 23.5657V25.7689V26.5537H25.9132V24.2785H22.9396C24.7684 22.8817 25.9276 20.7289 25.9276 18.3169Z" fill="#FFFFFB"/>
</g>
<defs>
<clipPath id="clip0_1_15717">
<rect width="36" height="36" fill="white" transform="translate(0 0.576172)"/>
</clipPath>
</defs>
</svg>
