<svg width="36" height="37" viewBox="0 0 36 37" fill="none" xmlns="http://www.w3.org/2000/svg">
<g clip-path="url(#clip0_1_15439)">
<path d="M33.4607 32.0482C31.0451 33.4441 28.6123 34.8501 26.1268 36.2865C23.665 34.8671 21.212 33.4528 18.7725 32.0463C18.7725 29.1554 18.7725 26.3436 18.7725 23.4248C21.1729 22.0385 23.6044 20.6343 26.1196 19.1816C28.5522 20.5828 31.0053 21.9956 33.4607 23.4098C33.4607 26.2996 33.4607 29.1343 33.4607 32.0482Z" fill="#008D9F"/>
<path d="M2.63184 13.5726C2.63184 10.7011 2.63184 7.88852 2.63184 4.95913C5.04038 3.56773 7.4909 2.15214 9.96871 0.720703C12.4377 2.14537 14.8708 3.54937 17.2967 4.94919C17.2967 7.83855 17.2967 10.6517 17.2967 13.5814C14.8885 14.9717 12.4367 16.3873 9.96662 17.8134C7.4976 16.3859 5.06493 14.9794 2.63184 13.5726Z" fill="#008D9F"/>
<path d="M33.3412 13.539C30.9568 14.9182 28.5888 16.2879 26.1258 17.7125C23.7298 16.3239 21.3239 14.9294 18.874 13.5095C18.874 10.7209 18.874 7.94118 18.874 5.02058C21.235 3.65272 23.6611 2.24728 26.1241 0.820312C28.5369 2.21106 30.9252 3.58785 33.3413 4.98047C33.3412 7.82224 33.3412 10.6276 33.3412 13.539Z" fill="#00F1D0"/>
<path d="M10.0176 19.3105C12.5293 20.7649 14.87 22.1202 17.1982 23.4683C17.1982 26.3277 17.1982 29.0865 17.1982 31.9961C14.8378 33.3592 12.4148 34.7584 9.97534 36.1671C7.52259 34.7634 5.108 33.3815 2.6875 31.9962C2.6875 29.1514 2.6875 26.3699 2.6875 23.4676C5.12808 22.0836 7.601 20.6811 10.0176 19.3105Z" fill="#00F1D0"/>
</g>
<defs>
<clipPath id="clip0_1_15439">
<rect width="36" height="36" fill="white" transform="translate(0 0.576172)"/>
</clipPath>
</defs>
</svg>
