<svg width="36" height="37" viewBox="0 0 36 37" fill="none" xmlns="http://www.w3.org/2000/svg">
<g clip-path="url(#clip0_1_15438)">
<path d="M17.9931 36.4393C8.1723 36.4393 0.1875 28.4473 0.1875 18.6337C0.1875 8.81293 8.1795 0.828125 17.9931 0.828125C27.8067 0.828125 35.7987 8.82013 35.7987 18.6337C35.7987 28.4545 27.8139 36.4393 17.9931 36.4393ZM17.9931 2.25373C8.9643 2.25373 1.6131 9.60493 1.6131 18.6337C1.6131 27.6625 8.9643 35.0137 17.9931 35.0137C27.0219 35.0137 34.3731 27.6625 34.3731 18.6337C34.3731 9.60493 27.0219 2.25373 17.9931 2.25373Z" fill="black"/>
<path d="M18.54 22.8968H17.1216L14.9328 17.216C14.9328 17.216 14.9328 20.9816 14.9328 22.8968C14.436 22.8968 13.5216 22.8968 13.5216 22.8968L13.5 14.4584H15.4944L17.8416 20.9024L20.1816 14.4512H22.1256L22.1616 22.9256C22.1616 22.9256 21.7008 22.9256 21.4704 22.9256C21.2328 22.9256 21.0024 22.9256 20.7144 22.9256C20.7144 21.0176 20.7144 17.2808 20.7144 17.2808L18.54 22.8968Z" fill="black"/>
<path d="M31.1835 18.361C31.1835 19.8802 31.1835 21.3634 31.1835 22.8898C30.7083 22.9474 30.2403 22.9042 29.7435 22.9186C29.7291 22.6162 29.7147 22.3642 29.7003 22.141C29.3475 22.3858 29.0235 22.681 28.6347 22.8466C27.0291 23.5378 24.9195 23.0122 23.9331 21.2482C23.3355 20.1682 23.1915 19.009 23.3859 17.7994C23.5083 17.0506 23.7603 16.3594 24.2067 15.7546C24.8475 14.8834 25.7187 14.4154 26.7915 14.2714C27.6987 14.1418 28.5699 14.2354 29.3979 14.6314C30.4635 15.1426 31.0179 16.021 31.1835 17.209C30.6435 17.209 30.1251 17.209 29.6139 17.209C29.5923 17.1658 29.5635 17.1298 29.5491 17.0866C29.3907 16.453 28.9731 16.0642 28.3683 15.8626C27.0723 15.4306 25.4955 15.8266 25.0275 17.5978C24.8043 18.4474 24.8187 19.2754 25.1355 20.089C25.5099 21.0538 26.2083 21.6082 27.2667 21.6226C27.6195 21.6298 27.9939 21.6226 28.3251 21.5218C29.1171 21.2842 29.5419 20.7154 29.6499 19.837C29.2467 19.8298 27.6627 19.8226 27.2307 19.8226C27.2307 19.3258 27.2307 18.8578 27.2307 18.3682C28.5555 18.361 29.8443 18.361 31.1835 18.361Z" fill="black"/>
<path d="M3.79395 18.6916C3.84435 17.3452 4.24035 16.1644 5.24835 15.2428C5.86755 14.674 6.60915 14.3788 7.44435 14.2564C8.43795 14.1124 9.37395 14.2564 10.2379 14.7388C11.4043 15.3868 12.0379 16.4236 12.2755 17.7268C12.4843 18.8788 12.3547 19.9804 11.8003 21.01C11.1955 22.1404 10.2451 22.8172 8.97795 23.0476C7.93395 23.242 6.93315 23.134 5.99715 22.63C4.98915 22.09 4.34115 21.2332 4.04595 20.1388C3.92355 19.6636 3.88035 19.174 3.79395 18.6916ZM5.40675 18.6484C5.47155 19.03 5.50755 19.4116 5.60835 19.7788C5.90355 20.8444 6.79635 21.5428 7.88355 21.6004C9.13635 21.6652 10.0723 21.1036 10.5115 20.0164C10.8139 19.2748 10.8499 18.5116 10.6555 17.7484C10.3891 16.7188 9.76995 15.9988 8.69715 15.7828C7.62435 15.5668 6.68835 15.8332 6.01155 16.7476C5.59395 17.302 5.43555 17.95 5.40675 18.6484Z" fill="black"/>
</g>
<defs>
<clipPath id="clip0_1_15438">
<rect width="36" height="36" fill="white" transform="translate(0 0.576172)"/>
</clipPath>
</defs>
</svg>
