<svg width="36" height="37" viewBox="0 0 36 37" fill="none" xmlns="http://www.w3.org/2000/svg">
<g clip-path="url(#clip0_1_15436)">
<path d="M28.1379 0.792969C23.8971 0.792969 20.4555 4.22017 20.4483 8.46097V16.957C19.6563 17.0074 18.8499 17.0434 18.0075 17.0434C17.1651 17.0434 16.3587 17.0794 15.5667 17.1226V8.46097C15.4947 4.26337 12.0747 0.893769 7.8771 0.893769C3.6795 0.893769 0.2523 4.26337 0.1875 8.46097V28.7722C0.2523 32.9698 3.6723 36.3394 7.8771 36.3394C12.0819 36.3394 15.5019 32.9698 15.5667 28.7722V20.2762C16.3587 20.2258 17.1651 20.1898 18.0075 20.1898C18.8499 20.1898 19.6563 20.1538 20.4483 20.1106V28.7794C20.5131 32.977 23.9403 36.3466 28.1379 36.3466C32.3355 36.3466 35.7627 32.977 35.8275 28.7794V8.46097C35.8131 4.22017 32.3787 0.792969 28.1379 0.792969ZM7.8771 3.93937C10.3755 3.93937 12.4059 5.96257 12.4131 8.46097V17.461C10.1667 17.785 7.9635 18.4114 5.8755 19.3114C4.9683 19.7074 4.1187 20.2186 3.3411 20.8234V8.46097C3.3483 5.96257 5.3787 3.93937 7.8771 3.93937ZM12.4131 28.7722C12.4131 31.2778 10.3827 33.3082 7.8771 33.3082C5.3715 33.3082 3.3411 31.2778 3.3411 28.7722V26.7346C3.3411 24.9346 4.7667 23.2282 7.1571 22.1698C8.8419 21.4426 10.6059 20.9242 12.4203 20.629V28.7722H12.4131ZM28.1379 33.2938C25.6395 33.2938 23.6091 31.2706 23.6019 28.7722V19.7722C25.8483 19.4482 28.0515 18.8218 30.1395 17.9218C31.0467 17.5258 31.8963 17.0146 32.6739 16.4098V28.7722C32.6595 31.2706 30.6363 33.2938 28.1379 33.2938ZM28.8579 15.049C27.1731 15.7762 25.4091 16.2946 23.5947 16.5898V8.46097C23.5947 5.95537 25.6251 3.92497 28.1307 3.92497C30.6363 3.92497 32.6667 5.95537 32.6667 8.46097V10.4986C32.6739 12.2914 31.2483 13.9978 28.8579 15.049Z" fill="url(#paint0_linear_1_15436)"/>
</g>
<defs>
<linearGradient id="paint0_linear_1_15436" x1="2.43591" y1="34.1866" x2="33.4905" y2="2.96241" gradientUnits="userSpaceOnUse">
<stop stop-color="#00AEE9"/>
<stop offset="1" stop-color="#69FABD"/>
</linearGradient>
<clipPath id="clip0_1_15436">
<rect width="36" height="36" fill="white" transform="translate(0 0.576172)"/>
</clipPath>
</defs>
</svg>
