<svg width="36" height="37" viewBox="0 0 36 37" fill="none" xmlns="http://www.w3.org/2000/svg">
<g clip-path="url(#clip0_1_15747)">
<path d="M18.0288 36.4106C8.18637 36.389 0.237573 28.4258 0.251973 18.5906C0.266373 8.74097 8.25117 0.806569 18.1296 0.828169C27.9144 0.842569 35.856 8.84897 35.8344 18.6698C35.8128 28.4906 27.8424 36.425 18.0288 36.4106ZM14.9328 4.77377C15.0552 5.04737 15.1488 5.22737 15.228 5.42177C15.8184 6.77537 15.8328 8.08577 14.8824 9.30257C14.6016 9.66977 14.3424 10.0586 14.0328 10.397C12.3912 12.1754 10.728 13.925 9.09357 15.7034C7.55997 17.3738 6.52317 19.3106 6.35757 21.6002C6.08397 25.3226 7.69677 28.1738 10.6704 30.2618C13.3632 32.1554 16.4088 32.7458 19.656 32.3786C22.5144 32.0618 25.0416 30.9962 27.0288 28.8938C29.736 26.021 30.5352 22.7018 29.0808 18.9506C28.4544 17.3306 27.3384 16.049 26.1792 14.7962C24.516 13.0034 22.8672 11.1962 21.2688 9.35297C20.2968 8.22977 20.2608 6.91217 20.8008 5.56577C20.9016 5.32097 21.0096 5.08337 21.1392 4.77377C19.7496 4.74497 18.7776 5.33537 18.0432 6.47297C17.3232 5.32097 16.3368 4.74497 14.9328 4.77377Z" fill="#7D50D0"/>
<path d="M14.9323 4.77445C16.3363 4.74565 17.3227 5.32885 18.0427 6.47365C18.7771 5.33605 19.7491 4.74565 21.1387 4.77445C21.0091 5.08405 20.8939 5.32165 20.8003 5.56645C20.2603 6.91285 20.2963 8.23045 21.2683 9.35365C22.8667 11.2041 24.5155 13.0113 26.1787 14.7969C27.3451 16.0497 28.4539 17.3313 29.0803 18.9513C30.5275 22.7025 29.7355 26.0289 27.0283 28.8945C25.0411 30.9969 22.5139 32.0553 19.6555 32.3793C16.4083 32.7393 13.3627 32.1561 10.6699 30.2625C7.69631 28.1673 6.08351 25.3161 6.35711 21.6009C6.52271 19.3113 7.55951 17.3745 9.09311 15.7041C10.7275 13.9185 12.3907 12.1689 14.0323 10.3977C14.3419 10.0593 14.6011 9.67045 14.8819 9.30325C15.8323 8.08645 15.8179 6.77605 15.2275 5.42245C15.1483 5.22805 15.0547 5.04085 14.9323 4.77445ZM16.8547 11.2761C16.9339 11.3697 16.9987 11.4705 17.0851 11.5497C18.4603 12.8961 19.8427 14.2353 21.2179 15.5817C22.2619 16.6041 23.3851 17.5545 24.3427 18.6561C26.6827 21.3345 26.4307 24.4881 23.7811 26.6409C20.7067 29.1393 15.4291 29.1609 12.3475 26.6697C10.9795 25.5681 10.1515 24.1713 10.1587 22.3569C10.1659 20.7945 10.9147 19.5417 11.9155 18.4473C12.8227 17.4609 13.8307 16.5681 14.8027 15.6465C15.3499 15.1209 15.9043 14.6097 16.3867 14.1561C15.9979 13.7169 15.6451 13.3137 15.2923 12.9105C14.2771 13.8537 13.2619 14.7321 12.3259 15.6969C11.4259 16.6257 10.5115 17.5689 9.76991 18.6201C7.66031 21.6081 8.31551 24.9993 10.5835 27.3177C12.2971 29.0745 14.4571 29.9385 16.8475 30.1689C19.8571 30.4569 22.6363 29.7729 24.9979 27.7929C27.3667 25.8057 28.1803 22.7673 27.1075 20.0457C26.5675 18.6777 25.6891 17.5185 24.6523 16.4961C23.4139 15.2721 22.1035 14.1129 20.8579 12.8889C19.8787 11.9313 18.9427 10.9377 17.9707 9.94405C17.6323 10.3545 17.2507 10.8081 16.8547 11.2761ZM14.5003 18.6921C13.6435 19.5417 12.8947 20.3841 12.4987 21.4785C12.1387 22.4649 12.2971 23.3865 12.9523 24.2145C13.4995 24.9057 14.1979 25.4025 15.0187 25.7337C16.2787 26.2377 17.5963 26.3817 18.9283 26.2377C20.3755 26.0865 21.7291 25.6617 22.7947 24.5817C23.4643 23.8977 23.8747 23.0985 23.7163 22.1265C23.4931 20.7081 22.5499 19.7361 21.7219 18.8577C21.2539 19.2465 20.8363 19.5921 20.4115 19.9377C20.6563 20.2113 20.8651 20.4273 21.0451 20.6577C22.0675 21.9681 21.8371 23.1633 20.3539 23.9265C18.7411 24.7545 17.0995 24.7113 15.5155 23.8257C14.2771 23.1345 14.0395 22.0041 14.8675 20.8521C15.0979 20.5281 15.3787 20.2401 15.6595 19.9089C15.2779 19.5129 14.9107 19.1313 14.5003 18.6921ZM19.4395 22.1769C19.2451 21.0177 19.0579 19.9089 18.8779 18.8289C19.8499 17.8785 19.9795 16.8777 19.2451 16.1361C18.6043 15.4881 17.5531 15.4665 16.9051 16.0857C16.2715 16.6977 16.0051 17.8353 17.2291 18.8361C17.0347 19.9377 16.8475 21.0465 16.6459 22.1697C17.5963 22.6377 18.4891 22.6737 19.4395 22.1769Z" fill="white"/>
<path d="M16.8555 11.2754C17.2515 10.8074 17.6403 10.3538 17.9859 9.94336C18.9579 10.937 19.8939 11.9378 20.8731 12.8882C22.1259 14.105 23.4291 15.2642 24.6675 16.4954C25.7043 17.5178 26.5827 18.677 27.1227 20.045C28.1955 22.7666 27.3819 25.805 25.0131 27.7922C22.6515 29.7722 19.8723 30.4562 16.8627 30.1682C14.4723 29.9378 12.3051 29.0738 10.5987 27.317C8.3307 24.9986 7.6827 21.6074 9.7851 18.6194C10.5267 17.5682 11.4339 16.625 12.3411 15.6962C13.2771 14.7386 14.2923 13.8602 15.3075 12.9098C15.6603 13.313 16.0131 13.709 16.4019 14.1554C15.9195 14.609 15.3651 15.1202 14.8179 15.6458C13.8459 16.5746 12.8379 17.4602 11.9307 18.4466C10.9227 19.541 10.1811 20.7938 10.1739 22.3562C10.1667 24.1706 10.9947 25.5602 12.3627 26.669C15.4443 29.1602 20.7219 29.1386 23.7963 26.6402C26.4459 24.4874 26.6979 21.3338 24.3579 18.6554C23.4003 17.561 22.2771 16.6034 21.2331 15.581C19.8579 14.2346 18.4755 12.8954 17.1003 11.549C16.9995 11.4698 16.9347 11.369 16.8555 11.2754Z" fill="#7D50D0"/>
<path d="M14.5006 18.6914C14.9182 19.1234 15.2854 19.5122 15.6598 19.901C15.379 20.2322 15.0982 20.5202 14.8678 20.8442C14.0398 21.9962 14.2774 23.1266 15.5158 23.8178C17.0998 24.7034 18.7342 24.7466 20.3542 23.9186C21.8374 23.1554 22.0678 21.9602 21.0454 20.6498C20.8654 20.4194 20.6566 20.2034 20.4118 19.9298C20.8366 19.5842 21.2542 19.2314 21.7222 18.8498C22.5502 19.721 23.5006 20.7002 23.7166 22.1186C23.8678 23.0978 23.4646 23.8898 22.795 24.5738C21.7294 25.661 20.3758 26.0786 18.9286 26.2298C17.5966 26.3666 16.279 26.2298 15.019 25.7258C14.1982 25.3946 13.4998 24.905 12.9526 24.2066C12.2974 23.3786 12.139 22.457 12.499 21.4706C12.8878 20.3906 13.6438 19.5482 14.5006 18.6914Z" fill="#7D50D0"/>
<path d="M19.4403 22.1759C18.4899 22.6727 17.5971 22.6367 16.6467 22.1687C16.8411 21.0455 17.0355 19.9367 17.2299 18.8351C16.0059 17.8343 16.2723 16.6895 16.9059 16.0847C17.5539 15.4583 18.6123 15.4799 19.2459 16.1351C19.9731 16.8767 19.8507 17.8775 18.8787 18.8279C19.0587 19.9079 19.2459 21.0167 19.4403 22.1759Z" fill="#7D50D0"/>
</g>
<defs>
<clipPath id="clip0_1_15747">
<rect width="36" height="36" fill="white" transform="translate(0 0.576172)"/>
</clipPath>
</defs>
</svg>
