<svg width="36" height="37" viewBox="0 0 36 37" fill="none" xmlns="http://www.w3.org/2000/svg">
<path d="M0.797801 2.29959C10.2392 11.7282 19.6305 21.1067 29.0605 30.5239C26.4954 33.0731 23.3966 34.675 19.7902 35.1315C11.283 36.2083 4.07387 31.642 1.43925 23.4825C0.969593 22.028 0.799818 20.4252 0.778434 18.8868C0.703338 13.4848 0.753162 8.08104 0.757626 2.67802C0.757698 2.56037 0.781961 2.44272 0.797801 2.29959ZM35.4322 34.5286C35.4333 29.1257 35.4532 23.7227 35.4233 18.32C35.3984 13.8434 33.7591 9.97579 30.5568 6.89549C25.3606 1.89718 19.254 0.852096 12.5403 3.26136C10.4512 4.0111 8.6314 5.26419 7.09795 6.8785C16.5311 16.3078 25.9032 25.676 35.3766 35.1456C35.4022 34.872 35.4322 34.7003 35.4322 34.5286Z" fill="#23A4BC"/>
</svg>
