<svg width="36" height="37" viewBox="0 0 36 37" fill="none" xmlns="http://www.w3.org/2000/svg">
<g clip-path="url(#clip0_1_15592)">
<path d="M23.5632 11.5385C26.2815 9.64068 27.763 7.11118 27.7427 3.76375C33.9328 7.38579 38.1618 16.6687 34.2817 25.6436C30.3798 34.6693 19.5459 38.7996 10.6501 34.6716C1.51267 30.4313 -2.37144 19.6044 2.03223 10.7149C6.65823 1.37674 17.349 -1.25875 24.981 2.21266C25.0908 4.3008 24.3751 6.13759 23.1021 7.7959C23.022 7.9003 22.9294 7.99527 22.842 8.09398C21.8109 9.25908 20.824 9.996 18.9576 9.73349C15.2371 9.21027 12.2201 10.8033 10.3335 14.0827C8.44815 17.3599 8.67156 20.6752 10.869 23.7512C13.2032 27.0185 17.4463 28.225 21.1604 26.8035C24.9087 25.3689 27.2602 21.6056 26.8521 17.6062C26.6301 15.4303 25.6913 13.5742 24.1204 12.0453C23.9551 11.8845 23.7793 11.7345 23.5632 11.5385Z" fill="#4D93DF"/>
</g>
<defs>
<clipPath id="clip0_1_15592">
<rect width="36" height="36" fill="white" transform="translate(0 0.576172)"/>
</clipPath>
</defs>
</svg>
