<svg width="36" height="37" viewBox="0 0 36 37" fill="none" xmlns="http://www.w3.org/2000/svg">
<g clip-path="url(#clip0_1_15434)">
<path d="M28.6418 9.68368C26.1938 9.68368 25.1283 10.9797 23.1987 10.9797C21.9747 10.9797 21.2187 10.3677 20.2826 9.69808C19.0011 8.76208 16.5098 5.89648 11.909 5.89648C5.55145 5.89648 -0.0357511 11.1957 0.000248868 18.5757C-0.0429511 25.9485 5.54425 31.2549 11.909 31.2549C16.5098 31.2549 19.001 28.3893 20.2898 27.4605C21.2186 26.7837 21.9746 26.1717 23.2058 26.1717C25.1354 26.1717 26.201 27.4677 28.649 27.4677C32.8755 27.4677 36.0075 23.4285 36.0075 18.5541C36.0075 13.6797 32.861 9.68368 28.6418 9.68368ZM28.8075 23.0613C27.9939 23.0613 27.4539 22.7589 26.7627 22.3845C25.7619 21.8517 24.4226 21.2613 23.033 21.2613C20.7866 21.2613 19.1523 22.3197 17.921 23.0901C16.8267 23.7885 15.7323 24.4869 13.8531 24.4869C10.8938 24.4869 8.28745 21.9453 8.28745 18.5973C8.28745 15.2493 10.8938 12.7005 13.8531 12.7005C15.7323 12.7005 16.8267 13.3989 17.921 14.0973C19.1451 14.8605 20.7794 15.9045 23.033 15.9045C24.4226 15.9045 25.7619 15.3213 26.7627 14.7813C27.4539 14.4069 27.9939 14.1045 28.8075 14.1045C30.7443 14.1045 32.1771 16.1565 32.1771 18.5757C32.1771 20.9949 30.7371 23.0613 28.8075 23.0613Z" fill="url(#paint0_linear_1_15434)"/>
</g>
<defs>
<linearGradient id="paint0_linear_1_15434" x1="0.000248868" y1="18.5757" x2="36.0002" y2="18.5757" gradientUnits="userSpaceOnUse">
<stop stop-color="#31EDA9"/>
<stop offset="0.06" stop-color="#71EF74"/>
<stop offset="0.13" stop-color="#AEF043"/>
<stop offset="0.18" stop-color="#DAF11E"/>
<stop offset="0.22" stop-color="#F5F208"/>
<stop offset="0.25" stop-color="#FFF200"/>
<stop offset="0.27" stop-color="#FEDC0E"/>
<stop offset="0.38" stop-color="#FA685A"/>
<stop offset="0.46" stop-color="#F71F89"/>
<stop offset="0.5" stop-color="#F0059E"/>
<stop offset="0.56" stop-color="#BE21AB"/>
<stop offset="0.61" stop-color="#9239B7"/>
<stop offset="0.66" stop-color="#6C4EC1"/>
<stop offset="0.72" stop-color="#4E5FCA"/>
<stop offset="0.78" stop-color="#376CD0"/>
<stop offset="0.84" stop-color="#2675D4"/>
<stop offset="0.91" stop-color="#1C7AD7"/>
<stop offset="1" stop-color="#197CD8"/>
</linearGradient>
<clipPath id="clip0_1_15434">
<rect width="36" height="36" fill="white" transform="translate(0 0.576172)"/>
</clipPath>
</defs>
</svg>
