<svg width="36" height="37" viewBox="0 0 36 37" fill="none" xmlns="http://www.w3.org/2000/svg">
<g clip-path="url(#clip0_1_15433)">
<path fill-rule="evenodd" clip-rule="evenodd" d="M10.2092 23.6808C10.1012 24.0624 9.76285 24.156 9.46045 23.8824L3.45565 18.6624C3.14605 18.396 3.21805 18.0576 3.60685 17.9064L12.0236 14.7672C12.4124 14.6232 12.6501 14.8104 12.542 15.192L10.2092 23.6808Z" fill="#404971"/>
<path fill-rule="evenodd" clip-rule="evenodd" d="M5.57981 28.555C5.27021 28.8142 4.95341 28.7062 4.88141 28.3174L3.28301 19.7494C3.21101 19.3606 3.39821 19.2598 3.69341 19.5334L9.25181 24.5518C9.55421 24.8254 9.53981 25.2574 9.23021 25.5166L5.57981 28.555Z" fill="#546096"/>
<path fill-rule="evenodd" clip-rule="evenodd" d="M12.4196 12.7805C12.7004 13.1045 12.5996 13.4933 12.2036 13.6517L3.76524 16.9997C3.36924 17.1581 3.16764 16.9637 3.31884 16.5605L6.78204 7.30852C6.93324 6.91252 7.27884 6.84772 7.55964 7.17172L12.4196 12.7805Z" fill="#546096"/>
<path fill-rule="evenodd" clip-rule="evenodd" d="M4.0175 27.5768C4.0967 27.9872 3.9671 28.0376 3.7223 27.6848L0.331103 22.7528C0.0935031 22.4072 0.107903 21.8456 0.374303 21.5144L1.8935 19.5992C2.1599 19.268 2.4407 19.3256 2.5199 19.736L4.0175 27.5768Z" fill="#546096"/>
<path fill-rule="evenodd" clip-rule="evenodd" d="M2.59166 15.9843C2.44766 16.3731 2.21726 16.3731 2.08766 15.9771L0.986065 12.6795C0.856465 12.2835 1.00046 11.7291 1.31006 11.4483L5.23406 7.89872C5.54366 7.61792 5.68047 7.71153 5.53647 8.10033L2.59166 15.9843Z" fill="#546096"/>
<path fill-rule="evenodd" clip-rule="evenodd" d="M1.66306 16.5814C1.77826 16.9486 1.69186 17.4958 1.47586 17.8054L0.496663 19.1878C0.280663 19.4974 0.129463 19.4326 0.165463 19.051L0.633463 14.2486C0.669463 13.867 0.799063 13.8526 0.907063 14.2198L1.66306 16.5814Z" fill="#546096"/>
<path fill-rule="evenodd" clip-rule="evenodd" d="M6.31427 5.46406C6.45107 5.60806 6.31427 5.92486 6.01187 6.16966L4.30547 7.57366C4.00307 7.81846 3.95267 7.78246 4.19747 7.48726L5.63027 5.74486C5.86787 5.44966 6.17747 5.32726 6.31427 5.46406Z" fill="#546096"/>
<path fill-rule="evenodd" clip-rule="evenodd" d="M16.5167 33.0762C16.3079 33.4362 15.9407 33.4506 15.7103 33.105L11.1383 26.4666C10.9007 26.1282 11.0519 25.8114 11.4623 25.7682L20.6567 24.825C21.0671 24.7818 21.2399 25.041 21.0239 25.401L16.5167 33.0762Z" fill="#546096"/>
<path fill-rule="evenodd" clip-rule="evenodd" d="M14.7885 32.9321C15.0189 33.2705 14.8965 33.4433 14.5005 33.3065L5.9325 30.4121C5.5437 30.2825 5.4789 29.9513 5.7885 29.6849L9.4605 26.5385C9.7701 26.2721 10.2237 26.3297 10.4541 26.6681L14.7885 32.9321Z" fill="#546096"/>
<path fill-rule="evenodd" clip-rule="evenodd" d="M20.9668 23.1984C21.2332 23.5152 21.118 23.8032 20.7148 23.8464L11.5996 24.8112C11.1964 24.8544 10.9444 24.5592 11.0524 24.156L13.3348 15.0768C13.4356 14.6736 13.738 14.6016 13.9972 14.9184L20.9668 23.1984Z" fill="#15F9FF"/>
<path fill-rule="evenodd" clip-rule="evenodd" d="M27.9502 30.5856C28.2166 30.9024 28.1086 31.2336 27.7126 31.32L18.4462 33.336C18.0502 33.4224 17.8918 33.1992 18.0934 32.832L22.4638 25.1136C22.6654 24.7536 23.0542 24.7176 23.3134 25.0344L27.9502 30.5856Z" fill="#546096"/>
<path fill-rule="evenodd" clip-rule="evenodd" d="M12.6649 35.5682C12.3193 35.7698 11.7937 35.705 11.4985 35.417L7.32971 31.3562C7.03451 31.0682 7.09931 30.9458 7.47371 31.0898L14.6161 33.7682C14.9905 33.905 15.0121 34.193 14.6665 34.3946L12.6649 35.5682Z" fill="#546096"/>
<path fill-rule="evenodd" clip-rule="evenodd" d="M23.2124 36.2157C22.9028 36.4749 22.3556 36.5397 22.0028 36.3525L19.0364 34.8045C18.6764 34.6173 18.7052 34.3941 19.1012 34.3077L26.978 32.6013C27.3668 32.5149 27.4388 32.6589 27.1292 32.9181L23.2124 36.2157Z" fill="#546096"/>
<path fill-rule="evenodd" clip-rule="evenodd" d="M14.4864 36.2378C14.0472 36.2234 14.004 36.0578 14.3928 35.8706L16.128 35.0498C16.5168 34.8698 17.1504 34.8626 17.5392 35.0354L20.0736 36.173C20.4624 36.3458 20.4264 36.4754 19.9872 36.461L14.4864 36.2378Z" fill="#546096"/>
<path fill-rule="evenodd" clip-rule="evenodd" d="M29.5988 31.8969C29.7428 32.0841 29.5484 32.4225 29.1596 32.6529L26.8628 33.9993C26.474 34.2297 26.438 34.1649 26.7764 33.8553L28.7132 32.1201C29.0516 31.8105 29.4548 31.7097 29.5988 31.8969Z" fill="#546096"/>
<path fill-rule="evenodd" clip-rule="evenodd" d="M23.9908 22.4352C23.602 22.5792 23.3644 22.392 23.4724 22.0104L25.8124 13.5288C25.9204 13.1472 26.2588 13.0536 26.5684 13.3272L32.5732 18.5472C32.8828 18.8136 32.8108 19.152 32.422 19.3032L23.9908 22.4352Z" fill="#404971"/>
<path fill-rule="evenodd" clip-rule="evenodd" d="M32.7385 17.4606C32.8105 17.8494 32.6233 17.9502 32.3281 17.6766L26.7697 12.6582C26.4673 12.3846 26.4817 11.9526 26.7913 11.6934L30.4417 8.65495C30.7513 8.39575 31.0681 8.50375 31.1401 8.89255L32.7385 17.4606Z" fill="#546096"/>
<path fill-rule="evenodd" clip-rule="evenodd" d="M29.2396 29.9098C29.0884 30.3058 28.7427 30.3706 28.4619 30.0466L23.6019 24.4378C23.3211 24.1138 23.4219 23.725 23.8179 23.5666L32.2564 20.2114C32.6524 20.053 32.854 20.2474 32.7028 20.6434L29.2396 29.9098Z" fill="#546096"/>
<path fill-rule="evenodd" clip-rule="evenodd" d="M35.6904 14.4577C35.928 14.8105 35.9136 15.3649 35.6472 15.6961L34.128 17.6113C33.8616 17.9425 33.5808 17.8849 33.5016 17.4745L31.9968 9.62648C31.9176 9.21608 32.0472 9.16568 32.292 9.51848L35.6904 14.4577Z" fill="#546096"/>
<path fill-rule="evenodd" clip-rule="evenodd" d="M35.0277 24.5311C35.1573 24.9271 35.0133 25.4815 34.7037 25.7623L30.7797 29.3119C30.4701 29.5927 30.3333 29.4991 30.4773 29.1103L33.4149 21.2263C33.5589 20.8375 33.7893 20.8375 33.9189 21.2335L35.0277 24.5311Z" fill="#546096"/>
<path fill-rule="evenodd" clip-rule="evenodd" d="M35.3806 22.9689C35.3446 23.3505 35.215 23.3649 35.0998 22.9977L34.351 20.6289C34.2358 20.2617 34.3222 19.7145 34.5382 19.4049L35.5174 18.0225C35.7334 17.7129 35.8846 17.7777 35.8486 18.1593L35.3806 22.9689Z" fill="#546096"/>
<path fill-rule="evenodd" clip-rule="evenodd" d="M30.3836 31.4634C30.1388 31.7586 29.8292 31.881 29.6996 31.7442C29.5628 31.6002 29.6996 31.2834 30.002 31.0386L31.7156 29.6346C32.018 29.3898 32.0684 29.4258 31.8236 29.721L30.3836 31.4634Z" fill="#546096"/>
<path fill-rule="evenodd" clip-rule="evenodd" d="M24.1059 10.7424C24.3435 11.0808 24.1923 11.3976 23.7819 11.4408L14.5875 12.384C14.1771 12.4272 14.0115 12.168 14.2203 11.808L18.7203 4.13276C18.9291 3.77276 19.2963 3.75836 19.5267 4.10396L24.1059 10.7424Z" fill="#404971"/>
<path fill-rule="evenodd" clip-rule="evenodd" d="M26.554 10.6699C26.2444 10.9363 25.7908 10.8787 25.5604 10.5403L21.2332 4.26908C20.9956 3.93068 21.1252 3.75788 21.5212 3.89468L30.0892 6.78908C30.478 6.91868 30.5428 7.24988 30.2332 7.51628L26.554 10.6699Z" fill="#546096"/>
<path fill-rule="evenodd" clip-rule="evenodd" d="M22.6872 22.1331C22.5864 22.5363 22.284 22.6083 22.0248 22.2915L15.048 14.0115C14.7816 13.6947 14.8968 13.4067 15.3 13.3635L24.4152 12.3987C24.8184 12.3555 25.0704 12.6507 24.9624 13.0539L22.6872 22.1331Z" fill="#546096"/>
<path fill-rule="evenodd" clip-rule="evenodd" d="M13.5507 12.0964C13.3491 12.4564 12.9603 12.4924 12.6939 12.1756L8.06429 6.62443C7.79789 6.30763 7.90589 5.97643 8.30189 5.89003L17.5683 3.87403C17.9643 3.78763 18.1227 4.01083 17.9211 4.37803L13.5507 12.0964Z" fill="#546096"/>
<path fill-rule="evenodd" clip-rule="evenodd" d="M21.4052 3.44947C21.0308 3.31267 21.0092 3.02467 21.362 2.82307L23.3492 1.64227C23.6948 1.44067 24.2204 1.50547 24.5156 1.79347L28.6844 5.85427C28.9796 6.14227 28.9148 6.26467 28.5404 6.12067L21.4052 3.44947Z" fill="#546096"/>
<path fill-rule="evenodd" clip-rule="evenodd" d="M9.04337 4.60865C8.65457 4.69505 8.58257 4.55105 8.89217 4.29185L12.809 0.994254C13.1186 0.735054 13.6658 0.670254 14.0186 0.857454L16.985 2.40545C17.345 2.59265 17.3162 2.81585 16.9202 2.89505L9.04337 4.60865Z" fill="#546096"/>
<path fill-rule="evenodd" clip-rule="evenodd" d="M19.8933 2.16034C19.5045 2.34034 18.8709 2.34754 18.4821 2.17474L15.9477 1.03714C15.5589 0.86434 15.5949 0.73474 16.0341 0.74914L21.5277 0.97954C21.9669 0.99394 22.0101 1.15954 21.6213 1.34674L19.8933 2.16034Z" fill="#546096"/>
<path fill-rule="evenodd" clip-rule="evenodd" d="M7.30121 5.09864C6.96281 5.40104 6.55961 5.50184 6.41561 5.31464C6.27161 5.12744 6.46601 4.78904 6.85481 4.55864L9.15161 3.21224C9.54041 2.98184 9.57641 3.04664 9.23801 3.35624L7.30121 5.09864Z" fill="#546096"/>
<path fill-rule="evenodd" clip-rule="evenodd" d="M4.87441 30.3051C5.01841 30.1683 5.33521 30.3051 5.58001 30.6075L6.98401 32.3139C7.22881 32.6163 7.19281 32.6667 6.89761 32.4219L5.15521 30.9891C4.86001 30.7443 4.73041 30.4347 4.87441 30.3051Z" fill="#546096"/>
<path fill-rule="evenodd" clip-rule="evenodd" d="M31.298 7.01229C31.4852 6.86829 31.8236 7.06269 32.054 7.45149L33.4004 9.74829C33.6308 10.1371 33.566 10.1731 33.2564 9.83469L31.5212 7.89789C31.2044 7.55229 31.1108 7.15629 31.298 7.01229Z" fill="#546096"/>
<path fill-rule="evenodd" clip-rule="evenodd" d="M30.8667 6.2211C31.1619 6.4659 31.2843 6.7755 31.1475 6.9051C31.0035 7.04189 30.6867 6.90509 30.4419 6.60269L29.0379 4.89629C28.7931 4.59389 28.8291 4.54349 29.1243 4.78829L30.8667 6.2211Z" fill="#546096"/>
<path fill-rule="evenodd" clip-rule="evenodd" d="M3.72914 29.3186C4.03154 29.657 4.13234 30.0602 3.94514 30.2042C3.75794 30.3482 3.41954 30.1538 3.19634 29.765L1.84994 27.4682C1.61954 27.0794 1.68434 27.0434 1.99394 27.3818L3.72914 29.3186Z" fill="#546096"/>
</g>
<defs>
<clipPath id="clip0_1_15433">
<rect width="36" height="36" fill="white" transform="translate(0 0.576172)"/>
</clipPath>
</defs>
</svg>
