<svg width="36" height="37" viewBox="0 0 36 37" fill="none" xmlns="http://www.w3.org/2000/svg">
<g clip-path="url(#clip0_1_15432)">
<path fill-rule="evenodd" clip-rule="evenodd" d="M17.9636 24.761C21.398 24.761 24.1844 21.9746 24.1844 18.5402C24.1844 15.1058 21.398 12.3194 17.9636 12.3194C14.5292 12.3194 11.7428 15.1058 11.7428 18.5402C11.7428 21.9746 14.5292 24.761 17.9636 24.761ZM17.9636 7.76177C23.918 7.76177 28.742 12.5858 28.742 18.5402C28.742 24.4946 23.918 29.3186 17.9636 29.3186C12.0092 29.3186 7.18524 24.4946 7.18524 18.5402C7.18524 12.5858 12.0164 7.76177 17.9636 7.76177ZM35.9276 18.1586V18.1802C35.9276 19.037 35.2364 19.7354 34.3796 19.7354C33.5228 19.7354 32.8244 19.037 32.8316 18.1802V18.1586C32.8244 10.1666 26.366 3.68657 18.3956 3.68657H18.3884H18.3236C17.4668 3.68657 16.7684 2.98817 16.7756 2.13137C16.7756 1.27457 17.4668 0.576172 18.3236 0.576172C18.3452 0.576172 18.3668 0.576172 18.3884 0.576172H18.3956C28.0724 0.576172 35.9276 8.44577 35.9276 18.1586ZM33.53 21.3338C34.4156 21.3338 35.1284 22.0466 35.1284 22.9322C35.1284 23.8178 34.4156 24.5306 33.53 24.5306C32.6444 24.5306 31.9316 23.8178 31.9316 22.9322C31.9316 22.0466 32.6516 21.3338 33.53 21.3338ZM17.6108 33.3866C18.4676 33.3866 19.166 34.085 19.1588 34.9418C19.1588 35.7986 18.4676 36.497 17.6108 36.497C17.5892 36.497 17.5676 36.497 17.546 36.497H17.798C16.3796 36.5186 14.9684 36.3674 13.586 36.0506C5.81004 34.2506 0.00683594 27.2666 0.00683594 18.9218V18.9002C0.00683594 18.0434 0.698036 17.345 1.55484 17.345C2.41164 17.345 3.11004 18.0434 3.11004 18.9002C3.11004 18.9074 3.11004 18.9074 3.11004 18.9146H3.11724V18.9218C3.11724 25.8482 7.97004 31.637 14.4572 33.0626C15.4508 33.2786 16.4876 33.3938 17.546 33.3938H17.5532L17.6108 33.3866ZM2.39724 15.7466C1.51164 15.7466 0.798836 15.0338 0.798836 14.1482C0.798836 13.2626 1.51164 12.5498 2.39724 12.5498C3.28284 12.5498 3.99564 13.2626 3.99564 14.1482C3.99564 15.0266 3.28284 15.7466 2.39724 15.7466Z" fill="url(#paint0_linear_1_15432)"/>
</g>
<defs>
<linearGradient id="paint0_linear_1_15432" x1="0.00326578" y1="18.5388" x2="35.9276" y2="18.5388" gradientUnits="userSpaceOnUse">
<stop stop-color="#006BB8"/>
<stop offset="1" stop-color="#00B288"/>
</linearGradient>
<clipPath id="clip0_1_15432">
<rect width="36" height="36" fill="white" transform="translate(0 0.576172)"/>
</clipPath>
</defs>
</svg>
