<svg width="36" height="37" viewBox="0 0 36 37" fill="none" xmlns="http://www.w3.org/2000/svg">
<path d="M29.9593 18.6485C29.9593 21.3125 29.2609 23.8109 28.0297 25.9709C28.0081 26.0141 27.9793 26.0573 27.9505 26.1005C27.3961 27.0149 26.3881 27.6269 25.2433 27.6269C23.4937 27.6269 22.0753 26.2085 22.0753 24.4589C22.0753 23.9261 22.2121 23.4149 22.4425 22.9757C22.4713 22.9253 22.5001 22.8749 22.5289 22.8173C22.5289 22.8101 22.5361 22.8101 22.5361 22.8101C22.5649 22.7525 22.5937 22.7021 22.6297 22.6445C23.5441 20.9741 24.0625 19.0517 24.0625 17.0141C24.0697 10.5197 18.8065 5.25652 12.3121 5.25652C9.44649 5.25652 6.82569 6.27892 4.78809 7.97812C7.45929 5.39332 11.1025 3.79492 15.1129 3.79492C23.3137 3.79492 29.9593 10.4477 29.9593 18.6485Z" fill="url(#paint0_linear_1_15431)"/>
<path d="M22.6371 22.6439C23.2779 21.4343 23.6379 20.0591 23.6379 18.5975C23.6379 13.8239 19.7715 9.95026 14.9907 9.95026C10.2171 9.95026 6.34349 13.8167 6.34349 18.5975C6.34349 23.3711 10.2171 27.2447 14.9907 27.2447C18.0291 27.2447 20.7075 25.6751 22.2483 23.3063C20.1675 26.5967 16.4883 28.7783 12.3123 28.7783C5.81789 28.7783 0.554688 23.5151 0.554688 17.0207C0.554688 16.3007 0.619488 15.5879 0.741888 14.9039C1.44029 12.2327 2.85869 9.84946 4.78109 7.98466C6.82589 6.27826 9.44669 5.25586 12.3123 5.25586C18.8067 5.25586 24.0699 10.5191 24.0699 17.0135C24.0699 19.0511 23.5515 20.9663 22.6371 22.6439Z" fill="url(#paint1_linear_1_15431)"/>
<path d="M29.7361 8.71236C31.3545 8.71236 32.6665 7.40038 32.6665 5.78196C32.6665 4.16355 31.3545 2.85156 29.7361 2.85156C28.1176 2.85156 26.8057 4.16355 26.8057 5.78196C26.8057 7.40038 28.1176 8.71236 29.7361 8.71236Z" fill="url(#paint2_linear_1_15431)"/>
<path d="M35.5756 13.7945C35.5756 12.0953 34.1932 10.7129 32.494 10.7129C32.0692 10.7129 31.666 10.7993 31.2988 10.9505C29.8012 11.4617 28.4044 12.3113 27.1084 13.4489L28.4116 22.1825C29.4052 19.9145 30.9388 17.6825 33.5524 16.6889C33.5596 16.6889 33.5668 16.6817 33.5668 16.6817C33.5812 16.6745 33.6028 16.6673 33.6172 16.6601C34.762 16.2137 35.5756 15.0977 35.5756 13.7945Z" fill="url(#paint3_linear_1_15431)"/>
<path d="M30.8233 15.9195C30.8233 14.2203 29.4409 12.8379 27.7417 12.8379C26.7049 12.8379 25.7833 13.3491 25.2289 14.1411C25.1785 14.2131 25.1281 14.2923 25.0777 14.3715C23.1553 17.3883 22.0465 20.5995 21.9961 24.0771L28.0657 25.8843C28.5625 25.1931 28.8073 24.2139 28.8145 23.4291C28.8361 20.5635 29.1097 19.4187 30.1681 17.8203C30.5785 17.2947 30.8233 16.6323 30.8233 15.9195Z" fill="url(#paint4_linear_1_15431)"/>
<path d="M25.2506 21.2914C24.1058 21.2914 23.105 21.8962 22.5506 22.8034L22.5434 22.8106C22.5146 22.861 22.4858 22.9114 22.457 22.969C22.3922 23.077 22.3274 23.185 22.2554 23.293C20.1746 26.5834 16.4954 28.765 12.3194 28.765C5.825 28.765 0.561802 23.5018 0.561802 17.0074C0.561802 16.2874 0.626602 15.5746 0.749002 14.8906C0.432202 16.093 0.266602 17.353 0.266602 18.649C0.266602 26.8498 6.9122 33.4954 15.113 33.4954C20.5922 33.4954 25.3802 30.5218 27.9506 26.101C27.9794 26.0578 28.001 26.0146 28.0298 25.9714C28.2746 25.525 28.4114 25.0066 28.4114 24.4594C28.4114 22.7098 26.993 21.2914 25.2506 21.2914Z" fill="url(#paint5_linear_1_15431)"/>
<defs>
<linearGradient id="paint0_linear_1_15431" x1="4.78638" y1="15.7108" x2="29.9594" y2="15.7108" gradientUnits="userSpaceOnUse">
<stop stop-color="#4B83BC"/>
<stop offset="1" stop-color="#70C3D5"/>
</linearGradient>
<linearGradient id="paint1_linear_1_15431" x1="0.580939" y1="17.0119" x2="23.8394" y2="17.0119" gradientUnits="userSpaceOnUse">
<stop stop-color="#A1D5D9"/>
<stop offset="1" stop-color="#3866B0"/>
</linearGradient>
<linearGradient id="paint2_linear_1_15431" x1="27.7173" y1="8.70107" x2="31.1583" y2="3.73076" gradientUnits="userSpaceOnUse">
<stop stop-color="#59388D"/>
<stop offset="1" stop-color="#E06EA6"/>
</linearGradient>
<linearGradient id="paint3_linear_1_15431" x1="28.7529" y1="20.0568" x2="32.7674" y2="10.5622" gradientUnits="userSpaceOnUse">
<stop stop-color="#FFE080"/>
<stop offset="1" stop-color="#FF753E"/>
</linearGradient>
<linearGradient id="paint4_linear_1_15431" x1="21.9908" y1="19.3581" x2="30.8199" y2="19.3581" gradientUnits="userSpaceOnUse">
<stop stop-color="#59388D"/>
<stop offset="1" stop-color="#E06EA6"/>
</linearGradient>
<linearGradient id="paint5_linear_1_15431" x1="0.266803" y1="24.1932" x2="28.4122" y2="24.1932" gradientUnits="userSpaceOnUse">
<stop offset="0.155" stop-color="#529FC1"/>
<stop offset="0.7646" stop-color="#FF7714"/>
</linearGradient>
</defs>
</svg>
