<svg width="36" height="37" viewBox="0 0 36 37" fill="none" xmlns="http://www.w3.org/2000/svg">
<g clip-path="url(#clip0_1_15430)">
<path d="M34.4018 6.94097C34.0346 5.52977 32.8538 4.11857 30.737 2.54897C29.0378 1.29617 27.2306 0.576172 25.7906 0.576172C25.5026 0.576172 25.2434 0.604972 24.977 0.655372C24.3218 0.784972 23.7458 1.26737 23.3786 1.98737C22.9322 2.83697 22.8314 3.98177 23.1194 4.68017C23.2274 4.89617 23.357 5.16257 23.5154 5.40017C22.1258 6.24977 21.341 6.49457 21.2402 6.51617C24.8546 7.74017 27.8642 10.2962 29.7506 13.6226L29.7794 13.3058C29.8586 12.4274 30.1178 11.4122 30.485 10.3754C30.8522 10.4834 31.2194 10.5338 31.5866 10.5338C32.5586 10.5338 33.3938 10.1378 33.9194 9.41777C34.4306 8.69777 34.6394 7.74017 34.4018 6.94097Z" fill="#5E12A0"/>
<path d="M30.6364 9.60571C33.0196 10.2681 33.9844 8.41051 33.6748 7.15771C33.3364 5.90492 32.2348 4.63051 30.298 3.19052C28.3612 1.75052 26.3956 1.16732 25.1428 1.43372C23.8828 1.70012 23.5228 3.64412 23.8324 4.39292C23.962 4.68812 24.25 5.11291 24.646 5.58811C24.1492 5.93371 23.674 6.20012 23.2852 6.43772C25.69 7.53211 27.7852 9.23132 29.3548 11.3625C29.5348 10.6425 29.8012 10.0017 30.0388 9.44731C30.2188 9.46891 30.4276 9.52652 30.6364 9.60571Z" fill="url(#paint0_radial_1_15430)"/>
<path d="M16.9995 35.6984C25.0779 35.6984 31.6299 29.0312 31.6299 20.816C31.6299 12.6008 25.0779 5.93359 16.9995 5.93359C8.92114 5.93359 2.36914 12.6008 2.36914 20.816C2.36914 29.0312 8.91394 35.6984 16.9995 35.6984Z" fill="url(#paint1_radial_1_15430)"/>
<path opacity="0.6" d="M32.4647 5.92668C30.4775 3.79548 28.7999 3.24108 26.7839 2.78748C25.2143 2.41308 25.6319 1.50588 27.5399 1.69308C26.6255 1.37628 25.7615 1.29708 25.1351 1.42668C23.8751 1.69308 23.5151 3.63708 23.8247 4.38588C23.9543 4.68108 24.2423 5.10588 24.6383 5.58108C23.9327 6.06348 23.3279 6.40908 22.8311 6.67548C23.0687 6.78348 23.3567 6.91308 23.6951 7.10028C24.5879 7.58268 25.5527 8.38189 25.5527 8.38189C24.0839 7.10028 24.4007 6.51708 26.4167 5.07708C27.0431 4.62348 28.1951 4.68108 29.2679 5.23548C30.3407 5.78988 31.6007 7.20828 31.6007 7.20828L30.3983 9.54828C30.4775 9.57708 30.5567 9.59868 30.6359 9.62748C31.3919 9.84348 31.9967 9.78588 32.4647 9.59869C33.0191 9.26028 34.4591 8.08668 32.4647 5.92668Z" fill="#A98698"/>
<path d="M26.7625 4.06132C27.2881 4.27732 27.9649 4.64452 28.8073 5.20612C29.8009 5.86852 30.6649 6.61732 31.2121 7.20052C30.2977 8.42452 29.6929 10.1021 29.3257 11.2757C29.5057 11.5421 29.7217 11.8085 29.9017 12.0749C30.0817 11.4125 30.3985 10.4261 30.8161 9.43972C30.9241 9.46852 31.0537 9.46852 31.1833 9.46852C31.5001 9.46852 31.8673 9.41812 32.1553 9.17332C32.3641 9.01492 32.6017 8.71972 32.5729 8.18692C32.5729 7.68292 32.1769 7.04212 31.3705 6.27172C30.7945 5.71012 30.0097 5.09812 29.2249 4.54372C26.9713 3.02452 25.4017 2.59972 24.6961 3.31972C24.2281 3.80212 24.2785 4.38532 24.4369 4.81012C23.6017 5.37172 22.8889 5.76772 22.4209 6.03412C22.7377 6.14212 23.0257 6.27172 23.3353 6.40852C24.1705 5.95492 25.3729 5.18452 26.7625 4.06132ZM31.7089 7.87012C31.7881 7.99972 31.8169 8.13652 31.8169 8.21572C31.8169 8.45332 31.7377 8.53252 31.6873 8.59012C31.5793 8.66932 31.3705 8.71972 31.1905 8.71972C31.3417 8.40292 31.5217 8.13652 31.7089 7.87012ZM25.2433 3.90292C25.3225 3.82372 25.5313 3.77332 25.8697 3.82372C25.6105 4.03972 25.3441 4.21972 25.0849 4.40692C25.0561 4.22692 25.0849 4.03972 25.2433 3.90292Z" fill="#5E12A0"/>
<path d="M16.9993 5.04688C8.43848 5.04688 1.50488 12.1029 1.50488 20.8077C1.50488 29.5125 8.43848 36.5757 16.9993 36.5757C25.5601 36.5757 32.4937 29.5197 32.4937 20.8149C32.4937 12.1101 25.5313 5.04688 16.9993 5.04688ZM16.9993 35.6973C8.91368 35.6973 2.36888 29.0373 2.36888 20.8149C2.36888 12.5925 8.90648 5.92528 16.9993 5.92528C25.0849 5.92528 31.6297 12.5853 31.6297 20.8077C31.6297 29.0301 25.0561 35.6973 16.9993 35.6973Z" fill="#5E12A0"/>
<path opacity="0.6" d="M16.9995 35.6984C25.0779 35.6984 31.6299 29.0312 31.6299 20.816C31.6299 12.6008 25.0779 5.93359 16.9995 5.93359C8.92114 5.93359 2.36914 12.6008 2.36914 20.816C2.36914 29.0312 8.91394 35.6984 16.9995 35.6984Z" fill="url(#paint2_linear_1_15430)"/>
<path opacity="0.6" d="M16.8909 33.883C8.90609 32.5798 3.49169 24.9334 4.79489 16.8118C5.37089 13.219 7.14929 10.1518 9.66209 7.94141C5.99729 10.1014 3.27569 13.8526 2.54129 18.4318C1.25969 26.5534 6.67409 34.1926 14.6373 35.503C19.0869 36.2518 23.3781 34.8406 26.5461 32.0686C23.7525 33.7246 20.3469 34.4446 16.8909 33.883Z" fill="#A98698"/>
<path opacity="0.6" d="M19.3243 6.14152C15.6307 5.52952 12.0451 6.37912 9.11474 8.27272C9.06434 8.32312 9.00674 8.38072 9.00674 8.38072C10.1299 7.68952 11.7787 7.07752 11.7787 7.07752C7.53794 9.58312 6.22754 12.4271 6.22754 12.4271C7.87634 9.17992 12.7219 6.89032 16.5163 6.73192C20.3107 6.57352 22.8019 7.71832 25.8331 10.1951C28.8715 12.7007 30.7003 17.8127 30.5203 21.8591C30.3619 25.9055 28.2667 29.1815 28.2667 29.1815C29.7067 27.2879 30.5707 25.9055 31.1179 24.4943C31.2259 24.0695 31.3267 23.6447 31.3771 23.1911C32.7019 15.0911 27.3091 7.44472 19.3243 6.14152Z" fill="url(#paint3_linear_1_15430)"/>
<path d="M30.8954 20.6777C30.8954 28.4825 24.6674 34.8185 16.9922 34.8185C9.31698 34.8185 3.06738 28.4825 3.06738 20.6777H30.8954Z" fill="url(#paint4_linear_1_15430)"/>
<g opacity="0.6">
<path opacity="0.6" d="M29.7931 20.6777C29.7931 28.2953 23.8747 34.5233 16.4443 34.8185C16.6243 34.8185 16.8115 34.8185 16.9915 34.8185C24.6595 34.8185 30.8947 28.4825 30.8947 20.6777H29.7931Z" fill="url(#paint5_linear_1_15430)"/>
</g>
<g opacity="0.7">
<path opacity="0.7" d="M5.03298 20.6777H3.06738C3.06738 28.4825 9.29538 34.8185 16.9706 34.8185C17.309 34.8185 17.6258 34.8185 17.9426 34.7897C10.7426 34.2569 5.03298 28.1369 5.03298 20.6777Z" fill="url(#paint6_linear_1_15430)"/>
</g>
<path d="M30.8734 20.8161C30.8734 19.1889 28.1014 18.2601 24.4078 17.9433C21.7366 17.7273 19.0438 17.9937 15.955 18.9585C13.2838 19.7577 10.879 19.6209 9.12222 19.4121C5.21982 18.9585 3.07422 18.9081 3.07422 20.8233C3.07422 23.5953 8.62542 27.0513 16.9486 25.8561C21.1606 25.2441 23.335 23.9913 25.819 23.1417C28.5118 22.2273 30.8734 22.2489 30.8734 20.8161Z" fill="url(#paint7_linear_1_15430)"/>
<path d="M21.5497 14.1057C22.8529 14.1057 23.9041 13.0329 23.9041 11.7081C23.9041 10.3833 22.8457 9.31055 21.5497 9.31055C20.2537 9.31055 19.1953 10.3833 19.1953 11.7081C19.1953 13.0329 20.2537 14.1057 21.5497 14.1057Z" fill="white"/>
<path d="M25.4018 15.8839C25.949 15.8839 26.3954 15.4303 26.3954 14.8687C26.3954 14.3071 25.949 13.8535 25.4018 13.8535C24.8546 13.8535 24.4082 14.3071 24.4082 14.8687C24.4082 15.4303 24.8474 15.8839 25.4018 15.8839Z" fill="white"/>
<g opacity="0.6">
<path opacity="0.6" d="M28.9589 9.79268C28.9301 9.79268 28.9085 9.79268 28.9085 9.79268C28.7501 9.76388 28.6493 9.60548 28.6709 9.41828C28.9085 8.19428 29.9021 7.02068 29.9525 6.97028C30.0605 6.84068 30.2693 6.84068 30.3701 6.94148C30.4997 7.04948 30.4997 7.25828 30.3989 7.36628C30.3701 7.39508 29.4557 8.48228 29.2469 9.54788C29.2181 9.71348 29.0885 9.79268 28.9589 9.79268Z" fill="url(#paint8_linear_1_15430)"/>
</g>
<path opacity="0.2" d="M16.0274 31.9175C16.4306 31.9175 16.7618 31.5863 16.7618 31.1687C16.7618 30.7583 16.4306 30.4199 16.0274 30.4199C15.6242 30.4199 15.293 30.7511 15.293 31.1687C15.3002 31.5791 15.6242 31.9175 16.0274 31.9175Z" fill="white"/>
<g opacity="0.4">
<path opacity="0.6" d="M15.6098 31.6516C15.3218 31.3564 15.3218 30.8812 15.6098 30.586C15.6602 30.5356 15.7178 30.5068 15.7682 30.4492C15.6602 30.478 15.5882 30.5284 15.509 30.6076C15.221 30.9028 15.221 31.378 15.509 31.6732C15.7466 31.9108 16.1138 31.9684 16.4018 31.8028C16.1354 31.918 15.8186 31.8676 15.6098 31.6516Z" fill="url(#paint9_linear_1_15430)"/>
</g>
<path opacity="0.3" d="M16.2863 30.9594C16.3727 30.9594 16.4447 30.8874 16.4447 30.801C16.4447 30.7146 16.3727 30.6426 16.2863 30.6426C16.1999 30.6426 16.1279 30.7146 16.1279 30.801C16.1351 30.8874 16.1999 30.9594 16.2863 30.9594Z" fill="white"/>
<path opacity="0.2" d="M19.8506 31.5425C20.2538 31.5425 20.585 31.2113 20.585 30.7937C20.585 30.3833 20.2538 30.0449 19.8506 30.0449C19.4474 30.0449 19.1162 30.3761 19.1162 30.7937C19.1162 31.2113 19.4474 31.5425 19.8506 31.5425Z" fill="white"/>
<g opacity="0.4">
<path opacity="0.6" d="M19.433 31.2772C19.145 30.982 19.145 30.5068 19.433 30.2116C19.4834 30.1612 19.541 30.1324 19.5914 30.082C19.4834 30.1108 19.4114 30.1612 19.3322 30.2404C19.0442 30.5356 19.0442 31.0108 19.3322 31.306C19.5698 31.5436 19.937 31.6012 20.225 31.4356C19.9514 31.5436 19.6418 31.4932 19.433 31.2772Z" fill="url(#paint10_linear_1_15430)"/>
</g>
<path opacity="0.3" d="M20.1096 30.5863C20.196 30.5863 20.268 30.5143 20.268 30.4279C20.268 30.3415 20.196 30.2695 20.1096 30.2695C20.0232 30.2695 19.9512 30.3415 19.9512 30.4279C19.9512 30.5143 20.0232 30.5863 20.1096 30.5863Z" fill="white"/>
<path opacity="0.2" d="M17.9642 33.2716C18.2666 33.2716 18.5114 33.0196 18.5114 32.71C18.5114 32.4004 18.2666 32.1484 17.9642 32.1484C17.6618 32.1484 17.417 32.4004 17.417 32.71C17.417 33.0268 17.6618 33.2716 17.9642 33.2716Z" fill="white"/>
<g opacity="0.4">
<path opacity="0.6" d="M17.6544 33.062C17.4456 32.846 17.4456 32.4788 17.6544 32.2628C17.6832 32.234 17.7336 32.2124 17.7624 32.1836C17.6832 32.2124 17.6328 32.2628 17.5824 32.3132C17.3736 32.5292 17.3736 32.8964 17.5824 33.1124C17.7624 33.2996 18.0288 33.3284 18.2664 33.1916C18.0432 33.278 17.8056 33.2204 17.6544 33.062Z" fill="url(#paint11_linear_1_15430)"/>
</g>
<path opacity="0.3" d="M18.151 32.5305C18.2086 32.5305 18.259 32.4801 18.259 32.4225C18.259 32.3649 18.2086 32.3145 18.151 32.3145C18.0934 32.3145 18.043 32.3649 18.043 32.4225C18.043 32.4801 18.0934 32.5305 18.151 32.5305Z" fill="white"/>
<path opacity="0.2" d="M21.3411 32.8752C21.6435 32.8752 21.8883 32.6232 21.8883 32.3136C21.8883 32.004 21.6435 31.752 21.3411 31.752C21.0387 31.752 20.7939 32.004 20.7939 32.3136C20.7939 32.6232 21.0387 32.8752 21.3411 32.8752Z" fill="white"/>
<g opacity="0.4">
<path opacity="0.6" d="M21.0313 32.6597C20.8225 32.4437 20.8225 32.0765 21.0313 31.8605C21.0601 31.8317 21.1105 31.81 21.1393 31.7812C21.0601 31.81 21.0097 31.8605 20.9593 31.9109C20.7505 32.1269 20.7505 32.494 20.9593 32.71C21.1393 32.8972 21.4057 32.926 21.6433 32.7892C21.4201 32.8756 21.1825 32.8253 21.0313 32.6597Z" fill="url(#paint12_linear_1_15430)"/>
</g>
<path opacity="0.3" d="M21.5279 32.1262C21.5855 32.1262 21.6359 32.0758 21.6359 32.0182C21.6359 31.9606 21.5855 31.9102 21.5279 31.9102C21.4703 31.9102 21.4199 31.9606 21.4199 32.0182C21.4199 32.083 21.4703 32.1262 21.5279 32.1262Z" fill="white"/>
<path opacity="0.2" d="M12.9094 31.6511C13.5718 31.6511 14.1118 31.1039 14.1118 30.4271C14.1118 29.7503 13.5718 29.2031 12.9094 29.2031C12.247 29.2031 11.707 29.7503 11.707 30.4271C11.707 31.1039 12.247 31.6511 12.9094 31.6511Z" fill="white"/>
<g opacity="0.4">
<path opacity="0.6" d="M12.233 31.1984C11.765 30.716 11.765 29.9456 12.233 29.4704C12.3122 29.3912 12.3914 29.3408 12.4922 29.2832C12.3338 29.3336 12.2042 29.4416 12.0746 29.5496C11.6066 30.032 11.6066 30.8024 12.0746 31.2776C12.4706 31.6736 13.0682 31.76 13.5434 31.4648C13.097 31.652 12.5714 31.5728 12.233 31.1984Z" fill="url(#paint13_linear_1_15430)"/>
</g>
<path opacity="0.3" d="M13.3344 30.0523C13.4784 30.0523 13.5936 29.9299 13.5936 29.7859C13.5936 29.6419 13.4784 29.5195 13.3344 29.5195C13.1904 29.5195 13.0752 29.6419 13.0752 29.7859C13.0752 29.9299 13.1904 30.0523 13.3344 30.0523Z" fill="white"/>
<path opacity="0.2" d="M23.6741 28.6414C24.3365 28.6414 24.8765 28.0942 24.8765 27.4174C24.8765 26.7406 24.3365 26.1934 23.6741 26.1934C23.0117 26.1934 22.4717 26.7406 22.4717 27.4174C22.4717 28.0942 23.0045 28.6414 23.6741 28.6414Z" fill="white"/>
<g opacity="0.4">
<path opacity="0.6" d="M22.9684 28.1886C22.5004 27.7062 22.5004 26.9358 22.9684 26.4606C23.0476 26.3814 23.1268 26.331 23.2276 26.2734C23.0692 26.3238 22.9396 26.4318 22.81 26.5398C22.342 27.0222 22.342 27.7926 22.81 28.2678C23.206 28.6638 23.8036 28.7502 24.2788 28.455C23.8324 28.6422 23.3284 28.563 22.9684 28.1886Z" fill="url(#paint14_linear_1_15430)"/>
</g>
<path opacity="0.3" d="M24.0912 27.0426C24.2352 27.0426 24.3504 26.9202 24.3504 26.7762C24.3504 26.6322 24.2352 26.5098 24.0912 26.5098C23.9472 26.5098 23.832 26.6322 23.832 26.7762C23.832 26.9274 23.9472 27.0426 24.0912 27.0426Z" fill="white"/>
</g>
<defs>
<radialGradient id="paint0_radial_1_15430" cx="0" cy="0" r="1" gradientUnits="userSpaceOnUse" gradientTransform="translate(33.1939 5.47619) scale(11.6994 11.9009)">
<stop stop-color="#FFEAFF" stop-opacity="0.6"/>
<stop offset="0.6807" stop-color="#A087C9"/>
<stop offset="1" stop-color="#10002F"/>
</radialGradient>
<radialGradient id="paint1_radial_1_15430" cx="0" cy="0" r="1" gradientUnits="userSpaceOnUse" gradientTransform="translate(26.685 10.5514) scale(28.6244 29.1173)">
<stop stop-color="#FFEAFF" stop-opacity="0.6"/>
<stop offset="0.6807" stop-color="#A087C9"/>
<stop offset="1" stop-color="#10002F"/>
</radialGradient>
<linearGradient id="paint2_linear_1_15430" x1="14.576" y1="35.4956" x2="19.4176" y2="6.13158" gradientUnits="userSpaceOnUse">
<stop stop-color="#81FFFF"/>
<stop offset="0.6202" stop-color="white" stop-opacity="0"/>
</linearGradient>
<linearGradient id="paint3_linear_1_15430" x1="27.4335" y1="10.8427" x2="15.145" y2="21.9269" gradientUnits="userSpaceOnUse">
<stop offset="0.2888" stop-color="white"/>
<stop offset="0.7796" stop-color="white" stop-opacity="0"/>
</linearGradient>
<linearGradient id="paint4_linear_1_15430" x1="3.07076" y1="27.7485" x2="30.8965" y2="27.7485" gradientUnits="userSpaceOnUse">
<stop stop-color="#0002E9"/>
<stop offset="0.9952" stop-color="#FF00C7"/>
</linearGradient>
<linearGradient id="paint5_linear_1_15430" x1="32.2788" y1="21.9985" x2="16.8999" y2="36.2864" gradientUnits="userSpaceOnUse">
<stop offset="0.2888" stop-color="white"/>
<stop offset="0.7796" stop-color="white" stop-opacity="0"/>
</linearGradient>
<linearGradient id="paint6_linear_1_15430" x1="3.07076" y1="27.7485" x2="17.9391" y2="27.7485" gradientUnits="userSpaceOnUse">
<stop stop-color="#000292"/>
<stop offset="0.9952" stop-color="#7D00C7"/>
</linearGradient>
<linearGradient id="paint7_linear_1_15430" x1="3.10084" y1="21.9796" x2="30.8707" y2="21.9796" gradientUnits="userSpaceOnUse">
<stop stop-color="#000292"/>
<stop offset="0.9952" stop-color="#BE00C7"/>
</linearGradient>
<linearGradient id="paint8_linear_1_15430" x1="30.4505" y1="6.85938" x2="28.4048" y2="10.1273" gradientUnits="userSpaceOnUse">
<stop offset="0.2888" stop-color="white"/>
<stop offset="0.7796" stop-color="white" stop-opacity="0"/>
</linearGradient>
<linearGradient id="paint9_linear_1_15430" x1="15.2887" y1="31.1777" x2="16.3961" y2="31.1777" gradientUnits="userSpaceOnUse">
<stop offset="0.2888" stop-color="white"/>
<stop offset="0.7796" stop-color="white" stop-opacity="0"/>
</linearGradient>
<linearGradient id="paint10_linear_1_15430" x1="19.1071" y1="30.8046" x2="20.2146" y2="30.8046" gradientUnits="userSpaceOnUse">
<stop offset="0.2888" stop-color="white"/>
<stop offset="0.7796" stop-color="white" stop-opacity="0"/>
</linearGradient>
<linearGradient id="paint11_linear_1_15430" x1="17.4119" y1="32.7305" x2="18.2434" y2="32.7305" gradientUnits="userSpaceOnUse">
<stop offset="0.2888" stop-color="white"/>
<stop offset="0.7796" stop-color="white" stop-opacity="0"/>
</linearGradient>
<linearGradient id="paint12_linear_1_15430" x1="20.7775" y1="32.3318" x2="21.6089" y2="32.3318" gradientUnits="userSpaceOnUse">
<stop offset="0.2888" stop-color="white"/>
<stop offset="0.7796" stop-color="white" stop-opacity="0"/>
</linearGradient>
<linearGradient id="paint13_linear_1_15430" x1="11.7108" y1="30.4605" x2="13.5194" y2="30.4605" gradientUnits="userSpaceOnUse">
<stop offset="0.2888" stop-color="white"/>
<stop offset="0.7796" stop-color="white" stop-opacity="0"/>
</linearGradient>
<linearGradient id="paint14_linear_1_15430" x1="22.4527" y1="27.4516" x2="24.2614" y2="27.4516" gradientUnits="userSpaceOnUse">
<stop offset="0.2888" stop-color="white"/>
<stop offset="0.7796" stop-color="white" stop-opacity="0"/>
</linearGradient>
<clipPath id="clip0_1_15430">
<rect width="36" height="36" fill="white" transform="translate(0 0.576172)"/>
</clipPath>
</defs>
</svg>
