<svg width="36" height="37" viewBox="0 0 36 37" fill="none" xmlns="http://www.w3.org/2000/svg">
<path d="M16.8874 11.8775C18.1606 9.89377 19.4001 7.96273 20.6295 6.04739C19.5486 4.13125 20.1961 2.73294 21.0742 1.95512C22.1025 1.04447 23.4992 0.863892 24.7296 1.64473C25.8702 2.36855 26.4063 3.78321 26.0302 5.03507C25.584 6.52043 24.3826 7.27621 22.434 7.25001C21.4298 8.7417 20.4664 10.3066 19.4408 11.8919C23.2816 12.4832 26.2678 14.3071 28.3068 17.5683C29.7418 19.8635 30.3321 22.3934 30.0363 25.0709C29.3132 31.6151 23.5872 36.2111 17.2584 35.7954C12.1772 35.4617 6.81081 31.5756 6.10169 25.0452C5.74701 21.7786 6.66545 18.8048 8.76994 16.2486C10.8681 13.7003 13.5857 12.2615 16.8874 11.8775ZM23.8606 26.2718C21.7111 28.1551 19.5454 27.4423 18.4585 26.2903C17.2385 24.9973 17.0715 23.0001 18.3038 21.459C18.8378 20.7911 19.5359 20.338 20.3856 20.1972C21.6628 19.9856 22.8167 20.2776 23.8249 21.2781C23.2908 19.3912 20.6633 17.0041 17.1575 17.4993C14.3727 17.8926 11.8486 20.1541 11.7181 23.5715C11.6075 26.4702 13.453 29.24 16.7508 29.992C19.7242 30.6702 22.8546 28.9274 23.8606 26.2718Z" fill="#1F3B4A"/>
</svg>
