<svg width="36" height="37" viewBox="0 0 36 37" fill="none" xmlns="http://www.w3.org/2000/svg">
<g clip-path="url(#clip0_1_15686)">
<path d="M18.0071 0.857422C17.1935 0.857422 16.3871 0.915022 15.6023 1.02302C21.7583 2.77262 26.2655 8.43902 26.2655 15.1566C26.2655 23.271 19.6919 29.8446 11.5775 29.8446C8.01352 29.8446 4.74472 28.5774 2.20312 26.4606C5.11192 32.2422 11.0951 36.2166 18.0071 36.2166C27.7703 36.2166 35.6831 28.3038 35.6831 18.5406C35.6831 8.77742 27.7703 0.857422 18.0071 0.857422Z" fill="#434FA2"/>
<path d="M25.1567 30.3912C17.0423 30.3912 10.4687 23.8176 10.4687 15.7032C10.4687 8.63281 15.4583 2.73601 22.1111 1.33201C20.7935 1.02241 19.4183 0.849609 18.0071 0.849609C8.24385 0.856809 0.331055 8.76961 0.331055 18.5328C0.331055 28.296 8.24385 36.2088 18.0071 36.2088C24.1703 36.2088 29.5919 33.0552 32.7527 28.2744C30.5423 29.6208 27.9359 30.3912 25.1567 30.3912Z" fill="#4078BB"/>
<path d="M3.66466 26.1936C3.66466 18.0792 10.2383 11.5056 18.3527 11.5056C26.4671 11.5056 33.0407 18.0792 33.0407 26.1936C33.0407 26.8056 33.0047 27.4176 32.9255 28.008C34.6679 25.2648 35.6831 22.0176 35.6831 18.5256C35.6831 8.76241 27.7703 0.849609 18.0071 0.849609C8.24385 0.849609 0.331055 8.76961 0.331055 18.5328C0.331055 22.5864 1.69905 26.3232 3.99586 29.304C3.77986 28.3032 3.66466 27.2664 3.66466 26.1936Z" fill="#3FBBEC"/>
</g>
<defs>
<clipPath id="clip0_1_15686">
<rect width="36" height="36" fill="white" transform="translate(0 0.576172)"/>
</clipPath>
</defs>
</svg>
