<svg width="36" height="37" viewBox="0 0 36 37" fill="none" xmlns="http://www.w3.org/2000/svg">
<path fill-rule="evenodd" clip-rule="evenodd" d="M10.1952 5.29859C9.70558 6.12659 8.63998 6.39299 7.81198 5.90339C6.98398 5.42099 6.71038 4.34819 7.19998 3.52739C7.68958 2.69939 8.75518 2.43299 9.58318 2.92259C10.4112 3.40499 10.6848 4.47779 10.1952 5.29859Z" fill="#5F46BA"/>
<path fill-rule="evenodd" clip-rule="evenodd" d="M1.61992 3.98869C1.37512 4.39909 0.842315 4.53589 0.431915 4.29109C0.0143154 4.04629 -0.122485 3.51349 0.122315 3.09589C0.367115 2.68549 0.899915 2.54869 1.31752 2.79349C1.72792 3.03829 1.86472 3.57109 1.61992 3.98869Z" fill="#5F46BA"/>
<path fill-rule="evenodd" clip-rule="evenodd" d="M31.9462 8.00696C29.0806 4.87496 25.1206 3.00296 20.7934 2.73656C19.7494 2.67176 18.691 2.70776 17.647 2.83736C17.287 2.86616 16.9414 2.90936 16.603 2.96696L16.2934 3.00296L16.3222 3.01016C14.8246 3.29816 13.723 3.76616 13.6654 3.79496L13.6582 3.80216C12.0094 4.57976 11.1022 5.86136 11.1022 7.42376C11.1022 9.56936 12.9166 11.319 15.1486 11.319C15.6094 11.319 17.0494 10.851 17.0638 10.8438C18.1006 10.4982 19.1806 10.3542 20.2894 10.419C23.0974 10.5918 25.5958 12.111 26.971 14.487V14.4942C27.7342 15.819 28.087 17.3166 27.9862 18.8358C27.6982 23.199 23.7886 26.5254 19.2526 26.2518C16.675 26.0934 14.3854 24.819 12.9382 22.7598L12.8878 22.7022L12.5638 22.227C11.4478 20.3766 11.5918 17.8278 11.635 17.3022L11.6422 17.2518V17.2302C11.563 15.1206 9.78459 13.4646 7.59579 13.4646C5.77419 13.4646 4.16859 14.6526 3.68619 16.3518C3.59259 16.6974 3.54939 17.6118 3.55659 17.7126C3.19659 26.1366 10.015 33.423 18.7486 33.9558C19.0798 33.9774 19.411 33.9846 19.7422 33.9846C20.3542 33.9846 20.9662 33.9486 21.5854 33.8838H21.5926L21.679 33.8766L22.9678 33.7326L22.8742 33.6966C30.067 32.3574 35.4958 26.4894 35.9638 19.3326C36.2374 15.1566 34.8118 11.139 31.9462 8.00696Z" fill="#5F46BA"/>
<path fill-rule="evenodd" clip-rule="evenodd" d="M6.58774 10.0953C5.85334 11.3337 4.25494 11.7441 3.00934 11.0025C1.77814 10.2681 1.36774 8.66971 2.10214 7.43131C2.84374 6.19291 4.44214 5.78251 5.68054 6.51691C6.91894 7.25851 7.32934 8.85691 6.58774 10.0953Z" fill="#5F46BA"/>
</svg>
