<svg width="36" height="37" viewBox="0 0 36 37" fill="none" xmlns="http://www.w3.org/2000/svg">
<g clip-path="url(#clip0_1_15936)">
<path d="M25.9631 26.5028C25.1999 26.5028 24.5879 25.8836 24.5879 25.1276V16.6604C24.5879 15.8972 25.2071 15.2852 25.9631 15.2852C26.7191 15.2852 27.3383 15.9044 27.3383 16.6604V25.1276C27.3455 25.8908 26.7263 26.5028 25.9631 26.5028Z" fill="url(#paint0_linear_1_15936)"/>
<path d="M17.6324 26.3663C12.2828 26.3663 7.92676 22.0103 7.92676 16.6607C7.92676 11.3111 12.2828 6.95508 17.6324 6.95508C22.982 6.95508 27.338 11.3111 27.338 16.6607C27.338 22.0175 22.9892 26.3663 17.6324 26.3663ZM17.6324 9.71268C13.802 9.71268 10.6844 12.8303 10.6844 16.6607C10.6844 20.4911 13.802 23.6087 17.6324 23.6087C21.4628 23.6087 24.5804 20.4911 24.5804 16.6607C24.5876 12.8303 21.47 9.71268 17.6324 9.71268Z" fill="#3BA7DB"/>
<path d="M26.6827 5.19166C27.8041 5.19166 28.7131 4.28262 28.7131 3.16126C28.7131 2.0399 27.8041 1.13086 26.6827 1.13086C25.5614 1.13086 24.6523 2.0399 24.6523 3.16126C24.6523 4.28262 25.5614 5.19166 26.6827 5.19166Z" fill="#05FFFF"/>
<path d="M9.30977 36.1367C8.54657 36.1367 7.93457 35.5175 7.93457 34.7615V16.6607C7.93457 11.3111 12.2906 6.95508 17.6402 6.95508C21.485 6.95508 24.977 9.23028 26.525 12.7511C26.8346 13.4495 26.5178 14.2631 25.8194 14.5655C25.121 14.8751 24.3074 14.5583 24.005 13.8599C22.8962 11.3399 20.3978 9.70548 17.6402 9.70548C13.8098 9.70548 10.6922 12.8231 10.6922 16.6535V34.7471C10.685 35.5175 10.073 36.1367 9.30977 36.1367Z" fill="url(#paint1_linear_1_15936)"/>
<path d="M17.6331 26.3673C15.9411 26.3673 14.2779 25.9281 12.8163 25.0857C11.3979 24.2721 10.2027 23.1129 9.35308 21.7161C8.95708 21.0681 9.15868 20.2185 9.80668 19.8225C10.4547 19.4265 11.3043 19.6281 11.7003 20.2761C12.9747 22.3569 15.1923 23.6025 17.6331 23.6025C21.4635 23.6025 24.5811 20.4849 24.5811 16.6545C24.5811 15.6825 24.3867 14.7393 23.9979 13.8609C23.6883 13.1625 24.0051 12.3489 24.7035 12.0465C25.4019 11.7369 26.2155 12.0537 26.5179 12.7521C27.0579 13.9833 27.3387 15.3009 27.3387 16.6617C27.3387 22.0185 22.9899 26.3673 17.6331 26.3673Z" fill="url(#paint2_linear_1_15936)"/>
</g>
<defs>
<linearGradient id="paint0_linear_1_15936" x1="25.966" y1="26.5052" x2="25.966" y2="15.2847" gradientUnits="userSpaceOnUse">
<stop stop-color="#0DF7FB"/>
<stop offset="0.9976" stop-color="#14D9EA"/>
</linearGradient>
<linearGradient id="paint1_linear_1_15936" x1="17.2851" y1="36.1351" x2="17.2851" y2="6.95809" gradientUnits="userSpaceOnUse">
<stop stop-color="#861DAF"/>
<stop offset="0.4943" stop-color="#4C8AD0"/>
<stop offset="0.8108" stop-color="#11F6FB"/>
<stop offset="1" stop-color="#0CFFFF"/>
</linearGradient>
<linearGradient id="paint2_linear_1_15936" x1="18.2456" y1="26.3689" x2="18.2456" y2="11.9338" gradientUnits="userSpaceOnUse">
<stop stop-color="#22D2EF"/>
<stop offset="1" stop-color="#10F7FC"/>
</linearGradient>
<clipPath id="clip0_1_15936">
<rect width="36" height="36" fill="white" transform="translate(0 0.576172)"/>
</clipPath>
</defs>
</svg>
