<svg width="36" height="37" viewBox="0 0 36 37" fill="none" xmlns="http://www.w3.org/2000/svg">
<g clip-path="url(#clip0_1_15427)">
<path d="M20.5177 15.9004C18.3108 17.1713 16.119 18.4689 13.9033 19.7242C13.1659 20.142 12.8076 20.6932 12.847 21.5513C12.8878 22.4378 12.8684 23.328 12.8481 24.216C12.8409 24.5292 12.7937 24.8544 12.693 25.1497C12.5004 25.7149 11.9816 25.9805 11.4132 25.8083C11.0807 25.7076 10.7575 25.5543 10.4546 25.3816C8.72253 24.3939 7.00288 23.3841 5.26775 22.4017C4.62983 22.0405 4.34579 21.52 4.34788 20.8003C4.35472 18.42 4.35047 16.0398 4.35047 13.6595C4.34702 13.6595 4.34349 13.6595 4.34003 13.6595C4.34003 11.3127 4.35047 8.96592 4.33406 6.6193C4.32866 5.852 4.6307 5.32388 5.29965 4.94213C7.51185 3.67968 9.71526 2.40154 11.9103 1.10921C12.5738 0.718541 13.1782 0.718397 13.8432 1.11123C16.0795 2.43214 18.3298 3.72944 20.5783 5.02961C21.124 5.34519 21.398 5.81873 21.3995 6.43167C21.4063 9.11367 21.4048 11.7957 21.3927 14.4776C21.3898 15.1136 21.0765 15.5786 20.5177 15.9004ZM31.6148 23.4664C31.6081 23.4664 31.6014 23.4664 31.5947 23.4664C31.5947 21.0699 31.5897 18.6735 31.5982 16.2771C31.6003 15.6776 31.4174 15.1773 30.8898 14.8711C28.9629 13.7529 27.0364 12.6334 25.0912 11.5476C23.9888 10.9322 23.1746 11.4391 23.1554 12.7174C23.1402 13.7395 23.1573 14.7619 23.1452 15.7841C23.1374 16.4523 22.8551 16.9596 22.2561 17.3046C19.9919 18.6087 17.7384 19.9315 15.4768 21.2399C14.8868 21.5813 14.592 22.0622 14.5941 22.7551C14.6018 25.3693 14.6033 27.9837 14.5823 30.5979C14.5764 31.3354 14.8805 31.8303 15.5068 32.1908C17.7135 33.4613 19.9182 34.7357 22.1092 36.0332C22.7909 36.4369 23.4066 36.4345 24.0869 36.0329C26.2652 34.7468 28.4532 33.4767 30.6517 32.2255C31.3222 31.8439 31.6273 31.3252 31.6214 30.555C31.6032 28.1923 31.6148 25.8293 31.6148 23.4664Z" fill="url(#paint0_linear_1_15427)"/>
</g>
<defs>
<linearGradient id="paint0_linear_1_15427" x1="8.53499" y1="3.18663" x2="27.5781" y2="34.1653" gradientUnits="userSpaceOnUse">
<stop stop-color="#3D8382"/>
<stop offset="0.4997" stop-color="#14BCA1"/>
<stop offset="0.9995" stop-color="#3D8382"/>
</linearGradient>
<clipPath id="clip0_1_15427">
<rect width="36" height="36" fill="white" transform="translate(0 0.576172)"/>
</clipPath>
</defs>
</svg>
