<svg width="36" height="37" viewBox="0 0 36 37" fill="none" xmlns="http://www.w3.org/2000/svg">
<g clip-path="url(#clip0_1_15662)">
<path d="M18.0214 36.533C27.9506 36.533 35.9998 28.4838 35.9998 18.5546C35.9998 8.62537 27.9506 0.576172 18.0214 0.576172C8.09217 0.576172 0.0429688 8.62537 0.0429688 18.5546C0.0429688 28.4838 8.09217 36.533 18.0214 36.533Z" fill="#0022FF"/>
<path d="M17.2655 7.56055C21.9527 7.56055 25.7471 11.3549 25.7471 16.0349C25.7471 20.7149 21.9455 24.5093 17.2655 24.5093C16.0271 24.5093 14.8463 24.2429 13.7879 23.7677V20.5709C14.7311 21.2765 15.8975 21.6869 17.1647 21.6869C20.2895 21.6869 22.8239 19.1597 22.8239 16.0349C22.8239 12.9101 20.2895 10.3829 17.1647 10.3829C15.4511 10.3829 13.9175 11.1461 12.8807 12.3485L9.98633 11.6861C11.4623 9.21655 14.1695 7.56055 17.2655 7.56055ZM12.0383 18.4253H11.6135V22.3493C11.2175 21.9893 10.8503 21.6005 10.5263 21.1757V19.1021L11.9375 18.1877C11.9663 18.2741 12.0023 18.3533 12.0383 18.4253Z" fill="white"/>
<path d="M15.7395 15.7461V29.5125H13.5651V17.1501L15.7395 15.7461ZM12.6939 17.7117V29.5125H10.5195V19.1157L12.6939 17.7117Z" fill="white"/>
</g>
<defs>
<clipPath id="clip0_1_15662">
<rect width="36" height="36" fill="white" transform="translate(0 0.576172)"/>
</clipPath>
</defs>
</svg>
