<svg width="36" height="37" viewBox="0 0 36 37" fill="none" xmlns="http://www.w3.org/2000/svg">
<g clip-path="url(#clip0_1_15425)">
<mask id="mask0_1_15425" style="mask-type:luminance" maskUnits="userSpaceOnUse" x="0" y="0" width="36" height="37">
<path d="M36 0.576172H0V36.5762H36V0.576172Z" fill="white"/>
</mask>
<g mask="url(#mask0_1_15425)">
<path d="M22.4142 23.0539H13.515V14.0971H22.4142V23.0539ZM35.8494 8.07066C35.4822 5.93947 34.3086 3.92347 32.6094 2.57707C31.0326 1.28107 29.0166 0.582666 26.979 0.575466C20.9382 0.575466 14.8902 0.568266 8.84222 0.575466C5.68862 0.618666 2.70782 2.44747 1.17422 5.19067C0.324616 6.66667 0.000616175 8.32267 0.000616175 10.0147C0.00781617 15.5227 0.000616175 21.0379 0.000616175 26.5531C-0.00658383 27.8347 0.0438162 29.0659 0.447016 30.2971C1.33982 33.1483 3.73742 35.4523 6.61022 36.2587C5.74622 35.5675 5.35742 34.6027 5.07662 33.5587C4.49342 31.2691 4.45022 28.9003 4.54382 26.5531C4.53662 21.0379 4.54382 15.5299 4.53662 10.0147C4.54382 9.06427 4.61582 8.17147 5.09822 7.33627C5.84702 5.99707 7.30142 5.10427 8.84222 5.11867C14.5878 5.11867 20.3334 5.11867 26.079 5.11867C26.943 5.11867 27.735 5.05386 28.563 5.37067C29.9382 5.83147 31.0326 7.06267 31.335 8.48107C31.5078 9.31627 31.4574 10.2379 31.4646 11.0875V27.2659C31.4646 28.0579 31.3782 28.8355 31.0326 29.5627C30.327 31.0387 28.8078 32.0611 27.159 32.0323C22.6158 32.0395 18.0654 32.0323 13.515 32.0323C13.5078 30.5491 13.5078 29.0659 13.515 27.5827C17.223 27.5827 20.931 27.5755 24.6462 27.5827C25.4454 27.6259 26.367 27.2227 26.7342 26.4811C26.943 26.1067 26.979 25.7035 26.9862 25.2859C26.979 20.7931 26.9862 16.3003 26.9862 11.8003C27.0222 10.9651 26.619 10.2235 25.8846 9.82747C25.2726 9.46747 24.6102 9.56106 23.9262 9.54667C19.6782 9.55386 15.423 9.53946 11.1822 9.55386C9.96542 9.52506 8.95742 10.5835 8.99342 11.7931C8.97902 18.2515 8.99342 24.7459 8.98622 31.2043C9.02222 32.4859 8.97902 33.7027 9.72062 34.8187C10.2822 35.7403 11.2398 36.2011 12.2622 36.4027C13.4718 36.5971 14.631 36.5539 15.8478 36.5539C19.5558 36.5539 23.2638 36.5539 26.979 36.5611C28.8222 36.5755 30.6222 35.9779 32.1342 34.9339C33.7614 33.7315 35.0214 32.0827 35.5974 30.1315C36.0006 28.8139 35.9934 27.5323 36.0006 26.1715C36.0006 21.0163 36.0006 15.8683 36.0006 10.7131C35.9934 9.84907 35.9862 8.94186 35.8494 8.07066Z" fill="#46D593"/>
</g>
</g>
<defs>
<clipPath id="clip0_1_15425">
<rect width="36" height="36" fill="white" transform="translate(0 0.576172)"/>
</clipPath>
</defs>
</svg>
