<svg width="36" height="37" viewBox="0 0 36 37" fill="none" xmlns="http://www.w3.org/2000/svg">
<path fill-rule="evenodd" clip-rule="evenodd" d="M10.0725 5.99112C10.7565 5.21352 11.3757 4.55112 11.9661 3.99672C1.92925 3.67272 4.85245 10.9807 1.58365 18.4111C-2.18195 26.9647 2.03005 30.2263 8.29405 31.2415C7.42285 30.2047 6.71725 29.0239 6.17725 27.7495C2.11645 22.5871 3.75085 13.1911 10.0725 5.99112Z" fill="#B3D336"/>
<path fill-rule="evenodd" clip-rule="evenodd" d="M34.2218 15.0977C33.2858 17.7473 31.5722 20.7209 29.153 23.6513C27.2666 25.9337 25.1642 27.7265 22.997 29.0297C20.4914 30.6641 17.3882 31.6289 13.9106 31.6289C11.9666 31.6289 10.0514 31.5209 8.30176 31.2329C9.33856 32.4641 10.5914 33.4865 12.0602 34.1921C21.1322 38.6129 21.7082 30.3977 31.3058 26.2361C36.6914 23.8961 36.713 19.3241 34.2218 15.0977Z" fill="#1E94D2"/>
<path fill-rule="evenodd" clip-rule="evenodd" d="M22.9896 6.5515C24.3288 6.7963 25.596 7.2427 26.7336 7.8907C29.7792 9.6259 32.5584 12.2827 34.2144 15.0979C35.8488 10.4611 35.0856 6.8107 31.5144 6.1555C27.5832 5.4283 24.5088 5.1979 21.5568 3.1243C17.928 0.561105 14.7384 1.4035 11.9736 3.9955C12.168 4.0027 12.3696 4.0099 12.5712 4.0243C16.4088 4.2475 20.0736 5.0035 22.9896 6.5515Z" fill="#EDE80A"/>
<path fill-rule="evenodd" clip-rule="evenodd" d="M10.0729 5.98988C3.75131 13.1899 2.11691 22.5859 6.18491 27.7411C4.35611 23.4211 4.48571 18.0355 7.05611 13.7371C10.4833 8.01308 17.3521 5.51468 22.9897 6.55148C20.0665 4.99628 16.4089 4.24748 12.5713 4.01708C12.3625 4.00268 12.1681 3.99548 11.9737 3.98828C11.3761 4.54988 10.7569 5.21228 10.0729 5.98988Z" fill="#52B849"/>
<path fill-rule="evenodd" clip-rule="evenodd" d="M26.7333 7.89193C25.5957 7.24393 24.3285 6.80473 22.9893 6.55273C26.8341 8.59753 29.3973 12.0391 29.3685 17.5183C29.3397 22.2703 26.9061 26.4679 22.9893 29.0311C25.1565 27.7279 27.2589 25.9351 29.1453 23.6527C31.5717 20.7295 33.2781 17.7559 34.2141 15.0991C32.5581 12.2911 29.7861 9.62713 26.7333 7.89193Z" fill="#00855E"/>
<path fill-rule="evenodd" clip-rule="evenodd" d="M22.356 26.4233C18.0144 29.2385 12.2184 27.9785 9.41755 23.6225C6.61675 19.2665 7.99915 13.6433 12.2112 10.6337C16.9128 7.2641 22.9536 8.59611 25.1496 13.4345C27.2952 18.1577 26.7048 23.6081 22.356 26.4233ZM22.9896 6.55131C17.352 5.51451 10.4832 8.01291 7.05595 13.7369C4.48555 18.0353 4.35595 23.4209 6.18475 27.7409C6.72475 29.0153 7.43035 30.2033 8.30155 31.2329C10.0512 31.5137 11.9664 31.6217 13.9104 31.6217C17.388 31.6217 20.4912 30.6569 22.9968 29.0225C26.9136 26.4665 29.3472 22.2689 29.376 17.5097C29.3976 12.0377 26.8416 8.60331 22.9896 6.55131Z" fill="#0D5229"/>
</svg>
