<svg width="36" height="37" viewBox="0 0 36 37" fill="none" xmlns="http://www.w3.org/2000/svg">
<path d="M10.1304 6.1925C10.8072 5.4293 11.4192 4.7741 12.0096 4.2269C2.06636 3.9101 4.96076 11.0957 1.72076 18.4037C-2.00884 26.8205 2.15996 30.0245 8.37356 31.0253C7.50956 30.0101 6.81116 28.8437 6.27116 27.5909C2.24636 22.5149 3.86636 13.2773 10.1304 6.1925Z" fill="#EFE812"/>
<path d="M34.0636 15.1562C33.1348 17.7627 31.4428 20.6858 29.038 23.5658C27.166 25.805 25.0852 27.5762 22.9396 28.8578C20.4556 30.4634 17.374 31.4138 13.9324 31.4138C12.0028 31.4138 10.1092 31.3058 8.37402 31.025C9.39642 32.2346 10.6492 33.2354 12.0964 33.941C21.0892 38.2898 21.658 30.2115 31.1692 26.1147C36.5188 23.8107 36.5332 19.3106 34.0636 15.1562Z" fill="#EDE70A"/>
<path d="M22.9396 6.75407C24.2644 6.99887 25.5244 7.43087 26.6548 8.07167C29.6716 9.77807 32.422 12.3917 34.0708 15.1637C35.6908 10.5989 34.9348 7.01327 31.3924 6.36527C27.4972 5.65247 24.4516 5.42207 21.5284 3.37727C17.9212 0.857269 14.7604 1.69247 12.0244 4.23407C12.2188 4.24127 12.4132 4.24847 12.6148 4.26287C16.4092 4.47887 20.0452 5.22047 22.9396 6.75407Z" fill="#EDE70A"/>
<path d="M10.1304 6.19278C3.86642 13.2704 2.24642 22.5152 6.27122 27.5912C4.46402 23.3432 4.58642 18.044 7.13522 13.8176C10.5336 8.18717 17.3376 5.73198 22.932 6.75438C20.0376 5.22798 16.4088 4.48638 12.6 4.26318C12.3984 4.24878 12.1968 4.24158 12.0024 4.23438C11.4264 4.77438 10.8072 5.42958 10.1304 6.19278Z" fill="#DEC21C"/>
<path d="M26.6468 8.06369C25.5164 7.42289 24.2636 6.99089 22.9316 6.74609C26.7476 8.76209 29.282 12.1389 29.2532 17.5317C29.2244 22.2045 26.8124 26.3373 22.9316 28.8501C25.0772 27.5685 27.158 25.8045 29.03 23.5581C31.4348 20.6781 33.1268 17.7549 34.0556 15.1485C32.4212 12.3909 29.6708 9.77009 26.6468 8.06369Z" fill="#E5CB22"/>
<path d="M22.939 6.75375C17.3518 5.73135 10.5406 8.18655 7.14224 13.8169C4.59344 18.0433 4.46384 23.3425 6.27824 27.5905C6.81104 28.8433 7.51664 30.0097 8.38064 31.0249C10.1158 31.3057 12.0094 31.4065 13.939 31.4065C17.3806 31.4065 20.4622 30.4561 22.9462 28.8505C26.827 26.3377 29.239 22.2049 29.2678 17.5321C29.2894 12.1465 26.7478 8.76255 22.939 6.75375ZM22.3126 26.2945C18.007 29.0593 12.2686 27.8281 9.48944 23.5369C6.71024 19.2457 8.08544 13.7233 12.2542 10.7569C16.9198 7.44495 22.8958 8.74815 25.0774 13.5145C27.2014 18.1585 26.6182 23.5297 22.3126 26.2945Z" fill="#CCA727"/>
</svg>
