<svg width="36" height="37" viewBox="0 0 36 37" fill="none" xmlns="http://www.w3.org/2000/svg">
<path d="M26.0338 29.8243C23.3207 26.926 20.6441 24.0669 17.9294 21.1671C15.2438 24.044 12.5749 26.9029 9.88754 29.7815C7.31779 26.988 4.7754 24.2242 2.23286 21.4604C1.65247 20.8296 1.05667 20.2121 0.495287 19.5648C-0.0398168 18.9478 -0.0872647 18.257 0.467927 17.6483C3.56803 14.2492 6.68851 10.8687 9.84103 7.43945C12.5369 10.3187 15.2193 13.1835 17.9405 16.0898C20.625 13.2134 23.2936 10.3542 25.9803 7.47567C28.7885 10.5266 31.5739 13.5464 34.352 16.573C36.2666 18.659 36.2687 18.6692 34.359 20.754C31.6769 23.6821 28.9836 26.6 26.2955 29.5226C26.2119 29.6134 26.1335 29.709 26.0338 29.8243ZM15.5645 18.6379C13.6829 16.62 11.8235 14.626 9.94421 12.6106C8.42616 14.2334 6.92093 15.8076 5.45911 17.421C4.80384 18.1443 4.8551 19.2824 5.51469 20.0227C6.08414 20.6618 6.68678 21.2714 7.27653 21.8924C8.15558 22.818 9.03614 23.7421 9.92779 24.6791C11.825 22.6457 13.6792 20.6584 15.5645 18.6379ZM25.9254 24.6468C27.4443 23.0223 28.9599 21.4544 30.4086 19.8271C31.0309 19.128 31.1193 18.1862 30.5142 17.4838C29.0624 15.7988 27.4971 14.2116 25.9568 12.5626C24.0425 14.6131 22.1743 16.6142 20.3033 18.6183C22.1939 20.6456 24.0407 22.6259 25.9254 24.6468Z" fill="#2D2D2D"/>
</svg>
