<svg width="36" height="37" viewBox="0 0 36 37" fill="none" xmlns="http://www.w3.org/2000/svg">
<path d="M31.8457 18.9218C33.7225 18.9218 35.2441 17.4003 35.2441 15.5234C35.2441 13.6465 33.7225 12.125 31.8457 12.125C29.9688 12.125 28.4473 13.6465 28.4473 15.5234C28.4473 17.4003 29.9688 18.9218 31.8457 18.9218Z" fill="#E0077D"/>
<path d="M8.08594 17.7554C8.08594 17.7554 11.0091 15.5234 15.5091 15.5234C20.5851 15.5234 27.6843 19.3826 32.1771 19.3826C34.6971 19.3826 35.2371 18.5762 35.2371 18.5762C35.2371 18.5762 32.8251 21.3842 27.9507 21.3842C22.5075 21.3842 16.7043 17.381 11.4987 17.381C8.63314 17.381 8.08594 17.7554 8.08594 17.7554Z" fill="#E0077D"/>
<path d="M0.798828 21.6793C0.798828 21.6793 3.72203 19.4473 8.22203 19.4473C13.298 19.4473 20.3972 23.3065 24.89 23.3065C27.41 23.3065 27.95 22.5001 27.95 22.5001C27.95 22.5001 25.538 25.3081 20.6636 25.3081C15.2204 25.3081 9.41723 21.3049 4.21163 21.3049C1.33883 21.3121 0.798828 21.6793 0.798828 21.6793Z" fill="#E0077D"/>
</svg>
