<svg width="36" height="37" viewBox="0 0 36 37" fill="none" xmlns="http://www.w3.org/2000/svg">
<g clip-path="url(#clip0_1_15417)">
<path d="M35.6765 18.5834C35.6765 23.465 33.6893 27.8858 30.4853 31.0826C27.2957 34.2578 22.8965 36.2162 18.0365 36.2162C13.1765 36.2162 8.77728 34.2506 5.58768 31.0754C2.38368 27.8786 0.396484 23.4578 0.396484 18.5834C0.396484 8.84178 8.29488 0.943379 18.0365 0.943379C27.7853 0.928979 35.6765 8.82738 35.6765 18.5834Z" fill="#FF6766"/>
<path d="M35.6761 18.5837C35.6761 28.3253 27.7777 36.2237 18.0361 36.2237C13.1689 36.2237 8.76968 34.2581 5.58008 31.0757L30.5281 6.11328C33.7033 9.30288 35.6761 13.7093 35.6761 18.5837Z" fill="#D95E59"/>
<path d="M30.4923 31.0822C27.3027 34.2574 22.9035 36.2158 18.0435 36.2158C13.1835 36.2158 8.78433 34.2574 5.59473 31.0822C8.78433 27.907 13.1835 25.9414 18.0435 25.9414C22.9035 25.9414 27.2883 27.8998 30.4923 31.0822Z" fill="#FEF4C8"/>
<path d="M29.3036 18.5766C29.3036 21.6942 28.0364 24.5166 25.9916 26.5614C23.954 28.5918 21.146 29.8446 18.0428 29.8446C14.9396 29.8446 12.1316 28.5918 10.094 26.5614C8.03478 24.5238 6.76758 21.7014 6.76758 18.5766C6.76758 12.3558 11.8148 7.30859 18.0356 7.30859C24.2564 7.30859 29.3036 12.3558 29.3036 18.5766Z" fill="#F5F7E2"/>
<path d="M26.8272 18.577C26.8272 21.0106 25.8408 23.2138 24.2424 24.805C22.6512 26.389 20.4624 27.3682 18.0432 27.3682C15.624 27.3682 13.428 26.389 11.844 24.805C10.2456 23.2138 9.25195 21.0106 9.25195 18.577C9.25195 13.7242 13.1832 9.79297 18.036 9.79297C22.8888 9.79297 26.8272 13.7242 26.8272 18.577Z" fill="white"/>
<path d="M9.50429 13.4646C9.81389 13.0254 10.1091 12.579 10.4619 12.1686C11.1027 11.427 11.8299 10.7862 12.6579 10.2606C13.4067 9.78536 14.1915 9.41096 15.0339 9.15176C16.3443 8.74856 17.6835 8.62616 19.0443 8.77736C20.0379 8.89256 21.0027 9.14456 21.9099 9.55496C22.4643 9.80696 22.9827 10.1094 23.4939 10.4478C24.5235 11.1174 25.3443 11.9886 26.0355 12.9894C26.7699 14.055 27.2451 15.2358 27.5115 16.5102C27.6987 17.403 27.7707 18.303 27.6915 19.2102C27.5907 20.3262 27.3459 21.4062 26.8851 22.4358C26.4963 23.3142 26.0067 24.1134 25.3875 24.8406C24.7827 25.5534 24.0987 26.1726 23.3139 26.6838C22.7811 27.0294 22.2195 27.3462 21.6363 27.5766C20.6499 27.9654 19.6275 28.2246 18.5619 28.2678C17.8131 28.2966 17.0643 28.2894 16.3227 28.1526C15.6819 28.0374 15.0627 27.8718 14.4507 27.6486C13.8603 27.4254 13.2843 27.1662 12.7587 26.835C11.9955 26.3526 11.3115 25.7766 10.6995 25.107C10.0227 24.3582 9.46829 23.5302 9.04349 22.6158C8.44589 21.327 8.15069 19.9662 8.13629 18.5406C8.12909 18.0078 8.19389 17.475 8.25869 16.9494C8.26589 16.9134 8.25869 16.8702 8.25869 16.8342C8.32349 16.7982 8.31629 16.7262 8.32349 16.6686C8.48189 15.8406 8.74829 15.0414 9.10829 14.2782C9.24509 14.0046 9.41789 13.7526 9.50429 13.4646ZM20.9379 18.7134C21.2043 18.5694 21.4563 18.4902 21.6507 18.3174C22.4211 17.6334 22.6227 16.0206 21.3771 15.243C20.9883 14.9982 20.5779 14.8182 20.1315 14.6382C20.2035 14.0406 20.4411 13.479 20.5203 12.867C20.1531 12.7734 19.8075 12.6582 19.4475 12.615C19.3035 13.191 19.1595 13.7382 19.0155 14.3142C18.7419 14.2278 18.4539 14.235 18.2019 14.091C18.2955 13.5078 18.5187 12.9606 18.5763 12.3774C18.1947 12.3198 17.8779 12.1686 17.5107 12.1542C17.3667 12.7302 17.2299 13.2918 17.0787 13.8678C16.3515 13.7598 15.6819 13.5078 14.9475 13.371C14.7891 13.731 14.7171 14.1126 14.6523 14.523C14.8899 14.5806 15.0987 14.631 15.3075 14.6742C15.8331 14.7966 15.9771 15.0846 15.8547 15.5454C15.7683 15.8694 15.6891 16.2006 15.6027 16.5318C15.3075 17.7126 15.0195 18.9006 14.7243 20.0814C14.6595 20.3478 14.4939 20.4342 14.2203 20.3982C13.9539 20.3622 13.7019 20.2398 13.4067 20.247C13.2771 20.6574 13.0251 21.0102 12.9387 21.4638C13.6371 21.6438 14.3139 21.8166 15.0195 21.9966C14.9691 22.6158 14.7099 23.1774 14.6379 23.7966C14.9907 23.883 15.3291 23.9622 15.6747 24.0414C15.9051 23.4726 15.9555 22.875 16.1715 22.2846C16.4307 22.4142 16.7115 22.3782 16.9635 22.5438C16.8267 23.1126 16.6899 23.6742 16.5531 24.2502C16.9203 24.3798 17.2731 24.4374 17.6403 24.5238C17.7915 23.9334 17.9283 23.3574 18.0723 22.803C18.1587 22.7598 18.2235 22.767 18.2811 22.7814C18.8571 22.9038 19.4331 22.9326 20.0091 22.8678C20.5131 22.8102 20.9595 22.623 21.3123 22.2414C21.7083 21.8238 21.9099 21.3126 22.0035 20.7582C22.0827 20.3118 22.0611 19.851 21.7947 19.455C21.5859 19.1454 21.3051 18.9078 20.9379 18.7134ZM16.7979 21.0534C17.5035 21.2262 18.2091 21.4134 18.9507 21.2838C19.3467 21.2118 19.6419 21.0102 19.7643 20.6142C19.8795 20.2398 19.8147 19.9014 19.5339 19.6062C19.2459 19.2966 18.8715 19.1382 18.4899 19.0086C18.0363 18.8502 17.5683 18.7062 17.0715 18.663C16.8771 19.4406 16.6971 20.1966 16.5027 20.967C16.6179 20.9958 16.7043 21.0318 16.7979 21.0534ZM19.2891 17.7918C19.6779 17.7342 20.0019 17.475 20.0955 17.1294C20.2107 16.6974 20.0811 16.323 19.7355 16.071C19.3395 15.783 18.8859 15.6318 18.4179 15.531C18.2451 15.495 18.0723 15.3942 17.8635 15.459C17.6979 16.143 17.5251 16.827 17.3523 17.5398C18.0219 17.6982 18.6339 17.8854 19.2891 17.7918Z" fill="#F39321"/>
</g>
<defs>
<clipPath id="clip0_1_15417">
<rect width="36" height="36" fill="white" transform="translate(0 0.576172)"/>
</clipPath>
</defs>
</svg>
