<svg width="36" height="37" viewBox="0 0 36 37" fill="none" xmlns="http://www.w3.org/2000/svg">
<g clip-path="url(#clip0_1_15757)">
<path d="M32.9616 14.8682C32.9616 22.2842 27.3096 28.3826 20.0736 29.0882C20.4192 24.8618 17.352 21.1178 13.14 20.6354V1.69937L13.1328 1.68497C14.8824 0.950572 16.7688 0.576172 18.6696 0.576172C26.5608 0.576172 32.9616 6.97697 32.9616 14.8682Z" fill="#DEDEDE"/>
<path d="M4.4278 29.3397C4.147 26.9133 5.0182 24.4941 6.775 22.7949C9.3382 26.6325 13.7086 29.1597 18.6694 29.1597C19.1446 29.1597 19.6126 29.1381 20.0734 29.0877C19.7782 32.7525 16.927 35.8197 13.1326 36.2517C8.8198 36.7485 4.9246 33.6453 4.4278 29.3397Z" fill="#1E4480"/>
<path d="M13.1324 1.69995V20.6359C17.3444 21.1255 20.4116 24.8623 20.066 29.0887C19.6052 29.1319 19.1372 29.1535 18.662 29.1607C13.7012 29.1607 9.33078 26.6335 6.76758 22.7959C8.01318 21.5935 9.61878 20.8303 11.3396 20.6359H11.3468V2.60715L11.3396 2.59275C11.9156 2.24715 12.5132 1.94475 13.1252 1.68555L13.1324 1.69995Z" fill="#152E51"/>
<path d="M4.37798 14.8678C4.37798 9.655 7.17158 5.0902 11.3404 2.5918L11.3476 2.6062V20.635H11.3404C9.61958 20.8294 8.01398 21.5854 6.76838 22.795C5.20598 20.4478 4.37078 17.6902 4.37798 14.8678Z" fill="#DEDEDE"/>
</g>
<defs>
<clipPath id="clip0_1_15757">
<rect width="36" height="36" fill="white" transform="translate(0 0.576172)"/>
</clipPath>
</defs>
</svg>
