<svg width="36" height="37" viewBox="0 0 36 37" fill="none" xmlns="http://www.w3.org/2000/svg">
<g clip-path="url(#clip0_1_15586)">
<path fill-rule="evenodd" clip-rule="evenodd" d="M17.0714 1.45508V2.23268C17.345 2.12468 17.597 1.98068 17.8274 1.80068C17.5682 1.80068 17.309 1.45508 17.0498 1.45508H17.0714Z" fill="black"/>
<path fill-rule="evenodd" clip-rule="evenodd" d="M17.9858 1.50548C17.7122 1.50548 17.4242 1.46228 17.1578 1.45508H17.0714C7.62501 1.96628 0.374606 10.0447 0.885806 19.4983C1.17381 24.7831 3.88101 29.6431 8.23701 32.6671C7.12821 31.6663 6.50181 30.2335 6.50181 28.7431C6.52341 25.8199 8.885 23.4583 11.8082 23.4367L12.8666 23.4007V23.1703C12.8666 20.8879 14.3282 18.8719 16.4954 18.1591C17.0282 17.9791 17.5826 17.8927 18.137 17.8927C20.2106 17.8927 22.097 19.1095 22.9466 21.0031C27.8282 17.6551 29.0666 10.9879 25.7186 6.10628C23.9474 3.50708 21.1178 1.82948 17.9858 1.50548Z" fill="#B4E1FF"/>
<path fill-rule="evenodd" clip-rule="evenodd" d="M18.5473 1.45508C27.8137 2.57828 30.6793 9.38228 30.6865 15.5239C30.6865 21.8095 25.4089 26.3887 20.7937 27.5983C19.0729 28.0231 17.3233 28.3327 15.5665 28.5415L14.8681 28.6279C14.7025 28.6495 14.5369 28.6855 14.3713 28.7359C13.3705 29.0311 12.5497 29.7655 12.1537 30.7303C11.9809 31.1479 11.8945 31.5871 11.8945 32.0407C11.8945 33.5095 12.8233 34.8127 14.2057 35.3023C14.4433 35.3599 14.6953 35.4031 14.9473 35.4535C15.9553 35.6335 16.9705 35.7199 17.9929 35.7199C27.4537 35.6911 35.1073 27.9943 35.0713 18.5263C35.0425 9.31748 27.7489 1.78628 18.5473 1.45508Z" fill="#90D595"/>
<path fill-rule="evenodd" clip-rule="evenodd" d="M18.547 1.45508C18.3598 1.45508 18.1798 1.45508 17.9854 1.45508C17.7118 1.45508 17.4238 1.45508 17.1574 1.45508C17.4382 1.45508 17.719 1.48388 17.9854 1.51268C23.875 2.09588 28.1662 7.34468 27.5758 13.2271C27.259 16.3807 25.567 19.2247 22.9534 21.0103C21.7798 18.3463 18.6622 17.1367 15.9982 18.3175C14.0758 19.1671 12.8374 21.0751 12.8518 23.1775V23.4007L11.7862 23.4367C8.85576 23.4439 6.48696 25.8199 6.49416 28.7503C6.49416 30.2407 7.12776 31.6591 8.22936 32.6599C8.56776 32.8975 8.90616 33.1063 9.25896 33.3223C10.7926 34.2367 12.463 34.8991 14.1982 35.2879C12.8158 34.8055 11.887 33.5023 11.887 32.0335C11.887 31.5799 11.9734 31.1335 12.1462 30.7231C12.5494 29.7583 13.363 29.0239 14.3638 28.7287C14.5294 28.6855 14.6878 28.6495 14.8606 28.6279L15.559 28.5487C17.3158 28.3399 19.0654 28.0231 20.7862 27.5983C25.4014 26.3815 30.6862 21.8023 30.679 15.5239C30.6862 9.34628 27.8134 2.54948 18.547 1.45508Z" fill="white"/>
<path fill-rule="evenodd" clip-rule="evenodd" d="M17.9931 0.575713C17.6979 0.575713 17.4315 0.575713 17.1219 0.575713H17.0859C7.16434 1.07251 -0.474856 9.52532 0.0219445 19.4541C0.302745 25.0197 3.14674 30.1461 7.72594 33.3285C8.05715 33.6237 8.41714 33.8829 8.79875 34.1061C8.89234 34.1565 9.00035 34.1853 9.10835 34.1997C10.6347 35.0709 12.2835 35.7117 13.9971 36.1005C14.2779 36.1941 14.5659 36.2661 14.8539 36.2949C15.8979 36.4821 16.9491 36.5757 18.0075 36.5757C27.9507 36.7485 36.1443 28.8357 36.3171 18.8925C36.4899 8.94931 28.5699 0.748513 18.6267 0.575713C18.4179 0.568513 18.2091 0.568513 17.9931 0.575713ZM11.2611 33.3861C10.3611 32.9829 9.50434 32.4933 8.69795 31.9317C6.93395 30.2181 6.89075 27.4029 8.60435 25.6389C9.44674 24.7749 10.6059 24.2853 11.8083 24.2925C12.1539 24.2925 12.5571 24.2925 12.8883 24.2565C13.3491 24.2349 13.7091 23.8605 13.7163 23.3997V23.1765C13.7163 20.7357 15.6891 18.7557 18.1299 18.7557C19.8723 18.7557 21.4563 19.7781 22.1691 21.3693C22.3635 21.7941 22.8603 21.9885 23.2923 21.8013C23.3355 21.7797 23.3787 21.7509 23.4147 21.7149C28.2675 18.4173 29.8659 12.0021 27.1371 6.81091C29.4267 9.77731 29.8083 13.4421 29.8083 15.5085C29.8083 21.2325 25.0419 25.5741 20.5563 26.7261C18.6339 27.1869 16.6899 27.5181 14.7243 27.7269C12.6003 28.0293 11.0235 29.8437 11.0163 31.9893C11.0235 32.4501 11.1027 32.9037 11.2539 33.3429L11.2611 33.3861ZM1.72834 18.5757C1.72114 9.84211 8.61874 2.65651 17.3451 2.31091C22.7739 2.54131 26.9859 7.12771 26.7555 12.5565C26.6403 15.3285 25.3515 17.9205 23.2203 19.6989C21.3195 16.8981 17.5035 16.1709 14.7027 18.0717C13.1979 19.0941 12.2259 20.7285 12.0459 22.5357H11.7795C8.37395 22.5357 5.60915 25.3005 5.60915 28.7061C5.60915 28.8573 5.60915 29.0013 5.64514 29.1525C3.11074 26.2077 1.71394 22.4565 1.72114 18.5757H1.72834ZM17.9931 34.8405C16.7907 34.8333 15.5883 34.6965 14.4147 34.4301C13.0827 33.9261 12.4059 32.4285 12.9099 31.0965C13.2411 30.2181 14.0187 29.5917 14.9475 29.4549C16.9923 29.2317 19.0155 28.8789 21.0099 28.4037C26.1147 27.0645 31.5435 22.0821 31.5363 15.5013C31.6155 12.4413 30.8163 9.42451 29.2395 6.80371C35.7483 13.0029 35.9931 23.2989 29.8011 29.8005C26.7339 33.0261 22.4715 34.8477 18.0219 34.8477L17.9931 34.8405Z" fill="#41474E"/>
</g>
<defs>
<clipPath id="clip0_1_15586">
<rect width="36" height="36" fill="white" transform="translate(0 0.576172)"/>
</clipPath>
</defs>
</svg>
