<svg width="36" height="37" viewBox="0 0 36 37" fill="none" xmlns="http://www.w3.org/2000/svg">
<g clip-path="url(#clip0_1_15416)">
<path fill-rule="evenodd" clip-rule="evenodd" d="M10.3321 3.75062C12.3553 1.77063 15.5881 1.77063 17.6113 3.75062L22.3993 8.43782C24.4801 10.4754 24.4801 13.8306 22.3993 15.8682L14.0617 24.0402L20.0449 29.901C21.1825 31.017 21.2041 32.8458 20.0881 33.9834C18.9721 35.121 17.1433 35.1426 16.0057 34.0266L1.50494 19.8354C-0.575864 17.7906 -0.575864 14.4426 1.50494 12.405L10.3321 3.75062ZM9.92894 20.001L17.9353 12.1602L13.9753 8.27942L5.96894 16.1202L9.92894 20.001Z" fill="#3CEAAA"/>
<path fill-rule="evenodd" clip-rule="evenodd" d="M22.3706 7.71156C24.3938 5.73156 27.6266 5.73156 29.6498 7.71156L34.4378 12.3988C36.5186 14.4364 36.5186 17.7916 34.4378 19.8292L19.9442 34.0348C18.8066 35.1508 16.9778 35.1292 15.8618 33.9916C14.7458 32.854 14.7674 31.0252 15.905 29.9092L21.8882 24.0484L17.5898 19.8364C15.509 17.7988 15.509 14.4436 17.5898 12.406L22.3706 7.71156ZM26.0138 20.002L29.9738 16.1212L26.0138 12.2404L22.0538 16.1212L26.0138 20.002Z" fill="#03BCE4"/>
<path opacity="0.95" d="M22.0467 16.1288L17.8419 12.1328L13.8027 16.1L17.9139 20.1896L22.0467 16.1288Z" fill="#00A4E1"/>
</g>
<defs>
<clipPath id="clip0_1_15416">
<rect width="36" height="36" fill="white" transform="translate(0 0.576172)"/>
</clipPath>
</defs>
</svg>
