<svg width="36" height="37" viewBox="0 0 36 37" fill="none" xmlns="http://www.w3.org/2000/svg">
<g clip-path="url(#clip0_1_15415)">
<path d="M12.2186 10.0593H12.2474C9.15857 10.0593 6.37217 8.18005 5.21297 5.31445C4.84577 6.22165 4.65137 7.18645 4.65137 8.16565V29.0673C4.74497 33.2001 8.12177 36.4977 12.2474 36.4977C16.373 36.4977 19.7498 33.2001 19.8434 29.0673V17.6985C19.8434 13.4865 16.4306 10.0737 12.2186 10.0737" fill="#0E560E"/>
<path d="M19.6273 0.662592C19.1161 0.604992 18.6049 0.576192 18.0937 0.576192H12.2617C9.16569 0.568992 6.37929 2.44819 5.21289 5.31379C6.37209 8.17939 9.15849 10.0586 12.2473 10.0586C16.4521 10.073 19.8505 13.493 19.8433 17.705V27.0434C26.4745 26.1434 31.3993 20.4482 31.3417 13.7594C31.2913 7.06339 26.2657 1.45459 19.6273 0.662592ZM7.07049 15.473C6.91209 15.473 6.76089 15.4082 6.65289 15.3002C6.15609 14.8034 5.88249 14.1338 5.88249 13.4354C5.88249 12.737 6.16329 12.0674 6.65289 11.5706C6.88329 11.3402 7.25769 11.3402 7.48809 11.5706C7.71849 11.801 7.71849 12.1754 7.48809 12.4058C6.92649 12.9746 6.92649 13.889 7.48809 14.4578C7.66089 14.6306 7.71129 14.8826 7.61769 15.1058C7.52409 15.329 7.30809 15.473 7.07049 15.473ZM7.07049 22.0394C6.91209 22.0394 6.76809 21.9746 6.65289 21.8666C5.62329 20.837 5.62329 19.1594 6.65289 18.1298C6.88329 17.8994 7.25769 17.8994 7.48809 18.1298C7.71849 18.3602 7.71849 18.7346 7.48809 18.9722C6.92649 19.541 6.92649 20.4554 7.48809 21.0242C7.60329 21.1322 7.66089 21.2834 7.66089 21.4418C7.66089 21.6002 7.59609 21.7514 7.48809 21.8594C7.38009 21.9818 7.22889 22.0394 7.07049 22.0394ZM7.07049 28.5986C6.91209 28.5986 6.76089 28.5338 6.65289 28.4258C6.15609 27.929 5.88249 27.2594 5.88249 26.561C5.88249 25.8626 6.16329 25.193 6.65289 24.6962C6.88329 24.4658 7.25769 24.4658 7.48809 24.6962C7.71849 24.9266 7.71849 25.301 7.48809 25.5386C6.92649 26.1074 6.92649 27.0218 7.48809 27.5906C7.65369 27.7634 7.70409 28.0154 7.61049 28.2386C7.52409 28.4546 7.30809 28.5986 7.07049 28.5986ZM10.1017 18.7562C9.94329 18.7562 9.79209 18.6986 9.68409 18.5834C8.65449 17.5466 8.65449 15.8834 9.68409 14.8466C9.91449 14.6162 10.2889 14.6162 10.5265 14.8466C10.6417 14.9546 10.6993 15.1058 10.6993 15.2642C10.6993 15.4226 10.6345 15.5738 10.5265 15.6818C9.96489 16.2506 9.96489 17.165 10.5265 17.7338C10.6993 17.9066 10.7497 18.1586 10.6561 18.3818C10.5625 18.6122 10.3393 18.7562 10.1017 18.7562ZM10.1017 25.3226C9.94329 25.3226 9.79209 25.2578 9.68409 25.1498C8.65449 24.113 8.65449 22.4498 9.68409 21.413C9.91449 21.1826 10.2889 21.1826 10.5265 21.413C10.6417 21.5282 10.6993 21.6722 10.6993 21.8306C10.6993 21.989 10.6345 22.1402 10.5265 22.2482C9.95049 22.8098 9.93609 23.7314 10.4977 24.3074C10.6129 24.4154 10.6705 24.5666 10.6705 24.725C10.6705 24.8834 10.6057 25.0346 10.4977 25.1426C10.3825 25.2506 10.2313 25.3154 10.0801 25.3154" fill="#48C148"/>
</g>
<defs>
<clipPath id="clip0_1_15415">
<rect width="36" height="36" fill="white" transform="translate(0 0.576172)"/>
</clipPath>
</defs>
</svg>
