<svg width="36" height="37" viewBox="0 0 36 37" fill="none" xmlns="http://www.w3.org/2000/svg">
<g clip-path="url(#clip0_1_15414)">
<path d="M17.9853 0.982422L3.62598 3.98387V23.8867C3.62598 26.8007 6.61143 29.5545 9.8444 31.6963C12.3779 33.3573 15.0289 34.8144 17.7668 36.082L17.9997 36.17L18.2326 36.082C18.8152 35.8635 32.3736 30.0937 32.3736 23.8867V3.98389L17.9853 0.982422ZM31.2087 23.8867C31.2087 28.2286 21.8738 32.8183 17.9853 34.3482L17.796 34.2754L17.7231 34.2462L17.5921 34.1879L17.5192 34.1587L17.3882 34.1005L17.3445 34.0859L17.1843 34.013L17.1406 33.9984L16.9659 33.9256L16.9367 33.911L16.7474 33.8382H16.7332L16.5147 33.7502H16.5001C14.5632 32.8906 12.0438 31.623 9.83019 30.1368L9.56805 29.962L9.30591 29.7725L9.05838 29.5976L9.04377 29.583L8.81084 29.4082L8.79624 29.3936L8.56294 29.2201L8.54834 29.2055L8.31541 29.0306L8.2862 29.016L8.0677 28.8557L8.0385 28.8411L7.83459 28.6809L7.80539 28.6516L7.61609 28.4914L7.58688 28.4622L7.41218 28.3019L7.36855 28.2727L7.20828 28.1124L7.16465 28.0688L7.00437 27.9085L6.96074 27.8649L6.80047 27.7192L6.75684 27.6756L6.61117 27.5299L6.56754 27.4717L6.43647 27.326L6.39283 27.2678L6.26177 27.1221L6.21813 27.0639L6.10167 26.9182L6.04343 26.86L5.94157 26.7289L5.88333 26.6561L5.78147 26.525L5.72323 26.4522L5.63527 26.3211L5.59163 26.2483L5.50366 26.1172L5.46003 26.0292C5.43083 25.9856 5.4164 25.9413 5.3872 25.9126L5.32896 25.8246C5.30382 25.7889 5.28419 25.7495 5.27073 25.708L5.2271 25.62C5.2125 25.5764 5.18347 25.5472 5.16886 25.5034C5.15733 25.4726 5.14271 25.4432 5.12523 25.4154C5.10828 25.3774 5.09371 25.3385 5.0816 25.2988C5.067 25.2551 5.0524 25.2405 5.03797 25.1967C5.0261 25.1616 5.01152 25.1275 4.99434 25.0947C4.97795 25.0629 4.96803 25.0282 4.96513 24.9926C4.96513 24.9634 4.93593 24.9198 4.93593 24.8906C4.93304 24.855 4.92311 24.8203 4.90673 24.7886C4.89213 24.7594 4.89212 24.7303 4.87752 24.6865C4.86292 24.6427 4.86292 24.6137 4.84832 24.5699C4.83741 24.5419 4.83244 24.5119 4.83372 24.4819C4.83372 24.4527 4.81912 24.4091 4.81912 24.3653C4.81912 24.3215 4.80452 24.307 4.80452 24.2773C4.80027 24.2326 4.79045 24.1885 4.77531 24.1462C4.76071 24.1026 4.77531 24.1026 4.77531 24.0734V5.04759L17.9272 2.93531H18.0436L31.1951 5.04759L31.2097 23.8869L31.2087 23.8867Z" fill="#5E4778"/>
<path d="M17.9853 4.39258L8.02439 5.99534L5.9707 6.3159V23.3776C5.9707 27.3261 14.461 31.5077 17.9853 32.892C20.0387 32.0906 23.7669 30.3422 26.5194 28.2441C26.7233 28.0838 26.9417 27.9236 27.1311 27.7633C28.0777 26.9911 28.8641 26.1751 29.3739 25.3447C29.7672 24.7036 30.0001 24.0479 30.0001 23.3918V6.31591L17.9853 4.39258ZM12.1891 13.4406H19.194V14.8977H12.1891V13.4406ZM25.8494 14.1255C25.8494 17.5786 23.4465 19.8082 20.1261 19.8082H15.5242V27.0933H13.7037V18.1615H19.8791C22.3548 18.1615 23.9713 16.6607 23.9713 14.1255C23.9713 11.6195 22.3548 10.1624 19.9081 10.1624H17.9853L13.3834 10.177V8.51597H20.1111C23.4462 8.51597 25.8491 10.6724 25.8491 14.1255" fill="#5E4778"/>
<path d="M17.9854 0.982422V2.93531H18.0436L31.1951 5.04759V23.8716C31.1951 28.2135 21.8602 32.8031 17.9717 34.3331V36.1543L18.2046 36.0664C18.7871 35.8478 32.3456 30.0781 32.3456 23.8711V3.98389L17.9854 0.982422Z" fill="#5E4778"/>
<path d="M20.1112 19.7932H15.5242V20.6527C16.304 21.2757 17.1318 21.836 17.9999 22.3285C20.8979 23.9895 24.6262 25.1114 29.3884 25.3299C29.7816 24.6888 30.0146 24.0331 30.0146 23.377V6.31591L17.9999 4.39258L8.02441 5.99534C8.49047 9.73996 9.87402 14.9123 13.7041 18.9774V18.1614H19.8795C22.3552 18.1614 23.9717 16.6607 23.9717 14.1255C23.9717 11.6195 22.3552 10.1624 19.9085 10.1624H17.9853L13.3834 10.177V8.51596H20.1112C23.4316 8.51596 25.8345 10.687 25.8345 14.1107C25.8345 17.5638 23.4462 19.7934 20.1112 19.7934M17.9853 13.4406H19.1787V14.8977H12.1892V13.4406L17.9853 13.4406Z" fill="#5E4778"/>
<path d="M17.8105 34.2754L17.7376 34.2462L17.6065 34.2025L17.5337 34.1733L17.4026 34.1151L17.359 34.1005L17.1987 34.0276L17.1551 34.013L16.9804 33.9402L16.9512 33.9256L16.7619 33.8376H16.733L16.5145 33.7497H16.4999C14.5777 32.89 12.0581 31.6224 9.84449 30.1217L9.58235 29.9468L9.32021 29.7429L9.07267 29.5681L9.05807 29.5534L8.82514 29.3786L8.81054 29.364L8.5776 29.1891L8.563 29.1745L8.33007 28.9996L8.30086 28.985L8.08236 28.8248L8.05316 28.8101L7.84925 28.6499L7.82022 28.6219L7.63092 28.4616L7.60171 28.4324L7.42701 28.2722L7.38338 28.2429L7.22311 28.0827L7.17948 28.039L7.01921 27.8788L6.97557 27.8351L6.8153 27.6895L6.77167 27.6458L6.626 27.5002L6.58237 27.4419L6.4513 27.2963L6.40767 27.238L6.2766 27.0924L6.23297 27.0341L6.1019 26.9175L6.04366 26.8593L5.9418 26.7282L5.88357 26.6553L5.7817 26.5243L5.72347 26.4514L5.6355 26.3204L5.59186 26.2475L5.5039 26.1165L5.46026 26.0436C5.43106 26 5.41663 25.9557 5.38743 25.927L5.32919 25.839L5.27096 25.7224L5.22733 25.6344C5.21273 25.5908 5.1837 25.5616 5.1691 25.5178C5.15756 25.4871 5.14294 25.4576 5.12546 25.4298C5.10851 25.3919 5.09394 25.3529 5.08183 25.3132C5.06723 25.2695 5.05263 25.2549 5.0382 25.2111C5.02633 25.176 5.01175 25.1419 4.99457 25.1091C4.97629 25.0781 4.96624 25.043 4.96536 25.0071C4.96536 24.9634 4.93616 24.9191 4.93616 24.8904C4.93327 24.8548 4.92334 24.8201 4.90696 24.7884C4.89235 24.7592 4.89236 24.7301 4.87775 24.6863C4.86315 24.6425 4.86315 24.6135 4.84855 24.5697C4.83764 24.5417 4.83265 24.5117 4.83395 24.4817C4.83395 24.4525 4.81935 24.4089 4.81935 24.3651C4.81935 24.3213 4.80475 24.3069 4.80475 24.2771C4.8005 24.2324 4.79068 24.1884 4.77554 24.146C4.76094 24.1024 4.77554 24.1024 4.77554 24.0732V5.04759L17.927 2.93531H17.9853V0.982422L3.62598 3.98387V23.8867C3.62598 26.8007 6.61143 29.5545 9.8444 31.6963C12.3779 33.3573 15.0289 34.8144 17.7668 36.082L17.9997 36.17V34.3482L17.8104 34.2753" fill="#3D3144"/>
<path d="M17.9853 22.3273C17.1172 21.8348 16.2894 21.2744 15.5096 20.6515V27.0907H13.6895V18.976C9.85905 14.8965 8.4901 9.72397 8.02439 5.99414L5.9707 6.3147V23.3764C5.9707 27.3249 14.461 31.5065 17.9853 32.8908C20.0387 32.0894 23.7669 30.3409 26.5194 28.2429C26.7233 28.0826 26.9417 27.9223 27.1311 27.7621C28.0777 26.9899 28.8641 26.1739 29.3739 25.3435C24.6117 25.0958 20.8981 23.9738 17.9855 22.3274" fill="#3D3144"/>
</g>
<defs>
<clipPath id="clip0_1_15414">
<rect width="36" height="36" fill="white" transform="translate(0 0.576172)"/>
</clipPath>
</defs>
</svg>
