<svg width="36" height="37" viewBox="0 0 36 37" fill="none" xmlns="http://www.w3.org/2000/svg">
<g clip-path="url(#clip0_1_15411)">
<path d="M2.45508 9.6487V27.5047L17.8631 36.4327L33.2711 27.5047V9.6487L17.8631 0.720703L2.45508 9.6487Z" fill="#8340FB"/>
<path d="M28.9514 8.20842H25.3802L23.7818 5.43642H20.5994L18.8066 2.31882H15.3002L15.2498 2.23242L12.8594 3.61482L13.5938 4.88202H17.093L18.893 7.99962H22.0754L23.6738 10.7716H27.2378L28.973 13.774H32.3714L33.2714 15.3292V11.2108H30.6794L28.9514 8.20842Z" fill="#7936F9"/>
<path d="M28.9729 13.7744L27.2377 10.772H23.6737L22.0753 8.00003H18.8929L17.0929 4.88243H13.5937L12.8593 3.61523L10.5049 4.98323L12.0673 7.69043H15.5737L17.3665 10.808H20.5489L22.1473 13.58H25.7185L27.4465 16.5824H30.8449L32.3641 19.2176H33.2713V15.3296L32.3713 13.7744H28.9729Z" fill="#702EF7"/>
<path d="M30.8448 16.5816H27.4464L25.7184 13.5792H22.1472L20.5488 10.8072H17.3664L15.5736 7.68962H12.0672L10.5048 4.98242L6.19922 7.48082H8.64722L10.6056 10.8576H14.1048L15.9048 13.9752H19.08L20.6856 16.7472H24.2496L25.9848 19.7496H29.3832L30.9024 22.3848H33.2712V19.2168H32.364L30.8448 16.5816Z" fill="#6527E5"/>
<path d="M30.9023 22.3845L29.3831 19.7493H25.9847L24.2495 16.7469H20.6855L19.0799 13.9749H15.9047L14.1047 10.8573H10.6055L8.64708 7.48047H6.19908L2.45508 9.64767V9.95007H7.00548L8.95668 13.3269H12.4559L14.2559 16.4445H17.4383L19.0367 19.2165H22.6007L24.3359 22.2189H27.7343L29.2535 24.8541H32.4575L33.2711 26.2581V22.3845H30.9023Z" fill="#5A22D2"/>
<path d="M29.2535 24.8552L27.7343 22.22H24.3359L22.6007 19.2176H19.0367L17.4383 16.4456H14.2559L12.4559 13.328H8.95668L7.00548 9.95117H2.45508V12.572H5.41428L7.37268 15.956H10.8719L12.6719 19.0664H15.8471L17.4527 21.8456H21.0167L22.7519 24.8408H26.1503L27.6695 27.476H30.8735L31.4855 28.5416L33.2711 27.5048V26.2592L32.4575 24.8552H29.2535Z" fill="#501CC1"/>
<path d="M27.6695 27.4763L26.1503 24.8411H22.7519L21.0167 21.8459H17.4527L15.8471 19.0667H12.6719L10.8719 15.9563H7.37268L5.41428 12.5723H2.45508V15.3803H3.89508L5.84628 18.7571H9.34548L11.1455 21.8747H14.3279L15.9263 24.6467H19.4903L21.2255 27.6491H24.6239L26.1431 30.2843H28.4687L31.4855 28.5419L30.8735 27.4763H27.6695Z" fill="#4719AC"/>
<path d="M24.6239 27.6477H21.2255L19.4903 24.6453H15.9263L14.3279 21.8733H11.1455L9.34548 18.7557H5.84628L3.89508 15.3789H2.45508V18.0429L4.37748 21.3837H7.88388L9.68388 24.4941H12.8591L14.4647 27.2733H18.0287L19.7639 30.2685H23.1551L24.4943 32.5869L28.4687 30.2829H26.1431L24.6239 27.6477Z" fill="#3A128F"/>
<path d="M23.1551 30.2686H19.7639L18.0287 27.2734H14.4647L12.8591 24.4942H9.68388L7.88388 21.3838H4.37748L2.45508 18.043V23.4862L2.56308 23.6806H6.06948L7.86948 26.7982H11.0447L12.6503 29.5702H16.2143L17.9495 32.5726H21.3407L22.1399 33.955L24.4943 32.587L23.1551 30.2686Z" fill="#300D79"/>
<path d="M21.3407 32.5727H17.9495L16.2143 29.5703H12.6503L11.0447 26.7983H7.86948L6.06948 23.6807H2.56308L2.45508 23.4863V27.5039L17.8631 36.4319L22.1399 33.9551L21.3407 32.5727Z" fill="#2A0A6A"/>
<path d="M21.0028 21.7018C20.9884 22.8394 20.5996 23.7682 19.7428 24.445C19.102 24.949 18.3388 25.1794 17.7268 25.093C17.7196 24.9778 17.698 24.8626 17.698 24.7402C17.6908 21.4426 17.6764 18.145 17.6836 14.8474C17.6908 12.7738 19.1236 10.9954 21.1612 10.5994C24.0196 10.0378 26.2516 12.2122 26.3596 14.4226C26.4172 15.6682 26.4676 16.9282 26.3164 18.1594C26.1364 19.6714 25.2148 20.7586 23.8396 21.4138C22.9612 21.8314 22.018 21.8962 21.0028 21.7018ZM22.9972 14.9122C22.9828 14.3362 22.6012 13.9402 22.054 13.9258C21.514 13.9114 21.0316 14.329 21.0172 14.8834C20.9956 15.7474 20.9956 16.6114 21.01 17.4754C21.0172 18.0298 21.478 18.4474 22.0252 18.4474C22.594 18.4402 23.0116 18.0442 23.026 17.4682C23.0476 17.0434 23.0116 15.3442 22.9972 14.9122Z" fill="white"/>
<path d="M10.3827 25.1783C10.3827 24.3575 10.3395 23.5727 10.3971 22.7951C10.4547 22.0247 10.7715 21.3479 11.3475 20.8151C12.5283 19.7279 15.1707 19.8287 15.9627 21.9023C16.3659 22.9679 16.1859 24.0551 16.2147 25.1783C14.2635 25.1783 12.3555 25.1783 10.3827 25.1783ZM11.5059 23.7455C12.7155 23.7455 13.8675 23.7455 15.0411 23.7455C15.0627 22.9895 14.9547 22.2983 14.2995 21.9023C13.6371 21.4991 12.8955 21.5351 12.2403 21.9311C11.5923 22.3271 11.4987 22.9967 11.5059 23.7455Z" fill="white"/>
<path d="M16.1999 15.5023C15.8903 15.6175 15.5735 15.7399 15.2423 15.8695C15.2423 16.4743 15.2423 17.0719 15.2423 17.6911C15.5591 17.8135 15.8687 17.9431 16.2071 18.0727C16.2071 18.5623 16.2071 19.0519 16.2071 19.6423C14.2127 18.8143 12.2903 18.0151 10.3535 17.2159C10.3535 16.8271 10.3535 16.4743 10.3535 16.0567C12.2687 15.3367 14.1983 14.6095 16.1999 13.8535C16.1999 14.4151 16.1999 14.9263 16.1999 15.5023ZM14.0471 16.2439C13.5503 16.4095 13.1183 16.5535 12.6863 16.6903C12.6863 16.7191 12.6863 16.7551 12.6863 16.7839C13.1255 16.9351 13.5647 17.0863 14.0471 17.2519C14.0471 16.8991 14.0471 16.6183 14.0471 16.2439Z" fill="white"/>
<path d="M16.2363 11.5566C16.2363 12.039 16.2363 12.4926 16.2363 12.975C14.2563 12.975 12.3123 12.975 10.3467 12.975C10.3467 12.4854 10.3467 12.0534 10.3467 11.5566C12.3123 11.5566 14.2491 11.5566 16.2363 11.5566Z" fill="white"/>
</g>
<defs>
<clipPath id="clip0_1_15411">
<rect width="36" height="36" fill="white" transform="translate(0 0.576172)"/>
</clipPath>
</defs>
</svg>
