<svg width="36" height="37" viewBox="0 0 36 37" fill="none" xmlns="http://www.w3.org/2000/svg">
<g clip-path="url(#clip0_1_15781)">
<path d="M2.5918 9.6487V27.5047L17.9998 36.4327L33.4078 27.5047V9.6487L17.9998 0.720703L2.5918 9.6487Z" fill="#8340FB"/>
<path d="M29.0877 8.20842H25.5237L23.9181 5.43642H20.7429L18.9429 2.31882H15.4365L15.3861 2.23242L13.0029 3.61482L13.7301 4.88202H17.2365L19.0293 7.99962H22.2117L23.8101 10.7716H27.3813L29.1093 13.774H32.5077L33.4077 15.3292V11.2108H30.8229L29.0877 8.20842Z" fill="#7936F9"/>
<path d="M29.1096 13.7744L27.3816 10.772H23.8104L22.212 8.00003H19.0296L17.2368 4.88243H13.7304L13.0032 3.61523L10.6416 4.98323L12.204 7.69043H15.7104L17.5104 10.808H20.6856L22.284 13.58H25.8552L27.5832 16.5824H30.9816L32.5008 19.2176H33.408V15.3296L32.508 13.7744H29.1096Z" fill="#702EF7"/>
<path d="M30.9815 16.5816H27.5831L25.8551 13.5792H22.2839L20.6855 10.8072H17.5103L15.7103 7.68962H12.2039L10.6415 4.98242L6.33594 7.48082H8.79114L10.7423 10.8576H14.2415L16.0415 13.9752H19.2239L20.8223 16.7472H24.3863L26.1215 19.7496H29.5199L31.0391 22.3848H33.4079V19.2168H32.5007L30.9815 16.5816Z" fill="#6527E5"/>
<path d="M31.039 22.3845L29.5198 19.7493H26.1214L24.3862 16.7469H20.8222L19.2238 13.9749H16.0414L14.2414 10.8573H10.7422L8.791 7.48047H6.3358L2.5918 9.64767V9.95007H7.1422L9.0934 13.3269H12.5998L14.3998 16.4445H17.575L19.1734 19.2165H22.7446L24.4726 22.2189H27.871L29.3902 24.8541H32.5942L33.4078 26.2581V22.3845H31.039Z" fill="#5A22D2"/>
<path d="M29.3902 24.8552L27.871 22.22H24.4726L22.7446 19.2176H19.1734L17.575 16.4456H14.3998L12.5998 13.328H9.0934L7.1422 9.95117H2.5918V12.572H5.5582L7.5094 15.956H11.0086L12.8086 19.0664H15.991L17.5894 21.8456H21.1534L22.8886 24.8408H26.287L27.8062 27.476H31.0102L31.6222 28.5416L33.4078 27.5048V26.2592L32.5942 24.8552H29.3902Z" fill="#501CC1"/>
<path d="M27.8062 27.4763L26.287 24.8411H22.8886L21.1534 21.8459H17.5894L15.991 19.0667H12.8086L11.0086 15.9563H7.5094L5.5582 12.5723H2.5918V15.3803H4.0318L5.983 18.7571H9.4894L11.2822 21.8747H14.4646L16.063 24.6467H19.6342L21.3622 27.6491H24.7606L26.2798 30.2843H28.6054L31.6222 28.5419L31.0102 27.4763H27.8062Z" fill="#4719AC"/>
<path d="M24.7606 27.6477H21.3622L19.6342 24.6453H16.063L14.4646 21.8733H11.2822L9.4894 18.7557H5.983L4.0318 15.3789H2.5918V18.0429L4.5214 21.3837H8.0206L9.8206 24.4941H13.003L14.6014 27.2733H18.1654L19.9006 30.2685H23.299L24.631 32.5869L28.6054 30.2829H26.2798L24.7606 27.6477Z" fill="#3A128F"/>
<path d="M23.299 30.2686H19.9006L18.1654 27.2734H14.6014L13.003 24.4942H9.8206L8.0206 21.3838H4.5214L2.5918 18.043V23.4862L2.6998 23.6806H6.2062L8.0062 26.7982H11.1814L12.787 29.5702H16.351L18.0862 32.5726H21.4774L22.2766 33.955L24.631 32.587L23.299 30.2686Z" fill="#300D79"/>
<path d="M21.4774 32.5727H18.0862L16.351 29.5703H12.787L11.1814 26.7983H8.0062L6.2062 23.6807H2.6998L2.5918 23.4863V27.5039L17.9998 36.4319L22.2766 33.9551L21.4774 32.5727Z" fill="#2A0A6A"/>
<path d="M21.3836 21.7445C21.3116 22.9829 20.8724 24.0269 19.778 24.6965C19.2596 25.0133 18.7052 25.2149 18.0428 25.1573C18.0356 25.0061 18.0212 24.8693 18.0212 24.7325C18.014 21.4493 17.9996 18.1661 18.0068 14.8757C18.0068 12.8309 19.3388 11.1173 21.326 10.5917C23.7956 9.93654 26.1284 11.5349 26.6684 13.7381C26.7476 14.0549 26.8052 14.3861 26.8052 14.7101C26.8052 15.8045 26.87 16.9061 26.7404 17.9933C26.5316 19.7645 25.4948 20.9453 23.8316 21.5789C23.0396 21.8813 22.2332 21.8525 21.3836 21.7445ZM21.3836 16.1645H21.3764C21.3764 16.3805 21.3764 16.5965 21.3764 16.8125C21.3764 17.0429 21.3692 17.2733 21.3836 17.4965C21.4196 18.0365 21.8588 18.4397 22.3916 18.4397C22.9604 18.4397 23.3996 18.0365 23.4068 17.4749C23.414 16.6109 23.414 15.7469 23.3996 14.8829C23.3852 14.3141 22.9388 13.8749 22.406 13.8749C21.8588 13.8749 21.4052 14.3285 21.3908 14.9045C21.3764 15.3221 21.3836 15.7469 21.3836 16.1645Z" fill="white"/>
<path d="M16.4804 18.0359C15.1484 18.0359 13.9244 18.0359 12.686 18.0359C12.6572 17.9927 12.6068 17.9495 12.614 17.9063C12.6572 17.2511 12.6284 16.5743 12.7724 15.9479C12.9596 15.1703 13.766 14.7023 14.6012 14.7383C15.4724 14.7743 16.1564 15.2711 16.322 16.0919C16.4444 16.7111 16.43 17.3591 16.4804 18.0359ZM15.6164 17.0423C15.6308 16.5239 15.5084 16.1279 15.0836 15.8903C14.738 15.6959 14.054 15.7679 13.7804 16.0127C13.4708 16.2863 13.3844 16.6391 13.4276 17.0423C14.1764 17.0423 14.882 17.0423 15.6164 17.0423Z" fill="white"/>
<path d="M12.6436 25.6395C12.6436 25.2651 12.6436 25.0059 12.6436 24.6819C13.2412 24.6819 13.8244 24.6891 14.4004 24.6819C14.638 24.6819 14.89 24.6891 15.1204 24.6315C15.5308 24.5307 15.7252 24.2859 15.6892 23.9835C15.6532 23.6667 15.3868 23.4363 14.9836 23.4219C14.4148 23.4003 13.8388 23.4075 13.27 23.4075C13.0828 23.4075 12.8956 23.4075 12.658 23.4075C12.658 23.0835 12.658 22.8099 12.658 22.4355C13.6084 22.4787 14.5516 22.4643 15.4732 22.5867C16.1788 22.6803 16.5316 23.2995 16.5172 24.1059C16.5028 24.8475 16.0924 25.4451 15.394 25.5243C14.5012 25.6179 13.594 25.6035 12.6436 25.6395Z" fill="white"/>
<path d="M15.7968 21.7869C15.624 21.5997 15.4656 21.4269 15.2784 21.2253C15.3432 21.1173 15.4368 21.0093 15.48 20.8869C15.5592 20.6565 15.66 20.4117 15.6672 20.1741C15.6744 20.0589 15.5016 19.8789 15.3792 19.8429C15.2856 19.8141 15.0912 19.9365 15.0264 20.0373C14.8896 20.2605 14.8104 20.5197 14.6952 20.7645C14.436 21.3117 14.0328 21.5637 13.5288 21.5061C13.0464 21.4485 12.672 21.0885 12.564 20.5125C12.456 19.9149 12.6144 19.3965 13.0464 18.8997C13.2624 19.0653 13.4424 19.2021 13.644 19.3533C13.5504 19.7637 13.0608 20.1741 13.7016 20.6493C13.8312 20.3973 13.9248 20.2029 14.0184 20.0085C14.1696 19.7205 14.2776 19.3965 14.4864 19.1517C14.94 18.6189 15.804 18.6981 16.2 19.2669C16.7328 20.0229 16.5672 21.1605 15.7968 21.7869Z" fill="white"/>
<path d="M12.9891 10.822C13.2195 10.9732 13.4355 11.11 13.6443 11.2396C13.2987 12.19 13.3419 12.55 13.8171 12.874C14.2563 13.1692 14.9331 13.1548 15.3147 12.838C15.7035 12.514 15.7251 12.0532 15.3579 11.254C15.5523 11.0956 15.7611 10.9156 15.9555 10.75C16.6467 11.2324 16.7403 12.5356 16.1643 13.3276C15.5451 14.1844 14.1483 14.386 13.3347 13.7452C12.4131 13.0108 12.2403 11.758 12.9891 10.822Z" fill="white"/>
</g>
<defs>
<clipPath id="clip0_1_15781">
<rect width="36" height="36" fill="white" transform="translate(0 0.576172)"/>
</clipPath>
</defs>
</svg>
