<svg width="36" height="37" viewBox="0 0 36 37" fill="none" xmlns="http://www.w3.org/2000/svg">
<g clip-path="url(#clip0_1_15564)">
<path d="M19.9149 13.543C20.1885 14.1982 20.4549 14.8606 20.7213 15.523C20.7645 15.631 20.8149 15.739 20.7861 15.9046C20.2893 15.6814 19.8717 15.3862 19.4685 15.091C18.0573 14.0542 16.9053 12.787 16.0485 11.2534C15.7821 10.7782 15.7749 10.7782 15.3213 11.131C13.4781 12.571 11.6853 14.083 9.77007 15.4366C9.23727 15.811 8.68287 16.0054 8.03487 15.847C7.49487 15.7174 7.35087 15.451 7.62447 14.9902C8.67567 13.1974 9.00687 11.203 9.24447 9.19421C9.45327 7.39421 9.89247 5.68781 11.0373 4.23341C11.7573 3.31901 12.6357 2.57741 13.6725 2.03741C13.8237 1.95821 13.9677 1.82861 14.2053 1.87901C14.2701 2.49101 14.3421 3.11741 14.4141 3.76541C14.7093 3.77261 14.8173 3.52061 14.9685 3.36941C15.8973 2.41181 16.9773 1.69901 18.2589 1.31021C18.5541 1.20221 20.2533 1.00781 20.8077 1.00781C20.9517 1.13741 21.0453 1.27421 21.0597 1.49021C21.1605 2.72861 20.8365 3.82301 20.0445 4.77341C19.7565 5.11901 19.4685 5.47181 19.1805 5.81741C19.1445 5.86781 19.0653 5.96141 19.0653 5.96861C19.1517 6.05501 20.4981 5.27021 21.1245 4.96781C22.2045 4.45661 23.2989 4.00301 24.5085 3.93101C24.9909 3.90221 25.4517 3.98141 25.9053 4.16141C26.1573 4.26221 26.1717 4.39181 26.0421 4.60781C25.5165 5.45021 24.8181 6.11261 24.0405 6.71021C23.1837 7.35821 22.2693 7.91261 21.2901 8.35901C21.1677 8.41661 21.0237 8.45261 20.8797 8.63981C22.6581 9.12221 24.4509 9.55421 25.6893 11.1454C24.5373 11.6782 23.4213 11.7214 22.2909 11.5486C21.0597 11.3614 19.9365 10.8646 18.9357 10.1086C18.7773 9.99341 18.3885 9.69101 18.3381 9.74141C18.2949 9.79181 19.4109 12.319 19.9149 13.543ZM13.9749 8.55341C13.9893 8.27981 13.7589 8.02061 13.4781 7.99901C13.1757 7.97741 12.9453 8.17181 12.9309 8.48141C12.9165 8.79821 13.0965 9.00701 13.4133 9.02141C13.7301 9.03581 13.9605 8.84141 13.9749 8.55341ZM10.5693 8.01341C10.2741 8.02781 10.0869 8.21501 10.0869 8.50301C10.0869 8.79821 10.3101 9.02141 10.6197 9.02141C10.9293 9.02141 11.1525 8.79101 11.1381 8.49581C11.1237 8.20781 10.8789 7.99901 10.5693 8.01341Z" fill="#FE6C02"/>
<path d="M23.3636 1.28861C27.0716 2.19581 29.8724 4.38461 32.0972 7.40141C32.5076 7.95581 32.882 8.54621 33.2132 9.17981C32.882 9.41021 32.5076 9.44621 32.1404 9.47501C30.722 9.59741 29.3684 9.29501 28.0868 8.73341C26.8268 8.17901 25.538 7.76141 24.0116 7.76141C24.3356 7.50941 24.5588 7.33661 24.782 7.15661C25.6244 6.47261 26.366 5.70941 26.8772 4.74461C27.1868 4.15421 27.1436 3.99581 26.582 3.63581C25.7252 3.09581 24.782 3.05981 23.8244 3.20381C23.0612 3.31901 22.334 3.58541 21.542 3.89501C21.8228 2.90861 22.046 1.97261 21.7652 1.00781C21.9164 1.00781 22.9892 1.19501 23.3636 1.28861Z" fill="#FE6C02"/>
<path d="M16.6396 36.1739C16.4524 35.6843 16.6252 35.2307 16.798 34.7987C17.1364 33.9347 17.7124 33.2219 18.4108 32.6243C19.6204 31.5947 21.0532 30.9611 22.4932 30.3419C22.5364 30.3203 22.6084 30.3491 22.7164 30.3563C22.4644 30.8459 22.1836 31.2923 22.018 31.7891C21.6436 32.9267 21.6868 34.0499 22.1188 35.1587C22.306 35.6339 22.2988 35.6483 21.7876 35.7563C21.226 35.8715 20.6572 35.9579 20.0884 36.0515C19.9948 36.0659 17.7052 36.1739 16.6396 36.1739Z" fill="#FE6C02"/>
<path d="M0.546875 18.8867C1.49008 19.1315 1.87888 19.8947 2.18128 20.7011C2.41167 21.3131 2.67088 21.9107 3.01648 22.4651C3.21808 22.7819 3.44128 23.0843 3.65008 23.4011C3.74368 23.5451 3.88768 23.6675 3.89488 23.8691C3.54208 23.9483 3.22528 23.7755 2.88688 23.7827C2.59168 23.7899 2.28928 23.7755 1.99408 23.7899C1.28848 23.8331 1.29568 23.8403 1.10128 23.1275C0.906875 22.4219 0.784475 21.7019 0.669275 20.9747C0.662075 20.8667 0.546875 19.4843 0.546875 18.8867Z" fill="#FE6C02"/>
<path d="M0.777639 15.9194C0.885639 15.4442 0.950439 14.9618 1.13044 14.4434C1.53364 14.7458 1.55524 15.149 1.52644 15.5162C1.46884 16.3298 1.44724 17.129 1.51924 17.9426C1.55524 18.2954 1.47604 18.3314 1.10884 18.2234C0.921639 18.1658 0.734439 18.1082 0.540039 18.0578C0.547239 17.6978 0.698439 16.2722 0.777639 15.9194Z" fill="#FE6C02"/>
<path d="M15.5306 11.9805C16.0634 12.6789 16.5674 13.3845 17.1578 14.0253C18.2234 15.1701 19.4114 16.1421 20.8226 16.8261C21.1034 16.9629 21.2401 17.1429 21.2977 17.4453C21.4921 18.5541 21.485 19.6485 21.2761 20.7717C20.8154 20.6493 20.4553 20.4045 20.0809 20.1957C18.8354 19.5045 17.5106 19.2957 16.1138 19.5693C15.8546 19.6197 15.689 19.5909 15.5378 19.3173C15.3002 18.8925 15.2714 18.8997 14.789 19.1373C13.0034 20.0229 11.1314 20.6493 9.19455 21.0957C8.73375 21.2037 8.26575 21.2973 7.78335 21.2829C7.53855 21.2757 7.33695 21.2037 7.27935 20.9589C7.22175 20.7141 7.36575 20.5485 7.58175 20.4405C7.66815 20.3973 7.76175 20.3541 7.85535 20.3253C9.40335 19.8717 10.4978 18.8421 11.3906 17.5605C11.9954 16.6965 12.5138 15.7821 12.9602 14.8317C13.5362 13.6365 14.4218 12.7365 15.5306 11.9805Z" fill="#FE6C02"/>
<path d="M20.1099 11.7434C20.8587 12.0314 21.6003 12.2834 22.3851 12.3914C23.7459 12.5786 25.0275 12.3698 26.2659 11.7938C26.6907 11.5994 26.7339 11.4698 26.5179 11.0522C26.0787 10.1882 25.3659 9.59782 24.5451 9.12982C24.2427 8.95702 23.9331 8.80582 23.5443 8.60422C26.6979 8.46022 28.7283 9.56183 29.7867 12.2114C30.1539 13.1186 30.3339 14.069 30.3627 15.0482C30.3699 15.257 30.3627 15.4226 30.1467 15.545C27.6987 16.9058 25.1427 17.5034 22.3779 16.625C22.0035 16.5098 21.7875 16.3226 21.6867 15.9266C21.3555 14.681 20.7435 13.5362 20.2755 12.3338C20.1963 12.161 20.0523 12.0026 20.1099 11.7434Z" fill="#FE6C02"/>
<path d="M13.4638 22.5283C13.5646 22.3699 13.6366 22.2691 13.6942 22.1683C14.839 20.2027 17.1502 19.7995 18.8782 20.5051C19.5622 20.7859 20.1742 21.1891 20.8438 21.4915C21.1318 21.6211 20.959 21.7795 20.9086 21.9163C20.1166 24.2563 18.4462 25.6819 16.1854 26.5171C15.2926 26.8483 14.3638 27.0571 13.4206 27.2083C12.8806 27.2947 12.7582 27.2299 12.5278 26.7547C11.8798 25.4011 11.2318 24.0331 10.591 22.6723C10.5262 22.5283 10.4686 22.3771 10.4182 22.2331C10.1734 21.5635 10.3822 21.2827 11.1094 21.2611C11.5918 21.2467 11.995 21.4483 12.391 21.6787C12.7654 21.9019 13.0966 22.1899 13.4638 22.5283Z" fill="#FE6C02"/>
<path d="M22.0898 17.373C25.049 18.2802 27.7634 17.7474 30.4202 16.293C30.4778 17.7906 30.4778 19.1658 29.9378 20.4762C29.5778 21.3618 28.8362 21.7866 27.929 21.981C26.7914 22.2258 25.6754 22.0458 24.5666 21.8154C23.9258 21.6858 23.3138 21.4554 22.673 21.3114C22.385 21.2466 22.277 21.081 22.2626 20.8146C22.241 20.397 22.2194 19.9794 22.2338 19.569C22.2554 18.8634 22.1834 18.1578 22.0898 17.373Z" fill="#FE6C02"/>
<path d="M31.0964 19.1094C31.2404 19.3614 31.3412 19.5486 31.4492 19.7358C32.162 20.931 33.1628 21.6798 34.5884 21.8022C35.0924 21.8454 35.0924 21.867 34.9988 22.3422C34.5956 24.3438 33.8324 26.2014 32.7596 27.9294C32.5004 28.3398 32.4932 28.3398 32.0756 28.1166C31.4852 27.7998 31.1612 27.2598 30.938 26.655C30.5636 25.6326 30.4916 24.567 30.5132 23.4942C30.5348 22.0398 30.7724 20.6142 31.0964 19.1094Z" fill="#FE6C02"/>
<path d="M29.5706 22.2194C28.8938 24.257 28.0514 26.0642 26.2874 27.2666C25.2794 27.9506 24.617 27.8138 23.9546 26.7842C23.3138 25.7906 22.997 24.6674 22.7306 23.5226C22.6226 23.069 22.5578 22.6082 22.457 22.0898C24.8258 22.7306 27.1226 23.393 29.5706 22.2194Z" fill="#FE6C02"/>
<path d="M17.7116 32.1256C17.4236 32.4568 17.1572 32.7448 16.9124 33.0472C16.2932 33.8392 15.818 34.7032 15.7892 35.7472C15.782 35.992 15.6956 36.0352 15.458 35.9992C12.974 35.6176 10.67 34.768 8.52441 33.3784C8.93481 32.8744 9.47481 32.6008 10.0292 32.3704C11.462 31.7728 12.9452 31.6648 14.4644 31.9024C15.4436 32.0536 16.43 32.1328 17.4308 32.104C17.5028 32.0968 17.5748 32.1112 17.7116 32.1256Z" fill="#FE6C02"/>
<path d="M27.2594 27.5195C26.7842 29.4851 26.2802 31.3643 28.001 32.9051C27.965 33.0347 27.857 33.0923 27.7634 33.1571C26.4458 34.0427 25.0346 34.7483 23.5298 35.2667C23.1914 35.3819 23.0402 35.3171 22.9034 34.9931C22.3346 33.5819 22.4714 32.2427 23.2706 30.9611C23.681 30.2987 24.1994 29.7299 24.8042 29.2403C25.553 28.6211 26.4098 28.1747 27.2594 27.5195Z" fill="#FE6C02"/>
<path d="M31.0537 14.0195C31.3705 14.3147 31.6009 14.5523 31.8601 14.7683C32.7385 15.5099 33.7177 15.9779 34.9057 15.8195C35.1217 15.7907 35.2153 15.8267 35.2441 16.0787C35.4169 17.5835 35.4025 19.0883 35.2945 20.5931C35.2729 20.9459 35.1433 21.0611 34.7833 21.0323C33.7681 20.9531 32.9689 20.5139 32.3713 19.6931C31.7665 18.8507 31.5073 17.8787 31.2985 16.8851C31.1113 15.9707 31.2409 15.0347 31.0537 14.0195Z" fill="#FE6C02"/>
<path d="M32.0473 28.981C31.1329 30.2266 30.1393 31.2634 29.0161 32.185C28.7713 32.3866 28.6129 32.3362 28.4041 32.1634C27.8497 31.6954 27.6409 31.0762 27.6049 30.3778C27.5545 29.2834 27.8713 28.2682 28.2385 27.2602C28.6201 26.2162 29.1961 25.2658 29.6929 24.2578C29.7505 24.913 29.8225 25.561 29.9809 26.1946C30.2761 27.3898 30.7729 28.441 32.0473 28.981Z" fill="#FE6C02"/>
<path d="M19.7284 25.3223C19.8148 25.5599 19.7068 25.7687 19.6636 25.9991C19.4908 26.9711 19.3036 27.9431 19.4548 28.9511C19.5412 29.5343 19.714 30.0671 20.1028 30.5567C19.57 30.8951 19.0084 31.0535 18.4324 31.1615C17.41 31.3559 16.3804 31.3055 15.3508 31.2119C14.998 31.1831 14.9404 31.0463 15.0196 30.7151C15.3076 29.5343 15.9988 28.6055 16.8124 27.7487C17.2732 27.2519 17.8276 26.8631 18.3532 26.4383C18.8068 26.0711 19.2676 25.6967 19.7284 25.3223Z" fill="#FE6C02"/>
<path d="M7.754 26.9277C9.1076 27.5109 10.5044 27.9213 11.9948 28.0005C13.1756 28.0653 14.3276 27.9429 15.4724 27.6621C15.566 27.6405 15.6524 27.5829 15.7676 27.6333C15.7748 27.8061 15.6308 27.8925 15.5372 28.0077C14.9036 28.8357 14.3708 29.7141 14.234 30.7725C14.2052 31.0101 14.09 31.0677 13.874 31.0245C12.5708 30.7581 11.282 30.4629 10.0796 29.8653C9.4028 29.5269 8.8844 29.0229 8.4596 28.4109C8.1572 27.9717 7.8548 27.5253 7.6748 27.0213C7.7036 26.9853 7.7252 26.9565 7.754 26.9277Z" fill="#FE6C02"/>
<path d="M29.4619 10.0589C29.8723 10.1165 30.1819 10.1597 30.4915 10.2101C31.4275 10.3829 32.3491 10.3253 33.2563 10.0445C33.5227 9.96529 33.6307 9.98689 33.7459 10.2461C34.3579 11.6717 34.7683 13.1549 35.0563 14.6741C35.1067 14.9477 35.0059 15.0341 34.7611 15.0557C34.0339 15.1133 33.3931 14.8829 32.8027 14.4869C32.0323 13.9685 31.4635 13.2629 30.9379 12.5069C30.4123 11.7437 30.0955 10.8653 29.4619 10.0589Z" fill="#FE6C02"/>
<path d="M7.70435 28.779C6.45875 28.5558 5.29235 28.5702 4.31315 29.5422C3.12515 28.0734 2.25395 26.475 1.57715 24.6606C2.23235 24.5454 2.85155 24.5454 3.46355 24.6606C4.84595 24.9126 5.90435 25.6758 6.63875 26.8638C7.02035 27.4614 7.32995 28.1022 7.70435 28.779Z" fill="#FE6C02"/>
<path d="M21.7083 22.4355C21.9099 23.7171 22.2051 24.9411 22.7019 26.1147C23.1771 27.2307 23.5515 27.6987 24.4947 28.3827C23.3931 29.0235 22.2699 29.5923 21.1251 30.1251C20.9091 30.2259 20.7867 30.1467 20.6715 29.9955C20.3547 29.5923 20.2395 29.1171 20.2035 28.6131C20.1315 27.5331 20.3475 26.4819 20.5995 25.4451C20.8155 24.5595 21.1107 23.7027 21.4275 22.8531C21.4851 22.7163 21.4851 22.5363 21.7083 22.4355Z" fill="#FE6C02"/>
<path d="M10.9942 31.1554C9.8782 31.4866 8.863 31.9402 8.0134 32.7106C7.8334 32.869 7.711 32.8258 7.5526 32.7034C6.667 32.005 5.8246 31.2634 5.0758 30.4138C4.8454 30.1546 4.939 30.0178 5.1622 29.8594C5.8462 29.3698 6.6094 29.3914 7.3798 29.5426C7.9414 29.6578 8.4742 29.8738 8.9782 30.1546C9.6262 30.5146 10.2814 30.8818 10.9942 31.1554Z" fill="#FE6C02"/>
<path d="M7.67554 27.014C7.62514 26.9924 7.58194 26.9564 7.62514 26.906C7.66834 26.8556 7.71154 26.8988 7.75474 26.9276C7.72594 26.9564 7.70434 26.9852 7.67554 27.014Z" fill="#FE6C02"/>
</g>
<defs>
<clipPath id="clip0_1_15564">
<rect width="36" height="36" fill="white" transform="translate(0 0.576172)"/>
</clipPath>
</defs>
</svg>
