<svg width="36" height="37" viewBox="0 0 36 37" fill="none" xmlns="http://www.w3.org/2000/svg">
<g clip-path="url(#clip0_1_15406)">
<path d="M35.6261 18.5482C35.6261 23.4298 33.6389 27.8506 30.4349 31.0474C27.2453 34.2226 22.8461 36.1882 17.9861 36.1882C13.1261 36.1882 8.72687 34.2226 5.53727 31.0474C2.32607 27.8506 0.338867 23.4298 0.338867 18.5482C0.338867 8.80661 8.23727 0.908208 17.9789 0.908208C27.7277 0.901008 35.6261 8.79941 35.6261 18.5482Z" fill="#FF6766"/>
<path d="M35.6253 18.5472C35.6253 28.2888 27.7269 36.1872 17.9853 36.1872C13.1181 36.1872 8.7189 34.2216 5.5293 31.0392L30.4701 6.08398C33.6525 9.27358 35.6253 13.68 35.6253 18.5472Z" fill="#D95E59"/>
<path d="M30.4347 31.0471C27.2451 34.2223 22.8459 36.1879 17.9859 36.1879C13.1259 36.1879 8.72671 34.2223 5.53711 31.0471C8.72671 27.8719 13.1259 25.9062 17.9859 25.9062C22.8459 25.9062 27.2379 27.8647 30.4347 31.0471Z" fill="#FEF4C8"/>
<path d="M18.0004 11.3974C19.2212 11.3974 20.2108 10.4077 20.2108 9.18696C20.2108 7.96619 19.2212 6.97656 18.0004 6.97656C16.7797 6.97656 15.79 7.96619 15.79 9.18696C15.79 10.4077 16.7797 11.3974 18.0004 11.3974Z" fill="#016273"/>
<path d="M18.0003 6.98322C19.2171 6.98322 20.2107 7.96962 20.2107 9.19362C20.2107 10.4176 19.2243 11.404 18.0003 11.404C16.7763 11.404 15.7899 10.4176 15.7899 9.19362C15.7899 7.96962 16.7763 6.98322 18.0003 6.98322ZM18.0003 4.76562C15.5595 4.76562 13.5723 6.75282 13.5723 9.19362C13.5723 11.6344 15.5595 13.6216 18.0003 13.6216C20.4411 13.6216 22.4283 11.6344 22.4283 9.19362C22.4283 6.75282 20.4411 4.76562 18.0003 4.76562Z" fill="white"/>
</g>
<defs>
<clipPath id="clip0_1_15406">
<rect width="36" height="36" fill="white" transform="translate(0 0.576172)"/>
</clipPath>
</defs>
</svg>
