<svg width="36" height="37" viewBox="0 0 36 37" fill="none" xmlns="http://www.w3.org/2000/svg">
<g clip-path="url(#clip0_1_15404)">
<path d="M35.6416 18.5747C35.6416 28.319 27.7447 36.2158 18.0005 36.2158C8.25623 36.2158 0.359375 28.319 0.359375 18.5747C0.359375 8.83045 8.25623 0.933594 18.0005 0.933594C27.7447 0.933594 35.6416 8.83045 35.6416 18.5747Z" fill="#393534"/>
<path d="M33.5896 18.7269C33.5896 27.2522 26.677 34.1648 18.1517 34.1648C9.62646 34.1648 2.71387 27.2522 2.71387 18.7269C2.71387 10.2017 9.62646 3.28906 18.1517 3.28906C26.677 3.28906 33.5896 10.2017 33.5896 18.7269Z" fill="#F2F2F2"/>
<path d="M23.9917 14.2801L12.9073 25.6144L12.665 21.0489L19.3505 14.2801L22.1216 11.4031L23.916 10.8125L25.2182 11.1532L26.4372 12.1678L24.9684 13.8562L23.9917 14.2801Z" fill="white"/>
<path d="M24.9977 14.5978L22.7793 16.8843H26.1409L26.5195 16.4982C26.7845 16.2256 26.9965 15.8925 27.1403 15.5366C27.2842 15.1732 27.3523 14.7871 27.3523 14.4009C27.3523 13.6287 27.0646 12.8943 26.5498 12.334L25.0204 13.924C25.1037 14.0148 25.1415 14.1435 25.1415 14.2647C25.134 14.3858 25.081 14.507 24.9977 14.5978Z" fill="#E1DED9"/>
<path d="M15.8828 24.2207L14.0732 26.0984H17.4349L19.2596 24.2207H15.8828Z" fill="#E1DED9"/>
<path d="M16.792 23.2677H20.1536L22.16 21.1855H18.7984L16.792 23.2677Z" fill="#E1DED9"/>
<path d="M25.2248 18.0059H21.8631L19.7129 20.2243H23.0745L25.2248 18.0059Z" fill="#E1DED9"/>
<path d="M26.336 11.5105C25.9877 11.147 25.5713 10.8593 25.117 10.6625C24.6627 10.4656 24.1706 10.3672 23.6785 10.3672C23.1863 10.3672 22.6942 10.4656 22.2399 10.6625C21.7857 10.8593 21.3692 11.1546 21.021 11.518L12.314 20.5127C12.2307 20.6112 12.1777 20.7399 12.1853 20.8686V25.5022L9.78516 28.0083H11.1026L12.8818 26.1685H17.3337C17.3943 26.1685 17.4549 26.1609 17.5154 26.1306C17.5684 26.1079 17.6214 26.0625 17.6593 26.017L26.3133 17.0526L26.3284 17.0375C27.0326 16.3031 27.4263 15.3112 27.4187 14.2816C27.4263 13.7667 27.3278 13.2594 27.1386 12.79C26.9644 12.2979 26.6843 11.8739 26.336 11.5105ZM21.2784 12.5553L21.6569 12.1692C22.1945 11.6165 22.9213 11.3061 23.6785 11.3061C24.4356 11.3061 25.1625 11.6165 25.7 12.1692C25.7152 12.1843 25.7152 12.1995 25.7303 12.1995C26.2451 12.7597 26.5328 13.5093 26.5328 14.2891C26.5253 15.069 26.23 15.811 25.7 16.3637L25.3214 16.7498H21.9598L24.163 14.4633C24.2463 14.38 24.2993 14.2588 24.2993 14.1377C24.2993 14.0166 24.2615 13.8954 24.1782 13.8046C24.163 13.7894 24.163 13.7894 24.163 13.7743C24.0797 13.6834 23.9586 13.638 23.8375 13.638C23.7163 13.638 23.5952 13.691 23.5119 13.7743L21.2784 16.0911L21.2784 12.5553ZM13.7979 25.2069L15.6075 23.3293H18.9691L17.1596 25.2069H13.7979ZM19.0751 19.7329L21.2254 17.4994H24.587L22.4368 19.7329H19.0751ZM21.7024 20.49L19.696 22.5721H16.3343L18.3407 20.49H21.7024ZM18.3937 15.5384L20.544 13.3049V16.8406L18.3937 19.0742V15.5384ZM15.6529 18.3776L17.6593 16.2955V19.8313L15.6529 21.9134V18.3776ZM13.0938 21.0352L14.9336 19.1423V22.6781L13.0938 24.5709" fill="#393534"/>
</g>
<defs>
<clipPath id="clip0_1_15404">
<rect width="36" height="36" fill="white" transform="translate(0 0.576172)"/>
</clipPath>
</defs>
</svg>
