<svg width="36" height="37" viewBox="0 0 36 37" fill="none" xmlns="http://www.w3.org/2000/svg">
<g clip-path="url(#clip0_1_15403)">
<path d="M23.2269 1.76381V8.31581C23.2269 10.4398 21.4701 12.1606 19.3029 12.1606H19.2453C18.1581 12.1534 17.1789 12.1606 17.1789 12.1606C16.9917 12.1606 16.7901 12.139 16.6101 12.1606C15.3933 12.283 14.3277 12.8302 13.4421 13.795C13.4133 13.8166 13.3917 13.8526 13.3701 13.8742C12.6501 14.7814 12.2613 15.9622 12.2613 17.2366V17.3014C12.2613 18.115 12.4341 18.8998 12.7437 19.5982C13.0533 20.2966 12.8949 21.1102 12.2973 21.5926C11.7141 22.075 11.0229 22.6366 10.5549 23.0038C9.20127 21.4918 8.40927 19.5262 8.40927 17.3734V17.3086C8.40927 12.6286 12.2253 8.71901 17.4165 8.71901C17.7405 8.71901 18.7989 8.71901 19.2885 8.71901V1.05821C18.8781 1.02941 18.4461 1.00781 18.0213 1.00781C8.13567 1.00781 0.12207 8.87021 0.12207 18.5758C0.12207 26.503 5.47167 33.199 12.8157 35.3806V28.879C12.8157 26.7334 14.5869 24.991 16.7757 24.991H16.7973C17.8845 24.9982 18.8637 24.991 18.8637 24.991C19.0509 24.991 19.2525 25.0126 19.4325 24.991C20.6493 24.8686 21.7149 24.3214 22.6005 23.3566C22.6293 23.335 22.6509 23.299 22.6725 23.2774C23.3925 22.3702 23.7813 21.1894 23.7813 19.915V19.8502C23.7813 19.2166 23.5077 18.3598 23.2341 17.6758C22.9317 16.9054 23.1621 16.027 23.8029 15.5086C24.3573 15.055 24.9189 14.6014 25.4805 14.1622C26.8341 15.6742 27.6261 17.6398 27.6261 19.7926V19.8574C27.6261 24.5374 23.8101 28.447 18.6189 28.447C18.2949 28.447 17.2365 28.447 16.7469 28.447V36.1006C17.1645 36.1294 17.5893 36.151 18.0213 36.151C27.9069 36.151 35.9205 28.2886 35.9205 18.583C35.9205 10.6486 30.5709 3.95261 23.2269 1.76381Z" fill="#1D8AED"/>
</g>
<defs>
<clipPath id="clip0_1_15403">
<rect width="36" height="36" fill="white" transform="translate(0 0.576172)"/>
</clipPath>
</defs>
</svg>
