<svg width="36" height="37" viewBox="0 0 36 37" fill="none" xmlns="http://www.w3.org/2000/svg">
<g clip-path="url(#clip0_1_15400)">
<path fill-rule="evenodd" clip-rule="evenodd" d="M32.5726 5.22737C30.3046 2.93777 27.4174 1.79297 23.9326 1.79297H9.64062V10.793V15.5954C12.7582 16.589 15.019 19.505 15.019 22.9466C15.019 26.3954 12.7582 29.3114 9.64062 30.2978V35.3954H17.4166V26.0786H23.9542C27.439 26.0786 30.3262 24.9338 32.5942 22.6442C34.8622 20.3546 36.007 17.453 36.007 13.9394C35.9998 10.4114 34.855 7.51697 32.5726 5.22737ZM26.6038 18.1154C25.5958 19.2026 24.3142 19.7498 22.7374 19.7498H17.4094V8.13617H22.7374C24.307 8.13617 25.5886 8.68337 26.6038 9.77057C27.6118 10.8578 28.1086 12.2474 28.1086 13.9466C28.123 15.6386 27.6046 17.0282 26.6038 18.1154Z" fill="black"/>
<path d="M5.6304 28.6338C8.7408 28.6338 11.2608 26.1138 11.2608 23.0034C11.2608 19.893 8.7408 17.373 5.6304 17.373C2.52 17.373 0 19.893 0 23.0034C0 26.1138 2.52 28.6338 5.6304 28.6338Z" fill="#FF3465"/>
</g>
<defs>
<clipPath id="clip0_1_15400">
<rect width="36" height="36" fill="white" transform="translate(0 0.576172)"/>
</clipPath>
</defs>
</svg>
