<svg width="36" height="37" viewBox="0 0 36 37" fill="none" xmlns="http://www.w3.org/2000/svg">
<path d="M32.2705 7.68258L34.9157 7.55859L32.4462 8.24058L32.2705 7.68258Z" fill="#5D6CAC"/>
<path d="M32.2703 7.68359L29.0361 9.96715L32.446 8.24159L32.2703 7.68359Z" fill="#495692"/>
<path d="M32.446 8.24219L29.0361 9.96774L30.4828 11.0217L32.446 8.24219Z" fill="#3F4B80"/>
<path d="M29.0359 9.96672L26.0498 9.71875L30.4826 11.0207L29.0359 9.96672Z" fill="#313A62"/>
<path d="M30.4826 11.0207L29.1083 11.8473L26.0498 9.71875L30.4826 11.0207Z" fill="#3F4B80"/>
<path d="M30.4827 11.0215L31.113 11.6104L29.1084 11.8481L30.4827 11.0215Z" fill="#313A62"/>
<path d="M29.1084 11.8479L31.113 11.6102L33.4172 11.3105L34.1094 11.8479H29.1084Z" fill="#495692"/>
<path d="M29.1084 11.8477L30.586 12.9016L34.1094 11.8477H29.1084Z" fill="#4F60A3"/>
<path d="M33.417 11.3107L35.4215 9.56445L34.1093 11.848L33.417 11.3107Z" fill="#3F4B80"/>
<path d="M35.4216 9.56445L35.8323 9.71947L34.1094 11.848L35.4216 9.56445Z" fill="#4F60A3"/>
<path d="M35.4219 9.56474L35.7525 8.5625L35.8326 9.71976L35.4219 9.56474Z" fill="black"/>
<path d="M30.5859 12.9004L31.6764 12.5742L32.1771 14.2023L30.5859 12.9004Z" fill="#313A62"/>
<path d="M32.1776 14.2031L32.3946 18.6462L30.4004 19.5658L32.1776 14.2031Z" fill="#313A62"/>
<path d="M32.1776 14.2023L30.5864 12.9004L30.4004 19.565L32.1776 14.2023Z" fill="#3F4B80"/>
<path d="M30.5865 12.9004L27.0527 17.4674L30.4005 19.565L30.5865 12.9004Z" fill="#495692"/>
<path d="M30.5864 12.9004L26.5566 13.2827L27.0526 17.4674L30.5864 12.9004Z" fill="#3F4B80"/>
<path d="M30.5859 12.9012L26.0498 9.71875L26.5561 13.2835L30.5859 12.9012Z" fill="#4B5897"/>
<path d="M26.5564 13.2832L25.8848 16.2332L27.0524 17.4679L26.5564 13.2832Z" fill="#313A62"/>
<path d="M26.5559 13.284L26.0496 9.71919L21.7822 7.51758L26.5559 13.284Z" fill="#313A62"/>
<path d="M26.5559 13.284L25.8843 16.234L21.7822 7.51758L26.5559 13.284Z" fill="#3F4B80"/>
<path d="M25.8847 16.234L19.3027 8.0246L21.7826 7.51758L25.8847 16.234Z" fill="#4B5897"/>
<path d="M19.3024 8.02344L18.7754 13.4895L25.8843 16.2328L19.3024 8.02344Z" fill="#5161A4"/>
<path d="M18.7756 13.4902L18.042 18.3983L25.8845 16.2336L18.7756 13.4902Z" fill="#4B5897"/>
<path d="M25.8845 16.2344L22.3301 17.9031L18.042 18.3991L25.8845 16.2344Z" fill="#3F4B80"/>
<path d="M22.3301 17.9031L25.8845 16.2344L25.7708 17.9031H22.3301Z" fill="#5161A4"/>
<path d="M22.3301 17.9023L23.5803 21.2191L25.7708 17.9023H22.3301Z" fill="#4B5897"/>
<path d="M22.3307 17.9023L21.6797 20.8471L23.5809 21.2191L22.3307 17.9023Z" fill="#3F4B80"/>
<path d="M21.6793 20.8477L20.832 22.4286L23.5805 21.2196L21.6793 20.8477Z" fill="#4B5897"/>
<path d="M21.679 20.8477L19.1992 23.5238L20.8318 22.4286L21.679 20.8477Z" fill="#313A62"/>
<path d="M21.679 20.8477L19.6952 20.9923L19.1992 23.5238L21.679 20.8477Z" fill="#3F4B80"/>
<path d="M22.3301 17.9023L18.1144 19.8656L18.042 18.3983L22.3301 17.9023Z" fill="#313A62"/>
<path d="M18.042 18.3984L13.6816 19.1217L18.1144 19.8657L18.042 18.3984Z" fill="#3F4B80"/>
<path d="M18.0423 18.3983L11.4707 14.5235L18.7759 13.4902L18.0423 18.3983Z" fill="#3F4B80"/>
<path d="M18.7759 13.4895L19.3029 8.02344L11.4707 14.5227L18.7759 13.4895Z" fill="#4B5897"/>
<path d="M11.4707 14.5234L18.0423 18.3982L13.6819 19.1215L11.4707 14.5234Z" fill="#4B5897"/>
<path d="M11.4707 14.5234L13.6819 19.1215L11.574 20.7024L11.4707 14.5234Z" fill="#313A62"/>
<path d="M11.4705 14.5234L8.62891 21.033L11.5738 20.7024L11.4705 14.5234Z" fill="#3F4B80"/>
<path d="M11.4702 14.5234L7.76074 15.7634L8.62863 21.033L11.4702 14.5234Z" fill="#4B5897"/>
<path d="M7.76126 15.7637L6.22168 17.4066L8.62914 21.0334L7.76126 15.7637Z" fill="#5161A4"/>
<path d="M8.62891 21.0337L11.5738 20.7031L10.2512 22.8523L8.62891 21.0337Z" fill="#313A62"/>
<path d="M8.62921 21.0332L4.94043 25.001L10.2515 22.8518L8.62921 21.0332Z" fill="#4B5897"/>
<path d="M8.62921 21.0332L6.22174 21.4982L4.94043 25.001L8.62921 21.0332Z" fill="#313A62"/>
<path d="M8.62914 21.033L6.22168 17.4062V21.498L8.62914 21.033Z" fill="#3F4B80"/>
<path d="M6.22134 17.4062L3.45215 17.4476L6.22134 19.1215V17.4062Z" fill="#313A62"/>
<path d="M6.22134 19.1212L3.68982 18.5765L3.45215 17.4473L6.22134 19.1212Z" fill="#3F4B80"/>
<path d="M3.45223 17.4473L2.09863 19.9685L3.6899 18.5765L3.45223 17.4473Z" fill="#4B5897"/>
<path d="M3.69024 18.5762L2.09897 19.9681L1.98535 20.8051L3.69024 18.5762Z" fill="#5161A4"/>
<path d="M2.09834 19.9688L0.217773 20.5267L1.98473 20.8057L2.09834 19.9688Z" fill="#313A62"/>
<path d="M4.94043 25.0013L6.91294 24.2031L5.19877 27.7705L4.94043 25.0013Z" fill="#3F4B80"/>
<path d="M4.94019 25L4.19629 28.2135L5.19853 27.7692L4.94019 25Z" fill="#1F243E"/>
<path d="M5.1983 27.7695L4.19606 28.2138L3.40039 29.5626L5.1983 27.7695Z" fill="#313A62"/>
<path d="M5.1983 27.7695L5.45664 29.1231L3.40039 29.5626L5.1983 27.7695Z" fill="#3F4B80"/>
</svg>
