<svg width="36" height="37" viewBox="0 0 36 37" fill="none" xmlns="http://www.w3.org/2000/svg">
<g clip-path="url(#clip0_1_15550)">
<path fill-rule="evenodd" clip-rule="evenodd" d="M23.3137 6.46866C22.8529 6.00786 22.2337 5.75586 21.5857 5.75586H21.5785C20.9305 5.75586 20.3041 6.01506 19.8505 6.48306L0.712946 25.6999C0.252146 26.1607 -0.00705389 26.7871 0.000146106 27.4351C0.000146106 28.0903 0.259346 28.7023 0.720146 29.1703C1.18095 29.6311 1.80015 29.8831 2.44815 29.8831C3.10335 29.8831 3.72255 29.6239 4.19055 29.1631L23.3209 9.94626C24.2713 8.97426 24.2641 7.42626 23.3137 6.46866Z" fill="#2DB8E3"/>
<path fill-rule="evenodd" clip-rule="evenodd" d="M34.4156 5.98488C33.5012 5.60328 32.4428 5.81208 31.7444 6.52488L12.614 25.7489C11.6564 26.7065 11.6636 28.2617 12.6212 29.2193C13.5788 30.1697 15.134 30.1697 16.0916 29.2121L31.0316 14.2073V27.4841C31.0316 28.8377 32.1332 29.9321 33.4868 29.9393C34.8404 29.9393 35.9348 28.8377 35.942 27.4841V8.25288C35.9348 7.25928 35.3372 6.35928 34.4156 5.98488Z" fill="#3840C7"/>
</g>
<defs>
<clipPath id="clip0_1_15550">
<rect width="36" height="36" fill="white" transform="translate(0 0.578125)"/>
</clipPath>
</defs>
</svg>
