<svg width="36" height="37" viewBox="0 0 36 37" fill="none" xmlns="http://www.w3.org/2000/svg">
<g clip-path="url(#clip0_1_15397)">
<path d="M18 36.5781C27.9411 36.5781 36 28.5192 36 18.5781C36 8.637 27.9411 0.578125 18 0.578125C8.05887 0.578125 0 8.637 0 18.5781C0 28.5192 8.05887 36.5781 18 36.5781Z" fill="url(#paint0_linear_1_15397)"/>
<path d="M18.8141 5.50391C22.8965 5.50391 26.2085 8.87351 26.2085 13.0207V17.3479C26.2085 21.5023 22.8965 24.8647 18.8141 24.8647C18.1733 24.8647 17.5469 24.7783 16.9565 24.6271V25.1383C16.9565 28.1767 14.5229 30.6463 11.4989 30.6967H11.4053V14.1511H11.4125V13.0207C11.4125 8.87351 14.7245 5.50391 18.8141 5.50391ZM18.8141 11.1415C17.7917 11.1415 16.9637 11.9839 16.9637 13.0207V17.3479C16.9637 18.3847 17.7917 19.2271 18.8141 19.2271C19.8365 19.2271 20.6645 18.3847 20.6645 17.3479V13.0207C20.6573 11.9839 19.8293 11.1415 18.8141 11.1415Z" fill="white"/>
</g>
<defs>
<linearGradient id="paint0_linear_1_15397" x1="18" y1="0.578125" x2="18" y2="36.5781" gradientUnits="userSpaceOnUse">
<stop stop-color="#7E46F2"/>
<stop offset="1" stop-color="#46279A"/>
</linearGradient>
<clipPath id="clip0_1_15397">
<rect width="36" height="36" fill="white" transform="translate(0 0.578125)"/>
</clipPath>
</defs>
</svg>
