<svg width="36" height="37" viewBox="0 0 36 37" fill="none" xmlns="http://www.w3.org/2000/svg">
<g clip-path="url(#clip0_1_15395)">
<path opacity="0.73" d="M12.002 6.57511L18.0068 0.570312L24.0116 6.57511L18.0068 12.5799L12.002 6.57511Z" fill="#00CDD7"/>
<path opacity="0.43" d="M12.002 30.5732L18.0068 24.5684L24.0116 30.5732L18.0068 36.578L12.002 30.5732Z" fill="#00CDD7"/>
<path opacity="0.48" d="M6.79688 25.9655L14.9977 23.7695L17.1937 31.9703L8.99287 34.1663L6.79688 25.9655Z" fill="#00CDD7"/>
<path opacity="0.18" d="M18.792 5.18623L27 2.99023L29.196 11.191L20.9952 13.387L18.792 5.18623Z" fill="#00CDD7"/>
<path opacity="0.53" d="M2.40527 27.5778L4.60127 19.377L12.8021 21.573L10.6061 29.7738L2.40527 27.5778Z" fill="#00CDD7"/>
<path opacity="0.23" d="M23.1836 15.568L25.3796 7.36719L33.5804 9.56319L31.3844 17.764L23.1836 15.568Z" fill="#00CDD7"/>
<path opacity="0.58" d="M0 18.579L6.0048 12.5742L12.0096 18.579L6.0048 24.5838L0 18.579Z" fill="#00CDD7"/>
<path opacity="0.28" d="M23.9902 18.5634L29.995 12.5586L35.9998 18.5634L29.995 24.5682L23.9902 18.5634Z" fill="#00CDD7"/>
<path opacity="0.63" d="M2.39746 9.571L10.5983 7.375L12.7943 15.5758L4.59346 17.7718L2.39746 9.571Z" fill="#00CDD7"/>
<path opacity="0.33" d="M23.1768 21.573L31.3776 19.377L33.5736 27.5778L25.3728 29.7738L23.1768 21.573Z" fill="#00CDD7"/>
<path opacity="0.68" d="M6.79688 11.191L8.99287 2.99023L17.1937 5.18623L14.9977 13.387L6.79688 11.191Z" fill="#00CDD7"/>
<path opacity="0.38" d="M18.7988 31.9703L20.9948 23.7695L29.1956 25.9655L26.9996 34.1663L18.7988 31.9703Z" fill="#00CDD7"/>
</g>
<defs>
<clipPath id="clip0_1_15395">
<rect width="36" height="36" fill="white" transform="translate(0 0.578125)"/>
</clipPath>
</defs>
</svg>
