<svg width="36" height="37" viewBox="0 0 36 37" fill="none" xmlns="http://www.w3.org/2000/svg">
<g clip-path="url(#clip0_1_15548)">
<path d="M18 36.5781C27.9411 36.5781 36 28.5192 36 18.5781C36 8.637 27.9411 0.578125 18 0.578125C8.05887 0.578125 0 8.637 0 18.5781C0 28.5192 8.05887 36.5781 18 36.5781Z" fill="url(#paint0_linear_1_15548)"/>
<path d="M18.0002 19.9814L29.5346 17.375C28.9298 11.5646 23.9978 7.04297 18.0002 7.04297C12.0026 7.04297 7.07062 11.5646 6.46582 17.375L18.0002 19.9814Z" fill="white"/>
<path d="M6.69629 21.0918C6.85469 21.855 7.11389 22.5894 7.43069 23.2806L18.0147 23.9718L28.5987 23.2806C28.9227 22.5894 29.1531 21.8478 29.3331 21.0918L18.0291 21.9702L6.69629 21.0918Z" fill="white"/>
<path d="M12.3477 28.6367C14.0325 29.5583 15.9477 30.1127 17.9997 30.1127C20.0517 30.1127 21.9885 29.5799 23.6517 28.6367H12.3477Z" fill="white"/>
<path d="M18.0002 25.6345L8.58984 25.3105C9.07224 26.0017 9.64824 26.6281 10.2746 27.1753H25.7258C26.345 26.6209 26.9282 26.0017 27.4106 25.3105L18.0002 25.6345Z" fill="white"/>
</g>
<defs>
<linearGradient id="paint0_linear_1_15548" x1="18" y1="37.4641" x2="18" y2="0.578125" gradientUnits="userSpaceOnUse">
<stop stop-color="#A32CCD"/>
<stop offset="1" stop-color="#FE453D"/>
</linearGradient>
<clipPath id="clip0_1_15548">
<rect width="36" height="36" fill="white" transform="translate(0 0.578125)"/>
</clipPath>
</defs>
</svg>
