<svg width="36" height="37" viewBox="0 0 36 37" fill="none" xmlns="http://www.w3.org/2000/svg">
<g clip-path="url(#clip0_1_15394)">
<path d="M35.6314 18.5233C35.6863 28.2011 27.7219 36.1485 17.999 36.1453C8.30327 36.142 0.371751 28.2212 0.364263 18.5107C0.356919 9.0742 7.94903 0.847766 18.0382 0.865262C28.0867 0.882758 35.7113 9.09004 35.6314 18.5233ZM23.3932 28.0014C23.5276 27.8892 23.6089 27.8372 23.6704 27.7676C24.1639 27.21 24.6907 26.677 25.1369 26.0836C26.1772 24.7 26.8281 23.1455 26.9647 21.4075C27.1159 19.4842 26.6381 17.704 25.6459 16.0593C24.3215 13.8639 22.4316 12.2827 20.1776 11.1233C17.3115 9.64905 14.2442 9.07571 11.0383 9.17709C10.9163 9.18097 10.7953 9.21294 10.6467 9.23598C10.6467 9.35161 10.6467 9.44867 10.6467 9.54573C10.6469 12.9592 10.6428 16.3728 10.6524 19.7864C10.6536 20.2325 10.6861 20.6859 10.7704 21.1233C11.2036 23.3725 12.3054 25.2096 14.2186 26.5084C15.9832 27.7063 17.9787 28.051 20.0664 27.9971C20.1735 27.9944 20.3138 27.8879 20.3771 27.79C21.1749 26.5545 21.5912 25.1941 21.6292 23.7271C21.6807 21.7323 21.0901 19.9044 20.1113 18.1908C18.9014 16.0725 17.2359 14.3684 15.2804 12.9327C15.2068 12.8787 15.1382 12.818 15.0672 12.7604C15.0801 12.7389 15.0928 12.7174 15.1056 12.6959C15.1833 12.7264 15.2638 12.7512 15.3382 12.7883C16.4653 13.3516 17.5422 13.9966 18.5419 14.7661C20.7652 16.4774 22.3464 18.6313 23.0838 21.3651C23.6126 23.3257 23.6486 25.3168 23.4473 27.3224C23.4274 27.5211 23.4153 27.7207 23.3932 28.0014Z" fill="#3CB055"/>
<path d="M23.3927 28.0017C23.4149 27.7209 23.4269 27.5214 23.4468 27.3226C23.6481 25.3171 23.6122 23.326 23.0833 21.3654C22.3459 18.6316 20.7648 16.4776 18.5414 14.7663C17.5417 13.9968 16.4647 13.3519 15.3377 12.7886C15.2633 12.7514 15.1828 12.7267 15.1051 12.6961C15.0923 12.7177 15.0796 12.7391 15.0667 12.7606C15.1377 12.8182 15.2063 12.8789 15.2799 12.9329C17.2353 14.3687 18.9009 16.0727 20.1108 18.1911C21.0896 19.9047 21.6802 21.7326 21.6287 23.7274C21.5908 25.1944 21.1744 26.5548 20.3766 27.7902C20.3133 27.8881 20.173 27.9946 20.0659 27.9974C17.9781 28.0511 15.9827 27.7065 14.2181 26.5086C12.305 25.2099 11.2031 23.3728 10.7699 21.1235C10.6856 20.6862 10.6531 20.2328 10.6519 19.7866C10.6423 16.3731 10.6464 12.9595 10.6462 9.54599C10.6462 9.44893 10.6462 9.35187 10.6462 9.23624C10.7948 9.21313 10.9159 9.18116 11.0378 9.17735C14.2437 9.07597 17.3111 9.64931 20.1771 11.1236C22.4312 12.2831 24.321 13.8642 25.6454 16.0595C26.6376 17.7042 27.1154 19.4844 26.9642 21.4078C26.8276 23.1458 26.1767 24.7003 25.1364 26.0838C24.6901 26.6772 24.1633 27.2103 23.6699 27.7679C23.6085 27.8374 23.5272 27.8895 23.3927 28.0017Z" fill="white"/>
</g>
<defs>
<clipPath id="clip0_1_15394">
<rect width="36" height="36" fill="white" transform="translate(0 0.578125)"/>
</clipPath>
</defs>
</svg>
