<svg width="36" height="37" viewBox="0 0 36 37" fill="none" xmlns="http://www.w3.org/2000/svg">
<g clip-path="url(#clip0_1_15393)">
<path d="M5.48622 22.5244L1.38222 17.6356C0.547017 16.6276 0.647817 15.1372 1.61982 14.2588L15.811 1.4428C16.747 0.600401 18.1798 0.643601 19.0582 1.5364L23.5006 6.058C23.8462 6.4108 24.4078 6.4252 24.775 6.1012L29.0734 2.2708C29.671 1.738 30.5854 1.7884 31.1254 2.386L32.2342 3.6316C32.767 4.2292 32.7166 5.1436 32.119 5.6836L24.9694 12.0628C24.379 12.5884 23.479 12.5596 22.9246 11.998L18.007 6.9868C17.611 6.5836 16.9702 6.5692 16.5526 6.9436L6.96222 15.598C6.54462 15.9724 6.50142 16.6132 6.86142 17.0452L8.99262 19.5868C9.51102 20.1988 9.42462 21.1132 8.81262 21.6316L7.53102 22.7044C6.91902 23.2156 6.00462 23.1364 5.48622 22.5244Z" fill="#43878D"/>
<path d="M30.4346 14.5742L34.5386 19.463C35.381 20.4638 35.2802 21.9542 34.3082 22.8326L20.117 35.6486C19.181 36.491 17.7482 36.4478 16.8698 35.555L12.4274 31.0334C12.0818 30.6806 11.5202 30.6662 11.153 30.9902L6.85457 34.8206C6.25697 35.3534 5.34257 35.303 4.80257 34.7054L3.69377 33.4598C3.16097 32.8622 3.21137 31.9478 3.80897 31.4078L10.9586 25.0286C11.549 24.503 12.449 24.5318 13.0034 25.0934L17.9282 30.1046C18.3242 30.5078 18.965 30.5222 19.3826 30.1478L28.9658 21.4934C29.3834 21.119 29.4266 20.4782 29.0666 20.0462L26.9354 17.5046C26.417 16.8926 26.5034 15.9782 27.1154 15.4598L28.397 14.387C29.009 13.8758 29.9234 13.955 30.4346 14.5742Z" fill="#74C2C2"/>
</g>
<defs>
<clipPath id="clip0_1_15393">
<rect width="36" height="36" fill="white" transform="translate(0 0.578125)"/>
</clipPath>
</defs>
</svg>
