<svg width="36" height="37" viewBox="0 0 36 37" fill="none" xmlns="http://www.w3.org/2000/svg">
<g clip-path="url(#clip0_1_15392)">
<path d="M28.0218 18.5499C28.0219 24.357 28.0194 30.1641 28.0289 35.9711C28.0294 36.2737 27.9616 36.3584 27.6494 36.3579C21.2346 36.348 14.8198 36.3478 8.40501 36.3579C8.08601 36.3584 7.99776 36.2916 7.99805 35.9592C8.00788 24.3563 8.0075 12.7534 7.99945 1.15049C7.99924 0.845736 8.07127 0.763188 8.38271 0.763674C14.8087 0.77352 21.2348 0.77334 27.6608 0.763998C27.9549 0.763566 28.0299 0.828132 28.0293 1.12868C28.0191 6.93575 28.0218 12.7428 28.0218 18.5499ZM14.7109 22.2573C14.7109 22.5612 14.7109 22.865 14.7109 23.1689C14.711 26.7368 14.7107 30.3047 14.7118 33.8725C14.7118 34.0408 14.6456 34.2297 14.9546 34.2266C16.3275 34.2131 17.7008 34.2173 19.0738 34.2245C19.2712 34.2256 19.3244 34.1566 19.3189 33.9697C19.3072 33.5762 19.3153 33.182 19.3153 32.7881C19.3153 30.3007 19.3168 27.8133 19.3121 25.326C19.3117 25.1323 19.3272 24.946 19.5203 24.8732C19.6928 24.8081 19.8879 24.772 20.0724 24.7747C21.1664 24.7903 22.2484 24.6927 23.3295 24.5245C24.46 24.3486 25.0394 23.6331 25.0494 22.544C25.0776 19.4716 25.0612 16.3988 25.0571 13.3262C25.0566 12.9146 25.0681 12.5056 24.9924 12.0913C24.859 11.3618 24.4584 10.8797 23.7788 10.6341C22.8711 10.306 21.9074 10.2616 20.9635 10.2354C19.0291 10.1817 17.0922 10.2192 15.1563 10.2188C14.7134 10.2187 14.7108 10.2207 14.7108 10.6758C14.7108 14.5363 14.7108 18.3968 14.7109 22.2573Z" fill="#1A1A19"/>
<path d="M13.9435 17.5116C13.9437 19.8069 13.9381 22.1022 13.9506 24.3974C13.9522 24.6989 13.865 24.784 13.5696 24.7731C12.9179 24.7491 12.2647 24.7674 11.6124 24.7532C11.1982 24.7441 11.063 24.6126 10.9897 24.1955C10.9703 24.0857 10.962 23.9725 10.962 23.8609C10.9607 19.6979 10.9607 15.5349 10.9613 11.372C10.9615 10.3079 11.0724 10.1986 12.1397 10.1986C12.6235 10.1986 13.108 10.2142 13.5908 10.1925C13.8785 10.1795 13.9498 10.2835 13.9487 10.5584C13.9392 12.8761 13.9433 15.1938 13.9435 17.5116Z" fill="#CCB749"/>
<path d="M13.3916 6.28676C13.3955 4.3867 14.8932 2.94103 16.8493 2.94925C18.6885 2.95699 20.2062 4.46485 20.1944 6.27276C20.182 8.17118 18.658 9.69783 16.7797 9.69328C14.9169 9.68876 13.3878 8.15136 13.3916 6.28676Z" fill="#CCB749"/>
<path d="M19.3153 17.3768C19.3156 15.79 19.3205 14.2032 19.3106 12.6165C19.309 12.3673 19.3523 12.2748 19.6351 12.2688C20.2288 12.2562 20.5193 12.3273 20.5266 13.1687C20.5524 16.1282 20.537 19.0881 20.5362 22.0479C20.5361 22.5469 19.945 22.9032 19.5002 22.6712C19.3259 22.5802 19.312 22.4177 19.3124 22.2384C19.3169 20.6179 19.315 18.9973 19.3153 17.3768Z" fill="#1A1A19"/>
</g>
<defs>
<clipPath id="clip0_1_15392">
<rect width="36" height="36" fill="white" transform="translate(0 0.578125)"/>
</clipPath>
</defs>
</svg>
