<svg width="36" height="37" viewBox="0 0 36 37" fill="none" xmlns="http://www.w3.org/2000/svg">
<g clip-path="url(#clip0_1_15399)">
<path d="M0.21582 36.3389C0.21582 24.491 0.21582 12.643 0.21582 0.794922C12.0639 0.794922 23.9118 0.794922 35.7598 0.794922C35.7598 12.6429 35.7598 24.4909 35.7598 36.3389C23.9118 36.3389 12.0639 36.3389 0.21582 36.3389ZM31.5779 4.98496C22.4649 4.98496 13.4555 4.98496 4.41731 4.98496C4.41731 14.0672 4.41731 23.0759 4.41731 32.1079C13.5052 32.1079 22.5097 32.1079 31.5779 32.1079C31.5779 23.0372 31.5779 14.0498 31.5779 4.98496Z" fill="url(#paint0_linear_1_15399)"/>
<path d="M7.02734 7.63581C7.11972 7.63135 13.7981 7.5677 15.7851 7.56446C19.41 7.55856 22.6082 10.4133 23.1055 14.0898C23.4863 16.9048 22.6549 19.3508 20.5047 21.2701C19.2737 22.369 17.7962 22.8491 16.1523 22.8413C15.0569 22.8361 13.9615 22.8403 12.7658 22.8403C12.7658 25.1799 12.7658 27.3764 12.7658 29.622C10.8063 29.622 8.95183 29.622 7.02734 29.622C7.02734 22.3044 7.02734 15.0301 7.02734 7.63581ZM12.8273 12.8516C12.8273 14.4392 12.8273 15.96 12.8273 17.5326C13.9326 17.5326 14.953 17.5568 15.9708 17.5159C16.2303 17.5056 16.5288 17.3412 16.7286 17.159C17.5393 16.4195 17.5326 14.03 16.7172 13.2934C16.4939 13.0917 16.1802 12.8856 15.8985 12.8714C14.8878 12.8208 13.873 12.8516 12.8273 12.8516Z" fill="url(#paint1_linear_1_15399)"/>
<path d="M28.9575 25.4961C28.9575 26.8848 28.9575 28.1678 28.9575 29.5446C24.4441 29.5446 19.9686 29.5446 15.4375 29.5446C15.4375 28.1983 15.4375 26.8743 15.4375 25.4961C19.9464 25.4961 24.4035 25.4961 28.9575 25.4961Z" fill="#F36F1F"/>
</g>
<defs>
<linearGradient id="paint0_linear_1_15399" x1="17.9878" y1="0.794929" x2="17.9878" y2="36.2748" gradientUnits="userSpaceOnUse">
<stop stop-color="#118EBE"/>
<stop offset="0.9995" stop-color="#254562"/>
</linearGradient>
<linearGradient id="paint1_linear_1_15399" x1="15.1111" y1="7.42825" x2="15.1111" y2="29.7984" gradientUnits="userSpaceOnUse">
<stop stop-color="#118EBE"/>
<stop offset="0.9995" stop-color="#254562"/>
</linearGradient>
<clipPath id="clip0_1_15399">
<rect width="36" height="36" fill="white" transform="translate(0 0.578125)"/>
</clipPath>
</defs>
</svg>
