<svg width="36" height="37" viewBox="0 0 36 37" fill="none" xmlns="http://www.w3.org/2000/svg">
<g clip-path="url(#clip0_1_15391)">
<path fill-rule="evenodd" clip-rule="evenodd" d="M9.792 9.04465H26.208C27.144 9.04465 27.684 10.1031 27.1296 10.8591L19.3176 21.6015C18.7704 22.3575 19.3104 23.4159 20.2392 23.4159H27.1224C27.4896 23.4159 27.828 23.2431 28.044 22.9479L35.784 12.3207C36.072 11.9175 36.072 11.3775 35.784 10.9743L29.0088 1.65745C28.7928 1.36225 28.4472 1.18945 28.0872 1.18945H7.92C7.5528 1.18945 7.2144 1.36225 6.9984 1.65745L0.216 10.9743C-0.072 11.3775 -0.072 11.9175 0.216 12.3207L17.0784 35.4975C17.532 36.1239 18.468 36.1239 18.9288 35.4975L22.3704 30.7599C22.6584 30.3567 22.6584 29.8167 22.3704 29.4135L8.8632 10.8591C8.316 10.1031 8.856 9.04465 9.792 9.04465Z" fill="#5294FF"/>
</g>
<defs>
<clipPath id="clip0_1_15391">
<rect width="36" height="36" fill="white" transform="translate(0 0.578125)"/>
</clipPath>
</defs>
</svg>
