<svg width="36" height="37" viewBox="0 0 36 37" fill="none" xmlns="http://www.w3.org/2000/svg">
<path d="M16.966 9.14514C10.637 9.54568 7.67091 14.0711 7.14906 14.9647H7.1016C6.43581 14.9653 5.8966 15.5054 5.89718 16.1712C5.89739 16.4032 5.9645 16.6302 6.09057 16.825C5.91792 17.1492 5.22342 18.5787 5.0679 20.8605L3.45962 19.2778C3.14628 18.9908 3.03728 18.5429 3.18358 18.144C5.04075 12.3183 9.47832 9.48815 9.47832 9.48815C10.0823 9.76621 10.7973 9.50205 11.0754 8.89811C11.1304 8.77859 11.1654 8.65079 11.1792 8.51989C18.0229 5.37717 23.8176 7.86894 25.0292 8.46705C25.0298 9.13319 25.5703 9.67283 26.2365 9.67233C26.436 9.67218 26.6322 9.6225 26.8079 9.52789C27.5464 10.0467 28.2322 10.6367 28.8555 11.2894L27.283 12.8619C24.5058 9.75491 20.3241 9.17711 19.1335 9.07365C18.824 8.48469 18.0956 8.2581 17.5067 8.56756C17.2665 8.6937 17.076 8.89725 16.966 9.14514ZM27.9222 27.2912C27.7225 27.5049 27.7338 27.8401 27.9475 28.0398C28.046 28.132 28.1761 28.183 28.3111 28.1825H32.7276V28.9213C32.7281 31.0899 30.9704 32.8483 28.8018 32.8487C28.8013 32.8487 28.8007 32.8487 28.8002 32.8487H7.33567C5.16703 32.8491 3.40872 31.0915 3.40829 28.9228C3.40829 28.9223 3.40829 28.9218 3.40829 28.9212V28.1824L7.69885 28.1763C7.92594 28.1796 8.13315 28.0471 8.22531 27.8395C8.32136 27.6246 8.27391 27.3726 8.10629 27.2072L1.10696 20.274C0.369676 19.5444 0.0998234 18.465 0.407047 17.4742C1.49583 13.9668 5.1324 6.06534 16.0062 4.38321C16.0062 4.38321 24.0165 3.37218 29.616 8.34947C29.616 8.34947 34.6657 12.3313 35.6821 18.0708C35.8151 18.8228 35.5771 19.7281 35.0342 20.2647L27.9222 27.2912ZM4.6518 29.1157C4.6518 30.5761 5.83563 31.7599 7.29601 31.7599H28.7606C30.2209 31.7599 31.4048 30.5761 31.4048 29.1157H4.6518ZM33.7915 19.8798C34.2564 19.4185 34.4322 18.7401 34.2496 18.1113C33.6406 16.0309 31.8387 11.4067 27.4361 8.42968C27.4164 7.76591 26.8624 7.24384 26.1986 7.26357C26.0035 7.2694 25.8127 7.32261 25.6428 7.41865C18.0625 3.75335 11.6799 6.88981 10.6945 7.42254C10.1605 7.02654 9.40648 7.13843 9.01048 7.67253C8.8564 7.88025 8.77337 8.1321 8.77366 8.39073C8.77388 8.4651 8.78093 8.53926 8.79469 8.61234L8.77366 8.58513C4.28086 11.4626 2.55906 16.1211 1.89802 18.0731C1.71032 18.6269 1.85461 19.2393 2.26976 19.651L10.3703 27.8309C10.6077 28.0711 10.9926 28.0803 11.2413 27.8519C11.4969 27.6171 11.5137 27.2196 11.2789 26.964C11.2717 26.9562 11.2644 26.9486 11.2569 26.9412L10.7552 26.2125C9.08477 23.2051 9.69994 20.3641 10.4652 18.6812L12.988 20.2C11.8435 23.0267 13.2071 26.2459 16.0337 27.3904C18.8604 28.535 22.0795 27.1714 23.2241 24.3448C24.1646 22.0222 23.4232 19.3575 21.4184 17.8545L22.8361 15.397C24.4522 16.6662 28.4838 20.6854 24.8776 27.0695C24.6959 27.3611 24.7849 27.7448 25.0766 27.9266C25.3277 28.083 25.6542 28.041 25.8575 27.8262L33.7915 19.8798ZM29.5966 12.1089L27.6523 14.1131C27.4335 14.3395 27.0726 14.3457 26.8462 14.1269C26.8367 14.1177 26.8275 14.1081 26.8186 14.0982C25.9087 13.0794 23.3749 10.7494 19.0074 10.3902C18.5902 10.9085 17.8319 10.9905 17.3136 10.5733C17.243 10.5165 17.1791 10.4519 17.123 10.3808C15.5145 10.4975 13.9471 10.9427 12.5175 11.6889L13.5417 13.6168C13.5709 13.6719 13.6391 13.6928 13.6941 13.6636C13.6951 13.6631 13.6962 13.6625 13.6972 13.6619C18.638 10.9594 23.319 14.1052 23.319 14.1052C29.385 18.3048 27.363 24.5264 27.363 24.5264L29.8789 22.0113C30.029 19.6782 29.2777 17.9634 28.9682 17.3685C28.3021 17.3328 27.7912 16.7638 27.8269 16.0978C27.8626 15.4317 28.4315 14.9207 29.0976 14.9564C29.7637 14.9921 30.2747 15.5611 30.2389 16.2271C30.2282 16.4268 30.1681 16.6207 30.064 16.7914C30.7422 18.0528 31.047 20.0259 31.1403 20.7491L32.8396 19.0506C33.0605 18.8297 33.062 18.5062 32.9648 18.2061C32.0845 15.5262 30.7974 13.5283 29.5966 12.1089ZM13.7439 15.0269C13.4367 15.1949 13.0514 15.0834 12.8814 14.7773L11.5189 12.2754C10.1791 13.1616 9.0487 14.3294 8.20666 15.6973C8.46687 16.3086 8.18225 17.0152 7.57083 17.2755C7.47838 17.3148 7.38133 17.3424 7.28197 17.3577C6.51517 18.49 6.24762 20.8511 6.16287 21.9368L8.66941 24.4006C8.38947 23.0162 7.83802 18.6456 11.1409 15.5348C11.2071 15.4729 11.3106 15.4749 11.3742 15.5395L12.0641 16.2285C12.1294 16.2943 12.1291 16.4007 12.0633 16.466C12.061 16.4683 12.0587 16.4705 12.0563 16.4727C11.6478 16.8383 11.2897 17.2568 10.9916 17.717L13.4982 19.2327C15.0153 16.9329 17.9955 16.1032 20.4827 17.2884L21.923 14.7935C18.3565 12.8991 14.9984 14.344 13.7439 15.0269ZM7.14041 15.506C6.75384 15.506 6.4405 15.8193 6.4405 16.2059C6.4405 16.5925 6.75384 16.9058 7.14041 16.9058C7.52698 16.9058 7.84032 16.5925 7.84032 16.2059C7.84039 15.8193 7.52698 15.506 7.14041 15.506ZM10.018 7.72897C9.6314 7.72897 9.31806 8.04232 9.31806 8.42889C9.31806 8.81545 9.63147 9.1288 10.018 9.1288C10.4045 9.1288 10.7179 8.81545 10.7179 8.42889C10.7179 8.04232 10.4045 7.72897 10.018 7.72897ZM18.1061 8.97328C17.7195 8.97328 17.4062 9.28662 17.4062 9.67319C17.4062 10.0598 17.7196 10.3731 18.1061 10.3731C18.4926 10.3731 18.806 10.0598 18.806 9.67319C18.806 9.28662 18.4926 8.97328 18.1061 8.97328ZM26.2719 7.72897C25.8853 7.72897 25.572 8.04232 25.572 8.42889C25.572 8.81545 25.8854 9.1288 26.2719 9.1288C26.6584 9.1288 26.9718 8.81545 26.9718 8.42889C26.9718 8.04232 26.6585 7.72897 26.2719 7.72897ZM29.0716 15.506C28.685 15.506 28.3717 15.8193 28.3717 16.2059C28.3717 16.5925 28.685 16.9058 29.0716 16.9058C29.4582 16.9058 29.7715 16.5925 29.7715 16.2059C29.7716 15.8193 29.4582 15.506 29.0716 15.506Z" fill="url(#paint0_linear_1_15390)"/>
<defs>
<linearGradient id="paint0_linear_1_15390" x1="17.994" y1="36.3496" x2="17.994" y2="7.80002" gradientUnits="userSpaceOnUse">
<stop offset="0.13" stop-color="#0987FB"/>
<stop offset="0.14" stop-color="#0989FB"/>
<stop offset="0.53" stop-color="#05A3FD"/>
<stop offset="0.87" stop-color="#00C7FF"/>
</linearGradient>
</defs>
</svg>
