<svg width="36" height="37" viewBox="0 0 36 37" fill="none" xmlns="http://www.w3.org/2000/svg">
<g clip-path="url(#clip0_1_15412)">
<path d="M31.104 30.4863C31.104 31.1847 30.4704 31.7535 29.772 31.7535C29.772 31.7535 10.2816 31.7535 10.224 31.7535C9.5256 31.7535 8.892 31.1847 8.892 30.4215V29.9751C8.892 29.9103 8.9568 29.0247 9.5256 27.9447C10.476 26.1663 12.2544 24.8991 14.796 24.0063L22.6008 21.4071C22.788 21.3423 24.3792 20.7735 25.8984 19.4415C28.0584 17.5983 29.196 15.1215 29.2608 12.3351L29.8296 12.7167C31.104 13.5375 31.104 14.9919 31.104 15.0567V30.4863ZM24.4368 12.2631C24.4368 13.6599 23.9256 14.8047 22.9104 15.7551C22.0824 16.5183 21.1968 16.8351 21.132 16.8999L13.3272 19.4991C8.6976 21.0255 6.408 23.6895 5.3352 25.6623C5.148 26.0439 4.9536 26.4255 4.824 26.8071C4.824 26.8719 4.7592 26.8719 4.7592 26.9367V15.1215C4.7592 13.7247 5.8392 12.8967 6.0264 12.7743L16.6896 5.7903C17.8992 4.9623 19.1664 5.7903 19.1664 5.7903L24.4368 9.2823V12.2631ZM35.928 30.2271V15.1215C35.928 14.4231 35.7408 10.9311 32.5008 8.7711L29.3256 6.6759V1.9167C29.3256 1.1535 28.692 0.5847 27.9936 0.5847H25.8984C25.1352 0.5847 24.5664 1.1535 24.5664 1.9167V3.5007L21.9024 1.7223C19.9368 0.4551 16.8264 -0.0561001 14.0976 1.7223L3.4272 8.7135C2.7936 9.0879 0 11.1831 0 15.0567V30.1695C0 31.6311 0.3168 32.8335 1.0152 33.8487C1.5264 34.6767 2.2824 35.3103 3.1752 35.7495C4.7592 36.5127 6.2856 36.5775 6.3504 36.5775H29.6496C29.7144 36.5775 31.2336 36.5775 32.8248 35.7495C33.7752 35.3031 34.4736 34.6695 35.0496 33.8487C35.6112 32.8983 35.928 31.6887 35.928 30.2271Z" fill="#38A6FA"/>
</g>
<defs>
<clipPath id="clip0_1_15412">
<rect width="36" height="36" fill="white" transform="translate(0 0.578125)"/>
</clipPath>
</defs>
</svg>
