<svg width="36" height="37" viewBox="0 0 36 37" fill="none" xmlns="http://www.w3.org/2000/svg">
<g clip-path="url(#clip0_1_15389)">
<path d="M27.7132 9.01019L27.6124 8.90939C27.562 8.85899 27.562 8.85899 27.5116 8.80859L22.2772 14.0862C22.3276 14.1366 22.3276 14.1366 22.378 14.187L22.4788 14.2878C28.3756 20.2854 29.5564 26.6502 27.814 28.407C27.202 29.0262 26.122 29.1846 25.3516 29.1342C22.018 29.0838 17.5036 26.7006 13.81 23.0286L13.7092 22.9278C13.6588 22.8774 13.6588 22.8774 13.6084 22.827L8.37402 28.1046C8.42442 28.155 8.42442 28.155 8.47482 28.2054L8.57562 28.3062C13.7092 33.4254 19.9156 36.5286 25.2004 36.579C25.2508 36.579 25.3516 36.579 25.4092 36.579C28.4836 36.579 31.1044 35.5422 32.998 33.6342C35.8204 30.7902 36.6412 26.4486 35.2516 21.4302C34.1212 17.1822 31.4068 12.7326 27.7132 9.01019Z" fill="url(#paint0_linear_1_15389)"/>
<path d="M7.55967 11.1843C7.55967 10.4067 7.66047 9.31955 8.27967 8.70035C8.79087 8.18195 9.61167 7.97315 10.6413 7.97315C11.4117 7.97315 12.2829 8.13155 13.2045 8.38355C16.1781 9.21155 19.4613 11.2779 22.2837 14.1219L27.5181 8.84435C23.7741 5.12195 19.4181 2.42915 15.2133 1.24115C10.2237 -0.141254 5.91807 0.636346 3.04527 3.53075C1.09407 5.49635 0.12207 8.18195 0.12207 11.3931C0.22287 16.7715 3.25407 23.0283 8.33007 28.2051L13.6149 22.7763C9.97167 19.0971 7.61007 14.5467 7.55967 11.1843Z" fill="url(#paint1_linear_1_15389)"/>
</g>
<defs>
<linearGradient id="paint0_linear_1_15389" x1="18.6736" y1="31.9342" x2="38.9699" y2="13.1597" gradientUnits="userSpaceOnUse">
<stop stop-color="#00FFFF"/>
<stop offset="1" stop-color="#5900F7" stop-opacity="0"/>
</linearGradient>
<linearGradient id="paint1_linear_1_15389" x1="-6.14842" y1="25.654" x2="19.2908" y2="4.54824" gradientUnits="userSpaceOnUse">
<stop stop-color="#5900F7" stop-opacity="0"/>
<stop offset="1" stop-color="white"/>
</linearGradient>
<clipPath id="clip0_1_15389">
<rect width="36" height="36" fill="white" transform="translate(0 0.578125)"/>
</clipPath>
</defs>
</svg>
