<svg width="36" height="37" viewBox="0 0 36 37" fill="none" xmlns="http://www.w3.org/2000/svg">
<g clip-path="url(#clip0_1_15583)">
<path d="M7.6104 24.971V28.9094H11.556V27.923H16.9776V36.5702C7.8912 36.0806 0.4896 28.6286 0 19.5566H8.6688V24.899L7.6104 24.971Z" fill="#005CC7"/>
<path d="M24.379 27.9233V28.9097H28.3246V24.9713H27.3382V19.6289H35.9998C35.5102 28.7009 28.0366 36.0809 18.9502 36.5705V27.9233H24.379Z" fill="#005CC7"/>
<path d="M16.9776 9.43413H24.444V8.23893H28.3896V12.6021H24.444V11.4069H16.9776V19.5645L25.4304 19.6365V24.9789H24.444V25.9653H11.556V24.9789H10.6416V12.1773H11.628V8.23893H7.6824V12.1773H8.6688V17.5197H0C0.4896 8.45493 7.9632 1.06773 16.9776 0.578125V9.43413Z" fill="#005CC7"/>
</g>
<defs>
<clipPath id="clip0_1_15583">
<rect width="36" height="36" fill="white" transform="translate(0 0.578125)"/>
</clipPath>
</defs>
</svg>
