<svg width="36" height="37" viewBox="0 0 36 37" fill="none" xmlns="http://www.w3.org/2000/svg">
<g clip-path="url(#clip0_1_15388)">
<path d="M16.3727 31.189C17.4969 30.513 18.5922 30.5572 19.6714 31.2711C22.5824 29.693 25.4828 28.1206 28.3938 26.5425C28.3794 25.2802 28.9154 24.3459 30.0238 23.7543C30.0238 20.3713 30.0238 17.0001 30.0238 13.7153C29.6384 13.3606 29.273 13.0745 28.9701 12.7331C28.5507 12.2603 28.3748 11.6784 28.4083 11.0455C28.4186 10.8513 28.3614 10.7408 28.1858 10.648C27.3028 10.181 20.2591 6.2633 19.6474 5.92576C18.5346 6.64058 17.4102 6.65095 16.2855 5.92814C15.8383 6.17956 8.49837 10.2968 7.84699 10.6523C7.72084 10.7211 7.62897 10.7934 7.63099 10.9614C7.64532 12.1487 7.09948 13.0062 6.07305 13.5755C6.05246 13.587 6.03525 13.6046 6.00199 13.6306C6.00199 16.9909 6.00199 20.3613 6.00199 23.7496C6.44068 23.9895 6.8392 24.2881 7.13476 24.7128C7.55884 25.3221 7.69183 25.9883 7.59715 26.7189C7.53688 27.184 7.37906 27.6007 7.09956 27.9732C6.40332 28.9008 5.46976 29.2427 4.3354 29.0946C3.75278 29.0185 3.20997 28.7914 2.81008 28.3942C2.50689 28.0931 2.29924 27.6536 2.15935 27.2385C1.79596 26.1603 2.0345 25.1783 2.81628 24.3532C3.04876 24.1079 3.35491 23.9324 3.66055 23.6995C3.66055 20.3813 3.66055 17.0191 3.66055 13.6395C3.50416 13.5391 3.33799 13.4446 3.18477 13.3323C1.98475 12.4521 1.68019 10.9388 2.36887 9.57602C2.80324 8.71641 3.56767 8.4166 4.41914 8.25359C5.07196 8.12867 5.69484 8.27563 6.25874 8.63059C6.42081 8.73261 6.55804 8.74161 6.72393 8.647C8.03786 7.89784 14.9261 4.01704 15.1351 3.89587C15.1082 2.90061 15.4354 2.05857 16.2161 1.43584C16.7381 1.01939 17.3463 0.817866 18.0229 0.826434C19.2775 0.842274 20.8364 1.84963 20.798 3.89133C21.0213 4.0192 21.2551 4.15593 21.4915 4.28812C22.5599 4.88587 28.6895 8.31515 29.2784 8.65276C29.4288 8.73895 29.5589 8.76926 29.7222 8.66637C30.6727 8.06769 31.6325 8.13976 32.6302 8.58105C33.9689 9.17318 34.3999 11.3384 33.6172 12.4567C33.4534 12.6907 33.2778 12.9229 33.072 13.1187C32.8657 13.3149 32.6151 13.4644 32.3556 13.6552C32.3556 16.9946 32.3556 20.3644 32.3556 23.7533C33.1993 24.1789 33.7686 24.8392 33.9587 25.7811C34.1055 26.5083 33.9467 27.1866 33.6054 27.8436C33.2016 28.6211 32.5035 28.9293 31.7136 29.074C30.9191 29.2197 30.1658 29.0784 29.508 28.5594C26.5926 30.1458 23.6926 31.7238 20.7838 33.3066C20.7973 34.2865 20.48 35.1171 19.7135 35.7283C19.1263 36.1965 18.4406 36.3932 17.69 36.3226C16.3173 36.1934 15.0191 35.0046 15.1533 33.1621C14.4506 32.7314 13.7304 32.29 13.0225 31.8561C11.7778 32.3076 10.5339 32.0285 10.0439 31.1926C9.44539 30.1719 9.43185 28.8658 10.7528 27.8593C10.7528 24.1803 10.7528 20.4967 10.7528 16.823C9.4824 15.9238 9.39204 14.5751 10.0452 13.4695C10.3601 12.9365 10.9004 12.7403 11.4587 12.6078C12.0341 12.4711 12.5868 12.5849 13.1113 12.8756C13.7074 12.5529 15.3092 11.7122 15.5002 11.5829C15.5913 11.5212 15.6809 11.3971 15.6951 11.2911C15.8185 10.3704 16.4891 9.60431 17.4078 9.35987C18.2652 9.13171 19.2504 9.47342 19.7809 10.1988C20.0096 10.5114 20.1606 10.8622 20.223 11.2513C20.2382 11.3463 20.3058 11.47 20.3854 11.5119C21.2705 11.9774 22.1625 12.4295 23.053 12.8844C23.0663 12.8912 23.0841 12.889 23.0999 12.8909C24.2839 12.3942 25.5858 12.581 26.079 13.3012C26.7819 14.3274 26.8919 15.6841 25.6047 16.7412C25.6246 17.026 25.7865 19.3073 25.842 20.1462C25.858 20.3878 25.8984 20.5989 26.0679 20.8039C26.86 21.7624 26.7194 22.9212 26.0246 23.8084C25.824 24.0645 25.4547 24.2096 25.1377 24.3485C24.6109 24.5794 24.065 24.561 23.5197 24.3709C23.4215 24.3367 23.2786 24.3486 23.185 24.396C22.2497 24.8695 21.3187 25.3516 20.3926 25.8428C20.3115 25.8858 20.236 26.005 20.2217 26.0985C20.0555 27.1844 19.1526 28.018 18.083 28.0589C16.9548 28.102 15.9819 27.3687 15.7352 26.2891C15.7262 26.2501 15.7069 26.209 15.7125 26.1719C15.7739 25.7584 15.5074 25.5781 15.1988 25.405C14.8584 25.2141 14.5346 24.9936 14.1947 24.7805C14.2355 23.9436 14.2754 23.126 14.3186 22.2437C14.5112 22.3451 16.0803 23.2585 16.7397 23.637C16.8255 23.6862 16.9628 23.722 17.0455 23.6884C17.7371 23.4071 18.4062 23.4512 19.0652 23.7845C19.1004 23.8023 19.1387 23.8138 19.1985 23.8372C19.7425 23.5569 21.5348 22.6353 21.8681 22.4449C21.9443 22.4014 22.03 22.2967 22.0339 22.2163C22.0812 21.2426 22.5466 20.5554 23.421 20.1371C23.4421 20.127 23.4599 20.11 23.515 20.0708C23.4431 19.0321 23.3697 17.972 23.2947 16.889C22.56 16.4782 22.1273 15.8508 22.0339 14.9712C21.092 14.4892 20.1403 14.0021 19.1934 13.5174C18.3868 13.9493 17.5949 13.979 16.7819 13.5388C15.932 13.9975 15.0822 14.4561 14.2237 14.9194C14.1491 15.7202 13.7905 16.3516 13.1027 16.7955C13.1027 20.4777 13.1027 24.162 13.1027 27.8601C13.7971 28.3308 14.1977 28.9796 14.2201 29.8673C14.9272 30.3016 15.6409 30.7397 16.3727 31.189Z" fill="url(#paint0_linear_1_15388)"/>
</g>
<defs>
<linearGradient id="paint0_linear_1_15388" x1="2.64543" y1="9.23081" x2="33.3943" y2="28.1626" gradientUnits="userSpaceOnUse">
<stop stop-color="#DE3925"/>
<stop offset="1" stop-color="#F17F0B"/>
</linearGradient>
<clipPath id="clip0_1_15388">
<rect width="36" height="36" fill="white" transform="translate(0 0.578125)"/>
</clipPath>
</defs>
</svg>
