<svg width="36" height="37" viewBox="0 0 36 37" fill="none" xmlns="http://www.w3.org/2000/svg">
<g clip-path="url(#clip0_1_15386)">
<path d="M18.0376 36.2734C8.40072 36.5258 0.247011 28.1866 0.255867 18.5259C0.264435 9.08619 8.18213 0.775446 18.0348 0.771486C27.7256 0.767598 35.8285 8.89287 35.8144 18.5723C35.8002 28.3975 27.5016 36.533 18.0376 36.2734ZM33.1191 18.5716C33.1205 10.2779 26.3886 3.47573 18.1697 3.46623C9.76476 3.45651 2.96011 10.1583 2.95306 18.4528C2.94593 26.8397 9.66497 33.6283 17.9771 33.6322C26.3489 33.6362 33.1177 26.9037 33.1191 18.5716ZM33.8094 17.9918C34.2602 17.9656 34.6428 17.9434 35.0504 17.9197C35.0504 17.7373 35.0504 17.6194 35.0504 17.4623C34.6193 17.5003 34.2226 17.5352 33.8094 17.5716C33.8094 17.7101 33.8094 17.8148 33.8094 17.9918ZM0.998187 17.4611C1.01021 17.636 1.01835 17.7543 1.02987 17.9219C1.45956 17.9219 1.85506 17.9219 2.29455 17.9219C2.27179 17.7857 2.25264 17.671 2.23464 17.5632C1.81783 17.5288 1.44682 17.4981 0.998187 17.4611ZM14.4827 1.84306C14.5686 2.27945 14.6456 2.67092 14.7313 3.10609C14.8853 3.07354 14.9983 3.04971 15.1528 3.01709C15.0725 2.59733 15.0002 2.21977 14.9216 1.80857C14.76 1.82125 14.643 1.83046 14.4827 1.84306ZM21.3495 3.09421C21.4347 2.64421 21.5063 2.26577 21.5861 1.84436C21.416 1.84436 21.2892 1.84436 21.1312 1.84436C21.0614 2.25886 20.9981 2.63477 20.9297 3.04114C21.0984 3.06253 21.2016 3.07556 21.3495 3.09421ZM23.1833 34.8471C23.0454 34.3925 22.9332 34.0228 22.8107 33.6191C22.6649 33.6578 22.5495 33.6884 22.3923 33.7301C22.5087 34.1294 22.6164 34.499 22.7341 34.9024C22.8863 34.8837 23.0024 34.8694 23.1833 34.8471ZM13.2566 33.6068C13.1283 34.0527 13.0188 34.4332 12.9093 34.8138C12.9815 34.8489 13.0537 34.8839 13.1259 34.919C13.6203 34.713 13.4717 34.1337 13.6847 33.7295C13.5177 33.6816 13.4136 33.6518 13.2566 33.6068ZM8.07168 30.7953C7.78498 31.1591 7.54493 31.4637 7.27248 31.8093C7.42224 31.8974 7.53435 31.9634 7.65689 32.0355C7.92106 31.7005 8.15225 31.4073 8.4049 31.0869C8.29416 30.99 8.2033 30.9105 8.07168 30.7953ZM34.5413 14.1914C34.0969 14.3078 33.6998 14.412 33.2654 14.5259C33.3448 14.6966 33.3958 14.8064 33.453 14.9294C33.839 14.8268 34.1966 14.7316 34.5868 14.6277C34.5714 14.4797 34.5591 14.3629 34.5413 14.1914ZM1.52285 14.1854C1.52285 14.3765 1.52285 14.5039 1.52285 14.647C1.91467 14.7443 2.27172 14.8331 2.65303 14.9278C2.69767 14.7745 2.73108 14.6597 2.77392 14.5125C2.36475 14.4056 1.99071 14.3078 1.52285 14.1854ZM33.4107 11.1561C32.9937 11.3549 32.6453 11.521 32.263 11.7032C32.3411 11.849 32.3975 11.9544 32.4672 12.0846C32.8482 11.9093 33.1998 11.7476 33.5797 11.5728C33.5219 11.4302 33.477 11.3193 33.4107 11.1561ZM2.4919 11.5724C2.87191 11.7472 3.22349 11.909 3.6043 12.0843C3.6745 11.9542 3.73138 11.8488 3.8118 11.6999C3.41587 11.5151 3.05443 11.3464 2.6598 11.1622C2.59572 11.3187 2.55036 11.4295 2.4919 11.5724ZM12.2691 3.83696C12.0909 3.41223 11.937 3.04532 11.7644 2.63384C11.5975 2.75033 11.5002 2.81816 11.3915 2.89412C11.5599 3.28551 11.7122 3.63932 11.8735 4.01386C12.0218 3.94748 12.1217 3.90284 12.2691 3.83696ZM29.0839 7.3039C29.412 6.9565 29.6768 6.67613 29.9681 6.36761C29.8693 6.24435 29.7931 6.14917 29.6845 6.01381C29.3547 6.36711 29.084 6.65705 28.759 7.00517C28.8769 7.11353 28.9561 7.1864 29.0839 7.3039ZM7.27126 6.95621C6.97455 6.64273 6.70296 6.35573 6.40582 6.04174C6.28673 6.18754 6.21135 6.27985 6.12156 6.38979C6.41079 6.69298 6.67654 6.97155 6.96907 7.2782C7.08363 7.15616 7.16463 7.06983 7.27126 6.95621ZM24.2125 4.01681C24.3813 3.60209 24.5275 3.24281 24.6863 2.85286C24.542 2.78972 24.4332 2.74213 24.2855 2.67747C24.1201 3.08225 23.9691 3.4519 23.8089 3.84401C23.954 3.90608 24.0543 3.94906 24.2125 4.01681ZM25.1766 32.6763C25.3757 33.05 25.5571 33.3905 25.7545 33.7611C25.8989 33.6823 26.004 33.6249 26.1386 33.5514C25.9351 33.169 25.7476 32.8167 25.5404 32.4273C25.3939 32.5277 25.2952 32.5951 25.1766 32.6763ZM10.521 32.4193C10.3048 32.8478 10.1257 33.2029 9.92899 33.5928C10.0981 33.6507 10.2107 33.6892 10.3434 33.7347C10.5329 33.3699 10.7047 33.0392 10.8937 32.6752C10.7772 32.5951 10.6785 32.5274 10.521 32.4193ZM28.8007 31.8021C28.5105 31.4406 28.2675 31.1378 28.004 30.8095C27.8807 30.9058 27.7859 30.9799 27.6573 31.0802C27.9207 31.4099 28.1625 31.7126 28.4244 32.0404C28.5491 31.9615 28.6515 31.8966 28.8007 31.8021ZM32.8453 26.9494C32.4821 26.7361 32.1502 26.5411 31.7868 26.3277C31.7064 26.469 31.6479 26.5718 31.5659 26.7161C31.9411 26.9325 32.2848 27.1306 32.6608 27.3474C32.735 27.1872 32.7853 27.0786 32.8453 26.9494ZM3.42912 27.3475C3.82267 27.1149 4.15315 26.9195 4.51719 26.7043C4.42013 26.5568 4.35547 26.4585 4.27282 26.3329C3.91015 26.5481 3.57924 26.7446 3.21759 26.9593C3.29067 27.0933 3.34769 27.198 3.42912 27.3475ZM32.8321 24.0246C33.2697 24.1765 33.6443 24.3066 34.0517 24.448C34.0946 24.2832 34.1242 24.1695 34.161 24.0284C33.7671 23.8893 33.4069 23.7621 33.0234 23.6267C32.9603 23.7581 32.9146 23.853 32.8321 24.0246ZM2.04067 24.4514C2.44495 24.3053 2.81741 24.1706 3.25423 24.0127C3.15322 23.8463 3.08784 23.7387 3.02038 23.6276C2.61797 23.7757 2.27215 23.903 1.89819 24.0407C1.9488 24.1864 1.98768 24.2986 2.04067 24.4514ZM33.7159 20.6727C33.6771 20.8392 33.6503 20.9546 33.6158 21.1026C34.0506 21.1611 34.4455 21.2142 34.9057 21.276C34.8791 21.0799 34.8616 20.9516 34.8453 20.8318C34.4536 20.7767 34.1183 20.7295 33.7159 20.6727ZM2.4852 21.0977C2.42314 20.9285 2.38203 20.8162 2.33141 20.6783C1.95391 20.7313 1.60435 20.7803 1.21663 20.8346C1.21663 20.9789 1.21663 21.1067 1.21663 21.2738C1.63978 21.215 2.02231 21.162 2.4852 21.0977ZM4.03615 8.7763C4.41804 9.04954 4.73362 9.27533 5.08735 9.52849C5.17606 9.38276 5.2441 9.27109 5.31977 9.14689C4.97439 8.90144 4.67055 8.68544 4.33855 8.44949C4.24006 8.55598 4.15891 8.64361 4.03615 8.7763ZM30.7255 9.16899C30.8376 9.30212 30.9225 9.4027 31.0179 9.51596C31.3696 9.25618 31.6813 9.026 32.0403 8.76089C31.9089 8.63605 31.8156 8.54741 31.7207 8.4572C31.3808 8.7002 31.0896 8.90857 30.7255 9.16899ZM9.63358 5.19128C9.3805 4.80586 9.16191 4.47293 8.92366 4.10998C8.78275 4.22122 8.68908 4.29517 8.57295 4.38689C8.80623 4.73833 9.0192 5.05923 9.24449 5.39864C9.37906 5.32693 9.47388 5.27638 9.63358 5.19128ZM5.99549 28.7186C5.62771 29.041 5.33626 29.2965 4.96524 29.6217C5.09002 29.7424 5.17757 29.8271 5.28305 29.9292C5.65471 29.6048 5.95647 29.3415 6.30797 29.0348C6.18082 28.9061 6.10363 28.828 5.99549 28.7186ZM31.0491 29.5654C30.7198 29.2813 30.4158 29.019 30.0875 28.7357C29.9828 28.8743 29.9103 28.9703 29.8219 29.0872C30.1419 29.3647 30.435 29.6189 30.7528 29.8945C30.8603 29.7752 30.9419 29.6845 31.0491 29.5654ZM27.1304 4.12892C26.8893 4.50008 26.6791 4.82372 26.4488 5.17832C26.5899 5.26126 26.6915 5.32095 26.8293 5.40195C27.0643 5.03986 27.2801 4.70765 27.51 4.35341C27.3616 4.26572 27.2687 4.21071 27.1304 4.12892ZM18.2309 2.73759C18.2309 2.3107 18.2309 1.94005 18.2309 1.53267C18.0942 1.53267 17.9797 1.53267 17.8461 1.53267C17.8461 1.9507 17.8461 2.3336 17.8461 2.73759C17.9809 2.73759 18.0888 2.73759 18.2309 2.73759ZM16.2612 34.2534C16.2142 34.6756 16.1715 35.0585 16.1245 35.4793C16.3044 35.4918 16.4225 35.5 16.5562 35.5093C16.6026 35.1009 16.6446 34.7319 16.6905 34.3282C16.5325 34.3007 16.4155 34.2803 16.2612 34.2534ZM19.3744 34.3353C19.429 34.7654 19.4759 35.1342 19.5276 35.541C19.6779 35.506 19.7943 35.4789 19.9523 35.442C19.9005 35.0275 19.853 34.648 19.8019 34.2385C19.6378 34.2757 19.5328 34.2994 19.3744 34.3353Z" fill="#1441F2"/>
<path d="M22.6928 24.9673C23.1441 25.3786 23.5956 25.7803 24.0356 26.1945C24.3826 26.5211 24.4794 26.9067 24.1194 27.2677C23.7685 27.6196 23.4 27.4972 23.0872 27.1737C22.6091 26.6794 22.1394 26.1769 21.6414 25.6517C20.0124 26.4864 18.3179 26.1888 16.6625 26.2014C14.0088 26.2218 11.772 23.9791 11.7498 21.3222C11.7312 19.0916 11.7303 16.8606 11.7487 14.63C11.7709 11.942 13.808 9.75895 16.5064 9.63893C17.8557 9.57888 19.2461 9.57622 20.5625 9.83239C22.7779 10.2635 24.3053 12.3092 24.3224 14.571C24.339 16.7525 24.3149 18.9342 24.3338 21.1156C24.3457 22.4831 23.8656 23.6401 22.9561 24.6387C22.8921 24.7088 22.8368 24.7869 22.6928 24.9673ZM21.6929 23.9455C22.5437 23.1398 22.9622 22.2747 22.97 21.244C22.9869 19.0473 22.9802 16.8504 22.9739 14.6537C22.9682 12.7113 21.4359 11.1031 19.495 11.0313C18.5129 10.995 17.527 10.9948 16.545 11.0336C14.6343 11.1092 13.1039 12.721 13.0978 14.6356C13.0908 16.8324 13.091 19.0292 13.098 21.226C13.1032 22.8665 14.324 24.492 15.9317 24.7225C17.1671 24.8996 18.4427 24.8052 19.7006 24.8092C19.947 24.81 20.1938 24.7087 20.6731 24.6033C20.2025 24.1981 19.8609 23.9209 19.539 23.6224C19.1928 23.3014 19.0729 22.9188 19.4505 22.556C19.8254 22.196 20.1997 22.334 20.5202 22.6756C20.9005 23.081 21.2747 23.4922 21.6929 23.9455Z" fill="#1441F2"/>
</g>
<defs>
<clipPath id="clip0_1_15386">
<rect width="36" height="36" fill="white" transform="translate(0 0.578125)"/>
</clipPath>
</defs>
</svg>
