<svg width="36" height="37" viewBox="0 0 36 37" fill="none" xmlns="http://www.w3.org/2000/svg">
<g clip-path="url(#clip0_1_15621)">
<path d="M21.182 31.4438C20.1668 31.6886 19.1084 31.8254 18.0212 31.8254C10.6988 31.8254 4.76595 25.8926 4.76595 18.5774C4.76595 11.2622 10.6988 5.32223 18.014 5.32223C25.3292 5.32223 31.2692 11.255 31.2692 18.5774C31.2692 19.8446 31.0892 21.0758 30.758 22.235C32.3564 22.6454 33.7532 23.5526 34.7828 24.7766C35.4956 22.847 35.8844 20.759 35.8844 18.5774C35.8844 8.70623 27.8852 0.707031 18.014 0.707031C8.14275 0.707031 0.143555 8.70623 0.143555 18.5774C0.143555 28.4486 8.14275 36.4478 18.014 36.4478C19.9508 36.4478 21.8156 36.1382 23.5652 35.5694C22.3844 34.4894 21.5276 33.0638 21.182 31.4438Z" fill="#255C84"/>
<path d="M28.8071 35.1084C31.7457 35.1084 34.1279 32.7262 34.1279 29.7876C34.1279 26.849 31.7457 24.4668 28.8071 24.4668C25.8685 24.4668 23.4863 26.849 23.4863 29.7876C23.4863 32.7262 25.8685 35.1084 28.8071 35.1084Z" fill="#255C84"/>
</g>
<defs>
<clipPath id="clip0_1_15621">
<rect width="36" height="36" fill="white" transform="translate(0 0.578125)"/>
</clipPath>
</defs>
</svg>
