<svg width="36" height="37" viewBox="0 0 36 37" fill="none" xmlns="http://www.w3.org/2000/svg">
<g clip-path="url(#clip0_1_15608)">
<path d="M17.892 11.9114C17.28 11.357 16.0704 10.5866 13.9608 10.5938C11.8584 10.601 12.1968 11.6882 12.1968 11.6882C12.1968 11.6882 12.1536 12.5738 13.5288 12.6026C14.904 12.6314 16.38 12.6818 17.5752 13.1354C18.7704 13.5818 18.504 12.4658 17.892 11.9114ZM12.9168 13.9346C12.7872 14.0138 12.7584 14.2226 12.9024 14.2514C13.7304 14.4026 15.048 14.6762 16.5168 14.4386C16.6536 14.417 16.632 14.2298 16.5312 14.129C16.02 13.625 14.6232 12.9122 12.9168 13.9346Z" fill="#151619"/>
<path d="M30.2116 28.1676C30.154 28.0884 30.0388 28.0668 29.9596 28.1244C29.9308 28.146 29.902 28.1748 29.8948 28.2108C29.038 30.7524 28.3396 30.1332 28.0156 29.586C27.9004 29.3916 27.8212 29.1828 27.7636 28.9668C26.95 25.7196 27.6916 22.7244 27.6916 22.7244C28.138 24.1068 29.3044 24.5172 29.8948 24.6396C29.9956 24.6612 30.0892 24.5964 30.1108 24.4956C30.118 24.4524 30.1108 24.4092 30.0892 24.3732C27.7996 19.8948 29.1532 17.994 29.1532 17.994C29.5492 18.4332 30.1972 18.4692 30.6076 18.4476C30.7084 18.4404 30.7876 18.354 30.7804 18.2532C30.7804 18.21 30.7588 18.174 30.7372 18.1452C29.0812 16.3164 28.9516 15.6972 28.8868 12.594C28.8508 10.8804 28.246 9.97323 27.6844 9.50523C27.0436 8.96523 26.5324 8.28123 26.2516 7.48923C24.0268 1.20363 19.8436 0.375635 15.9556 0.613235C11.1388 0.908435 8.56837 4.59483 7.35157 6.43083C6.06277 8.37483 5.06197 11.2476 5.12677 12.126C5.19157 13.0044 6.00517 12.8676 6.00517 13.8828C6.00517 14.898 4.43557 15.7476 5.05477 18.5988C5.32837 19.8588 6.42997 20.802 5.93317 23.6748C5.04757 28.8444 9.00757 35.1228 9.99397 36.0588C10.1164 36.174 10.3252 36.0804 10.3036 35.9148C10.1524 34.7628 10.3756 33.1572 10.3756 33.1572C12.3628 37.4124 17.914 36.6204 19.6564 36.2604C19.7572 36.2388 19.822 36.1452 19.8004 36.0444C19.786 35.994 19.7572 35.9436 19.7068 35.922C17.95 34.986 17.5468 33.0924 17.5468 33.0924C19.2964 33.9204 20.4124 33.7836 20.9524 33.6036C21.046 33.5748 21.0964 33.4668 21.0676 33.3732C21.0532 33.33 21.0244 33.3012 20.9884 33.2796C20.4628 32.9484 19.6564 31.5876 19.0516 30.2484C18.5404 29.1252 18.7276 27.8076 19.5196 26.8644C20.2324 26.0148 21.1612 24.834 22.2196 23.574C22.4428 23.3076 22.7524 23.5668 22.8676 23.8548C24.4156 27.7284 26.4316 30.6516 27.814 31.458C28.822 32.0772 29.9236 32.1924 30.4204 31.8036C31.7884 30.7308 30.7084 28.8732 30.2116 28.1676ZM13.4572 24.5604C11.794 24.6612 12.1756 22.5012 10.9588 22.5588C9.65557 22.6164 10.0444 24.2652 9.16597 24.3588C8.28757 24.4524 8.39557 21.9396 9.00757 21.6516C9.97957 21.1908 11.11 21.0828 12.0172 21.1116C13.09 21.1476 14.1196 21.1044 14.602 22.1412C15.178 23.3652 15.1204 24.4668 13.4572 24.5604ZM23.9548 9.14523C21.7444 10.4556 21.6148 11.1036 21.3052 13.4076C21.2332 13.9116 21.1612 14.5092 21.3988 14.8404C21.9244 15.5964 22.918 16.158 22.6444 17.4324C21.9964 20.4708 20.2756 24.042 17.9716 25.158C17.6908 25.2948 17.374 25.0212 17.3092 24.7188C17.05 23.5164 16.438 21.3204 16.2724 20.6076C15.4516 16.5108 11.542 16.4532 11.434 17.238C11.4052 17.4684 12.226 17.778 12.7516 17.9508C13.234 18.1092 13.2484 18.7932 12.7732 18.9588C12.6508 19.002 12.514 19.0164 12.3844 19.0236C11.4196 18.9588 10.1884 19.0308 9.64117 19.074C9.25957 19.1028 8.91397 18.8364 8.84917 18.4548C8.63317 17.202 9.01477 16.7484 9.47557 15.5604C9.70597 14.97 10.0012 13.7748 10.102 13.1556C10.1524 12.8244 10.1308 12.4284 10.0948 12.1332C10.0516 11.7804 10.0372 11.4276 10.0444 11.0748C10.0804 9.93723 10.1884 9.00843 11.0596 9.00843C12.622 9.00843 15.9196 9.01563 16.4452 8.24523C16.9924 7.43883 13.9324 8.22363 10.6492 8.11563C10.5196 8.10843 10.4044 8.00763 10.3972 7.87803C10.3972 7.85643 10.39 7.83483 10.39 7.82043C10.3684 7.59003 10.5412 7.38843 10.7716 7.36683C10.7788 7.36683 10.7932 7.36683 10.8004 7.36683C12.5572 7.34523 13.8892 7.22283 14.242 6.71163C14.602 6.18603 12.8236 6.42363 10.8148 6.43803C10.5556 6.43803 10.3468 6.43083 10.3612 6.17883V6.17163C10.3756 5.96283 10.5412 5.79003 10.75 5.77563C11.9308 5.69643 12.4348 5.61003 12.4852 5.22843C12.5356 4.84683 12.3628 4.89003 11.0524 4.96203C10.7644 4.97643 10.8508 4.76043 11.0092 4.53003C11.4196 3.93243 13.2412 2.19723 17.2804 2.31963C24.1996 2.54283 23.9836 7.43883 24.1924 8.63403C24.2284 8.84283 24.1348 9.04443 23.9548 9.14523Z" fill="#151619"/>
</g>
<defs>
<clipPath id="clip0_1_15608">
<rect width="36" height="36" fill="white" transform="translate(0 0.578125)"/>
</clipPath>
</defs>
</svg>
