<svg width="36" height="37" viewBox="0 0 36 37" fill="none" xmlns="http://www.w3.org/2000/svg">
<g clip-path="url(#clip0_1_15384)">
<path d="M17.8915 36.3828C8.26062 36.4484 -0.14437 28.4341 0.151118 18.0342C0.414494 8.76558 8.07796 0.614606 18.3664 0.810086C27.7319 0.987998 36.0432 8.75442 35.7279 19.2414C35.4514 28.443 27.8615 36.4296 17.8915 36.3828ZM21.928 19.8267C22.033 19.9676 22.1022 20.064 22.1751 20.1577C23.9249 22.4062 25.6841 24.6476 27.4182 26.9082C27.7794 27.3791 28.2292 27.4412 28.7241 27.3311C29.2322 27.218 29.4483 26.8413 29.448 26.3225C29.445 21.166 29.4455 16.0094 29.4473 10.8529C29.4475 10.3612 29.2331 9.99448 28.7665 9.86387C28.2983 9.73283 27.8178 9.75659 27.478 10.1915C26.7394 11.1366 26.0138 12.0919 25.2743 13.0363C24.1632 14.4552 23.0447 15.8683 21.8955 17.3269C20.874 16.0266 19.8865 14.776 18.9065 13.5195C18.3755 12.8386 17.4965 12.8279 16.962 13.5101C16.6461 13.9133 16.339 14.3233 16.0233 14.7267C15.3523 15.5841 14.6781 16.439 13.9702 17.3397C13.2036 16.3676 12.4936 15.4764 11.7937 14.5774C10.6695 13.1334 9.55043 11.6855 8.4327 10.2364C8.0794 9.77833 7.60168 9.72995 7.10437 9.86517C6.59389 10.0039 6.43377 10.4024 6.43434 10.9107C6.44032 16.0474 6.43982 21.1842 6.43514 26.321C6.4347 26.8128 6.62997 27.1696 7.09674 27.3157C7.57864 27.4666 8.07018 27.4025 8.39353 26.9944C9.38181 25.747 10.331 24.4687 11.3064 23.2109C12.1709 22.096 13.0503 20.9924 13.9596 19.8374C14.8185 20.9367 15.682 21.9354 16.4238 23.0175C17.465 24.5363 18.3596 24.5941 19.4193 23.0508C20.1733 21.9528 21.0534 20.9416 21.928 19.8267ZM27.1469 13.1646C25.734 14.9669 24.321 16.7693 22.8827 18.604C24.3219 20.4408 25.7464 22.259 27.2727 24.2071C27.2727 20.4018 27.2727 16.8053 27.2727 13.2088C27.2308 13.1941 27.1888 13.1793 27.1469 13.1646ZM12.998 18.606C11.5541 16.7646 10.1346 14.9543 8.61933 13.0219C8.61933 16.8101 8.61933 20.4174 8.61933 24.2036C10.1441 22.2544 11.5645 20.4387 12.998 18.606ZM17.4395 21.7567C17.7358 22.1348 18.0575 22.1774 18.3619 21.8026C19.2269 20.7373 20.0739 19.6572 20.9242 18.5877C20.0772 17.5153 19.2645 16.4772 18.4408 15.448C18.1045 15.0277 17.7411 15.0256 17.4236 15.4272C16.6068 16.4609 15.7951 17.4985 14.9401 18.587C15.7907 19.6648 16.6181 20.7084 17.4395 21.7567Z" fill="url(#paint0_linear_1_15384)"/>
</g>
<defs>
<linearGradient id="paint0_linear_1_15384" x1="17.9401" y1="0.86675" x2="17.9401" y2="36.3646" gradientUnits="userSpaceOnUse">
<stop offset="0.000478316" stop-color="#36A7DD"/>
<stop offset="1" stop-color="#13307E"/>
</linearGradient>
<clipPath id="clip0_1_15384">
<rect width="36" height="36" fill="white" transform="translate(0 0.578125)"/>
</clipPath>
</defs>
</svg>
