<svg width="36" height="37" viewBox="0 0 36 37" fill="none" xmlns="http://www.w3.org/2000/svg">
<path d="M3.50019 18.4061C3.45599 22.2879 5.52267 32.1214 18.1375 33.0193C18.9467 33.0665 19.5645 33.7608 19.5173 34.5701C19.5172 34.5724 19.517 34.5748 19.5169 34.5771C19.4614 35.3505 18.8098 35.9449 18.0346 35.9292C13.6134 35.8488 0.919856 33.348 0.591075 18.4133C0.576229 17.6144 1.21189 16.9546 2.01086 16.9398C2.0392 16.9392 2.06755 16.9396 2.09588 16.9407C2.8844 16.9664 3.50804 17.6172 3.50019 18.4061ZM17.9092 4.09037C21.7909 4.06787 31.6124 6.18922 32.4403 18.8088C32.4811 19.618 33.1702 20.2409 33.9794 20.2001C33.983 20.1999 33.9866 20.1997 33.9902 20.1995C34.7645 20.1495 35.3637 19.5011 35.3527 18.7252C35.2956 14.3041 32.8664 1.59605 17.9333 1.18206C17.1344 1.16295 16.4713 1.79509 16.4522 2.59397C16.4515 2.62199 16.4517 2.65001 16.4526 2.67802C16.4744 3.46606 17.1208 4.09286 17.9092 4.09037ZM17.9092 9.6104C21.7909 9.58789 26.5795 11.8813 27.0224 18.6038C27.0632 19.4135 27.7526 20.0367 28.5623 19.9959C28.5659 19.9957 28.5694 19.9955 28.573 19.9953C29.3466 19.9436 29.9443 19.2954 29.9331 18.5203C29.8761 14.0991 27.1928 6.76961 17.9317 6.7037C17.1251 6.69237 16.462 7.33704 16.4507 8.14361C16.4504 8.16229 16.4505 8.18098 16.451 8.19966C16.4737 8.98768 17.1208 9.61378 17.9092 9.6104ZM7.64242 16.9134C6.8361 16.8902 6.16369 17.5251 6.14056 18.3315C6.14003 18.3502 6.13984 18.3689 6.14003 18.3876C6.17299 27.6487 13.488 30.3625 17.9092 30.4373C18.6833 30.4517 19.3336 29.8583 19.3899 29.086C19.4395 28.2764 18.8234 27.5799 18.0138 27.5303C18.0108 27.5301 18.0078 27.5299 18.0048 27.5298C11.283 27.0595 9.00976 22.2614 9.04835 18.3804C9.05662 17.5904 8.43202 16.9387 7.64242 16.9134ZM18.1206 21.9197C14.484 21.6496 14.5603 18.8555 14.6102 18.3104C14.6174 18.2365 14.6206 18.1625 14.6238 18.0878C14.6849 16.5749 15.8071 15.8097 16.6519 15.4463C17.3035 15.162 18.0249 15.078 18.7243 15.2052C20.7001 15.5782 21.2789 17.3804 21.4348 18.628C21.5312 19.3773 22.1831 19.9295 22.938 19.9012C23.7438 19.8741 24.375 19.199 24.3479 18.3932C24.3475 18.3819 24.347 18.3707 24.3464 18.3595C24.0481 13.3169 19.8384 12.3917 19.8384 12.3917C16.2066 11.5131 14.119 13.0179 12.9984 14.4632C12.1496 15.5564 11.7227 16.9117 11.7123 18.296C11.6801 23.1343 15.3867 24.5893 17.6857 24.8875C18.6455 25.0129 19.5064 24.3079 19.475 23.3409C19.4527 22.5908 18.8687 21.9781 18.1206 21.9197ZM23.975 24.4824C24.561 23.896 24.561 22.9458 23.975 22.3594L21.9694 20.3538C21.3828 19.7677 20.4322 19.7677 19.8456 20.3538C19.2596 20.9402 19.2596 21.8904 19.8456 22.4768L21.8552 24.4864C22.4425 25.0687 23.3899 25.0669 23.975 24.4824Z" fill="#763C8A"/>
</svg>
