<svg width="36" height="37" viewBox="0 0 36 37" fill="none" xmlns="http://www.w3.org/2000/svg">
<g clip-path="url(#clip0_1_15381)">
<path d="M9.12207 3.07686L18.0573 13.5457L24.0549 10.0177C24.0549 10.0177 16.8189 0.340859 14.8893 1.02486C13.0749 1.71606 9.12207 3.07686 9.12207 3.07686Z" fill="black"/>
<path d="M24.2783 10.0175C24.2783 10.0175 25.6391 7.6271 26.3159 4.4375C26.3159 4.4375 33.1055 7.1663 30.4991 13.9991L24.2783 10.0175Z" fill="black"/>
<path d="M30.499 14.0063L31.0678 21.1775L33.667 20.8391C33.667 20.8391 34.3438 20.6087 34.2358 19.3631C34.1206 17.9951 33.8974 15.1511 33.8974 15.1511C33.8974 15.1511 34.0126 14.4671 32.4286 14.2439C30.499 13.8911 30.499 14.0063 30.499 14.0063Z" fill="black"/>
<path d="M31.0611 21.1777L25.8555 25.3897L28.2315 30.0553C28.2315 30.0553 28.8003 31.8769 30.4923 29.8249C32.0763 27.7729 32.7531 27.4345 32.6379 26.1817C32.5371 24.9289 32.1915 21.9697 31.0611 21.1777Z" fill="black"/>
<path d="M25.7468 25.383L18.6188 22.1934L12.398 34.8294C12.398 34.8294 11.9444 35.7366 13.5284 35.8518C15.1124 36.0822 17.7116 36.651 19.0724 35.283C20.4332 34.0374 25.7468 25.383 25.7468 25.383Z" fill="black"/>
<path d="M18.6192 22.0842L17.9424 13.6602L2.55602 14.6898C2.55602 14.6898 1.64882 14.805 1.76402 16.5114C1.87922 18.7866 2.10242 21.2922 2.10242 21.2922C2.10242 21.2922 1.98722 22.3146 4.02482 22.4298C6.06242 22.5378 18.396 22.5378 18.6192 22.0842Z" fill="black"/>
</g>
<defs>
<clipPath id="clip0_1_15381">
<rect width="36" height="36" fill="white" transform="translate(0 0.578125)"/>
</clipPath>
</defs>
</svg>
