<svg width="36" height="37" viewBox="0 0 36 37" fill="none" xmlns="http://www.w3.org/2000/svg">
<g clip-path="url(#clip0_1_15380)">
<path d="M0.412109 5.27684C0.412109 5.2424 0.412109 5.20799 0.412109 5.17355C0.484883 5.11845 0.565289 5.07101 0.629315 5.00714C1.89655 3.74299 3.16179 2.47681 4.42793 1.21154C4.49244 1.14708 4.56143 1.08709 4.63845 1.01562C6.51537 2.89268 8.37599 4.75347 10.218 6.59557C15.4382 3.53446 20.6271 3.53224 25.8797 6.60463C27.7196 4.76458 29.5832 2.90091 31.4064 1.0776C32.809 2.48047 34.2052 3.87685 35.6307 5.30258C33.7964 7.13676 31.9364 8.99654 30.0936 10.8392C33.1367 16.0458 33.1325 21.2345 30.0641 26.4654C31.9044 28.3055 33.7646 30.1657 35.6022 32.0032C34.2036 33.4017 32.8071 34.7983 31.3719 36.2333C31.3263 36.1745 31.2711 36.0852 31.1989 36.0129C29.4722 34.2832 27.7415 32.5576 26.0196 30.8232C25.8669 30.6693 25.7727 30.6696 25.5909 30.7773C21.1641 33.4002 16.5974 33.6634 11.9043 31.551C11.335 31.2948 10.7992 30.9646 10.1785 30.6315C8.33526 32.4752 6.47138 34.3395 4.57407 36.2373C4.52452 36.1732 4.47379 36.0908 4.40726 36.0241C3.14912 34.763 1.88951 33.5034 0.628379 32.2453C0.564677 32.1817 0.484595 32.1346 0.412145 32.0798C0.412145 32.0454 0.412145 32.011 0.412145 31.9766C0.484613 31.9218 0.564731 31.8747 0.628433 31.8111C2.34 30.1024 4.04584 28.3879 5.76527 26.6871C5.97272 26.4819 6.00345 26.353 5.8424 26.0936C4.54174 23.9977 3.83863 21.708 3.73682 19.2458C3.61516 16.3033 4.33692 13.5722 5.89594 11.0704C6.01519 10.879 5.9798 10.7848 5.83596 10.6417C4.09088 8.90564 2.35215 7.1632 0.610217 5.42399C0.552581 5.3665 0.478511 5.32553 0.412109 5.27684ZM20.2049 16.5094C22.0257 18.3304 23.8465 20.1515 25.6638 21.969C27.1471 18.8631 26.4505 14.4051 22.8947 11.8404C19.4388 9.34795 14.618 9.89242 11.8089 13.075C8.94854 16.3157 8.99413 21.1715 11.9055 24.2882C14.8362 27.4256 19.0283 27.4488 21.4316 26.2041C19.599 24.3721 17.7776 22.5513 15.9699 20.7442C17.3686 19.3456 18.7602 17.954 20.2049 16.5094Z" fill="#1F2338"/>
</g>
<defs>
<clipPath id="clip0_1_15380">
<rect width="36" height="36" fill="white" transform="translate(0 0.578125)"/>
</clipPath>
</defs>
</svg>
