<svg width="36" height="37" viewBox="0 0 36 37" fill="none" xmlns="http://www.w3.org/2000/svg">
<g clip-path="url(#clip0_1_15693)">
<path fill-rule="evenodd" clip-rule="evenodd" d="M34.5456 36.2765C33.804 36.2837 33.2064 35.6861 33.1992 34.9445C33.192 34.2029 33.7896 33.6053 34.5312 33.5981C35.2728 33.5909 35.8704 34.1885 35.8776 34.9301V34.9373C35.8776 35.6789 35.28 36.2765 34.5456 36.2765ZM33.84 21.8549C33.0912 21.8405 32.4936 21.2285 32.508 20.4797C32.5224 19.7309 33.1344 19.1333 33.8832 19.1477C34.632 19.1621 35.2224 19.7741 35.2152 20.5229C35.2008 21.2645 34.6032 21.8549 33.8616 21.8549H33.84ZM33.84 17.8085C33.0912 17.8085 32.4864 17.2037 32.4864 16.4549C32.4864 15.7061 33.0912 15.1013 33.84 15.1013C34.5888 15.1013 35.1936 15.7061 35.1936 16.4549V16.4621C35.1936 17.1965 34.6032 17.8013 33.8616 17.8085H33.84ZM31.1328 15.4181V17.8805H28.4328V14.8853C28.4328 14.5253 28.5768 14.1869 28.8288 13.9349L32.0112 10.7813C32.4288 10.3565 33.0624 10.2413 33.6024 10.4933C34.272 10.8101 34.5528 11.6093 34.236 12.2789C34.1712 12.4229 34.0776 12.5525 33.9696 12.6605L31.1328 15.4181ZM33.5808 26.6933C33.0408 26.9453 32.4072 26.8229 31.9896 26.4053L28.8072 23.2517C28.5552 22.9997 28.4112 22.6541 28.4112 22.3013V19.2485H31.1328V21.7109L33.948 24.5261C34.4664 25.0517 34.4664 25.9013 33.9408 26.4197C33.84 26.5205 33.732 26.5997 33.6024 26.6645L33.5808 26.6933ZM27.072 13.5965V23.3453L34.8192 31.0925C35.3592 31.6181 35.3664 32.4821 34.8408 33.0221C34.3152 33.5621 33.4512 33.5693 32.9112 33.0437L24.7464 24.8645C24.4872 24.6125 24.3432 24.2669 24.3432 23.9069V13.0277C24.3432 12.6677 24.4872 12.3221 24.7464 12.0701L29.736 7.08052C30.2616 6.54052 31.1184 6.52612 31.6656 7.05172C32.2056 7.57732 32.22 8.43412 31.6944 8.98132L27.072 13.5965ZM23.94 11.1341C23.6808 11.3933 23.3352 11.5301 22.9752 11.5301H12.1248C11.7648 11.5373 11.412 11.3933 11.16 11.1341L6.17043 6.13732C5.63043 5.61172 5.62323 4.74772 6.14883 4.21492C6.67443 3.68212 7.53843 3.66772 8.07123 4.19332L12.6864 8.81572H22.428L27.0072 4.22212C27.4248 3.79732 28.0728 3.67492 28.6128 3.93412C29.2896 4.27252 29.556 5.09332 29.2176 5.77012C29.1528 5.89972 29.0664 6.01492 28.9656 6.11572L23.94 11.1341ZM22.428 7.05172C22.176 7.31092 21.8232 7.45492 21.4632 7.45492H18.4464V4.73332H20.9232L23.7096 1.94692C24.1272 1.52212 24.768 1.39972 25.308 1.65172C25.9848 1.99012 26.2512 2.81092 25.9128 3.48772C25.848 3.61732 25.7616 3.73252 25.6608 3.83332L22.428 7.05172ZM19.5408 3.53092C18.792 3.53092 18.1872 2.92612 18.1872 2.17732C18.1872 1.42852 18.792 0.823722 19.5408 0.823722C20.2896 0.823722 20.8944 1.42852 20.8944 2.17732C20.88 2.90452 20.2968 3.48772 19.5696 3.50212L19.5408 3.53092ZM14.0472 7.45492C13.6872 7.45492 13.3344 7.31092 13.0824 7.05172L9.90003 3.86212C9.36003 3.33652 9.35283 2.47252 9.87843 1.93972C10.404 1.40692 11.268 1.39252 11.8008 1.91812L14.616 4.73332H17.0928V7.45492H14.0472ZM15.5232 3.50212C14.7744 3.50212 14.1696 2.89732 14.1696 2.14852C14.1696 1.39972 14.7816 0.794922 15.5232 0.794922C16.272 0.794922 16.8768 1.39972 16.8768 2.14852C16.8768 2.89732 16.272 3.50212 15.5232 3.50212ZM10.7352 13.0493V23.9213C10.7352 24.2813 10.5984 24.6269 10.3392 24.8861L5.35683 29.8829C4.93923 30.3077 4.29123 30.4301 3.75123 30.1709C3.08163 29.8253 2.81523 29.0045 3.15363 28.3349C3.21843 28.2053 3.30483 28.0829 3.41283 27.9821L8.02083 23.3453V13.6181L3.41283 9.01012C2.87283 8.48452 2.86563 7.62052 3.39123 7.08052C3.91683 6.54052 4.78083 6.53332 5.32083 7.05892L10.3536 12.0773C10.5984 12.3293 10.7424 12.6893 10.7352 13.0493ZM6.22803 13.9133C6.50163 14.1653 6.66003 14.5181 6.66003 14.8925V17.9165H3.93843V15.4541L1.15203 12.6677C0.61203 12.1493 0.59763 11.2925 1.11603 10.7525C1.63443 10.2125 2.49123 10.1981 3.03123 10.7165C3.03843 10.7237 3.03843 10.7237 3.04563 10.7309L6.22803 13.9133ZM1.20243 15.1085C1.95123 15.0869 2.57043 15.6773 2.59203 16.4261C2.61363 17.1749 2.02323 17.7941 1.27443 17.8157C0.52563 17.8373 -0.09357 17.2469 -0.11517 16.4981C-0.11517 16.4837 -0.11517 16.4765 -0.11517 16.4621C-0.11517 15.7205 0.48963 15.1157 1.23123 15.1085H1.20243ZM1.20243 19.1621C1.95123 19.1405 2.57043 19.7309 2.59203 20.4797C2.61363 21.2285 2.02323 21.8477 1.27443 21.8693C0.52563 21.8909 -0.09357 21.3005 -0.11517 20.5517C-0.11517 20.5445 -0.11517 20.5373 -0.11517 20.5301C-0.12237 19.7813 0.47523 19.1693 1.22403 19.1621H1.23123H1.20243ZM3.90963 21.7109V19.2485H6.66003V22.2725C6.65283 22.6325 6.49443 22.9781 6.22803 23.2229L3.07443 26.3765C2.65683 26.8013 2.02323 26.9165 1.48323 26.6645C0.81363 26.3477 0.53283 25.5485 0.85683 24.8789C0.92163 24.7349 1.01523 24.6125 1.12323 24.5045L3.90963 21.7109ZM11.16 25.5413C11.412 25.2821 11.7576 25.1381 12.1176 25.1381H22.968C23.328 25.1381 23.6808 25.2821 23.9328 25.5413L32.04 33.6629C32.58 34.1885 32.5872 35.0525 32.0616 35.5853C31.536 36.1253 30.672 36.1325 30.1392 35.6069L22.3848 27.8597H12.672L8.08563 32.4461C7.66803 32.8709 7.02723 32.9933 6.48723 32.7413C5.81043 32.4029 5.54403 31.5821 5.88243 30.9053C5.94723 30.7757 6.03363 30.6605 6.13443 30.5597L11.16 25.5413ZM13.0896 29.6237C13.3488 29.3717 13.6944 29.2349 14.0544 29.2277H17.1V31.9493H14.616L11.8656 34.7285C11.34 35.2685 10.4832 35.2829 9.94323 34.7573C9.40323 34.2317 9.38883 33.3749 9.91443 32.8349L13.0896 29.6237ZM15.5304 33.4685C16.2792 33.4613 16.884 34.0661 16.8912 34.8149C16.8984 35.5637 16.2936 36.1685 15.5448 36.1757C14.796 36.1829 14.1912 35.5781 14.184 34.8293V34.8221C14.1912 34.0805 14.7816 33.4757 15.5304 33.4685ZM21.4992 29.2421C21.8592 29.2421 22.2048 29.3861 22.464 29.6381L25.6464 32.8277C26.1864 33.3533 26.1936 34.2173 25.668 34.7573C25.1424 35.2973 24.2784 35.3045 23.7384 34.7789L20.9232 31.9637H18.4464V29.2277H21.492L21.4992 29.2421ZM19.5768 33.4685C20.3256 33.4829 20.9232 34.0949 20.9088 34.8437C20.8944 35.5925 20.2824 36.1901 19.5336 36.1757C18.792 36.1613 18.2016 35.5637 18.2016 34.8221C18.2016 34.0733 18.8064 33.4685 19.5552 33.4685C19.5624 33.4685 19.5624 33.4685 19.5768 33.4685Z" fill="#0645F7"/>
<path fill-rule="evenodd" clip-rule="evenodd" d="M31.1472 15.4181V17.8805H28.4256V14.8853C28.4256 14.5253 28.5696 14.1869 28.8216 13.9349L32.004 10.7813C32.4216 10.3565 33.0552 10.2413 33.5952 10.4933C34.2648 10.8101 34.5456 11.6093 34.2288 12.2789C34.164 12.4229 34.0704 12.5525 33.9624 12.6605L31.1472 15.4181ZM33.6024 26.6933C33.0624 26.9453 32.4288 26.8229 32.0112 26.4053L28.8288 23.2517C28.5768 22.9997 28.4328 22.6541 28.4328 22.3013V19.2485H31.1544V21.7109L33.9696 24.5261C34.488 25.0589 34.4736 25.9013 33.948 26.4197C33.8472 26.5205 33.732 26.5997 33.6096 26.6645V26.6933H33.6024ZM23.94 11.1917C23.6808 11.4509 23.3352 11.5877 22.9752 11.5877H12.1248C11.7576 11.5805 11.4048 11.4149 11.16 11.1341L6.17043 6.13732C5.63043 5.61172 5.62323 4.74772 6.14883 4.21492C6.67443 3.68212 7.53843 3.66772 8.07123 4.19332L12.6864 8.81572H22.428L27.0072 4.22212C27.4248 3.79732 28.0728 3.67492 28.6128 3.93412C29.2896 4.27252 29.556 5.09332 29.2176 5.77012C29.1528 5.89972 29.0664 6.01492 28.9656 6.11572L23.94 11.1917ZM22.428 7.05172C22.176 7.31092 21.8232 7.45492 21.4632 7.45492H18.4464V4.73332H20.9232L23.7096 1.94692C24.1272 1.52212 24.768 1.39972 25.308 1.65172C25.9848 1.99012 26.2512 2.81092 25.9128 3.48772C25.848 3.61732 25.7616 3.73252 25.6608 3.83332L22.428 7.05172ZM19.5408 3.53092C18.792 3.53092 18.1872 2.92612 18.1872 2.17732C18.1872 1.42852 18.792 0.823722 19.5408 0.823722C20.2896 0.823722 20.8944 1.42852 20.8944 2.17732C20.88 2.90452 20.2968 3.48772 19.5696 3.50212L19.5408 3.53092ZM14.0472 7.45492C13.6872 7.45492 13.3344 7.31092 13.0824 7.05172L9.90003 3.86212C9.36003 3.33652 9.35283 2.47252 9.87843 1.93972C10.404 1.40692 11.268 1.39252 11.8008 1.91812L14.616 4.73332H17.0928V7.45492H14.0472ZM15.5232 3.50212C14.7744 3.50212 14.1696 2.89732 14.1696 2.14852C14.1696 1.39972 14.7816 0.794922 15.5232 0.794922C16.272 0.794922 16.8768 1.39972 16.8768 2.14852C16.8768 2.89732 16.272 3.50212 15.5232 3.50212ZM10.7352 13.0493V23.9213C10.7352 24.2813 10.5984 24.6269 10.3392 24.8861L5.35683 29.8829C4.93923 30.3077 4.29123 30.4301 3.75123 30.1709C3.08163 29.8253 2.81523 29.0045 3.15363 28.3349C3.21843 28.2053 3.30483 28.0829 3.41283 27.9821L8.02083 23.3453V13.6181L3.41283 9.01012C2.87283 8.48452 2.86563 7.62052 3.39123 7.08052C3.91683 6.54052 4.78083 6.53332 5.32083 7.05892L10.3536 12.0773C10.5984 12.3293 10.7424 12.6893 10.7352 13.0493ZM6.22803 13.9133C6.50163 14.1653 6.66003 14.5181 6.66003 14.8925V17.9165H3.93843V15.4541L1.15203 12.6677C0.61203 12.1493 0.59763 11.2925 1.11603 10.7525C1.63443 10.2125 2.49123 10.1981 3.03123 10.7165C3.03843 10.7237 3.03843 10.7237 3.04563 10.7309L6.22803 13.9133ZM1.20243 15.1085C1.95123 15.0869 2.57043 15.6773 2.59203 16.4261C2.61363 17.1749 2.02323 17.7941 1.27443 17.8157C0.52563 17.8373 -0.09357 17.2469 -0.11517 16.4981C-0.11517 16.4837 -0.11517 16.4765 -0.11517 16.4621C-0.11517 15.7205 0.48963 15.1157 1.23123 15.1085H1.20243ZM1.20243 19.1621C1.95123 19.1405 2.57043 19.7309 2.59203 20.4797C2.61363 21.2285 2.02323 21.8477 1.27443 21.8693C0.52563 21.8909 -0.09357 21.3005 -0.11517 20.5517C-0.11517 20.5445 -0.11517 20.5373 -0.11517 20.5301C-0.12237 19.7813 0.47523 19.1693 1.22403 19.1621H1.23123H1.20243ZM3.90963 21.7109V19.2485H6.66003V22.2725C6.65283 22.6325 6.49443 22.9781 6.22803 23.2229L3.07443 26.3765C2.65683 26.8013 2.02323 26.9165 1.48323 26.6645C0.81363 26.3477 0.53283 25.5485 0.85683 24.8789C0.92163 24.7349 1.01523 24.6125 1.12323 24.5045L3.90963 21.7109ZM11.16 25.5413C11.412 25.2821 11.7576 25.1381 12.1176 25.1381H22.968C23.328 25.1381 23.6808 25.2821 23.9328 25.5413L32.04 33.6629C32.58 34.1885 32.5872 35.0525 32.0616 35.5853C31.536 36.1253 30.672 36.1325 30.1392 35.6069L22.3848 27.8597H12.672L8.08563 32.4461C7.66803 32.8709 7.02723 32.9933 6.48723 32.7413C5.81043 32.4029 5.54403 31.5821 5.88243 30.9053C5.94723 30.7757 6.03363 30.6605 6.13443 30.5597L11.16 25.5413ZM13.0896 29.6237C13.3488 29.3717 13.6944 29.2349 14.0544 29.2277H17.1V31.9493H14.616L11.8656 34.7285C11.34 35.2685 10.4832 35.2829 9.94323 34.7573C9.40323 34.2317 9.38883 33.3749 9.91443 32.8349L13.0896 29.6237ZM15.5304 33.4685C16.2792 33.4613 16.884 34.0661 16.8912 34.8149C16.8984 35.5637 16.2936 36.1685 15.5448 36.1757C14.796 36.1829 14.1912 35.5781 14.184 34.8293V34.8221C14.1912 34.0805 14.7816 33.4757 15.5304 33.4685ZM21.4992 29.2421C21.8592 29.2421 22.2048 29.3861 22.464 29.6381L25.6464 32.8277C26.1864 33.3533 26.1936 34.2173 25.668 34.7573C25.1424 35.2973 24.2784 35.3045 23.7384 34.7789L20.9232 31.9637H18.4464V29.2277H21.492L21.4992 29.2421ZM19.5768 33.4685C20.3256 33.4829 20.9232 34.0949 20.9088 34.8437C20.8944 35.5925 20.2824 36.1901 19.5336 36.1757C18.792 36.1613 18.2016 35.5637 18.2016 34.8221C18.2016 34.0733 18.8064 33.4685 19.5552 33.4685C19.5624 33.4685 19.5624 33.4685 19.5768 33.4685Z" fill="#0645F7"/>
</g>
<defs>
<clipPath id="clip0_1_15693">
<rect width="36" height="36" fill="white" transform="translate(0 0.578125)"/>
</clipPath>
</defs>
</svg>
