<svg width="36" height="37" viewBox="0 0 36 37" fill="none" xmlns="http://www.w3.org/2000/svg">
<g clip-path="url(#clip0_1_15606)">
<path d="M34.9125 19.6648C34.9125 21.3064 34.6749 22.8976 34.2429 24.3952C33.2997 27.6496 31.3989 30.4936 28.8789 32.6176C28.4757 32.956 28.0581 33.2728 27.6261 33.5752C24.8973 35.4688 21.5781 36.5776 17.9997 36.5776C13.5717 36.5776 9.54691 34.8784 6.53011 32.0992C3.23971 29.0536 1.15891 24.7264 1.08691 19.9096C1.08691 19.8304 1.08691 19.744 1.08691 19.6648C1.08691 10.3264 8.66131 2.75195 17.9997 2.75195C20.0805 2.75195 22.0749 3.12635 23.9181 3.81755C24.0909 3.88235 24.2565 3.94715 24.4221 4.01195C30.5781 6.53915 34.9125 12.5944 34.9125 19.6648Z" fill="#408AC9"/>
<path d="M27.8061 31.4008C24.1989 34.4176 19.6125 35.4832 15.3141 34.72C14.8461 34.6336 14.3853 34.5328 13.9245 34.4032C11.0229 33.604 8.33725 31.948 6.26365 29.464C3.70045 26.3968 2.54125 22.6168 2.72125 18.9088C2.72125 18.9088 2.72125 18.9088 2.72125 18.9016C2.92285 14.8552 4.71565 10.9024 8.02045 8.0584C8.07805 8.008 8.13565 7.9648 8.19325 7.9144C14.6733 2.5 24.3213 3.364 29.7357 9.844C35.1501 16.3384 34.2861 25.9864 27.8061 31.4008Z" fill="url(#paint0_linear_1_15606)"/>
<path d="M30.3331 26.6421C30.3331 29.0901 29.5771 31.1925 28.8787 32.6181C25.9411 35.0877 22.1467 36.5781 18.0067 36.5781C13.5787 36.5781 9.55391 34.8789 6.53711 32.0925C8.40191 33.6405 10.7491 34.7061 13.6939 34.7061C16.7467 34.7061 18.8635 33.9357 20.3251 32.8269C24.0691 29.9829 23.5147 24.9213 23.5147 24.9213C22.9747 25.5837 22.2547 26.0733 21.5563 26.3973C21.7867 25.9653 21.9955 25.4757 22.0027 24.9645C21.6499 25.3317 21.2611 25.5837 20.8939 25.7349L21.3187 24.3237L21.2107 23.7477C21.2683 22.9557 21.1171 22.1925 20.7787 21.4797L20.6923 21.0333L20.1235 20.4573C19.9219 20.2053 19.6915 19.9677 19.4323 19.7373L19.4251 19.7301C19.4035 19.7085 19.3747 19.6869 19.3531 19.6653C19.3675 19.6797 19.3891 19.7013 19.4179 19.7373L19.3243 19.6437C19.3243 19.6437 17.1283 18.2541 14.0899 18.2541C11.0515 18.2541 10.4611 18.9453 10.4611 19.6437C10.4611 20.3493 11.0587 20.7021 11.0587 20.7021C9.20831 20.6157 7.71791 19.9389 6.70991 18.4989L6.73151 18.4773C10.0939 16.1013 14.0611 15.4749 18.6259 16.5837C18.8563 16.6413 19.0867 16.6989 19.3171 16.7637C19.0363 16.2309 18.6403 15.7557 18.1795 15.3525C17.6755 14.9061 17.0995 14.5389 16.4875 14.2581C16.4875 14.2581 17.5891 14.2149 18.0355 14.2365C18.4747 14.2581 21.7723 14.1933 25.1491 16.5333C28.5187 18.8661 30.3331 22.4877 30.3331 26.6421Z" fill="#262F72"/>
<path d="M19.4687 18.0531C14.5655 16.0587 10.3967 16.4907 6.70312 18.4923V18.4851C10.0727 16.1019 14.0471 15.4611 18.6191 16.5771C19.0079 17.1243 19.3175 17.6211 19.4687 18.0531Z" fill="#161E41"/>
<path d="M29.1745 14.4165C27.4681 13.1853 25.4521 12.3789 23.3209 12.0981C25.4593 12.1269 27.5185 12.5661 29.5273 13.6461C29.4337 13.2861 29.2393 12.9549 28.9945 12.6381C30.6145 13.3005 32.1625 14.3445 33.6529 15.6333C30.5281 11.9397 25.6321 9.53493 21.9097 9.49173C20.7433 10.4349 19.5121 11.0757 18.2233 11.4645C18.8929 10.8597 19.3537 10.0821 19.6129 9.11733C21.5281 8.37573 23.1049 7.08693 24.3865 5.29413C23.9833 5.45253 23.6017 5.55333 23.2417 5.60373C23.6953 5.07813 24.0841 4.54533 24.4153 4.01253C25.1281 2.88933 25.5889 1.73733 25.9129 0.578125C25.3801 1.75172 24.7177 2.83173 23.9257 3.81813C22.8025 5.21493 21.4129 6.41733 19.7713 7.43973C19.7353 6.59013 19.4977 5.89893 19.0657 5.36613C19.0657 5.36613 18.6193 6.48213 16.8913 7.53333C15.6457 8.28933 14.6089 8.67093 13.5289 9.05973C12.9745 9.26133 12.0385 9.94532 12.0385 11.1189C12.0385 12.2925 13.4065 12.4005 13.4065 12.4005C13.4065 12.4005 13.0537 12.5805 12.6793 12.5805C12.3049 12.5805 11.9089 12.2565 11.9089 12.2565C11.9089 12.2565 10.4977 13.9701 8.93531 13.9701C7.84091 13.9701 8.29451 12.3429 8.29451 12.3429C5.52251 14.3517 5.14811 16.6485 5.81771 19.1757C6.10571 18.9381 6.40091 18.7149 6.70331 18.4989C6.71051 18.4917 6.71771 18.4917 6.72491 18.4845C10.0873 16.1085 14.0545 15.4821 18.6193 16.5909C18.8497 16.6485 19.0801 16.7061 19.3105 16.7709C19.0297 16.2381 18.6337 15.7629 18.1729 15.3597C17.6689 14.9133 17.0929 14.5461 16.4809 14.2653C16.4809 14.2653 17.5825 14.2221 18.0289 14.2437C18.4681 14.2653 21.7657 14.2005 25.1425 16.5405C28.5265 18.8805 30.3337 22.5093 30.3337 26.6637C30.3337 29.1117 29.5777 31.2141 28.8793 32.6397C31.4065 30.5157 33.3001 27.6717 34.2433 24.4173V24.2805C34.1857 20.0109 32.1553 16.5621 29.1745 14.4165ZM8.48891 15.6549C8.48171 15.6549 8.48171 15.6621 8.48891 15.6549C8.46731 15.6909 8.46011 15.7125 8.46011 15.7125C8.46011 15.7125 8.42411 15.3453 8.02811 15.3453C7.63931 15.3453 6.96971 16.1517 6.94091 16.1877C6.94091 16.1877 7.26491 14.4957 8.22971 14.4957C9.05771 14.4957 8.61851 15.4101 8.48891 15.6549ZM13.7881 11.7237C13.7881 11.7237 13.5433 11.0397 14.5441 10.4277C15.3577 9.92373 16.0129 9.76533 16.5601 9.58533C16.6825 9.54932 16.7977 9.50613 16.9057 9.46293C17.5177 9.21813 17.9137 8.81493 17.9137 8.81493C17.4241 10.6797 16.2577 11.8677 13.7881 11.7237Z" fill="white"/>
<path d="M20.3181 32.827C18.8565 33.9358 16.7469 34.7062 13.6869 34.7062C10.7421 34.7062 8.39491 33.6478 6.53011 32.0926C3.23971 29.0542 1.15891 24.727 1.08691 19.9102C2.43331 22.9342 5.72371 28.3054 12.0597 28.291C18.2733 28.2838 20.7069 23.9134 20.2317 21.4726C20.2029 21.3358 20.1669 21.2062 20.1237 21.0838C20.1093 21.0406 20.0949 20.9974 20.0733 20.9614C19.7565 20.2126 19.5261 19.8742 19.4037 19.7302C19.3749 19.7014 19.3533 19.6726 19.3389 19.6582C19.3605 19.6798 19.3893 19.7014 19.4109 19.723L19.4181 19.7302C19.6701 19.9606 19.9005 20.1982 20.1093 20.4502C20.3757 20.7742 20.5917 21.1198 20.7645 21.4798C21.1029 22.1926 21.2541 22.9558 21.1965 23.7478C21.1461 24.4318 20.9445 25.1374 20.5773 25.8358C20.6781 25.807 20.7789 25.771 20.8869 25.7278C21.2613 25.5766 21.6429 25.3246 21.9957 24.9574C21.9885 25.4686 21.7797 25.951 21.5493 26.3902C22.2477 26.0734 22.9677 25.5766 23.5077 24.9142C23.5077 24.9214 24.0621 29.983 20.3181 32.827Z" fill="#161E41"/>
<path d="M30.3333 26.6428C30.3333 29.0908 29.5773 31.1932 28.8789 32.6188C28.4757 32.9572 28.8645 32.6548 28.8789 32.6188C29.3037 31.6828 29.8797 29.278 29.7285 27.2692C29.4981 24.2164 29.2029 21.5236 25.5093 18.3052C22.4349 15.634 19.4541 15.3892 18.1725 15.3388C17.6685 14.8924 17.0925 14.5252 16.4805 14.2444C16.4805 14.2444 17.5821 14.2012 18.0285 14.2228C18.4677 14.2444 21.7653 14.1796 25.1421 16.5196C28.5189 18.8668 30.3333 22.4884 30.3333 26.6428Z" fill="#161E41"/>
<path d="M17.9137 8.81445C17.4241 10.6793 16.2577 11.8673 13.7881 11.7233C13.7881 11.7233 15.3289 11.5073 16.0057 10.6145C16.3225 10.1897 16.4809 9.83685 16.5601 9.58485C16.6825 9.54885 16.7977 9.50565 16.9057 9.46245C17.5177 9.21765 17.9137 8.81445 17.9137 8.81445Z" fill="#161E41"/>
<path d="M8.48843 15.6553C8.52443 15.5761 8.85563 14.7985 8.18603 14.7985C7.48763 14.7985 6.95483 16.1449 6.94043 16.1881C6.94043 16.1881 7.26443 14.4961 8.22923 14.4961C9.05723 14.4961 8.61803 15.4105 8.48843 15.6553Z" fill="#161E41"/>
<path d="M25.8621 2.16281C25.7469 3.21401 25.6965 3.84761 24.7821 5.97881C23.8677 8.11001 21.9237 9.49961 21.9237 9.49961C20.7573 10.4428 19.5261 11.0836 18.2373 11.4724C18.9069 10.8676 19.3677 10.09 19.6269 9.12521C21.5421 8.38361 23.1189 7.09481 24.4005 5.30201C23.9973 5.46041 23.6157 5.56121 23.2557 5.61161C24.6597 3.98441 25.4445 2.29961 25.9197 0.58601C25.9125 0.57881 25.9773 1.11161 25.8621 2.16281Z" fill="#161E41"/>
<path d="M33.6595 15.6329C33.6163 15.6041 32.9107 15.1865 31.4707 14.7833C30.4051 14.4881 29.5627 14.4233 29.1739 14.4161C27.4675 13.1849 25.4515 12.3785 23.3203 12.0977C25.4587 12.1265 27.5179 12.5657 29.5267 13.6457C29.4331 13.2857 29.2387 12.9545 28.9939 12.6377C30.6211 13.3001 32.1619 14.3441 33.6595 15.6329Z" fill="#161E41"/>
<path d="M22.003 24.9582C21.5494 25.4262 21.0454 25.7142 20.5846 25.8366C21.7582 23.5974 21.2614 21.3654 19.4326 19.731L19.4254 19.7238C19.4038 19.7022 19.375 19.6806 19.3534 19.659C19.3462 19.6518 19.3462 19.6518 19.339 19.6446C19.3318 19.6446 19.3318 19.6374 19.3246 19.6302C19.3246 19.6302 19.3174 19.6302 19.3174 19.623C19.339 19.6374 19.6702 19.7742 19.8862 19.9038C20.1094 20.0334 21.3766 20.8542 21.7942 22.287C22.2118 23.727 22.003 24.9582 22.003 24.9582Z" fill="#0F1F65"/>
<path d="M24.9768 25.649C24.9768 26.909 24.8688 28.313 23.2776 30.3434C22.1256 31.8194 20.9016 32.5394 20.3184 32.8274C24.0624 29.9834 23.508 24.9218 23.508 24.9218C23.508 24.9218 23.9328 24.4826 24.0912 24.0218C24.2496 23.561 24.3504 23.1074 24.3504 23.1074C24.3504 23.1074 24.9768 24.389 24.9768 25.649Z" fill="#0F1F65"/>
</g>
<defs>
<linearGradient id="paint0_linear_1_15606" x1="8.19446" y1="7.92611" x2="27.8048" y2="31.3997" gradientUnits="userSpaceOnUse">
<stop stop-color="#89ACDA"/>
<stop offset="0.1911" stop-color="#87AADA" stop-opacity="0"/>
</linearGradient>
<clipPath id="clip0_1_15606">
<rect width="36" height="36" fill="white" transform="translate(0 0.578125)"/>
</clipPath>
</defs>
</svg>
