<svg width="36" height="37" viewBox="0 0 36 37" fill="none" xmlns="http://www.w3.org/2000/svg">
<path d="M35.4528 11.8957L22.6872 4.55168C22.4136 4.39328 22.0608 4.48688 21.9024 4.76048C21.8088 4.91888 21.8016 5.11328 21.8736 5.28608L27.1152 16.9717C27.2448 17.2597 27.5832 17.3893 27.8712 17.2597C27.8856 17.2525 27.9072 17.2453 27.9216 17.2309L35.4528 12.8893C35.7264 12.7309 35.82 12.3781 35.6616 12.1045C35.6112 12.0181 35.5392 11.9461 35.4528 11.8957Z" fill="#384051"/>
<path d="M8.89239 16.9651L14.1268 5.27945C14.2564 4.99145 14.1268 4.65305 13.8388 4.51625C13.6732 4.43705 13.4716 4.45145 13.3132 4.54505L0.547594 11.8963C0.273994 12.0619 0.180394 12.4147 0.338794 12.6883C0.389194 12.7747 0.461194 12.8467 0.547594 12.8971L8.08599 17.2315C8.35959 17.3899 8.71239 17.2963 8.87079 17.0227C8.87799 17.0011 8.88519 16.9867 8.89239 16.9651Z" fill="#384051"/>
<path d="M17.5178 32.59L11.3474 18.8164C11.2826 18.6724 11.2826 18.4996 11.3474 18.3556L17.5178 4.57476C17.6474 4.28676 17.9858 4.14996 18.2738 4.27956C18.4034 4.33716 18.5114 4.44516 18.569 4.57476L24.653 18.3916C24.7178 18.5356 24.7178 18.7084 24.653 18.8524L18.569 32.5828C18.4394 32.8708 18.101 33.0076 17.8058 32.878C17.6762 32.8204 17.5754 32.7196 17.5178 32.59Z" fill="#384051"/>
</svg>
