<svg width="36" height="37" viewBox="0 0 36 37" fill="none" xmlns="http://www.w3.org/2000/svg">
<g clip-path="url(#clip0_1_15378)">
<path d="M18 35.2109C27.5037 35.2109 35.208 27.5066 35.208 18.0029C35.208 8.49921 27.5037 0.794922 18 0.794922C8.49628 0.794922 0.791992 8.49921 0.791992 18.0029C0.791992 27.5066 8.49628 35.2109 18 35.2109Z" fill="url(#paint0_radial_1_15378)"/>
<path d="M23.7527 17.9813C24.9623 18.4637 25.4951 19.4069 25.4591 20.7245C25.4375 21.5093 25.4519 22.3013 25.4519 23.1365C25.0271 23.1365 24.6455 23.1365 24.2711 23.1365C23.3711 23.1365 22.4711 23.1293 21.5711 23.1437C21.3191 23.1437 21.2327 23.0573 21.2399 22.8125C21.2543 22.1285 21.2471 21.4445 21.2471 20.7605C21.2471 20.0189 20.9303 19.6877 20.1743 19.6805C19.0943 19.6661 18.0143 19.6805 16.9343 19.6805C16.3799 19.6805 15.8327 19.6805 15.2423 19.6805C15.2351 19.8245 15.2207 19.9469 15.2207 20.0765C15.2207 20.9909 15.2207 21.8981 15.2207 22.8125C15.2207 22.9853 15.2351 23.1509 14.9687 23.1437C13.6943 23.1365 12.4271 23.1365 11.1527 23.1365C11.1167 23.1365 11.0879 23.1149 11.0303 23.1005C11.0303 19.7093 11.0303 16.3181 11.0303 12.8909C11.1455 12.8837 11.2607 12.8765 11.3759 12.8765C14.7239 12.8765 18.0719 12.8549 21.4199 12.8981C22.1615 12.9053 22.9319 13.0349 23.6375 13.2653C25.4231 13.8557 25.9271 16.2821 24.5519 17.4989C24.3071 17.7005 24.0047 17.8301 23.7527 17.9813ZM15.2279 16.8149C15.3647 16.8221 15.4727 16.8365 15.5807 16.8365C17.1431 16.8365 18.6983 16.8365 20.2607 16.8365C20.8007 16.8365 21.0167 16.6997 21.0167 16.3829C21.0167 16.0661 20.7863 15.9221 20.2607 15.9221C18.6983 15.9221 17.1431 15.9221 15.5807 15.9221C15.4655 15.9221 15.3503 15.9293 15.2279 15.9365C15.2279 16.2461 15.2279 16.5125 15.2279 16.8149Z" fill="white"/>
</g>
<defs>
<radialGradient id="paint0_radial_1_15378" cx="0" cy="0" r="1" gradientUnits="userSpaceOnUse" gradientTransform="translate(9.14983 9.91644) scale(26.878)">
<stop offset="0.1678" stop-color="#2B6FFE"/>
<stop offset="0.5059" stop-color="#5899FF"/>
<stop offset="0.8038" stop-color="#FF74F1"/>
</radialGradient>
<clipPath id="clip0_1_15378">
<rect width="36" height="36" fill="white" transform="translate(0 0.578125)"/>
</clipPath>
</defs>
</svg>
