<svg width="36" height="37" viewBox="0 0 36 37" fill="none" xmlns="http://www.w3.org/2000/svg">
<g clip-path="url(#clip0_1_15428)">
<path d="M31.594 14.0781V26.6205L17.6404 34.6845L3.67957 26.6277V10.5069L17.6404 2.44293L28.3684 8.63493L29.9884 7.69893L17.6404 0.578125L2.05957 9.57813V27.5637L17.6404 36.5637L33.2212 27.5637V13.1493L31.594 14.0781Z" fill="url(#paint0_linear_1_15428)"/>
<path d="M13.7375 26.6352H11.4047V18.8088H19.1879C19.9223 18.8016 20.6279 18.5064 21.1463 17.9808C21.6647 17.4552 21.9599 16.7496 21.9599 16.0152C21.9671 15.648 21.8951 15.288 21.7511 14.9568C21.6071 14.6184 21.4055 14.316 21.1391 14.064C20.8871 13.8048 20.5847 13.596 20.2463 13.4592C19.9079 13.3152 19.5479 13.2504 19.1879 13.2504H11.3975V10.8672H19.1879C20.5487 10.8744 21.8591 11.4216 22.8239 12.3864C23.7887 13.3512 24.3359 14.6544 24.3431 16.0224C24.3503 17.0664 24.0335 18.0888 23.4359 18.9384C22.8815 19.752 22.1039 20.3928 21.1967 20.7744C20.2967 21.0624 19.3535 21.1992 18.4103 21.192H13.7375V26.6352Z" fill="url(#paint1_linear_1_15428)"/>
<path d="M24.2859 26.4409H21.5643L19.4619 22.7761C20.2899 22.7257 21.1107 22.5601 21.8955 22.2793L24.2859 26.4409Z" fill="url(#paint2_linear_1_15428)"/>
<path d="M29.9668 11.4722L31.5796 12.365L33.1924 11.4722V9.57858L31.5796 8.64258L29.9668 9.57858V11.4722Z" fill="url(#paint3_linear_1_15428)"/>
</g>
<defs>
<linearGradient id="paint0_linear_1_15428" x1="34.1477" y1="11.9673" x2="1.10694" y2="25.1802" gradientUnits="userSpaceOnUse">
<stop stop-color="#C200FB"/>
<stop offset="0.4897" stop-color="#3772FF"/>
<stop offset="0.4898" stop-color="#3773FE"/>
<stop offset="1" stop-color="#5AC4BE"/>
</linearGradient>
<linearGradient id="paint1_linear_1_15428" x1="33.5094" y1="10.3725" x2="0.468545" y2="23.5854" gradientUnits="userSpaceOnUse">
<stop stop-color="#C200FB"/>
<stop offset="0.4897" stop-color="#3772FF"/>
<stop offset="0.4898" stop-color="#3773FE"/>
<stop offset="1" stop-color="#5AC4BE"/>
</linearGradient>
<linearGradient id="paint2_linear_1_15428" x1="36.8136" y1="18.6342" x2="3.77281" y2="31.8471" gradientUnits="userSpaceOnUse">
<stop stop-color="#C200FB"/>
<stop offset="0.4897" stop-color="#3772FF"/>
<stop offset="0.4898" stop-color="#3773FE"/>
<stop offset="1" stop-color="#5AC4BE"/>
</linearGradient>
<linearGradient id="paint3_linear_1_15428" x1="33.2888" y1="9.82636" x2="0.247962" y2="23.0393" gradientUnits="userSpaceOnUse">
<stop stop-color="#C200FB"/>
<stop offset="0.4897" stop-color="#3772FF"/>
<stop offset="0.4898" stop-color="#3773FE"/>
<stop offset="1" stop-color="#5AC4BE"/>
</linearGradient>
<clipPath id="clip0_1_15428">
<rect width="36" height="36" fill="white" transform="translate(0 0.578125)"/>
</clipPath>
</defs>
</svg>
