<svg width="36" height="37" viewBox="0 0 36 37" fill="none" xmlns="http://www.w3.org/2000/svg">
<path d="M3.45274 23.8548C3.07085 24.5502 2.77817 25.0752 2.4929 25.6042C1.99942 26.5196 1.44962 26.5824 0.672453 25.8109C0.492597 25.3355 0.655249 24.9146 0.888097 24.5178C1.49657 23.4805 2.11778 22.4507 2.79602 21.3138C2.12786 16.9994 3.06091 12.9363 5.78669 9.34296C7.95792 6.48067 10.8374 4.62213 14.312 3.75993C21.2958 2.02689 29.3433 5.36849 32.5336 13.4673C32.9879 12.9062 33.2391 12.2837 33.5625 11.7061C33.9141 11.0782 34.3894 10.9355 34.9849 11.2786C35.111 11.3513 35.2083 11.4741 35.2839 11.5422C35.5065 12.0572 35.3486 12.4764 35.1271 12.8813C34.8384 13.4093 34.5553 13.9415 34.2392 14.453C33.9229 14.9649 33.5689 15.4534 33.1876 16.0169C33.865 20.4589 32.9267 24.5764 30.121 28.2004C27.9625 30.9886 25.1333 32.812 21.7212 33.6577C17.9185 34.6003 14.247 34.1447 10.7771 32.3087C7.30474 30.4714 4.93046 27.6446 3.45274 23.8548ZM31.0554 15.5345C29.6584 9.34944 23.2645 3.93022 15.2873 5.52538C7.68482 7.04558 4.00692 14.257 4.6511 19.2906C4.88496 19.109 5.10096 18.9625 5.29255 18.7891C7.25923 17.009 9.50311 15.6842 11.9721 14.7368C14.5111 13.7625 17.1305 13.124 19.8465 12.9006C20.5458 12.8431 21.2429 12.7589 22.0509 12.6757C21.3141 11.9387 20.6554 11.28 19.9968 10.6213C19.3433 9.9677 18.6898 9.31402 18.0202 8.64435C18.4877 8.12134 18.908 7.66889 19.3802 7.28549C20.7604 8.44944 25.4125 13.1855 25.6498 13.5928C23.7698 15.473 21.9229 17.3199 20.1159 19.127C19.7671 18.7842 19.3453 18.3696 18.88 17.9121C19.9005 16.8899 20.9266 15.8621 22.0687 14.7181C21.6132 14.7181 21.3432 14.6898 21.0811 14.7229C19.6806 14.8996 18.2682 15.0213 16.8856 15.2923C13.5384 15.9485 10.4278 17.1984 7.68972 19.2703C6.66113 20.0487 5.66407 20.8749 4.94472 21.9278C6.33468 28.0843 12.7285 33.5059 20.7062 31.9096C28.348 30.3806 31.9879 23.1323 31.3424 18.1445C31.1087 18.3263 30.8928 18.4731 30.7009 18.6464C28.7333 20.425 26.4905 21.7516 24.0211 22.6987C21.4819 23.6725 18.8622 24.3108 16.1462 24.5346C15.4473 24.5922 14.7505 24.6757 13.9423 24.7587C15.3336 26.1504 16.6455 27.4628 17.9736 28.7913C17.5051 29.3143 17.085 29.7669 16.6133 30.1503C15.2018 28.9575 10.5818 24.2525 10.2366 23.6563C12.078 21.8149 13.9248 19.9681 15.6731 18.2198C16.1945 18.6847 16.6366 19.0789 17.1236 19.5132C16.0928 20.5457 15.0669 21.5733 13.9323 22.7098C15.4737 22.7655 16.8091 22.5711 18.1383 22.3377C21.123 21.8139 23.971 20.9 26.5805 19.3218C28.2668 18.302 29.8042 17.1085 31.0554 15.5345Z" fill="#415CF5"/>
</svg>
