<svg width="36" height="37" viewBox="0 0 36 37" fill="none" xmlns="http://www.w3.org/2000/svg">
<g clip-path="url(#clip0_1_15705)">
<path d="M14.94 31.8917L12.6792 27.1973L8.63281 33.5765C8.98561 33.7925 9.34561 34.0013 9.71281 34.1957C10.1736 34.4405 10.6488 34.6637 11.1312 34.8653C12.6792 35.5061 14.3064 35.9309 15.9696 36.1109C16.3152 36.1469 16.668 36.1757 17.0136 36.1973L14.94 31.8917Z" fill="#7CC245"/>
<path d="M35.0716 13.7186C34.9564 13.3154 34.834 12.9194 34.69 12.5234L22.2052 23.5538L20.4844 25.073L20.6284 26.477L21.5716 35.8514C22.1908 35.7218 22.7956 35.5634 23.4004 35.369C30.55 33.0722 35.7268 26.369 35.7268 18.4562C35.7196 16.8218 35.4892 15.2306 35.0716 13.7186Z" fill="#FCCB32"/>
<path d="M10.5195 27.9379L13.2771 33.6619L22.8459 25.2091L21.1107 8.03711L10.5195 27.9379Z" fill="#EE3F26"/>
<path d="M11.7286 27.3045L20.851 10.1685L20.9158 10.8237L21.895 8.98767V8.98047L4.71582 14.3661L11.5126 28.4925L11.923 27.7149L11.7286 27.3045Z" fill="#CF3627"/>
<path d="M14.1045 32.2368L15.9693 36.1104C16.6245 36.1824 17.2869 36.2256 17.9637 36.2256C19.8573 36.2256 21.6861 35.9232 23.3997 35.376L22.3485 24.9648L14.1045 32.2368Z" fill="#F05048"/>
<path d="M22.3418 24.9573L23.393 35.3685C30.5426 33.0717 35.7194 26.3685 35.7194 18.4557C35.7194 16.8141 35.489 15.2229 35.0714 13.7109L22.3418 24.9573Z" fill="#FCCB32"/>
<path d="M19.9079 0.815031C19.2599 0.743031 18.6119 0.707031 17.9639 0.707031C11.6279 0.707031 6.06954 4.02623 2.93034 9.01583C2.13114 10.2902 1.49755 11.651 1.04395 13.0838L5.75994 14.8982L20.8583 10.1678H20.8655L22.4855 1.29743C21.6287 1.06703 20.7719 0.908631 19.9079 0.815031Z" fill="#2591D4"/>
<path d="M31.3924 6.85662C29.6644 4.85502 27.5116 3.26382 25.0924 2.19822C24.2428 1.82382 23.3716 1.52142 22.4788 1.29102L20.8588 10.1614L20.8516 10.1686L22.342 24.9574L35.0716 13.7182C34.3732 11.1838 33.1132 8.84381 31.3924 6.85662Z" fill="#F47F22"/>
<path d="M11.7287 27.3053L5.75273 14.8925L1.03674 13.0781C0.482341 14.8205 0.194336 16.6349 0.194336 18.4565C0.194336 24.7637 3.48474 30.3077 8.44554 33.4541C8.85594 33.7133 9.27354 33.9581 9.70554 34.1813L12.7367 29.4077L11.7287 27.3053Z" fill="#4CAA4C"/>
<path d="M14.1049 32.2365L12.7441 29.4141L9.71289 34.1877C10.1737 34.4325 10.6489 34.6557 11.1313 34.8573C12.6793 35.4981 14.3065 35.9229 15.9697 36.1029L14.1049 32.2365Z" fill="#7CC245"/>
<path d="M31.3924 6.85567C29.6644 4.85407 27.5116 3.26287 25.0924 2.19727L20.8516 10.1605L31.3924 6.85567ZM20.8516 10.1677L22.342 24.9565L35.0716 13.7173C34.366 11.1829 33.1132 8.84287 31.3924 6.85567L20.8516 10.1605V10.1677Z" fill="#F47F22"/>
<path d="M11.7285 27.304L14.1045 32.236L22.3485 24.9568L20.8581 10.168L11.7285 27.304Z" fill="#EE3F26"/>
<path d="M20.8509 10.1606L19.9077 0.815031C19.2597 0.743031 18.6116 0.707031 17.9564 0.707031C11.6204 0.707031 6.06205 4.02623 2.92285 9.01583L5.75245 14.8982L20.8509 10.1606Z" fill="#1E85CA"/>
<path d="M20.8513 10.1621L5.75293 14.8925L11.7289 27.3053L20.8513 10.1693V10.1621Z" fill="#CF3627"/>
<path d="M20.8582 10.1614L25.099 2.19819C23.4502 1.47099 21.7006 1.00299 19.915 0.808594L20.8582 10.1614Z" fill="#35A9E1"/>
<path d="M14.1045 32.2368L15.9693 36.1104C16.6245 36.1824 17.2869 36.2256 17.9637 36.2256C19.8573 36.2256 21.6861 35.9232 23.3997 35.376L22.3485 24.9648L14.1045 32.2368Z" fill="#F05048"/>
<path d="M22.3418 24.9573L23.393 35.3685C30.5426 33.0717 35.7194 26.3685 35.7194 18.4557C35.7194 16.8141 35.489 15.2229 35.0714 13.7109L22.3418 24.9573Z" fill="#FCCB32"/>
<path d="M11.1309 34.8643C12.6789 35.5051 14.3061 35.9299 15.9693 36.1099L14.1044 32.2363L11.1309 34.8643Z" fill="#7CC245"/>
<path d="M2.92292 9.01562C1.47572 11.3124 0.575722 13.9116 0.294922 16.6044L5.75252 14.8908L2.92292 9.01562Z" fill="#0161AD"/>
<path d="M5.75236 14.8926L0.294767 16.6062C0.229967 17.2254 0.201172 17.8446 0.201172 18.4638C0.201172 24.771 3.49156 30.315 8.45236 33.4614L11.7284 27.3054L5.75236 14.8926Z" fill="#4CAA4C"/>
<path d="M11.7291 27.3047L8.45312 33.4607C9.30272 34.0007 10.2027 34.4687 11.1315 34.8575L14.1051 32.2367L11.7291 27.3047Z" fill="#51B34B"/>
<path d="M21.2256 4.60938L20.8008 5.85498C24.5016 7.85658 28.0872 11.4206 30.0312 14.531L31.3056 14.1494C29.2248 10.751 25.2864 6.80538 21.2256 4.60938Z" fill="#444344"/>
<path d="M27.3958 1.72266C25.0126 1.72266 22.939 3.02586 21.8446 4.95546C21.7006 5.20746 21.571 5.46666 21.463 5.74026C21.4342 5.81226 21.4126 5.88426 21.391 5.95626C21.3694 6.02106 21.3406 6.08586 21.3262 6.15066C24.6598 8.08746 27.835 11.2267 29.7358 14.0635C29.7646 14.0491 29.7934 14.0419 29.8222 14.0347C30.031 13.9483 30.2398 13.8475 30.4342 13.7395C30.5854 13.6531 30.7366 13.5667 30.8806 13.4731C32.6302 12.3355 33.7966 10.3627 33.7966 8.11626C33.7894 4.58826 30.931 1.72266 27.3958 1.72266Z" fill="#EE3F26"/>
<path d="M21.3841 5.95703C21.3625 6.02183 21.3337 6.08663 21.3193 6.15143C24.6529 8.08823 27.8281 11.2274 29.7289 14.0642C29.7577 14.0498 29.7865 14.0426 29.8153 14.0354C30.0241 13.949 30.2329 13.8482 30.4273 13.7402C28.4113 10.9106 24.9481 7.77863 21.3841 5.95703Z" fill="#C03225"/>
</g>
<defs>
<clipPath id="clip0_1_15705">
<rect width="36" height="36" fill="white" transform="translate(0 0.578125)"/>
</clipPath>
</defs>
</svg>
