<svg width="36" height="37" viewBox="0 0 36 37" fill="none" xmlns="http://www.w3.org/2000/svg">
<path d="M29.6222 20.3496C27.2936 20.3496 24.9548 20.3496 22.5867 20.3496C22.5245 19.4425 22.5211 18.5956 22.4 17.7659C21.8194 13.7879 19.8984 10.5002 17.1057 7.68023C14.505 5.0541 11.4126 3.15237 8.08492 1.60192C7.87223 1.50285 7.66761 1.38657 7.49121 1.1543C12.0887 1.1543 16.6861 1.1543 21.3141 1.1543C26.1831 4.71074 30.8619 15.4571 29.6222 20.3496ZM12.2848 14.3738C12.2848 21.5292 12.2848 28.67 12.2848 35.9631C15.3227 34.0196 18.2466 32.149 21.2094 30.2537C19.9758 27.5879 12.7993 14.8252 12.2848 14.3738Z" fill="black"/>
</svg>
