<svg width="36" height="37" viewBox="0 0 36 37" fill="none" xmlns="http://www.w3.org/2000/svg">
<g clip-path="url(#clip0_1_15810)">
<path fill-rule="evenodd" clip-rule="evenodd" d="M7.12124 8.18086L9.72764 6.66886L10.0732 7.27366L19.6708 1.68646L18.9652 1.27606L18.2596 0.865663L17.914 0.664062L2.29004 9.77926V10.1897L6.77564 7.56886L7.12124 8.18086Z" fill="#070707"/>
<path fill-rule="evenodd" clip-rule="evenodd" d="M7.12124 13.9195L14.6452 9.53471L14.9908 10.1467L24.5884 4.55951L23.8828 4.14191L23.1772 3.73151L22.8316 3.53711L2.29004 15.5179V15.9283L6.77564 13.3003L7.12124 13.9195Z" fill="#070707"/>
<path fill-rule="evenodd" clip-rule="evenodd" d="M7.12124 16.7925L17.1004 10.9749L17.4532 11.5797L27.0436 5.98529L26.338 5.58209L25.6396 5.17169L25.2868 4.96289L2.29004 18.3837V18.7941L6.77564 16.1805L7.12124 16.7925Z" fill="#070707"/>
<path fill-rule="evenodd" clip-rule="evenodd" d="M7.12124 19.6589L19.6276 12.3653L19.9804 12.9773L29.4988 7.42608L28.8004 7.00848L28.0948 6.60528L27.7492 6.39648L2.29004 21.2573V21.6605L6.77564 19.0397L7.12124 19.6589Z" fill="#070707"/>
<path fill-rule="evenodd" clip-rule="evenodd" d="M7.12124 22.5233L22.09 13.7969L22.4356 14.4161L31.9612 8.85053L31.2556 8.44733L30.5572 8.03693L30.2044 7.82812L2.29004 24.1217V24.5249L6.77564 21.9113L7.12124 22.5233Z" fill="#070707"/>
<path fill-rule="evenodd" clip-rule="evenodd" d="M33.0124 9.47052L32.6596 9.26172L2.29004 26.9953V27.3985L6.77564 24.7849L7.12124 25.3969L22.09 16.6705L22.4356 17.2825L33.538 10.8097V9.98892V9.78012L33.0124 9.47052Z" fill="#070707"/>
<path fill-rule="evenodd" clip-rule="evenodd" d="M4.21181 29.1406L6.72461 27.6718L7.07741 28.2838L22.0174 19.5718L22.363 20.191L33.5374 13.6678V12.847V12.0262V11.623L3.86621 28.939L4.21181 29.1406Z" fill="#070707"/>
<path fill-rule="evenodd" clip-rule="evenodd" d="M22.0173 22.4449L22.3629 23.0641L33.5373 16.5481V15.7201V14.8993V14.4961L6.32129 30.3721L6.67409 30.5737L9.23009 29.0833L9.58289 29.6953" fill="#070707"/>
<path fill-rule="evenodd" clip-rule="evenodd" d="M9.13637 32.0133L11.6924 30.5157L12.038 31.1349L22.0172 25.3101L22.3628 25.9293L33.5372 19.4061V18.5853V17.7717V17.3613L8.77637 31.7973L9.13637 32.0133Z" fill="#070707"/>
<path fill-rule="evenodd" clip-rule="evenodd" d="M11.5921 33.4458L14.1481 31.9554L14.5009 32.5674L22.0177 28.1826L22.3633 28.7946L33.5377 22.2714V21.4578V20.637V20.2266L11.2393 33.237L11.5921 33.4458Z" fill="#070707"/>
<path fill-rule="evenodd" clip-rule="evenodd" d="M13.7012 34.6694L14.0468 34.8782L16.61 33.3806L16.9556 33.9998L22.0172 31.0478L22.3628 31.6598L33.5372 25.1438V24.323V23.5022V23.0918L13.7012 34.6694Z" fill="#070707"/>
<path fill-rule="evenodd" clip-rule="evenodd" d="M16.51 36.3184L19.066 34.8136L19.4116 35.4328L22.018 33.9136L22.3636 34.5328L33.538 28.0168V27.196V26.3752V25.9648L16.1572 36.1096L16.51 36.3184Z" fill="#070707"/>
<path fill-rule="evenodd" clip-rule="evenodd" d="M22.126 3.12006L21.4204 2.70966L20.722 2.30646L20.3692 2.09766L2.29004 12.6457V13.0561L6.77564 10.4425L7.12124 11.0473L12.1828 8.10246L12.5428 8.71446L22.126 3.12006Z" fill="#070707"/>
</g>
<defs>
<clipPath id="clip0_1_15810">
<rect width="36" height="36" fill="white" transform="translate(0 0.578125)"/>
</clipPath>
</defs>
</svg>
