<svg width="36" height="37" viewBox="0 0 36 37" fill="none" xmlns="http://www.w3.org/2000/svg">
<g clip-path="url(#clip0_1_15536)">
<path d="M17.9853 36.246C27.7555 36.246 35.6757 28.3258 35.6757 18.5556C35.6757 8.7855 27.7555 0.865234 17.9853 0.865234C8.21518 0.865234 0.294922 8.7855 0.294922 18.5556C0.294922 28.3258 8.21518 36.246 17.9853 36.246Z" fill="black"/>
<path d="M28.3829 22.8267L26.1653 19.1187C26.0789 18.9819 25.9061 18.9387 25.7693 19.0251L24.3293 19.9467C24.1997 20.0331 24.1565 20.1987 24.2357 20.3355L25.5029 22.4523C25.5389 22.5171 25.5245 22.6035 25.4597 22.6467L18.0725 27.3843C18.0293 27.4131 17.9645 27.4131 17.9213 27.3843L10.5269 22.6467C10.4621 22.6035 10.4405 22.5243 10.4837 22.4523L11.7509 20.3355C11.8301 20.2059 11.7869 20.0331 11.6573 19.9467L10.2173 19.0251C10.0805 18.9387 9.90049 18.9819 9.82129 19.1187L7.58929 22.8267C7.43089 23.0931 7.51009 23.4387 7.76929 23.5971L17.6765 29.9403C17.8637 30.0627 18.1085 30.0627 18.2957 29.9403L28.2029 23.5971C28.4621 23.4315 28.5413 23.0931 28.3829 22.8267Z" fill="white"/>
<path d="M11.3687 17.0593L12.8087 17.9809C12.9455 18.0673 13.1255 18.0241 13.2047 17.8873L17.8631 10.0969C17.9207 10.0033 18.0503 10.0033 18.1079 10.0969L22.7663 17.8873C22.8527 18.0241 23.0255 18.0673 23.1623 17.9809L24.6023 17.0593C24.7319 16.9729 24.7751 16.8073 24.6959 16.6705L19.1375 7.36088C19.0295 7.18808 18.8495 7.08008 18.6479 7.08008H17.3375C17.1359 7.08008 16.9487 7.18808 16.8479 7.36088L11.2823 16.6705C11.1959 16.8001 11.2391 16.9729 11.3687 17.0593Z" fill="#2AE7A8"/>
</g>
<defs>
<clipPath id="clip0_1_15536">
<rect width="36" height="36" fill="white" transform="translate(0 0.578125)"/>
</clipPath>
</defs>
</svg>
