<svg width="36" height="37" viewBox="0 0 36 37" fill="none" xmlns="http://www.w3.org/2000/svg">
<g clip-path="url(#clip0_1_15923)">
<path d="M1.38281 32.7619V4.53793C1.38281 2.44273 3.08921 0.736328 5.18441 0.736328H32.7676C33.4876 0.736328 34.0708 1.31953 34.0708 2.03953V9.54193C34.0708 10.3267 33.7612 11.0827 33.214 11.6371L24.0988 20.8747L33.5236 30.2995C34.9348 31.7107 34.9348 33.9931 33.5236 35.4043C32.1124 36.8155 29.83 36.8155 28.4188 35.4043L16.2364 23.2147C14.9044 21.8827 14.9044 19.7227 16.2436 18.3907L27.1084 7.63393L8.69081 7.65553V32.7619C8.69081 34.7707 7.07081 36.3979 5.06201 36.4195C3.03881 36.4339 1.38281 34.7923 1.38281 32.7619Z" fill="#00E6A0"/>
<path d="M33.6892 1.11766C33.9268 1.34806 34.0708 1.67926 34.0708 2.03926V9.54166C34.0708 10.3265 33.7612 11.0825 33.214 11.6369L24.0988 20.8745L33.5236 30.2993C34.9348 31.7105 34.9348 33.9929 33.5236 35.4041C32.1124 36.8153 29.83 36.8153 28.4188 35.4041L16.2364 23.2145C14.9044 21.8825 14.9044 19.7225 16.2436 18.3905L27.1084 7.63366C27.1084 7.63366 33.6172 1.05286 33.6892 1.11766Z" fill="#008C62"/>
</g>
<defs>
<clipPath id="clip0_1_15923">
<rect width="36" height="36" fill="white" transform="translate(0 0.578125)"/>
</clipPath>
</defs>
</svg>
