<svg width="36" height="37" viewBox="0 0 36 37" fill="none" xmlns="http://www.w3.org/2000/svg">
<g clip-path="url(#clip0_1_15373)">
<path d="M16.2032 0.909253C19.678 0.552853 23.2538 1.24996 26.3303 2.90545C28.1837 3.88753 29.8504 5.2137 31.242 6.78265C33.6022 9.43261 35.127 12.8146 35.5546 16.3364C35.9637 19.605 35.4352 22.9851 34.0374 25.9683C33.0206 28.1679 31.537 30.1474 29.7227 31.7526C27.0728 34.1118 23.6908 35.6343 20.1697 36.0629C16.9282 36.4667 13.5781 35.9483 10.6134 34.5774C8.402 33.564 6.42503 32.1025 4.80755 30.2855C2.09992 27.2786 0.489489 23.3092 0.329073 19.2677C0.185793 16.098 0.922713 12.8945 2.43543 10.1048C3.52487 8.0734 5.02794 6.26987 6.80987 4.80928C9.46962 2.62703 12.7805 1.25543 16.2032 0.909253ZM13.3751 11.0393C12.6003 10.0105 11.4044 9.26831 10.099 9.21625C8.73695 9.13597 7.39473 9.78368 6.50473 10.7962C5.82973 11.5745 5.50847 12.6053 5.49644 13.6252C5.49104 15.5752 5.49033 17.5256 5.49436 19.4763C5.47154 19.7346 5.70488 19.9159 5.94911 19.8887C11.4681 19.9039 16.9889 19.871 22.5072 19.9064C22.4895 21.1131 22.505 22.3198 22.593 23.5232C21.0187 24.6691 19.1746 25.4777 17.2462 25.7782C16.9956 25.8357 16.5723 25.7685 16.5169 26.1123C16.493 26.7601 16.5147 27.4101 16.5072 28.0581C16.4703 28.286 16.6487 28.5193 16.8859 28.5161C19.2169 28.3361 21.4817 27.4725 23.3471 26.0669C24.037 26.9632 25.0216 27.6697 26.1597 27.8401C27.7679 28.1266 29.4586 27.3506 30.4202 26.0572C31.029 25.2347 31.2438 24.193 31.2395 23.1859C31.2341 21.3336 31.2558 19.4811 31.2287 17.6298C31.2494 17.3356 30.9726 17.186 30.7111 17.2088C25.2099 17.198 19.7087 17.2154 14.2095 17.2002C14.177 16.1108 14.2573 15.0169 14.1387 13.9306C14.1264 13.7793 14.091 13.5731 14.2502 13.4834C15.9356 12.331 17.8748 11.4964 19.9149 11.2707C20.1363 11.2652 20.2382 11.0156 20.223 10.8237C20.223 10.2046 20.2382 9.58338 20.2154 8.96483C20.224 8.70656 19.969 8.55796 19.7346 8.60454C17.4404 8.79196 15.2157 9.65884 13.3751 11.0393Z" fill="#CC1E46"/>
<path d="M7.71888 13.9617C7.74487 12.92 8.6978 12.0041 9.74496 12.0463C10.8171 12.0257 11.7829 12.9699 11.8036 14.0386C11.8264 15.1531 11.8122 16.2675 11.8101 17.3818C10.4469 17.4121 9.0848 17.3914 7.72097 17.3933C7.71471 16.2487 7.71679 15.1049 7.71888 13.9617Z" fill="#CC1E46"/>
<path d="M25.0856 19.8119C26.4476 19.8098 27.8097 19.8043 29.1717 19.8151C29.1825 20.9045 29.1761 21.994 29.1761 23.0836C29.1847 23.9138 28.6649 24.7396 27.877 25.0315C27.023 25.3614 25.979 25.0347 25.4559 24.286C25.2044 23.9319 25.0724 23.5069 25.0794 23.0727C25.0834 21.9864 25.0758 20.8992 25.0856 19.8119Z" fill="#CC1E46"/>
</g>
<defs>
<clipPath id="clip0_1_15373">
<rect width="36" height="36" fill="white" transform="translate(0 0.578125)"/>
</clipPath>
</defs>
</svg>
