<svg width="36" height="37" viewBox="0 0 36 37" fill="none" xmlns="http://www.w3.org/2000/svg">
<g clip-path="url(#clip0_1_15372)">
<path d="M8.56074 13.1128H16.5887C16.6319 13.1128 16.6823 13.0696 16.6823 13.0192V10.42C16.6823 10.3768 16.6391 10.3264 16.5887 10.3264H8.56074C8.51754 10.3264 8.46714 10.3696 8.46714 10.42V13.0192C8.46714 13.084 8.51034 13.1128 8.56074 13.1128ZM13.9895 8.35358H16.5887C16.6319 8.35358 16.6823 8.31038 16.6823 8.25998V5.66798C16.6823 5.62478 16.6391 5.57438 16.5887 5.57438H13.9895C13.9463 5.57438 13.8959 5.61758 13.8959 5.66798V8.26718C13.9031 8.31038 13.9463 8.35358 13.9895 8.35358ZM2.88714 19.8664H0.287936C0.244736 19.8664 0.194336 19.9096 0.194336 19.96V22.5592C0.194336 22.6024 0.237536 22.6528 0.287936 22.6528H2.88714C2.93034 22.6528 2.98074 22.6096 2.98074 22.5592V19.96C2.97354 19.9096 2.93034 19.8664 2.88714 19.8664ZM12.4127 19.8664H9.81354C9.77034 19.8664 9.71994 19.9096 9.71994 19.96V27.988C9.71994 28.0312 9.76314 28.0816 9.81354 28.0816H12.4127C12.4559 28.0816 12.5063 28.0384 12.5063 27.988V19.96C12.5063 19.9096 12.4631 19.8664 12.4127 19.8664ZM28.2959 17.2672H30.8951C30.9383 17.2672 30.9887 17.224 30.9887 17.1736V14.5744C30.9887 14.5312 30.9455 14.4808 30.8951 14.4808H28.2959C28.2527 14.4808 28.2023 14.524 28.2023 14.5744V17.1736C28.2095 17.2384 28.2383 17.2672 28.2959 17.2672ZM23.5223 17.2672H26.1215C26.1647 17.2672 26.2151 17.224 26.2151 17.1736V9.15278C26.2151 9.10958 26.1719 9.05918 26.1215 9.05918H23.5223C23.4791 9.05918 23.4287 9.10238 23.4287 9.15278V17.1808C23.4359 17.2384 23.4791 17.2672 23.5223 17.2672ZM13.9895 3.57998H16.5887C16.6319 3.57998 16.6823 3.53678 16.6823 3.48638V0.894381C16.6823 0.851181 16.6391 0.800781 16.5887 0.800781H13.9895C13.9463 0.800781 13.8959 0.843981 13.8959 0.894381V3.49358C13.9031 3.55118 13.9463 3.57998 13.9895 3.57998ZM7.66074 19.8664H5.06154C5.01834 19.8664 4.96794 19.9096 4.96794 19.96V22.5592C4.96794 22.6024 5.01114 22.6528 5.06154 22.6528H7.66074C7.70394 22.6528 7.75434 22.6096 7.75434 22.5592V19.96C7.73274 19.9096 7.70394 19.8664 7.66074 19.8664ZM27.3959 24.0424H19.3679C19.3247 24.0424 19.2743 24.0856 19.2743 24.136V26.7352C19.2743 26.7784 19.3175 26.8288 19.3679 26.8288H27.3959C27.4391 26.8288 27.4895 26.7856 27.4895 26.7352V24.136C27.4679 24.0712 27.4391 24.0424 27.3959 24.0424ZM32.8751 19.312H21.4991C21.4559 19.312 21.4055 19.3552 21.4055 19.4056V21.9256C21.4055 21.9688 21.4487 22.0192 21.4991 22.0192H32.8751C32.9183 22.0192 32.9687 21.976 32.9687 21.9256V19.4056C32.9615 19.3408 32.9183 19.312 32.8751 19.312ZM21.9455 28.7944H19.3463C19.3031 28.7944 19.2527 28.8376 19.2527 28.888V31.4872C19.2527 31.5304 19.2959 31.5808 19.3463 31.5808H21.9455C21.9887 31.5808 22.0391 31.5376 22.0391 31.4872V28.888C22.0391 28.8448 22.0103 28.7944 21.9455 28.7944ZM14.5295 15.2296C14.5295 15.1864 14.4863 15.136 14.4359 15.136H3.05994C3.01674 15.136 2.96634 15.1792 2.96634 15.2296V17.7496C2.96634 17.7928 3.00954 17.8432 3.05994 17.8432H14.4359C14.4791 17.8432 14.5295 17.8 14.5295 17.7496V15.2296ZM35.6543 14.5096H33.0551C33.0119 14.5096 32.9615 14.5528 32.9615 14.6032V17.2024C32.9615 17.2456 33.0047 17.296 33.0551 17.296H35.6543C35.6975 17.296 35.7479 17.2528 35.7479 17.2024V14.6032C35.7407 14.5384 35.7119 14.5096 35.6543 14.5096ZM17.1431 22.012H14.6231C14.5799 22.012 14.5295 22.0552 14.5295 22.1056V33.4816C14.5295 33.5248 14.5727 33.5752 14.6231 33.5752H17.1431C17.1863 33.5752 17.2367 33.532 17.2367 33.4816V22.1056C17.2367 22.0552 17.1863 22.012 17.1431 22.012ZM21.4055 15.064V3.67358C21.4055 3.63038 21.3623 3.57998 21.3119 3.57998H18.7919C18.7487 3.57998 18.6983 3.62318 18.6983 3.67358V15.064C18.6983 15.1072 18.7415 15.1576 18.7919 15.1576H21.3119C21.3623 15.1504 21.4055 15.1072 21.4055 15.064ZM21.9455 33.568H19.3463C19.3031 33.568 19.2527 33.6112 19.2527 33.6616V36.2608C19.2527 36.304 19.2959 36.3544 19.3463 36.3544H21.9455C21.9887 36.3544 22.0391 36.3112 22.0391 36.2608V33.6616C22.0391 33.604 22.0103 33.568 21.9455 33.568Z" fill="#149DD9"/>
</g>
<defs>
<clipPath id="clip0_1_15372">
<rect width="36" height="36" fill="white" transform="translate(0 0.578125)"/>
</clipPath>
</defs>
</svg>
