<svg width="36" height="37" viewBox="0 0 36 37" fill="none" xmlns="http://www.w3.org/2000/svg">
<g clip-path="url(#clip0_1_15759)">
<path d="M7.79809 26.1556C8.80199 26.17 9.68996 26.4763 10.5278 26.9296C11.5379 27.476 12.4895 27.0931 12.9803 26.485C13.3202 26.0639 13.3502 25.5627 13.4075 25.0603C13.4754 24.4657 13.476 23.8444 13.66 23.2854C14.3268 21.2599 15.8076 20.1315 17.8834 19.9018C18.8383 19.7962 19.8339 19.9882 20.7074 20.49C21.1609 20.7505 21.6318 20.8744 22.1518 20.845C23.1304 20.7897 23.7636 20.1738 23.8488 19.1942C23.8895 18.7258 23.9442 18.2585 23.9958 17.7911C24.2386 15.5917 26.225 13.6803 28.7826 13.5142C30.6346 13.394 32.5832 14.6588 33.3456 16.4582C34.802 19.8954 32.4404 23.1287 29.1855 23.5677C28.1586 23.7061 27.1245 23.3562 26.188 22.8356C25.2391 22.3082 23.9952 22.586 23.5577 23.6657C23.4129 24.023 23.4006 24.4518 23.4032 24.8473C23.4084 25.6412 23.2039 26.3766 22.8792 27.0854C21.8694 29.2898 19.031 30.7901 16.008 29.2727C15.5755 29.0557 15.1685 28.8824 14.6751 28.9012C13.6654 28.9399 12.9242 29.6695 12.8595 30.6869C12.8212 31.2872 12.7839 31.8952 12.6592 32.4812C12.1259 34.988 9.66735 36.2862 7.87347 36.2014C5.51137 36.0898 3.69927 34.5329 3.11946 32.3594C2.47988 29.9618 3.95487 27.3944 6.05663 26.5827C6.60959 26.369 7.21619 26.2942 7.79809 26.1556ZM3.22386 19.7458C3.94703 22.2459 6.18126 23.7792 8.77153 23.4086C11.3566 23.0388 13.0205 20.7554 12.9022 18.5573C12.881 18.1642 12.9498 17.7427 13.079 17.3697C13.4437 16.3172 14.6257 15.8693 15.6326 16.3629C15.8443 16.4667 16.0422 16.6039 16.2612 16.6864C17.2796 17.07 18.3089 17.3123 19.4141 17.0599C21.6199 16.5561 23.3255 14.2982 23.2306 11.9956C23.1421 9.8467 21.5085 7.57799 19.0256 7.25586C16.132 6.88045 13.5429 9.17646 13.4302 11.8292C13.4145 12.1987 13.3937 12.5695 13.3464 12.9359C13.197 14.0935 12.3355 14.7184 11.0942 14.5183C10.8073 14.472 10.5391 14.2949 10.2683 14.1655C9.37179 13.7372 8.41059 13.4629 7.43809 13.579C4.79994 13.8942 3.00411 16.0984 3.06049 18.4478C3.11168 18.8813 3.10412 19.332 3.22386 19.7458ZM7.81839 0.949305C5.02587 0.932601 2.88186 3.33575 2.87696 5.88663C2.87192 8.51816 5.06029 10.8513 7.79283 10.8523C10.4737 10.8533 12.7672 8.68326 12.7153 5.91464C12.787 3.30119 10.6419 0.966225 7.81839 0.949305Z" fill="#F5CA45"/>
</g>
<defs>
<clipPath id="clip0_1_15759">
<rect width="36" height="36" fill="white" transform="translate(0 0.578125)"/>
</clipPath>
</defs>
</svg>
