<svg width="36" height="37" viewBox="0 0 36 37" fill="none" xmlns="http://www.w3.org/2000/svg">
<g clip-path="url(#clip0_1_15580)">
<path fill-rule="evenodd" clip-rule="evenodd" d="M32.3497 7.69954C29.6281 4.21474 25.6321 2.01154 21.2113 2.01154C12.6649 2.01154 6.41533 9.95314 6.41533 18.5571C6.41533 24.5547 10.3969 29.0403 14.8249 29.0403C15.2353 29.0403 15.6457 29.0043 16.0561 28.9251C13.0897 26.7651 11.1961 22.8195 11.1961 18.5499C11.1961 11.7459 15.7969 6.44674 21.2185 6.44674C27.1297 6.44674 31.2481 12.3219 31.2481 18.5499C31.2337 23.1507 29.5921 27.7227 26.7049 31.0995C24.1849 34.0443 20.9233 35.9163 17.3377 36.5067C17.3377 36.5067 17.6401 36.5283 18.0289 36.5283C27.9577 36.5283 36.0073 28.4787 36.0073 18.5427C36.0001 14.4819 34.6393 10.7163 32.3497 7.69954ZM29.6209 18.5643C29.6209 12.5667 25.6393 8.07394 21.2113 8.07394C20.7937 8.07394 20.3905 8.10994 19.9801 8.18914C22.9465 10.3491 24.8401 14.2947 24.8401 18.5643C24.8401 25.3683 20.2393 30.6675 14.8177 30.6675C8.89933 30.6675 4.78813 24.7923 4.78813 18.5643C4.80253 13.9635 6.44413 9.39154 9.33133 6.01474C11.8513 3.06994 15.1129 1.19794 18.6985 0.607542C18.6985 0.607542 18.4033 0.585942 18.0073 0.585942C8.08573 0.578742 0.0361328 8.62834 0.0361328 18.5643C0.0361328 22.6467 1.39693 26.4051 3.68653 29.4219C6.40813 32.9067 10.4041 35.1099 14.8249 35.1099C23.3713 35.1099 29.6209 27.1683 29.6209 18.5643Z" fill="#0293F6"/>
</g>
<defs>
<clipPath id="clip0_1_15580">
<rect width="36" height="36" fill="white" transform="translate(0 0.578125)"/>
</clipPath>
</defs>
</svg>
