<svg width="36" height="37" viewBox="0 0 36 37" fill="none" xmlns="http://www.w3.org/2000/svg">
<g clip-path="url(#clip0_1_15952)">
<path d="M14.0748 33.9253C13.8979 33.9408 13.7395 33.9678 13.5853 33.8777C13.2041 33.6548 12.8167 33.4429 12.4355 33.22C12.2861 33.1326 12.2038 32.9994 12.2137 32.816C12.2203 32.6944 12.2136 32.5721 12.2136 32.4501C12.2136 27.8953 12.2138 23.3405 12.214 18.7858C12.214 18.6639 12.2051 18.541 12.2166 18.42C12.2452 18.1188 12.4551 17.9227 12.741 17.9706C13.1157 18.0334 13.4887 18.1185 13.8531 18.2255C14.1242 18.3052 14.2769 18.5066 14.2725 18.807C14.2685 19.0712 14.2727 19.3356 14.2727 19.5999C14.2728 24.0937 14.2731 28.5875 14.2724 33.0813C14.2724 33.3611 14.3198 33.6522 14.0748 33.9253ZM22.1154 3.15225C21.8145 3.43154 21.8711 3.72617 21.8711 4.00488C21.8693 8.66119 21.8693 13.3176 21.869 17.9739C21.869 18.0959 21.8668 18.218 21.8722 18.3399C21.8842 18.6082 22.0159 18.7964 22.2752 18.8699C22.5255 18.9408 22.7734 19.0133 23.0357 19.0522C23.8442 19.1717 23.9289 19.1118 23.929 18.2734C23.9292 13.7594 23.9291 9.24533 23.9292 4.73136C23.9292 4.52846 23.9292 4.32557 23.9292 4.02079C23.29 3.74575 22.8136 3.16881 22.1154 3.15225ZM18.4653 16.4059C18.7743 16.6033 19.0201 16.4679 19.0559 16.1071C19.0659 16.0063 19.0617 15.9039 19.0617 15.8021C19.0618 11.1026 19.0621 6.40313 19.06 1.70354C19.0599 1.54428 19.0927 1.37702 18.999 1.23129C18.006 0.540237 18.1201 0.570477 17.1585 1.21797C17.1283 1.23835 17.1161 1.28558 17.0908 1.32821C17.0908 6.01908 17.0908 10.7176 17.0908 15.4662C17.5666 15.7934 18.0073 16.1133 18.4653 16.4059ZM19.0353 21.7083C18.9367 21.4756 18.7727 21.4681 18.6599 21.3836C18.3693 21.1655 18.0628 20.9687 17.7697 20.7538C17.612 20.6381 17.4479 20.5729 17.2634 20.6537C17.0836 20.7323 17.0839 20.9063 17.0831 21.0718C17.0827 21.1736 17.0808 21.2752 17.0808 21.377C17.0811 26.0154 17.0816 30.6538 17.0819 35.2922C17.0819 35.4728 17.0819 35.6534 17.0819 35.8003C17.998 36.532 18.0222 36.5338 18.9041 35.957C18.9377 35.9351 18.9651 35.9036 19.0353 35.841C19.0353 31.0886 19.0353 26.354 19.0353 21.7083ZM27.2992 6.00266C26.9705 5.84289 26.7653 6.00273 26.7388 6.38203C26.729 6.52373 26.7346 6.66665 26.7346 6.80899C26.7343 10.4698 26.7342 14.1305 26.7342 17.7912C26.7342 17.9336 26.7281 18.0763 26.737 18.2182C26.7624 18.6238 26.9619 18.7652 27.3351 18.611C27.8181 18.4115 28.2895 18.184 28.7047 17.829C28.7047 14.1951 28.7047 10.5564 28.7047 6.87113C28.279 6.47585 27.7855 6.23897 27.2992 6.00266ZM7.81429 19.0398C7.66993 19.0689 7.56193 19.1567 7.4422 19.2736C7.4422 22.9128 7.4422 26.567 7.4422 30.2482C7.86851 30.6212 8.37236 30.8782 8.87881 31.1177C9.17178 31.2563 9.37547 31.088 9.40369 30.744C9.41528 30.6026 9.40808 30.4596 9.40816 30.3174C9.40852 26.6387 9.40873 22.96 9.4088 19.2813C9.4088 19.139 9.41579 18.9961 9.40492 18.8547C9.37669 18.488 9.17308 18.3404 8.83604 18.4794C8.56367 18.5917 8.27329 18.684 8.05132 18.8967C8.05283 19.0778 7.91804 19.033 7.81429 19.0398ZM14.2751 13.5944C14.2715 10.3445 14.2713 7.09454 14.2744 3.84453C14.2746 3.59585 14.2618 3.36127 14.0679 3.18257C13.8569 3.13944 13.6689 3.16161 13.4829 3.2802C13.1794 3.47366 12.878 3.67015 12.5418 3.8117C12.299 3.91394 12.2074 4.11777 12.2082 4.40117C12.2179 7.44799 12.2154 10.4948 12.2108 13.5416C12.2104 13.7776 12.2573 13.979 12.4358 14.13C12.9812 14.1988 13.5121 14.3557 14.0556 14.2672C14.261 14.0785 14.2754 13.8438 14.2751 13.5944ZM23.9195 32.951C23.9234 29.8027 23.9249 26.6544 23.9324 23.5062C23.9329 23.2863 23.8568 23.1172 23.7135 22.975C23.1504 22.9124 22.6033 22.7279 22.0512 22.8472C21.9169 23.0474 21.8665 23.2294 21.8669 23.4423C21.8722 26.7328 21.8722 30.0234 21.8675 33.314C21.8672 33.5471 21.9094 33.7505 22.0721 33.9204C22.2355 33.9435 22.4019 33.9825 22.5467 33.8826C22.9893 33.5773 23.5142 33.3995 23.8755 33.0773C23.907 32.9885 23.9195 32.9698 23.9195 32.951ZM2.68868 9.9587C2.68703 12.4713 2.68703 14.9839 2.68825 17.4964C2.68832 17.58 2.69005 17.657 2.59379 17.6901C2.5408 17.8983 2.67824 17.9776 2.89144 18.0783C3.58796 17.7035 4.07483 17.0575 4.62174 16.5347C4.62174 14.1263 4.62066 11.7749 4.62304 9.42345C4.62332 9.11421 4.63232 8.80958 4.25857 8.68891C3.7702 8.83089 3.36419 9.13373 2.92672 9.37212C2.7794 9.4524 2.61006 9.55485 2.59292 9.76488C2.68681 9.79908 2.68876 9.87381 2.68868 9.9587ZM7.4216 7.50307C7.4224 9.55759 7.42319 11.6121 7.42391 13.6666C7.42398 13.8903 7.41325 14.1147 7.42549 14.3377C7.44457 14.6856 7.61298 14.8334 7.93266 14.7542C8.34097 14.653 8.74115 14.5192 9.14442 14.3979C9.32384 14.3439 9.39952 14.2119 9.40448 14.0333C9.40837 13.8909 9.40909 13.7485 9.40909 13.6061C9.40916 11.3075 9.40902 9.00881 9.40859 6.71021C9.40859 6.58817 9.41507 6.46526 9.40355 6.34423C9.37151 6.00835 9.16091 5.84635 8.86513 5.9928C8.3638 6.24105 7.84259 6.47117 7.42168 6.89899C7.4216 7.09915 7.42153 7.30111 7.4216 7.50307ZM28.7213 29.5404C28.7203 27.4858 28.7192 25.4313 28.7184 23.3767C28.7183 23.1733 28.7296 22.9693 28.7178 22.7666C28.6961 22.3962 28.5186 22.2636 28.1531 22.3621C27.8049 22.456 27.463 22.5736 27.1208 22.6882C26.7575 22.8097 26.7548 22.8175 26.7373 23.1909C26.7326 23.2924 26.7336 23.3943 26.7336 23.4959C26.7337 25.7946 26.7339 28.0933 26.7344 30.3919C26.7344 30.514 26.7283 30.6368 26.7399 30.7579C26.7722 31.0952 26.9814 31.2574 27.2772 31.1101C27.7777 30.861 28.3016 30.6357 28.7213 30.2027C28.7213 29.9849 28.7214 29.7627 28.7213 29.5404ZM31.7652 20.5629C31.7652 22.9479 31.7652 25.3368 31.7652 27.7422C31.8692 27.8416 31.9902 27.9573 32.1018 28.064C32.2537 28.0582 32.2106 27.9016 32.2985 27.8564C32.3372 27.9162 32.3783 27.9798 32.4266 28.0544C32.5613 27.8366 32.3945 27.5781 32.535 27.374C32.6722 27.3255 32.6768 27.4459 32.7422 27.5052C32.8805 27.6303 33.0987 27.6786 33.1959 27.4813C33.2906 27.2891 33.4254 27.3674 33.5493 27.343C33.56 27.1414 33.5796 26.9399 33.5801 26.7383C33.5829 25.4988 33.5815 24.2593 33.5815 23.0198C33.5815 21.9022 33.5773 20.7846 33.5845 19.6671C33.5863 19.378 33.5259 19.1489 33.2063 19.0537C32.9223 19.2067 32.7143 19.4501 32.4856 19.6686C32.5779 20.2232 32.159 20.3742 31.7652 20.5629ZM31.92 8.66774C31.5962 8.80937 31.5168 9.00837 31.5182 9.28255C31.5268 10.9464 31.5255 12.6104 31.5189 14.2742C31.5178 14.5441 31.5973 14.7448 31.8525 14.861C32.028 14.8144 32.1837 14.731 32.3216 14.6067C32.6818 14.2822 32.9982 13.9124 33.3848 13.6131C33.5414 13.4919 33.5866 13.2847 33.5845 13.0661C33.5742 11.9512 33.5797 10.836 33.5797 9.66336C33.0389 9.22502 32.4773 8.89512 31.92 8.66774ZM2.68019 27.4815C3.11564 27.9419 3.6874 28.1732 4.2099 28.4448C4.49941 28.3166 4.62448 28.1509 4.62318 27.8664C4.61562 26.1809 4.61663 24.4954 4.62347 22.8098C4.62455 22.5354 4.52944 22.3467 4.24352 22.2248C3.64398 22.6076 3.13926 23.1106 2.68019 23.665C2.68019 24.9372 2.68019 26.2093 2.68019 27.4815ZM31.7014 20.3223C31.5605 20.4115 31.5189 20.616 31.5194 20.8118C31.5247 23.149 31.5257 25.4863 31.5185 27.8235C31.5176 28.1246 31.6192 28.3243 31.941 28.4359C32.4766 28.2059 32.9753 27.8691 33.4875 27.5577C33.5689 27.5081 33.5672 27.4257 33.5492 27.343C33.4253 27.3673 33.2906 27.289 33.1959 27.4812C33.0986 27.6786 32.8804 27.6302 32.7421 27.5051C32.6766 27.4458 32.6721 27.3255 32.5349 27.3739C32.3945 27.578 32.5613 27.8365 32.4265 28.0543C32.3782 27.9797 32.3371 27.9161 32.2984 27.8563C32.2106 27.9015 32.2536 28.0582 32.1018 28.064C31.9901 27.9573 31.8691 27.8416 31.7651 27.7421C31.7651 25.3368 31.7651 22.9478 31.7651 20.5629C32.1589 20.3742 32.5778 20.2231 32.4855 19.6685C32.1676 19.8162 31.9947 20.1367 31.7014 20.3223ZM2.5629 10.1265C2.5611 12.5271 2.56103 14.9277 2.5629 17.3283C2.56297 17.4489 2.58306 17.5695 2.59379 17.6902C2.69012 17.657 2.68832 17.58 2.68825 17.4964C2.68703 14.9838 2.68703 12.4713 2.68868 9.95877C2.68876 9.87389 2.68681 9.79908 2.59292 9.76488C2.58248 9.88533 2.56297 10.006 2.5629 10.1265ZM2.56369 23.8544C2.56391 25.0007 2.56369 26.1469 2.56312 27.2931C2.56304 27.3814 2.59811 27.4455 2.68019 27.4815C2.68019 26.2093 2.68019 24.9372 2.68019 23.665C2.59883 23.702 2.56369 23.7661 2.56369 23.8544ZM7.81429 19.0398C7.91804 19.033 8.05283 19.0778 8.05132 18.8966C7.95368 18.9135 7.84604 18.9138 7.81429 19.0398Z" fill="#BE0911"/>
</g>
<defs>
<clipPath id="clip0_1_15952">
<rect width="36" height="36" fill="white" transform="translate(0 0.578125)"/>
</clipPath>
</defs>
</svg>
