<svg width="36" height="37" viewBox="0 0 36 37" fill="none" xmlns="http://www.w3.org/2000/svg">
<g clip-path="url(#clip0_1_15696)">
<path d="M17.9924 36.4339C27.85 36.4339 35.8412 28.4427 35.8412 18.5851C35.8412 8.72751 27.85 0.736328 17.9924 0.736328C8.13473 0.736328 0.143555 8.72751 0.143555 18.5851C0.143555 28.4427 8.13473 36.4339 17.9924 36.4339Z" fill="black"/>
<path d="M26.2224 16.5329V14.0201C26.2224 13.9121 26.136 13.8185 26.0208 13.8185H22.9104C22.8024 13.8185 22.7088 13.7321 22.7088 13.6169V9.86566C22.7088 9.75766 22.6224 9.66406 22.5072 9.66406H19.9944C19.8864 9.66406 19.7928 9.75046 19.7928 9.86566V13.6313C19.7928 13.7393 19.7064 13.8329 19.5912 13.8329H16.3656C16.2576 13.8329 16.164 13.7465 16.164 13.6313V9.86566C16.164 9.75766 16.0776 9.66406 15.9624 9.66406H13.4496C13.3416 9.66406 13.248 9.75046 13.248 9.86566V13.6313C13.248 13.7393 13.1616 13.8329 13.0464 13.8329H9.93598C9.82798 13.8329 9.73438 13.9193 9.73438 14.0345V16.5473C9.73438 16.6553 9.82078 16.7489 9.93598 16.7489H13.0464C13.1544 16.7489 13.248 16.8353 13.248 16.9505V20.8601C13.248 20.9681 13.1616 21.0617 13.0464 21.0617H9.93598C9.82798 21.0617 9.73438 21.1481 9.73438 21.2633V23.7761C9.73438 23.8841 9.82078 23.9777 9.93598 23.9777H13.0464C13.1544 23.9777 13.248 24.0641 13.248 24.1793V27.9449C13.248 28.0529 13.3344 28.1465 13.4496 28.1465H15.9624C16.0704 28.1465 16.164 28.0601 16.164 27.9449V24.1793C16.164 24.0713 16.2504 23.9777 16.3656 23.9777H19.5912C19.6992 23.9777 19.7928 24.0641 19.7928 24.1793V27.9449C19.7928 28.0529 19.8792 28.1465 19.9944 28.1465H22.5072C22.6152 28.1465 22.7088 28.0601 22.7088 27.9449V24.1793C22.7088 24.0713 22.7952 23.9777 22.9104 23.9777H26.0208C26.1288 23.9777 26.2224 23.8913 26.2224 23.7761V21.2633C26.2224 21.1553 26.136 21.0617 26.0208 21.0617H22.9104C22.8024 21.0617 22.7088 20.9753 22.7088 20.8601V16.9505C22.7088 16.8425 22.7952 16.7489 22.9104 16.7489H26.0208C26.136 16.7345 26.2224 16.6481 26.2224 16.5329ZM19.6128 21.0401H16.3872C16.2792 21.0401 16.1856 20.9537 16.1856 20.8385V16.9289C16.1856 16.8209 16.272 16.7273 16.3872 16.7273H19.6128C19.7208 16.7273 19.8144 16.8137 19.8144 16.9289V20.8385C19.8144 20.9465 19.7208 21.0401 19.6128 21.0401Z" fill="white"/>
</g>
<defs>
<clipPath id="clip0_1_15696">
<rect width="36" height="36" fill="white" transform="translate(0 0.578125)"/>
</clipPath>
</defs>
</svg>
