<svg width="36" height="37" viewBox="0 0 36 37" fill="none" xmlns="http://www.w3.org/2000/svg">
<g clip-path="url(#clip0_1_15370)">
<path d="M16.072 36.5385C7.97925 35.5161 1.81605 29.8137 0.224847 21.8721C-0.0775531 20.3601 -0.0775531 16.7745 0.224847 15.2625C1.71525 7.83212 7.25205 2.28813 14.6896 0.804925C16.2016 0.502525 19.7872 0.502525 21.2992 0.804925C28.7368 2.28813 34.2808 7.83212 35.764 15.2625C36.0664 16.7745 36.0664 20.3601 35.764 21.8721C34.2808 29.2737 28.708 34.8681 21.364 36.3153C20.3776 36.5097 16.9864 36.6537 16.072 36.5385Z" fill="white"/>
<path d="M16.072 36.5346C7.98645 35.5194 1.81605 29.8098 0.224847 21.8682C-0.0775531 20.3562 -0.0775531 16.7706 0.224847 15.2586C1.71525 7.82822 7.25205 2.28422 14.6896 0.801019C16.2016 0.498619 19.7872 0.498619 21.2992 0.801019C28.7368 2.28422 34.2808 7.82822 35.764 15.2586C36.0664 16.7706 36.0664 20.3562 35.764 21.8682C34.2808 29.2698 28.708 34.8642 21.364 36.3114C20.3776 36.5058 16.9864 36.6498 16.072 36.5346ZM16.8856 23.1066L16.9216 20.493H18.0952H19.2688L20.4064 23.1426L21.544 25.7922H22.9984C23.7976 25.7922 24.4888 25.7634 24.5248 25.7274C24.5608 25.6914 24.1 24.5682 23.5096 23.229C22.912 21.8898 22.4008 20.6874 22.372 20.5506C22.3288 20.3562 22.4008 20.2626 22.6888 20.1474C23.1784 19.9458 23.8336 19.2042 24.0424 18.621C24.1576 18.2898 24.208 17.505 24.208 15.9282C24.208 13.8258 24.1936 13.6674 23.92 13.1274C23.7616 12.8106 23.416 12.3642 23.1496 12.141C22.2712 11.3922 21.9904 11.349 17.7568 11.385L13.9696 11.4138L13.9336 12.5802L13.8976 13.7466L12.5512 13.7826L11.2048 13.8186V15.0786V16.3386L12.616 16.3746L14.0272 16.4106V17.0658V17.721L12.616 17.757L11.2048 17.793V19.053V20.313L12.616 20.349L14.0272 20.385V23.0922V25.7994L15.4384 25.8138H16.8496L16.8856 23.1066ZM16.9144 15.921V14.1138H18.8944C20.8744 14.1138 20.8744 14.1138 21.1192 14.4306C21.3352 14.7042 21.3712 14.913 21.3712 15.921C21.3712 16.9218 21.3352 17.1378 21.1192 17.4114C20.8672 17.7282 20.8672 17.7282 18.8944 17.7282H16.9144V15.921Z" fill="black"/>
</g>
<defs>
<clipPath id="clip0_1_15370">
<rect width="36" height="36" fill="white" transform="translate(0 0.578125)"/>
</clipPath>
</defs>
</svg>
