<svg width="36" height="37" viewBox="0 0 36 37" fill="none" xmlns="http://www.w3.org/2000/svg">
<g clip-path="url(#clip0_1_15369)">
<path d="M19.5852 0.830078H21.9811L23.4924 2.37822L28.8002 3.8895L24.1927 5.1796L25.4828 10.6718L27.2889 12.8464L22.8289 29.5441H16.7101L7.2002 36.3264L13.319 8.75505L14.8671 5.99053L15.4937 3.81577L17.0418 2.08331L19.5852 0.830078Z" fill="white"/>
<path d="M19.585 0.830078H21.9808L23.4921 2.37822L19.585 0.830078Z" fill="#DE4435"/>
<path d="M23.6064 2.41016L28.7999 3.88889L24.3362 5.13867L23.6064 2.41016Z" fill="#EB8D3A"/>
<path d="M23.4464 2.58008L22.8105 4.37698L24.1744 5.07733L23.4464 2.58008Z" fill="#E73F3C"/>
<path d="M23.2615 2.52599L22.6534 4.24917L19.8428 1.09766L23.2615 2.52599Z" fill="#EC903B"/>
<path d="M17.1641 2.02298L19.4264 0.908203L22.4143 4.24864L17.1641 2.02298Z" fill="#E1423E"/>
<path d="M16.9985 2.13086L20.3132 3.5844L15.5723 3.72696L16.9985 2.13086Z" fill="#DD4137"/>
<path d="M15.4612 3.92803L20.1563 3.77539L14.8994 5.87779L15.4612 3.92803Z" fill="#393B78"/>
<path d="M14.8223 6.06974L20.5982 3.77539L13.4189 8.57577L14.8223 6.06974Z" fill="#E24335"/>
<path d="M13.6602 8.65415L20.8295 3.83008L24.2144 5.27152L13.6602 8.65415Z" fill="#373C7D"/>
<path d="M13.7793 8.82787L24.2618 5.47461L25.4113 10.3684L13.7793 8.82787Z" fill="#EC8E36"/>
<path d="M13.5303 8.9668L25.4111 10.6071L22.6531 29.544L13.5303 8.9668Z" fill="#E1433A"/>
<path d="M13.3467 9.16016L22.4326 29.5438H16.7839L13.3467 9.16016Z" fill="#373D7B"/>
<path d="M13.1964 9.30664L16.5749 29.6399L7.2002 36.3257L13.1964 9.30664Z" fill="#373C7D"/>
<path d="M25.6549 10.8789L27.2891 12.8467L22.9814 28.9739L25.6549 10.8789Z" fill="#383D79"/>
</g>
<defs>
<clipPath id="clip0_1_15369">
<rect width="36" height="36" fill="white" transform="translate(0 0.578125)"/>
</clipPath>
</defs>
</svg>
