<svg width="36" height="37" viewBox="0 0 36 37" fill="none" xmlns="http://www.w3.org/2000/svg">
<g clip-path="url(#clip0_1_15909)">
<path d="M18.0572 0.93166C8.35884 0.91726 0.482041 8.76526 0.467641 18.4637C0.467641 21.6029 1.30284 24.6845 2.88684 27.3845L0.431641 36.1469L9.46044 33.8213C17.9204 38.5733 28.634 35.5781 33.386 27.1181C38.138 18.6581 35.1428 7.94446 26.6828 3.19246C24.0476 1.70206 21.074 0.93166 18.0572 0.93166ZM23.1764 25.7213C21.938 26.4557 20.5628 26.9381 19.13 27.1253L18.3236 30.6029H13.0532L13.8452 27.1757C13.2908 27.1253 12.7364 27.0461 12.1892 26.9309C11.1308 26.7509 10.1012 26.4341 9.12204 26.0021L8.97084 25.9301L10.0508 21.2717H10.7852L10.8428 21.3293C11.0588 21.5093 11.318 21.7109 11.6348 21.9269C12.0596 22.2005 12.5132 22.4237 12.9884 22.6037C13.5572 22.8413 14.1476 23.0285 14.7524 23.1653C15.458 23.3237 16.178 23.4029 16.9052 23.3957C17.7764 23.4605 18.6476 23.3309 19.4612 23.0141C19.9436 22.7837 20.2892 22.3373 20.39 21.8117L21.5276 16.8941C22.5428 17.1605 23.5004 17.5997 24.3716 18.1901C25.322 18.8957 25.862 20.0333 25.8188 21.2213C25.826 23.0789 24.818 24.8141 23.1764 25.7213ZM26.1428 15.3821H25.4444L25.3868 15.3389C24.6452 14.7917 23.8244 14.3597 22.946 14.0717C22.0028 13.7477 21.0092 13.5821 20.0084 13.5749C19.1588 13.5389 18.3164 13.6685 17.5244 13.9565C17.1356 14.1365 16.8476 14.4749 16.7252 14.8853C16.6316 15.1445 16.6028 15.2741 16.5236 15.5837L15.4724 20.1413C14.3924 19.8677 13.3844 19.3709 12.4988 18.6869C11.6564 17.9669 11.1812 16.9085 11.1956 15.7997C11.174 13.9349 12.1532 12.1997 13.766 11.2637C15.0116 10.5005 16.4084 10.0109 17.8556 9.83086L18.6548 6.36766H23.9252L23.126 9.83086C23.5076 9.88846 23.8964 9.93166 24.2924 10.0109C25.2356 10.1693 26.15 10.4429 27.0284 10.8245L27.1868 10.8965L26.1428 15.3821Z" fill="#FF9933"/>
</g>
<defs>
<clipPath id="clip0_1_15909">
<rect width="36" height="36" fill="white" transform="translate(0 0.578125)"/>
</clipPath>
</defs>
</svg>
