<svg width="36" height="37" viewBox="0 0 36 37" fill="none" xmlns="http://www.w3.org/2000/svg">
<g clip-path="url(#clip0_1_15804)">
<path d="M17.9997 36.353C15.6001 36.353 13.2722 35.8829 11.0808 34.9561C10.0275 34.5106 9.01163 33.9592 8.06138 33.3172C7.12019 32.6814 6.23509 31.9511 5.43078 31.1468C4.62646 30.3425 3.89617 29.4574 3.26034 28.5162C2.61839 27.5659 2.06695 26.5501 1.62148 25.4968C0.694553 23.3053 0.224609 20.9775 0.224609 18.5779C0.224609 16.1783 0.694553 13.8504 1.62148 11.659C2.06702 10.6057 2.61839 9.58983 3.26034 8.63957C3.89617 7.69839 4.62646 6.81329 5.43078 6.00898C6.23509 5.20467 7.12019 4.47437 8.06138 3.83854C9.01163 3.19659 10.0275 2.64514 11.0808 2.19968C13.2723 1.27268 15.6001 0.802734 17.9997 0.802734C20.3993 0.802734 22.7271 1.27268 24.9186 2.19961C25.9719 2.64507 26.9877 3.19652 27.938 3.83847C28.8792 4.4743 29.7643 5.2046 30.5686 6.00891C31.373 6.81322 32.1032 7.69832 32.739 8.6395C33.381 9.58976 33.9324 10.6056 34.3779 11.6589C35.3048 13.8504 35.7747 16.1782 35.7747 18.5778C35.7747 20.9774 35.3047 23.3053 34.3779 25.4967C33.9324 26.55 33.381 27.5659 32.739 28.5161C32.1031 29.4573 31.3729 30.3424 30.5686 31.1467C29.7643 31.9511 28.8792 32.6813 27.938 33.3171C26.9877 33.9591 25.9719 34.5105 24.9186 34.956C22.7271 35.8829 20.3993 36.353 17.9997 36.353ZM17.9997 0.950982C15.62 0.950982 13.3116 1.41704 11.1386 2.33612C10.0942 2.77791 9.08673 3.32468 8.14447 3.9613C7.21106 4.59188 6.33337 5.31605 5.53568 6.11374C4.73799 6.91143 4.01382 7.78911 3.38325 8.72252C2.74662 9.66485 2.19986 10.6722 1.75806 11.7166C0.838911 13.8897 0.372854 16.1981 0.372854 18.5777C0.372854 20.9574 0.838911 23.2658 1.75806 25.4389C2.19986 26.4833 2.74662 27.4908 3.38325 28.433C4.01382 29.3664 4.73799 30.2441 5.53568 31.0418C6.33337 31.8395 7.21106 32.5637 8.14447 33.1942C9.0868 33.8309 10.0942 34.3776 11.1386 34.8194C13.3116 35.7386 15.6201 36.2046 17.9997 36.2046C20.3793 36.2046 22.6877 35.7385 24.8608 34.8194C25.9052 34.3776 26.9126 33.8309 27.8549 33.1942C28.7883 32.5637 29.666 31.8395 30.4637 31.0418C31.2614 30.2441 31.9855 29.3664 32.6161 28.433C33.2527 27.4907 33.7995 26.4833 34.2413 25.4389C35.1604 23.2658 35.6265 20.9574 35.6265 18.5777C35.6265 16.1981 35.1604 13.8897 34.2413 11.7166C33.7996 10.6722 33.2527 9.66478 32.6161 8.72252C31.9855 7.78911 31.2614 6.91143 30.4637 6.11374C29.666 5.31605 28.7882 4.59188 27.8549 3.9613C26.9126 3.32468 25.9052 2.77791 24.8608 2.33612C22.6877 1.41704 20.3794 0.950982 17.9997 0.950982Z" fill="#FFCE45"/>
<path d="M17.9999 4.72461L31.5595 18.2841L17.9999 31.8436L4.44043 18.2841L17.9999 4.72461Z" fill="#FFCE45"/>
<path d="M18.0004 22.7091L4.42969 18.2839L18.0004 4.72461L31.5711 18.2839L18.0004 22.7091Z" fill="#FEBE44"/>
<path d="M9.14941 17.3984H15.3447L17.9999 14.4482L20.95 17.3983H27.1453L17.9999 7.51562L9.14941 17.3984Z" fill="white"/>
<path opacity="0.42" d="M18 31.8431V4.72461L31.5593 18.2839L18 31.8431Z" fill="#D9A547"/>
</g>
<defs>
<clipPath id="clip0_1_15804">
<rect width="36" height="36" fill="white" transform="translate(0 0.578125)"/>
</clipPath>
</defs>
</svg>
