<svg width="36" height="37" viewBox="0 0 36 37" fill="none" xmlns="http://www.w3.org/2000/svg">
<path d="M17.2156 30.6456C13.9252 30.6456 11.4052 29.184 11.29 29.1192L12.514 25.944C12.5284 25.9512 15.0412 27.348 17.5252 27.24C18.9148 27.1752 20.6428 26.7792 20.6428 24.0216C20.6428 22.38 19.6276 21.0336 17.4676 19.6872C17.3164 19.5936 17.1652 19.5 17.014 19.4064C14.6524 17.9376 12.046 16.764 12.046 12.2352C12.046 8.49122 14.5588 6.48242 18.3604 6.48242C21.478 6.48242 23.8324 7.76402 23.9332 7.82162L22.918 10.8456C22.8964 10.8384 20.5996 9.87362 18.3604 9.87362C16.1788 9.87362 15.61 10.968 15.5524 12.1488C15.4588 14.2296 16.6396 15.036 18.8572 16.4328C19.0012 16.5264 19.1452 16.6128 19.2964 16.7064C21.478 18.06 24.2716 19.8312 24.2716 24.0144C24.2716 28.2624 21.6724 30.4512 17.6764 30.6312C17.518 30.6456 17.3668 30.6456 17.2156 30.6456Z" fill="black"/>
<path d="M32.9475 20.94C34.4864 20.94 35.7339 19.6925 35.7339 18.1536C35.7339 16.6147 34.4864 15.3672 32.9475 15.3672C31.4086 15.3672 30.1611 16.6147 30.1611 18.1536C30.1611 19.6925 31.4086 20.94 32.9475 20.94Z" fill="black"/>
<path d="M3.06765 20.9322C4.60654 20.9322 5.85405 19.6847 5.85405 18.1458C5.85405 16.6069 4.60654 15.3594 3.06765 15.3594C1.52876 15.3594 0.28125 16.6069 0.28125 18.1458C0.28125 19.6847 1.52876 20.9322 3.06765 20.9322Z" fill="black"/>
</svg>
