<svg width="36" height="37" viewBox="0 0 36 37" fill="none" xmlns="http://www.w3.org/2000/svg">
<g clip-path="url(#clip0_1_15365)">
<path d="M18.0215 2.45797C22.3271 2.45797 26.3735 4.13557 29.4191 7.18117C32.4647 10.2268 34.1423 14.2732 34.1423 18.5788C34.1423 22.8844 32.4647 26.9308 29.4191 29.9764C26.3735 33.022 22.3271 34.6996 18.0215 34.6996C13.7159 34.6996 9.66952 33.022 6.62392 29.9764C3.57832 26.938 1.90072 22.8844 1.90072 18.5788C1.90072 14.2732 3.57832 10.2268 6.61672 7.18117C9.66232 4.13557 13.7159 2.45797 18.0215 2.45797ZM18.0215 0.701172C8.14312 0.701172 0.136719 8.70037 0.136719 18.5788C0.136719 28.4572 8.14312 36.4636 18.0215 36.4636C27.8999 36.4636 35.8991 28.4572 35.8991 18.5788C35.8991 8.70037 27.8927 0.701172 18.0215 0.701172Z" fill="url(#paint0_linear_1_15365)"/>
<path d="M27.9936 12.4871C27.9936 11.2775 27.0216 10.2911 25.812 10.2695H14.328C11.9592 10.2695 10.0368 12.1919 10.0368 14.5607V22.4591C8.82002 22.4735 7.84082 23.4599 7.84082 24.6767C7.84082 25.8935 8.82002 26.8799 10.0368 26.8943H10.0584H21.5208C23.8896 26.8943 25.812 24.9719 25.812 22.6031V14.6975C27.0216 14.6759 27.9936 13.6967 27.9936 12.4871ZM23.2416 22.5959C23.2416 23.5463 22.4712 24.3167 21.5208 24.3167H12.6072V14.5607C12.6072 13.6103 13.3776 12.8399 14.328 12.8399H23.2416V22.5959Z" fill="url(#paint1_linear_1_15365)"/>
</g>
<defs>
<linearGradient id="paint0_linear_1_15365" x1="18.0197" y1="36.4618" x2="18.0197" y2="0.697593" gradientUnits="userSpaceOnUse">
<stop stop-color="#B970FE"/>
<stop offset="0.9986" stop-color="#D0A0FF"/>
</linearGradient>
<linearGradient id="paint1_linear_1_15365" x1="17.9186" y1="26.8897" x2="17.9186" y2="10.268" gradientUnits="userSpaceOnUse">
<stop stop-color="#B970FE"/>
<stop offset="0.9986" stop-color="#D0A0FF"/>
</linearGradient>
<clipPath id="clip0_1_15365">
<rect width="36" height="36" fill="white" transform="translate(0 0.578125)"/>
</clipPath>
</defs>
</svg>
