<svg width="36" height="37" viewBox="0 0 36 37" fill="none" xmlns="http://www.w3.org/2000/svg">
<g clip-path="url(#clip0_1_15842)">
<path d="M30.7008 5.84852C27.3024 2.45012 22.788 0.578125 17.9856 0.578125C8.0712 0.578125 0 8.65652 0 18.5781C0 28.4997 8.0712 36.5781 17.9856 36.5781C22.788 36.5781 27.3024 34.7061 30.7008 31.3077C34.0992 27.9093 35.964 23.3877 35.964 18.5781C35.964 13.7685 34.0992 9.24692 30.7008 5.84852ZM17.9856 35.3325C8.7552 35.3325 1.2456 27.8157 1.2456 18.5781C1.2456 9.34052 8.7552 1.82372 17.9856 1.82372C27.216 1.82372 34.7256 9.34052 34.7256 18.5781C34.7256 27.8157 27.216 35.3325 17.9856 35.3325Z" fill="black"/>
<path d="M23.8896 19.0035C22.7376 17.9739 21.2256 17.2827 19.7712 16.6203L19.764 16.6131C17.1864 15.4323 14.9544 14.4171 15.1128 12.0123C15.1776 11.0907 15.8472 10.5435 16.3944 10.2411C17.0136 9.90266 17.8272 9.70106 18.5832 9.70106C18.6696 9.70106 18.7632 9.70826 18.8496 9.70826C21.0456 9.85226 22.7808 10.7883 24.48 12.7251L24.5808 12.8403L24.696 12.7395L25.3584 12.1635L25.4736 12.0627L25.3656 11.9475C23.4792 9.78026 21.42 8.69306 18.9144 8.52026C18.8064 8.50586 18.6912 8.50586 18.5616 8.50586C18.4896 8.50586 18.4032 8.50586 18.3168 8.51306H18.216C16.5672 8.51306 14.7672 9.05306 13.3992 9.96026C11.7576 11.0475 10.8432 12.5379 10.8216 14.1579C10.7568 18.1107 13.9824 19.4355 16.8336 20.6091H16.8408L16.8696 20.6163C19.3896 21.6603 21.564 22.5603 21.5136 24.9723C21.492 26.5635 19.2168 27.4419 17.6544 27.4419H17.5896H17.4384C15.1056 27.3699 13.032 26.3691 11.2536 24.4611L11.1456 24.3459L11.0304 24.4539L10.3896 25.0515L10.2744 25.1595L10.3824 25.2747C12.3984 27.4419 14.8896 28.6155 17.5752 28.6443H17.6976C19.44 28.6443 21.3264 28.1763 22.752 27.3843C24.5376 26.4123 25.5744 24.9867 25.6896 23.3811C25.8048 21.6315 25.2144 20.1915 23.8896 19.0035ZM15.5304 15.5691C16.5528 16.4475 17.9496 17.0739 19.2888 17.6859L19.3176 17.6931C20.7432 18.3483 22.0896 18.9675 23.0616 19.8315C24.1416 20.7819 24.6024 21.8835 24.5016 23.2947C24.4152 24.6987 23.3712 25.6347 22.4208 26.1963C22.6008 25.8219 22.7088 25.4115 22.716 24.9795C22.7376 23.5251 22.176 22.3587 21.0024 21.4155C19.98 20.5875 18.6192 20.0331 17.3016 19.4859C14.5584 18.3627 11.9736 17.2971 12.024 14.1507C12.0384 12.9411 12.7656 11.7963 14.0688 10.9251C14.112 10.8963 14.1552 10.8675 14.2056 10.8387C14.0544 11.1771 13.9608 11.5299 13.9464 11.9043C13.8312 13.3731 14.3568 14.5683 15.5304 15.5691Z" fill="black"/>
</g>
<defs>
<clipPath id="clip0_1_15842">
<rect width="36" height="36" fill="white" transform="translate(0 0.578125)"/>
</clipPath>
</defs>
</svg>
