<svg width="36" height="37" viewBox="0 0 36 37" fill="none" xmlns="http://www.w3.org/2000/svg">
<g clip-path="url(#clip0_1_15883)">
<path fill-rule="evenodd" clip-rule="evenodd" d="M7.524 22.8773L8.064 26.6501L5.3784 27.1901L3.2256 26.6429L0 21.2573L1.0728 11.5589L4.8312 6.71327L9.6696 6.17327L14.508 3.48047L20.952 6.71327L19.3392 8.32607C23.9976 9.04607 27.0432 9.58607 28.476 9.93887C30.6288 10.4789 34.3872 13.1717 34.9272 13.7117C35.4672 14.2517 35.208 16.7285 34.9272 18.5573C34.74 19.7813 34.38 20.6741 33.8544 21.2501L36 33.6485H31.1616L32.2344 32.5685L27.936 23.4101L16.1136 25.0229L11.8152 33.6413H6.984L8.5968 30.9485L11.8224 19.6373L9.6696 17.4845L4.8312 18.5645L4.2912 22.8701L5.904 24.4829L7.524 22.8773ZM15.084 29.2349L16.6896 25.9301L18.828 25.3757L20.4336 33.6485H15.084L16.1568 33.0941L15.084 29.2349ZM25.3944 25.4909L27 24.4037L29.6784 29.0261L29.1456 33.6485H24.3288L25.4016 32.0141V25.4909H25.3944Z" fill="black"/>
</g>
<defs>
<clipPath id="clip0_1_15883">
<rect width="36" height="36" fill="white" transform="translate(0 0.578125)"/>
</clipPath>
</defs>
</svg>
