<svg width="36" height="37" viewBox="0 0 36 37" fill="none" xmlns="http://www.w3.org/2000/svg">
<g clip-path="url(#clip0_1_15364)">
<path d="M18 14.9062C20.052 14.9062 21.7152 16.5695 21.7152 18.6143V18.6215C21.7152 20.6663 20.052 22.3295 18.0072 22.3295H18C15.9552 22.3295 14.292 20.6663 14.292 18.6215V18.6143C14.292 16.5695 15.948 14.9062 18 14.9062Z" fill="black"/>
<path d="M35.7337 18.5774C35.7337 20.2046 35.5177 21.8246 35.0785 23.387C34.7617 24.5246 33.5809 25.187 32.4433 24.8702C32.2705 24.8198 32.1121 24.755 31.9537 24.6686C31.1113 24.179 30.7009 23.1854 30.9601 22.2422C31.2913 21.047 31.4569 19.8158 31.4569 18.5774C31.4569 15.5246 30.4273 12.5582 28.5337 10.1606C26.5897 7.69822 23.8465 5.98462 20.7865 5.31502C19.7929 5.10622 19.0801 4.23502 19.0801 3.21982C19.0729 2.03902 20.0305 1.08142 21.2113 1.07422C21.3697 1.07422 21.5281 1.08862 21.6865 1.12462C25.9345 2.05342 29.7001 4.50142 32.2777 8.00782C32.8321 8.77822 33.3289 9.59182 33.7609 10.4414C35.0569 12.9542 35.7337 15.7478 35.7337 18.5774Z" fill="black"/>
<path d="M9.07874 33.756C7.66754 32.9496 6.37874 31.9488 5.24114 30.7824C4.42034 29.9328 4.44194 28.5792 5.29154 27.7584C5.41394 27.636 5.55794 27.5352 5.70914 27.4488C6.55154 26.9592 7.62434 27.1032 8.30834 27.8016C11.3323 30.912 15.6667 32.388 19.9651 31.7616C23.0755 31.3152 25.9339 29.8032 28.0507 27.4848C28.7275 26.7288 29.8363 26.556 30.7147 27.06C31.7371 27.6576 32.0755 28.968 31.4779 29.9832C31.3987 30.1128 31.3123 30.2352 31.2043 30.3504C28.2667 33.5544 24.2707 35.5848 19.9579 36.06C16.1779 36.4776 12.3619 35.6784 9.06434 33.7776L9.07874 33.756Z" fill="black"/>
<path d="M9.17248 3.02526C10.5837 2.21166 12.1029 1.59246 13.6869 1.18926C14.8317 0.894055 15.9981 1.58526 16.2861 2.73006C16.3293 2.90286 16.3509 3.08286 16.3509 3.26286C16.3509 4.24206 15.6957 5.09166 14.7453 5.33646C11.5053 6.16446 8.68288 8.15166 6.82528 10.9309C6.29968 11.7229 5.85328 12.5653 5.50768 13.4509C4.34128 16.3669 4.21888 19.5997 5.16928 22.5877C5.48608 23.5525 5.09008 24.6037 4.21167 25.1149C3.18927 25.7125 1.87887 25.3669 1.28847 24.3517C1.20927 24.2149 1.14447 24.0709 1.09407 23.9197C-0.511525 18.8293 0.230075 13.2781 3.13167 8.78526C4.65807 6.40926 6.72448 4.43646 9.17248 3.02526Z" fill="black"/>
</g>
<defs>
<clipPath id="clip0_1_15364">
<rect width="36" height="36" fill="white" transform="translate(0 0.578125)"/>
</clipPath>
</defs>
</svg>
