<svg width="36" height="37" viewBox="0 0 36 37" fill="none" xmlns="http://www.w3.org/2000/svg">
<path d="M35.7696 15.9151C35.3376 13.0927 33.9408 10.1479 32.0328 8.03106C29.7504 5.50386 26.9568 4.32306 24.1632 4.70466C17.3808 5.62626 15.948 11.5087 14.6736 16.6855L14.6664 16.6999L14.652 16.7503C13.5216 21.3367 12.5496 25.2967 8.40243 25.8511C5.66643 26.2327 3.57123 22.5607 3.16083 19.8823L3.10323 19.5079H3.09603C2.66403 15.9511 3.53523 12.5455 5.68803 9.35586L5.46483 13.4815L7.28643 12.7759L7.83363 4.53906L0.115234 8.14626L0.180034 9.96786L4.05363 8.11746C1.53363 11.8183 0.504034 15.9223 1.09443 20.0623L1.13043 20.2783C1.58403 23.2591 2.88003 26.3695 4.60083 28.6087C6.73203 31.4167 9.44643 32.8279 12.2256 32.5903C15.2784 32.3383 17.5824 30.9559 19.2744 28.3711C20.736 26.1247 21.5208 23.3599 22.284 20.6887V20.6671C23.6304 15.9439 24.7896 11.8615 28.9584 11.5015C30.5496 11.3791 31.6728 12.3799 32.328 13.2367C33.0624 14.2015 33.6312 15.5551 33.8256 16.8439C33.8472 17.0023 33.8688 17.1535 33.8832 17.3047C34.1568 20.5879 32.2056 24.9151 30.132 27.8239L30.3624 23.6119L28.5408 24.3175L28.008 32.5615L35.7336 28.9471L35.6688 27.1255L31.86 28.9399C34.56 25.1239 36.4896 20.6527 35.7696 15.9151ZM28.8144 9.47826C26.2872 9.67986 24.3792 10.8895 22.968 13.1575C21.7296 15.1447 21.0168 17.6935 20.3256 20.1487L20.3112 20.1919C19.5624 22.7983 18.8496 25.2679 17.6328 27.1615C16.2864 29.2567 14.5152 30.3295 12.0672 30.5311C9.64083 30.7399 7.76883 29.1991 6.55203 27.7231C7.23603 27.9391 7.97043 28.0111 8.71203 27.9175C11.2104 27.5791 13.0536 26.3119 14.3712 24.0583C15.516 22.0855 16.1208 19.6087 16.704 17.2111C17.9208 12.2287 19.0728 7.50546 24.4728 6.76386C26.5464 6.47586 28.6992 7.41906 30.528 9.43506C30.5928 9.49986 30.6504 9.57186 30.7152 9.63666C30.0816 9.47106 29.4552 9.41346 28.8144 9.47826Z" fill="#1B1B1B"/>
</svg>
