<svg width="36" height="37" viewBox="0 0 36 37" fill="none" xmlns="http://www.w3.org/2000/svg">
<g clip-path="url(#clip0_1_15917)">
<path fill-rule="evenodd" clip-rule="evenodd" d="M2.32571 25.0075C2.32571 26.0659 2.33291 27.1171 2.32571 28.1755C2.31851 29.3275 2.83691 30.1267 3.94571 30.6163C8.06411 32.4379 12.1825 34.2595 16.2793 36.1243C17.2945 36.5851 18.2161 36.5779 19.2169 36.1243C21.8089 34.9435 24.4225 33.8059 27.0217 32.6395C27.2377 32.5459 27.5977 32.5243 27.5689 32.2147C27.5473 31.9843 27.2233 31.9555 27.0217 31.8619C22.2769 29.7523 17.5321 27.6499 12.7945 25.5403C9.57611 24.1147 6.37211 22.6819 3.16811 21.2563C2.43371 20.9323 2.33291 20.9971 2.32571 21.7675C2.31851 22.8475 2.31851 23.9275 2.32571 25.0075Z" fill="#EF674E"/>
<path fill-rule="evenodd" clip-rule="evenodd" d="M33.7172 12.1692C33.7172 11.1396 33.71 10.11 33.7172 9.08042C33.7316 7.90682 33.2204 7.08602 32.0756 6.58202C27.9572 4.76762 23.846 2.93882 19.742 1.08122C18.7556 0.634822 17.8484 0.642022 16.8692 1.08842C14.2772 2.26922 11.6636 3.40682 9.06444 4.57322C8.84124 4.67402 8.48124 4.71002 8.47404 4.97642C8.45964 5.26442 8.83404 5.27162 9.05004 5.37242C12.9524 7.10762 16.862 8.83562 20.7716 10.5708C24.7964 12.3564 28.814 14.1564 32.8316 15.942C33.6308 16.2948 33.7028 16.2444 33.71 15.4164C33.7244 14.3292 33.7172 13.2492 33.7172 12.1692Z" fill="#FFB600"/>
<path fill-rule="evenodd" clip-rule="evenodd" d="M2.94512 11.5222C2.94512 12.5374 2.97392 13.5526 2.93792 14.5678C2.89472 15.7558 3.44192 16.5262 4.57232 17.023C14.0187 21.1774 23.4507 25.3462 32.8899 29.5078C33.6099 29.8246 33.6891 29.7814 33.6963 29.047C33.7035 27.0886 33.6315 25.123 33.7179 23.1646C33.7899 21.5302 33.0627 20.5942 31.4931 19.9246C26.3667 17.7502 21.2907 15.475 16.2003 13.2286C12.0387 11.3926 7.88432 9.54936 3.72992 7.70616C3.01712 7.38936 2.95952 7.42536 2.95232 8.17416C2.93792 9.29736 2.94512 10.4062 2.94512 11.5222Z" fill="#E05A00"/>
</g>
<defs>
<clipPath id="clip0_1_15917">
<rect width="36" height="36" fill="white" transform="translate(0 0.578125)"/>
</clipPath>
</defs>
</svg>
