<svg width="36" height="37" viewBox="0 0 36 37" fill="none" xmlns="http://www.w3.org/2000/svg">
<g clip-path="url(#clip0_1_15520)">
<path d="M15.9915 27.4783C16.0347 18.3775 16.0347 18.3775 15.5307 18.3055C13.4139 17.9887 12.0603 17.5063 10.5555 16.5415C8.53946 15.2455 7.28666 13.4743 6.78266 11.2135C6.43706 9.65826 6.55946 8.31186 7.22186 6.33906C7.89866 4.32306 7.92026 3.63186 7.33706 2.51586L6.89066 1.65906L8.69066 1.04706C10.7283 0.355856 10.6995 0.348656 11.2251 1.52226C11.7507 2.68146 11.6931 4.42386 11.0811 6.28866C10.4619 8.16066 10.3323 9.04626 10.4979 10.2127C10.8219 12.4735 12.3051 13.9351 14.9259 14.5759C16.3443 14.9215 19.9155 14.9143 21.1755 14.5687C22.4427 14.2159 23.6739 13.5463 24.3003 12.8479C25.7043 11.2999 25.9563 9.29825 25.0923 6.60545C24.3075 4.15746 24.3507 2.05506 25.2075 0.924656C25.4667 0.586256 25.4667 0.586256 26.8923 0.967856C29.4987 1.66626 29.3115 1.52946 28.7859 2.37906C28.1739 3.37266 28.1883 4.17186 28.8795 6.51186C29.6715 9.18305 29.5995 10.8319 28.5987 13.0207C27.9003 14.5471 26.2443 16.1671 24.5955 16.9375C23.3067 17.5423 21.0963 18.2335 20.4483 18.2335C19.6995 18.2335 19.6203 18.3271 19.7427 19.0687C19.8075 19.4431 19.8579 23.5327 19.8651 28.1623L19.8723 36.5719H17.9139H15.9555L15.9915 27.4783ZM6.86906 31.9567V30.2215H10.4043H13.9395V31.9567V33.6919H10.4043H6.86906V31.9567ZM21.8883 31.9567V30.2215H25.4235H28.9587V31.9567V33.6919H25.4235H21.8883V31.9567ZM6.86906 26.3263V24.5911H10.4043H13.9395V26.3263V28.0615H10.4043H6.86906V26.3263ZM21.8883 26.3263V24.5911H25.4235H28.9587V26.3263V28.0615H25.4235H21.8883V26.3263ZM6.86906 20.6959V18.9607H10.4043H13.9395V20.6959V22.4311H10.4043H6.86906V20.6959ZM21.8883 20.6959V18.9607H25.4235H28.9587V20.6959V22.4311H25.4235H21.8883V20.6959ZM19.4475 12.7111C19.0371 11.8975 18.4899 10.6231 18.2235 9.88866L17.7483 8.54225L17.5035 9.44946C17.2083 10.5367 15.5451 14.0431 15.3219 14.0359C15.2355 14.0287 14.4723 13.6903 13.6227 13.2799L12.0747 12.5311L14.1267 8.67185L16.1787 4.81266H17.7771H19.3755L21.4347 8.65026C22.5723 10.7599 23.4723 12.5095 23.4507 12.5311C23.3427 12.6247 20.3403 14.1943 20.2683 14.1943C20.2251 14.1943 19.8579 13.5319 19.4475 12.7111Z" fill="black"/>
</g>
<defs>
<clipPath id="clip0_1_15520">
<rect width="36" height="36" fill="white" transform="translate(0 0.578125)"/>
</clipPath>
</defs>
</svg>
