<svg width="36" height="37" viewBox="0 0 36 37" fill="none" xmlns="http://www.w3.org/2000/svg">
<g clip-path="url(#clip0_1_15362)">
<path fill-rule="evenodd" clip-rule="evenodd" d="M33.6315 21.407V23.9342C33.6315 30.947 23.3283 34.9862 20.1675 36.0518L19.0155 36.4406V32.0774L19.5771 31.8686C24.4875 30.0398 29.4483 26.879 29.4483 23.927V21.3998H33.6315V21.407ZM18.0291 0.707031L22.2411 1.98863V6.43823L18.0291 5.14943L17.7555 5.23583V15.251H22.2411V19.3766H17.7555V36.3758L16.5891 35.9438C16.0491 35.7422 15.1707 35.4038 14.0907 34.9214L13.5795 34.691V2.06783L18.0291 0.707031ZM12.2547 2.48543V6.91343L6.55234 8.66303V15.251H12.2547V34.3454L10.9947 33.7046C7.05634 31.703 2.36914 28.3334 2.36914 23.6246V21.407H6.54514V23.6246C6.54514 24.5966 7.05634 25.619 8.07154 26.6774V19.3838H2.36914V5.50223L12.2547 2.48543ZM23.5083 2.37743L33.6315 5.47343V19.3838H27.6843V25.403C27.6843 25.403 26.3523 27.1238 23.5083 28.5638C23.5083 27.7646 23.5083 15.5246 23.5083 8.06543V2.37743ZM27.6843 8.10863V15.2582H29.4483V8.64863L27.6843 8.10863Z" fill="#050101"/>
</g>
<defs>
<clipPath id="clip0_1_15362">
<rect width="36" height="36" fill="white" transform="translate(0 0.578125)"/>
</clipPath>
</defs>
</svg>
