<svg width="36" height="37" viewBox="0 0 36 37" fill="none" xmlns="http://www.w3.org/2000/svg">
<g clip-path="url(#clip0_1_15508)">
<path d="M11.2899 15.3735C11.5131 15.3879 11.7651 15.3591 12.0243 15.3375C12.2907 15.3159 12.5571 15.2655 12.8091 15.1719C12.9675 15.1143 13.1115 15.0207 13.1691 14.8623C13.2843 14.5599 13.3059 14.2431 13.2195 13.9335C13.0827 13.4583 12.7299 13.1343 12.3483 12.8391C12.0171 12.5799 11.6427 12.4791 11.2395 12.5511C10.5339 12.6663 9.82114 13.2927 9.73474 14.0271C9.69874 14.3511 9.67714 14.6607 9.86434 14.9487C9.98674 15.1431 10.1163 15.3087 10.3755 15.3303C10.6707 15.3519 10.9659 15.3735 11.2899 15.3735ZM24.5595 15.3735C24.7179 15.3879 24.9699 15.3519 25.2219 15.3375C25.4451 15.3231 25.6539 15.2727 25.7907 15.0639C25.9779 14.7687 26.0571 14.4447 26.0139 14.0991C25.9275 13.4943 25.5747 13.0695 25.0635 12.7671C24.6531 12.5295 24.2211 12.4503 23.7603 12.6159C23.4939 12.7095 23.2779 12.8895 23.0763 13.0839C22.7163 13.4223 22.4427 13.8039 22.4067 14.3151C22.3707 14.7831 22.5579 15.0711 23.0043 15.2007C23.4795 15.3447 23.9691 15.3663 24.5595 15.3735ZM26.9787 17.4255C26.9787 17.1303 26.9787 16.8279 26.8851 16.5471C26.7699 16.1871 26.7987 16.1799 26.4459 16.2159C25.9635 16.2591 25.5243 16.4607 25.0995 16.6767C24.4875 16.9791 23.9115 17.3391 23.3499 17.7135C22.8891 18.0159 22.4139 18.2967 22.0179 18.6855C21.7011 18.9951 21.4275 19.3191 21.3555 19.7799C21.3339 19.9239 21.3771 20.0031 21.5355 20.0391C21.6795 20.0751 21.8235 20.1039 21.9747 20.1039C22.5363 20.1039 23.0907 20.0031 23.6379 19.8663C24.3363 19.6935 25.0203 19.4631 25.6611 19.1319C26.0859 18.9087 26.4891 18.6567 26.8203 18.2967C26.9067 18.2031 26.9715 18.1023 26.9643 17.9655C26.9499 17.7783 26.9715 17.5983 26.9787 17.4255ZM9.08674 17.3751C9.09394 17.5047 9.11554 17.7207 9.11554 17.9295C9.10834 18.1311 9.20914 18.2679 9.33874 18.3903C9.88594 18.9231 10.5627 19.2327 11.2683 19.4991C11.7219 19.6719 12.1899 19.8015 12.6723 19.9095C13.1475 20.0175 13.6299 20.0895 14.1195 20.1039C14.2923 20.1111 14.4651 20.0895 14.6379 20.0319C14.7819 19.9815 14.8251 19.9167 14.8035 19.7727C14.7819 19.6503 14.7459 19.5279 14.6883 19.4199C14.4723 18.9807 14.1339 18.6495 13.7379 18.3831C12.7227 17.6847 11.7003 17.0079 10.5627 16.5111C10.2171 16.3599 9.86434 16.2375 9.47554 16.2447C9.34594 16.2447 9.28834 16.3023 9.23794 16.4103C9.12274 16.6983 9.11554 16.9935 9.08674 17.3751ZM5.52274 2.83827C5.43634 2.82387 5.42194 2.85267 5.34994 3.01827C5.07634 3.63747 4.99714 4.29987 4.96114 4.96227C4.93234 5.37267 4.96834 5.78307 5.00434 6.19347C5.02594 6.48147 5.06194 6.76227 5.10514 7.04307C5.15554 7.35267 5.20594 7.66947 5.27074 7.97907C5.34994 8.38947 5.44354 8.79987 5.54434 9.20307C5.67394 9.70707 5.81074 10.2111 5.95474 10.7151C6.07714 11.1327 6.20674 11.5431 6.33634 11.9535C6.34354 11.9823 6.35794 12.0183 6.39394 12.0183C6.42994 12.0183 6.43714 11.9895 6.45154 11.9679C6.73234 11.5287 7.01314 11.0823 7.32994 10.6647C7.72594 10.1463 8.12914 9.63507 8.58274 9.15987C8.94994 8.77827 9.32434 8.40387 9.73474 8.06547C10.1163 7.74867 10.4979 7.44627 10.9083 7.17267C10.9803 7.12227 10.9803 7.08627 10.9227 7.02147C10.6491 6.73347 10.3827 6.43107 10.1019 6.15027C9.62674 5.67507 9.14434 5.20707 8.62594 4.77507C8.25154 4.45827 7.87714 4.15587 7.47394 3.87507C7.05634 3.58707 6.61714 3.32067 6.16354 3.09747C5.95474 2.99667 5.73874 2.90307 5.52274 2.83827ZM26.0787 8.22387C26.1435 8.33907 26.2659 8.38947 26.3523 8.48307C26.7411 8.87907 27.1443 9.26067 27.5043 9.68547C27.7923 10.0239 28.0659 10.3695 28.3251 10.7295C28.5987 11.1039 28.8651 11.4927 29.1099 11.8815C29.1459 11.9391 29.1531 12.0327 29.2323 12.0327C29.2539 12.0327 29.2899 11.9247 29.3043 11.8599C29.4555 11.3487 29.6211 10.8375 29.7723 10.3191C29.9379 9.73587 30.0963 9.14547 30.2259 8.55507C30.3699 7.90707 30.4923 7.25187 30.5643 6.58947C30.6147 6.15027 30.6435 5.71107 30.6579 5.26467C30.6723 4.86867 30.6219 4.47987 30.5787 4.09107C30.5715 4.06227 30.5571 4.04067 30.5571 4.01187C30.5139 3.64467 30.3987 3.29907 30.2475 2.96067C30.1755 2.79507 30.1539 2.79507 29.9811 2.85987C29.3763 3.09747 28.8075 3.40707 28.2675 3.77427C27.4323 4.35027 26.6619 5.01987 25.9347 5.72547C25.5099 6.13587 25.0995 6.56787 24.7035 7.00707C24.6459 7.07187 24.6315 7.10787 24.7179 7.17267C25.0419 7.41027 25.3659 7.64787 25.6827 7.89987C25.8123 8.01507 25.9275 8.15187 26.0787 8.22387ZM25.8915 3.73827C26.2659 3.37827 26.6259 3.00387 27.0219 2.66547C27.7347 2.04627 28.4979 1.50627 29.3691 1.11747C29.9307 0.865471 30.5139 0.678271 31.1331 0.635071C31.2195 0.627871 31.2771 0.642271 31.3275 0.728671C31.5579 1.09587 31.7019 1.49187 31.8099 1.90227C32.0403 2.75187 32.0691 3.62307 32.0403 4.49427C32.0115 5.20707 31.9395 5.91267 31.8387 6.61827C31.7595 7.17987 31.6587 7.73427 31.5579 8.28867C31.5219 8.49747 31.4643 8.70627 31.4355 8.92227C31.4211 8.96547 31.4067 9.00867 31.3995 9.05187C31.2411 9.77187 31.0611 10.4919 30.8739 11.2047C30.6507 12.0471 30.4203 12.8823 30.1467 13.7103C30.0675 13.9551 30.1179 14.1351 30.2115 14.3439C30.4779 14.9415 30.8235 15.5031 31.0467 16.1151C31.2123 16.5543 31.3707 16.9935 31.5003 17.4399C31.7163 18.1671 31.8819 18.9159 32.0043 19.6647C32.0763 20.1255 32.1339 20.5863 32.1771 21.0543C32.2131 21.4575 32.2347 21.8607 32.2491 22.2639C32.2563 22.4151 32.3139 22.5735 32.2563 22.7319C32.0475 22.7031 31.8387 22.6599 31.6299 22.6383C30.9459 22.5663 30.2619 22.5303 29.5707 22.6023C28.7715 22.6815 28.0083 22.8615 27.2739 23.1711C26.3163 23.5671 25.4739 24.1431 24.7179 24.8559C24.5163 25.0503 24.3219 25.2519 24.1131 25.4535C24.0339 25.2159 23.9547 24.9855 23.8827 24.7551C23.6595 24.0999 23.3283 23.4951 23.0331 22.8759C22.9395 22.6887 22.8315 22.5159 22.6947 22.3575C22.2123 21.8031 21.6723 21.3207 21.0531 20.9319C20.0883 20.3415 19.0299 20.0823 17.9139 20.0751C17.3307 20.0751 16.7619 20.1903 16.2075 20.3631C15.1131 20.7087 14.2275 21.3639 13.4787 22.2135C13.2051 22.5231 13.0251 22.8903 12.8091 23.2359C12.5211 23.7039 12.2619 24.1935 12.0459 24.6975C11.9379 24.9423 11.8371 25.1871 11.7219 25.4463C11.6715 25.3887 11.6283 25.3455 11.5851 25.2951C10.2963 23.8695 8.74834 22.8831 6.81154 22.5879C6.09154 22.4799 5.37154 22.4727 4.65154 22.5303C4.29154 22.5591 3.93874 22.6239 3.58594 22.6815C3.59314 22.2783 3.62914 21.8751 3.65794 21.4719C3.70114 20.9463 3.77314 20.4207 3.86674 19.9023C3.93874 19.4631 4.03954 19.0239 4.14034 18.5847C4.30594 17.8863 4.50754 17.2023 4.75234 16.5255C4.79554 16.3959 4.86754 16.2663 4.74514 16.1439C4.73794 16.1367 4.75234 16.1223 4.75954 16.1007C4.83874 16.2015 4.88194 16.1871 4.91794 16.0719C5.16274 15.4167 5.44354 14.7759 5.73874 14.1351C5.76754 14.0703 5.78914 14.0127 5.76034 13.9407C5.49394 13.2711 5.26354 12.5871 5.06914 11.8887C4.91794 11.3631 4.78114 10.8303 4.66594 10.2903C4.57954 9.90147 4.49314 9.51267 4.40674 9.12387C4.38514 8.79987 4.30594 8.49027 4.26274 8.16627C4.19074 7.67667 4.12594 7.17987 4.06834 6.69027C4.01794 6.17907 3.98194 5.67507 3.95314 5.16387C3.93154 4.66707 3.92434 4.17027 3.93874 3.67347C3.96034 3.06147 4.00354 2.44947 4.16194 1.85187C4.24834 1.52787 4.35634 1.21107 4.53634 0.923071C4.74514 0.591871 4.91074 0.534271 5.29954 0.591871C5.97634 0.699871 6.56674 0.987871 7.13554 1.35507C7.89154 1.83747 8.56114 2.42787 9.19474 3.05427C9.44674 3.30627 9.70594 3.55827 9.95794 3.81027C9.97234 3.83187 9.98674 3.85347 10.0083 3.87507C10.3395 4.24227 10.6779 4.59507 11.0091 4.96947C11.4771 5.49507 11.9379 6.02067 12.3915 6.55347C12.4851 6.66147 12.5571 6.67587 12.6867 6.62547C13.4859 6.29427 14.3139 6.06387 15.1635 5.90547C15.8979 5.76867 16.6395 5.71827 17.3811 5.69667C18.4467 5.66067 19.5051 5.71107 20.5635 5.88387C21.5067 6.04227 22.4283 6.27987 23.3283 6.61827C23.5299 6.69747 23.5299 6.69747 23.6595 6.51747C24.0555 5.96307 24.4803 5.43027 24.9123 4.89747C25.2075 4.50147 25.5531 4.11987 25.8915 3.73827Z" fill="#F4A817"/>
<path d="M32.2558 22.7256C32.3134 22.5672 32.2486 22.416 32.2486 22.2576C32.2342 21.8544 32.2126 21.4512 32.1766 21.048C32.1334 20.5872 32.0758 20.1192 32.0038 19.6584C31.8814 18.9024 31.7158 18.1608 31.4998 17.4336C31.363 16.9872 31.2046 16.548 31.0462 16.1088C30.8158 15.4968 30.4774 14.928 30.211 14.3376C30.1174 14.1288 30.067 13.9416 30.1462 13.704C30.4198 12.876 30.6502 12.0408 30.8734 11.1984C31.0606 10.4856 31.2406 9.76562 31.399 9.04562C31.4062 9.00242 31.4206 8.95922 31.435 8.91602C31.8598 9.52802 32.227 10.1688 32.5654 10.8312C33.0046 11.688 33.3646 12.5736 33.6598 13.488C33.9118 14.2728 34.1062 15.072 34.2502 15.8856C34.4518 17.052 34.5454 18.2328 34.5238 19.4136C34.5094 20.3136 34.4302 21.2064 34.2862 22.0992C33.9118 24.3384 33.1558 26.448 31.9894 28.3992C30.8014 30.3864 29.2894 32.0784 27.4246 33.4464C26.395 34.2096 25.2862 34.836 24.1054 35.3328C23.4142 35.628 22.7086 35.8656 21.9814 36.06C21.1966 36.2688 20.3974 36.4056 19.5838 36.492C18.5902 36.5928 17.5966 36.6 16.6102 36.5136C15.7822 36.4416 14.9686 36.2976 14.155 36.096C13.0462 35.8224 11.9878 35.4264 10.9726 34.9224C8.5462 33.7128 6.5446 31.992 4.9318 29.8104C4.0822 28.6656 3.391 27.4272 2.8438 26.1096C2.527 25.3536 2.2678 24.5832 2.059 23.7984C1.843 22.9776 1.6846 22.1496 1.5838 21.3C1.4326 20.0688 1.4182 18.8376 1.5118 17.5992C1.591 16.5984 1.7494 15.6048 1.9942 14.6256C2.491 12.6672 3.2758 10.8384 4.3846 9.14642C4.3918 9.13922 4.399 9.13202 4.399 9.12482C4.4854 9.51362 4.5718 9.90241 4.6582 10.2912C4.7734 10.8312 4.9102 11.364 5.0614 11.8896C5.2558 12.5808 5.4862 13.272 5.7526 13.9416C5.7814 14.0136 5.7598 14.0712 5.731 14.136C5.4358 14.7696 5.155 15.4104 4.9102 16.0728C4.867 16.188 4.831 16.2024 4.7518 16.1016C4.7446 16.1232 4.7374 16.1448 4.7374 16.1448C4.8598 16.2744 4.7878 16.3968 4.7446 16.5264C4.507 17.2032 4.3054 17.8872 4.1326 18.5856C4.0246 19.0248 3.931 19.4568 3.859 19.9032C3.7726 20.4216 3.6934 20.9472 3.6502 21.4728C3.6214 21.876 3.5854 22.2792 3.5782 22.6824C3.5422 23.1864 3.5926 23.676 3.7222 24.1656C3.9166 24.8856 4.2334 25.548 4.6222 26.1816C5.407 27.4488 6.4222 28.5216 7.5454 29.4936C9.1006 30.8472 10.8214 31.9416 12.6934 32.8056C13.0606 32.9784 13.4278 33.1512 13.8094 33.288C14.0902 33.3888 14.371 33.4896 14.6518 33.5904C14.8246 33.648 15.0046 33.7128 15.1846 33.7704C15.847 33.972 16.5238 34.1088 17.215 34.1808C17.9998 34.26 18.7846 34.2096 19.5622 34.08C20.2606 33.9648 20.9446 33.792 21.6142 33.576C22.3054 33.3528 22.9822 33.0864 23.6446 32.7768C24.5806 32.3448 25.4734 31.848 26.3374 31.2792C27.151 30.7464 27.9142 30.156 28.6342 29.4936C28.9366 29.2128 29.2462 28.932 29.5054 28.608C29.5414 28.6008 29.5558 28.572 29.5702 28.5432H29.5774V28.536C29.5918 28.5216 29.6062 28.5144 29.6206 28.5C30.1102 27.9528 30.5638 27.3768 30.9454 26.7432C31.1542 26.3904 31.3774 26.0448 31.5502 25.6704C31.867 24.9936 32.0902 24.288 32.1982 23.5392C32.2486 23.2728 32.2702 22.9992 32.2558 22.7256Z" fill="#F00500"/>
<path d="M25.8911 3.73914C25.5527 4.12074 25.2071 4.49514 24.8831 4.89114C24.4511 5.41674 24.0263 5.94954 23.6303 6.51114C23.5007 6.69834 23.5007 6.69114 23.2991 6.61194C22.4063 6.27354 21.4775 6.03594 20.5343 5.87754C19.4831 5.70474 18.4175 5.65434 17.3519 5.69034C16.6103 5.71914 15.8615 5.76234 15.1343 5.89914C14.2847 6.05754 13.4567 6.28794 12.6575 6.61914C12.5279 6.66954 12.4559 6.65514 12.3623 6.54714C11.9087 6.01434 11.4479 5.48874 10.9799 4.96314C10.6487 4.59594 10.3103 4.23594 9.97911 3.86874C9.96471 3.84714 9.95031 3.82554 9.92871 3.80394C10.9007 3.23514 11.9231 2.75994 12.9959 2.40714C13.8887 2.11194 14.8031 1.89594 15.7391 1.75914C16.9343 1.58634 18.1295 1.56474 19.3319 1.65834C20.1527 1.72314 20.9663 1.86714 21.7727 2.06154C23.1911 2.41434 24.5303 2.96154 25.8047 3.67434C25.8407 3.70314 25.8695 3.72474 25.8911 3.73914Z" fill="#F00500"/>
<path d="M29.1671 28.874L29.1599 28.8812H29.1671V28.874ZM28.9223 29.1116C28.9151 29.1116 28.9151 29.1044 28.9079 29.1116C28.8935 29.1188 28.8935 29.1188 28.9079 29.126C28.9079 29.126 28.9151 29.126 28.9223 29.126C28.9223 29.126 28.9223 29.1188 28.9223 29.1116ZM20.0375 33.8924H19.9151C19.9583 33.9212 19.9943 33.9068 20.0375 33.8924ZM19.6343 33.95C19.7279 33.9788 19.7927 33.9572 19.8647 33.9212C19.7783 33.8924 19.7207 33.9356 19.6343 33.95ZM18.2159 28.8164C17.8343 28.8092 17.4527 28.8092 17.0711 28.8092C16.8407 28.8092 16.8479 28.8092 16.8551 29.0396C16.8551 29.0972 16.8839 29.126 16.9271 29.1548C17.0423 29.2268 17.1647 29.27 17.2871 29.3204C17.3735 29.3564 17.4167 29.3492 17.4527 29.2484C17.5175 29.0468 17.5247 29.054 17.7335 29.0684C17.8055 29.0756 17.8415 29.1044 17.8703 29.1548C17.9423 29.27 18.0143 29.3924 18.0863 29.5076C18.1943 29.6876 18.3743 29.702 18.5183 29.5364C18.5759 29.4644 18.6407 29.3924 18.6983 29.3204C18.8999 29.0828 18.8999 29.0828 19.1375 29.2844C19.1735 29.3132 19.1951 29.3564 19.2527 29.342C19.4471 29.2988 19.5911 29.1116 19.5983 28.9172C19.5983 28.8164 19.5623 28.802 19.4759 28.802C19.0511 28.8164 18.6335 28.8164 18.2159 28.8164ZM22.1111 27.65C21.7295 27.65 21.3479 27.65 20.9735 27.65C20.9159 27.65 20.8871 27.686 20.8727 27.722C20.8367 27.8228 20.7647 27.8444 20.6639 27.8372C20.3687 27.83 20.0735 27.83 19.7711 27.83C19.6199 27.83 19.4399 27.8732 19.3247 27.8084C19.2023 27.7364 19.1375 27.5636 19.0727 27.4268C19.0223 27.3332 18.9647 27.2828 18.8567 27.2972C18.7919 27.3116 18.7631 27.2828 18.7631 27.2108C18.7703 26.8724 18.7631 26.534 18.7631 26.1956C18.7631 26.138 18.7775 26.1092 18.8351 26.0876C19.0943 26.0012 19.3319 25.8644 19.5479 25.6988C19.9727 25.3748 20.2751 24.9644 20.3759 24.4244C20.4479 24.0572 20.4119 23.6828 20.4191 23.3084C20.4335 22.862 19.9799 22.4012 19.5335 22.4012C18.6983 22.4012 17.8703 22.4012 17.0351 22.4012C16.5311 22.4012 16.1927 22.7396 16.1927 23.2436C16.1927 23.4812 16.2071 23.7188 16.1927 23.9564C16.1639 24.446 16.3655 24.8348 16.6895 25.1732C17.0855 25.5836 17.5679 25.85 18.0863 26.0732C18.1367 26.0948 18.1871 26.102 18.1871 26.1812C18.1871 26.5196 18.1871 26.8652 18.1871 27.2036C18.1871 27.254 18.1727 27.2972 18.1151 27.2828C17.9783 27.2468 17.9279 27.3404 17.8775 27.434C17.8199 27.542 17.7479 27.65 17.6903 27.758C17.6615 27.8084 17.6327 27.8228 17.5751 27.8228C17.0423 27.8228 16.5167 27.8228 15.9839 27.794C15.9407 27.794 15.9047 27.794 15.8975 27.7364C15.8975 27.65 15.8399 27.6428 15.7679 27.6428C15.4007 27.6428 15.0335 27.6356 14.6591 27.6356C14.6303 27.6356 14.5871 27.614 14.5799 27.6644C14.5727 27.7076 14.5655 27.7508 14.6015 27.794C14.6663 27.8588 14.7239 27.9236 14.7959 27.9812C14.8823 28.0532 14.9183 28.1324 14.9255 28.2476C14.9327 28.406 14.9615 28.5572 14.9903 28.7084C15.0191 28.838 15.0551 28.874 15.1775 28.838C15.2639 28.8092 15.3575 28.802 15.3719 28.9388C15.3935 29.126 15.4511 29.306 15.5159 29.486C15.5951 29.7236 15.6887 29.9612 15.8399 30.1628C16.0127 29.9828 16.0271 29.774 16.0199 29.5508C16.0055 29.126 16.0127 28.7084 16.0127 28.2836C16.0703 28.2908 16.1423 28.2908 16.2071 28.3052C16.7687 28.4204 17.3375 28.4636 17.9063 28.4852C18.8279 28.5212 19.7351 28.442 20.6423 28.2836C20.7431 28.2692 20.7647 28.2908 20.7575 28.3844C20.7503 28.8164 20.7503 29.2484 20.7431 29.6804C20.7431 29.882 20.8799 30.0044 20.9735 30.17C21.1175 29.7884 21.2615 29.4284 21.3983 29.0684C21.4775 28.8596 21.4775 28.8596 21.6935 28.8596C21.7583 28.8596 21.8087 28.8596 21.8231 28.7876C21.9311 28.4132 22.0175 28.0388 22.1111 27.65ZM29.4047 28.6508C29.4119 28.6436 29.4191 28.6364 29.4263 28.622C29.4191 28.622 29.4191 28.6148 29.4119 28.6148C29.4047 28.622 29.3975 28.6364 29.4047 28.6508C29.3903 28.658 29.3831 28.6652 29.3759 28.6724C29.3399 28.6724 29.3183 28.6868 29.3183 28.7228C29.3039 28.7228 29.2967 28.73 29.2823 28.73C29.2823 28.7372 29.2895 28.7372 29.2895 28.7444C29.2967 28.7372 29.3039 28.73 29.3111 28.7228C29.3399 28.7156 29.3543 28.694 29.3687 28.6652C29.3831 28.6652 29.3903 28.658 29.4047 28.6508ZM29.2391 28.8092C29.2463 28.802 29.2607 28.802 29.2463 28.7876C29.2463 28.7948 29.2391 28.802 29.2391 28.8092C29.2319 28.8092 29.2247 28.8164 29.2247 28.8164C29.2319 28.8164 29.2319 28.8164 29.2391 28.8092ZM29.1023 28.946C29.1095 28.9388 29.1167 28.9316 29.1167 28.9316C29.1023 28.9172 29.1023 28.9316 29.0951 28.9388C29.0951 28.946 29.0879 28.9532 29.0879 28.9532C29.0951 28.9532 29.1023 28.9532 29.1023 28.946ZM29.5127 28.6004C29.2463 28.9244 28.9439 29.2052 28.6415 29.486C27.9287 30.1484 27.1583 30.7388 26.3447 31.2716C25.4879 31.8404 24.5879 32.3372 23.6519 32.7692C22.9895 33.0716 22.3127 33.3452 21.6215 33.5684C20.9519 33.7844 20.2679 33.9572 19.5695 34.0724C18.7919 34.202 18.0071 34.2524 17.2223 34.1732C16.5311 34.1084 15.8543 33.9716 15.1919 33.7628C15.0119 33.7052 14.8319 33.6404 14.6591 33.5828C14.3783 33.482 14.0975 33.3884 13.8167 33.2804C13.4351 33.1364 13.0679 32.9636 12.7007 32.798C10.8287 31.934 9.10793 30.8324 7.55273 29.486C6.42953 28.514 5.42153 27.4484 4.62953 26.174C4.24073 25.5404 3.92393 24.878 3.72953 24.158C3.59993 23.6756 3.54953 23.1788 3.58553 22.6748C3.93833 22.6172 4.29113 22.5524 4.65113 22.5236C5.37113 22.466 6.09113 22.4732 6.81113 22.5812C8.74793 22.8764 10.2887 23.8556 11.5847 25.2884C11.6279 25.3316 11.6711 25.382 11.7215 25.4396C11.8295 25.1804 11.9375 24.9356 12.0455 24.6908C12.2615 24.1868 12.5279 23.7044 12.8087 23.2292C13.0175 22.8836 13.2047 22.5164 13.4783 22.2068C14.2271 21.35 15.1127 20.6948 16.2071 20.3564C16.7615 20.1836 17.3303 20.0684 17.9135 20.0684C19.0367 20.0684 20.0951 20.3276 21.0527 20.9252C21.6791 21.3068 22.2191 21.7964 22.6943 22.3436C22.8311 22.502 22.9463 22.6748 23.0327 22.862C23.3351 23.4812 23.6663 24.086 23.8823 24.7412C23.9615 24.9716 24.0335 25.202 24.1127 25.4396C24.3215 25.238 24.5159 25.0364 24.7175 24.842C25.4663 24.1292 26.3159 23.5532 27.2735 23.1572C28.0079 22.8548 28.7783 22.6748 29.5703 22.5884C30.2615 22.5164 30.9455 22.5524 31.6295 22.6244C31.8383 22.646 32.0471 22.6892 32.2559 22.718C32.2631 22.9916 32.2415 23.2652 32.2055 23.5316C32.0975 24.2732 31.8743 24.9788 31.5575 25.6628C31.3847 26.0372 31.1615 26.3828 30.9527 26.7356C30.5783 27.3692 30.1175 27.9452 29.6279 28.4924C29.6135 28.5068 29.5991 28.514 29.5847 28.5284C29.5631 28.4708 29.6351 28.442 29.6279 28.3772C29.5703 28.4276 29.5127 28.4564 29.5055 28.5356C29.4911 28.5428 29.4623 28.5428 29.4623 28.5572C29.4551 28.5932 29.4839 28.586 29.5055 28.5932L29.5127 28.6004Z" fill="#FFFEFE"/>
<path d="M5.52222 2.83958C5.73822 2.90438 5.96142 2.99798 6.17022 3.10598C6.62382 3.32918 7.06302 3.59558 7.48062 3.88358C7.88382 4.16438 8.25822 4.46678 8.63262 4.78358C9.14382 5.21558 9.63342 5.68358 10.1086 6.15878C10.3894 6.43958 10.6558 6.74198 10.9294 7.02998C10.987 7.08758 10.987 7.13078 10.915 7.18118C10.5046 7.45478 10.123 7.76438 9.74142 8.07398C9.33102 8.41238 8.96382 8.78678 8.58942 9.16838C8.13582 9.63638 7.72542 10.1476 7.33662 10.6732C7.01982 11.0908 6.73902 11.53 6.45822 11.9764C6.44382 11.998 6.43662 12.0268 6.40062 12.0268C6.35742 12.0268 6.35022 11.9908 6.34302 11.962C6.21342 11.5516 6.07662 11.134 5.96142 10.7236C5.81742 10.2196 5.67342 9.71558 5.55102 9.21158C5.45022 8.80838 5.35662 8.39798 5.27742 7.98758C5.21982 7.67798 5.16222 7.36838 5.11182 7.05158C5.06862 6.77078 5.03262 6.48278 5.01102 6.20198C4.97502 5.79158 4.93902 5.38118 4.96062 4.97078C4.99662 4.30118 5.07582 3.64598 5.34942 3.02678C5.42142 2.84678 5.43582 2.82518 5.52222 2.83958Z" fill="#F28F1F"/>
<path d="M30.5859 4.0918C30.6291 4.4806 30.6795 4.8766 30.6651 5.2654C30.6507 5.7046 30.6219 6.151 30.5715 6.5902C30.4995 7.2526 30.3771 7.9078 30.2331 8.5558C30.1035 9.1462 29.9523 9.7366 29.7795 10.3198C29.6355 10.8382 29.4699 11.3422 29.3115 11.8606C29.2899 11.9254 29.2611 12.0334 29.2395 12.0334C29.1603 12.0262 29.1531 11.9398 29.1171 11.8822C28.8651 11.4862 28.6059 11.1046 28.3323 10.7302C28.0659 10.3774 27.7923 10.0246 27.5115 9.6862C27.1515 9.2614 26.7483 8.8798 26.3595 8.4838C26.2731 8.3974 26.1507 8.3398 26.0859 8.2246C26.1075 8.1958 26.1435 8.167 26.1579 8.131C26.3307 7.771 26.5179 7.4254 26.7267 7.087C27.0363 6.5758 27.3819 6.079 27.7851 5.6326C28.2099 5.1646 28.6851 4.7614 29.2539 4.4734C29.6643 4.2574 30.1107 4.1134 30.5859 4.0918Z" fill="#F28B20"/>
<path d="M9.08594 17.3755C9.10754 16.9939 9.12194 16.6987 9.23714 16.4179C9.28754 16.3027 9.34514 16.2523 9.47474 16.2523C9.86354 16.2451 10.2163 16.3675 10.5619 16.5187C11.6995 17.0083 12.7219 17.6851 13.7371 18.3907C14.1259 18.6643 14.4643 18.9955 14.6875 19.4275C14.7451 19.5427 14.7811 19.6579 14.8027 19.7803C14.8243 19.9243 14.7811 19.9891 14.6371 20.0395C14.4715 20.0971 14.2915 20.1187 14.1187 20.1115C13.6291 20.0971 13.1467 20.0179 12.6715 19.9171C12.1963 19.8091 11.7283 19.6795 11.2675 19.5067C10.5619 19.2403 9.89234 18.9307 9.33794 18.3979C9.20834 18.2683 9.10754 18.1387 9.11474 17.9371C9.12194 17.7211 9.09314 17.5051 9.08594 17.3755Z" fill="#1F1712"/>
<path d="M26.9779 17.426C26.9707 17.606 26.9491 17.786 26.9563 17.966C26.9563 18.1028 26.8915 18.2036 26.8123 18.2972C26.4883 18.6572 26.0851 18.9092 25.6531 19.1324C25.0123 19.4636 24.3283 19.7012 23.6299 19.8668C23.0827 19.9964 22.5355 20.0972 21.9667 20.1044C21.8155 20.1044 21.6715 20.0756 21.5275 20.0396C21.3763 20.0036 21.3259 19.9172 21.3475 19.7804C21.4195 19.3268 21.7003 18.9956 22.0099 18.686C22.4059 18.2972 22.8811 18.0164 23.3419 17.714C23.9107 17.3396 24.4867 16.9796 25.0915 16.6772C25.5235 16.4612 25.9555 16.2596 26.4379 16.2164C26.7907 16.1876 26.7619 16.1876 26.8771 16.5476C26.9851 16.8284 26.9779 17.1236 26.9779 17.426Z" fill="#1F1713"/>
<path d="M30.5858 4.09103C30.1106 4.10543 29.6642 4.25663 29.2394 4.46543C28.6706 4.75343 28.1954 5.15663 27.7706 5.62463C27.3674 6.07103 27.0218 6.56063 26.7122 7.07903C26.5106 7.41743 26.3162 7.76303 26.1434 8.12303C26.129 8.15903 26.093 8.18783 26.0714 8.21663C25.913 8.14463 25.805 8.00783 25.6754 7.89983C25.3658 7.64783 25.0346 7.41023 24.7106 7.17263C24.6242 7.10783 24.6386 7.07183 24.6962 7.00703C25.0922 6.56783 25.5026 6.13583 25.9274 5.72543C26.6618 5.01983 27.425 4.35023 28.2602 3.77423C28.793 3.40703 29.369 3.09743 29.9738 2.85983C30.1466 2.78783 30.1682 2.79503 30.2402 2.96063C30.3914 3.29183 30.5066 3.64463 30.5498 4.01183C30.5642 4.04063 30.5786 4.06943 30.5858 4.09103Z" fill="#F2991D"/>
<path d="M24.5594 15.3746C23.969 15.3674 23.4794 15.3458 22.997 15.2018C22.5506 15.0722 22.3562 14.7842 22.3994 14.3162C22.4426 13.805 22.7162 13.4162 23.069 13.085C23.2706 12.8978 23.4866 12.7178 23.753 12.617C24.2138 12.4514 24.6458 12.5306 25.0562 12.7682C25.5674 13.0706 25.9202 13.4954 26.0066 14.1002C26.057 14.4458 25.9778 14.7698 25.7834 15.065C25.6466 15.2738 25.4378 15.3242 25.2146 15.3386C24.9698 15.353 24.7178 15.389 24.5594 15.3746Z" fill="#FFFEFE"/>
<path d="M11.29 15.3736C10.966 15.3736 10.6708 15.352 10.3828 15.3304C10.1236 15.3088 9.99399 15.1432 9.87159 14.9488C9.68439 14.6608 9.70599 14.3512 9.74199 14.0272C9.82839 13.2928 10.5412 12.6736 11.2468 12.5512C11.6572 12.4792 12.0244 12.5872 12.3556 12.8392C12.7372 13.1344 13.0828 13.4584 13.2268 13.9336C13.3132 14.2432 13.2916 14.56 13.1764 14.8624C13.1116 15.028 12.9676 15.1144 12.8164 15.172C12.5644 15.2656 12.298 15.316 12.0316 15.3376C11.7652 15.3592 11.5132 15.388 11.29 15.3736Z" fill="#FFFEFE"/>
<path d="M29.5059 28.5432C29.5131 28.464 29.5779 28.4352 29.6283 28.3848C29.6355 28.4496 29.5635 28.4784 29.5851 28.536V28.5432H29.5779C29.5563 28.5432 29.5275 28.5432 29.5059 28.5432Z" fill="#F6D9A7"/>
<path d="M29.5059 28.543C29.5275 28.543 29.5491 28.543 29.5779 28.543C29.5635 28.5718 29.5491 28.6006 29.5131 28.6078L29.5059 28.6006C29.5059 28.579 29.5059 28.5574 29.5059 28.543Z" fill="#FFFEFE"/>
<path d="M22.1115 27.6498C22.0179 28.0386 21.9243 28.413 21.8379 28.7946C21.8235 28.8666 21.7731 28.8666 21.7083 28.8666C21.4923 28.8666 21.4923 28.8666 21.4131 29.0754C21.2763 29.4354 21.1395 29.7882 20.9883 30.177C20.8947 30.0042 20.7579 29.8818 20.7579 29.6874C20.7651 29.2554 20.7651 28.8234 20.7723 28.3914C20.7723 28.2906 20.7579 28.269 20.6571 28.2906C19.7499 28.449 18.8427 28.5282 17.9211 28.4922C17.3523 28.4706 16.7835 28.4274 16.2219 28.3122C16.1571 28.2978 16.0923 28.2978 16.0275 28.2906C16.0275 28.7154 16.0203 29.1402 16.0347 29.5578C16.0419 29.7882 16.0275 29.997 15.8547 30.1698C15.7035 29.9682 15.6099 29.7306 15.5307 29.493C15.4731 29.313 15.4083 29.1402 15.3867 28.9458C15.3723 28.809 15.2787 28.8234 15.1923 28.845C15.0627 28.881 15.0267 28.845 15.0051 28.7154C14.9763 28.5642 14.9475 28.4058 14.9403 28.2546C14.9331 28.1394 14.8971 28.0602 14.8107 27.9882C14.7387 27.9306 14.6811 27.8658 14.6163 27.801C14.5803 27.765 14.5875 27.7146 14.5947 27.6714C14.6019 27.621 14.6451 27.6426 14.6739 27.6426C15.0411 27.6426 15.4083 27.6498 15.7827 27.6498C15.8547 27.6498 15.9051 27.6642 15.9123 27.7434C15.9123 27.801 15.9555 27.801 15.9987 27.801C16.5315 27.8298 17.0571 27.8298 17.5899 27.8298C17.6475 27.8298 17.6835 27.8154 17.7051 27.765C17.7627 27.657 17.8347 27.549 17.8923 27.441C17.9427 27.3474 17.9931 27.2538 18.1299 27.2898C18.1947 27.3042 18.2019 27.261 18.2019 27.2106C18.2019 26.8722 18.2019 26.5266 18.2019 26.1882C18.2019 26.1162 18.1515 26.1018 18.1011 26.0802C17.5827 25.857 17.1003 25.5834 16.7043 25.1802C16.3803 24.8418 16.1787 24.453 16.2075 23.9634C16.2219 23.7258 16.2075 23.4882 16.2075 23.2506C16.2075 22.7466 16.5459 22.4082 17.0499 22.4082C17.8851 22.4082 18.7131 22.4082 19.5483 22.4082C19.9947 22.4082 20.4483 22.869 20.4339 23.3154C20.4195 23.6898 20.4555 24.0642 20.3907 24.4314C20.2899 24.9714 19.9947 25.3818 19.5627 25.7058C19.3467 25.8714 19.1091 26.0082 18.8499 26.0946C18.7923 26.1162 18.7779 26.145 18.7779 26.2026C18.7779 26.541 18.7779 26.8794 18.7779 27.2106C18.7779 27.2826 18.7995 27.3114 18.8715 27.297C18.9795 27.2754 19.0371 27.3258 19.0875 27.4266C19.1595 27.5634 19.2243 27.7434 19.3395 27.8082C19.4547 27.873 19.6347 27.8298 19.7859 27.8298C20.0811 27.8298 20.3763 27.8298 20.6787 27.837C20.7795 27.837 20.8515 27.8226 20.8875 27.7218C20.9019 27.6786 20.9307 27.6498 20.9883 27.6498C21.3555 27.6498 21.7299 27.6498 22.1115 27.6498Z" fill="#1D1919"/>
<path d="M18.2156 28.8172C18.6332 28.8172 19.0508 28.8172 19.4684 28.8172C19.5548 28.8172 19.598 28.8316 19.5908 28.9324C19.5836 29.1268 19.4396 29.3068 19.2452 29.3572C19.1876 29.3716 19.166 29.3284 19.13 29.2996C18.8924 29.098 18.8924 29.098 18.6908 29.3356C18.6332 29.4076 18.5684 29.4796 18.5108 29.5516C18.374 29.7172 18.194 29.71 18.0788 29.5228C18.0068 29.4076 17.9348 29.2852 17.8628 29.17C17.834 29.1196 17.798 29.0908 17.726 29.0836C17.5172 29.0692 17.51 29.062 17.4452 29.2636C17.4092 29.3644 17.366 29.3716 17.2796 29.3356C17.1572 29.2852 17.0276 29.242 16.9124 29.17C16.8692 29.1412 16.8404 29.1124 16.8404 29.0548C16.8332 28.8244 16.826 28.8244 17.0564 28.8244C17.4524 28.81 17.834 28.81 18.2156 28.8172Z" fill="#171413"/>
<path d="M19.6348 33.9506C19.7212 33.9362 19.786 33.893 19.8652 33.9218C19.7932 33.9578 19.7284 33.9794 19.6348 33.9506Z" fill="#F6D9A7"/>
<path d="M20.0374 33.8926C19.9942 33.9142 19.9582 33.9214 19.915 33.8926H20.0374Z" fill="#F6D9A7"/>
<path d="M29.5061 28.543C29.5061 28.5646 29.5061 28.579 29.5061 28.6006C29.4917 28.5934 29.4557 28.6006 29.4629 28.5646C29.4701 28.5502 29.4917 28.543 29.5061 28.543Z" fill="#F6D9A7"/>
<path d="M29.3184 28.7295C29.3184 28.6935 29.3328 28.6719 29.376 28.6791C29.3616 28.7007 29.3472 28.7223 29.3184 28.7295Z" fill="#F6D9A7"/>
<path d="M29.3188 28.7305C29.3116 28.7377 29.3044 28.7449 29.2972 28.7521C29.2972 28.7449 29.29 28.7449 29.29 28.7377C29.2972 28.7377 29.3044 28.7305 29.3188 28.7305Z" fill="#F7DDB0"/>
<path d="M28.9227 29.1107V29.1179C28.9227 29.1179 28.9155 29.1251 28.9083 29.1179C28.8939 29.1107 28.8939 29.1035 28.9083 29.1035C28.9155 29.1107 28.9227 29.1107 28.9227 29.1107Z" fill="#F7DDB0"/>
<path d="M29.3975 28.6434C29.4047 28.629 29.4047 28.6218 29.4119 28.6074C29.4191 28.6074 29.4191 28.6146 29.4263 28.6146C29.4191 28.629 29.4119 28.6434 29.3975 28.6434Z" fill="#F6D9A7"/>
<path d="M29.376 28.6733C29.3832 28.6661 29.3904 28.6517 29.4048 28.6445L29.412 28.6517C29.3904 28.6589 29.3832 28.6661 29.376 28.6733Z" fill="#F6D9A7"/>
<path d="M29.2324 28.8093C29.2396 28.8021 29.2396 28.7949 29.2468 28.7949C29.2684 28.8021 29.2468 28.8093 29.2324 28.8093Z" fill="#F7DDB0"/>
<path d="M29.239 28.8086C29.2318 28.8158 29.2246 28.8158 29.2246 28.823C29.2246 28.8158 29.2318 28.8086 29.239 28.8086Z" fill="#F7DDB0"/>
<path d="M29.1674 28.875V28.8822H29.1602L29.1674 28.875Z" fill="#F7DDB0"/>
<path d="M29.0947 28.9391C29.1019 28.9319 29.1019 28.9175 29.1163 28.9319C29.1163 28.9319 29.1091 28.9391 29.1019 28.9463L29.0947 28.9391Z" fill="#F7DDB0"/>
<path d="M29.1091 28.9467C29.1019 28.9467 29.0947 28.9539 29.0947 28.9539C29.0947 28.9467 29.1019 28.9395 29.1019 28.9395C29.0947 28.9395 29.1091 28.9467 29.1091 28.9467Z" fill="#F7DDB0"/>
</g>
<defs>
<clipPath id="clip0_1_15508">
<rect width="36" height="36" fill="white" transform="translate(0 0.578125)"/>
</clipPath>
</defs>
</svg>
