<svg width="36" height="37" viewBox="0 0 36 37" fill="none" xmlns="http://www.w3.org/2000/svg">
<g clip-path="url(#clip0_1_15902)">
<path d="M16.2501 26.3112L0.237305 15.9792L0.395705 15.1512C1.9725 6.74879 9.4173 0.650391 18.0861 0.650391C26.8917 0.650391 34.3293 6.94319 35.7693 15.6192C35.8845 16.3032 35.4237 16.944 34.7397 17.0592C34.0557 17.1744 33.4149 16.7136 33.2997 16.0296C32.0613 8.57039 25.6605 3.15599 18.0861 3.15599C10.9077 3.15599 4.7013 8.00159 3.0309 14.7984L15.8685 23.0784L20.9805 17.7144C21.4557 17.2104 22.2549 17.196 22.7517 17.6712C23.2557 18.1464 23.2701 18.9456 22.7949 19.4424L16.2501 26.3112Z" fill="#238CFD"/>
<path d="M18.0867 36.507C9.41071 36.507 1.99471 30.3222 0.446711 21.7974C0.324311 21.1134 0.777911 20.4654 1.45471 20.343C2.13871 20.2206 2.78671 20.6742 2.90911 21.351C4.24831 28.6806 10.6275 34.0014 18.0867 34.0014C25.0707 34.0014 31.2123 29.1486 32.9979 22.3446L19.8939 14.0934L14.7747 19.4646C14.2995 19.9686 13.5003 19.983 13.0035 19.5078C12.4995 19.0326 12.4851 18.2334 12.9603 17.7366L19.4979 10.875L35.8275 21.1566L35.6547 22.0062C33.9267 30.4086 26.5395 36.507 18.0867 36.507Z" fill="#238CFD"/>
</g>
<defs>
<clipPath id="clip0_1_15902">
<rect width="36" height="36" fill="white" transform="translate(0 0.578125)"/>
</clipPath>
</defs>
</svg>
