<svg width="36" height="37" viewBox="0 0 36 37" fill="none" xmlns="http://www.w3.org/2000/svg">
<path d="M8.69035 27.0244C7.62475 21.6604 6.18475 18.2332 4.85995 16.1452C4.19035 15.1012 3.54955 14.3812 2.98075 13.9348C2.45515 13.5244 2.00875 13.3084 1.67755 13.258L1.47595 13.2796L1.46875 13.0204L1.60555 13.006V12.9844C1.62715 12.9844 1.67035 12.9988 1.68475 12.9988C5.49355 12.8332 8.65435 14.8996 11.0447 17.5204C13.4783 20.1844 15.1488 23.482 15.9335 25.6852L15.9911 25.822L8.72635 27.1468L8.69035 27.0244Z" fill="#B62121"/>
<g opacity="0.4">
<g opacity="0.4">
<path d="M8.69035 27.0224C7.62475 21.6584 6.18475 18.2312 4.85995 16.1432C4.19035 15.0992 3.54955 14.3792 2.98075 13.9328C2.45515 13.5224 2.00875 13.3064 1.67755 13.256L1.47595 13.2776L1.46875 13.0184L1.60555 13.004V12.9824C1.62715 12.9824 1.67035 12.9968 1.68475 12.9968C5.49355 12.8312 8.65435 14.8976 11.0447 17.5184C13.4783 20.1824 15.1488 23.48 15.9335 25.6832L15.9911 25.82L8.72635 27.1448L8.69035 27.0224Z" fill="url(#paint0_linear_1_15957)"/>
</g>
</g>
<path d="M2.47657 13.0627C2.47657 12.5083 2.03017 12.0547 1.47577 12.0547C0.921373 12.0547 0.467773 12.5011 0.467773 13.0555C0.467773 13.6099 0.914173 14.0635 1.46857 14.0635C2.02297 14.0707 2.47657 13.6171 2.47657 13.0627Z" fill="#EAA92B"/>
<path d="M13.4279 25.8924C12.7727 20.4492 11.6279 16.9284 10.4759 14.7468C9.89987 13.6524 9.31667 12.882 8.78387 12.3924C8.29427 11.9172 7.86227 11.6796 7.53107 11.5932C7.47347 11.6004 7.40867 11.586 7.32947 11.5932L7.32227 11.3484C7.36547 11.3412 7.42307 11.3556 7.46627 11.3556V11.334C7.48787 11.334 7.53107 11.3484 7.54547 11.3484C11.3615 11.4852 14.3423 13.7892 16.5095 16.5972C18.7199 19.4628 20.1167 22.8756 20.7287 25.1364L20.7647 25.2732L13.4207 25.9932L13.4279 25.8924Z" fill="#53FC18"/>
<g opacity="0.4">
<g opacity="0.4">
<path d="M13.4279 25.8943C12.7727 20.4511 11.6279 16.9303 10.4759 14.7487C9.89987 13.6543 9.31667 12.8839 8.78387 12.3943C8.29427 11.9191 7.86227 11.6815 7.53107 11.5951C7.47347 11.6023 7.40867 11.5879 7.32947 11.5951L7.32227 11.3503C7.36547 11.3431 7.42307 11.3575 7.46627 11.3575V11.3359C7.48787 11.3359 7.53107 11.3503 7.54547 11.3503C11.3615 11.4871 14.3423 13.7911 16.5095 16.5991C18.7199 19.4647 20.1167 22.8775 20.7287 25.1383L20.7647 25.2751L13.4207 25.9951L13.4279 25.8943Z" fill="url(#paint1_linear_1_15957)"/>
</g>
</g>
<path d="M8.35176 11.4927C8.39496 10.9383 7.98456 10.4559 7.43016 10.4055C6.87576 10.3623 6.39336 10.7727 6.34296 11.3271C6.29976 11.8815 6.71016 12.3639 7.26456 12.4143C7.81896 12.4575 8.30136 12.0471 8.35176 11.4927Z" fill="#EAA92B"/>
<path d="M27.4749 26.7725C28.5693 21.4085 30.0021 17.9957 31.3269 15.9005C31.8381 15.0725 32.4717 14.3237 33.2061 13.6901C33.7317 13.2725 34.1709 13.0637 34.5093 13.0133C34.5669 13.0061 34.6317 13.0205 34.7109 13.0133L34.7253 12.7685C34.6821 12.7757 34.6245 12.7613 34.5813 12.7613V12.7397L34.5021 12.7469C30.6861 12.5885 27.5325 14.6261 25.1277 17.2469C22.6869 19.9181 21.0165 23.1941 20.2317 25.4117L20.1885 25.5557L27.4605 26.8805L27.4749 26.7725Z" fill="#58E236"/>
<g opacity="0.4">
<g opacity="0.4">
<path d="M27.4749 26.7706C28.5693 21.4066 30.0021 17.9938 31.3269 15.8986C31.8381 15.0706 32.4717 14.3218 33.2061 13.6882C33.7317 13.2706 34.1709 13.0618 34.5093 13.0114C34.5669 13.0042 34.6317 13.0186 34.7109 13.0114L34.7253 12.7666C34.6821 12.7738 34.6245 12.7594 34.5813 12.7594V12.7378L34.5021 12.745C30.6861 12.5866 27.5325 14.6242 25.1277 17.245C22.6869 19.9162 21.0165 23.1922 20.2317 25.4098L20.1885 25.5538L27.4605 26.8786L27.4749 26.7706Z" fill="url(#paint2_linear_1_15957)"/>
</g>
</g>
<path d="M35.7412 12.84C35.7412 12.2856 35.2948 11.832 34.7404 11.832C34.186 11.832 33.7324 12.2784 33.7324 12.8328C33.7324 13.3872 34.1788 13.8408 34.7332 13.8408C35.2876 13.8408 35.7412 13.3944 35.7412 12.84Z" fill="#EAA92B"/>
<path d="M23.2419 25.8931C23.4795 20.4211 24.3435 16.8139 25.3299 14.5603C25.8195 13.4227 26.3451 12.6235 26.8419 12.0835C27.2955 11.5939 27.6915 11.3131 28.0299 11.2195C28.0875 11.2123 28.1523 11.2051 28.2315 11.1979L28.2099 10.9603L28.0731 10.9747V10.9531C28.0443 10.9531 28.0155 10.9603 27.9939 10.9819C24.1995 11.4283 21.3987 13.9339 19.4547 16.8931C17.4531 19.9243 16.3371 23.4307 15.8979 25.7347L15.8691 25.8787L23.2707 26.0371L23.2419 25.8931Z" fill="#B62121"/>
<g opacity="0.4">
<g opacity="0.4">
<path d="M23.2419 25.8931C23.4795 20.4211 24.3435 16.8139 25.3299 14.5603C25.8195 13.4227 26.3451 12.6235 26.8419 12.0835C27.2955 11.5939 27.6915 11.3131 28.0299 11.2195C28.0875 11.2123 28.1523 11.2051 28.2315 11.1979L28.2099 10.9603L28.0731 10.9747V10.9531C28.0443 10.9531 28.0155 10.9603 27.9939 10.9819C24.1995 11.4283 21.3987 13.9339 19.4547 16.8931C17.4531 19.9243 16.3371 23.4307 15.8979 25.7347L15.8691 25.8787L23.2707 26.0371L23.2419 25.8931Z" fill="url(#paint3_linear_1_15957)"/>
</g>
</g>
<path d="M28.3753 11.9605C28.9225 11.8741 29.2969 11.3557 29.2105 10.8085C29.1241 10.2613 28.6057 9.88694 28.0585 9.97334C27.5113 10.0597 27.1369 10.5781 27.2233 11.1253C27.3097 11.6725 27.8281 12.0469 28.3753 11.9605Z" fill="#EAA92B"/>
<path d="M7.45898 25.043V27.5342H28.447V25.043H7.45898Z" fill="#EAA92B"/>
<defs>
<linearGradient id="paint0_linear_1_15957" x1="15.3173" y1="26.6393" x2="0.338183" y2="14.3939" gradientUnits="userSpaceOnUse">
<stop stop-color="white"/>
<stop offset="0.1205" stop-color="#FBFBFB"/>
<stop offset="0.2454" stop-color="#EEEEEE"/>
<stop offset="0.3724" stop-color="#DADADA"/>
<stop offset="0.5008" stop-color="#BCBCBC"/>
<stop offset="0.6304" stop-color="#979797"/>
<stop offset="0.761" stop-color="#696969"/>
<stop offset="0.8898" stop-color="#343434"/>
<stop offset="1"/>
</linearGradient>
<linearGradient id="paint1_linear_1_15957" x1="20.5366" y1="25.5575" x2="5.65639" y2="13.3932" gradientUnits="userSpaceOnUse">
<stop stop-color="white"/>
<stop offset="0.1205" stop-color="#FBFBFB"/>
<stop offset="0.2454" stop-color="#EEEEEE"/>
<stop offset="0.3724" stop-color="#DADADA"/>
<stop offset="0.5008" stop-color="#BCBCBC"/>
<stop offset="0.6304" stop-color="#979797"/>
<stop offset="0.761" stop-color="#696969"/>
<stop offset="0.8898" stop-color="#343434"/>
<stop offset="1"/>
</linearGradient>
<linearGradient id="paint2_linear_1_15957" x1="31.2483" y1="22.267" x2="25.1128" y2="17.2512" gradientUnits="userSpaceOnUse">
<stop stop-color="white"/>
<stop offset="0.2264" stop-color="#FCFCFC"/>
<stop offset="0.3626" stop-color="#F4F4F4"/>
<stop offset="0.475" stop-color="#E6E6E6"/>
<stop offset="0.5744" stop-color="#D1D1D1"/>
<stop offset="0.6652" stop-color="#B7B7B7"/>
<stop offset="0.7498" stop-color="#979797"/>
<stop offset="0.8297" stop-color="#707070"/>
<stop offset="0.9057" stop-color="#444444"/>
<stop offset="0.9761" stop-color="#121212"/>
<stop offset="1"/>
</linearGradient>
<linearGradient id="paint3_linear_1_15957" x1="26.4774" y1="22.05" x2="19.631" y2="16.4531" gradientUnits="userSpaceOnUse">
<stop stop-color="white"/>
<stop offset="0.2264" stop-color="#FCFCFC"/>
<stop offset="0.3626" stop-color="#F4F4F4"/>
<stop offset="0.475" stop-color="#E6E6E6"/>
<stop offset="0.5744" stop-color="#D1D1D1"/>
<stop offset="0.6652" stop-color="#B7B7B7"/>
<stop offset="0.7498" stop-color="#979797"/>
<stop offset="0.8297" stop-color="#707070"/>
<stop offset="0.9057" stop-color="#444444"/>
<stop offset="0.9761" stop-color="#121212"/>
<stop offset="1"/>
</linearGradient>
</defs>
</svg>
