<svg width="36" height="37" viewBox="0 0 36 37" fill="none" xmlns="http://www.w3.org/2000/svg">
<g clip-path="url(#clip0_1_15729)">
<path d="M26.773 27.176C26.6926 27.2195 26.6299 27.2052 26.5697 27.2052C23.6774 27.206 20.7845 27.242 17.8929 27.1967C14.2621 27.1397 11.5395 25.4878 9.93392 22.2313C7.47231 17.2389 10.3243 11.2155 15.7438 9.94677C19.1003 9.16096 22.0594 10.0078 24.4386 12.5561C25.8874 14.1077 26.633 15.9855 26.7486 18.1101C26.7698 18.4986 26.7729 18.8865 26.7729 19.2749C26.7731 21.8343 26.7731 24.3935 26.7731 26.9528C26.773 27.0265 26.773 27.1001 26.773 27.176ZM23.2554 23.6896C23.2587 23.6254 23.263 23.5827 23.263 23.54C23.2631 21.8383 23.2627 20.1365 23.2628 18.4348C23.2628 18.1506 23.2369 17.869 23.1913 17.5883C22.6582 14.3038 19.1691 12.3243 16.089 13.5599C13.556 14.576 12.2277 17.2665 12.9625 19.8926C13.5786 22.0942 15.6153 23.6736 17.8976 23.6942C19.6362 23.7099 21.3751 23.6984 23.1138 23.6986C23.1557 23.6986 23.1975 23.6934 23.2554 23.6896Z" fill="#21ED82"/>
<path d="M3.40855 8.79558C3.6306 8.98106 3.85783 9.13758 4.09716 9.27705C1.27598 13.8384 0.591548 18.6725 2.25388 23.7712C3.44088 27.4116 5.70636 30.2761 8.90575 32.3672C15.6269 36.76 24.3946 35.6615 29.8318 30.1493C35.501 24.402 36.2009 15.4536 31.6734 8.97126C29.0993 5.28587 25.5788 2.97518 21.1595 2.12781C16.754 1.2831 12.6486 2.13882 8.8457 4.5419C8.70062 4.29789 8.54488 4.07066 8.34624 3.83255C10.861 2.17835 13.6004 1.21182 16.5809 0.991C21.2721 0.643455 25.4864 1.92686 29.1255 4.91752C36.8695 11.2817 37.5471 22.5159 31.3476 29.7934C25.0002 37.2447 13.9325 37.9863 6.67612 31.8009C-0.790492 25.4363 -1.0034 15.2027 3.40855 8.79558Z" fill="#808D8E"/>
<path d="M5.75785 7.93797C4.78153 7.94128 3.99501 7.15662 3.99414 6.1785C3.99335 5.22954 4.77729 4.44582 5.73949 4.43373C6.6976 4.4217 7.49853 5.21536 7.50054 6.17894C7.50256 7.15288 6.72805 7.93473 5.75785 7.93797Z" fill="#21ED82"/>
</g>
<defs>
<clipPath id="clip0_1_15729">
<rect width="36" height="36" fill="white" transform="translate(0 0.578125)"/>
</clipPath>
</defs>
</svg>
