<svg width="36" height="37" viewBox="0 0 36 37" fill="none" xmlns="http://www.w3.org/2000/svg">
<path d="M0 2.77344V34.3814H29.268V30.839H3.5064V6.31584H29.268V2.77344H0Z" fill="black"/>
<path d="M32.1693 14.9208C32.1693 14.172 31.8813 13.5168 31.2981 12.9624C30.7149 12.408 29.9085 12.1272 28.8573 12.1272C27.9717 12.1272 27.2733 12.3072 26.7549 12.6816C26.2365 13.056 25.9773 13.5456 25.9773 14.1648C25.9773 14.4888 26.0421 14.784 26.1717 15.0432C26.3013 15.3024 26.5101 15.5328 26.8197 15.7488C27.1293 15.9648 27.5325 16.1376 28.0437 16.3032C28.5477 16.4688 29.1885 16.6128 29.9661 16.7568C31.9173 17.1168 33.4077 17.7216 34.4373 18.5496C35.4741 19.3992 35.9853 20.6376 35.9853 22.2864V22.6104C35.9853 23.4888 35.8269 24.2736 35.5173 24.9936C35.2077 25.6992 34.7613 26.2968 34.1781 26.808C33.5949 27.312 32.8893 27.6864 32.0469 27.9672C31.2045 28.2264 30.2685 28.3776 29.2173 28.3776C27.9933 28.3776 26.9205 28.1976 25.9845 27.852C25.0485 27.5064 24.2709 27.0168 23.6589 26.3976C23.0469 25.7784 22.5573 25.0584 22.2549 24.2232C21.9309 23.388 21.7725 22.4736 21.7725 21.4944V21.3288H25.2789C25.2789 22.452 25.6029 23.352 26.2509 24.036C26.8989 24.7056 27.8997 25.0512 29.2677 25.0512C30.3333 25.0512 31.1253 24.8208 31.6437 24.3456C32.1621 23.8704 32.4213 23.316 32.4213 22.6824C32.4213 22.3728 32.3709 22.092 32.2629 21.804C32.1477 21.5232 31.9749 21.2784 31.6941 21.0552C31.4349 20.8248 31.0677 20.6304 30.5925 20.4504C30.1245 20.2704 29.5413 20.1264 28.8285 19.9968C27.8925 19.8312 27.0357 19.6224 26.2437 19.3632C25.4661 19.104 24.7893 18.7584 24.2061 18.3336C23.6229 17.9088 23.1909 17.3688 22.8669 16.7208C22.5429 16.0656 22.3845 15.2808 22.3845 14.352V14.1864C22.3845 13.416 22.5429 12.7032 22.8525 12.048C23.1621 11.3928 23.5941 10.824 24.1629 10.3344C24.7317 9.84478 25.3869 9.47038 26.1789 9.21118C26.9709 8.95198 27.8421 8.80078 28.8285 8.80078C29.9301 8.80078 30.8949 8.96638 31.7517 9.27598C32.6085 9.58558 33.3213 10.0104 33.8973 10.5504C34.4805 11.0904 34.8693 11.724 35.2077 12.4152C35.6253 13.2504 35.6469 14.9424 35.6469 14.9424L32.1693 14.9208Z" fill="black"/>
</svg>
