<svg width="36" height="37" viewBox="0 0 36 37" fill="none" xmlns="http://www.w3.org/2000/svg">
<path d="M17.3662 4.44018C13.4935 12.8184 9.62397 21.19 5.75483 29.5607C2.90666 28.3625 0.463047 25.1163 0.708423 21.1878C0.850047 18.9204 1.75149 16.9839 3.4041 15.41C5.05722 13.8357 7.0468 13.0829 9.33258 13.0126C9.42215 9.99822 10.684 7.61963 13.1308 5.86967C14.5125 4.88147 16.5704 4.34442 17.3662 4.44018ZM21.3862 5.3067C21.4087 5.2581 21.4248 5.20647 21.4423 5.15571C21.4454 5.14679 21.4409 5.13462 21.4382 5.12439C21.4354 5.11431 21.4305 5.10488 21.416 5.06953C20.3467 4.59591 19.2112 4.36746 18.0384 4.36328C17.8149 4.8243 6.31247 29.5954 6.30959 29.8068C7.18274 30.2353 8.97806 30.4744 9.80656 30.357C13.6712 21.9969 17.529 13.6519 21.3862 5.3067ZM10.67 30.3793C11.8826 30.3793 13.0443 30.3793 14.2179 30.3793C17.7276 22.7858 21.2318 15.204 24.7397 7.6143C24.0316 6.74029 23.2122 6.00891 22.1888 5.45711C18.3399 13.7846 14.5128 22.0648 10.67 30.3793ZM18.8133 30.0025C19.4015 28.7305 19.9887 27.458 20.5765 26.1858C21.612 23.9453 22.6481 21.7051 23.6834 19.4644C24.6326 17.4101 25.58 15.355 26.5321 13.3021C26.6071 13.1403 26.6392 12.9815 26.6371 12.8033C26.6315 12.3489 26.5811 11.9012 26.5003 11.4545C26.3179 10.4466 25.9564 9.50855 25.4315 8.62172C25.4049 8.65347 25.3783 8.67435 25.3657 8.70164C22.0454 15.8816 18.7261 23.062 15.4074 30.2427C15.3986 30.2617 15.397 30.2844 15.3947 30.3057C15.3936 30.3155 15.3982 30.3263 15.4015 30.3362C15.405 30.3463 15.4102 30.3558 15.4227 30.3829C16.4807 30.3829 17.5468 30.3829 18.6286 30.3829C18.6919 30.2527 18.755 30.1287 18.8133 30.0025ZM23.0203 30.3816C23.2207 30.0838 30.5216 14.2623 30.5791 13.9901C29.7678 13.5741 28.9131 13.2831 27.9803 13.153C25.3406 18.8673 22.707 24.5681 20.0753 30.2698C20.0639 30.2946 20.0792 30.3316 20.0837 30.3816C21.0659 30.3816 22.045 30.3816 23.0203 30.3816ZM33.7638 16.7803C33.2417 16.034 32.6354 15.3866 31.8993 14.8348C31.863 14.8979 31.8334 14.9415 31.8116 14.9886C30.702 17.3843 29.5927 19.7801 28.4841 22.1762C27.7193 23.8293 26.9557 25.4829 26.1912 27.1361C25.7435 28.1043 25.294 29.0717 24.8492 30.0413C24.8028 30.1425 24.7145 30.2389 24.7683 30.3985C25.671 30.3886 26.5759 30.4374 27.5025 30.3298C29.5953 25.8008 31.6792 21.2913 33.7638 16.7803ZM34.7381 18.765C33.0349 22.4495 31.3467 26.1013 29.6336 29.8071C34.2451 28.2105 36.3976 22.8705 34.7381 18.765Z" fill="#0076F6"/>
</svg>
