<svg width="36" height="37" viewBox="0 0 36 37" fill="none" xmlns="http://www.w3.org/2000/svg">
<g clip-path="url(#clip0_1_15360)">
<path d="M29.4189 6.18749L21.5421 1.63709C19.4757 0.449094 16.9269 0.449094 14.8605 1.63709L6.97654 6.18749C4.91014 7.38269 3.63574 9.59309 3.63574 11.9763V21.0627C3.64294 23.4459 4.91014 25.6563 6.97654 26.8515L14.8533 31.4091C15.5373 31.8051 16.2933 32.0715 17.0709 32.2011V36.4131H19.5333V32.1651C20.2389 32.0211 20.9157 31.7691 21.5349 31.4091L29.4189 26.8587C31.4853 25.6635 32.7597 23.4531 32.7597 21.0627V11.9763C32.7525 9.58589 31.4853 7.38269 29.4189 6.18749ZM16.0917 3.77549C17.3949 3.02669 19.0077 3.02669 20.3109 3.77549L21.9525 4.72589L15.7461 8.72909C15.1557 9.06029 14.9469 9.81629 15.2781 10.4067C15.6093 10.9971 16.3653 11.2059 16.9557 10.8747C16.9989 10.8531 17.0421 10.8243 17.0781 10.7955L24.3501 6.10829L28.1877 8.32589C28.4685 8.49149 28.7277 8.68589 28.9653 8.90189L21.3333 13.8267C19.5837 12.1419 16.8189 12.1419 15.0693 13.8267L7.43734 8.90189C7.67494 8.67869 7.93414 8.48429 8.21494 8.32589L16.0917 3.77549ZM18.1941 19.1619C17.0493 19.1691 16.1061 18.2475 16.0989 17.1027C16.0917 15.9579 17.0133 15.0147 18.1581 15.0075C19.3029 15.0003 20.2461 15.9219 20.2533 17.0667C20.2533 17.0739 20.2533 17.0739 20.2533 17.0811C20.2533 18.2331 19.3245 19.1619 18.1797 19.1691L18.1941 19.1619ZM16.0917 29.2779L8.20774 24.7275C6.90454 23.9715 6.09814 22.5747 6.09814 21.0627V20.0331L12.8949 24.4107C13.4421 24.8139 14.2125 24.6915 14.6157 24.1443C15.0189 23.5971 14.8965 22.8267 14.3493 22.4235C14.3133 22.3947 14.2701 22.3659 14.2269 22.3443L6.09814 17.1027V11.9763C6.09814 11.6667 6.13414 11.3571 6.20614 11.0547L13.8093 15.9579C13.1685 18.3627 14.5941 20.8395 17.0061 21.4803L17.0709 21.5019V29.6883C16.7325 29.5875 16.4013 29.4507 16.0917 29.2779ZM30.2973 21.0627C30.2973 22.5747 29.4981 23.9715 28.1877 24.7275L20.3109 29.2779C20.0661 29.4219 19.8069 29.5371 19.5405 29.6235V21.4299C21.8733 20.7171 23.2197 18.2907 22.5861 15.9363L30.1893 11.0331C30.2613 11.3355 30.2973 11.6451 30.2973 11.9547V21.0627Z" fill="#3BB46C"/>
</g>
<defs>
<clipPath id="clip0_1_15360">
<rect width="36" height="36" fill="white" transform="translate(0 0.578125)"/>
</clipPath>
</defs>
</svg>
