<svg width="36" height="37" viewBox="0 0 36 37" fill="none" xmlns="http://www.w3.org/2000/svg">
<g clip-path="url(#clip0_1_15912)">
<path d="M2.55078 27.4358C2.55078 21.508 2.55078 15.5743 2.55078 9.59394C7.65587 6.63194 12.801 3.64667 17.965 0.650391C23.1173 3.61146 28.2763 6.57642 33.4516 9.55081C33.4516 15.4939 33.4516 21.4343 33.4516 27.3987C28.3307 30.3699 23.1893 33.353 18.0425 36.3393C12.8853 33.3753 7.73068 30.4127 2.55078 27.4358ZM18.0441 35.1038C22.8312 32.3267 27.6112 29.5538 32.3707 26.7927C32.3707 21.2351 32.3707 15.6991 32.3707 10.169C27.5511 7.39809 22.7558 4.64106 17.963 1.88555C13.1662 4.66835 8.38652 7.44122 3.63028 10.2005C3.63028 15.7618 3.63028 21.292 3.63028 26.824C8.4442 29.5894 13.241 32.3448 18.0441 35.1038Z" fill="black"/>
<path d="M18.0437 35.103C13.2406 32.344 8.4438 29.5885 3.62988 26.8233C3.62988 21.2912 3.62988 15.761 3.62988 10.1997C8.38613 7.44043 13.1658 4.66764 17.9626 1.88477C22.7554 4.64028 27.5507 7.39723 32.3703 10.1682C32.3703 15.6983 32.3703 21.2343 32.3703 26.7919C27.6108 29.5531 22.8308 32.3259 18.0437 35.103ZM11.741 9.69396C11.7331 9.77273 11.7231 9.82572 11.7231 9.87878C11.7223 10.9985 11.7187 12.1183 11.7288 13.2379C11.7297 13.3447 11.7925 13.4763 11.8694 13.5535C13.3592 15.049 14.8555 16.5381 16.3501 18.0288C16.4001 18.0786 16.4467 18.1318 16.5018 18.1908C16.4407 18.2548 16.3957 18.3039 16.3486 18.351C14.8162 19.8815 13.2821 21.4105 11.7549 22.9462C11.6792 23.0223 11.6241 23.1564 11.6234 23.264C11.6145 24.5978 11.6173 25.9317 11.6182 27.2656C11.6183 27.3304 11.6292 27.3951 11.6378 27.4913C13.2821 27.4913 14.9108 27.4913 16.5681 27.4913C16.5681 27.9359 16.5681 28.3481 16.5681 28.7742C17.3933 28.7742 18.1894 28.7742 19.0163 28.7742C19.0163 28.3336 19.0163 27.9095 19.0163 27.4527C20.5893 27.4527 22.132 27.4527 23.6781 27.4527C23.6781 26.238 23.6781 25.0572 23.6781 23.864C21.1869 23.8365 18.7191 23.8093 16.1914 23.7813C18.0302 21.945 19.8297 20.1479 21.6449 18.3352C19.9783 16.67 18.3442 15.0374 16.7102 13.4047C16.7205 13.386 16.7307 13.3675 16.741 13.3488C18.9888 13.3488 21.2366 13.3488 23.494 13.3488C23.494 12.1113 23.494 10.8993 23.494 9.66314C22.0759 9.66314 20.6781 9.66314 19.2432 9.66314C19.2432 9.16857 19.2432 8.69741 19.2432 8.22041C18.3951 8.22041 17.5844 8.22041 16.7356 8.22041C16.7356 8.71202 16.7356 9.18981 16.7356 9.69389C15.0494 9.69396 13.4011 9.69396 11.741 9.69396Z" fill="#FFC80D"/>
<path d="M11.7411 9.69418C13.4013 9.69418 15.0495 9.69418 16.7357 9.69418C16.7357 9.19011 16.7357 8.71232 16.7357 8.2207C17.5846 8.2207 18.3953 8.2207 19.2433 8.2207C19.2433 8.69763 19.2433 9.16887 19.2433 9.66344C20.6782 9.66344 22.076 9.66344 23.4941 9.66344C23.4941 10.8996 23.4941 12.1116 23.4941 13.3491C21.2367 13.3491 18.9889 13.3491 16.7411 13.3491C16.7308 13.3678 16.7206 13.3863 16.7103 13.405C18.3444 15.0376 19.9784 16.6703 21.645 18.3355C19.8298 20.1483 18.0304 21.9453 16.1915 23.7816C18.7193 23.8096 21.1871 23.8368 23.6783 23.8643C23.6783 25.0575 23.6783 26.2383 23.6783 27.453C22.1321 27.453 20.5895 27.453 19.0164 27.453C19.0164 27.9098 19.0164 28.3339 19.0164 28.7745C18.1896 28.7745 17.3934 28.7745 16.5682 28.7745C16.5682 28.3484 16.5682 27.9362 16.5682 27.4916C14.9109 27.4916 13.2822 27.4916 11.6379 27.4916C11.6293 27.3954 11.6183 27.3307 11.6183 27.2659C11.6174 25.932 11.6147 24.5981 11.6235 23.2643C11.6242 23.1567 11.6794 23.0227 11.7551 22.9465C13.2823 21.4108 14.8163 19.8818 16.3487 18.3513C16.3958 18.3042 16.4409 18.2551 16.5019 18.1911C16.4468 18.1321 16.4002 18.0789 16.3502 18.029C14.8557 16.5384 13.3594 15.0493 11.8695 13.5538C11.7926 13.4766 11.7299 13.345 11.7289 13.2382C11.7188 12.1186 11.7224 10.9988 11.7232 9.87908C11.7233 9.82594 11.7332 9.77288 11.7411 9.69418Z" fill="black"/>
</g>
<defs>
<clipPath id="clip0_1_15912">
<rect width="36" height="36" fill="white" transform="translate(0 0.578125)"/>
</clipPath>
</defs>
</svg>
