<svg width="36" height="37" viewBox="0 0 36 37" fill="none" xmlns="http://www.w3.org/2000/svg">
<path d="M35.6219 6.05809C35.3117 7.3191 35.0312 8.45965 34.7438 9.62836C34.5892 9.64506 34.4415 9.67501 34.2939 9.67458C33.512 9.67213 32.9203 10.0283 32.6154 10.7233C32.2394 11.5803 31.9055 12.4629 31.6419 13.3604C31.2604 14.6592 30.9568 15.981 30.6253 17.2943C30.5952 17.4136 30.604 17.5427 30.5906 17.7205C30.8516 17.5773 31.0604 17.4627 31.273 17.346C32.5138 17.346 33.7578 17.346 35.0857 17.346C34.9424 18.3705 34.6311 19.3126 34.3843 20.3133C32.9033 20.3133 31.4413 20.3133 29.94 20.3133C29.7963 20.8951 29.6755 21.4454 29.5235 21.987C29.0929 23.5217 28.6759 25.0611 28.2025 26.5828C27.8362 27.76 27.2137 28.8138 26.489 29.813C24.6705 32.3204 21.1933 31.8854 19.6896 29.9071C18.9925 28.9899 18.4783 27.984 18.0913 26.91C17.208 24.4591 16.6176 21.9258 15.9985 19.4002C15.3951 16.9388 14.7733 14.4819 14.1422 12.0275C14.0177 11.5433 13.8317 11.0722 13.6412 10.6086C13.4899 10.2404 13.2754 9.90628 12.8098 9.8134C12.3517 9.91787 12.1725 10.3139 12.0398 10.6976C11.7118 11.6459 11.379 12.5973 11.1352 13.5693C10.4123 16.4517 9.74685 19.3485 9.02857 22.2321C8.5695 24.075 8.15068 25.9401 7.30482 27.6545C6.90162 28.4718 6.39741 29.252 5.84949 29.9819C5.11754 30.9568 4.09802 31.4878 2.86286 31.5251C2.05631 31.5494 1.2484 31.5297 0.360352 31.5297C0.533944 30.3254 0.911295 29.1947 1.17618 28.0013C1.31846 27.982 1.46332 27.9516 1.60934 27.9443C2.3739 27.9056 2.9651 27.5689 3.28708 26.8722C3.5884 26.2204 3.8813 25.5551 4.08052 24.8676C4.53023 23.3156 4.92026 21.7462 5.33181 20.1833C5.34729 20.1244 5.33375 20.0578 5.33375 19.9137C5.07246 20.0508 4.85582 20.1644 4.60936 20.2937C3.40156 20.2937 2.15841 20.2937 0.811504 20.2937C1.05609 19.2819 1.2885 18.3206 1.52805 17.3296C3.02111 17.3296 4.46219 17.3296 5.96771 17.3296C6.11726 16.742 6.24729 16.1746 6.40662 15.6154C6.87916 13.9571 7.33478 12.2931 7.8531 10.649C8.17696 9.62173 8.74929 8.71079 9.38296 7.83671C11.2943 5.20021 14.7845 5.69204 16.3405 7.83678C17.2282 9.06056 17.8259 10.4188 18.218 11.8565C18.9996 14.7225 19.7144 17.6067 20.46 20.4826C20.9424 22.3431 21.4215 24.2046 21.9237 26.0598C22.0311 26.4565 22.1963 26.8478 22.3975 27.2064C22.7982 27.9207 23.3578 27.9446 23.7109 27.2229C24.054 26.5216 24.3346 25.7744 24.5279 25.0181C25.2147 22.3302 25.8319 19.6246 26.5157 16.9359C27 15.0317 27.5213 13.1358 28.0793 11.2519C28.4417 10.028 29.0664 8.92146 29.8318 7.89589C30.7617 6.64964 31.9836 6.01374 33.5513 6.05528C34.2052 6.07256 34.8599 6.05809 35.6219 6.05809Z" fill="black"/>
</svg>
