<svg width="36" height="22" viewBox="0 0 36 22" fill="none" xmlns="http://www.w3.org/2000/svg">
<g clip-path="url(#clip0_1_15929)">
<path d="M21.2108 12.1106L18.0095 18.3259L13.8535 10.4444V10.4257L13.0111 8.89062L12.0938 10.4444L18.0095 21.1714L23.9253 10.4444L22.9892 8.89062L21.2108 12.1106Z" fill="#AA0E20"/>
<path d="M18.0089 0.578125L17.2787 1.73881L13.9277 7.35504L14.7702 8.96502L18.0089 3.81681L21.1727 8.96502L22.0338 7.28015L19.2257 2.56252L18.0089 0.578125Z" fill="#AA0E20"/>
<path d="M18.0094 3.62891C8.06864 3.62891 0 11.0423 0 11.061C0 11.0798 8.06864 18.4932 18.0094 18.4932C27.9501 18.4932 36 11.061 36 11.061C36 11.061 27.9314 3.62891 18.0094 3.62891ZM18.0094 16.827C10.259 16.827 1.51638 11.061 1.51638 11.061C1.51638 11.061 10.259 5.27633 18.0094 5.27633C25.7598 5.27633 34.5023 10.9113 34.5023 11.061C34.5023 11.2108 25.741 16.827 18.0094 16.827Z" fill="#AA0E20"/>
</g>
<defs>
<clipPath id="clip0_1_15929">
<rect width="36" height="20.5928" fill="white" transform="translate(0 0.578125)"/>
</clipPath>
</defs>
</svg>
