<svg width="36" height="37" viewBox="0 0 36 37" fill="none" xmlns="http://www.w3.org/2000/svg">
<g clip-path="url(#clip0_1_15358)">
<path d="M18.1608 1.1543C27.6907 1.20398 35.5424 8.93591 35.5144 18.6603C35.4866 28.3139 27.6687 36.0662 18.1137 36.0508C8.58065 36.0356 0.731142 28.2754 0.758862 18.5537C0.786366 8.87889 8.62774 1.17899 18.1608 1.1543ZM25.3883 20.4934C28.5118 20.5603 31.4412 17.9716 31.4543 14.4335C31.4665 11.1043 28.7048 8.34357 25.3735 8.37654C21.7768 8.41218 19.3431 11.3722 19.3374 14.4207C19.3309 17.8142 22.1655 20.5567 25.3883 20.4934ZM10.8533 20.4934C14.0832 20.5718 16.9244 17.8399 16.936 14.4531C16.9465 11.4166 14.5409 8.42997 10.933 8.37741C7.60491 8.32895 4.81801 11.0904 4.81858 14.4048C4.81923 17.978 7.75712 20.5464 10.8533 20.4934ZM24.1675 27.1455C24.2494 24.0342 21.6785 21.0687 18.1425 21.0624C14.5536 21.0559 12.0804 24.0694 12.0908 27.1289C12.1019 30.4015 14.8025 33.165 18.0982 33.1851C21.4357 33.2054 24.2139 30.4177 24.1675 27.1455ZM18.162 8.61515C19.4012 8.60529 20.4064 7.59138 20.4077 6.3496C20.4092 5.09385 19.3582 4.04826 18.111 4.06468C16.8823 4.08088 15.8667 5.11106 15.8653 6.34262C15.8639 7.60888 16.8911 8.6253 18.162 8.61515ZM7.55545 27.0125C8.79694 27.0139 9.81553 25.9967 9.80746 24.7635C9.79947 23.5319 8.77426 22.5335 7.52607 22.5418C6.31316 22.5498 5.31142 23.5485 5.29853 24.7624C5.28557 25.9864 6.31345 27.0111 7.55545 27.0125ZM28.717 27.0124C29.9587 27.0086 30.9922 25.9762 30.9746 24.7574C30.9567 23.5229 29.9288 22.5319 28.6771 22.5425C27.4614 22.5529 26.4653 23.5534 26.4608 24.7686C26.4562 26.0078 27.4703 27.0163 28.717 27.0124ZM31.1628 19.0432C32.5588 18.8393 33.0551 19.0723 33.6377 20.1785C34.1378 18.4889 33.5122 14.1779 32.5087 12.5655C33.0793 14.9725 32.6077 17.1023 31.1628 19.0432ZM3.61474 12.8318C2.62201 15.2106 2.2934 17.6573 2.58543 20.208C3.0895 19.0782 3.93485 18.726 5.15497 19.0859C3.67731 17.1739 3.24913 15.0988 3.61474 12.8318ZM24.3027 7.09163C24.5465 7.09163 24.6794 7.0989 24.8113 7.09055C26.8337 6.96189 28.6268 7.53126 30.1784 8.84433C30.2327 8.89026 30.3144 8.90373 30.3834 8.93238C28.8877 6.93496 27.0183 5.4352 24.7493 4.40567C25.2911 5.38588 25.2304 6.2591 24.3027 7.09163ZM11.5203 4.43764C9.89437 4.88145 6.16441 7.90854 5.82075 9.08661C7.58259 7.48446 9.63531 6.85893 12.005 7.15096C11.054 6.16787 10.9777 5.7106 11.5203 4.43764ZM20.6191 20.0966C19.3323 18.947 18.5357 17.5323 18.1425 15.7588C18.0313 16.1474 17.9652 16.4089 17.8807 16.6645C17.7899 16.9394 17.6941 17.2141 17.5775 17.4789C17.4687 17.726 17.3405 17.9664 17.2015 18.1981C17.0625 18.43 16.9092 18.6548 16.7446 18.8693C16.5682 19.0992 16.3763 19.3179 16.1819 19.5331C16.0157 19.7171 15.8365 19.8893 15.6629 20.0667C16.5179 19.9156 17.324 19.7541 18.1626 19.7509C18.9962 19.7478 19.7941 19.9439 20.6191 20.0966ZM11.2187 29.7919C11.0775 30.3002 10.8629 30.7148 10.4525 31.021C10.0293 31.3369 9.53206 31.3019 8.92481 31.3223C10.9757 32.771 13.1008 33.701 15.4755 34.0554C13.4997 33.1911 12.0863 31.7824 11.2187 29.7919ZM25.0932 29.7855C24.7128 30.4112 24.4052 31.038 23.9838 31.5756C23.5702 32.1031 23.0799 32.5901 22.5513 33.0025C22.0251 33.413 21.4095 33.709 20.833 34.0551C23.1942 33.6768 25.3273 32.7714 27.3369 31.3275C25.8577 31.2731 25.4338 30.9735 25.0932 29.7855ZM11.1293 24.6321C11.4715 24.0268 11.7523 23.4318 12.1238 22.9004C12.4887 22.3785 12.9459 21.9212 13.4175 21.3714C12.0697 21.8269 10.7618 21.9185 9.39706 21.6608C10.733 22.9419 10.9461 23.3055 11.1293 24.6321ZM22.8669 21.4417C23.8921 22.3516 24.6225 23.4447 25.1233 24.7066C25.1932 24.0876 25.3412 23.5132 25.6454 22.9846C25.943 22.4679 26.3755 22.0751 26.8409 21.6986C25.4864 21.971 24.1811 21.8043 22.8669 21.4417ZM19.7987 9.58766C18.6777 10.0706 17.5809 10.0544 16.4622 9.57866C17.2858 10.5987 17.8156 11.7345 18.1369 13.1222C18.4683 11.7382 18.9858 10.6039 19.7987 9.58766ZM12.919 3.78057C13.8767 3.95805 14.4369 4.41215 14.6624 5.36025C15.0763 4.23352 15.7495 3.45376 16.7639 2.97676C15.4704 3.0587 14.2348 3.30652 12.919 3.78057ZM23.2303 3.76804C22.0282 3.32078 20.8046 3.04746 19.5339 2.94544C19.9617 3.28154 20.4154 3.55701 20.7607 3.9322C21.102 4.30278 21.3337 4.77417 21.6273 5.22251C21.8601 4.39638 22.4133 3.94624 23.2303 3.76804ZM5.34692 27.6184C6.08009 28.6819 6.88505 29.6602 7.92473 30.4586C7.56956 29.6546 7.7636 28.9539 8.37509 28.2355C7.20279 28.4609 6.24094 28.2105 5.34692 27.6184ZM30.923 27.6118C30.0313 28.2458 29.0504 28.4252 27.8733 28.2502C28.5522 28.949 28.6749 29.6654 28.3467 30.4687C29.3837 29.6525 30.2027 28.6818 30.923 27.6118ZM2.82245 21.6004C2.86378 22.5688 3.55613 24.6568 4.0196 25.2022C3.92521 24.1697 4.24136 23.2872 4.86711 22.414C3.97985 22.5228 3.31637 22.3039 2.82245 21.6004ZM32.3125 25.182C32.8824 24.0397 33.2901 22.8595 33.5032 21.6551C33.1957 21.877 32.9136 22.1606 32.5724 22.3037C32.2414 22.4427 31.85 22.4374 31.4463 22.5016C32.0627 23.3044 32.3274 24.1918 32.3125 25.182ZM12.9145 6.48662C13.5919 6.292 13.8637 5.95367 13.7824 5.43657C13.7166 5.01832 13.366 4.72694 12.927 4.72578C12.4796 4.72456 12.1051 5.04654 12.043 5.48567C11.979 5.93834 12.2765 6.28761 12.9145 6.48662ZM24.2362 5.59691C24.2436 5.1251 23.8295 4.72218 23.3412 4.72578C22.8565 4.72946 22.4955 5.07844 22.4816 5.55688C22.4672 6.04893 22.8478 6.46192 23.3306 6.47819C23.7837 6.49346 24.2289 6.06023 24.2362 5.59691ZM3.43402 20.6477C3.61107 21.3532 3.90116 21.6056 4.44425 21.5484C4.87525 21.5029 5.17657 21.1756 5.19284 20.735C5.21005 20.2707 4.9268 19.914 4.4719 19.8272C4.0016 19.7375 3.66392 19.9973 3.43402 20.6477ZM32.8322 20.6736C32.8319 20.2219 32.3787 19.7818 31.9237 19.7912C31.4754 19.8005 31.0895 20.1962 31.0803 20.6561C31.0701 21.1681 31.4299 21.5413 31.9382 21.546C32.4278 21.5505 32.8326 21.1555 32.8322 20.6736ZM10.2871 29.6047C10.2776 29.1533 9.92669 28.8132 9.46741 28.8104C8.98213 28.8073 8.62486 29.1673 8.63545 29.6486C8.64495 30.0824 9.02137 30.4586 9.45142 30.4641C9.89825 30.4697 10.2967 30.0601 10.2871 29.6047ZM27.6388 29.6093C27.631 29.1528 27.2884 28.8153 26.8274 28.8097C26.3425 28.8039 25.9761 29.167 25.9879 29.6416C25.9988 30.075 26.3768 30.457 26.8017 30.4639C27.2485 30.4712 27.6467 30.0646 27.6388 29.6093ZM21.7479 6.43478C21.7245 7.15931 21.4514 7.78175 21.1143 8.39037C21.8151 8.03922 22.4787 7.70673 23.216 7.33737C22.5539 7.2671 22.1296 6.90573 21.7479 6.43478ZM14.5531 6.34586C14.1636 6.91322 13.7134 7.24823 13.0879 7.35414C13.7966 7.70478 14.4656 8.0357 15.2026 8.40023C14.7737 7.76721 14.5784 7.13253 14.5531 6.34586ZM10.7387 26.502C10.3213 26.9482 9.87795 27.422 9.41564 27.916C10.0461 27.8983 10.4936 28.2367 10.8824 28.6465C10.8328 27.9065 10.7844 27.1843 10.7387 26.502ZM25.3811 28.6835C25.7495 28.1781 26.2637 27.9455 26.8182 27.8869C26.3616 27.4044 25.9187 26.9363 25.5175 26.5125C25.4753 27.1841 25.4294 27.9158 25.3811 28.6835ZM30.3295 19.9589C29.9499 20.2311 29.6646 20.4484 29.3662 20.6458C29.0822 20.8337 28.7844 21.0008 28.5102 21.1663C29.1549 21.2987 29.7643 21.4239 30.4099 21.5565C30.1681 21.0822 30.1192 20.5685 30.3295 19.9589ZM5.85977 21.5473C6.52311 21.4154 7.13518 21.2936 7.7713 21.1671C7.48402 20.9992 7.18277 20.8386 6.89816 20.6525C6.60073 20.4581 6.31928 20.2391 5.93638 19.9626C6.15159 20.5754 6.10997 21.0766 5.85977 21.5473Z" fill="black"/>
</g>
<defs>
<clipPath id="clip0_1_15358">
<rect width="36" height="36" fill="white" transform="translate(0 0.578125)"/>
</clipPath>
</defs>
</svg>
