<svg width="36" height="37" viewBox="0 0 36 37" fill="none" xmlns="http://www.w3.org/2000/svg">
<g clip-path="url(#clip0_1_15632)">
<path d="M17.9998 36.1109C27.683 36.1109 35.5328 28.2611 35.5328 18.5779C35.5328 8.89472 27.683 1.04492 17.9998 1.04492C8.31659 1.04492 0.466797 8.89472 0.466797 18.5779C0.466797 28.2611 8.31659 36.1109 17.9998 36.1109Z" fill="#5B6DEE"/>
<path d="M15.0416 17.5058C14.4302 17.5023 13.8199 17.5549 13.2181 17.6627C13.7134 13.0817 17.5312 9.61292 22.0765 9.61328C24.8595 9.61328 26.7664 10.976 26.7664 13.7974C26.7664 16.6188 24.4776 17.9814 21.1383 17.9814C18.6735 17.9813 17.5067 17.5058 15.0416 17.5058ZM14.8615 19.1767C11.5223 19.1767 9.2334 20.5393 9.2334 23.3607C9.2334 26.1822 11.1403 27.5448 13.9233 27.5448C18.4691 27.5448 22.2866 24.0764 22.7817 19.4954C22.1799 19.6032 21.5696 19.6558 20.9583 19.6523C18.4931 19.6521 17.3263 19.1767 14.8615 19.1767Z" fill="white"/>
</g>
<defs>
<clipPath id="clip0_1_15632">
<rect width="36" height="36" fill="white" transform="translate(0 0.578125)"/>
</clipPath>
</defs>
</svg>
