<svg width="36" height="37" viewBox="0 0 36 37" fill="none" xmlns="http://www.w3.org/2000/svg">
<g clip-path="url(#clip0_1_15515)">
<path d="M8.69796 11.8038C8.44596 11.5158 8.13636 11.3718 7.76916 11.3718H0.223564C0.158764 11.3718 0.101164 11.3502 0.0579641 11.307C0.0147641 11.2638 -0.00683594 11.2206 -0.00683594 11.1702V6.09418C-0.00683594 6.04378 0.0147641 6.00058 0.0579641 5.95738C0.101164 5.91418 0.151564 5.89258 0.223564 5.89258H8.19396C10.2028 5.89258 11.938 6.71338 13.3996 8.35498L15.3364 10.7166L11.5636 15.3102L8.69796 11.8038ZM22.6228 8.32618C24.0844 6.69898 25.8268 5.89258 27.85 5.89258H35.7916C35.8564 5.89258 35.9068 5.90698 35.9428 5.94298C35.9788 5.97898 35.9932 6.02938 35.9932 6.09418V11.1702C35.9932 11.2206 35.9788 11.271 35.9428 11.307C35.9068 11.3502 35.8564 11.3718 35.7916 11.3718H28.2604C27.8932 11.3718 27.5836 11.5158 27.3316 11.8038L21.7732 18.5574L27.3532 25.3614C27.6052 25.635 27.9076 25.7646 28.2604 25.7646H35.7988C35.8636 25.7646 35.914 25.7862 35.95 25.8294C35.986 25.8726 36.0004 25.9302 36.0004 25.995V31.071C36.0004 31.1214 35.986 31.1718 35.95 31.2078C35.914 31.251 35.8636 31.2726 35.7988 31.2726H27.8572C25.8268 31.2726 24.0916 30.4518 22.6516 28.8102L18.0292 23.1798L13.3996 28.803C11.938 30.4446 10.1956 31.2654 8.17236 31.2654H0.223564C0.158764 31.2654 0.108364 31.2438 0.0723641 31.2006C0.0363641 31.1574 0.0219641 31.107 0.0219641 31.035V25.959C0.0219641 25.9086 0.0363641 25.8654 0.0723641 25.8222C0.108364 25.779 0.158764 25.7574 0.223564 25.7574H7.76196C8.11476 25.7574 8.42436 25.6134 8.69076 25.3254L14.1484 18.6798L22.6228 8.32618Z" fill="#00D1FF"/>
</g>
<defs>
<clipPath id="clip0_1_15515">
<rect width="36" height="36" fill="white" transform="translate(0 0.578125)"/>
</clipPath>
</defs>
</svg>
