<svg width="36" height="37" viewBox="0 0 36 37" fill="none" xmlns="http://www.w3.org/2000/svg">
<g clip-path="url(#clip0_1_15542)">
<path d="M18 0.578125C27.936 0.578125 36 8.63492 36 18.5781C36 28.5213 27.936 36.5781 18 36.5781C8.064 36.5781 0 28.5141 0 18.5781C0 8.64212 8.0568 0.578125 18 0.578125Z" fill="black"/>
<path fill-rule="evenodd" clip-rule="evenodd" d="M8.3229 16.8565H24.9837C25.1925 16.8565 25.3869 16.9357 25.5309 17.0869L28.1661 19.7365C28.6557 20.2261 28.3101 21.0613 27.6189 21.0613H10.9581C10.7493 21.0613 10.5549 20.9821 10.4109 20.8309L7.7757 18.1813C7.2861 17.6989 7.6317 16.8565 8.3229 16.8565ZM7.7685 13.3429L10.4037 10.6933C10.5549 10.5421 10.7493 10.4629 10.9509 10.4629H27.6045C28.2957 10.4629 28.6485 11.2981 28.1517 11.7877L25.5237 14.4373C25.3797 14.5885 25.1781 14.6677 24.9765 14.6677H8.3229C7.6317 14.6677 7.2861 13.8325 7.7685 13.3429ZM28.1589 24.5893L25.5237 27.2461C25.3797 27.3901 25.1781 27.4765 24.9765 27.4765H8.3229C7.6317 27.4765 7.2861 26.6413 7.7685 26.1517L10.4037 23.4949C10.5549 23.3509 10.7493 23.2645 10.9509 23.2645H27.6045C28.3029 23.2573 28.6557 24.0925 28.1589 24.5893Z" fill="url(#paint0_linear_1_15542)"/>
</g>
<defs>
<linearGradient id="paint0_linear_1_15542" x1="8.73041" y1="28.2012" x2="27.2042" y2="9.7274" gradientUnits="userSpaceOnUse">
<stop stop-color="#CB4EE8"/>
<stop offset="1" stop-color="#10F4B1"/>
</linearGradient>
<clipPath id="clip0_1_15542">
<rect width="36" height="36" fill="white" transform="translate(0 0.578125)"/>
</clipPath>
</defs>
</svg>
