<svg width="36" height="37" viewBox="0 0 36 37" fill="none" xmlns="http://www.w3.org/2000/svg">
<path d="M0.201498 3.84115C6.1343 3.81235 12.0743 3.83395 18.0071 3.83395C17.9927 4.64755 18.0071 5.46115 17.9999 6.27475C13.6079 6.30355 9.2159 6.21715 4.8239 6.29635C4.2407 6.31075 3.6575 6.29635 3.0743 6.31795C3.4775 7.64275 4.5791 8.54995 5.5295 9.48595C9.0143 12.9635 12.4991 16.4411 15.9695 19.9331C16.6175 20.5883 17.3015 21.2003 18.0071 21.7908C17.9999 22.8132 18.0359 23.8355 17.9855 24.858C17.0351 24.6131 16.2647 23.9579 15.5951 23.2667C15.0911 22.7267 14.5799 22.1868 14.0399 21.6827C10.4111 18.0756 6.8687 14.3819 3.1607 10.8611C3.0095 10.7171 2.8655 10.5587 2.6855 10.4435C2.6351 13.4747 2.6207 16.5131 2.6423 19.5515C2.6567 22.1651 2.6567 24.7859 2.6135 27.3995C2.5703 28.3931 2.8439 29.3579 3.1679 30.2867C3.3191 31.2083 3.2471 32.1444 3.2687 33.066C3.2759 33.1379 3.2759 33.2747 3.2831 33.3395C2.2967 33.3683 1.5407 32.6411 0.950298 31.9355C0.727098 31.6259 0.381498 31.3811 0.302298 30.9923C0.136698 30.4091 0.187098 29.7971 0.215898 29.1995C0.194298 20.7467 0.172698 12.2939 0.201498 3.84115Z" fill="#5E8BC3"/>
<path d="M18.583 26.9458C18.7342 26.7514 18.8566 26.5354 19.0438 26.377C19.159 27.0394 19.2814 27.7018 19.5118 28.3282C19.7854 29.113 20.2822 29.8618 21.0382 30.2506C21.0526 31.1866 21.067 32.1154 21.0598 33.0514C21.0598 33.1234 21.0526 33.2674 21.0526 33.3466C20.5702 33.3826 20.0734 33.2098 19.735 32.8642C19.1446 32.281 18.871 31.4602 18.6334 30.6898C18.6406 30.1426 18.5902 29.6026 18.5902 29.0554C18.5758 28.3498 18.6046 27.6514 18.583 26.9458Z" fill="#5E8BC3"/>
<path d="M28.2528 26.3633C28.4328 27.8897 29.016 29.4881 30.2904 30.4313C30.2904 31.3313 30.3048 32.2241 30.2904 33.1241C30.2832 33.1817 30.2688 33.2897 30.2616 33.3473C29.7792 33.3761 29.2896 33.2033 28.9512 32.8577C28.3608 32.2745 28.0872 31.4609 27.8496 30.6833C27.8568 30.1865 27.8136 29.6897 27.8064 29.2001C27.7848 28.4513 27.8136 27.6953 27.792 26.9465C27.9432 26.7521 28.0872 26.5505 28.2528 26.3633Z" fill="#5E8BC3"/>
<path d="M8.94934 26.7012C9.04294 26.6076 9.12934 26.4996 9.25174 26.4492C9.45334 27.6516 9.69814 28.9476 10.5837 29.8476C11.0949 30.3156 11.8293 30.1788 12.4629 30.2652C12.4701 31.05 12.4485 31.842 12.4701 32.634C12.4701 32.8572 12.4701 33.0804 12.4773 33.3108C11.9157 33.282 11.3541 33.3612 10.7997 33.3036C10.3965 33.2532 9.96454 33.0732 9.75574 32.6988C9.30934 31.986 8.95654 31.158 8.21494 30.6972C8.21494 30.6396 8.20774 30.5316 8.20054 30.4812C8.22934 29.5236 8.16454 28.566 8.13574 27.6084C8.39494 27.2916 8.66854 26.9964 8.94934 26.7012Z" fill="#5E8BC3"/>
<path d="M18.0005 3.83117C23.9333 3.83837 29.8589 3.81677 35.7917 3.84557C35.8205 11.5784 35.7917 19.3112 35.8061 27.044C35.8061 27.98 35.8205 28.916 35.8061 29.852C35.7917 30.1112 35.7917 30.4064 35.6261 30.6224C34.9061 31.6808 33.8981 32.5592 32.6957 33.0344C31.9325 33.3296 31.0973 33.4592 30.2837 33.3512C30.2837 33.2936 30.2909 33.1856 30.2909 33.1352C30.3053 32.2352 30.2981 31.3424 30.2909 30.4424C30.8957 30.2768 31.5293 30.1976 32.0837 29.9096C32.5805 29.5928 32.7101 28.9592 32.7389 28.412C32.7677 27.3104 32.7389 26.2016 32.7461 25.1C32.7245 20.4416 32.7821 15.7832 32.7101 11.1248C32.5589 11.1896 32.4437 11.3192 32.3285 11.4344C28.8005 14.7464 25.4885 18.2672 22.0325 21.6512C21.2765 22.364 20.6141 23.1704 19.8365 23.8616C19.2965 24.3224 18.6701 24.7184 17.9717 24.8624C18.0149 23.84 17.9789 22.8176 17.9933 21.7952C21.4349 18.5408 24.7325 15.1352 28.0877 11.7944C29.0309 10.8656 29.9453 9.90797 30.9173 9.01517C31.6445 8.31677 32.3429 7.55357 32.8037 6.64637C32.8613 6.55277 32.8829 6.44477 32.8901 6.34397C30.6365 6.28637 28.3829 6.25757 26.1221 6.26477C23.4077 6.27197 20.6933 6.31517 17.9861 6.27917C18.0077 5.45837 17.9933 4.64477 18.0005 3.83117Z" fill="#9AC8D7"/>
<path d="M2.67881 10.4414C2.85881 10.5494 3.00281 10.7078 3.15401 10.859C6.86201 14.3798 10.4044 18.0734 14.0332 21.6806C12.334 22.307 10.8724 23.4158 9.24521 24.2006C7.02761 25.259 4.87481 26.4614 2.59961 27.4046C2.64281 24.791 2.64281 22.1702 2.62841 19.5566C2.60681 16.511 2.62841 13.4726 2.67881 10.4414Z" fill="#9AC8D7"/>
<path d="M16.532 29.5282C17.3528 28.7866 17.8856 27.793 18.584 26.9434C18.6056 27.649 18.5696 28.3474 18.5912 29.053C18.5912 29.6002 18.6416 30.1402 18.6344 30.6874C18.4688 30.7594 18.2888 30.8098 18.1736 30.961C17.9504 31.2346 17.9072 31.5874 17.7632 31.9042C17.6552 32.1634 17.432 32.3506 17.252 32.5522C16.9136 32.9122 16.5032 33.2578 15.9848 33.301C14.8184 33.3226 13.652 33.301 12.4784 33.3082C12.4784 33.085 12.4856 32.8546 12.464 32.6314C12.4424 31.8466 12.464 31.0546 12.4568 30.2626C13.5152 30.2554 14.5952 30.349 15.632 30.0826C15.9848 30.0034 16.2656 29.7514 16.532 29.5282Z" fill="#9AC8D7"/>
<path d="M25.2503 29.9032C26.3807 29.1904 26.9711 27.9448 27.7991 26.9512C27.8135 27.7 27.7919 28.456 27.8135 29.2048C27.8135 29.7016 27.8639 30.1984 27.8567 30.688C27.6911 30.7528 27.5111 30.8104 27.4031 30.9544C27.1727 31.2352 27.1295 31.6168 26.9711 31.9408C26.8703 32.1712 26.6687 32.3296 26.5103 32.5168C26.2151 32.8264 25.8839 33.136 25.4591 33.2512C25.2143 33.3304 24.9623 33.2944 24.7103 33.3016C23.5007 33.316 22.2983 33.2728 21.0887 33.3304C21.0887 33.2368 21.0815 33.1432 21.0743 33.0496C21.0815 32.1136 21.0671 31.1776 21.0527 30.2488C22.0535 30.2632 23.0615 30.3208 24.0551 30.2128C24.4583 30.1696 24.8975 30.148 25.2503 29.9032Z" fill="#9AC8D7"/>
<path d="M6.2431 29.9017C7.0495 29.2897 7.4743 28.3465 8.1295 27.5977C8.1583 28.5553 8.2231 29.5129 8.1943 30.4705C8.1727 30.7081 8.2447 30.9457 8.1943 31.1761C8.0791 31.9681 7.4959 32.5873 6.8551 33.0193C6.7111 33.0985 6.5815 33.2281 6.4087 33.2353C5.3719 33.3793 4.3207 33.2497 3.2767 33.3217C3.2695 33.2353 3.2623 33.1489 3.2551 33.0553C3.2335 32.1265 3.3055 31.1905 3.1543 30.2761C3.9175 30.2617 4.6879 30.2761 5.4439 30.1681C5.7175 30.1249 6.0199 30.0817 6.2431 29.9017Z" fill="#9AC8D7"/>
<path d="M4.82382 6.2949C9.21582 6.2157 13.6078 6.3021 17.9998 6.2733C20.7142 6.3093 23.4286 6.2661 26.1358 6.2589C28.3894 6.2517 30.643 6.2805 32.9038 6.3381C32.8966 6.4461 32.8678 6.5469 32.8174 6.6405C32.3566 7.5477 31.6582 8.3109 30.931 9.0093C29.9518 9.9021 29.0446 10.8597 28.1014 11.7885C24.7462 15.1293 21.4486 18.5421 18.007 21.7893C17.3086 21.1917 16.6174 20.5797 15.9694 19.9317C12.499 16.4397 9.00702 12.9621 5.52942 9.4845C4.57902 8.5485 3.47742 7.6413 3.07422 6.3165C3.65742 6.2949 4.24062 6.3093 4.82382 6.2949ZM12.9886 8.7789C12.355 8.9517 11.887 9.5565 11.8582 10.2045C11.7718 11.0037 12.4702 11.7669 13.2622 11.8101C13.831 11.8389 14.4142 11.5581 14.7094 11.0685C14.9038 10.7445 15.019 10.3485 14.9182 9.9741C14.731 9.1605 13.8166 8.4981 12.9886 8.7789ZM22.831 8.7717C21.9454 8.9877 21.3982 10.0821 21.8014 10.9101C21.9958 11.2629 22.2838 11.5869 22.6726 11.7237C23.2846 11.9469 24.0334 11.7525 24.4222 11.2269C24.6022 10.9677 24.7822 10.6725 24.7678 10.3413C24.811 9.3765 23.7886 8.4693 22.831 8.7717Z" fill="#CBE6E9"/>
<path d="M32.335 11.4287C32.4502 11.3135 32.5654 11.1839 32.7166 11.1191C32.7886 15.7775 32.7238 20.4359 32.7526 25.0943C32.7454 26.1959 32.7742 27.3047 32.7454 28.4063C32.7166 28.9535 32.587 29.5871 32.0902 29.9039C31.5286 30.1919 30.895 30.2711 30.2974 30.4367C29.0158 29.4863 28.4398 27.8951 28.2526 26.3615C28.087 26.5415 27.943 26.7503 27.7918 26.9447C26.9638 27.9455 26.3734 29.1839 25.243 29.8967C24.8902 30.1487 24.451 30.1631 24.0334 30.2135C23.0326 30.3215 22.0318 30.2639 21.031 30.2495C20.275 29.8607 19.7782 29.1119 19.5046 28.3271C19.2814 27.6935 19.1518 27.0311 19.0366 26.3759C18.8494 26.5343 18.727 26.7503 18.5758 26.9447C17.8774 27.7943 17.3446 28.7879 16.5238 29.5295C16.2502 29.7527 15.9766 30.0047 15.6238 30.0911C14.587 30.3575 13.507 30.2639 12.4486 30.2711C11.815 30.1847 11.0806 30.3143 10.5694 29.8535C9.68378 28.9535 9.43178 27.6503 9.23738 26.4551C9.11498 26.5055 9.02858 26.6135 8.93498 26.7071C8.66138 27.0023 8.38058 27.2975 8.11418 27.6071C7.45898 28.3559 7.03418 29.2991 6.22778 29.9111C6.00458 30.0983 5.70218 30.1343 5.42858 30.1847C4.67258 30.2927 3.90218 30.2783 3.13898 30.2927C2.81498 29.3639 2.54138 28.3991 2.58458 27.4055C4.85978 26.4623 7.01258 25.2599 9.23018 24.2015C10.8574 23.4167 12.319 22.3079 14.0182 21.6815C14.5654 22.1855 15.0694 22.7255 15.5734 23.2655C16.243 23.9567 17.0134 24.6119 17.9638 24.8567C18.6694 24.7127 19.2886 24.3167 19.8286 23.8559C20.6062 23.1647 21.2686 22.3583 22.0246 21.6455C25.495 18.2615 28.8142 14.7407 32.335 11.4287Z" fill="#CBE6E9"/>
<path d="M12.9891 8.77993C13.8243 8.50633 14.7315 9.16153 14.9187 9.98233C15.0195 10.3567 14.9043 10.7527 14.7099 11.0767C14.4147 11.5663 13.8243 11.8471 13.2627 11.8183C12.4707 11.7751 11.7795 11.0119 11.8587 10.2127C11.8875 9.55753 12.3555 8.95273 12.9891 8.77993Z" fill="#4B575C"/>
<path d="M22.8315 8.77209C23.7819 8.46969 24.8115 9.37689 24.7683 10.3345C24.7827 10.6657 24.6027 10.9609 24.4227 11.2201C24.0267 11.7457 23.2779 11.9401 22.6731 11.7169C22.2843 11.5801 21.9963 11.2561 21.8019 10.9033C21.3987 10.0825 21.9531 8.98809 22.8315 8.77209Z" fill="#4B575C"/>
</svg>
