<svg width="36" height="37" viewBox="0 0 36 37" fill="none" xmlns="http://www.w3.org/2000/svg">
<path d="M18.6555 16.5337H12.3555L15.0699 20.1913L15.1059 20.2273C15.1059 20.2633 15.1419 20.2633 15.1419 20.2993L15.5739 20.8753L16.8771 22.6465C16.9491 22.7185 17.0211 22.7905 17.0931 22.8625C17.5611 23.2225 18.2523 23.1145 18.6123 22.6465L19.9875 20.8033L21.6507 18.5929L22.0827 18.0169C22.0467 17.5489 22.0107 17.0737 21.9387 16.6417C21.9027 16.1737 21.6867 15.7345 21.3267 15.4105C20.9667 15.1585 20.5275 14.9785 20.0595 14.9785H20.0235C20.0235 15.0505 20.0235 15.0865 20.0235 15.1585C20.0307 15.9217 19.4187 16.5337 18.6555 16.5337Z" fill="black"/>
<path d="M28.6127 9.21888H17.7479C16.9847 9.21888 16.3727 8.60688 16.3727 7.84368C16.3727 7.77168 16.3727 7.73568 16.3727 7.66368C15.6815 7.62768 14.9975 7.77168 14.3783 8.02368C13.6511 8.34768 13.0031 8.78688 12.4919 9.39888C11.9519 10.0109 11.4767 10.7021 11.1167 11.4293C10.7927 12.1925 10.5047 12.9845 10.3535 13.7837H18.5759H18.6119H18.6479C19.1879 13.8197 19.7351 13.8917 20.2391 14.0717C20.8151 14.2157 21.3623 14.5397 21.7583 14.9789C21.8663 15.0869 21.9383 15.2309 22.0103 15.3749C22.0823 15.5189 22.1183 15.6629 22.1543 15.8069C22.2263 16.0589 22.2263 16.3469 22.2263 16.6421C22.2263 17.1101 22.1543 17.5493 22.1183 17.9813L28.6127 9.21888Z" fill="black"/>
<path d="M10.2883 13.7463C10.3963 12.9111 10.5763 12.0831 10.8643 11.2839C11.1523 10.4487 11.5555 9.69274 12.0235 8.96554C12.5275 8.23834 13.2187 7.62634 13.9819 7.15834C14.7451 6.72634 15.5731 6.46714 16.4443 6.43114C16.5523 6.43114 16.6603 6.43114 16.7683 6.43114C17.0203 6.43114 17.4955 6.43114 17.7475 6.43114H30.6715L32.7379 3.64474C32.8819 3.46474 32.9539 3.24874 32.9539 2.98954C32.9539 2.41354 32.4859 1.90234 31.8667 1.90234H3.59232C3.37632 1.90234 3.12432 1.97434 2.93712 2.11834C2.46912 2.47834 2.36112 3.13354 2.72112 3.63754L10.2883 13.7463Z" fill="black"/>
<path d="M16.7326 24.72L10.7998 16.5336L8.76937 13.7472L0.114969 1.86719L0.0429688 1.90319L6.05497 13.7472L7.46617 16.5336L14.5654 30.5448L16.6318 34.5984C16.7758 34.8504 16.9558 35.0664 17.2078 35.1744C17.863 35.4984 18.691 35.2464 19.015 34.5984L21.0814 30.6168L21.1174 30.5088L16.9558 24.8928C16.8478 24.864 16.8118 24.792 16.7326 24.72Z" fill="black"/>
<path d="M31.6516 7.66208L30.4996 9.21728L23.4724 18.5989L21.8092 20.8093L18.8788 24.7189C18.8068 24.8269 18.6988 24.8989 18.5908 24.9709L21.7444 29.2045L26.1292 20.7661L27.2884 18.5557L36.0004 1.86608L35.9284 1.83008L31.6516 7.66208Z" fill="black"/>
</svg>
