<svg width="36" height="37" viewBox="0 0 36 37" fill="none" xmlns="http://www.w3.org/2000/svg">
<g clip-path="url(#clip0_1_15863)">
<path d="M27.7204 21.8177C27.814 21.9833 28.894 23.9777 27.8644 27.7721C27.742 27.7433 27.6268 27.7073 27.5116 27.6641H27.5044C27.1516 27.5417 26.8276 27.3401 26.554 27.0809C26.554 27.0809 26.6548 29.4353 25.15 31.4081C25.1428 31.4225 25.1284 31.4369 25.1212 31.4513L25.114 31.4441C24.7324 31.0553 24.4444 30.5801 24.2716 30.0617C24.2716 30.0617 23.458 31.9193 21.1828 33.6977C20.9884 33.8561 20.7868 34.0001 20.5852 34.1441C19.4332 34.9505 18.7924 35.4833 18.4324 35.8361C18.4108 35.8577 18.3892 35.8865 18.3676 35.9081C18.346 35.9297 18.3244 35.9513 18.3028 35.9729C18.022 36.2753 18.0004 36.4121 18.0004 36.4481C18.0004 36.4121 17.9716 36.2753 17.6908 35.9729C17.6692 35.9513 17.6476 35.9297 17.626 35.9081C17.6044 35.8865 17.5828 35.8649 17.5612 35.8361C17.2012 35.4833 16.5604 34.9505 15.4084 34.1441C15.2068 34.0001 15.0052 33.8561 14.8108 33.6977C14.4004 33.3809 14.0116 33.0353 13.6372 32.6681C12.1612 31.2065 11.7292 30.1049 11.7148 30.0689C11.542 30.5873 11.254 31.0625 10.8724 31.4513L10.8652 31.4585C10.8508 31.4441 10.8436 31.4297 10.8364 31.4153C9.33164 29.4425 9.43244 27.0809 9.43244 27.0809C9.16604 27.3401 8.84204 27.5417 8.48924 27.6641H8.48204C8.36684 27.7145 8.25164 27.7505 8.12924 27.7721C7.10684 23.9849 8.17964 21.9833 8.27324 21.8177C8.27324 21.8177 8.28044 21.8105 8.28044 21.8033C8.27324 21.7961 8.27324 21.7961 8.26604 21.7889C7.98524 21.5873 3.67244 18.2897 6.49484 9.75046C6.49484 9.75046 7.31564 9.95206 7.79084 10.6649C7.79084 10.6649 7.74764 8.13046 11.038 4.78246C11.6212 5.25046 12.0028 5.92006 12.118 6.65446C12.118 6.65446 13.1116 5.14246 15.0988 3.87526C17.2372 2.51446 18.0004 1.59286 18.0004 0.664062C18.0004 0.664062 22.7668 3.50086 23.8756 6.66166C24.0484 5.45206 24.9556 4.78966 24.9556 4.78966C28.246 8.13766 28.2028 10.6721 28.2028 10.6721C28.678 9.95926 29.4988 9.75766 29.4988 9.75766C32.3212 18.2969 28.0084 21.5873 27.7276 21.7961C27.7204 21.7961 27.7204 21.8033 27.7132 21.8105C27.7132 21.8033 27.7132 21.8105 27.7204 21.8177ZM18.0004 14.9849C9.51164 10.0313 7.61084 19.4489 14.6524 19.8017C14.6524 19.8017 13.7884 20.3417 12.8236 20.4425C13.1548 20.6081 13.5292 20.6513 13.8892 20.5793C11.0884 23.5385 12.1756 29.6729 18.0004 29.6729C23.818 29.6729 24.9052 23.5385 22.1116 20.5721C22.4716 20.6513 22.846 20.6009 23.1772 20.4425C22.2124 20.3417 21.3484 19.8017 21.3484 19.8017C28.39 19.4561 26.4892 10.0385 18.0004 14.9849ZM21.5572 16.9793C21.5572 17.5481 21.262 18.0017 20.8948 18.0017C20.5276 18.0017 20.2324 17.5409 20.2324 16.9793C20.2324 16.4177 20.5276 15.9569 20.8948 15.9569C21.262 15.9569 21.5572 16.4177 21.5572 16.9793ZM15.106 15.9569C15.4732 15.9569 15.7684 16.4177 15.7684 16.9793C15.7684 17.5481 15.4732 18.0017 15.106 18.0017C14.7388 18.0017 14.4436 17.5409 14.4436 16.9793C14.4436 16.4177 14.7388 15.9569 15.106 15.9569ZM19.1236 21.0041C18.49 20.8025 18.3604 21.8537 18.3604 21.8537C19.6204 21.9905 19.6852 21.1841 19.1236 21.0041ZM17.6332 21.8537C17.6332 21.8537 17.518 20.8097 16.8772 21.0041C16.3156 21.1841 16.3804 21.9905 17.6332 21.8537ZM18.0004 25.7489C19.9804 25.7561 21.442 24.7697 21.3484 24.6113C21.2764 24.4313 19.8148 24.9281 18.0004 24.9137C16.186 24.9281 14.7172 24.4313 14.6452 24.6113C14.5588 24.7553 16.0132 25.7489 18.0004 25.7489Z" fill="#6200EA"/>
</g>
<defs>
<clipPath id="clip0_1_15863">
<rect width="36" height="36" fill="white" transform="translate(0 0.578125)"/>
</clipPath>
</defs>
</svg>
