<svg width="36" height="37" viewBox="0 0 36 37" fill="none" xmlns="http://www.w3.org/2000/svg">
<g clip-path="url(#clip0_1_15355)">
<path d="M17.9996 30.2341C12.5348 30.2341 8.09961 25.7989 8.09961 20.3341C8.09961 15.0205 17.0636 5.63889 17.4452 5.24289L17.9132 4.74609L18.3956 5.22849C18.7916 5.62449 27.9068 15.0061 27.9068 20.3197C27.8996 25.7989 23.4644 30.2341 17.9996 30.2341ZM17.9204 6.66129C17.1356 7.51089 15.4868 9.34689 13.8524 11.5069C10.9508 15.3373 9.41721 18.3829 9.41721 20.3197C9.41721 25.0501 13.2692 28.9021 17.9996 28.9021C22.73 28.9021 26.582 25.0501 26.582 20.3197C26.582 18.3829 25.0196 15.3373 22.0676 11.5069C20.4116 9.36849 18.7196 7.51089 17.9204 6.66129Z" fill="url(#paint0_linear_1_15355)"/>
<path d="M18 33.4101C10.7856 33.4101 4.9248 27.5421 4.9248 20.3349C4.9248 13.2861 14.7672 3.44365 15.1848 3.04045C15.4368 2.78845 15.8688 2.78845 16.1208 3.04045C16.3728 3.29245 16.3728 3.72445 16.1208 3.97645C16.02 4.07725 6.2568 13.8405 6.2568 20.3349C6.2568 26.8149 11.5344 32.0925 18.0144 32.0925C24.4944 32.0925 29.772 26.8149 29.772 20.3349C29.772 17.6709 28.044 13.9917 24.7752 9.67165C22.2624 6.35965 19.7424 3.85405 19.7136 3.82525C19.4472 3.57325 19.4472 3.15565 19.7136 2.88925C19.9656 2.62285 20.3832 2.62285 20.6496 2.88925C21.0816 3.30685 31.0968 13.2717 31.0968 20.3349C31.0752 27.5349 25.2144 33.4101 18 33.4101Z" fill="url(#paint1_linear_1_15355)"/>
<path d="M17.9999 36.5782C9.22309 36.5782 2.08789 29.4358 2.08789 20.6662C2.08789 17.0374 3.91669 12.5734 7.50229 7.41816C10.1519 3.60936 12.7511 0.894963 12.8663 0.779763C13.1183 0.513362 13.5359 0.513362 13.8023 0.765363C14.0687 1.01736 14.0687 1.43496 13.8167 1.70136C13.7879 1.73016 11.1671 4.46616 8.58229 8.18136C5.19109 13.0414 3.40549 17.3542 3.40549 20.6662C3.40549 28.7086 9.95029 35.2606 17.9999 35.2606C26.0495 35.2606 32.5943 28.7158 32.5943 20.6662C32.5943 17.3542 30.7943 13.0486 27.3815 8.18856C24.7679 4.47336 22.1183 1.73736 22.0967 1.70856C21.8447 1.44216 21.8447 1.02456 22.1111 0.772563C22.3775 0.520563 22.7951 0.520563 23.0471 0.786963C23.4935 1.24056 33.9119 12.0694 33.9119 20.6662C33.9119 29.4358 26.7767 36.5782 17.9999 36.5782Z" fill="url(#paint2_linear_1_15355)"/>
</g>
<defs>
<linearGradient id="paint0_linear_1_15355" x1="17.9998" y1="30.2376" x2="17.9998" y2="4.74948" gradientUnits="userSpaceOnUse">
<stop stop-color="#05AAC5"/>
<stop offset="1" stop-color="#71E0EC"/>
</linearGradient>
<linearGradient id="paint1_linear_1_15355" x1="18.0128" y1="33.4085" x2="18.0128" y2="2.68646" gradientUnits="userSpaceOnUse">
<stop stop-color="#05AAC5"/>
<stop offset="1" stop-color="#71E0EC"/>
</linearGradient>
<linearGradient id="paint2_linear_1_15355" x1="18" y1="36.5788" x2="18" y2="0.579979" gradientUnits="userSpaceOnUse">
<stop stop-color="#05AAC5"/>
<stop offset="1" stop-color="#71E0EC"/>
</linearGradient>
<clipPath id="clip0_1_15355">
<rect width="36" height="36" fill="white" transform="translate(0 0.578125)"/>
</clipPath>
</defs>
</svg>
