<svg width="36" height="37" viewBox="0 0 36 37" fill="none" xmlns="http://www.w3.org/2000/svg">
<g clip-path="url(#clip0_1_15353)">
<path d="M18.0359 36.2905C27.8139 36.2905 35.7407 28.3638 35.7407 18.5857C35.7407 8.80757 27.8139 0.880859 18.0359 0.880859C8.25776 0.880859 0.331055 8.80757 0.331055 18.5857C0.331055 28.3638 8.25776 36.2905 18.0359 36.2905Z" fill="#171FC9"/>
<path d="M17.7838 8.97964L16.423 10.0308C14.2702 11.5644 14.047 13.9836 15.0334 16.1868L18.043 23.43C18.5902 24.8412 18.6406 26.3532 18.1294 27.858L18.1222 27.8868C18.0286 28.0956 18.223 28.2468 18.4174 28.0956L19.9942 26.742C21.5062 25.5108 22.0318 23.4372 21.3046 21.63L17.9422 13.3068C17.5462 12.1404 17.539 10.9812 17.8774 9.84364L18.1078 9.20284C18.1726 9.02284 17.9422 8.85724 17.7838 8.97964Z" fill="white"/>
<path d="M24.2497 11.0041L23.1769 11.8321C21.4705 13.0417 21.2977 14.9569 22.0825 16.7065L24.4585 22.4377C24.8905 23.5537 24.9337 24.7489 24.5233 25.9441L24.5161 25.9729C24.4369 26.1385 24.5953 26.2609 24.7537 26.1385L25.9993 25.0729C27.1945 24.1009 27.6121 22.4593 27.0361 21.0337L24.3793 14.4457C24.0697 13.5241 24.0625 12.6097 24.3289 11.7097L24.5089 11.2057C24.5521 11.0329 24.3721 10.9033 24.2497 11.0041Z" fill="white"/>
<path d="M11.4264 11.0041L10.3536 11.8321C8.64722 13.0417 8.47442 14.9569 9.25922 16.7065L11.6352 22.4377C12.0672 23.5537 12.1104 24.7489 11.7 25.9441L11.6928 25.9729C11.6136 26.1385 11.772 26.2609 11.9304 26.1385L13.176 25.0729C14.3712 24.1009 14.7888 22.4593 14.2128 21.0337L11.556 14.4457C11.2464 13.5241 11.2392 12.6097 11.5056 11.7097L11.6856 11.2057C11.736 11.0329 11.556 10.9033 11.4264 11.0041Z" fill="white"/>
</g>
<defs>
<clipPath id="clip0_1_15353">
<rect width="36" height="36" fill="white" transform="translate(0 0.578125)"/>
</clipPath>
</defs>
</svg>
