<svg width="36" height="37" viewBox="0 0 36 37" fill="none" xmlns="http://www.w3.org/2000/svg">
<g clip-path="url(#clip0_1_15352)">
<path fill-rule="evenodd" clip-rule="evenodd" d="M33.5809 27.5774V9.599L18.0001 0.591797V18.5774L2.41211 27.5774L18.0001 36.5774L33.5737 27.5846L33.5809 27.5918V27.5774Z" fill="#64C557"/>
<path d="M2.41895 9.5918L18.0069 0.591797V18.5918L2.41895 27.5918V9.5918Z" fill="#118AB2"/>
<path d="M18.0076 0.578125L33.5956 9.57812L28.3972 12.5805L12.8164 3.58052L18.0076 0.578125Z" fill="#00F8B7"/>
<path d="M28.3898 12.5742V18.5718L12.8018 9.57182V3.57422L28.3898 12.5742Z" fill="#09BD8E"/>
<path d="M12.7941 9.57812L28.3821 18.5781L23.1837 21.5805L7.5957 12.5805L12.7941 9.57812Z" fill="#FFE3A3"/>
<path d="M23.2413 21.6094V27.607L7.65332 18.607V12.6094L23.2413 21.6094Z" fill="#FFBB1D"/>
<path d="M7.61051 18.5781L23.1985 27.5781L18.0001 30.5805L2.41211 21.5805L7.61051 18.5781Z" fill="#FF965E"/>
<path d="M17.9933 30.5742V36.5718L2.40527 27.5718V21.5742L17.9933 30.5742Z" fill="#D94C00"/>
<path d="M28.3965 12.5727L33.5949 9.57031V27.5703L28.3965 30.5727V12.5727Z" fill="#06D6A0"/>
<path d="M23.1914 21.5727L28.3898 18.5703V30.5655L23.1914 33.5679V21.5727Z" fill="#FFD166"/>
<path d="M17.9785 30.5727L23.1769 27.5703V33.5679L17.9785 36.5703V30.5727Z" fill="#F3722C"/>
</g>
<defs>
<clipPath id="clip0_1_15352">
<rect width="36" height="36" fill="white" transform="translate(0 0.578125)"/>
</clipPath>
</defs>
</svg>
