<svg width="36" height="37" viewBox="0 0 36 37" fill="none" xmlns="http://www.w3.org/2000/svg">
<g clip-path="url(#clip0_1_15351)">
<path d="M7.44514 16.7129L7.15714 17.1521C3.91714 22.1201 4.64434 28.6289 8.89954 32.7977C11.4051 35.2529 14.6811 36.4769 17.9643 36.4769C17.9643 36.4769 17.9643 36.4769 7.44514 16.7129Z" fill="#00A3FF"/>
<path opacity="0.6" d="M17.9635 22.7177L7.44434 16.7129C17.9635 36.4769 17.9635 36.4769 17.9635 36.4769C17.9635 32.1713 17.9635 27.2393 17.9635 22.7177Z" fill="#00A3FF"/>
<path opacity="0.6" d="M28.4909 16.7129L28.7789 17.1521C32.0189 22.1201 31.2917 28.6289 27.0365 32.7977C24.5309 35.2529 21.2549 36.4769 17.9717 36.4769C17.9717 36.4769 17.9717 36.4769 28.4909 16.7129Z" fill="#00A3FF"/>
<path opacity="0.2" d="M17.9717 22.7177L28.4909 16.7129C17.9717 36.4769 17.9717 36.4769 17.9717 36.4769C17.9717 32.1713 17.9717 27.2393 17.9717 22.7177Z" fill="#00A3FF"/>
<path opacity="0.2" d="M17.9717 9.29688V19.6577L27.0293 14.4809L17.9717 9.29688Z" fill="#00A3FF"/>
<path opacity="0.6" d="M17.9711 9.29688L8.90625 14.4809L17.9711 19.6577V9.29688Z" fill="#00A3FF"/>
<path d="M17.9711 0.585938L8.90625 14.4819L17.9711 9.28354V0.585938Z" fill="#00A3FF"/>
<path opacity="0.6" d="M17.9717 9.28292L27.0365 14.4813L17.9717 0.578125V9.28292Z" fill="#00A3FF"/>
</g>
<defs>
<clipPath id="clip0_1_15351">
<rect width="36" height="36" fill="white" transform="translate(0 0.578125)"/>
</clipPath>
</defs>
</svg>
