<svg width="36" height="37" viewBox="0 0 36 37" fill="none" xmlns="http://www.w3.org/2000/svg">
<g clip-path="url(#clip0_1_15890)">
<path fill-rule="evenodd" clip-rule="evenodd" d="M24.1418 27.1165C24.761 26.9797 25.337 26.9725 25.8842 27.0877C26.4314 27.2029 26.9282 27.4405 27.3746 27.7789L36.0002 34.4605H24.1922L19.0082 28.4557L24.1418 27.1165ZM9.35303 2.73009L19.721 14.9989C20.5058 16.0789 20.9018 17.2741 20.9018 18.5917C20.9018 19.9093 20.5058 21.1045 19.721 22.1845L9.35303 34.4533H-0.0429688L11.3546 21.0037C11.9522 20.3197 12.2546 19.5133 12.2546 18.5917C12.2546 17.6701 11.9522 16.8637 11.3546 16.1797L-0.0429688 2.73009H9.35303ZM36.0002 2.67969L27.3746 9.35409C26.9282 9.69969 26.4314 9.93009 25.8842 10.0453C25.337 10.1677 24.7538 10.1533 24.1418 10.0165L19.0082 8.68449L24.1922 2.67969H36.0002Z" fill="#FA2E53"/>
</g>
<defs>
<clipPath id="clip0_1_15890">
<rect width="36" height="36" fill="white" transform="translate(0 0.578125)"/>
</clipPath>
</defs>
</svg>
