<svg width="36" height="37" viewBox="0 0 36 37" fill="none" xmlns="http://www.w3.org/2000/svg">
<g clip-path="url(#clip0_1_15955)">
<path d="M13.6074 35.6792C11.83 35.3053 10.2047 34.5612 8.66582 33.62C5.61705 31.7553 3.35985 29.1743 1.83806 25.9532C0.991768 24.1618 0.486616 22.2708 0.281992 20.2939C0.0582879 18.1328 0.299488 16.0274 0.806152 13.922C1.81559 9.72779 4.29671 6.58139 7.69706 4.08566C9.99119 2.40186 12.5896 1.41006 15.3941 0.985408C17.2742 0.70072 19.1608 0.727288 21.0342 1.09593C21.0595 1.1009 21.0785 1.13726 21.1003 1.159C21.069 1.34051 20.934 1.46097 20.8344 1.60029C18.7697 4.48886 16.7027 7.3757 14.6363 10.2631C12.9575 12.6089 11.2794 14.9551 9.60038 17.3007C8.62312 18.6659 7.6432 20.0291 6.66911 21.3965C6.58271 21.5178 6.4359 21.619 6.47932 21.8582C9.70211 21.8582 12.93 21.8582 16.2187 21.8582C15.9378 23.0067 15.7473 24.1077 15.5487 25.2033C15.3339 26.3885 15.1114 27.5758 14.9025 28.7634C14.4962 31.0731 14.0418 33.3744 13.6074 35.6792Z" fill="#6B38DD"/>
<path d="M22.3413 1.37891C26.513 2.45919 29.8567 4.7642 32.3697 8.24943C34.8 11.6199 35.8991 15.4202 35.6756 19.5548C35.4829 23.1203 34.2606 26.3553 32.09 29.2012C29.182 33.014 25.3236 35.2771 20.6071 36.0556C18.6972 36.3709 16.7732 36.3734 14.8672 35.9488C14.9013 35.8786 14.9261 35.8018 14.9708 35.7391C17.6524 31.9764 20.3143 28.1994 23.03 24.4614C23.9941 23.1345 24.9109 21.7759 25.8725 20.4485C26.9969 18.8964 28.1302 17.3507 29.2563 15.7999C29.3444 15.6786 29.4865 15.5759 29.4468 15.3477C26.2624 15.3477 23.0745 15.3477 19.9091 15.3477C19.7684 15.121 19.8512 14.9338 19.8836 14.754C20.2482 12.7345 20.6157 10.7154 20.9872 8.69713C21.4362 6.25734 21.8897 3.81834 22.3413 1.37891Z" fill="#6B38DD"/>
<path d="M22.3417 1.37798C21.8901 3.81742 21.4366 6.25642 20.9875 8.69628C20.6161 10.7146 20.2485 12.7335 19.884 14.7531C19.8515 14.933 19.7688 15.1201 19.9095 15.3468C23.0748 15.3468 26.2628 15.3468 29.4471 15.3468C29.4868 15.575 29.3447 15.6777 29.2567 15.799C28.1306 17.3499 26.9972 18.8954 25.8729 20.4476C24.9113 21.7751 23.9944 23.1336 23.0304 24.4605C20.3147 28.1985 17.6527 31.9755 14.9711 35.7383C14.9265 35.8009 14.9017 35.8777 14.8675 35.9479C14.4476 35.8582 14.0277 35.7686 13.6077 35.6789C14.042 33.3741 14.4963 31.0728 14.9027 28.763C15.1116 27.5753 15.3342 26.3881 15.5489 25.2029C15.7475 24.1073 15.938 23.0063 16.2189 21.8578C12.9302 21.8578 9.70225 21.8578 6.47953 21.8578C6.43612 21.6186 6.58293 21.5174 6.66933 21.3961C7.64341 20.0287 8.62333 18.6655 9.60059 17.3003C11.2796 14.9547 12.9577 12.6085 14.6365 10.2627C16.7029 7.3753 18.7699 4.48846 20.8347 1.59989C20.9343 1.46057 21.0693 1.34018 21.1006 1.1586C21.5357 1.11108 21.9322 1.28122 22.3417 1.37798Z" fill="#FDFCFD"/>
</g>
<defs>
<clipPath id="clip0_1_15955">
<rect width="36" height="36" fill="white" transform="translate(0 0.578125)"/>
</clipPath>
</defs>
</svg>
