<svg width="36" height="37" viewBox="0 0 36 37" fill="none" xmlns="http://www.w3.org/2000/svg">
<g clip-path="url(#clip0_1_15350)">
<path d="M5.41211 24.9125C4.88073 24.9125 4.44997 25.3433 4.44997 25.8747C4.44997 26.406 4.88073 26.8368 5.41211 26.8368C5.94348 26.8368 6.37425 26.406 6.37425 25.8747C6.37425 25.704 6.32763 25.5488 6.25005 25.3937C6.07506 25.0968 5.75669 24.9141 5.41211 24.9127M19.0051 3.97971C19.0051 3.44834 18.5744 3.01758 18.043 3.01758C17.5116 3.01758 17.0809 3.44834 17.0809 3.97971C17.0809 4.51109 17.5116 4.94185 18.043 4.94185C18.5731 4.93887 19.0022 4.50985 19.0051 3.97971ZM30.7371 12.3281C31.2684 12.3281 31.6992 11.8973 31.6992 11.3659C31.6992 10.8346 31.2684 10.4038 30.7371 10.4038C30.2057 10.4038 29.7749 10.8346 29.7749 11.3659C29.7756 11.5292 29.8183 11.6896 29.8991 11.8314C30.0674 12.137 30.3883 12.3271 30.7371 12.3281ZM5.86125 10.4814C5.39575 10.2175 4.82152 10.3728 4.55782 10.8383C4.29411 11.3038 4.44927 11.878 4.91476 12.1417C5.38026 12.4055 5.95449 12.2503 6.21819 11.7848C6.48209 11.3348 6.32674 10.7451 5.86125 10.4814ZM31.1241 25.0987C30.9844 25.0056 30.8138 24.9745 30.6431 24.959C30.1118 24.9518 29.6753 25.3767 29.6681 25.908C29.6609 26.4393 30.0858 26.8759 30.6171 26.8831C30.6258 26.8832 30.6345 26.8832 30.6431 26.8831C30.9844 26.8831 31.2941 26.6969 31.4811 26.4021C31.7449 25.9521 31.5896 25.3624 31.1241 25.0987ZM17.0809 33.1208C17.0342 33.5554 17.2981 33.9743 17.7015 34.1294C17.7946 34.1604 17.9033 34.1915 17.9964 34.1915C18.4817 34.1907 18.8983 33.8458 18.9895 33.3691C19.0618 32.8456 18.6961 32.3626 18.1726 32.2903C17.6559 32.2189 17.1773 32.5744 17.0964 33.0897C17.088 33.0981 17.0825 33.1089 17.0809 33.1207" fill="#2683FF"/>
<path d="M32.0704 23.3292C31.9561 23.263 31.8367 23.206 31.7135 23.1585V14.174C31.8532 14.1274 31.9929 14.0498 32.1325 13.9879C33.5751 13.1809 34.1029 11.3499 33.2963 9.90643C32.4897 8.46296 30.6583 7.93606 29.2148 8.74268C29.0906 8.80478 28.9821 8.88236 28.8735 8.95994L20.9597 4.38237C20.9752 4.24269 20.9907 4.11848 20.9907 3.97897C20.9905 2.31877 19.6411 0.984375 17.9962 0.984375C16.3513 0.984375 14.9703 2.34991 14.9703 3.99464C14.9703 4.13432 14.9858 4.25853 15.0013 4.39804L7.14957 8.94465C5.84544 7.92296 3.95999 8.15193 2.93829 9.45605C1.9166 10.7602 2.14557 12.6456 3.44971 13.6673C3.46749 13.6813 3.48543 13.695 3.50354 13.7085C3.61208 13.7861 3.7208 13.8637 3.84483 13.9413C3.97158 14.0189 4.10695 14.0813 4.24823 14.1274V23.0964C2.71188 23.7171 1.96682 25.4556 2.58749 26.9912C3.20816 28.5269 4.94613 29.2723 6.48248 28.6516C6.62216 28.605 6.74636 28.5274 6.87038 28.4655C6.99458 28.3879 7.11861 28.3103 7.24283 28.2173L15.017 32.7018C14.7531 34.331 15.8704 35.8672 17.4998 36.1311C19.1292 36.395 20.6654 35.2777 20.9291 33.6482C20.9601 33.4776 20.9601 33.3224 20.9601 33.1516C20.958 33.0063 20.9477 32.8612 20.9291 32.7171L28.6568 28.2637C28.781 28.3568 28.905 28.4498 29.0447 28.5276C30.4873 29.3345 32.3188 28.8224 33.1262 27.3793C33.9015 25.936 33.436 24.1671 32.0704 23.3292ZM32.6135 27.0843C31.9774 28.1705 30.5652 28.5429 29.4791 27.9067C28.6102 27.3946 28.1756 26.386 28.4084 25.4086L24.7773 23.2827C23.6315 24.4446 21.9003 24.8053 20.3858 24.1975C19.8428 24.3682 18.6794 24.4769 18.6794 24.4769V30.87C19.9518 31.258 20.6497 32.608 20.2627 33.8803C19.8757 35.1526 18.5247 35.8507 17.2523 35.4636C17.2368 35.4636 17.2213 35.4481 17.2056 35.4481C17.0971 35.4172 17.0038 35.3706 16.9108 35.3239C15.7159 34.7342 15.2504 33.2756 15.8401 32.0964C16.1349 31.5067 16.6625 31.0724 17.2827 30.8706V24.3532C16.8269 24.2124 16.3811 24.0413 15.9481 23.8411C14.5445 24.1216 13.0889 23.7633 11.9757 22.8635L7.64639 25.3616C7.94183 26.5997 7.1777 27.8428 5.93966 28.1383C4.70162 28.4337 3.45848 27.6696 3.16303 26.4315C2.86769 25.1939 3.63121 23.9511 4.8687 23.6552C5.61357 23.469 6.40488 23.6861 6.9798 24.2137L11.0298 21.8706C9.66424 19.9465 9.88151 17.3085 11.5575 15.6326L6.9483 12.9946C6.03349 13.8635 4.58967 13.8171 3.72077 12.8861C2.85497 11.9664 2.89863 10.519 3.81831 9.6532C3.82196 9.64976 3.82563 9.64632 3.82932 9.64289C4.76031 8.774 6.18796 8.82044 7.05685 9.75144C7.58463 10.31 7.78624 11.0858 7.61541 11.8307L12.7206 14.7634C13.3894 14.4036 14.1338 14.2068 14.8931 14.1892C15.6072 13.5998 17.4368 12.9946 17.4368 12.9946V6.01198C16.304 5.67068 15.6679 4.4758 16.0092 3.34301C16.3505 2.21023 17.5462 1.58956 18.679 1.93086C19.8118 2.27215 20.4479 3.46704 20.1066 4.59983C19.9017 5.28584 19.365 5.8225 18.679 6.02746V12.8709C18.679 12.8709 22.0307 13.7089 23.0859 14.9657L28.5169 11.8778C28.2375 10.6365 28.9979 9.39501 30.2394 9.11582C31.4809 8.83664 32.7222 9.5968 33.0014 10.8383C33.2806 12.0798 32.5205 13.3211 31.2789 13.6003C30.5286 13.7694 29.7433 13.5541 29.184 13.0261L23.8152 16.0672C23.9703 16.393 24.11 16.7181 24.2031 17.0602C25.8634 18.193 26.4531 20.3653 25.5686 22.1809L29.1223 24.2447C29.8576 23.5593 30.9563 23.4393 31.8222 23.9498C32.8929 24.586 33.2648 25.9826 32.6139 27.0843H32.6135Z" fill="#2683FF"/>
<path d="M22.6052 18.2707C22.5897 18.1465 22.5743 18.038 22.5586 17.9138C22.5434 17.8298 22.5227 17.7468 22.4965 17.6656C22.4965 17.6346 22.481 17.6034 22.481 17.5725C22.45 17.4794 22.4189 17.3707 22.3879 17.2776V17.2622C22.1906 16.7416 21.8897 16.2665 21.5034 15.8657C21.4103 15.7726 21.3327 15.695 21.224 15.6018L21.2085 15.5863C21.1155 15.5087 21.0224 15.4311 20.9137 15.369L20.8982 15.3535C20.8051 15.2914 20.6964 15.2139 20.6033 15.1674L20.5879 15.1519C20.4876 15.094 20.384 15.0422 20.2775 14.9968L20.2466 14.9813C20.138 14.9347 20.0293 14.8882 19.9053 14.8416L19.8898 14.8261C19.7656 14.7952 19.657 14.7485 19.5328 14.7331H19.5174C19.3946 14.7048 19.2702 14.6841 19.1449 14.6709H19.1295C18.4686 14.577 17.7946 14.6573 17.1742 14.9037L17.0966 14.9658C17.0036 14.9968 16.8484 15.0743 16.7553 15.121C16.7069 15.1529 16.6548 15.179 16.6002 15.1985C16.5536 15.214 16.476 15.2761 16.4295 15.3071C16.3831 15.3381 16.2744 15.4156 16.2123 15.4623L16.1656 15.4932C16.0726 15.5553 15.995 15.6329 15.9017 15.7105L15.8242 15.7881C15.7311 15.8811 15.6535 15.9587 15.5759 16.052C15.3913 16.021 15.2045 16.0055 15.0174 16.0053C14.9553 16.0053 14.9088 16.0053 14.8622 16.0208C14.1485 16.0518 13.4657 16.3466 12.9381 16.8278C12.6742 17.0605 12.4571 17.3556 12.2872 17.6657L12.2707 17.6974C12.2228 17.7875 12.1813 17.8809 12.1465 17.9768C12.131 18.0077 12.131 18.0234 12.1155 18.0544C12.0826 18.1347 12.0567 18.2178 12.0379 18.3026C12.0224 18.3335 12.0224 18.3802 12.0069 18.4111C11.9915 18.4887 11.976 18.5663 11.9603 18.6594C11.9603 18.6903 11.9448 18.7215 11.9448 18.7679C11.9319 18.8864 11.9268 19.0057 11.9294 19.1249C11.9268 19.2234 11.932 19.322 11.9448 19.4197C11.9448 19.4507 11.9603 19.4818 11.9603 19.5283C11.9758 19.5904 11.9758 19.6525 11.9913 19.7144C12.0068 19.7763 12.0068 19.792 12.0222 19.8386C12.0399 19.8832 12.0503 19.9304 12.0532 19.9783C12.0532 20.0249 12.0842 20.0713 12.0998 20.1179C12.1125 20.1553 12.1281 20.1916 12.1464 20.2265C12.1698 20.2771 12.1905 20.3289 12.2085 20.3817C12.224 20.4126 12.2395 20.4283 12.2395 20.4592C12.4576 20.9703 12.8257 21.4032 13.2951 21.7006C13.5278 21.8402 13.7606 21.9645 14.0088 22.0419C14.105 22.0749 14.2036 22.1009 14.3036 22.1194L14.3346 22.1349L14.614 22.1816L14.6761 22.197C14.7846 22.2125 14.8933 22.2125 15.0174 22.2125C15.4364 22.2125 15.8398 22.1349 16.2123 21.9643C16.3053 22.0264 16.3829 22.0885 16.4761 22.1504L16.5071 22.1659C16.5847 22.2125 16.6777 22.259 16.771 22.3056H16.7861C17.673 22.7576 18.6966 22.8627 19.6569 22.6004H19.6723C19.8119 22.5703 19.9474 22.5234 20.0757 22.4608L20.4948 22.2746C20.8938 22.5859 21.3852 22.7552 21.8913 22.7556C21.9998 22.7556 22.0931 22.7401 22.2016 22.7401L22.2792 22.7246C22.3786 22.7098 22.4771 22.6891 22.5741 22.6625C22.6697 22.6331 22.7631 22.5969 22.8534 22.554L22.9001 22.5385C22.9931 22.4919 23.0707 22.4454 23.164 22.3988C23.5519 22.1506 23.8467 21.7782 24.0174 21.3591C24.0795 21.2194 24.1104 21.0797 24.1416 20.9402V20.8936C24.157 20.8315 24.157 20.7694 24.1725 20.7075C24.1725 20.6299 24.188 20.5523 24.188 20.4747C24.188 19.4507 23.5519 18.5661 22.6047 18.2712" fill="#2683FF"/>
</g>
<defs>
<clipPath id="clip0_1_15350">
<rect width="36" height="36" fill="white" transform="translate(0 0.578125)"/>
</clipPath>
</defs>
</svg>
