<svg width="36" height="37" viewBox="0 0 36 37" fill="none" xmlns="http://www.w3.org/2000/svg">
<path d="M2.86063 13.3498L18.2597 23.0541C18.2697 23.061 18.2829 23.061 18.293 23.0541L34.0029 13.1308C34.0174 13.1216 34.0217 13.1022 34.0125 13.0877C34.01 13.0838 34.0067 13.0805 34.0029 13.0781L18.4376 3.15867C18.4274 3.15231 18.4145 3.15231 18.4044 3.15867L2.86063 13.297C2.84606 13.3082 2.84328 13.329 2.85444 13.3436C2.85622 13.3459 2.8583 13.348 2.86063 13.3498ZM18.2597 34.4319C18.0551 34.4321 17.8548 34.373 17.683 34.2618L1.19111 23.6406C1.17969 23.6285 1.17969 23.6097 1.19111 23.5976L1.89294 22.5048C1.905 22.4934 1.92388 22.4934 1.93595 22.5048L18.2519 33.0146C18.2621 33.0209 18.275 33.0209 18.2851 33.0146L33.7487 23.0776C34.1032 22.8508 34.3171 22.4584 34.3157 22.0375V19.5939C34.3148 19.5766 34.3 19.5634 34.2828 19.5643C34.2778 19.5645 34.273 19.566 34.2687 19.5685L18.6507 29.5152C18.3018 29.7371 17.856 29.7371 17.5071 29.5152L1.7248 19.4746C0.943601 18.9846 0.469439 18.1271 0.469727 17.205V13.7818C0.469741 13.5055 0.576963 13.2399 0.768829 13.0409L0.821606 12.9979L1.12462 12.7907L17.8687 1.88014L17.8863 1.87036C18.2291 1.67444 18.6523 1.68499 18.985 1.89774L35.1699 12.2081C35.6677 12.524 35.8151 13.1836 35.4992 13.6813C35.415 13.8139 35.3026 13.9264 35.1699 14.0106L18.8462 24.317C18.4987 24.5343 18.0578 24.5343 17.7104 24.317L1.87534 14.3468C1.86038 14.3382 1.84125 14.3433 1.83261 14.3583C1.82982 14.3631 1.82838 14.3686 1.82842 14.3742V17.205C1.82665 17.6591 2.05852 18.0823 2.44228 18.3251L18.0642 28.2543C18.0744 28.2607 18.0873 28.2607 18.0975 28.2543L34.0322 18.0886C34.4355 17.8315 34.9607 17.8747 35.3166 18.1941C35.543 18.4102 35.6673 18.7121 35.6587 19.025V22.0278C35.6614 22.9129 35.2116 23.738 34.4662 24.2154L18.8266 34.2657C18.6571 34.3734 18.4606 34.431 18.2597 34.4319Z" fill="#01A4DF"/>
</svg>
