<svg width="36" height="37" viewBox="0 0 36 37" fill="none" xmlns="http://www.w3.org/2000/svg">
<g clip-path="url(#clip0_1_15531)">
<path d="M18.0001 36.1858C27.7206 36.1858 35.6048 28.3017 35.6048 18.5812C35.6048 8.86071 27.7206 0.976562 18.0001 0.976562C8.27965 0.976562 0.395508 8.86071 0.395508 18.5812C0.395508 28.3017 8.27965 36.1858 18.0001 36.1858Z" fill="#E53431"/>
<path d="M14.3346 7.21903C14.3801 7.18108 14.4408 7.1659 14.5015 7.1659C14.5623 7.1659 14.6229 7.18108 14.6685 7.21903L16.0495 8.2586C16.1254 8.31932 16.1709 8.41796 16.1558 8.50902C16.1406 8.60766 16.0799 8.69114 15.9888 8.72908C15.8978 8.76703 15.7915 8.75185 15.7156 8.69873L14.5015 7.78814L10.5405 10.7551L27.9251 23.7993C27.9934 23.8524 28.0389 23.9358 28.0389 24.0193C28.0389 24.1028 28.001 24.1863 27.9251 24.2394L26.6503 25.2031C26.6047 25.241 26.544 25.2562 26.4833 25.2562C26.3619 25.2562 26.2557 25.1803 26.2177 25.0665C26.1798 24.9527 26.2177 24.8313 26.3164 24.7554L27.3029 24.0193L9.91826 10.9828C9.84996 10.9297 9.80445 10.8462 9.80445 10.7627C9.80445 10.6792 9.84998 10.5958 9.91826 10.5427L14.3346 7.21903ZM18.7509 7.21903C18.8496 7.14314 18.9862 7.14314 19.0772 7.21903L27.9175 13.8511C28.0161 13.9194 28.0541 14.0484 28.0161 14.1546C27.9782 14.2685 27.872 14.3443 27.7581 14.3443H23.3342C23.2735 14.3443 23.2128 14.3216 23.1673 14.2912L17.3699 9.9432C17.294 9.88249 17.2485 9.78385 17.2636 9.69279C17.2788 9.59415 17.3395 9.51067 17.4306 9.47273C17.5216 9.43478 17.6279 9.44996 17.7038 9.50308L23.4329 13.798H26.931L18.9179 7.78816L13.3709 11.9465C13.2495 12.0376 13.075 12.0148 12.9839 11.8934C12.8928 11.772 12.9156 11.5974 13.037 11.5064L18.7509 7.21903ZM11.1324 12.9405C11.1779 12.9026 11.2386 12.8874 11.2993 12.8874C11.3828 12.8874 11.4663 12.9254 11.5194 13.0012C11.5649 13.0619 11.5801 13.1302 11.5725 13.2061C11.5649 13.282 11.527 13.3427 11.4663 13.3882L10.5405 14.0788L27.9251 27.1229C27.9934 27.176 28.0389 27.2595 28.0389 27.343C28.0389 27.4264 28.001 27.5099 27.9251 27.563L23.5012 30.8791C23.4556 30.917 23.3949 30.9322 23.3342 30.9322C23.2735 30.9322 23.2128 30.9094 23.1673 30.8791L21.8925 29.9229C21.8166 29.8622 21.7711 29.7636 21.7862 29.6649C21.8014 29.5663 21.8621 29.4828 21.9532 29.4449C22.0442 29.4069 22.1505 29.4221 22.2263 29.4752L23.3342 30.3099L27.2953 27.3429L9.91068 14.2912C9.84238 14.2381 9.80445 14.1547 9.80445 14.0712C9.80445 13.9877 9.84239 13.9042 9.91068 13.8511L11.1324 12.9405ZM10.0776 23.7461H14.4939C14.5547 23.7461 14.6154 23.7613 14.6609 23.7993L20.3976 28.1018C20.519 28.1928 20.5417 28.3674 20.4507 28.4888C20.3596 28.6102 20.1851 28.633 20.0637 28.5419L14.4029 24.2925H10.9047L18.9179 30.3024L24.4497 26.1516C24.5711 26.0606 24.7456 26.0833 24.8367 26.2048C24.9277 26.3262 24.905 26.5007 24.7836 26.5917L19.0848 30.8639C19.0393 30.9019 18.9786 30.917 18.9179 30.917C18.8572 30.917 18.7965 30.9019 18.7509 30.8639L9.91069 24.2318C9.81964 24.1559 9.78169 24.0345 9.81205 23.9207C9.85755 23.8144 9.9638 23.7385 10.0776 23.7461Z" fill="white"/>
</g>
<defs>
<clipPath id="clip0_1_15531">
<rect width="36" height="36" fill="white" transform="translate(0 0.578125)"/>
</clipPath>
</defs>
</svg>
