<svg width="36" height="37" viewBox="0 0 36 37" fill="none" xmlns="http://www.w3.org/2000/svg">
<g clip-path="url(#clip0_1_15479)">
<path d="M18.0075 36.5637C27.9446 36.5637 36.0002 28.5081 36.0002 18.5709C36.0002 8.63378 27.9446 0.578125 18.0075 0.578125C8.0703 0.578125 0.0146484 8.63378 0.0146484 18.5709C0.0146484 28.5081 8.0703 36.5637 18.0075 36.5637Z" fill="#7B00FF"/>
<path d="M26.7478 4.96289C26.7694 6.90689 26.2582 8.49809 25.171 9.88769C23.5798 11.9181 21.391 12.9909 18.9718 13.6461C17.5894 14.0205 16.171 14.2509 14.9254 14.5101C16.351 14.9061 17.9494 15.3021 19.519 15.7989C21.319 16.3677 22.9534 17.2821 24.4222 18.4773C26.7982 20.4213 26.8198 23.7117 24.4798 25.8573C23.1766 27.0525 21.571 27.6069 19.915 28.0605C17.5318 28.7085 15.1414 29.3277 12.7654 30.0189C11.563 30.3717 10.5982 31.1349 9.82058 32.1429C8.34458 29.3637 9.56858 26.1741 12.5782 24.7989C15.3358 23.5317 18.2806 23.0061 21.4702 22.5741C20.959 22.4589 20.6422 22.3869 20.3326 22.3149C20.0086 22.2429 19.6918 22.1637 19.3678 22.0917C16.6534 21.4653 14.0902 20.5149 11.8654 18.7725C9.22298 16.6989 9.15818 13.2501 11.7358 11.0685C12.9814 10.0101 14.4574 9.45569 16.0054 9.04529C18.4246 8.41169 20.851 7.81409 23.2702 7.16609C24.5734 6.82049 25.7974 6.26609 26.7478 4.96289Z" fill="white"/>
<path d="M19.7852 14.5824C22.0892 13.8408 24.1844 12.7392 25.8188 10.8672C26.3876 12.4152 25.4876 15.8496 24.3356 16.8576C22.8236 16.0944 21.326 15.3528 19.7852 14.5824Z" fill="white"/>
</g>
<defs>
<clipPath id="clip0_1_15479">
<rect width="36" height="36" fill="white" transform="translate(0 0.578125)"/>
</clipPath>
</defs>
</svg>
