<svg width="36" height="37" viewBox="0 0 36 37" fill="none" xmlns="http://www.w3.org/2000/svg">
<path d="M18.6768 1.47852V14.2657C18.6768 14.2657 21.0168 15.4465 23.8176 17.8513C26.7192 20.3353 27.4896 22.0489 27.4896 22.9921C27.4896 24.7849 26.1432 27.0241 24.0336 29.8105C21.6072 33.0073 18.8136 35.7361 18.8136 35.7361C18.8136 35.7361 27.1296 29.9761 30.7152 26.2825C34.3008 22.5889 35.7696 20.1409 35.7696 18.0745C35.7696 16.0081 34.0848 13.0777 29.412 9.05292C24.7392 5.02812 18.6768 1.47852 18.6768 1.47852Z" fill="#E5642A"/>
<path d="M17.2871 35.7283V22.9411C17.2871 22.9411 14.9471 21.7603 12.1463 19.3555C9.24474 16.8715 8.47434 15.1579 8.47434 14.2147C8.47434 12.4219 9.82074 10.1827 11.9303 7.3963C14.3567 4.1995 17.1503 1.4707 17.1503 1.4707C17.1503 1.4707 8.83434 7.2307 5.24874 10.9243C1.66314 14.6179 0.194336 17.0659 0.194336 19.1323C0.194336 21.1987 1.87194 24.1363 6.54474 28.1611C11.2175 32.1859 17.2871 35.7283 17.2871 35.7283Z" fill="#1E3566"/>
</svg>
