<svg width="36" height="37" viewBox="0 0 36 37" fill="none" xmlns="http://www.w3.org/2000/svg">
<path d="M25.9195 7.56203C18.5251 2.24843 10.5403 0.714831 8.08512 4.12763C6.68112 6.08603 2.54112 11.8388 1.13712 13.7972C-1.31088 17.21 2.69232 24.2876 10.0867 29.6012C17.4811 34.9148 25.4659 36.4556 27.9211 33.0428C29.3251 31.0844 33.4651 25.3316 34.8691 23.3732C37.3243 19.9532 33.3139 12.8756 25.9195 7.56203Z" fill="white"/>
<path d="M34.3659 18.4055C30.6363 17.2463 29.9667 20.0543 28.6275 21.7319C27.2379 23.4815 26.6979 24.5615 24.9483 26.1743C23.1987 27.7871 21.0027 26.8511 20.0595 26.1743C19.1163 25.4975 18.6915 24.6911 16.6683 22.2287C14.6523 19.7591 12.4491 21.7823 11.4195 22.6751C10.3899 23.5751 8.92826 25.0079 7.89866 25.5911C7.47386 25.8287 7.04186 25.9295 6.68906 25.9583C2.06666 21.4799 -0.179737 16.5263 1.69946 13.9055C3.03866 12.0407 6.98426 6.55434 8.32346 4.68954C10.6635 1.43514 18.4971 3.01194 25.5531 8.08074C29.9811 11.2559 33.1779 15.1439 34.3659 18.4055Z" fill="url(#paint0_linear_1_15346)"/>
<path d="M34.2003 23.2577C32.8611 25.1225 28.9155 30.6161 27.5763 32.4809C25.2363 35.7353 17.5107 34.1585 10.4619 29.0897C9.08669 28.0961 7.81949 27.0377 6.69629 25.9505C7.04909 25.9217 7.47389 25.8281 7.90589 25.5833C8.93549 25.0001 10.3971 23.5673 11.4267 22.6673C12.4563 21.7673 14.6595 19.7513 16.6755 22.2209C18.6915 24.6905 19.1235 25.4969 20.0667 26.1665C21.0099 26.8433 23.2059 27.7793 24.9555 26.1665C26.7051 24.5537 27.2451 23.4737 28.6347 21.7241C29.9667 20.0465 30.6435 17.2385 34.3731 18.3977C35.0715 20.3345 35.0715 22.0481 34.2003 23.2577Z" fill="black"/>
<path d="M26.7551 24.7052C26.4095 24.626 26.0495 24.5396 25.6895 24.4316" stroke="white" stroke-width="0.448279" stroke-miterlimit="10" stroke-linecap="round"/>
<path d="M31.0464 24.8934C30.0528 25.095 28.8648 25.0806 27.54 24.8574" stroke="white" stroke-width="0.448279" stroke-miterlimit="10" stroke-linecap="round"/>
<path d="M7.73313 8.45403C7.69713 8.23083 7.67553 8.01483 7.66113 7.79883" stroke="white" stroke-width="0.448279" stroke-miterlimit="10" stroke-linecap="round"/>
<path d="M12.8877 16.6694C10.2957 14.1206 8.52447 11.4638 7.90527 9.22461" stroke="white" stroke-width="0.448279" stroke-miterlimit="10" stroke-linecap="round"/>
<path d="M24.9187 8.93817C18.2299 4.17177 11.2027 2.56617 9.22273 5.34537C7.24273 8.12457 11.0515 14.2446 17.7403 19.011C24.4291 23.7774 31.4563 25.383 33.4363 22.6038C35.4235 19.8246 31.6075 13.7046 24.9187 8.93817ZM27.3451 18.2622C26.4091 19.5726 22.9603 18.7158 19.6339 16.3398C16.3075 13.971 14.3707 10.9902 15.3067 9.67977C16.2427 8.36937 19.6915 9.22617 23.0179 11.6022C26.3443 13.971 28.2811 16.959 27.3451 18.2622Z" fill="white"/>
<defs>
<linearGradient id="paint0_linear_1_15346" x1="21.268" y1="27.4025" x2="12.4389" y2="3.81241" gradientUnits="userSpaceOnUse">
<stop offset="0.244" stop-color="#FC51A1"/>
<stop offset="1" stop-color="#1AB0ED"/>
</linearGradient>
</defs>
</svg>
