<svg width="36" height="37" viewBox="0 0 36 37" fill="none" xmlns="http://www.w3.org/2000/svg">
<path d="M21.0955 4.44488L10.5835 14.9569C9.89955 15.6409 8.79075 15.6409 8.10675 14.9569C7.42275 14.2729 7.42275 13.1641 8.10675 12.4801L18.6187 1.96808C19.3027 1.28408 20.4115 1.28408 21.0955 1.96808C21.7795 2.65208 21.7795 3.76088 21.0955 4.44488Z" fill="#232227"/>
<path d="M26.9207 24.5543L16.4087 35.0663C15.7247 35.7503 14.6159 35.7503 13.9319 35.0663C13.2479 34.3823 13.2479 33.2735 13.9319 32.5895L24.4439 22.0775C25.1279 21.3935 26.2367 21.3935 26.9207 22.0775C27.6047 22.7543 27.6047 23.8703 26.9207 24.5543Z" fill="#232227"/>
<path d="M16.6468 17.5048L10.0084 24.136C9.32435 24.82 8.21555 24.82 7.53155 24.136C6.84755 23.452 6.84755 22.3432 7.53155 21.6592L14.17 15.0208C14.854 14.3368 15.9628 14.3368 16.6468 15.0208C17.3308 15.7048 17.3308 16.8208 16.6468 17.5048Z" fill="#232227"/>
<path d="M27.8567 15.0933L21.2183 21.7317C20.5343 22.4157 19.4255 22.4157 18.7415 21.7317C18.0575 21.0477 18.0575 19.9389 18.7415 19.2549L25.3799 12.6165C26.0639 11.9325 27.1727 11.9325 27.8567 12.6165C28.5479 13.3005 28.5479 14.4093 27.8567 15.0933Z" fill="#AF74FD"/>
</svg>
