<svg width="36" height="37" viewBox="0 0 36 37" fill="none" xmlns="http://www.w3.org/2000/svg">
<path d="M14.6957 22.0491C13.8317 22.6467 12.6365 23.3307 11.6501 23.3307C10.1741 23.3307 8.91406 22.8555 8.00686 21.9483C7.15006 21.0987 6.67486 19.9179 6.67486 18.6291C6.67486 16.5123 8.16526 14.7123 10.2101 14.1291V15.7563L15.9413 12.0051L10.2101 8.25391V9.71551C5.76046 10.3923 2.34766 14.1291 2.34766 18.6291C2.34766 23.7699 6.34366 27.6507 11.6429 27.6507C13.7309 27.6507 15.8549 26.9235 17.5973 25.0659C18.8717 23.7123 21.3629 18.1467 21.8741 17.3979C21.9533 17.2899 15.6677 21.3723 14.6957 22.0491Z" fill="url(#paint0_linear_1_15344)"/>
<path d="M21.2184 15.2155C22.0824 14.6179 23.2776 13.9339 24.264 13.9339C25.74 13.9339 27 14.4091 27.9072 15.3163C28.764 16.1659 29.2392 17.3467 29.2392 18.6355C29.2392 20.7523 27.7488 22.5523 25.704 23.1355V21.5083L19.9728 25.2595L25.704 29.0179V27.5563C30.1464 26.8795 33.5592 23.1427 33.5592 18.6427C33.5592 13.5019 29.5632 9.62109 24.264 9.62109C22.176 9.62109 20.052 10.3483 18.3096 12.2059C17.0352 13.5595 14.544 19.1251 14.0328 19.8739C13.9608 19.9819 20.2392 15.8923 21.2184 15.2155Z" fill="url(#paint1_linear_1_15344)"/>
<defs>
<linearGradient id="paint0_linear_1_15344" x1="4.09047" y1="15.5589" x2="20.9188" y2="22.4756" gradientUnits="userSpaceOnUse">
<stop offset="0.000838514" stop-color="#0091F6"/>
<stop offset="1" stop-color="#00C6FE"/>
</linearGradient>
<linearGradient id="paint1_linear_1_15344" x1="31.3907" y1="24.3606" x2="18.5555" y2="12.3811" gradientUnits="userSpaceOnUse">
<stop offset="0.000838514" stop-color="#0091F6"/>
<stop offset="1" stop-color="#00C6FE"/>
</linearGradient>
</defs>
</svg>
