<svg width="36" height="37" viewBox="0 0 36 37" fill="none" xmlns="http://www.w3.org/2000/svg">
<path fill-rule="evenodd" clip-rule="evenodd" d="M6.60938 11.1761L17.9854 5.39453L29.3398 11.1761L27.1006 12.4793L17.9854 7.81373L8.82697 12.4865L6.60938 11.1761Z" fill="#FFFFFE"/>
<path fill-rule="evenodd" clip-rule="evenodd" d="M18.0002 8.78516L9.51855 13.0044L15.2714 15.726C15.2714 15.726 16.661 16.3236 17.9858 16.3236C19.3106 16.3236 20.693 15.726 20.693 15.726L26.1506 13.0044L18.0002 8.78516Z" fill="#ED9D2F"/>
<path fill-rule="evenodd" clip-rule="evenodd" d="M19.001 27.2969L26.4746 23.4449V14.7617L22.4354 17.0657C22.4354 17.0657 19.001 18.7433 19.001 23.9129V27.2969Z" fill="#ED9D2F"/>
<path fill-rule="evenodd" clip-rule="evenodd" d="M34.8484 13.6465V16.0873L30.334 18.3841V15.9505L34.8484 13.6465Z" fill="#ED9D2F"/>
<path fill-rule="evenodd" clip-rule="evenodd" d="M13.5578 17.0599L9.51855 14.7559V23.4391L16.9922 27.2983V23.9071C16.9922 18.7375 13.5578 17.0599 13.5578 17.0599Z" fill="#ED9D2F"/>
<path fill-rule="evenodd" clip-rule="evenodd" d="M8.77715 16.8074V14.381L0.360352 10.0898V12.5306L6.55955 15.677V25.4474L16.9924 30.7466V28.3274L8.77715 24.1298V16.8074Z" fill="#FFFFFE"/>
<path fill-rule="evenodd" clip-rule="evenodd" d="M1.14453 16.0873L5.65893 18.3841V15.9505L1.14453 13.6465V16.0873Z" fill="#ED9D2F"/>
<path fill-rule="evenodd" clip-rule="evenodd" d="M29.4338 13.2506L27.2162 14.381V24.1298L19.001 28.3274V30.7466L29.4338 25.4474V15.677L35.633 12.5306V10.0898L29.4338 13.2506Z" fill="#FFFFFE"/>
</svg>
