<svg width="36" height="37" viewBox="0 0 36 37" fill="none" xmlns="http://www.w3.org/2000/svg">
<g clip-path="url(#clip0_1_15343)">
<path d="M18 36.5781C27.9411 36.5781 36 28.5192 36 18.5781C36 8.637 27.9411 0.578125 18 0.578125C8.05887 0.578125 0 8.637 0 18.5781C0 28.5192 8.05887 36.5781 18 36.5781Z" fill="url(#paint0_linear_1_15343)"/>
<path fill-rule="evenodd" clip-rule="evenodd" d="M17.345 7.0725C16.301 7.1949 15.329 7.6701 14.5946 8.4261C14.0402 8.9733 13.5218 9.5349 12.9602 10.0821C12.6794 10.3701 12.3986 10.6509 12.1178 10.9317C11.837 11.2125 11.5202 11.5149 11.2322 11.8101C10.937 12.1053 10.6922 12.3717 10.4258 12.6453C10.001 13.0701 9.57622 13.4949 9.15142 13.9269C8.82742 14.2653 8.50342 14.6109 8.18662 14.9493C7.99942 15.1509 7.79062 15.3381 7.61062 15.5469C6.86902 16.4469 6.46582 17.5773 6.46582 18.7437C6.46582 18.8157 6.46582 18.8805 6.47302 18.9525C6.48742 19.6221 6.66022 20.2773 6.98422 20.8677C7.16422 21.2205 7.38022 21.5589 7.61782 21.8829C7.77622 22.1061 7.89142 22.0989 8.10022 21.9261C8.14342 21.8901 8.17942 21.8541 8.20822 21.8181C8.40982 21.6021 8.61142 21.3861 8.82022 21.1701C9.11542 20.8605 9.41782 20.5509 9.70582 20.2413C10.001 19.9317 10.3178 19.5861 10.6274 19.2621C10.7714 19.1037 10.9298 18.9597 11.081 18.8013C11.3978 18.4701 11.7074 18.1245 12.017 17.7933C12.3338 17.4621 12.6506 17.1525 12.9602 16.8357C13.2698 16.5189 13.6442 16.1157 13.997 15.7629C14.3426 15.4029 14.6378 15.1005 14.9618 14.7765C15.3794 14.3445 15.7898 13.8981 16.2074 13.4661C16.4666 13.1997 16.733 12.9477 16.985 12.6885C17.345 12.3285 17.6762 11.9757 18.029 11.6157C18.3818 11.2557 18.641 11.0181 18.9434 10.7085C19.613 10.0317 20.2898 9.3477 20.9594 8.6565C21.0026 8.6133 21.0458 8.5701 21.0818 8.5197C21.2474 8.3109 21.2618 8.2677 21.0602 8.1165C20.7506 7.8717 20.4122 7.6557 20.0666 7.4685C19.4474 7.1805 18.7706 7.0293 18.0866 7.0293H18.0506C17.8058 7.0293 17.5754 7.0437 17.345 7.0725ZM23.2778 11.4789H23.2346C22.637 11.4789 22.0754 11.7381 21.6938 12.1989C21.6578 12.2349 21.6218 12.2709 21.5858 12.3069L20.4914 13.3797C20.1314 13.7397 19.7426 14.1285 19.3682 14.5029C19.0586 14.8125 18.7418 15.1221 18.4394 15.4317C18.1298 15.7413 17.7986 16.0941 17.4674 16.4181C17.1362 16.7421 16.7834 17.0877 16.4378 17.4189L15.2138 18.6501L12.9458 20.9181C11.945 21.9261 10.937 22.9341 9.94342 23.9349C9.74902 24.1221 9.74902 24.1509 9.94342 24.3525C10.4258 24.8349 10.9082 25.3173 11.3762 25.8069C11.6642 26.1093 12.0458 26.3181 12.4562 26.3829C12.845 26.4621 13.2482 26.4477 13.637 26.3469C13.925 26.2749 14.1914 26.1309 14.4074 25.9365L15.5954 24.7845C15.8762 24.5181 16.157 24.2517 16.4306 23.9781C16.985 23.4309 17.525 22.8837 18.0794 22.3365C18.5258 21.8973 18.9866 21.4581 19.4402 21.0189L21.305 19.2045C21.8882 18.6357 22.4714 18.0597 23.0546 17.4909C23.1698 17.3181 23.4146 17.2677 23.5874 17.3901C23.6522 17.4333 23.7026 17.4981 23.7314 17.5701C24.0266 18.0093 24.1922 18.5205 24.1922 19.0533C24.1922 19.1469 24.185 19.2333 24.1778 19.3269C24.1274 19.8597 23.9114 20.3637 23.5514 20.7597C23.1194 21.2205 22.6658 21.6597 22.2194 22.1061C21.9026 22.4229 21.5714 22.7325 21.2546 23.0493C20.8442 23.4597 20.441 23.8701 20.0234 24.2805C19.9658 24.3453 19.9082 24.4173 19.8434 24.4821L19.4402 24.8997C19.1378 25.2021 18.8282 25.4973 18.533 25.7997C18.2378 26.1021 17.8922 26.4621 17.5754 26.7933C17.5466 26.8221 17.5178 26.8437 17.489 26.8725C17.129 27.2037 16.7978 27.5421 16.4594 27.8733C16.301 28.0317 16.1426 28.1901 15.9842 28.3485C15.7106 28.6221 15.4298 28.8957 15.1706 29.1765C15.0122 29.3421 15.0122 29.4501 15.1994 29.5797C15.509 29.8173 15.8402 30.0333 16.193 30.2133C17.057 30.6021 18.0218 30.7389 18.965 30.6093C19.901 30.5013 20.7794 30.0981 21.4706 29.4645C22.0034 28.9965 22.4714 28.4781 22.9682 27.9741C23.3282 27.6141 23.6882 27.2325 24.0698 26.8653L25.1066 25.8213C25.4234 25.5045 25.733 25.1805 26.0498 24.8709C26.3666 24.5541 26.7626 24.1797 27.1226 23.8269C27.4826 23.4741 27.8426 23.1141 28.1954 22.7325C28.4834 22.4445 28.7426 22.1277 28.9874 21.8037C29.4338 21.1269 29.7146 20.3565 29.801 19.5501C29.8514 19.1469 29.8514 18.7437 29.801 18.3477C29.693 17.6349 29.4338 16.9581 29.045 16.3533C28.7642 15.9285 28.4258 15.5397 28.0442 15.2013C27.0506 14.2149 26.0642 13.2213 25.0922 12.2205C24.6674 11.7453 24.0554 11.4717 23.4146 11.4717H23.4002L23.2778 11.4789Z" fill="white"/>
</g>
<defs>
<linearGradient id="paint0_linear_1_15343" x1="2.54134" y1="8.00103" x2="31.4297" y2="27.7668" gradientUnits="userSpaceOnUse">
<stop stop-color="#FF3B3B"/>
<stop offset="1" stop-color="#FF9914"/>
</linearGradient>
<clipPath id="clip0_1_15343">
<rect width="36" height="36" fill="white" transform="translate(0 0.578125)"/>
</clipPath>
</defs>
</svg>
