<svg width="36" height="37" viewBox="0 0 36 37" fill="none" xmlns="http://www.w3.org/2000/svg">
<path d="M20.3506 16.0123C21.2675 15.901 22.1267 16.061 22.9571 16.4039C23.8415 16.7691 24.614 17.2986 25.2649 18.0008C25.6292 18.3938 25.9363 18.8268 26.1179 19.3361C26.2364 19.6685 26.2725 20.0102 26.2418 20.3662C26.1585 21.335 25.7203 22.1462 25.1404 22.8936C24.6072 23.5808 23.9614 24.1505 23.2536 24.654C22.6144 25.1087 21.9318 25.4859 21.2277 25.8275C20.7753 26.0469 20.3075 26.2287 19.8222 26.3555C19.4385 26.4556 19.0498 26.5398 18.662 26.6257C18.45 26.6726 18.2344 26.7015 18.0225 26.751C17.8876 26.7825 17.7377 26.7838 17.5982 26.8107C17.3234 26.8637 17.0446 26.8829 16.7682 26.9189C16.537 26.9491 16.3035 26.9743 16.0669 26.9713C15.8469 26.9685 15.6261 26.9961 15.4049 26.9962C14.8896 26.9964 14.3731 27.0169 13.8592 26.9893C13.5571 26.973 13.2528 26.9684 12.9497 26.9277C12.7097 26.8955 12.4674 26.8585 12.2224 26.8496C12.0498 26.8434 11.8798 26.7767 11.707 26.7673C11.485 26.7552 11.2748 26.6851 11.0551 26.6639C10.8948 26.6485 10.7365 26.6079 10.5789 26.5717C10.2522 26.4967 9.92576 26.4201 9.60077 26.3381C9.43666 26.2966 9.27608 26.2412 9.1136 26.1932C8.85105 26.1157 8.58589 26.046 8.32617 25.96C8.05704 25.8709 7.79296 25.7664 7.52685 25.6682C7.09182 25.5077 6.66571 25.3247 6.24629 25.1283C5.83045 24.9336 5.42191 24.7232 5.01918 24.5013C4.79317 24.3768 4.57056 24.2465 4.35211 24.1108C4.02725 23.9089 3.70361 23.7046 3.39415 23.4778C3.13989 23.2915 2.8804 23.1127 2.63515 22.9141C2.40946 22.7313 2.1856 22.5469 1.96555 22.357C1.60369 22.0448 1.25345 21.7213 0.922141 21.3775C0.734959 21.1833 0.557479 20.9797 0.374023 20.7785C0.425989 20.7448 0.447499 20.7805 0.471547 20.8031C1.34521 21.6272 2.32242 22.3076 3.36377 22.9014C4.26202 23.4136 5.19658 23.846 6.15935 24.2217C7.04873 24.5687 7.95773 24.8535 8.88072 25.0924C9.5573 25.2675 10.2426 25.4089 10.9333 25.5165C11.4765 25.6011 12.0224 25.6682 12.5711 25.7155C13.4391 25.7903 14.3081 25.8166 15.1773 25.7738C15.6853 25.7488 16.1923 25.6991 16.6971 25.6242C17.3496 25.5275 17.9908 25.3857 18.6218 25.1964C19.3931 24.9652 20.1445 24.6808 20.8538 24.2978C21.2733 24.0713 21.6713 23.8098 22.0384 23.5011C22.3937 23.2022 22.706 22.8686 22.9615 22.4807C23.1441 22.2035 23.2826 21.9043 23.3634 21.5857C23.4433 21.2704 23.5059 20.9473 23.475 20.6176C23.4283 20.1194 23.3114 19.6407 23.1 19.1831C22.9002 18.7506 22.644 18.3547 22.3618 17.9746C22.2406 17.8113 22.0965 17.6651 21.9659 17.5086C21.7156 17.2085 21.4322 16.9412 21.1416 16.6822C20.9271 16.4911 20.6993 16.3148 20.4782 16.131C20.4378 16.0973 20.4009 16.0593 20.3506 16.0123ZM14.5346 17.2295C14.5572 17.1896 14.5293 17.163 14.5081 17.1366C14.2334 16.7945 13.9889 16.4322 13.7728 16.0505C13.3409 15.2875 13.0393 14.4888 13.0844 13.5915C13.0983 13.315 13.1462 13.046 13.239 12.7865C13.5042 12.0454 14.012 11.4984 14.6409 11.05C15.1023 10.7209 15.6045 10.4683 16.1276 10.2543C16.7664 9.99299 17.4287 9.80723 18.098 9.64538C18.3757 9.57822 18.6585 9.53088 18.9376 9.47254C19.1586 9.42635 19.3833 9.39861 19.6042 9.34985C19.853 9.29492 20.1116 9.2817 20.3658 9.24754C20.6768 9.20573 20.99 9.17892 21.3029 9.15322C21.6328 9.12613 21.9634 9.10649 22.2938 9.0863C22.8089 9.0548 23.3247 9.06297 23.8404 9.06205C24.2063 9.0614 24.5711 9.08516 24.9352 9.11205C25.0623 9.12143 25.1906 9.11261 25.3159 9.13261C25.4835 9.15938 25.6523 9.18389 25.8207 9.17646C25.9381 9.17127 26.0504 9.1962 26.1645 9.20502C26.4068 9.22376 26.6466 9.28044 26.8889 9.29346C27.1606 9.30804 27.4245 9.37023 27.6938 9.39845C27.9104 9.42115 28.1269 9.46655 28.3427 9.50559C28.6773 9.56614 29.0135 9.62241 29.3436 9.70249C29.6826 9.78471 30.0244 9.85421 30.3619 9.94531C30.7412 10.0477 31.1241 10.1382 31.4999 10.2539C32.017 10.4131 32.5324 10.5774 33.0398 10.7662C33.4004 10.9005 33.7592 11.0382 34.1143 11.1873C34.4682 11.336 34.8231 11.481 35.1685 11.6488C35.3285 11.7266 35.4909 11.7996 35.6595 11.8782C35.6572 11.8185 35.6207 11.806 35.5924 11.7881C34.7795 11.2732 33.9317 10.8251 33.0477 10.4445C32.367 10.1514 31.6744 9.89075 30.9686 9.66608C30.0489 9.37334 29.1153 9.13527 28.17 8.93807C27.4635 8.79068 26.7535 8.66884 26.0389 8.57396C24.9621 8.43097 23.8804 8.34147 22.7939 8.31849C21.4138 8.28929 20.0377 8.33735 18.6669 8.51699C18.1157 8.58923 17.5665 8.67539 17.024 8.7898C16.4393 8.91314 15.857 9.05849 15.2932 9.26279C15.0248 9.36004 14.7593 9.46725 14.4988 9.58392C14.1071 9.75937 13.7301 9.96443 13.3647 10.1901C12.8675 10.4973 12.3981 10.8419 11.9746 11.2455C11.8144 11.3981 11.6604 11.5571 11.5144 11.7252C11.193 12.0953 10.9173 12.4904 10.7207 12.942C10.5248 13.3923 10.4391 13.8547 10.514 14.343C10.5534 14.6004 10.6376 14.8435 10.7679 15.0672C11.0249 15.5083 11.388 15.8504 11.808 16.1324C12.3542 16.499 12.9604 16.7425 13.5778 16.9557C13.891 17.0639 14.216 17.1378 14.5357 17.2273L14.5346 17.2295ZM19.4181 15.0763C19.3047 14.908 19.2118 14.7277 19.2392 14.5153C19.2779 14.215 19.4884 14.0611 19.7378 13.9356C20.1314 13.7375 20.5614 13.7244 20.9846 13.6761C21.2995 13.6401 21.6144 13.6751 21.9268 13.7063C22.0226 13.7159 22.1203 13.7079 22.2139 13.7277C22.4984 13.7878 22.7878 13.8196 23.0712 13.8875C23.528 13.9968 23.9806 14.1195 24.4191 14.2875C25.0072 14.513 25.5681 14.7937 26.1009 15.1316C26.5076 15.3896 26.8896 15.6771 27.2405 16.007C27.5791 16.3253 27.8921 16.6657 28.1623 17.0444C28.3958 17.3718 28.6022 17.7145 28.7734 18.0796C28.914 18.3796 29.027 18.6892 29.1274 19.0033C29.2269 19.315 29.2594 19.6413 29.2973 19.9645C29.3339 20.2771 29.2742 20.5857 29.218 20.8924C29.1852 21.0715 29.1348 21.2456 29.0781 21.4192C28.9519 21.8059 28.7575 22.1585 28.5173 22.4794C28.1828 22.9265 27.7857 23.3165 27.3415 23.6595C26.9167 23.9875 26.4592 24.2603 25.9892 24.5155C25.8769 24.5765 25.7498 24.6131 25.6493 24.7018C25.6759 24.726 25.695 24.7226 25.7187 24.7134C26.3116 24.485 26.9017 24.2506 27.4615 23.9467C27.9127 23.7018 28.3476 23.4336 28.7519 23.1147C29.247 22.7242 29.6813 22.2799 30.0186 21.7454C30.5129 20.9621 30.7098 20.1077 30.5902 19.19C30.4969 18.4734 30.2268 17.8165 29.8416 17.2081C29.3522 16.4355 28.7316 15.7826 28.0171 15.2136C27.0812 14.4683 26.0469 13.9043 24.9155 13.5221C24.3083 13.317 23.6859 13.1692 23.0512 13.0664C22.5403 12.9837 22.0275 12.9376 21.5124 12.912C21.0171 12.8874 20.5226 12.9259 20.0345 13.0084C19.6456 13.0742 19.2611 13.1684 18.9284 13.4008C18.5675 13.6529 18.4719 14.0037 18.6744 14.3899C18.896 14.8125 19.2577 15.1099 19.6507 15.3729C19.5726 15.2744 19.4881 15.1802 19.4181 15.0763ZM12.3229 9.87885C11.9089 10.0248 11.505 10.1947 11.1138 10.393C10.4796 10.7145 9.87827 11.0864 9.3272 11.5405C8.9642 11.8397 8.622 12.1569 8.32632 12.522C7.97739 12.9529 7.68931 13.419 7.49295 13.9421C7.37474 14.257 7.29792 14.5808 7.27866 14.9112C7.26023 15.2276 7.26856 15.5485 7.34569 15.8619C7.44028 16.2462 7.57939 16.6123 7.77879 16.9547C7.97287 17.288 8.20545 17.5907 8.46027 17.8815C8.78337 18.2502 9.14893 18.5673 9.53514 18.8636C9.77909 19.0509 10.0392 19.2158 10.3074 19.3649C10.5159 19.4807 10.7292 19.5889 10.9457 19.6909C11.2369 19.8279 11.535 19.9469 11.8367 20.0557C12.1324 20.1623 12.4355 20.2461 12.7402 20.3254C13.2318 20.4534 13.7279 20.5414 14.2365 20.5522C14.6272 20.5604 15.0178 20.5702 15.3977 20.4513C15.6579 20.37 15.8978 20.2526 16.0517 20.0194C16.2322 19.7459 16.1956 19.4525 16.0918 19.161C15.9587 18.7871 15.73 18.4704 15.4858 18.1642C15.4501 18.1195 15.4237 18.0494 15.3369 18.0425C15.4364 18.2225 15.5158 18.3998 15.5427 18.5915C15.5666 18.7615 15.5626 18.9326 15.4563 19.0859C15.3125 19.2934 15.0983 19.3896 14.8694 19.4494C14.349 19.5853 13.8238 19.5296 13.3057 19.44C12.7652 19.3466 12.2451 19.177 11.7357 18.969C10.9756 18.6587 10.3195 18.2001 9.74866 17.6184C9.43076 17.2944 9.14823 16.9399 8.92035 16.5428C8.49137 15.7955 8.31294 14.9996 8.44773 14.1449C8.54064 13.5557 8.77338 13.0181 9.10013 12.5209C9.54542 11.8433 10.1167 11.2892 10.7701 10.8144C11.2928 10.4346 11.8549 10.1256 12.4442 9.86264C12.4035 9.86858 12.3647 9.86415 12.3229 9.87885ZM14.5359 17.227C14.5404 17.2236 14.5538 17.241 14.5506 17.2204C14.5453 17.2234 14.54 17.2264 14.5346 17.2295C14.5346 17.2295 14.5358 17.2272 14.5359 17.227Z" fill="#0283C6"/>
</svg>
