<svg width="36" height="37" viewBox="0 0 36 37" fill="none" xmlns="http://www.w3.org/2000/svg">
<g clip-path="url(#clip0_1_15799)">
<path fill-rule="evenodd" clip-rule="evenodd" d="M31.9104 18.4845C31.9104 26.2173 25.6392 32.4885 17.9064 32.4885C10.1736 32.4885 3.9024 26.2173 3.9024 18.4845C3.9024 10.7517 10.1736 4.48052 17.9064 4.48052C25.6464 4.48772 31.9104 10.7517 31.9104 18.4845ZM35.82 18.4845C35.82 28.3773 27.7992 36.3981 17.9064 36.3981C8.0208 36.3981 0 28.3773 0 18.4845C0 8.59892 8.0208 0.578125 17.9064 0.578125C27.7992 0.578125 35.82 8.59892 35.82 18.4845ZM17.9064 14.4021C18.9504 14.4021 19.7856 13.5525 19.7856 12.5229C19.7856 11.4789 18.936 10.6437 17.9064 10.6437C16.8624 10.6437 16.0272 11.4933 16.0272 12.5229C16.0272 13.5669 16.8624 14.4021 17.9064 14.4021ZM24.0264 17.3325H11.7864C11.664 17.3325 11.5632 17.4333 11.5632 17.5557V19.6149C11.5632 19.7373 11.664 19.8381 11.7864 19.8381H16.4304V26.1237C16.4304 26.2461 16.5312 26.3469 16.6536 26.3469H19.188C19.3104 26.3469 19.4112 26.2461 19.4112 26.1237V19.8381H24.0552C24.1776 19.8381 24.2784 19.7373 24.2784 19.6149V17.5557C24.2496 17.4261 24.156 17.3325 24.0264 17.3325Z" fill="#080503"/>
</g>
<defs>
<clipPath id="clip0_1_15799">
<rect width="36" height="36" fill="white" transform="translate(0 0.578125)"/>
</clipPath>
</defs>
</svg>
