<svg width="36" height="37" viewBox="0 0 36 37" fill="none" xmlns="http://www.w3.org/2000/svg">
<g clip-path="url(#clip0_1_15834)">
<path d="M18.0002 3.12029C22.1258 3.12029 26.0066 4.72589 28.9298 7.64909C31.8458 10.5651 33.4586 14.4459 33.4586 18.5787C33.4586 22.7115 31.853 26.5851 28.9298 29.5083C26.0138 32.4243 22.133 34.0371 18.0002 34.0371C13.8674 34.0371 9.9938 32.4315 7.0706 29.5083C4.1546 26.5923 2.5418 22.7115 2.5418 18.5787C2.5418 14.4459 4.1546 10.5651 7.0706 7.64909C9.9938 4.72589 13.8746 3.12029 18.0002 3.12029ZM18.0002 0.837891C8.2082 0.837891 0.266602 8.77949 0.266602 18.5715C0.266602 28.3707 8.2082 36.3051 18.0002 36.3051C27.7922 36.3051 35.7338 28.3707 35.7338 18.5715C35.7338 8.77949 27.7922 0.837891 18.0002 0.837891Z" fill="#2871DA"/>
<path d="M26.7332 17.8869C27.4676 17.8869 28.0652 17.2893 28.0652 16.5549C28.0652 15.8205 27.4676 15.2229 26.7332 15.2229H22.8164L22.7948 11.8749H26.906C27.6404 11.8749 28.238 11.2773 28.238 10.5429C28.238 9.80854 27.6404 9.21094 26.906 9.21094H10.1516C9.41717 9.21094 8.81957 9.80854 8.81957 10.5429C8.81957 11.2773 9.41717 11.8749 10.1516 11.8749H14.0972L14.1188 15.2229H12.9812C10.2236 15.2229 7.98438 17.4621 7.98438 20.2197C7.98438 22.9773 10.2236 25.2165 12.9812 25.2165H14.198L14.2196 27.7509C14.2268 28.4781 14.8172 29.0685 15.5516 29.0685H15.5588C16.2932 29.0613 16.8836 28.4637 16.8764 27.7293L16.8548 25.2165H20.2316L20.2532 27.7509C20.2604 28.4781 20.8508 29.0685 21.5852 29.0685H21.5924C22.3268 29.0613 22.9172 28.4637 22.91 27.7293L22.8884 25.2165H26.6756C27.41 25.2165 28.0076 24.6189 28.0076 23.8845C28.0076 23.1501 27.41 22.5525 26.6756 22.5525H22.8668L22.8308 17.8725H26.7332V17.8869ZM16.754 11.8749H20.1308L20.1524 15.2229H16.7756L16.754 11.8749ZM12.9812 22.5669C11.6924 22.5669 10.6412 21.5157 10.6412 20.2269C10.6412 18.9381 11.6924 17.8869 12.9812 17.8869H14.1404L14.1764 22.5669H12.9812ZM20.21 22.5669H16.8332L16.7972 17.8869H20.174L20.21 22.5669Z" fill="#2871DA"/>
</g>
<defs>
<clipPath id="clip0_1_15834">
<rect width="36" height="36" fill="white" transform="translate(0 0.578125)"/>
</clipPath>
</defs>
</svg>
