<svg width="36" height="37" viewBox="0 0 36 37" fill="none" xmlns="http://www.w3.org/2000/svg">
<g clip-path="url(#clip0_1_15342)">
<path d="M0.491211 23.2361C0.491211 23.0516 0.491211 22.867 0.491211 22.6825C0.516627 22.5696 0.546507 22.4575 0.566883 22.3437C0.718011 21.4976 0.867195 20.6511 1.01717 19.8048C1.65703 16.1948 2.29704 12.5848 2.93669 8.97474C2.99472 8.64736 3.09898 8.33509 3.24017 8.03478C3.44415 7.60113 3.70695 7.20556 4.02331 6.8465C4.57858 6.21614 5.23306 5.73697 6.03651 5.45545C7.78258 4.8436 9.52152 4.21144 11.2634 3.58749C13.7687 2.69008 16.2741 1.79267 18.7793 0.894903C19.041 0.801087 19.3094 0.737151 19.585 0.701007C19.6904 0.687183 19.7952 0.667455 19.9003 0.650391C20.1042 0.650391 20.3083 0.650391 20.5123 0.650391C20.5547 0.659607 20.5968 0.671631 20.6397 0.677535C20.7984 0.699351 20.9582 0.713535 21.116 0.740679C21.9939 0.891735 22.7882 1.21912 23.4735 1.80707C24.2141 2.4424 24.974 3.05512 25.7256 3.67763C28.4366 5.92281 31.1483 8.16705 33.8567 10.4152C34.0313 10.5601 34.1944 10.7243 34.3383 10.8996C34.9182 11.6061 35.2626 12.4214 35.4206 13.3183C35.4366 13.4084 35.4487 13.4992 35.4625 13.5897C35.4625 13.8812 35.4625 14.1726 35.4625 14.464C35.4456 14.5591 35.4287 14.6541 35.4119 14.7492C35.2893 15.4426 35.1668 16.1362 35.0439 16.8296C34.3939 20.4974 33.743 24.1652 33.0949 27.8333C33.0329 28.1843 32.9466 28.5263 32.8009 28.8522C32.4782 29.5743 32.0043 30.1829 31.4081 30.698C31.015 31.0376 30.5786 31.306 30.0864 31.4799C29.6423 31.6368 29.199 31.7965 28.7555 31.9553C26.4417 32.7838 24.1282 33.6126 21.8144 34.4411C20.2963 34.9847 18.778 35.5273 17.2601 36.0716C16.98 36.172 16.6937 36.2445 16.3987 36.2831C16.3221 36.2931 16.2461 36.3083 16.1698 36.3211C15.9269 36.3211 15.6841 36.3211 15.4412 36.3211C15.3986 36.3124 15.3563 36.2991 15.3133 36.2957C14.9831 36.2691 14.6594 36.206 14.3403 36.1193C13.6897 35.9426 13.1009 35.6516 12.5811 35.2141C11.6859 34.4607 10.7802 33.7198 9.87871 32.9739C7.2942 30.8353 4.70868 28.6974 2.12619 26.5561C1.96635 26.4235 1.81673 26.274 1.68375 26.1146C1.0482 25.3522 0.686403 24.4689 0.548235 23.4897C0.536139 23.4041 0.510507 23.3206 0.491211 23.2361ZM21.42 23.5064C21.3289 23.501 21.2624 23.4936 21.1959 23.4935C20.1906 23.4928 19.1854 23.4972 18.1802 23.4897C17.9488 23.488 17.7127 23.468 17.4873 23.4178C17.0653 23.3238 16.8544 23.06 16.8151 22.6289C16.8107 22.5806 16.8107 22.5319 16.8089 22.4834C16.799 22.2 16.8375 21.9207 16.8906 21.6441C17.2079 19.9892 17.5279 18.335 17.8476 16.6806C17.8932 16.4449 17.8948 16.4448 18.1413 16.445C19.6079 16.446 21.0744 16.4473 22.541 16.4483C22.5992 16.4484 22.6577 16.4499 22.7157 16.446C22.8178 16.4393 22.8373 16.4218 22.8648 16.3204C22.8724 16.2923 22.8769 16.2634 22.8824 16.2348C23.0307 15.4722 23.179 14.7095 23.3269 13.9468C23.3343 13.9087 23.34 13.8702 23.3436 13.8316C23.349 13.7737 23.3234 13.7373 23.2634 13.7334C23.2102 13.7298 23.1567 13.729 23.1033 13.729C21.6125 13.7301 20.1216 13.7315 18.6307 13.7325C18.4281 13.7326 18.4196 13.7226 18.4578 13.5251C18.5843 12.872 18.7117 12.2191 18.8388 11.566C18.9195 11.1514 19.0014 10.7369 19.0802 10.3219C19.1089 10.1712 19.0884 10.1486 18.9401 10.1429C18.9158 10.142 18.8915 10.1423 18.8672 10.1423C18.4933 10.1422 18.1192 10.1486 17.7455 10.1393C17.583 10.1354 17.4788 10.1854 17.3874 10.3265C17.0513 10.8454 16.6592 11.3216 16.227 11.7637C15.2707 12.7418 14.1603 13.495 12.8991 14.0235C12.7617 14.0811 12.6956 14.1596 12.6692 14.305C12.5523 14.95 12.4255 15.5932 12.3027 16.2371C12.2644 16.438 12.2749 16.4508 12.4875 16.4511C13.0556 16.4518 13.6239 16.4511 14.192 16.4517C14.4185 16.4519 14.4244 16.4597 14.3761 16.6862C14.144 17.7736 13.9068 18.8601 13.6808 19.9489C13.5438 20.6092 13.3802 21.2651 13.3311 21.9416C13.2843 22.5863 13.3221 23.2228 13.4896 23.8485C13.6541 24.4632 13.9276 25.0225 14.3655 25.4901C14.9932 26.1606 15.7749 26.4934 16.6893 26.4992C17.9664 26.5072 19.2436 26.5014 20.5208 26.5015C20.55 26.5015 20.5791 26.5019 20.6082 26.5C20.719 26.4928 20.7368 26.478 20.7693 26.3682C20.7761 26.345 20.781 26.3211 20.7864 26.2974C20.9882 25.427 21.1901 24.5567 21.3912 23.6861C21.4031 23.6352 21.4079 23.583 21.42 23.5064Z" fill="#00C9FA"/>
<path d="M21.4205 23.506C21.4086 23.5827 21.4037 23.6349 21.392 23.6856C21.1909 24.5562 20.989 25.4266 20.7872 26.297C20.7817 26.3207 20.7769 26.3445 20.7701 26.3678C20.7376 26.4776 20.7198 26.4923 20.609 26.4996C20.58 26.5015 20.5508 26.501 20.5216 26.501C19.2444 26.501 17.9672 26.5068 16.6901 26.4987C15.7757 26.493 14.994 26.1601 14.3663 25.4897C13.9284 25.022 13.6549 24.4626 13.4904 23.8481C13.3229 23.2223 13.2851 22.5858 13.3319 21.9411C13.381 21.2646 13.5446 20.6088 13.6816 19.9485C13.9076 18.8597 14.1448 17.7732 14.3769 16.6857C14.4252 16.4593 14.4193 16.4514 14.1928 16.4512C13.6247 16.4506 13.0564 16.4514 12.4883 16.4506C12.2757 16.4503 12.2652 16.4375 12.3035 16.2366C12.4262 15.5927 12.553 14.9495 12.67 14.3045C12.6964 14.1592 12.7625 14.0806 12.8999 14.023C14.1611 13.4946 15.2715 12.7414 16.2277 11.7632C16.66 11.3211 17.0521 10.845 17.3882 10.326C17.4796 10.185 17.5838 10.1349 17.7463 10.1389C18.12 10.148 18.4941 10.1418 18.868 10.1418C18.8923 10.1418 18.9166 10.1416 18.9409 10.1425C19.0892 10.1481 19.1097 10.1708 19.081 10.3214C19.0022 10.7364 18.9203 11.1509 18.8396 11.5656C18.7125 12.2185 18.5851 12.8715 18.4586 13.5246C18.4204 13.7223 18.4289 13.7322 18.6315 13.7321C20.1224 13.731 21.6133 13.7296 23.1041 13.7285C23.1575 13.7285 23.211 13.7294 23.2642 13.7329C23.3242 13.7369 23.3498 13.7732 23.3444 13.8311C23.3408 13.8697 23.335 13.9083 23.3277 13.9463C23.1798 14.709 23.0315 15.4717 22.8832 16.2343C22.8777 16.2629 22.8732 16.2919 22.8656 16.32C22.8381 16.4214 22.8186 16.439 22.7165 16.4456C22.6585 16.4494 22.6 16.4479 22.5418 16.4479C21.0752 16.4468 19.6087 16.4456 18.1421 16.4446C17.8956 16.4444 17.8939 16.4444 17.8484 16.6802C17.5286 18.3345 17.2087 19.9889 16.8914 21.6436C16.8383 21.9203 16.7998 22.1996 16.8097 22.4829C16.8115 22.5315 16.8115 22.5801 16.8159 22.6284C16.8551 23.0596 17.066 23.3235 17.4881 23.4174C17.7135 23.4675 17.9496 23.4876 18.181 23.4893C19.1862 23.4968 20.1915 23.4923 21.1967 23.4931C21.263 23.4932 21.3295 23.5006 21.4205 23.506Z" fill="white"/>
</g>
<defs>
<clipPath id="clip0_1_15342">
<rect width="36" height="36" fill="white" transform="translate(0 0.578125)"/>
</clipPath>
</defs>
</svg>
