<svg width="36" height="37" viewBox="0 0 36 37" fill="none" xmlns="http://www.w3.org/2000/svg">
<g clip-path="url(#clip0_1_15888)">
<path d="M16.4663 0.953125C16.4663 0.953125 21.8591 4.11393 21.8591 9.38433C21.8591 13.0203 20.8727 13.4019 20.8727 14.9283C20.8727 17.0811 22.8455 17.6643 23.4575 17.6643C24.0623 17.6643 26.4383 17.3979 26.4383 14.2011C26.4383 14.2011 30.4415 18.1539 30.4415 22.9779C30.4415 26.7003 28.9223 29.2851 26.7191 30.8043C24.5159 32.3235 21.7655 32.3091 20.1095 34.3755C19.1159 35.6067 19.0439 36.1251 19.0439 36.1251C19.0439 36.1251 6.89027 34.4475 5.98307 22.9851C5.34947 14.9283 14.9687 10.0827 16.0415 6.20913C16.7471 3.67473 16.4663 0.953125 16.4663 0.953125Z" fill="url(#paint0_linear_1_15888)"/>
<path d="M25.9773 4.96289C25.9773 4.96289 28.1877 7.59809 28.1877 9.75089C28.1877 11.3421 27.3597 11.3637 26.9349 11.8677C26.4813 12.4077 26.4957 12.8757 26.4957 12.8757C26.4957 12.8757 24.3789 12.2421 24.3789 10.0605C24.3789 7.87889 26.0205 7.30289 26.0205 6.13649C26.0061 5.09249 25.9773 4.96289 25.9773 4.96289Z" fill="url(#paint1_linear_1_15888)"/>
<path d="M25.0633 19.8301H11.3545V24.3301H15.9625V28.9381H20.4625V24.3301H25.0633V19.8301Z" fill="white"/>
</g>
<defs>
<linearGradient id="paint0_linear_1_15888" x1="18.2015" y1="0.883155" x2="18.2015" y2="35.763" gradientUnits="userSpaceOnUse">
<stop stop-color="#FF4F0F"/>
<stop offset="1" stop-color="#FFAD15"/>
</linearGradient>
<linearGradient id="paint1_linear_1_15888" x1="26.2745" y1="0.882485" x2="26.2745" y2="35.7781" gradientUnits="userSpaceOnUse">
<stop stop-color="#FF4F0F"/>
<stop offset="1" stop-color="#FFAD15"/>
</linearGradient>
<clipPath id="clip0_1_15888">
<rect width="36" height="36" fill="white" transform="translate(0 0.578125)"/>
</clipPath>
</defs>
</svg>
