<svg width="36" height="37" viewBox="0 0 36 37" fill="none" xmlns="http://www.w3.org/2000/svg">
<g clip-path="url(#clip0_1_15340)">
<path d="M8.83824 36.2245C8.25029 35.6398 7.65867 35.0514 7.07129 34.4672C7.07129 23.8336 7.07129 13.2243 7.07129 2.65504C7.68012 2.03908 8.26671 1.44573 8.90995 0.794922C14.9847 0.794922 21.1425 0.794922 27.28 0.794922C27.8899 1.38302 28.4904 1.96197 29.072 2.52278C29.072 13.1857 29.072 23.795 29.072 34.4137C28.4697 34.9838 27.8635 35.5576 27.1589 36.2247C21.1739 36.2245 15.0144 36.2245 8.83824 36.2245ZM25.4886 32.6444C25.4886 23.2042 25.4886 13.8298 25.4886 4.42826C20.4948 4.42826 15.5768 4.42826 10.652 4.42826C10.652 13.8901 10.652 23.2427 10.652 32.6444C15.6018 32.6444 20.5044 32.6444 25.4886 32.6444ZM16.3391 9.90919C16.3391 11.1251 16.3391 12.2587 16.3391 13.4728C15.0788 13.4728 13.9125 13.4728 12.7102 13.4728C12.7102 14.7167 12.7102 15.8771 12.7102 17.0877C16.3158 17.0877 19.8683 17.0877 23.4354 17.0877C23.4354 15.8546 23.4354 14.6953 23.4354 13.4337C22.2074 13.4337 21.0454 13.4337 19.8362 13.4337C19.8362 12.2189 19.8362 11.1073 19.8362 9.90911C18.627 9.90919 17.5302 9.90919 16.3391 9.90919ZM19.8211 23.6929C21.1363 23.6929 22.2989 23.6929 23.4499 23.6929C23.4499 22.4856 23.4499 21.3791 23.4499 20.2288C19.855 20.2288 16.3015 20.2288 12.7109 20.2288C12.7109 21.4036 12.7109 22.5322 12.7109 23.7872C13.95 23.7872 15.1384 23.7872 16.4168 23.7872C16.4168 25.0758 16.4168 26.2386 16.4168 27.427C17.5646 27.427 18.6152 27.427 19.8211 27.427C19.8211 26.214 19.8211 25 19.8211 23.6929Z" fill="url(#paint0_linear_1_15340)"/>
</g>
<defs>
<linearGradient id="paint0_linear_1_15340" x1="18.0716" y1="0.794922" x2="18.0716" y2="36.3665" gradientUnits="userSpaceOnUse">
<stop stop-color="#2CB6EC"/>
<stop offset="1" stop-color="#27E6BC"/>
</linearGradient>
<clipPath id="clip0_1_15340">
<rect width="36" height="36" fill="white" transform="translate(0 0.578125)"/>
</clipPath>
</defs>
</svg>
