<svg width="36" height="37" viewBox="0 0 36 37" fill="none" xmlns="http://www.w3.org/2000/svg">
<path d="M11.0452 29.5943C17.0536 29.5943 21.9244 24.7236 21.9244 18.7151C21.9244 12.7067 17.0536 7.83594 11.0452 7.83594C5.0368 7.83594 0.166016 12.7067 0.166016 18.7151C0.166016 24.7236 5.0368 29.5943 11.0452 29.5943Z" fill="url(#paint0_linear_1_15339)"/>
<path d="M9.7843 22.3928C10.2336 22.3928 10.5979 22.0286 10.5979 21.5792C10.5979 21.1299 10.2336 20.7656 9.7843 20.7656C9.33496 20.7656 8.9707 21.1299 8.9707 21.5792C8.9707 22.0286 9.33496 22.3928 9.7843 22.3928Z" fill="white"/>
<path d="M12.1964 22.3928C12.6458 22.3928 13.01 22.0286 13.01 21.5792C13.01 21.1299 12.6458 20.7656 12.1964 20.7656C11.7471 20.7656 11.3828 21.1299 11.3828 21.5792C11.3828 22.0286 11.7471 22.3928 12.1964 22.3928Z" fill="white"/>
<path d="M14.6017 22.3928C15.051 22.3928 15.4153 22.0286 15.4153 21.5792C15.4153 21.1299 15.051 20.7656 14.6017 20.7656C14.1523 20.7656 13.7881 21.1299 13.7881 21.5792C13.7881 22.0286 14.1523 22.3928 14.6017 22.3928Z" fill="white"/>
<path d="M17.0138 22.3928C17.4631 22.3928 17.8274 22.0286 17.8274 21.5792C17.8274 21.1299 17.4631 20.7656 17.0138 20.7656C16.5645 20.7656 16.2002 21.1299 16.2002 21.5792C16.2002 22.0286 16.5645 22.3928 17.0138 22.3928Z" fill="white"/>
<path d="M19.4181 22.3928C19.8674 22.3928 20.2317 22.0286 20.2317 21.5792C20.2317 21.1299 19.8674 20.7656 19.4181 20.7656C18.9688 20.7656 18.6045 21.1299 18.6045 21.5792C18.6045 22.0286 18.9688 22.3928 19.4181 22.3928Z" fill="white"/>
<path d="M21.8302 22.3928C22.2795 22.3928 22.6438 22.0286 22.6438 21.5792C22.6438 21.1299 22.2795 20.7656 21.8302 20.7656C21.3809 20.7656 21.0166 21.1299 21.0166 21.5792C21.0166 22.0286 21.3809 22.3928 21.8302 22.3928Z" fill="white"/>
<path d="M24.2355 22.3928C24.6848 22.3928 25.0491 22.0286 25.0491 21.5792C25.0491 21.1299 24.6848 20.7656 24.2355 20.7656C23.7861 20.7656 23.4219 21.1299 23.4219 21.5792C23.4219 22.0286 23.7861 22.3928 24.2355 22.3928Z" fill="white"/>
<path d="M26.6476 22.3928C27.0969 22.3928 27.4612 22.0286 27.4612 21.5792C27.4612 21.1299 27.0969 20.7656 26.6476 20.7656C26.1982 20.7656 25.834 21.1299 25.834 21.5792C25.834 22.0286 26.1982 22.3928 26.6476 22.3928Z" fill="white"/>
<path d="M29.0519 22.3928C29.5012 22.3928 29.8655 22.0286 29.8655 21.5792C29.8655 21.1299 29.5012 20.7656 29.0519 20.7656C28.6025 20.7656 28.2383 21.1299 28.2383 21.5792C28.2383 22.0286 28.6025 22.3928 29.0519 22.3928Z" fill="white"/>
<path d="M30.3985 24.5822C30.7087 24.5822 30.9601 24.3307 30.9601 24.0206C30.9601 23.7104 30.7087 23.459 30.3985 23.459C30.0884 23.459 29.8369 23.7104 29.8369 24.0206C29.8369 24.3307 30.0884 24.5822 30.3985 24.5822Z" fill="white"/>
<path d="M27.9073 24.5822C28.2175 24.5822 28.4689 24.3307 28.4689 24.0206C28.4689 23.7104 28.2175 23.459 27.9073 23.459C27.5971 23.459 27.3457 23.7104 27.3457 24.0206C27.3457 24.3307 27.5971 24.5822 27.9073 24.5822Z" fill="white"/>
<path d="M25.4161 24.5822C25.7263 24.5822 25.9777 24.3307 25.9777 24.0206C25.9777 23.7104 25.7263 23.459 25.4161 23.459C25.1059 23.459 24.8545 23.7104 24.8545 24.0206C24.8545 24.3307 25.1059 24.5822 25.4161 24.5822Z" fill="white"/>
<path d="M22.9317 24.5822C23.2419 24.5822 23.4933 24.3307 23.4933 24.0206C23.4933 23.7104 23.2419 23.459 22.9317 23.459C22.6216 23.459 22.3701 23.7104 22.3701 24.0206C22.3701 24.3307 22.6216 24.5822 22.9317 24.5822Z" fill="white"/>
<path d="M20.4405 24.5822C20.7507 24.5822 21.0021 24.3307 21.0021 24.0206C21.0021 23.7104 20.7507 23.459 20.4405 23.459C20.1303 23.459 19.8789 23.7104 19.8789 24.0206C19.8789 24.3307 20.1303 24.5822 20.4405 24.5822Z" fill="white"/>
<path d="M17.9493 24.5822C18.2595 24.5822 18.5109 24.3307 18.5109 24.0206C18.5109 23.7104 18.2595 23.459 17.9493 23.459C17.6391 23.459 17.3877 23.7104 17.3877 24.0206C17.3877 24.3307 17.6391 24.5822 17.9493 24.5822Z" fill="white"/>
<path d="M15.4659 24.5822C15.7761 24.5822 16.0275 24.3307 16.0275 24.0206C16.0275 23.7104 15.7761 23.459 15.4659 23.459C15.1557 23.459 14.9043 23.7104 14.9043 24.0206C14.9043 24.3307 15.1557 24.5822 15.4659 24.5822Z" fill="white"/>
<path d="M12.9747 24.5822C13.2848 24.5822 13.5363 24.3307 13.5363 24.0206C13.5363 23.7104 13.2848 23.459 12.9747 23.459C12.6645 23.459 12.4131 23.7104 12.4131 24.0206C12.4131 24.3307 12.6645 24.5822 12.9747 24.5822Z" fill="white"/>
<path d="M10.4835 24.5822C10.7936 24.5822 11.0451 24.3307 11.0451 24.0206C11.0451 23.7104 10.7936 23.459 10.4835 23.459C10.1733 23.459 9.92188 23.7104 9.92188 24.0206C9.92188 24.3307 10.1733 24.5822 10.4835 24.5822Z" fill="white"/>
<path d="M31.7161 26.2799C32.0184 26.2799 32.2633 26.035 32.2633 25.7327C32.2633 25.4305 32.0184 25.1855 31.7161 25.1855C31.4139 25.1855 31.1689 25.4305 31.1689 25.7327C31.1689 26.035 31.4139 26.2799 31.7161 26.2799Z" fill="white"/>
<path d="M29.1956 26.2799C29.4978 26.2799 29.7428 26.035 29.7428 25.7327C29.7428 25.4305 29.4978 25.1855 29.1956 25.1855C28.8934 25.1855 28.6484 25.4305 28.6484 25.7327C28.6484 26.035 28.8934 26.2799 29.1956 26.2799Z" fill="white"/>
<path d="M26.6683 26.2799C26.9705 26.2799 27.2155 26.035 27.2155 25.7327C27.2155 25.4305 26.9705 25.1855 26.6683 25.1855C26.3661 25.1855 26.1211 25.4305 26.1211 25.7327C26.1211 26.035 26.3661 26.2799 26.6683 26.2799Z" fill="white"/>
<path d="M24.1419 26.2799C24.4441 26.2799 24.6891 26.035 24.6891 25.7327C24.6891 25.4305 24.4441 25.1855 24.1419 25.1855C23.8397 25.1855 23.5947 25.4305 23.5947 25.7327C23.5947 26.035 23.8397 26.2799 24.1419 26.2799Z" fill="white"/>
<path d="M21.6214 26.2799C21.9236 26.2799 22.1686 26.035 22.1686 25.7327C22.1686 25.4305 21.9236 25.1855 21.6214 25.1855C21.3192 25.1855 21.0742 25.4305 21.0742 25.7327C21.0742 26.035 21.3192 26.2799 21.6214 26.2799Z" fill="white"/>
<path d="M19.0941 26.2799C19.3963 26.2799 19.6413 26.035 19.6413 25.7327C19.6413 25.4305 19.3963 25.1855 19.0941 25.1855C18.7919 25.1855 18.5469 25.4305 18.5469 25.7327C18.5469 26.035 18.7919 26.2799 19.0941 26.2799Z" fill="white"/>
<path d="M16.5745 26.2799C16.8768 26.2799 17.1217 26.035 17.1217 25.7327C17.1217 25.4305 16.8768 25.1855 16.5745 25.1855C16.2723 25.1855 16.0273 25.4305 16.0273 25.7327C16.0273 26.035 16.2723 26.2799 16.5745 26.2799Z" fill="white"/>
<path d="M14.0472 26.2799C14.3494 26.2799 14.5944 26.035 14.5944 25.7327C14.5944 25.4305 14.3494 25.1855 14.0472 25.1855C13.745 25.1855 13.5 25.4305 13.5 25.7327C13.5 26.035 13.745 26.2799 14.0472 26.2799Z" fill="white"/>
<path d="M11.5199 26.2799C11.8221 26.2799 12.0671 26.035 12.0671 25.7327C12.0671 25.4305 11.8221 25.1855 11.5199 25.1855C11.2176 25.1855 10.9727 25.4305 10.9727 25.7327C10.9727 26.035 11.2176 26.2799 11.5199 26.2799Z" fill="white"/>
<path d="M33.4801 27.886C33.7107 27.886 33.8977 27.699 33.8977 27.4684C33.8977 27.2377 33.7107 27.0508 33.4801 27.0508C33.2495 27.0508 33.0625 27.2377 33.0625 27.4684C33.0625 27.699 33.2495 27.886 33.4801 27.886Z" fill="white"/>
<path d="M30.9166 27.886C31.1473 27.886 31.3342 27.699 31.3342 27.4684C31.3342 27.2377 31.1473 27.0508 30.9166 27.0508C30.686 27.0508 30.499 27.2377 30.499 27.4684C30.499 27.699 30.686 27.886 30.9166 27.886Z" fill="white"/>
<path d="M28.361 27.886C28.5916 27.886 28.7786 27.699 28.7786 27.4684C28.7786 27.2377 28.5916 27.0508 28.361 27.0508C28.1303 27.0508 27.9434 27.2377 27.9434 27.4684C27.9434 27.699 28.1303 27.886 28.361 27.886Z" fill="white"/>
<path d="M25.8043 27.886C26.035 27.886 26.2219 27.699 26.2219 27.4684C26.2219 27.2377 26.035 27.0508 25.8043 27.0508C25.5737 27.0508 25.3867 27.2377 25.3867 27.4684C25.3867 27.699 25.5737 27.886 25.8043 27.886Z" fill="white"/>
<path d="M23.2487 27.886C23.4793 27.886 23.6663 27.699 23.6663 27.4684C23.6663 27.2377 23.4793 27.0508 23.2487 27.0508C23.018 27.0508 22.8311 27.2377 22.8311 27.4684C22.8311 27.699 23.018 27.886 23.2487 27.886Z" fill="white"/>
<path d="M20.6852 27.886C20.9158 27.886 21.1028 27.699 21.1028 27.4684C21.1028 27.2377 20.9158 27.0508 20.6852 27.0508C20.4545 27.0508 20.2676 27.2377 20.2676 27.4684C20.2676 27.699 20.4545 27.886 20.6852 27.886Z" fill="white"/>
<path d="M18.1295 27.886C18.3601 27.886 18.5471 27.699 18.5471 27.4684C18.5471 27.2377 18.3601 27.0508 18.1295 27.0508C17.8989 27.0508 17.7119 27.2377 17.7119 27.4684C17.7119 27.699 17.8989 27.886 18.1295 27.886Z" fill="white"/>
<path d="M15.5739 27.886C15.8045 27.886 15.9915 27.699 15.9915 27.4684C15.9915 27.2377 15.8045 27.0508 15.5739 27.0508C15.3432 27.0508 15.1562 27.2377 15.1562 27.4684C15.1562 27.699 15.3432 27.886 15.5739 27.886Z" fill="white"/>
<path d="M13.0172 27.886C13.2478 27.886 13.4348 27.699 13.4348 27.4684C13.4348 27.2377 13.2478 27.0508 13.0172 27.0508C12.7866 27.0508 12.5996 27.2377 12.5996 27.4684C12.5996 27.699 12.7866 27.886 13.0172 27.886Z" fill="white"/>
<path d="M35.5248 29.327C35.6998 29.327 35.8416 29.1851 35.8416 29.0102C35.8416 28.8352 35.6998 28.6934 35.5248 28.6934C35.3498 28.6934 35.208 28.8352 35.208 29.0102C35.208 29.1851 35.3498 29.327 35.5248 29.327Z" fill="white"/>
<path d="M32.9477 29.327C33.1226 29.327 33.2645 29.1851 33.2645 29.0102C33.2645 28.8352 33.1226 28.6934 32.9477 28.6934C32.7727 28.6934 32.6309 28.8352 32.6309 29.0102C32.6309 29.1851 32.7727 29.327 32.9477 29.327Z" fill="white"/>
<path d="M30.3695 29.327C30.5445 29.327 30.6863 29.1851 30.6863 29.0102C30.6863 28.8352 30.5445 28.6934 30.3695 28.6934C30.1946 28.6934 30.0527 28.8352 30.0527 29.0102C30.0527 29.1851 30.1946 29.327 30.3695 29.327Z" fill="white"/>
<path d="M27.7924 29.327C27.9673 29.327 28.1092 29.1851 28.1092 29.0102C28.1092 28.8352 27.9673 28.6934 27.7924 28.6934C27.6174 28.6934 27.4756 28.8352 27.4756 29.0102C27.4756 29.1851 27.6174 29.327 27.7924 29.327Z" fill="white"/>
<path d="M25.2143 29.327C25.3892 29.327 25.5311 29.1851 25.5311 29.0102C25.5311 28.8352 25.3892 28.6934 25.2143 28.6934C25.0393 28.6934 24.8975 28.8352 24.8975 29.0102C24.8975 29.1851 25.0393 29.327 25.2143 29.327Z" fill="white"/>
<path d="M22.6293 29.327C22.8043 29.327 22.9461 29.1851 22.9461 29.0102C22.9461 28.8352 22.8043 28.6934 22.6293 28.6934C22.4543 28.6934 22.3125 28.8352 22.3125 29.0102C22.3125 29.1851 22.4543 29.327 22.6293 29.327Z" fill="white"/>
<path d="M20.0522 29.327C20.2271 29.327 20.369 29.1851 20.369 29.0102C20.369 28.8352 20.2271 28.6934 20.0522 28.6934C19.8772 28.6934 19.7354 28.8352 19.7354 29.0102C19.7354 29.1851 19.8772 29.327 20.0522 29.327Z" fill="white"/>
<path d="M17.474 29.327C17.649 29.327 17.7908 29.1851 17.7908 29.0102C17.7908 28.8352 17.649 28.6934 17.474 28.6934C17.2991 28.6934 17.1572 28.8352 17.1572 29.0102C17.1572 29.1851 17.2991 29.327 17.474 29.327Z" fill="white"/>
<path d="M14.8969 29.327C15.0718 29.327 15.2137 29.1851 15.2137 29.0102C15.2137 28.8352 15.0718 28.6934 14.8969 28.6934C14.7219 28.6934 14.5801 28.8352 14.5801 29.0102C14.5801 29.1851 14.7219 29.327 14.8969 29.327Z" fill="white"/>
<path d="M8.6114 19.8361C8.92157 19.8361 9.173 19.5847 9.173 19.2745C9.173 18.9643 8.92157 18.7129 8.6114 18.7129C8.30124 18.7129 8.0498 18.9643 8.0498 19.2745C8.0498 19.5847 8.30124 19.8361 8.6114 19.8361Z" fill="white"/>
<path d="M11.1026 19.8361C11.4128 19.8361 11.6642 19.5847 11.6642 19.2745C11.6642 18.9643 11.4128 18.7129 11.1026 18.7129C10.7925 18.7129 10.541 18.9643 10.541 19.2745C10.541 19.5847 10.7925 19.8361 11.1026 19.8361Z" fill="white"/>
<path d="M13.5938 19.8361C13.904 19.8361 14.1554 19.5847 14.1554 19.2745C14.1554 18.9643 13.904 18.7129 13.5938 18.7129C13.2837 18.7129 13.0322 18.9643 13.0322 19.2745C13.0322 19.5847 13.2837 19.8361 13.5938 19.8361Z" fill="white"/>
<path d="M16.0772 19.8361C16.3874 19.8361 16.6388 19.5847 16.6388 19.2745C16.6388 18.9643 16.3874 18.7129 16.0772 18.7129C15.7671 18.7129 15.5156 18.9643 15.5156 19.2745C15.5156 19.5847 15.7671 19.8361 16.0772 19.8361Z" fill="white"/>
<path d="M18.5684 19.8361C18.8786 19.8361 19.13 19.5847 19.13 19.2745C19.13 18.9643 18.8786 18.7129 18.5684 18.7129C18.2583 18.7129 18.0068 18.9643 18.0068 19.2745C18.0068 19.5847 18.2583 19.8361 18.5684 19.8361Z" fill="white"/>
<path d="M21.0596 19.8361C21.3698 19.8361 21.6212 19.5847 21.6212 19.2745C21.6212 18.9643 21.3698 18.7129 21.0596 18.7129C20.7495 18.7129 20.498 18.9643 20.498 19.2745C20.498 19.5847 20.7495 19.8361 21.0596 19.8361Z" fill="white"/>
<path d="M23.544 19.8361C23.8542 19.8361 24.1056 19.5847 24.1056 19.2745C24.1056 18.9643 23.8542 18.7129 23.544 18.7129C23.2339 18.7129 22.9824 18.9643 22.9824 19.2745C22.9824 19.5847 23.2339 19.8361 23.544 19.8361Z" fill="white"/>
<path d="M26.0352 19.8361C26.3454 19.8361 26.5968 19.5847 26.5968 19.2745C26.5968 18.9643 26.3454 18.7129 26.0352 18.7129C25.7251 18.7129 25.4736 18.9643 25.4736 19.2745C25.4736 19.5847 25.7251 19.8361 26.0352 19.8361Z" fill="white"/>
<path d="M28.5264 19.8361C28.8366 19.8361 29.088 19.5847 29.088 19.2745C29.088 18.9643 28.8366 18.7129 28.5264 18.7129C28.2163 18.7129 27.9648 18.9643 27.9648 19.2745C27.9648 19.5847 28.2163 19.8361 28.5264 19.8361Z" fill="white"/>
<path d="M7.29329 18.1022C7.5955 18.1022 7.84049 17.8572 7.84049 17.555C7.84049 17.2528 7.5955 17.0078 7.29329 17.0078C6.99108 17.0078 6.74609 17.2528 6.74609 17.555C6.74609 17.8572 6.99108 18.1022 7.29329 18.1022Z" fill="white"/>
<path d="M9.8138 18.1022C10.116 18.1022 10.361 17.8572 10.361 17.555C10.361 17.2528 10.116 17.0078 9.8138 17.0078C9.51159 17.0078 9.2666 17.2528 9.2666 17.555C9.2666 17.8572 9.51159 18.1022 9.8138 18.1022Z" fill="white"/>
<path d="M12.3411 18.1022C12.6434 18.1022 12.8883 17.8572 12.8883 17.555C12.8883 17.2528 12.6434 17.0078 12.3411 17.0078C12.0389 17.0078 11.7939 17.2528 11.7939 17.555C11.7939 17.8572 12.0389 18.1022 12.3411 18.1022Z" fill="white"/>
<path d="M14.8675 18.1022C15.1697 18.1022 15.4147 17.8572 15.4147 17.555C15.4147 17.2528 15.1697 17.0078 14.8675 17.0078C14.5653 17.0078 14.3203 17.2528 14.3203 17.555C14.3203 17.8572 14.5653 18.1022 14.8675 18.1022Z" fill="white"/>
<path d="M17.388 18.1022C17.6902 18.1022 17.9352 17.8572 17.9352 17.555C17.9352 17.2528 17.6902 17.0078 17.388 17.0078C17.0858 17.0078 16.8408 17.2528 16.8408 17.555C16.8408 17.8572 17.0858 18.1022 17.388 18.1022Z" fill="white"/>
<path d="M19.9154 18.1022C20.2176 18.1022 20.4626 17.8572 20.4626 17.555C20.4626 17.2528 20.2176 17.0078 19.9154 17.0078C19.6132 17.0078 19.3682 17.2528 19.3682 17.555C19.3682 17.8572 19.6132 18.1022 19.9154 18.1022Z" fill="white"/>
<path d="M22.4349 18.1022C22.7371 18.1022 22.9821 17.8572 22.9821 17.555C22.9821 17.2528 22.7371 17.0078 22.4349 17.0078C22.1327 17.0078 21.8877 17.2528 21.8877 17.555C21.8877 17.8572 22.1327 18.1022 22.4349 18.1022Z" fill="white"/>
<path d="M24.9622 18.1022C25.2644 18.1022 25.5094 17.8572 25.5094 17.555C25.5094 17.2528 25.2644 17.0078 24.9622 17.0078C24.66 17.0078 24.415 17.2528 24.415 17.555C24.415 17.8572 24.66 18.1022 24.9622 18.1022Z" fill="white"/>
<path d="M27.4896 18.1022C27.7918 18.1022 28.0368 17.8572 28.0368 17.555C28.0368 17.2528 27.7918 17.0078 27.4896 17.0078C27.1874 17.0078 26.9424 17.2528 26.9424 17.555C26.9424 17.8572 27.1874 18.1022 27.4896 18.1022Z" fill="white"/>
<path d="M5.5299 16.2434C5.76054 16.2434 5.9475 16.0564 5.9475 15.8258C5.9475 15.5952 5.76054 15.4082 5.5299 15.4082C5.29927 15.4082 5.1123 15.5952 5.1123 15.8258C5.1123 16.0564 5.29927 16.2434 5.5299 16.2434Z" fill="white"/>
<path d="M8.0924 16.2434C8.32304 16.2434 8.51 16.0564 8.51 15.8258C8.51 15.5952 8.32304 15.4082 8.0924 15.4082C7.86177 15.4082 7.6748 15.5952 7.6748 15.8258C7.6748 16.0564 7.86177 16.2434 8.0924 16.2434Z" fill="white"/>
<path d="M10.649 16.2434C10.8797 16.2434 11.0666 16.0564 11.0666 15.8258C11.0666 15.5952 10.8797 15.4082 10.649 15.4082C10.4184 15.4082 10.2314 15.5952 10.2314 15.8258C10.2314 16.0564 10.4184 16.2434 10.649 16.2434Z" fill="white"/>
<path d="M13.2047 16.2434C13.4353 16.2434 13.6223 16.0564 13.6223 15.8258C13.6223 15.5952 13.4353 15.4082 13.2047 15.4082C12.9741 15.4082 12.7871 15.5952 12.7871 15.8258C12.7871 16.0564 12.9741 16.2434 13.2047 16.2434Z" fill="white"/>
<path d="M15.7604 16.2434C15.991 16.2434 16.178 16.0564 16.178 15.8258C16.178 15.5952 15.991 15.4082 15.7604 15.4082C15.5297 15.4082 15.3428 15.5952 15.3428 15.8258C15.3428 16.0564 15.5297 16.2434 15.7604 16.2434Z" fill="white"/>
<path d="M18.3239 16.2434C18.5545 16.2434 18.7414 16.0564 18.7414 15.8258C18.7414 15.5952 18.5545 15.4082 18.3239 15.4082C18.0932 15.4082 17.9062 15.5952 17.9062 15.8258C17.9062 16.0564 18.0932 16.2434 18.3239 16.2434Z" fill="white"/>
<path d="M20.8795 16.2434C21.1101 16.2434 21.2971 16.0564 21.2971 15.8258C21.2971 15.5952 21.1101 15.4082 20.8795 15.4082C20.6489 15.4082 20.4619 15.5952 20.4619 15.8258C20.4619 16.0564 20.6489 16.2434 20.8795 16.2434Z" fill="white"/>
<path d="M23.4362 16.2434C23.6668 16.2434 23.8538 16.0564 23.8538 15.8258C23.8538 15.5952 23.6668 15.4082 23.4362 15.4082C23.2055 15.4082 23.0186 15.5952 23.0186 15.8258C23.0186 16.0564 23.2055 16.2434 23.4362 16.2434Z" fill="white"/>
<path d="M25.9918 16.2434C26.2225 16.2434 26.4094 16.0564 26.4094 15.8258C26.4094 15.5952 26.2225 15.4082 25.9918 15.4082C25.7612 15.4082 25.5742 15.5952 25.5742 15.8258C25.5742 16.0564 25.7612 16.2434 25.9918 16.2434Z" fill="white"/>
<path d="M3.48477 14.6024C3.65973 14.6024 3.80157 14.4605 3.80157 14.2855C3.80157 14.1106 3.65973 13.9688 3.48477 13.9688C3.30981 13.9688 3.16797 14.1106 3.16797 14.2855C3.16797 14.4605 3.30981 14.6024 3.48477 14.6024Z" fill="white"/>
<path d="M6.06192 14.6024C6.23688 14.6024 6.37872 14.4605 6.37872 14.2855C6.37872 14.1106 6.23688 13.9688 6.06192 13.9688C5.88695 13.9688 5.74512 14.1106 5.74512 14.2855C5.74512 14.4605 5.88695 14.6024 6.06192 14.6024Z" fill="white"/>
<path d="M8.64004 14.6024C8.81501 14.6024 8.95684 14.4605 8.95684 14.2855C8.95684 14.1106 8.81501 13.9688 8.64004 13.9688C8.46508 13.9688 8.32324 14.1106 8.32324 14.2855C8.32324 14.4605 8.46508 14.6024 8.64004 14.6024Z" fill="white"/>
<path d="M11.2172 14.6024C11.3922 14.6024 11.534 14.4605 11.534 14.2855C11.534 14.1106 11.3922 13.9688 11.2172 13.9688C11.0422 13.9688 10.9004 14.1106 10.9004 14.2855C10.9004 14.4605 11.0422 14.6024 11.2172 14.6024Z" fill="white"/>
<path d="M13.8022 14.6024C13.9771 14.6024 14.119 14.4605 14.119 14.2855C14.119 14.1106 13.9771 13.9688 13.8022 13.9688C13.6272 13.9688 13.4854 14.1106 13.4854 14.2855C13.4854 14.4605 13.6272 14.6024 13.8022 14.6024Z" fill="white"/>
<path d="M16.3803 14.6024C16.5552 14.6024 16.6971 14.4605 16.6971 14.2855C16.6971 14.1106 16.5552 13.9688 16.3803 13.9688C16.2053 13.9688 16.0635 14.1106 16.0635 14.2855C16.0635 14.4605 16.2053 14.6024 16.3803 14.6024Z" fill="white"/>
<path d="M18.9574 14.6024C19.1324 14.6024 19.2742 14.4605 19.2742 14.2855C19.2742 14.1106 19.1324 13.9688 18.9574 13.9688C18.7825 13.9688 18.6406 14.1106 18.6406 14.2855C18.6406 14.4605 18.7825 14.6024 18.9574 14.6024Z" fill="white"/>
<path d="M21.5355 14.6024C21.7105 14.6024 21.8523 14.4605 21.8523 14.2855C21.8523 14.1106 21.7105 13.9688 21.5355 13.9688C21.3606 13.9688 21.2188 14.1106 21.2188 14.2855C21.2188 14.4605 21.3606 14.6024 21.5355 14.6024Z" fill="white"/>
<path d="M24.1127 14.6024C24.2877 14.6024 24.4295 14.4605 24.4295 14.2855C24.4295 14.1106 24.2877 13.9688 24.1127 13.9688C23.9377 13.9688 23.7959 14.1106 23.7959 14.2855C23.7959 14.4605 23.9377 14.6024 24.1127 14.6024Z" fill="white"/>
<defs>
<linearGradient id="paint0_linear_1_15339" x1="-4.96758" y1="18.7139" x2="16.8573" y2="18.7139" gradientUnits="userSpaceOnUse">
<stop stop-color="#3B007F"/>
<stop offset="1" stop-color="#AA003D"/>
</linearGradient>
</defs>
</svg>
