<svg width="36" height="37" viewBox="0 0 36 37" fill="none" xmlns="http://www.w3.org/2000/svg">
<path d="M18.0137 5.36993H33.8052C33.8052 5.36993 35.0883 5.27122 35.4831 6.25819C35.878 7.24517 35.3186 7.80447 34.8909 8.19924C34.4632 8.59402 26.3701 14.2526 26.3701 14.2526L18.0137 5.36993Z" fill="#70EDF7"/>
<path d="M18.0137 5.37109V20.2086L26.3701 14.2539L18.0137 5.37109Z" fill="#3B546B"/>
<path d="M18.0135 5.37109L9.65723 14.2539L18.0135 20.2086V5.37109Z" fill="#30D6F7"/>
<path d="M18.0136 5.37109H1.92597C1.92597 5.37109 0.774479 5.404 0.445511 6.42388C0.116543 7.44376 1.16933 8.20041 1.16933 8.20041L9.65726 14.2538L18.0136 5.37109Z" fill="#0099D9"/>
<path d="M9.65723 14.2539L16.6319 31.7233C16.6319 31.7233 16.8705 32.1803 17.1737 32.3865C17.4769 32.5926 18.0346 32.6532 18.0346 32.6532V20.2086L9.65723 14.2539Z" fill="#70EDF7"/>
<path d="M18.0352 20.2087L26.3705 14.2539L19.4418 31.671C19.4418 31.671 19.369 32.0591 18.981 32.3137C18.593 32.5683 18.496 32.5683 18.3625 32.6047C18.2291 32.6411 18.0352 32.6532 18.0352 32.6532V20.2087Z" fill="#0099D9"/>
</svg>
