<svg width="36" height="37" viewBox="0 0 36 37" fill="none" xmlns="http://www.w3.org/2000/svg">
<path d="M32.9401 8.81564C31.6081 8.83724 29.7649 8.95964 27.5185 9.31244C25.2073 6.92204 21.9601 5.43164 18.3745 5.43164C11.3473 5.43164 5.64491 11.134 5.64491 18.1612C5.64491 18.226 5.65211 18.2908 5.65211 18.3484C3.87371 19.6372 2.37611 20.8828 1.18811 21.9628C-0.80629 23.77 0.39611 27.0892 3.08891 27.1972C4.59371 27.2548 6.49451 27.118 8.87771 26.6356C11.2105 29.2492 14.6017 30.8908 18.3745 30.8908C25.4017 30.8908 31.1041 25.1884 31.1041 18.1612C31.1041 17.8588 31.0897 17.5636 31.0681 17.2612C33.3649 15.6772 34.6897 14.302 35.4169 13.15C36.6121 11.2564 35.1865 8.77964 32.9401 8.81564ZM10.3537 22.9996C9.78491 22.0564 9.38171 21.0052 9.17291 19.8892C11.5129 18.2188 14.3425 16.4116 16.9201 15.3388C19.6561 14.2084 23.1913 13.4596 26.1721 12.9772C26.7337 13.8196 27.1585 14.7556 27.4249 15.7564C25.4881 16.93 22.8529 18.334 19.2961 19.8892C15.7033 21.4732 12.7081 22.4236 10.3537 22.9996ZM18.3745 8.80124C20.1745 8.80124 21.8521 9.31244 23.2777 10.1908C21.0025 10.7668 18.4753 11.566 15.7681 12.6892C13.3849 13.6756 11.2177 14.806 9.27371 15.9724C10.2601 11.854 13.9609 8.80124 18.3745 8.80124ZM4.07531 23.8636C4.07531 23.8636 4.91771 23.1292 6.25691 22.078C6.43691 22.6252 6.64571 23.158 6.89051 23.6764C5.04011 23.9284 4.07531 23.8636 4.07531 23.8636ZM18.3745 27.5284C16.2649 27.5284 14.3209 26.83 12.7585 25.6564C15.2137 24.922 18.0505 23.8924 21.3193 22.4596C23.8177 21.3652 25.9129 20.3356 27.6625 19.3636C27.0721 23.9716 23.1409 27.5284 18.3745 27.5284ZM30.3409 13.8124C30.1753 13.3588 29.9809 12.9196 29.7649 12.4876C31.2121 12.322 32.1409 12.25 32.1409 12.25C32.1409 12.25 31.6513 12.826 30.3409 13.8124Z" fill="url(#paint0_linear_1_15454)"/>
<path d="M21.3332 16.3457C19.13 16.3457 17.3516 18.1313 17.3516 20.3273C17.3516 22.5233 19.1372 24.3089 21.3332 24.3089C23.5364 24.3089 25.3148 22.5233 25.3148 20.3273C25.3148 18.1313 23.5292 16.3457 21.3332 16.3457ZM21.3332 22.3001C20.246 22.3001 19.3604 21.4145 19.3604 20.3273C19.3604 19.2401 20.246 18.3545 21.3332 18.3545C22.4204 18.3545 23.306 19.2401 23.306 20.3273C23.2988 21.4145 22.4204 22.3001 21.3332 22.3001Z" fill="url(#paint1_linear_1_15454)"/>
<path d="M23.2762 20.6418C23.4507 19.5663 22.7204 18.5529 21.6449 18.3784C20.5694 18.2038 19.556 18.9342 19.3815 20.0097C19.2069 21.0852 19.9373 22.0985 21.0128 22.2731C22.0883 22.4476 23.1016 21.7173 23.2762 20.6418Z" fill="white"/>
<defs>
<linearGradient id="paint0_linear_1_15454" x1="0.216132" y1="24.7738" x2="36.0488" y2="11.7318" gradientUnits="userSpaceOnUse">
<stop stop-color="#0ADAFF"/>
<stop offset="0.6341" stop-color="#2E59FE"/>
<stop offset="1" stop-color="#7961FA"/>
</linearGradient>
<linearGradient id="paint1_linear_1_15454" x1="17.3462" y1="20.3296" x2="25.3135" y2="20.3296" gradientUnits="userSpaceOnUse">
<stop stop-color="#0ADAFF"/>
<stop offset="0.6341" stop-color="#2E59FE"/>
<stop offset="1" stop-color="#7961FA"/>
</linearGradient>
</defs>
</svg>
