<svg width="36" height="37" viewBox="0 0 36 37" fill="none" xmlns="http://www.w3.org/2000/svg">
<g clip-path="url(#clip0_1_15338)">
<path d="M14.6684 4.21525L22.3573 0.818359L22.2932 9.79143H31.9683V16.0086H22.2291V26.7762C22.2291 30.0451 27.6752 30.4296 29.7256 29.34L31.5838 34.9803C27.0346 37.6722 14.6045 37.0303 14.6045 26.8404V4.21453H14.6686L14.6684 4.21525Z" fill="#24DD7B"/>
<path d="M7.49219 17.6753C9.40307 17.6753 10.9521 15.7813 10.9521 13.4451C10.9521 11.1088 9.40307 9.21484 7.49219 9.21484C5.58131 9.21484 4.03223 11.1088 4.03223 13.4451C4.03223 15.7813 5.58131 17.6753 7.49219 17.6753Z" fill="#24DD7B"/>
</g>
<defs>
<clipPath id="clip0_1_15338">
<rect width="36" height="36" fill="white" transform="translate(0 0.578125)"/>
</clipPath>
</defs>
</svg>
