<svg width="36" height="37" viewBox="0 0 36 37" fill="none" xmlns="http://www.w3.org/2000/svg">
<path d="M12.7368 18.1007C20.3334 18.1007 27.8486 18.1007 35.3948 18.1007C35.3948 18.4594 35.3948 18.7969 35.3948 19.2066C27.9296 19.2066 20.4567 19.2066 12.9468 19.2066C12.9468 19.5192 12.9468 19.7622 12.9468 20.0543C20.4066 20.0543 27.8858 20.0543 35.3933 20.0543C35.3933 20.4672 35.3933 20.8317 35.3933 21.2457C27.818 21.2457 20.275 21.2457 12.6781 21.2457C12.0571 23.2648 10.7655 24.6811 8.81204 25.3874C7.45283 25.8788 6.0242 25.8765 4.65095 25.371C2.07191 24.4216 0.328642 21.8885 0.604906 19.0243C0.86929 16.2831 2.65871 14.2794 5.25769 13.5959C6.87035 13.1717 8.46997 13.4229 9.91551 14.3006C11.3537 15.1738 12.2806 16.4592 12.7368 18.1007ZM4.14788 19.5759C4.14781 21.085 5.20239 22.159 6.69711 22.1876C8.2755 22.2177 9.30906 20.9966 9.35355 19.6133C9.40208 18.1057 8.05143 16.9295 6.7316 16.9361C5.414 16.9427 4.02908 18.1333 4.14788 19.5759ZM21.9525 16.4586C22.4417 16.4586 22.8991 16.4586 23.4054 16.4586C23.4054 16.9447 23.4054 17.3602 23.4054 17.7596C23.6674 17.7596 23.8795 17.7596 24.094 17.7596C24.094 16.6675 24.094 15.6076 24.094 14.531C23.8554 14.531 23.6434 14.531 23.366 14.531C23.366 14.9627 23.366 15.3749 23.366 15.784C22.872 15.784 22.4444 15.784 21.9533 15.784C21.9533 15.3278 21.9533 14.4759 21.9533 14.4759L21.2505 14.4713C21.2505 14.4713 21.2505 16.6994 21.2505 17.7787C21.4873 17.7787 21.6891 17.7787 21.9525 17.7787C21.9525 17.326 21.9525 16.9213 21.9525 16.4586ZM28.1263 16.2952C28.1562 16.2855 28.1861 16.2759 28.216 16.2661C28.5739 16.7758 28.9317 17.2855 29.3009 17.8113C29.5355 17.7791 29.7635 17.748 30.021 17.7128C29.64 17.1551 29.2945 16.6494 28.9503 16.1457C29.3036 15.6111 29.6509 15.0856 30.0214 14.525C29.7271 14.525 29.4832 14.525 29.2522 14.525C28.8974 15.0305 28.5558 15.5173 28.2142 16.0041C28.1765 15.9982 28.1388 15.9922 28.1011 15.9863C28.1011 15.5017 28.1011 15.0171 28.1011 14.5319C27.8342 14.5319 27.6534 14.5319 27.468 14.5319C27.468 15.6326 27.468 16.7035 27.468 17.7535C27.6995 17.7535 27.8946 17.7535 28.1263 17.7535C28.1263 17.2429 28.1263 16.7691 28.1263 16.2952ZM32.3861 17.1851C31.9864 17.1851 31.6092 17.1851 31.1787 17.1851C31.1973 16.8884 31.2122 16.6523 31.2291 16.3824C31.6527 16.3824 32.0075 16.3824 32.3766 16.3824C32.3766 16.1783 32.3766 16.0127 32.3766 15.8012C31.9732 15.8012 31.5887 15.8012 31.2256 15.8012C31.2256 15.5286 31.2256 15.3027 31.2256 15.0439C31.636 15.0439 32.0077 15.0439 32.3631 15.0439C32.3631 14.8477 32.3631 14.6865 32.3631 14.5364C31.7208 14.5364 31.1006 14.5364 30.4879 14.5364C30.4879 15.6222 30.4879 16.6731 30.4879 17.7576C31.1436 17.7576 31.7604 17.7576 32.3861 17.7576C32.3861 17.561 32.3861 17.3795 32.3861 17.1851ZM25.643 15.8182C25.643 15.5544 25.643 15.0336 25.643 15.0336L26.7599 14.9914C26.7599 14.9914 26.7454 14.6925 26.7372 14.5247C26.1092 14.5247 25.511 14.5247 24.914 14.5247C24.914 15.6297 24.914 16.6885 24.914 17.76C25.5404 17.76 26.1402 17.76 26.7331 17.76C26.7331 17.5603 26.7331 17.3933 26.7331 17.2058C26.3594 17.2058 26.0095 17.2058 25.6589 17.2058C25.6589 16.9306 25.6589 16.692 25.6589 16.4147C26.043 16.3936 26.3801 16.3751 26.7365 16.3555C26.7365 16.1831 26.7365 16.0334 26.7365 15.8181C26.3512 15.8182 26.0118 15.8182 25.643 15.8182ZM19.8007 17.7563C19.8007 16.8482 19.8007 15.9748 19.8007 15.0451C20.1405 15.0451 20.7675 15.0451 20.7675 15.0451V14.4455C20.7675 14.4455 18.8366 14.4476 18.1877 14.4476C18.1877 14.7082 18.1877 14.8711 18.1877 15.0677C18.4745 15.0677 18.7362 15.0677 19.0529 15.0677C19.0529 15.9714 19.0529 16.8426 19.0529 17.7562C19.3478 17.7563 19.5558 17.7563 19.8007 17.7563ZM34.6922 14.5315C34.4958 14.9737 34.3069 15.3993 34.0708 15.9311C33.8315 15.3759 33.6441 14.9415 33.472 14.5425C33.2092 14.5425 33.0164 14.5425 32.786 14.5425C32.9744 14.9645 33.3138 15.7256 33.3138 15.7256L33.7286 16.5389L33.7198 17.761L34.3219 17.7577V16.5654C34.3219 16.5654 35.101 15.0921 35.3567 14.5315C35.0928 14.5315 34.8933 14.5315 34.6922 14.5315Z" fill="#00BCE6"/>
</svg>
