<svg width="36" height="37" viewBox="0 0 36 37" fill="none" xmlns="http://www.w3.org/2000/svg">
<path d="M17.9996 35.763C27.4902 35.763 35.1838 28.0693 35.1838 18.5787C35.1838 9.08816 27.4902 1.39453 17.9996 1.39453C8.50906 1.39453 0.81543 9.08816 0.81543 18.5787C0.81543 28.0693 8.50906 35.763 17.9996 35.763Z" stroke="#FFC04E" stroke-width="0.1296" stroke-miterlimit="10"/>
<path d="M17.803 13.0745L17.9034 12.5918H8.15277L5.25656 24.7559H8.4424L10.631 14.9088H14.5293L12.2075 24.7559H15.1037L17.3821 14.9088H17.4207L17.7663 13.2492L17.8069 13.0745H17.803ZM23.3097 12.5918L20.4134 24.6594H26.4858C27.2171 24.6635 27.9445 24.553 28.6416 24.3321C29.7943 23.9595 31.197 23.1794 31.4191 21.5701H32.2879L32.5776 20.4116H31.5156C31.5156 20.4116 31.6122 18.6739 29.3917 18.3843C29.3917 18.3843 31.3225 17.805 31.6122 16.7431H32.5776L32.9637 15.5846H31.9018C31.9018 15.5846 32.288 12.7849 28.1367 12.5918H23.3097V12.5918ZM6.80122 14.9088H3.71191L4.29115 12.5918H7.38046L6.80122 14.9088Z" fill="#FFC04E"/>
<path d="M27.4124 17.4191H24.9506L25.5298 14.8125H27.4124C28.1316 14.812 28.7152 15.3946 28.7157 16.1139C28.7157 16.1145 28.7157 16.1152 28.7157 16.1158C28.7162 16.8351 28.1336 17.4186 27.4143 17.4191C27.4137 17.4191 27.413 17.4191 27.4124 17.4191ZM26.7627 22.4392H23.8027L24.4988 19.4464H26.7627C27.6315 19.4464 28.3295 20.1164 28.3295 20.9428C28.3295 21.7692 27.6277 22.4392 26.7627 22.4392Z" fill="white"/>
<path d="M20.0276 23.4046L17.5176 17.4191L18.5795 12.7852L21.0896 18.481L20.0276 23.4046Z" fill="#FFC04E"/>
</svg>
