<svg width="36" height="37" viewBox="0 0 36 37" fill="none" xmlns="http://www.w3.org/2000/svg">
<path d="M24.6907 9.32227C25.3583 10.4679 26.0297 11.6114 26.6929 12.7595C29.5626 17.7267 32.4302 22.695 35.2958 27.6645C35.34 27.7411 35.4155 27.8078 35.4113 27.903C33.3 27.903 31.1908 27.903 29.0839 27.903C28.3928 26.6751 27.6719 25.5069 27.0264 24.2954C27.3873 23.2829 27.6551 22.2416 27.7142 21.1715C27.7708 20.1488 27.7609 19.1223 27.6076 18.0969C27.437 16.9558 27.1979 15.8355 26.8541 14.7364C26.3085 12.9916 25.6062 11.3107 24.779 9.68119C24.722 9.56894 24.6449 9.46036 24.6907 9.32227Z" fill="#9C0149"/>
<path d="M4.08594 21.7611C4.67987 20.7186 5.26919 19.6734 5.86851 18.6339C8.72893 13.6726 11.5918 8.71273 14.4562 3.75373C14.4998 3.67813 14.5123 3.57337 14.6342 3.53125C15.6687 5.36588 16.7041 7.20203 17.7512 9.05912C17.0457 10.2629 16.3405 11.466 15.6352 12.6692C15.5658 12.6709 15.4946 12.6629 15.4272 12.6755C14.1108 12.9216 12.8765 13.3894 11.7173 14.0576C10.7549 14.6123 9.87769 15.2786 9.04544 16.0156C8.09101 16.8608 7.22139 17.7829 6.41175 18.7625C5.65568 19.6772 4.9616 20.64 4.29359 21.6212C4.24506 21.6927 4.21194 21.7993 4.08594 21.7611Z" fill="#9C0149"/>
<path d="M26.4102 33.7877C26.3178 33.7914 26.2254 33.7984 26.1329 33.7984C18.7891 33.7992 11.4453 33.7994 4.10151 33.7997C4.04384 33.7997 3.98617 33.7997 3.85938 33.7997C4.94946 31.9516 6.01793 30.1403 7.09145 28.3203C8.48645 28.3203 9.87361 28.3203 11.2608 28.3203C11.7452 28.9586 12.3143 29.5172 12.9415 30.0088C14.2334 31.0215 15.6811 31.7471 17.2309 32.2823C18.978 32.8855 20.7738 33.2489 22.6067 33.4624C23.7843 33.5996 24.961 33.7246 26.1476 33.7342C26.2375 33.7348 26.3348 33.7106 26.4102 33.7877Z" fill="#9C0149"/>
<path d="M4.08606 21.7609C4.21206 21.7991 4.24511 21.6924 4.29378 21.621C4.96179 20.6398 5.6558 19.677 6.41195 18.7623C7.22159 17.7827 8.09127 16.8606 9.04563 16.0154C9.87788 15.2783 10.7551 14.6121 11.7175 14.0574C12.8767 13.3892 14.111 12.9215 15.4274 12.6753C15.4947 12.6627 15.566 12.6706 15.6354 12.669C14.903 13.9499 14.1733 15.2325 13.4373 16.5114C12.39 18.3313 11.3377 20.1483 10.2885 21.9672C10.2602 22.0162 10.2437 22.0722 10.2218 22.1249L10.2057 22.1154C10.1879 22.1199 10.1704 22.1253 10.1532 22.1315C9.18488 22.0873 8.25011 22.2837 7.32555 22.5377C5.12617 23.1419 3.26699 24.2842 1.79855 26.0442C1.69919 26.1633 1.62035 26.3184 1.44769 26.362C1.4492 26.3393 1.44315 26.3123 1.45338 26.2946C2.16625 25.0652 2.88042 23.8366 3.59451 22.6079C3.64139 22.5958 3.66839 22.5691 3.66126 22.5173L3.64851 22.5166C3.75385 22.5204 3.74953 22.4552 3.7329 22.3824L3.72627 22.3894C3.81887 22.3806 3.82225 22.3188 3.81015 22.2479L3.80339 22.2565C3.88777 22.2423 3.89137 22.1811 3.88597 22.1146L3.88071 22.1212C3.92845 22.1092 3.94955 22.0806 3.93702 22.031L3.92859 22.0297C4.11954 22.0242 4.10413 21.8936 4.08995 21.7637L4.08606 21.7609Z" fill="#C6015D"/>
<path d="M24.6909 9.32279C24.6452 9.46088 24.7223 9.56946 24.7792 9.68171C25.6064 11.3112 26.3087 12.9921 26.8543 14.7369C27.1981 15.8361 27.4372 16.9564 27.6078 18.0974C27.7611 19.1228 27.7709 20.1493 27.7144 21.172C27.6553 22.2421 27.3875 23.2834 27.0266 24.2959C26.3596 23.1518 25.6902 22.0091 25.026 20.8633C23.8704 18.8693 22.7179 16.8734 21.5641 14.8782C21.5594 14.8378 21.5546 14.7975 21.5498 14.7571C21.5835 14.7112 21.6245 14.6689 21.6499 14.6187C22.6425 12.6647 23.1193 10.607 22.9496 8.40515C22.8655 7.31284 22.6251 6.2656 22.2183 5.25306C22.1779 5.15233 22.1612 5.05455 22.1741 4.94922C22.8644 6.11223 23.5564 7.27424 24.1944 8.46721C24.1949 8.5377 24.1877 8.61265 24.2867 8.62575L24.2757 8.61596C24.2709 8.66226 24.2906 8.69286 24.3345 8.70791L24.3305 8.70208C24.3302 8.76508 24.3342 8.82563 24.4117 8.84428L24.405 8.83556C24.3988 8.90324 24.4019 8.96538 24.4895 8.97712L24.4822 8.96898C24.4688 9.04047 24.4674 9.10463 24.5665 9.10772L24.5606 9.10499C24.5407 9.17778 24.5294 9.24503 24.6421 9.23387L24.6331 9.24092C24.6179 9.29283 24.6409 9.3194 24.6909 9.32804V9.32279Z" fill="#C6015D"/>
<path d="M26.4103 33.7886C26.335 33.7115 26.2377 33.7357 26.1476 33.735C24.961 33.7253 23.7843 33.6004 22.6067 33.4632C20.7738 33.2497 18.9781 32.8864 17.2309 32.283C15.681 31.7479 14.2334 31.0222 12.9414 30.0096C12.3143 29.518 11.7452 28.9594 11.2607 28.3211C11.411 28.3168 11.5613 28.3091 11.7115 28.3089C15.1748 28.3063 18.6381 28.3046 22.1013 28.3027C22.1237 28.3095 22.1462 28.3163 22.1687 28.3231C22.8817 29.5174 23.8096 30.5259 24.8842 31.3969C26.1858 32.452 27.6549 33.1717 29.2975 33.5362C29.791 33.6457 30.293 33.69 30.7866 33.7899C29.3279 33.7896 27.8691 33.7891 26.4103 33.7886Z" fill="#C6005D"/>
<path d="M1.44719 26.3618C1.61991 26.3181 1.69875 26.163 1.79804 26.044C3.26648 24.284 5.12566 23.1416 7.32505 22.5374C8.2496 22.2834 9.18438 22.087 10.1527 22.1313C10.1296 22.2752 10.0227 22.373 9.94974 22.4879C9.50326 23.1912 9.20173 23.9542 9.19143 24.7863C9.1815 25.5933 9.47598 26.3184 10.0402 26.9127C10.2526 27.1366 10.4863 27.3403 10.7103 27.5533C7.38877 27.6012 4.06705 27.6135 0.682617 27.6115C0.875145 27.2877 1.00734 26.9753 1.22593 26.7097C1.30319 26.6926 1.32126 26.6372 1.31802 26.5678L1.3142 26.5719C1.36086 26.5685 1.38174 26.5403 1.38663 26.4968L1.38217 26.5019C1.45547 26.4793 1.4703 26.4271 1.45439 26.3594L1.44719 26.3618Z" fill="#FE439A"/>
<path d="M22.1742 4.9493C22.1613 5.05463 22.1779 5.15241 22.2184 5.25314C22.6252 6.26567 22.8656 7.31291 22.9497 8.40523C23.1193 10.6071 22.6426 12.6648 21.65 14.6188C21.6245 14.6689 21.5836 14.7113 21.5499 14.7572C21.5282 14.7501 21.5062 14.7441 21.4839 14.7392C21.4013 14.5619 21.3324 14.3767 21.2339 14.2088C20.825 13.5107 20.2974 12.9168 19.5803 12.531C18.7517 12.0852 17.8849 12.0855 17.0071 12.4017C16.8828 12.4465 16.7588 12.5938 16.6045 12.4572C18.2373 9.59035 19.8701 6.72352 21.5381 3.79492C21.7325 4.18127 21.9811 4.47647 22.1037 4.84677C22.1098 4.89587 22.1174 4.94397 22.1775 4.95679L22.1742 4.9493Z" fill="#FE439A"/>
<path d="M30.7869 33.7907C30.2933 33.6909 29.7913 33.6466 29.2978 33.537C27.6552 33.1725 26.186 32.4528 24.8844 31.3977C23.8098 30.5267 22.8819 29.5183 22.1689 28.3239C22.1923 28.3178 22.2156 28.3116 22.2389 28.3055C22.8004 28.3761 23.36 28.3517 23.9119 28.2379C24.6271 28.0904 25.2734 27.7869 25.7596 27.2321C26.2846 26.633 26.5547 25.9185 26.5694 25.1152C26.6743 25.1595 26.7154 25.2575 26.7678 25.3473C28.3694 28.0944 29.9717 30.8411 31.5734 33.5881C31.6073 33.6463 31.66 33.6987 31.6406 33.7933C31.358 33.8065 31.0728 33.8189 30.7869 33.7907Z" fill="#FE439B"/>
<path d="M10.2211 22.1253C12.7026 21.9903 15.188 22.1091 17.6698 21.9512C18.7238 23.8223 19.7527 25.649 20.8048 27.5166C20.5548 27.5588 20.3528 27.5498 20.1499 27.5287C20.1417 27.4173 20.0632 27.4136 19.9768 27.4072C19.449 27.3678 18.931 27.2615 18.4137 27.1591C17.362 26.9509 16.3356 26.6533 15.3286 26.2813C14.0535 25.8104 12.937 25.0935 11.9498 24.1684C11.2909 23.5509 10.7309 22.8475 10.2051 22.1159L10.2211 22.1253Z" fill="#FEA2CE"/>
<path d="M22.239 28.3045C22.2157 28.3106 22.1923 28.3168 22.169 28.3229C22.1465 28.3162 22.1241 28.3094 22.1016 28.3025C21.9059 27.7671 21.5605 27.3148 21.2745 26.8305C20.3291 25.2294 19.369 23.637 18.4154 22.0408C18.3863 21.992 18.3675 21.9372 18.3359 21.8676C19.4023 20.0642 20.47 18.2584 21.5628 16.4102C21.688 16.6313 21.7881 16.8082 21.8882 16.985C21.8256 17.0319 21.8716 17.0389 21.9115 17.0481C21.9616 17.0708 21.9713 17.1138 21.9688 17.1628C21.9557 17.2916 21.9776 17.4102 22.028 17.5332C22.3559 18.3339 22.6202 19.157 22.8397 19.993C23.1799 21.2887 23.4124 22.5995 23.3589 23.9488C23.351 24.147 23.3023 24.3358 23.2876 24.53C23.2138 25.5044 22.9193 26.4225 22.5935 27.3346C22.4777 27.6589 22.268 27.9489 22.239 28.3045Z" fill="#FEA2CE"/>
<path d="M21.4835 14.7402C21.5058 14.7451 21.5278 14.751 21.5495 14.7582C21.5542 14.7986 21.5591 14.8389 21.5638 14.8793C21.2935 15.1435 21.1718 15.5008 20.9926 15.8192C20.0186 17.5482 19.0619 19.2868 18.098 21.0214C18.0368 21.1316 17.9642 21.2355 17.8943 21.3467C15.8012 21.4174 13.7194 21.2544 11.5957 21.2966C11.6981 20.974 11.8602 20.7526 12.0075 20.5236C12.1451 20.5374 12.2142 20.4438 12.2855 20.3498C13.1746 19.178 14.199 18.134 15.3277 17.1956C16.9437 15.852 18.8275 15.1426 20.9003 14.8871C21.093 14.8634 21.3161 14.8924 21.4835 14.7402Z" fill="#FEA2CE"/>
<path d="M21.4837 14.7384C21.3164 14.8905 21.0933 14.8615 20.9005 14.8853C18.8278 15.1407 16.944 15.8501 15.3279 17.1937C14.1993 18.1321 13.1749 19.176 12.2858 20.3479C12.2145 20.4419 12.1454 20.5355 12.0078 20.5218C12.7926 19.1346 13.574 17.7454 14.3631 16.3606C15.106 15.0568 15.857 13.7576 16.6044 12.4564C16.7587 12.5929 16.8826 12.4457 17.007 12.4009C17.8848 12.0847 18.7515 12.0844 19.5801 12.5302C20.2973 12.916 20.8249 13.5099 21.2338 14.208C21.3322 14.3759 21.4012 14.5611 21.4837 14.7384Z" fill="#FE84BE"/>
<path d="M10.2054 22.1152C10.7312 22.8468 11.2912 23.5503 11.9501 24.1677C12.9373 25.0928 14.0538 25.8097 15.3289 26.2807C16.3359 26.6525 17.3623 26.9503 18.414 27.1584C18.9313 27.2608 19.4493 27.3671 19.9771 27.4065C20.0635 27.413 20.1419 27.4167 20.1503 27.528C18.7159 27.5345 17.2815 27.5434 15.8471 27.5471C14.1349 27.5514 12.4227 27.5515 10.7105 27.5533C10.4865 27.3404 10.2529 27.1366 10.0404 26.9127C9.47619 26.3184 9.18171 25.5933 9.19165 24.7863C9.20195 23.9543 9.50348 23.1912 9.94995 22.488C10.0229 22.3731 10.1298 22.2753 10.1529 22.1313C10.1701 22.1251 10.1876 22.1197 10.2054 22.1152Z" fill="#FE84BE"/>
<path d="M22.2387 28.3037C22.2678 27.9481 22.4774 27.6581 22.5933 27.3338C22.9191 26.4218 23.2135 25.5037 23.2873 24.5292C23.302 24.3351 23.3508 24.1463 23.3586 23.948C23.4121 22.5988 23.1796 21.2879 22.8394 19.9923C22.6199 19.1561 22.3557 18.3332 22.0278 17.5325C21.9774 17.4094 21.9554 17.2908 21.9686 17.1621C22.3857 17.7714 22.7285 18.4253 23.1019 19.0606C24.2121 20.9495 25.3121 22.8443 26.4155 24.7372C26.4842 24.8551 26.5775 24.9638 26.5693 25.1135C26.5546 25.9167 26.2845 26.6313 25.7595 27.2304C25.2733 27.7852 24.6269 28.0887 23.9118 28.2361C23.3598 28.3499 22.8002 28.3743 22.2387 28.3037Z" fill="#FE84BE"/>
<path d="M4.08909 21.7637C4.10327 21.8936 4.11868 22.0242 3.92773 22.0296C3.96179 21.9291 4.00146 21.8319 4.08909 21.7637Z" fill="#9C0149"/>
<path d="M24.4898 8.97749C24.4023 8.96575 24.3992 8.90355 24.4053 8.83594C24.4682 8.86236 24.477 8.92119 24.4898 8.97749Z" fill="#9C0149"/>
<path d="M1.31767 26.5684C1.32091 26.6377 1.30284 26.6931 1.22559 26.7102C1.24524 26.6558 1.24747 26.59 1.31767 26.5684Z" fill="#C6015D"/>
<path d="M1.45426 26.3594C1.47017 26.4271 1.45541 26.4793 1.38205 26.5019C1.35274 26.4273 1.37765 26.3803 1.45426 26.3594Z" fill="#C6015D"/>
<path d="M24.5664 9.10749C24.4673 9.10447 24.4686 9.04025 24.4821 8.96875C24.5409 8.9964 24.5531 9.05227 24.5664 9.10749Z" fill="#9C0149"/>
<path d="M3.73184 22.3828C3.74848 22.4557 3.7528 22.5209 3.64746 22.5171C3.66013 22.4627 3.67727 22.411 3.73184 22.3828Z" fill="#9C0149"/>
<path d="M3.80947 22.248C3.82149 22.319 3.81818 22.3807 3.72559 22.3895C3.73768 22.333 3.74668 22.2745 3.80947 22.248Z" fill="#9C0149"/>
<path d="M24.6422 9.23435C24.5295 9.24558 24.5407 9.17826 24.5607 9.10547C24.6121 9.13312 24.628 9.18323 24.6422 9.23435Z" fill="#9C0149"/>
<path d="M3.88532 22.1152C3.89072 22.1817 3.88712 22.243 3.80273 22.2571C3.81411 22.2004 3.82117 22.1412 3.88532 22.1152Z" fill="#9C0149"/>
<path d="M24.4122 8.84532C24.3347 8.82668 24.3308 8.76612 24.3311 8.70312C24.3913 8.73156 24.4022 8.78816 24.4122 8.84532Z" fill="#9C0149"/>
<path d="M24.2866 8.62534C24.1876 8.61216 24.1948 8.53728 24.1943 8.4668C24.2548 8.50236 24.2736 8.5622 24.2866 8.62534Z" fill="#9C0149"/>
<path d="M3.93619 22.0312C3.94871 22.0809 3.92769 22.1095 3.87988 22.1215C3.88499 22.0828 3.89083 22.0447 3.93619 22.0312Z" fill="#9C0149"/>
<path d="M24.6913 9.32735C24.6413 9.31871 24.6183 9.29215 24.6335 9.24023C24.6798 9.25139 24.6856 9.28934 24.6913 9.32735Z" fill="#9C0149"/>
<path d="M3.66049 22.5176C3.66762 22.5694 3.64062 22.5961 3.59375 22.6082C3.60606 22.5707 3.61168 22.5282 3.66049 22.5176Z" fill="#9C0149"/>
<path d="M21.9114 17.0475C21.8715 17.0383 21.8256 17.0313 21.8882 16.9844C21.896 17.0054 21.9038 17.0264 21.9114 17.0475Z" fill="#FE84BE"/>
<path d="M1.38689 26.4981C1.38199 26.5416 1.36111 26.5698 1.31445 26.5732C1.32237 26.5325 1.31719 26.4792 1.38689 26.4981Z" fill="#C6015D"/>
<path d="M22.1773 4.95767C22.1172 4.94486 22.1096 4.89676 22.1035 4.84766C22.1506 4.86918 22.172 4.90806 22.1773 4.95767Z" fill="#C6015D"/>
<path d="M24.335 8.70913C24.291 8.69408 24.2713 8.66348 24.2761 8.61719C24.322 8.63094 24.3301 8.66903 24.335 8.70913Z" fill="#9C0149"/>
</svg>
