<svg width="36" height="37" viewBox="0 0 36 37" fill="none" xmlns="http://www.w3.org/2000/svg">
<g clip-path="url(#clip0_1_15334)">
<path fill-rule="evenodd" clip-rule="evenodd" d="M26.46 8.31812C31.5864 8.75732 35.6184 12.8973 35.9136 18.0381C35.6832 9.54212 28.6056 2.83892 20.1096 3.07652C15.0696 3.21333 10.4184 5.81253 7.6536 10.0317C8.0856 4.89812 12.2328 0.873325 17.3664 0.578125C8.8272 0.966925 2.2176 8.20292 2.6064 16.7421C2.8296 21.6093 5.328 26.0949 9.36 28.8381C4.2696 28.3557 0.288 24.2229 0 19.1181C0.2088 27.6141 7.2648 34.3317 15.7608 34.1229C20.7576 34.0005 25.3872 31.4589 28.1664 27.3045C27.6912 32.3517 23.6016 36.2901 18.54 36.5781C27.036 36.2973 33.696 29.1837 33.4152 20.6877C33.2496 15.6765 30.6576 11.0613 26.46 8.31812ZM17.9136 25.0581C16.2216 25.0653 14.5944 24.3885 13.4136 23.1717C10.9296 20.6661 10.944 16.6197 13.4496 14.1357C15.9552 11.6517 20.0016 11.6661 22.4856 14.1717C24.9696 16.6773 24.9552 20.7237 22.4496 23.2077C21.24 24.4029 19.6056 25.0653 17.9136 25.0581Z" fill="#44F1A6"/>
</g>
<defs>
<clipPath id="clip0_1_15334">
<rect width="36" height="36" fill="white" transform="translate(0 0.578125)"/>
</clipPath>
</defs>
</svg>
