<svg width="36" height="37" viewBox="0 0 36 37" fill="none" xmlns="http://www.w3.org/2000/svg">
<g clip-path="url(#clip0_1_15333)">
<path d="M17.9785 36.3916C8.39527 36.4852 0.0648709 28.5436 0.208871 18.3412C0.352871 8.95241 7.86967 0.816406 18.0217 0.816406C28.1305 0.816406 35.9281 9.09641 35.7841 18.8668C35.6473 28.738 27.5113 36.4852 17.9785 36.3916ZM17.9785 35.1892C26.8849 35.2396 34.5889 28.018 34.5385 18.5788C34.5385 9.43481 27.1729 2.06921 18.0721 2.01881C8.87767 2.01881 1.36807 9.43481 1.41847 18.6292C1.41847 28.018 9.11527 35.2396 17.9785 35.1892Z" fill="#3158A6"/>
<path d="M17.9782 35.188C9.12222 35.2384 1.41822 28.0168 1.41822 18.628C1.36782 9.43358 8.87742 2.01758 18.1222 2.01758C27.2158 2.06798 34.5814 9.43358 34.5814 18.5776C34.5814 28.0168 26.8846 35.2384 17.9782 35.188ZM17.9782 34.0792C26.4526 34.0792 33.2422 27.2896 33.4798 19.0096C33.7174 10.3912 26.8846 3.16958 18.1726 3.12638C9.45342 3.07598 2.51982 10.0096 2.51982 18.628C2.51982 27.196 9.45342 34.0792 17.9782 34.0792Z" fill="white"/>
<path d="M17.9779 34.08C9.40273 34.08 2.51953 27.1464 2.51953 18.6288C2.51953 10.0104 9.45313 3.07683 18.1651 3.12723C26.8339 3.22083 33.6667 10.4424 33.4795 19.0104C33.2347 27.2904 26.4451 34.1304 17.9779 34.08ZM14.2699 15.3024C14.2699 15.4464 14.2699 15.54 14.2699 15.6408C13.9819 16.944 13.6939 18.24 13.4059 19.5432C13.0675 21.1344 12.7291 22.7184 12.4411 24.3096C12.2467 25.512 12.9235 26.7144 14.0323 27.3408C14.7523 27.7224 15.5227 27.9672 16.3435 27.9672C17.8339 28.0176 19.3315 28.0176 20.7715 28.0176C21.8299 28.0176 21.8299 28.0176 22.0747 27.0096V26.9592C22.2691 26.0448 22.5067 25.1304 22.7011 24.216C22.4635 24.216 22.3195 24.1656 22.1251 24.1656C20.8219 24.1656 19.5763 24.1656 18.2731 24.1656C17.3083 24.1152 16.8259 23.4888 17.0203 22.5744C17.5027 20.2632 17.9851 17.952 18.5107 15.6912C18.5611 15.4032 18.7051 15.3096 18.9931 15.3528C20.4403 15.3528 21.8803 15.3528 23.3275 15.3528C23.7091 15.3528 23.8603 15.2088 23.9035 14.8704C24.0475 14.1 24.2419 13.3296 24.4363 12.6096C24.4867 12.3216 24.5803 11.9832 24.6739 11.6448C22.9387 11.6448 21.2539 11.6448 19.5259 11.6448C19.8643 10.1544 20.1523 8.75763 20.4403 7.36083C20.3467 7.31043 20.2963 7.31043 20.2459 7.31043C18.9427 7.31043 17.6467 7.31043 16.3939 7.31043C16.3003 7.31043 16.1059 7.50483 16.0555 7.64883C15.7675 8.85123 15.4795 10.0536 15.2347 11.256C15.1843 11.5944 14.9971 11.688 14.7019 11.688C13.4995 11.688 12.2971 11.688 11.1379 11.688C10.7059 11.688 10.5115 11.7816 10.4611 12.2208C10.4107 12.5088 10.3171 12.7968 10.2667 13.0848C10.0723 13.8552 9.92833 14.5752 9.73393 15.396C11.2819 15.3024 12.7795 15.3024 14.2699 15.3024ZM25.8691 11.3568C25.8187 11.5512 25.7755 11.6952 25.7251 11.7888C25.3867 13.1856 25.0483 14.5824 24.7603 15.9792C24.6667 16.3176 24.5659 16.4112 24.2275 16.4112C22.7803 16.4112 21.3403 16.4112 19.8931 16.4112C19.6051 16.4112 19.4611 16.5048 19.4107 16.7928C19.1731 17.9016 18.9283 19.0104 18.6907 20.112C18.4963 20.976 18.3523 21.8472 18.1579 22.6608C18.1075 22.8552 18.1075 23.1432 18.3955 23.0928C18.6835 23.0424 19.0723 23.2872 19.1659 22.7544C19.3603 21.8904 19.5475 20.976 19.7419 20.1048C19.9363 19.1904 20.1235 18.3264 20.3179 17.412C20.5123 17.412 20.6563 17.412 20.8003 17.412C22.2475 17.412 23.6875 17.412 25.1347 17.412C25.4227 17.412 25.5163 17.3184 25.5667 17.0736C25.8547 15.9216 26.0491 14.712 26.4307 13.56C26.7403 12.7032 26.2075 12.1272 25.8691 11.3568ZM23.9899 24.1152C23.9395 24.1152 23.8963 24.1152 23.8459 24.1152C23.7955 24.2592 23.7523 24.4536 23.7019 24.5976C23.3635 25.9944 23.0251 27.3912 22.7371 28.788C22.6867 29.0256 22.5427 29.1264 22.3051 29.1264C20.4259 29.1264 18.5467 29.1264 16.6747 29.1264C15.4723 29.076 14.2699 28.8384 13.2115 28.1616C13.0171 28.0176 12.8299 27.8736 12.6355 27.78C12.6859 27.9744 12.7291 28.1184 12.8299 28.2624C13.8883 29.5656 15.3355 30.0912 16.9195 30.1848C18.9931 30.2784 21.0595 30.2352 23.1331 30.2784C23.4211 30.2784 23.5147 30.1848 23.6155 29.8968C23.8531 28.6944 24.0979 27.4416 24.4795 26.2896C24.7603 25.3176 24.2347 24.792 23.9899 24.1152ZM21.6787 7.12323C21.6283 7.12323 21.5851 7.12323 21.5851 7.12323C21.3475 8.23203 21.1027 9.38403 20.8147 10.5432C21.1027 10.5432 21.2971 10.5432 21.5347 10.5432C21.8227 10.5432 21.9667 10.4928 22.0171 10.2048C22.1107 9.72243 22.2115 9.24003 22.3051 8.75763C22.3051 8.66403 22.3555 8.52003 22.3051 8.41923C22.1179 7.98723 21.9235 7.55523 21.6787 7.12323ZM9.25873 16.4616C9.64033 16.8 9.93553 17.0376 10.2667 17.2824C10.4107 17.376 10.5547 17.4768 10.6987 17.4768C11.3251 17.4768 11.9011 17.4768 12.5275 17.4768C12.6211 17.4768 12.7651 17.3832 12.8155 17.2824C12.9091 17.0448 12.9091 16.7496 13.0099 16.4616C11.7643 16.4616 10.5619 16.4616 9.25873 16.4616Z" fill="#3158A6"/>
<path d="M14.27 15.3024C12.7796 15.3024 11.282 15.3024 9.74121 15.3024C9.93561 14.4816 10.0796 13.7616 10.274 12.9912C10.3244 12.7032 10.4684 12.4152 10.4684 12.1272C10.5188 11.6952 10.706 11.5944 11.1452 11.5944C12.3476 11.6448 13.55 11.5944 14.7092 11.5944C15.0476 11.5944 15.1916 11.5008 15.242 11.1624C15.4796 9.96 15.7748 8.7576 16.0628 7.5552C16.1132 7.4112 16.2572 7.2168 16.4012 7.2168C17.7044 7.2168 19.0004 7.2168 20.2532 7.2168C20.3036 7.2168 20.3468 7.2672 20.4476 7.2672C20.1596 8.664 19.8212 10.0608 19.5332 11.5512C21.2684 11.5512 22.9532 11.5512 24.6812 11.5512C24.5876 11.9328 24.5372 12.228 24.4436 12.516C24.2492 13.2864 24.062 14.0568 23.9108 14.7768C23.8604 15.1152 23.7164 15.2592 23.3348 15.2592C21.8876 15.2088 20.4476 15.2592 19.0004 15.2592C18.7124 15.2592 18.5684 15.3096 18.518 15.5976C18.0356 17.9088 17.51 20.22 17.0276 22.4808C16.8332 23.3952 17.3156 24.072 18.2804 24.072C19.5836 24.1224 20.8292 24.072 22.1324 24.072C22.3268 24.072 22.4708 24.1224 22.7084 24.1224C22.4708 25.0872 22.2764 26.0016 22.082 26.8656V26.916C21.8444 27.924 21.8444 27.924 20.7788 27.924C19.2884 27.924 17.7908 27.924 16.3508 27.8736C15.53 27.8736 14.7596 27.636 14.0396 27.2472C12.9308 26.6208 12.2612 25.4688 12.4484 24.216C12.686 22.6248 13.0748 21.0408 13.4132 19.4496C13.7012 18.1464 13.9892 16.8504 14.2772 15.5472C14.27 15.5472 14.27 15.4464 14.27 15.3024Z" fill="white"/>
<path d="M25.8698 11.3574C26.2082 12.1278 26.7338 12.7038 26.4458 13.575C26.1074 14.727 25.8698 15.9366 25.5818 17.0886C25.5314 17.3262 25.3874 17.427 25.1498 17.427C23.7026 17.427 22.2626 17.427 20.8154 17.427C20.6714 17.427 20.5274 17.427 20.333 17.427C20.1386 18.3414 19.9514 19.2558 19.757 20.1198C19.5626 20.9838 19.3754 21.8982 19.181 22.7694C19.0874 23.3022 18.6986 23.0574 18.4106 23.1078C18.0722 23.1582 18.1226 22.8702 18.173 22.6758C18.317 21.8118 18.5114 20.9406 18.7058 20.127C18.9434 19.0182 19.1882 17.9094 19.4258 16.8078C19.4762 16.5198 19.6202 16.4262 19.9082 16.4262C21.3554 16.4262 22.7954 16.4262 24.2426 16.4262C24.581 16.4262 24.725 16.3326 24.7754 15.9942C25.0634 14.5974 25.4522 13.2006 25.7402 11.8038C25.7762 11.6958 25.8266 11.6022 25.8698 11.3574Z" fill="white"/>
<path d="M23.9909 24.1145C24.2789 24.7913 24.7613 25.3169 24.5237 26.1881C24.1853 27.3905 23.9477 28.5929 23.6597 29.7953C23.6093 30.0833 23.4653 30.1769 23.1773 30.1769C21.1037 30.1265 19.0373 30.2273 16.9637 30.0833C15.3725 29.9897 13.9325 29.5073 12.8741 28.1609C12.7805 28.0169 12.6797 27.8729 12.6797 27.6785C12.8741 27.8225 13.0613 27.9665 13.2557 28.0601C14.3141 28.7369 15.4733 28.9745 16.7189 29.0249C18.5981 29.0753 20.4773 29.0249 22.3493 29.0249C22.5869 29.0249 22.6877 28.9745 22.7813 28.6865C23.0693 27.2897 23.4077 25.8929 23.7461 24.4961C23.7965 24.3521 23.8397 24.1577 23.8901 24.0137C23.8973 24.1145 23.9477 24.1145 23.9909 24.1145Z" fill="white"/>
<path d="M21.6794 7.12305C21.8738 7.55505 22.1114 7.98705 22.3058 8.42625C22.3562 8.51985 22.3058 8.62065 22.3058 8.76465C22.2122 9.24705 22.0682 9.72945 22.0178 10.2118C21.9674 10.4998 21.8234 10.5934 21.5354 10.5502C21.341 10.5502 21.1034 10.5502 20.8154 10.5502C21.053 9.34785 21.3482 8.23905 21.5858 7.13025C21.6362 7.12305 21.6794 7.12305 21.6794 7.12305Z" fill="white"/>
<path d="M9.25879 16.4609C10.562 16.4609 11.7644 16.4609 12.9668 16.4609C12.9164 16.7489 12.8732 17.0369 12.7724 17.2817C12.722 17.3753 12.578 17.4761 12.4844 17.4761C11.858 17.4761 11.282 17.4761 10.6556 17.4761C10.5116 17.4761 10.3676 17.3825 10.2236 17.2817C9.93559 17.0369 9.64759 16.7489 9.25879 16.4609Z" fill="white"/>
</g>
<defs>
<clipPath id="clip0_1_15333">
<rect width="36" height="36" fill="white" transform="translate(0 0.578125)"/>
</clipPath>
</defs>
</svg>
