<svg width="36" height="37" viewBox="0 0 36 37" fill="none" xmlns="http://www.w3.org/2000/svg">
<g clip-path="url(#clip0_1_15385)">
<path fill-rule="evenodd" clip-rule="evenodd" d="M24.833 24.3102L31.5578 30.0126L31.565 30.0198L31.6298 29.9262C32.249 29.1702 32.8034 28.3638 33.293 27.5214L33.3218 27.4782L25.7114 23.043C25.4522 23.4894 25.157 23.9142 24.833 24.3102Z" fill="url(#paint0_linear_1_15385)"/>
<path fill-rule="evenodd" clip-rule="evenodd" d="M26.8918 18.6641H35.6974L35.683 18.8729C35.6686 19.7513 35.5966 20.6369 35.4598 21.5081L35.4382 21.7601L35.3734 21.9977C35.2078 22.8617 34.9846 23.7185 34.6894 24.5465L34.639 24.7265L26.3662 21.6881C26.7118 20.7161 26.8918 19.6937 26.8918 18.6641Z" fill="url(#paint1_linear_1_15385)"/>
<path fill-rule="evenodd" clip-rule="evenodd" d="M33.3651 9.74362C33.8403 10.5716 34.2435 11.4428 34.5819 12.3428L34.6539 12.5012L34.7043 12.6812C34.9995 13.5308 35.2299 14.402 35.3955 15.2876L35.4531 15.4964L26.7843 17.03C26.5251 15.4964 25.8627 14.0564 24.8691 12.854L31.5867 7.16602L31.6587 7.25242C32.2779 8.00842 32.8323 8.81482 33.3219 9.65722L33.3507 9.69322L33.3651 9.74362Z" fill="url(#paint2_linear_1_15385)"/>
<path fill-rule="evenodd" clip-rule="evenodd" d="M19.656 9.80055C19.152 9.70695 18.6336 9.65655 18.1152 9.65655V0.84375C19.1304 0.84375 20.1384 0.93015 21.132 1.10295L21.1752 1.11015L21.2184 1.12455C22.1904 1.29735 23.148 1.56375 24.0768 1.89495L24.1344 1.90935L24.192 1.93095C25.1136 2.27655 26.0064 2.69415 26.856 3.19095L26.8992 3.21255L26.9424 3.24135C27.7848 3.73095 28.5768 4.29255 29.3256 4.91895L29.412 4.99095L23.7816 11.7661C22.9968 11.0965 22.104 10.5709 21.1464 10.2109C20.6568 10.0309 20.16 9.89415 19.656 9.80055Z" fill="url(#paint3_linear_1_15385)"/>
<path d="M18.0289 0.822266V9.64947C13.1185 9.64947 9.1369 13.6455 9.1369 18.5775C9.1369 23.5095 13.1185 27.5055 18.0289 27.5055C20.6569 27.5055 23.1481 26.3391 24.8257 24.3303L31.5577 30.0183C28.2097 34.0287 23.2561 36.3399 18.0289 36.3399C8.2657 36.3399 0.345703 28.3911 0.345703 18.5847C0.345703 8.77827 8.2657 0.822266 18.0289 0.822266ZM26.3737 21.6663L34.6321 24.7263C34.2721 25.6983 33.8329 26.6343 33.3145 27.5271L25.7113 23.0775C25.9705 22.6311 26.1937 22.1559 26.3737 21.6663ZM35.4529 15.4959C35.6257 16.4967 35.7193 17.5263 35.7193 18.5775H26.9209C26.9209 18.0519 26.8777 17.5335 26.7841 17.0295L35.4529 15.4959ZM29.4553 5.02707C30.2401 5.69667 30.9673 6.43107 31.6297 7.22307L24.8689 12.8751C24.5377 12.4791 24.1705 12.1047 23.7817 11.7735L29.4553 5.02707Z" fill="#1D2667"/>
</g>
<defs>
<linearGradient id="paint0_linear_1_15385" x1="30.0152" y1="25.1574" x2="27.9902" y2="28.1479" gradientUnits="userSpaceOnUse">
<stop stop-color="white" stop-opacity="0"/>
<stop offset="1" stop-opacity="0.1"/>
</linearGradient>
<linearGradient id="paint1_linear_1_15385" x1="31.6551" y1="20.5957" x2="30.8558" y2="22.9222" gradientUnits="userSpaceOnUse">
<stop stop-color="white" stop-opacity="0"/>
<stop offset="1" stop-opacity="0.1"/>
</linearGradient>
<linearGradient id="paint2_linear_1_15385" x1="28.3589" y1="10.6901" x2="31.6352" y2="16.5531" gradientUnits="userSpaceOnUse">
<stop stop-color="white" stop-opacity="0"/>
<stop offset="1" stop-opacity="0.1"/>
</linearGradient>
<linearGradient id="paint3_linear_1_15385" x1="18.0106" y1="3.20891" x2="27.4847" y2="10.3826" gradientUnits="userSpaceOnUse">
<stop stop-color="white" stop-opacity="0"/>
<stop offset="1" stop-opacity="0.1"/>
</linearGradient>
<clipPath id="clip0_1_15385">
<rect width="36" height="36" fill="white" transform="translate(0 0.578125)"/>
</clipPath>
</defs>
</svg>
