<svg width="36" height="37" viewBox="0 0 36 37" fill="none" xmlns="http://www.w3.org/2000/svg">
<g clip-path="url(#clip0_1_15614)">
<path d="M18.0219 36.4305C27.8958 36.4305 35.9002 28.4261 35.9002 18.5521C35.9002 8.67822 27.8958 0.673828 18.0219 0.673828C8.14795 0.673828 0.143555 8.67822 0.143555 18.5521C0.143555 28.4261 8.14795 36.4305 18.0219 36.4305Z" fill="black"/>
<path d="M8.74414 25.422C11.5377 23.5169 14.6417 22.0935 17.4259 20.1639C18.377 19.5008 19.4001 18.8275 20.0208 17.8203C21.2736 15.2542 12.1332 15.9727 10.7637 15.8143C10.7594 15.7891 10.7558 15.7639 10.7515 15.738C14.5401 14.6055 22.139 13.2007 25.8809 14.2973C29.9885 15.6056 23.6885 19.0803 22.2146 19.9853C17.9781 22.3008 13.548 24.5415 8.79742 25.5264C8.78014 25.4926 8.76214 25.4573 8.74414 25.422Z" fill="#3EFCAB"/>
</g>
<defs>
<clipPath id="clip0_1_15614">
<rect width="36" height="36" fill="white" transform="translate(0 0.578125)"/>
</clipPath>
</defs>
</svg>
