<svg width="36" height="37" viewBox="0 0 36 37" fill="none" xmlns="http://www.w3.org/2000/svg">
<g clip-path="url(#clip0_1_15611)">
<path d="M18 36.5781C27.9411 36.5781 36 28.5192 36 18.5781C36 8.637 27.9411 0.578125 18 0.578125C8.05887 0.578125 0 8.637 0 18.5781C0 28.5192 8.05887 36.5781 18 36.5781Z" fill="#178DD0"/>
<path d="M8.39483 19.2762C8.48843 18.4482 8.53163 18.0306 8.89883 17.7426C9.25883 17.4546 9.67643 17.4978 10.5044 17.5842C10.8788 17.6274 11.3108 17.6778 11.8076 17.7426C12.2468 17.8002 12.6428 17.8938 12.9956 18.0018C13.7228 18.225 14.0828 18.333 14.6372 19.0818C15.1916 19.8306 15.1916 20.4282 15.1916 21.6306C15.1916 22.3722 15.1916 23.3082 15.1916 24.489C15.1916 26.145 15.1916 27.3258 15.1916 28.1466C15.1916 28.9386 15.1916 29.3346 14.9468 29.5866C14.702 29.8314 14.2988 29.8314 13.5068 29.8314C12.8948 29.8314 12.1964 29.8314 11.5412 29.8314C11.498 29.8314 11.4476 29.8314 11.4044 29.8314C10.094 29.8314 9.44603 29.8314 8.95643 29.385C8.47403 28.9386 8.41643 28.3266 8.30843 27.1026C8.22203 26.145 8.15723 24.9642 8.15723 23.6394C8.15723 21.8682 8.27243 20.3634 8.39483 19.2762Z" fill="white"/>
<path d="M27.3241 19.2762C27.2305 18.4482 27.1873 18.0306 26.8201 17.7426C26.4601 17.4546 26.0425 17.4978 25.2145 17.5842C24.8401 17.6274 24.4081 17.6778 23.9113 17.7426C23.4721 17.8002 23.0761 17.8938 22.7233 18.0018C21.9961 18.225 21.6361 18.333 21.0817 19.0818C20.5273 19.8306 20.5273 20.4282 20.5273 21.6306C20.5273 22.3722 20.5273 23.3082 20.5273 24.489C20.5273 26.145 20.5273 27.3258 20.5273 28.1466C20.5273 28.9386 20.5273 29.3346 20.7721 29.5866C21.0169 29.8314 21.4201 29.8314 22.2121 29.8314C22.8241 29.8314 23.5225 29.8314 24.1849 29.8314C24.2281 29.8314 24.2785 29.8314 24.3217 29.8314C25.6321 29.8314 26.2801 29.8314 26.7697 29.385C27.2521 28.9386 27.3097 28.3266 27.4177 27.1026C27.5041 26.145 27.5689 24.9642 27.5689 23.6394C27.5617 21.8682 27.4465 20.3634 27.3241 19.2762Z" fill="white"/>
<path d="M8.43848 10.1535C8.43848 8.85753 8.43848 8.20953 8.81288 7.74873C8.86328 7.69113 8.91368 7.62633 8.97128 7.57593C9.40328 7.16553 10.0369 7.12233 11.2897 7.02873C13.0465 6.89913 15.4441 6.76953 18.0001 6.76953C20.5561 6.76953 22.9465 6.89913 24.7105 7.02873C25.9705 7.12233 26.5969 7.16553 27.0289 7.57593C27.0865 7.62633 27.1369 7.69113 27.1873 7.74873C27.5617 8.20953 27.5617 8.85753 27.5617 10.1535C27.5617 11.4351 27.5617 12.0831 27.1873 12.5439C27.1369 12.6015 27.0865 12.6663 27.0289 12.7167C26.5969 13.1271 25.9705 13.1703 24.7321 13.2639C23.0185 13.3935 20.6569 13.5159 18.0001 13.5159C15.3433 13.5159 12.9817 13.3863 11.2681 13.2639C10.0297 13.1703 9.40328 13.1271 8.97128 12.7167C8.91368 12.6663 8.86328 12.6015 8.81288 12.5439C8.43848 12.0759 8.43848 11.4351 8.43848 10.1535Z" fill="white"/>
</g>
<defs>
<clipPath id="clip0_1_15611">
<rect width="36" height="36" fill="white" transform="translate(0 0.578125)"/>
</clipPath>
</defs>
</svg>
