<svg width="36" height="37" viewBox="0 0 36 37" fill="none" xmlns="http://www.w3.org/2000/svg">
<g clip-path="url(#clip0_1_15387)">
<path d="M17.9998 36.2087C27.7365 36.2087 35.6296 28.3156 35.6296 18.579C35.6296 8.84232 27.7365 0.949219 17.9998 0.949219C8.26322 0.949219 0.370117 8.84232 0.370117 18.579C0.370117 28.3156 8.26322 36.2087 17.9998 36.2087Z" fill="#30C0F2"/>
<path opacity="0.4" d="M27.1 10.5723L35.438 21.1821C35.438 21.1821 34.5648 32.4746 21.9637 35.7615L17.29 30.1744L27.1 10.5723Z" fill="#298EA1"/>
<path d="M11.3741 8.40234H24.7443C24.7443 8.40234 25.0993 10.1771 26.9924 10.2955C26.9924 10.2955 33.2634 24.9672 18 31.2382C18 31.2382 3.91991 26.742 8.88937 10.4138C8.88937 10.4138 11.0191 10.2955 11.3741 8.40234Z" fill="white"/>
<path d="M12.3799 9.88086H23.7386C23.7386 9.88086 23.8108 11.3386 25.3585 11.4403C25.3585 11.4403 30.4829 23.9823 18.0084 29.3446C18.0084 29.3446 6.42483 25.6151 10.4868 11.6557C10.4868 11.6557 12.09 11.4995 12.3799 9.88086Z" fill="#F8B642" stroke="#298EA1" stroke-width="0.0757872" stroke-miterlimit="10"/>
<path d="M20.9873 16.5658H20.6418C20.6761 15.8712 20.5235 14.3591 18.6552 13.939C18.1124 13.8087 17.5438 13.8349 17.0153 14.0148C16.2864 14.2751 15.4156 14.9294 15.3837 16.5658H15.1304C14.5919 16.5671 14.1556 17.0033 14.1543 17.5419V21.624C14.1556 22.1625 14.5919 22.5988 15.1304 22.6001H20.9873C21.5259 22.5988 21.9621 22.1625 21.9634 21.624V17.5419C21.9621 17.0033 21.5259 16.5671 20.9873 16.5658ZM18.7096 21.1802H17.4081L17.7524 19.4599C17.3628 19.2906 17.1842 18.8376 17.3535 18.448C17.5227 18.0584 17.9758 17.8798 18.3653 18.0491C18.7549 18.2183 18.9335 18.6714 18.7643 19.0609C18.6866 19.2396 18.544 19.3822 18.3653 19.4599L18.7096 21.1802ZM16.2249 16.5658C16.2569 16.031 16.4817 14.7661 17.8814 14.6726C17.8814 14.6726 19.7284 14.5709 19.6953 16.5658H16.2249Z" fill="white"/>
</g>
<defs>
<clipPath id="clip0_1_15387">
<rect width="36" height="36" fill="white" transform="translate(0 0.578125)"/>
</clipPath>
</defs>
</svg>
