<svg width="36" height="37" viewBox="0 0 36 37" fill="none" xmlns="http://www.w3.org/2000/svg">
<g clip-path="url(#clip0_1_15409)">
<path d="M11.3613 30.342C11.6493 29.8308 13.6797 26.3388 14.3925 25.0428C14.7525 24.3876 15.2637 24.0996 15.9909 24.0996C17.3517 24.1068 18.7197 24.0996 20.0805 24.0996C20.7069 24.0996 21.2181 24.3084 21.5493 24.8916C22.5717 26.6844 23.6085 28.47 24.6813 30.3348C24.3789 30.702 24.0837 31.0908 23.7597 31.4508C22.3413 33.0564 20.8077 34.5468 19.1301 35.8788C18.2517 36.5772 17.8053 36.5916 16.9413 35.9004C14.8893 34.2732 13.0317 32.4588 11.3613 30.342Z" fill="#00843D"/>
<path d="M15.8617 22.1424C15.2353 22.1568 14.7889 21.9264 14.4793 21.3648C13.7881 20.1336 13.0825 18.9168 12.3625 17.7C12.0241 17.1312 12.0313 16.6128 12.3697 16.044C13.0897 14.8344 13.7953 13.6104 14.4865 12.3792C14.7817 11.8536 15.1993 11.6016 15.8041 11.6016C17.2873 11.6088 18.7633 11.6088 20.2465 11.6016C20.8153 11.6016 21.2401 11.832 21.5209 12.3216C22.2625 13.6032 23.0041 14.8848 23.7457 16.1664C24.0121 16.6344 24.0121 17.1096 23.7385 17.5776C22.9969 18.8592 22.2553 20.1408 21.5137 21.4224C21.2257 21.9192 20.8009 22.1424 20.2321 22.128C19.5049 22.1208 16.5889 22.1208 15.8617 22.1424Z" fill="#00843D"/>
<path d="M11.7363 4.0135C12.4995 3.5959 16.1715 1.5943 17.3019 0.967897C17.7771 0.701497 18.2307 0.687097 18.7059 0.946297C20.4987 1.9327 22.2987 2.9047 24.0915 3.8911C24.1491 3.9199 24.1923 3.9847 24.2859 4.0639C24.2067 4.2151 22.4499 7.2535 21.7011 8.6431C21.3195 9.3487 20.7867 9.6655 20.0019 9.6511C18.6843 9.6295 17.3667 9.6367 16.0491 9.6511C15.3003 9.6583 14.7675 9.3847 14.3931 8.6935C13.6227 7.2895 11.8515 4.2511 11.7363 4.0135Z" fill="#00843D"/>
<path d="M26.1144 4.99805C27.5976 5.81165 31.2624 7.80605 31.6728 8.03645C32.1264 8.28845 32.3712 8.67725 32.364 9.18125C32.3352 11.37 32.1048 13.5372 31.6224 15.6684C31.6152 15.7116 31.572 15.7476 31.5 15.8484C31.32 15.8628 28.2384 15.8628 26.9208 15.8988C26.172 15.9132 25.6824 15.618 25.3296 14.97C24.696 13.818 24.0336 12.6804 23.3568 11.5572C22.9752 10.9236 22.9536 10.3548 23.3352 9.71405C24.192 8.28125 25.0056 6.83405 25.8408 5.38685C25.8984 5.27885 25.992 5.17085 26.1144 4.99805Z" fill="#00843D"/>
<path d="M4.45693 15.8858C4.30573 15.101 4.11853 14.3954 4.04653 13.6754C3.89533 12.2066 3.79453 10.7306 3.68653 9.25459C3.64333 8.71459 3.88813 8.29699 4.36333 8.03779C6.19213 7.02979 8.02093 6.02899 9.90733 4.99219C10.0369 5.17939 11.9089 8.36179 12.7441 9.77299C13.0753 10.3346 13.0969 10.853 12.7585 11.4218C12.0241 12.653 11.3185 13.8986 10.6129 15.1442C10.3609 15.5906 9.99373 15.8642 9.48973 15.8714C7.84813 15.893 6.20653 15.8858 4.45693 15.8858Z" fill="#00843D"/>
<path d="M25.9418 28.5359C25.3658 27.5423 23.609 24.4967 23.2634 23.9135C22.9538 23.4023 22.9538 22.8983 23.2562 22.3799C23.9906 21.1199 24.7106 19.8599 25.4378 18.5999C25.6898 18.1607 26.0714 17.8727 26.5682 17.8655C27.9794 17.8511 29.3906 17.8655 30.7946 17.8727C30.8378 17.8727 30.881 17.9087 30.9242 17.9231C30.9314 19.8239 27.7778 26.5055 25.9418 28.5359Z" fill="#00843D"/>
<path d="M10.0224 28.5499C7.71122 25.3027 6.07682 21.8107 4.98242 18.0019C5.12642 17.9443 5.24882 17.8651 5.36402 17.8579C6.70322 17.8507 8.04242 17.8435 9.38162 17.8579C9.91442 17.8651 10.3176 18.1099 10.584 18.5779C11.3184 19.8595 12.06 21.1411 12.8016 22.4227C13.068 22.8835 13.1112 23.3443 12.8304 23.8195C11.9664 25.3027 11.1168 26.7859 10.26 28.2691C10.2096 28.3411 10.1448 28.4059 10.0224 28.5499Z" fill="#00843D"/>
</g>
<defs>
<clipPath id="clip0_1_15409">
<rect width="36" height="36" fill="white" transform="translate(0 0.578125)"/>
</clipPath>
</defs>
</svg>
