<svg width="36" height="37" viewBox="0 0 36 37" fill="none" xmlns="http://www.w3.org/2000/svg">
<g clip-path="url(#clip0_1_15382)">
<path d="M18 36.5781C27.9411 36.5781 36 28.5192 36 18.5781C36 8.637 27.9411 0.578125 18 0.578125C8.05887 0.578125 0 8.637 0 18.5781C0 28.5192 8.05887 36.5781 18 36.5781Z" fill="#1B5AFF"/>
<path d="M27.8285 24.4968C29.2401 24.4968 30.3845 23.3524 30.3845 21.9408C30.3845 20.5291 29.2401 19.3848 27.8285 19.3848C26.4168 19.3848 25.2725 20.5291 25.2725 21.9408C25.2725 23.3524 26.4168 24.4968 27.8285 24.4968Z" fill="white"/>
<path d="M20.0878 11.2695V16.3455H15.8974L9.40299 27.6351L5.02539 25.0287L12.3046 12.3999C12.7078 11.7015 13.4494 11.2695 14.2558 11.2695H20.0878Z" fill="white"/>
<path d="M30.3912 11.2695V16.3455H26.1072L20.4192 26.2599C19.9296 27.1095 19.0224 27.6351 18.0432 27.6351H12.3984V22.5663H16.5888L22.3848 12.5151C22.8168 11.7519 23.6304 11.2767 24.5088 11.2767H30.3912V11.2695Z" fill="white"/>
<path d="M5.45801 16.3461C8.25881 16.3461 10.5268 14.0781 10.5268 11.2773H5.45801V16.3461Z" fill="white"/>
</g>
<defs>
<clipPath id="clip0_1_15382">
<rect width="36" height="36" fill="white" transform="translate(0 0.578125)"/>
</clipPath>
</defs>
</svg>
