<svg width="36" height="37" viewBox="0 0 36 37" fill="none" xmlns="http://www.w3.org/2000/svg">
<g clip-path="url(#clip0_1_15442)">
<path d="M3.63124 0.939453C4.41583 1.12232 5.24593 1.3145 6.07543 1.50933C13.4265 3.23606 20.778 4.9604 28.1262 6.69911C28.4779 6.78233 28.833 6.94546 29.1291 7.15331C30.6606 8.2287 32.1737 9.33035 33.6926 10.4238C34.197 10.7869 34.2258 10.9663 33.8589 11.4888C28.1798 19.575 22.5013 27.6616 16.8126 35.741C16.6817 35.927 16.4052 36.1692 16.2468 36.1371C16.0481 36.0968 15.8245 35.8287 15.7432 35.61C11.8638 25.1842 7.99873 14.753 4.13202 4.32241C3.8098 3.45323 3.48202 2.58604 3.16765 1.71401C3.0004 1.25006 3.1757 0.940731 3.63124 0.939453ZM4.78616 2.18208C9.295 7.42046 13.7234 12.5653 18.1697 17.7311C21.4071 14.3359 24.5948 10.9927 27.8351 7.59432C20.1397 5.78732 12.5305 4.00057 4.78616 2.18208ZM4.81843 3.2078C4.79678 3.22785 4.77514 3.2479 4.75349 3.26793C8.56218 13.5418 12.3709 23.8157 16.1796 34.0896C16.2816 33.8907 16.3136 33.7142 16.332 33.5363C16.8415 28.6213 17.3459 23.7058 17.8646 18.7918C17.9101 18.3606 17.8241 18.0392 17.5265 17.7018C14.4049 14.1627 11.3017 10.6073 8.19295 7.05686C7.0689 5.77314 5.94331 4.49076 4.81843 3.2078ZM16.8254 33.9421C16.8512 33.9546 16.877 33.9671 16.9028 33.9796C22.161 26.4937 27.4192 19.0078 32.6774 11.5219C32.4666 11.5337 32.3038 11.5985 32.1466 11.675C28.003 13.6919 23.8782 15.7492 19.7031 17.6987C18.7255 18.1552 18.3835 18.7109 18.2973 19.752C18.0268 23.0192 17.634 26.2763 17.2891 29.5374C17.1338 31.0056 16.9799 32.4738 16.8254 33.9421ZM28.3453 7.74522C25.2879 10.9519 22.2542 14.1337 19.2205 17.3155C19.2449 17.3451 19.2694 17.3747 19.2939 17.4043C23.7308 15.2325 28.1676 13.0607 32.6686 10.8576C31.2046 9.80359 29.7986 8.79145 28.3453 7.74522Z" fill="black"/>
<path d="M4.78613 2.18164C12.5305 4.00014 20.1397 5.7869 27.835 7.59388C24.5947 10.9922 21.407 14.3354 18.1697 17.7307C13.7233 12.5649 9.29497 7.42 4.78613 2.18164Z" fill="white"/>
<path d="M4.81885 3.20703C5.94372 4.49002 7.06932 5.77239 8.19336 7.0561C11.3022 10.6065 14.4053 14.1619 17.5269 17.701C17.8245 18.0384 17.9105 18.3599 17.865 18.7911C17.3464 23.7051 16.842 28.6206 16.3324 33.5355C16.314 33.7135 16.282 33.89 16.18 34.0889C12.3713 23.815 8.5626 13.5411 4.75391 3.26717C4.77556 3.24712 4.7972 3.22707 4.81885 3.20703Z" fill="white"/>
<path d="M16.8252 33.9416C16.9797 32.4734 17.1337 31.0051 17.2889 29.537C17.6338 26.2759 18.0266 23.0188 18.2971 19.7516C18.3833 18.7104 18.7253 18.1548 19.7029 17.6983C23.878 15.7488 28.0028 13.6914 32.1465 11.6745C32.3036 11.5981 32.4664 11.5333 32.6772 11.5215C27.419 19.0074 22.1608 26.4932 16.9027 33.9791C16.8769 33.9666 16.851 33.9541 16.8252 33.9416Z" fill="white"/>
<path d="M28.3456 7.74609C29.7988 8.79231 31.2048 9.80447 32.6689 10.8585C28.1679 13.0616 23.731 15.2334 19.2941 17.4052C19.2696 17.3756 19.2452 17.346 19.2207 17.3164C22.2544 14.1346 25.2881 10.9528 28.3456 7.74609Z" fill="white"/>
</g>
<defs>
<clipPath id="clip0_1_15442">
<rect width="36" height="36" fill="white" transform="translate(0 0.578125)"/>
</clipPath>
</defs>
</svg>
