<svg width="36" height="37" viewBox="0 0 36 37" fill="none" xmlns="http://www.w3.org/2000/svg">
<g clip-path="url(#clip0_1_15440)">
<path d="M17.9785 36.246C27.7486 36.246 35.6689 28.3258 35.6689 18.5556C35.6689 8.7855 27.7486 0.865234 17.9785 0.865234C8.20835 0.865234 0.288086 8.7855 0.288086 18.5556C0.288086 28.3258 8.20835 36.246 17.9785 36.246Z" fill="#343434"/>
<path d="M17.9786 5.00533C25.4594 5.00533 31.529 11.0749 31.529 18.5557C31.529 26.0365 25.4666 32.1061 17.9786 32.1061C10.4906 32.1061 4.42818 26.0365 4.42818 18.5557C4.42818 11.0749 10.4978 5.00533 17.9786 5.00533ZM17.9786 3.64453C15.9626 3.64453 14.0114 4.04053 12.1754 4.81813C10.397 5.56693 8.80578 6.64693 7.43778 8.01493C6.06978 9.38293 4.99698 10.9813 4.24098 12.7525C3.46338 14.5885 3.06738 16.5469 3.06738 18.5557C3.06738 20.5645 3.46338 22.5229 4.24098 24.3589C4.98978 26.1373 6.06978 27.7285 7.43778 29.0965C8.80578 30.4645 10.4042 31.5373 12.1754 32.2933C14.0114 33.0709 15.9698 33.4669 17.9786 33.4669C19.9874 33.4669 21.9458 33.0709 23.7818 32.2933C25.5602 31.5445 27.1514 30.4645 28.5194 29.0965C29.8874 27.7285 30.9602 26.1301 31.7162 24.3589C32.4938 22.5229 32.8898 20.5645 32.8898 18.5557C32.8898 16.5469 32.4938 14.5885 31.7162 12.7525C30.9674 10.9741 29.8874 9.38293 28.5194 8.01493C27.1514 6.64693 25.553 5.57413 23.7818 4.81813C21.9458 4.04053 19.9946 3.64453 17.9786 3.64453Z" fill="white"/>
<path d="M27.5038 14.201C27.259 14.201 27.0142 14.0642 26.899 13.8266C25.279 10.6442 21.643 8.42659 18.0502 8.42659C17.6758 8.42659 17.3662 8.12419 17.3662 7.74259C17.3662 7.36099 17.6686 7.05859 18.0502 7.05859C20.095 7.05859 22.147 7.66339 23.983 8.80099C25.7614 9.90259 27.2302 11.465 28.1158 13.2074C28.2886 13.5458 28.1518 13.9562 27.8206 14.1218C27.7126 14.1794 27.6118 14.201 27.5038 14.201Z" fill="white"/>
<path d="M14.5584 12.5151L24.5016 18.6063L14.5584 24.6687V12.5151ZM14.5584 11.1543C14.328 11.1543 14.0976 11.2119 13.8888 11.3271C13.4568 11.5647 13.1904 12.0255 13.1904 12.5151V24.6615C13.1904 25.1511 13.4568 25.6119 13.8888 25.8495C14.0976 25.9647 14.328 26.0223 14.5584 26.0223C14.8032 26.0223 15.048 25.9575 15.264 25.8207L25.2072 19.7583C25.6104 19.5135 25.8624 19.0743 25.8624 18.5991C25.8624 18.1239 25.6176 17.6847 25.2144 17.4327L15.2712 11.3415C15.048 11.2191 14.8032 11.1543 14.5584 11.1543Z" fill="white"/>
</g>
<defs>
<clipPath id="clip0_1_15440">
<rect width="36" height="36" fill="white" transform="translate(0 0.578125)"/>
</clipPath>
</defs>
</svg>
