<svg width="36" height="37" viewBox="0 0 36 37" fill="none" xmlns="http://www.w3.org/2000/svg">
<g clip-path="url(#clip0_1_15332)">
<path d="M18 36.5781C8.1 36.5781 0 28.4781 0 18.5781C0 8.67812 8.1 0.578125 18 0.578125C27.9 0.578125 36 8.67812 36 18.5781C36 28.4781 27.9 36.5781 18 36.5781Z" fill="#002868"/>
<path d="M27.0722 29.3773H8.9282C7.9778 29.3773 7.2002 28.5997 7.2002 27.6493V9.50534C7.2002 8.55494 7.9778 7.77734 8.9282 7.77734H27.0722C28.0226 7.77734 28.8002 8.55494 28.8002 9.50534V27.6493C28.8002 28.5997 28.0226 29.3773 27.0722 29.3773Z" fill="white"/>
<path d="M11.4144 27.2029C11.3575 27.2029 11.3114 27.151 11.3114 27.0941V24.1918C11.3114 24.1349 11.2654 24.0831 11.2085 24.0831H10.1839C10.1263 24.0831 10.0752 24.037 10.0752 23.9801V23.4193C10.0752 23.3624 10.127 23.3105 10.1839 23.3105H13.3375C13.3944 23.3105 13.4462 23.3617 13.4462 23.4193V23.9801C13.4462 24.037 13.3944 24.0831 13.3375 24.0831H12.3187C12.2618 24.0831 12.21 24.1342 12.21 24.1918V27.0941C12.21 27.151 12.1639 27.2029 12.107 27.2029H11.4144Z" fill="#002868"/>
<path d="M16.5937 23.4193C16.5937 23.3624 16.6397 23.3105 16.6966 23.3105H17.3835C17.4404 23.3105 17.4922 23.3617 17.4922 23.4193V25.4C17.4922 26.5736 16.8284 27.2547 15.775 27.2547C14.7274 27.2547 14.0693 26.5736 14.0693 25.4V23.4193C14.0693 23.3624 14.1154 23.3105 14.1723 23.3105H14.8592C14.9161 23.3105 14.9679 23.3617 14.9679 23.4193V25.4281C14.9679 26.0062 15.2653 26.4181 15.7808 26.4181C16.2963 26.4181 16.5937 26.0062 16.5937 25.4281V23.4193Z" fill="#002868"/>
<path d="M20.6475 24.5818C20.556 24.5818 20.5272 24.5472 20.4927 24.4788C20.3724 24.198 20.1089 24.0209 19.7086 24.0209C19.3479 24.0209 19.0447 24.1469 19.0447 24.3874C19.0447 24.6509 19.3255 24.7596 19.9433 24.8338C20.8822 24.9425 21.42 25.2291 21.42 25.9728C21.42 26.8087 20.6871 27.2494 19.7489 27.2494C18.936 27.2494 18.2376 26.8541 18.1289 26.0247C18.1174 25.9447 18.1577 25.9159 18.2376 25.9159H18.8676C18.9475 25.9159 18.9936 25.9505 19.0167 26.0131C19.1023 26.2882 19.3947 26.4999 19.818 26.4999C20.1903 26.4999 20.5164 26.3623 20.5164 26.0707C20.5164 25.7215 20.173 25.6589 19.4861 25.5725C18.6963 25.4695 18.1469 25.2406 18.1469 24.5134C18.1469 23.7862 18.7711 23.2656 19.7496 23.2656C20.6309 23.2656 21.2436 23.7408 21.3696 24.4507C21.3869 24.5307 21.3639 24.5825 21.2782 24.5825H20.6475V24.5818Z" fill="#002868"/>
<path d="M22.1977 27.2029C22.1408 27.2029 22.0947 27.151 22.0947 27.0941V23.4193C22.0947 23.3624 22.1408 23.3105 22.1977 23.3105H23.7543C24.9106 23.3105 25.8092 24.1061 25.8092 25.2682C25.8092 26.413 24.9222 27.2029 23.7543 27.2029H22.1977ZM23.7543 26.4296C24.3786 26.4296 24.8646 25.9371 24.8646 25.256C24.8646 24.5749 24.3778 24.0824 23.7486 24.0824H23.102C23.0451 24.0824 22.999 24.1335 22.999 24.1911V26.3259C22.999 26.3828 23.0451 26.4289 23.102 26.4289H23.7543V26.4296Z" fill="#002868"/>
<path d="M28.2243 21.1704H7.77628C7.61788 21.1704 7.48828 21.0408 7.48828 20.8824V9.50641C7.48828 8.71441 8.13628 8.06641 8.92828 8.06641H27.0723C27.8643 8.06641 28.5123 8.71441 28.5123 9.50641V20.8824C28.5123 21.0408 28.3827 21.1704 28.2243 21.1704Z" fill="#002868"/>
<path d="M19.0607 18.8344H17.1887C17.0699 18.8344 16.9727 18.7372 16.9727 18.6184V10.6984C16.9727 10.5796 17.0699 10.4824 17.1887 10.4824H19.0607C19.1795 10.4824 19.2767 10.5796 19.2767 10.6984V18.6184C19.2767 18.7372 19.1795 18.8344 19.0607 18.8344Z" fill="white"/>
<path d="M22.2481 12.7864H13.7521C13.6333 12.7864 13.5361 12.6892 13.5361 12.5704V10.6984C13.5361 10.5796 13.6333 10.4824 13.7521 10.4824H22.2481C22.3669 10.4824 22.4641 10.5796 22.4641 10.6984V12.5704C22.4641 12.6892 22.3669 12.7864 22.2481 12.7864Z" fill="white"/>
</g>
<defs>
<clipPath id="clip0_1_15332">
<rect width="36" height="36" fill="white" transform="translate(0 0.578125)"/>
</clipPath>
</defs>
</svg>
