<svg width="36" height="37" viewBox="0 0 36 37" fill="none" xmlns="http://www.w3.org/2000/svg">
<g clip-path="url(#clip0_1_15598)">
<path d="M17.9932 36.5781C27.9364 36.5781 35.9932 28.5213 35.9932 18.5781C35.9932 8.63492 27.9364 0.578125 17.9932 0.578125C8.04996 0.578125 -0.00683594 8.63492 -0.00683594 18.5781C-0.00683594 28.5213 8.04996 36.5781 17.9932 36.5781Z" fill="#3375BB"/>
<path d="M18.1227 30.6522C17.8923 30.6522 17.6619 30.5802 17.4675 30.4434C16.1499 29.5002 15.0339 28.8954 14.0475 28.3554C12.0819 27.2898 10.5267 26.4474 9.56191 23.9562C8.69071 21.7098 8.30911 18.1458 8.20831 11.2554C8.20111 10.953 8.32351 10.665 8.53231 10.449C8.74111 10.233 9.02911 10.1106 9.33151 10.1106C9.38911 10.1106 9.45391 10.1106 9.53311 10.1106C10.8507 10.1178 14.3355 10.1466 17.4027 7.58342C17.8203 7.23782 18.4251 7.23782 18.8427 7.58342C21.9099 10.1466 25.4091 10.1178 26.7195 10.1106C26.7915 10.1106 26.8635 10.1106 26.9211 10.1106C27.2235 10.1106 27.5115 10.233 27.7203 10.449C27.9291 10.665 28.0515 10.953 28.0443 11.2554C27.9435 18.1386 27.5619 21.7026 26.6835 23.949C25.7187 26.433 24.1635 27.2754 22.1907 28.3482C21.2043 28.881 20.0811 29.493 18.7635 30.4362C18.5835 30.5802 18.3531 30.6522 18.1227 30.6522ZM10.4763 12.357C10.5987 18.1458 10.9443 21.3066 11.6571 23.1426C12.3195 24.8562 13.3131 25.3962 15.1203 26.3754C15.9555 26.829 16.9707 27.3762 18.1227 28.1538C19.2819 27.3762 20.2899 26.829 21.1323 26.3754C22.9395 25.3962 23.9331 24.8562 24.5955 23.1426C25.3083 21.3066 25.6611 18.1458 25.7835 12.357C25.0347 12.3354 24.0555 12.2562 22.9395 12.0042C21.1611 11.6082 19.5411 10.8954 18.1227 9.87302C15.2571 11.9322 12.2115 12.2994 10.4763 12.357Z" fill="white"/>
</g>
<defs>
<clipPath id="clip0_1_15598">
<rect width="36" height="36" fill="white" transform="translate(0 0.578125)"/>
</clipPath>
</defs>
</svg>
