<svg width="36" height="37" viewBox="0 0 36 37" fill="none" xmlns="http://www.w3.org/2000/svg">
<path fill-rule="evenodd" clip-rule="evenodd" d="M27.2808 12.5527L29.232 12.5671C29.4552 12.5527 29.6784 12.5527 29.9016 12.5671L34.6608 12.5959C35.388 12.6391 35.9568 13.2439 35.9568 13.9855C35.9568 14.3383 35.8272 14.6551 35.6184 14.8999L33.3 18.9391C33.2784 18.9751 33.264 19.0039 33.2424 19.0399L27.5112 29.0767C26.7336 30.4375 25.3368 31.2079 23.8896 31.2367H23.8248C23.7888 31.2367 23.7528 31.2367 23.7096 31.2367L6.75359 31.1503H4.86719V31.1143C6.29999 30.9127 7.50959 29.9911 8.12159 28.7239H8.13599L16.4448 14.1151C16.9128 13.1863 17.8632 12.5527 18.9648 12.5527H18.8856H27.2808Z" fill="#2BBDF7"/>
<path fill-rule="evenodd" clip-rule="evenodd" d="M14.0113 5.38102H28.9801C29.7001 5.42422 30.2761 6.02902 30.2761 6.77062C30.2761 7.06582 30.1825 7.33942 30.0241 7.56982L25.9849 14.6618L21.6937 22.2002H21.7297L20.3545 24.605C19.1953 26.6354 19.8505 29.213 21.8017 30.437L21.9241 30.509C22.4713 30.833 23.0617 31.013 23.6593 31.0706V31.1714H16.5817V31.1786H4.30572C3.60732 31.1642 2.90172 30.9842 2.24652 30.617C0.144122 29.4362 -0.619078 26.7578 0.547322 24.6266L9.85692 7.64182C10.7137 6.08662 12.3625 5.25862 14.0113 5.38102Z" fill="#2B6DEF"/>
<path fill-rule="evenodd" clip-rule="evenodd" d="M18.9149 12.5521L27.1589 12.5593L25.9637 14.6545L21.6725 22.1857H21.7085L20.3333 24.5905C19.1741 26.6209 19.8293 29.1985 21.7805 30.4225L21.9029 30.4945C22.4501 30.8185 23.0405 30.9985 23.6381 31.0561V31.1569H16.5605V31.1641H4.83887C6.13487 31.0273 7.35887 30.3073 8.09327 29.1121L8.17247 28.9753L16.8413 13.6537C17.3309 13.0129 18.0869 12.5881 18.9437 12.5449L18.9149 12.5521Z" fill="#003CB2"/>
</svg>
