<svg width="36" height="37" viewBox="0 0 36 37" fill="none" xmlns="http://www.w3.org/2000/svg">
<g clip-path="url(#clip0_1_15591)">
<path d="M23.0692 23.0785H21.5428C21.262 23.0785 21.0172 22.8553 21.0172 22.5529V18.5425L18.346 20.2057C18.1228 20.3497 17.8348 20.3497 17.6116 20.2057L14.9548 18.5425V22.5529C14.9548 22.8337 14.7316 23.0785 14.4292 23.0785H12.9172C12.6364 23.0785 12.3916 22.8553 12.3916 22.5529V14.8201C12.3916 14.4385 12.7012 14.1289 13.0828 14.1289C13.2268 14.1289 13.3492 14.1721 13.4644 14.2585L17.6692 17.1529C17.842 17.2825 18.0796 17.2825 18.2452 17.1529L22.45 14.2585C22.7596 14.0497 23.1988 14.1289 23.4076 14.4385C23.494 14.5537 23.5228 14.6905 23.5372 14.8201V22.5601C23.5804 22.8409 23.35 23.0785 23.0692 23.0785Z" fill="#FF4A4A"/>
<path d="M10.1374 23.0709H0.676552C0.294951 23.0709 -0.0146484 22.7613 -0.0146484 22.3797V14.6037C-0.000248438 14.3085 0.222952 14.0781 0.525352 14.0781H2.05175C2.33255 14.0781 2.57735 14.3013 2.57735 14.6037V20.5221H8.30855V14.6037C8.30855 14.3229 8.53175 14.0781 8.83415 14.0781H10.3174C10.5982 14.0781 10.843 14.3013 10.843 14.6037V22.3797C10.8286 22.7541 10.519 23.0709 10.1374 23.0709Z" fill="#FF4A4A"/>
<path d="M25.8625 14.0781H35.3233C35.7049 14.0781 36.0145 14.3877 36.0145 14.7693V22.5453C36.0145 22.8261 35.7913 23.0709 35.5033 23.0709H33.9841C33.7033 23.0709 33.4585 22.8477 33.4585 22.5453V16.9653C33.4585 16.7853 33.3001 16.6269 33.1201 16.6269H28.0801C27.9001 16.6269 27.7417 16.7853 27.7417 16.9653V22.5453C27.7417 22.8261 27.5185 23.0709 27.2161 23.0709H25.6897C25.4089 23.0709 25.1641 22.8477 25.1641 22.5453V14.7693C25.1713 14.3877 25.4809 14.0781 25.8625 14.0781Z" fill="#FF4A4A"/>
<path d="M29.8293 18.2676H31.3413C31.6221 18.2676 31.8669 18.4908 31.8669 18.7932V20.334C31.8669 20.6148 31.6437 20.8596 31.3413 20.8596H29.8293C29.5485 20.8596 29.3037 20.6364 29.3037 20.334V18.7788C29.3109 18.4908 29.5485 18.2676 29.8293 18.2676Z" fill="#FF4A4A"/>
</g>
<defs>
<clipPath id="clip0_1_15591">
<rect width="36" height="36" fill="white" transform="translate(0 0.578125)"/>
</clipPath>
</defs>
</svg>
