<svg width="36" height="37" viewBox="0 0 36 37" fill="none" xmlns="http://www.w3.org/2000/svg">
<g clip-path="url(#clip0_1_15589)">
<mask id="mask0_1_15589" style="mask-type:luminance" maskUnits="userSpaceOnUse" x="26" y="8" width="10" height="15">
<path d="M35.5609 16.2872C35.5609 16.2872 30.4561 18.2528 29.8873 18.656C29.8873 18.656 35.3593 16.1288 34.6681 8.84961C34.6681 8.84961 30.4417 16.9064 26.8057 18.2744C26.8057 18.2744 29.1457 21.2624 29.3473 22.616C29.3401 22.6232 34.2145 21.176 35.5609 16.2872Z" fill="white"/>
</mask>
<g mask="url(#mask0_1_15589)">
<path d="M31.9326 22.6243L35.5614 17.0371V22.6243H31.9326Z" fill="#00EC5B"/>
</g>
<path d="M30.5785 29.9619C30.5785 29.9619 37.8289 22.2579 35.5609 16.2891C35.5609 16.2891 31.2049 21.8835 29.4697 22.4379L30.5785 29.9619Z" fill="url(#paint0_linear_1_15589)"/>
<path d="M35.5609 16.2872C35.5609 16.2872 30.4561 18.2528 29.8873 18.656C29.8873 18.656 35.3593 16.1288 34.6681 8.84961C34.6681 8.84961 30.4417 16.9064 26.8057 18.2744C26.8057 18.2744 29.1457 21.2624 29.3473 22.616C29.3401 22.6232 34.2145 21.176 35.5609 16.2872Z" fill="url(#paint1_linear_1_15589)"/>
<path d="M11.268 19.1532C11.2608 19.1604 7.54557 24.0996 7.45197 24.4164C7.45197 24.4164 6.45837 26.454 9.65517 26.6628C9.65517 26.6628 11.3616 26.5476 16.0488 24.762C16.0488 24.762 20.16 23.4732 17.5104 20.4636C17.5104 20.4636 20.844 21.5364 21.9528 23.0988C22.0176 23.1852 22.068 23.286 22.14 23.3652C22.608 23.9556 24.2568 26.3604 22.464 29.1972C22.464 29.2044 22.4568 29.2044 22.4568 29.2116C22.3344 29.4564 18.936 35.742 5.99757 32.6892C5.99757 32.6892 22.7808 38.658 30.5712 29.946L30.2472 26.7276C30.2472 26.7276 30.0024 23.106 28.9584 21.1836C28.8648 20.9964 28.764 20.8164 28.6488 20.6364C28.0656 19.722 26.6544 17.0148 22.9896 15.4452L21.7224 16.734L22.3272 15.1428C22.32 15.1428 19.3464 14.0196 18.4536 14.3076L18.1584 15.87L17.7336 14.2644C17.7264 14.2644 15.6744 13.9404 13.572 14.5452L14.436 16.0932C14.436 16.0932 14.436 16.1004 14.4288 16.1004C14.3136 16.0644 13.2336 15.8268 12.3912 17.6412L4.38477 16.0716L11.268 19.1532Z" fill="white"/>
<path d="M6.00457 32.6963C6.00457 32.6963 -1.67783 30.1979 0.338169 20.9387C0.338169 20.9387 2.65657 9.98746 19.0366 5.55226C19.0366 5.55226 31.8238 1.91626 34.6678 2.25466C34.6678 2.25466 34.0342 6.72586 21.0958 9.99466L12.5638 14.8043C11.887 15.3299 11.3254 16.3523 11.3254 16.3523L10.8862 17.3531L4.39177 16.0643L11.275 19.1603L7.45897 24.4235C7.45897 24.4235 6.61657 26.3387 9.66217 26.6699L16.0558 24.7691L16.9486 24.9419L18.115 28.4483L17.2798 31.5659L11.383 32.6963L7.30777 33.1211L6.00457 32.6963Z" fill="url(#paint2_linear_1_15589)"/>
<path d="M26.9215 18.2399C26.9215 18.2399 30.5863 17.4695 34.6687 8.85826C34.6687 8.85826 29.9743 12.4511 27.6991 12.7103C27.6991 12.7103 34.3951 9.88066 34.6687 2.25586C34.6687 2.25586 12.7735 12.1703 9.7207 17.1239L12.3919 17.6495C12.3919 17.6495 13.2415 15.6047 14.4367 16.1015L13.5727 14.5463C13.5727 14.5463 14.8471 13.7831 17.7343 14.2655L18.1591 15.8711L18.4543 14.3087C18.4543 14.3087 19.2967 13.9055 22.3279 15.1439L21.7231 16.7351L22.9903 15.4463C22.9975 15.4679 25.9927 16.6127 26.9215 18.2399Z" fill="url(#paint3_linear_1_15589)"/>
<mask id="mask1_1_15589" style="mask-type:luminance" maskUnits="userSpaceOnUse" x="9" y="2" width="26" height="17">
<path d="M26.9215 18.2399C26.9215 18.2399 30.5863 17.4695 34.6687 8.85826C34.6687 8.85826 29.9743 12.4511 27.6991 12.7103C27.6991 12.7103 34.3951 9.88066 34.6687 2.25586C34.6687 2.25586 12.7735 12.1703 9.7207 17.1239L12.3919 17.6495C12.3919 17.6495 13.2415 15.6047 14.4367 16.1015L13.5727 14.5463C13.5727 14.5463 14.8471 13.7831 17.7343 14.2655L18.1591 15.8711L18.4543 14.3087C18.4543 14.3087 19.2967 13.9055 22.3279 15.1439L21.7231 16.7351L22.9903 15.4463C22.9975 15.4679 25.9927 16.6127 26.9215 18.2399Z" fill="white"/>
</mask>
<g mask="url(#mask1_1_15589)">
<path d="M34.6687 2.25586L9.7207 11.8247V2.25586H34.6687Z" fill="url(#paint4_linear_1_15589)"/>
</g>
<path d="M14.746 19.4712L12.7876 20.94C12.7876 20.94 12.1828 20.22 12.9604 19.6152C12.9532 19.6152 13.738 19.0392 14.746 19.4712Z" fill="url(#paint5_linear_1_15589)"/>
<path d="M6.00488 32.6969C6.00488 32.6969 15.1129 33.3809 16.7761 29.9105C18.4393 26.4401 16.0561 24.7697 16.0561 24.7697C16.0561 24.7697 18.4393 24.0065 18.4033 22.3217C18.4033 22.3217 18.4969 21.6377 17.5105 20.4785C17.5105 20.4785 21.1105 21.4361 21.9673 22.8689C22.0969 23.0921 22.2409 23.2937 22.3921 23.4953C23.2201 24.5681 25.3585 28.3553 19.7281 31.8329C13.0609 35.9297 6.00488 32.6969 6.00488 32.6969Z" fill="url(#paint6_linear_1_15589)"/>
</g>
<defs>
<linearGradient id="paint0_linear_1_15589" x1="32.7361" y1="29.963" x2="32.7361" y2="16.2913" gradientUnits="userSpaceOnUse">
<stop stop-color="#4ECC8D"/>
<stop offset="1" stop-color="#00D579"/>
</linearGradient>
<linearGradient id="paint1_linear_1_15589" x1="35.561" y1="15.7402" x2="26.8009" y2="15.7402" gradientUnits="userSpaceOnUse">
<stop stop-color="#00F649"/>
<stop offset="1" stop-color="#00D579"/>
</linearGradient>
<linearGradient id="paint2_linear_1_15589" x1="34.6645" y1="17.6797" x2="-0.000230085" y2="17.6797" gradientUnits="userSpaceOnUse">
<stop stop-color="#00F649"/>
<stop offset="1" stop-color="#00D579"/>
</linearGradient>
<linearGradient id="paint3_linear_1_15589" x1="22.2019" y1="2.25013" x2="22.2019" y2="18.2414" gradientUnits="userSpaceOnUse">
<stop stop-color="#4ECC8D"/>
<stop offset="1" stop-color="#00D579"/>
</linearGradient>
<linearGradient id="paint4_linear_1_15589" x1="22.1931" y1="2.25891" x2="22.1931" y2="11.8273" gradientUnits="userSpaceOnUse">
<stop stop-color="#4ECC8D"/>
<stop offset="1" stop-color="#00D579"/>
</linearGradient>
<linearGradient id="paint5_linear_1_15589" x1="12.565" y1="20.125" x2="14.7484" y2="20.125" gradientUnits="userSpaceOnUse">
<stop stop-color="#00F649"/>
<stop offset="1" stop-color="#00D579"/>
</linearGradient>
<linearGradient id="paint6_linear_1_15589" x1="23.4759" y1="27.1888" x2="6.00344" y2="27.1888" gradientUnits="userSpaceOnUse">
<stop stop-color="#00F649"/>
<stop offset="1" stop-color="white"/>
</linearGradient>
<clipPath id="clip0_1_15589">
<rect width="36" height="36" fill="white" transform="translate(0 0.578125)"/>
</clipPath>
</defs>
</svg>
