<svg width="36" height="37" viewBox="0 0 36 37" fill="none" xmlns="http://www.w3.org/2000/svg">
<g clip-path="url(#clip0_1_15402)">
<path d="M19.6344 36.6135H13.8888H8.1432L0 28.4703V22.7247V16.9791L8.1432 8.83594H13.8888H19.6344L27.7776 16.9791V22.7247V28.4703L19.6344 36.6135ZM13.8456 33.1863H18.1728L24.3504 27.0519V22.7247V18.3975L18.216 12.2199H13.8888H9.5616L3.384 18.3903V22.7175V27.0447L9.5184 33.1791H13.8456V33.1863Z" fill="black"/>
<path d="M27.8281 28.3844H22.0825H16.3369L8.18652 20.234V14.4884V8.74281L16.3369 0.599609H22.0825H27.8281L35.9713 8.74281V14.4884V20.234L27.8281 28.3844ZM22.0825 24.95H26.4097L32.5441 18.8156V14.4884V10.1612L26.4097 3.98361H22.0825H17.7553L11.5849 10.118V14.4452V18.7724L17.7193 24.9068L22.0825 24.95Z" fill="#38F997"/>
</g>
<defs>
<clipPath id="clip0_1_15402">
<rect width="36" height="36" fill="white" transform="translate(0 0.578125)"/>
</clipPath>
</defs>
</svg>
