<svg width="36" height="37" viewBox="0 0 36 37" fill="none" xmlns="http://www.w3.org/2000/svg">
<g clip-path="url(#clip0_1_15371)">
<path d="M14.6305 8.77089C14.2417 8.71329 14.2201 8.69889 14.4073 8.67729C14.7601 8.61969 15.5809 8.69889 16.1569 8.82849C17.4961 9.14529 18.6985 9.95889 19.9801 11.3917L20.3113 11.7805L20.7937 11.7085C22.8529 11.3773 24.9697 11.6365 26.7409 12.4501C27.2233 12.6733 27.9865 13.1197 28.0801 13.2277C28.1161 13.2637 28.1737 13.5085 28.2097 13.7461C28.3393 14.6173 28.2817 15.2725 28.0081 15.7693C27.8569 16.0501 27.8569 16.1221 27.9505 16.3669C28.0225 16.5541 28.2457 16.6837 28.4545 16.6837C28.9009 16.6837 29.3617 15.9781 29.5849 14.9917L29.6785 14.6029L29.8441 14.7901C30.7945 15.8485 31.5361 17.3173 31.6441 18.3541L31.6801 18.6349L31.5145 18.3901C31.2337 17.9653 30.9745 17.6845 30.6217 17.4397C29.9881 17.0149 29.3185 16.8853 27.5545 16.7917C25.9561 16.6981 25.0489 16.5685 24.1561 16.2733C22.6297 15.7693 21.8521 15.1213 20.0521 12.7237C19.2529 11.6653 18.7489 11.0893 18.2521 10.6069C17.1577 9.54849 16.0561 8.99409 14.6305 8.77089Z" fill="#FF007A"/>
<path d="M28.4691 11.1261C28.5051 10.4205 28.5987 9.95254 28.8003 9.52774C28.8723 9.36214 28.9515 9.21094 28.9659 9.21094C28.9875 9.21094 28.9443 9.34054 28.8939 9.49174C28.7427 9.90214 28.7283 10.4781 28.8219 11.1261C28.9515 11.9613 29.0091 12.0765 29.9019 12.9837C30.3123 13.4085 30.7947 13.9485 30.9819 14.1717L31.2988 14.5821L30.9819 14.2869C30.5931 13.9125 29.7004 13.2069 29.4988 13.1133C29.3692 13.0413 29.3475 13.0413 29.2539 13.1349C29.1819 13.2069 29.1603 13.3221 29.1603 13.8621C29.1387 14.6973 29.0307 15.2157 28.7499 15.7557C28.5987 16.0365 28.5843 15.9789 28.7139 15.6621C28.8075 15.4173 28.8219 15.3093 28.8219 14.5101C28.8219 12.8973 28.6347 12.5013 27.5043 11.8533C27.2235 11.6877 26.7411 11.4429 26.4675 11.3133C26.1723 11.1837 25.9491 11.0685 25.9635 11.0685C25.9995 11.0325 27.0939 11.3493 27.5259 11.5293C28.1739 11.7885 28.2891 11.8101 28.3611 11.7885C28.4115 11.7453 28.4475 11.5941 28.4691 11.1261Z" fill="#FF007A"/>
<path d="M15.3932 13.8985C14.6156 12.8185 14.1116 11.1481 14.2196 9.90247L14.2556 9.51367L14.4428 9.54967C14.774 9.60727 15.35 9.83047 15.6308 9.99607C16.3724 10.4425 16.7108 11.0545 17.0204 12.5809C17.114 13.0273 17.2436 13.5457 17.3012 13.7113C17.3948 13.9921 17.7476 14.6401 18.0428 15.0505C18.2444 15.3457 18.1148 15.4969 17.654 15.4609C16.9484 15.3817 16.0052 14.7337 15.3932 13.8985Z" fill="#FF007A"/>
<path d="M27.5182 21.9761C23.839 20.4929 22.543 19.2113 22.543 17.0369C22.543 16.7201 22.5646 16.4609 22.5646 16.4609C22.5862 16.4609 22.7158 16.5689 22.8814 16.7057C23.623 17.3033 24.4582 17.5625 26.7838 17.8937C28.1374 18.0953 28.9222 18.2465 29.6278 18.4913C31.8742 19.2329 33.271 20.7593 33.6022 22.8185C33.6958 23.4161 33.6382 24.5465 33.4942 25.1369C33.3646 25.5977 32.9902 26.4545 32.8966 26.4761C32.875 26.4761 32.839 26.3825 32.839 26.2313C32.803 25.4537 32.4142 24.7049 31.759 24.1289C30.9742 23.4665 29.9734 22.9625 27.5182 21.9761Z" fill="#FF007A"/>
<path d="M24.9195 22.5877C24.8835 22.3069 24.7899 21.9541 24.7323 21.8101L24.6387 21.5293L24.8043 21.7309C25.0491 22.0117 25.2291 22.3429 25.4019 22.8109C25.5315 23.1637 25.5315 23.2717 25.5315 23.8477C25.5315 24.4021 25.5099 24.5317 25.4019 24.8485C25.2147 25.3525 24.9915 25.7053 24.6243 26.0941C23.9547 26.7781 23.0835 27.1525 21.8379 27.3181C21.6147 27.3397 20.9811 27.3901 20.4267 27.4261C19.0371 27.4981 18.1083 27.6493 17.2659 27.9445C17.1579 27.9805 17.0427 28.0165 17.0211 28.0021C16.9851 27.9661 17.5611 27.6277 18.0219 27.4045C18.6699 27.0877 19.3395 26.9221 20.8083 26.6629C21.5355 26.5549 22.2771 26.4037 22.4643 26.3317C24.3075 25.7629 25.2147 24.3373 24.9195 22.5877Z" fill="#FF007A"/>
<path d="M26.611 25.5835C26.1286 24.5251 26.0133 23.5243 26.2797 22.5739C26.3157 22.4803 26.3517 22.3867 26.3877 22.3867C26.4237 22.3867 26.539 22.4443 26.647 22.5163C26.8702 22.6675 27.331 22.9267 28.5262 23.5747C30.031 24.3955 30.8878 25.0219 31.4782 25.7491C31.9966 26.3827 32.3133 27.1027 32.4646 27.9955C32.5581 28.4995 32.5006 29.7019 32.371 30.2059C31.9606 31.7827 31.0318 33.0499 29.6782 33.7699C29.4766 33.8779 29.3037 33.9571 29.2893 33.9571C29.2749 33.9571 29.347 33.7699 29.455 33.5467C29.9014 32.5963 29.9589 31.6891 29.6205 30.6667C29.4189 30.0331 28.9869 29.2771 28.1373 27.9883C27.1077 26.5123 26.8702 26.1163 26.611 25.5835Z" fill="#FF007A"/>
<path d="M12.7726 31.2642C14.1478 30.1122 15.8398 29.2986 17.395 29.0322C18.0646 28.9242 19.1806 28.9602 19.7926 29.1258C20.779 29.385 21.6718 29.9466 22.1326 30.6306C22.579 31.3002 22.7806 31.8762 22.9894 33.1578C23.0614 33.6618 23.155 34.1802 23.1766 34.2882C23.3278 34.9578 23.623 35.4762 23.9974 35.757C24.5734 36.1818 25.5742 36.2034 26.5606 35.829C26.7262 35.7714 26.8774 35.721 26.8774 35.7354C26.9134 35.7714 26.4166 36.1098 26.0782 36.2754C25.6174 36.5202 25.243 36.5922 24.739 36.5922C23.8462 36.5922 23.083 36.1314 22.471 35.2026C22.3414 35.0154 22.0822 34.4754 21.859 33.9786C21.211 32.4738 20.8726 32.0274 20.1094 31.5234C19.4398 31.0986 18.583 31.005 17.935 31.3218C17.0782 31.7322 16.855 32.8266 17.4526 33.4962C17.6974 33.777 18.1366 34.0002 18.511 34.0506C19.195 34.1442 19.7926 33.6042 19.7926 32.9202C19.7926 32.4738 19.627 32.2146 19.1806 32.013C18.583 31.7538 17.935 32.049 17.9566 32.625C17.9566 32.8698 18.0646 33.0138 18.3094 33.129C18.4606 33.201 18.4606 33.201 18.3454 33.1866C17.8054 33.0786 17.6758 32.409 18.1006 31.977C18.619 31.4586 19.7134 31.6818 20.0878 32.4018C20.239 32.697 20.2534 33.2946 20.1238 33.6618C19.807 34.4826 18.9142 34.9074 18.007 34.6626C17.395 34.497 17.1358 34.3314 16.3942 33.5682C15.091 32.229 14.5942 31.9698 12.7366 31.689L12.3838 31.6314L12.7726 31.2642Z" fill="#FF007A"/>
<path fill-rule="evenodd" clip-rule="evenodd" d="M3.00285 1.37732C7.33005 6.63332 13.9973 14.8053 14.3357 15.2517C14.6165 15.6261 14.5013 15.9789 14.0405 16.2381C13.7813 16.3893 13.2413 16.5333 12.9821 16.5333C12.6869 16.5333 12.3341 16.3821 12.0893 16.1445C11.9237 15.9789 11.1965 14.9205 9.56205 12.3717C8.31645 10.4205 7.25805 8.80772 7.24365 8.78612C7.17165 8.75012 7.17165 8.75012 9.43245 12.7965C10.8653 15.3381 11.3261 16.2525 11.3261 16.3605C11.3261 16.6053 11.2541 16.7349 10.9517 17.0661C10.4477 17.6205 10.2245 18.2541 10.0589 19.5717C9.87165 21.0405 9.37485 22.0773 7.94205 23.8413C7.10685 24.8781 6.97725 25.0653 6.76845 25.4973C6.50925 26.0157 6.43725 26.3181 6.39405 26.9805C6.35805 27.6861 6.43005 28.1325 6.63885 28.8021C6.82605 29.3997 7.02765 29.7885 7.53165 30.5517C7.95645 31.2213 8.21565 31.7253 8.21565 31.9053C8.21565 32.0565 8.25165 32.0565 8.92125 31.9053C10.5197 31.5309 11.8373 30.9045 12.5645 30.1197C13.0109 29.6373 13.1189 29.3781 13.1189 28.7085C13.1189 28.2837 13.0973 28.1901 12.9893 27.9309C12.8021 27.5205 12.4493 27.1893 11.6861 26.6709C10.6853 25.9869 10.2533 25.4253 10.1453 24.6837C10.0517 24.0501 10.1669 23.6253 10.7213 22.4517C11.2973 21.2421 11.4485 20.7453 11.5421 19.5141C11.5997 18.7365 11.6933 18.4197 11.9165 18.1749C12.1613 17.9157 12.3629 17.8221 12.9389 17.7501C13.8893 17.6205 14.5013 17.3757 14.9837 16.9149C15.4085 16.5261 15.5957 16.1373 15.6173 15.5613L15.6389 15.1365L15.3941 14.8773C14.5157 13.8765 2.42685 0.578125 2.36925 0.578125C2.34765 0.578125 2.65005 0.930925 3.00285 1.37732ZM8.70525 27.7941C8.90685 27.4413 8.79885 26.9949 8.46045 26.7717C8.14365 26.5701 7.66125 26.6637 7.66125 26.9373C7.66125 27.0093 7.69725 27.0885 7.81245 27.1245C7.97805 27.2181 7.99965 27.3117 7.87005 27.5133C7.74045 27.7149 7.74045 27.9021 7.90605 28.0317C8.16525 28.2405 8.51805 28.1253 8.70525 27.7941Z" fill="#FF007A"/>
<path fill-rule="evenodd" clip-rule="evenodd" d="M16.2288 18.0241C15.7824 18.1537 15.3576 18.6361 15.228 19.1185C15.156 19.4137 15.192 19.9537 15.3216 20.1193C15.5232 20.3785 15.7104 20.4505 16.2288 20.4505C17.2512 20.4505 18.1224 20.0041 18.216 19.4641C18.3096 19.0177 17.9208 18.4057 17.3808 18.1249C17.1 17.9809 16.524 17.9305 16.2288 18.0241ZM17.4168 18.9529C17.568 18.7297 17.5104 18.4921 17.2296 18.3193C16.7256 18.0025 15.9696 18.2617 15.9696 18.7441C15.9696 18.9889 16.3584 19.2481 16.7328 19.2481C16.9704 19.2481 17.3016 19.0969 17.4168 18.9529Z" fill="#FF007A"/>
</g>
<defs>
<clipPath id="clip0_1_15371">
<rect width="36" height="36" fill="white" transform="translate(0 0.578125)"/>
</clipPath>
</defs>
</svg>
