<svg width="36" height="37" viewBox="0 0 36 37" fill="none" xmlns="http://www.w3.org/2000/svg">
<g clip-path="url(#clip0_1_15329)">
<path d="M26.5244 9.31836C26.5892 9.31836 26.6036 9.35436 26.5604 9.39756L23.954 12.0112C23.8964 12.0688 23.8028 12.0688 23.7452 12.0112L23.2628 11.5288C23.1332 11.3992 22.9532 11.3272 22.766 11.3272C22.766 11.3272 21.4916 11.3272 21.0812 11.32C21.038 11.32 21.0164 11.2624 21.0524 11.2408C22.5212 9.98076 24.566 9.33276 26.5244 9.31836Z" fill="#7E6CFF"/>
<path d="M15.4868 24.6478H13.8524C13.6148 24.6478 13.3916 24.5542 13.226 24.3886L12.0668 23.2294C11.9012 23.0638 11.8076 22.8406 11.8076 22.603V20.9686C11.8076 20.731 11.9012 20.5078 12.0668 20.3422L13.226 19.183C13.3916 19.0174 13.6148 18.9238 13.8524 18.9238H15.4868C15.7244 18.9238 15.9476 19.0174 16.1132 19.183L17.2724 20.3422C17.438 20.5078 17.5316 20.731 17.5316 20.9686V22.603C17.5316 22.8406 17.438 23.0638 17.2724 23.2294L16.1132 24.3886C15.9476 24.5542 15.7244 24.6478 15.4868 24.6478Z" fill="#7E6CFF"/>
<path d="M7.43735 9.14545C7.48055 9.13825 7.52375 9.17425 7.52375 9.21745C7.50935 9.46225 7.49495 9.70705 7.49495 9.95905C7.49495 10.1103 7.50215 10.2687 7.50215 10.4199C7.50215 10.4847 7.48055 10.5495 7.43735 10.5927L0.107752 17.8503C0.0645516 17.8935 -0.0146484 17.8647 -0.0146484 17.7927C0.158152 13.5087 3.54935 9.95185 7.43735 9.14545Z" fill="#7E6CFF"/>
<path d="M7.63191 12.004C7.66791 11.968 7.73991 11.9824 7.74711 12.04C7.94871 13.0408 8.34471 13.9912 8.81271 14.8624C8.83431 14.8984 8.82711 14.9416 8.79831 14.9704L2.39031 21.3568C1.99431 21.7528 1.54071 22.2136 1.21671 22.5376C1.12311 22.6312 0.971911 22.6024 0.914311 22.4872C0.496711 21.616 0.215911 20.6728 0.0863109 19.6792C0.0791109 19.6072 0.100711 19.5352 0.151111 19.4848L7.63191 12.004Z" fill="#7E6CFF"/>
<path d="M10.6273 21.501C10.6705 21.4578 10.7425 21.4866 10.7425 21.5514V23.1498C10.7425 23.337 10.8145 23.517 10.9441 23.6466L11.3617 24.1362C11.3905 24.165 11.3905 24.2082 11.3977 24.201L7.99208 27.5202C7.89848 27.6066 7.82648 27.6354 7.75448 27.621C6.91208 27.477 6.11288 27.2178 5.36408 26.865C5.32088 26.8434 5.31368 26.7858 5.34248 26.7498L10.6273 21.501Z" fill="#7E6CFF"/>
<path d="M8.27246 22.2644L8.28686 22.25C8.27966 22.2572 8.27246 22.2644 8.27246 22.2644Z" fill="#7E6CFF"/>
<path d="M9.4894 27.7301C9.4246 27.7301 9.4102 27.6941 9.4534 27.6509L12.0598 25.0373C12.1174 24.9797 12.211 24.9797 12.2686 25.0373L12.751 25.5197C12.8806 25.6493 13.0606 25.7213 13.2478 25.7213C13.2478 25.7213 14.5222 25.7213 14.9326 25.7285C14.9758 25.7285 14.9974 25.7789 14.9614 25.8077C13.4998 27.0749 11.4478 27.7157 9.4894 27.7301Z" fill="#7E6CFF"/>
<path d="M1.7131 23.4963C2.4331 22.7763 5.8171 19.3923 6.5155 18.7011C6.5659 18.6507 6.6523 18.6795 6.6667 18.7515C6.7747 19.3491 7.0555 19.8963 7.4875 20.3355C7.9411 20.7891 8.5243 21.0843 9.1579 21.1779C9.2299 21.1923 9.2659 21.2715 9.2155 21.3291C8.5387 22.0059 5.3491 25.2027 4.3123 26.2395C4.2835 26.2395 4.2619 26.2467 4.2331 26.2467C3.2395 25.5987 2.3755 24.7635 1.6987 23.7987C1.6267 23.6979 1.6411 23.5755 1.7131 23.4963Z" fill="#7E6CFF"/>
<path d="M11.6426 16.0796V14.4452C11.6426 14.2076 11.7362 13.9844 11.9018 13.8188L13.061 12.6596C13.2266 12.494 13.4498 12.4004 13.6874 12.4004H15.3218C15.5594 12.4004 15.7826 12.494 15.9482 12.6596L17.1074 13.8188C17.273 13.9844 17.3666 14.2076 17.3666 14.4452V16.0796C17.3666 16.3172 17.273 16.5404 17.1074 16.706L15.9482 17.8652C15.7826 18.0308 15.5594 18.1244 15.3218 18.1244H13.6874C13.4498 18.1244 13.2266 18.0308 13.061 17.8652L11.9018 16.706C11.7362 16.5404 11.6426 16.3172 11.6426 16.0796Z" fill="#7E6CFF"/>
<path d="M27.1442 8.03012C27.1514 8.07332 27.1154 8.11652 27.0722 8.11652C26.8274 8.10212 26.5826 8.08772 26.3306 8.08772C26.1794 8.08772 26.021 8.09492 25.8698 8.09492C25.805 8.09492 25.7402 8.07332 25.697 8.03012L18.4466 0.700525C18.3962 0.650125 18.4322 0.578125 18.497 0.578125C22.781 0.743725 26.3378 4.13492 27.1442 8.03012Z" fill="#7E6CFF"/>
<path d="M24.2858 8.22468C24.3218 8.26068 24.3074 8.33268 24.2498 8.33988C23.249 8.54148 22.2986 8.93748 21.4274 9.40548C21.3914 9.42708 21.3482 9.41988 21.3194 9.39108L14.933 2.98308C14.5298 2.58708 14.0762 2.13348 13.7522 1.80948C13.6586 1.71588 13.6874 1.56468 13.8026 1.50708C14.6738 1.08948 15.617 0.808684 16.6106 0.679084C16.6826 0.671884 16.7546 0.693484 16.805 0.743884L24.2858 8.22468Z" fill="#7E6CFF"/>
<path d="M14.7891 11.2207C14.8323 11.2639 14.8035 11.3359 14.7387 11.3359H13.1403C12.9531 11.3359 12.7731 11.4079 12.6435 11.5447L12.1539 11.9623C12.1251 11.9911 12.0819 11.9911 12.0891 11.9983L8.76991 8.59266C8.67631 8.49906 8.65471 8.42706 8.66911 8.35506C8.81311 7.51266 9.07231 6.71346 9.42511 5.96466C9.44671 5.92146 9.50431 5.91426 9.54031 5.94306L14.7891 11.2207Z" fill="#7E6CFF"/>
<path d="M8.55371 10.0822C8.55371 10.0174 8.58971 10.003 8.63291 10.0462L11.2465 12.6526C11.3041 12.7102 11.3041 12.8038 11.2465 12.8614L10.7641 13.3438C10.6345 13.4734 10.5625 13.6534 10.5625 13.8406C10.5625 13.8406 10.5625 15.115 10.5553 15.5254C10.5553 15.5686 10.4977 15.5902 10.4761 15.5542C9.21611 14.0854 8.57531 12.0406 8.55371 10.0822Z" fill="#7E6CFF"/>
<path d="M18.9509 11.0827C18.6557 11.3779 18.2597 11.5435 17.8421 11.5435C17.4245 11.5435 17.0285 11.3779 16.7333 11.0827C16.4381 10.7875 16.2725 10.3915 16.2725 9.9739C16.2725 9.5563 16.4381 9.1603 16.7333 8.8651C17.0285 8.5699 17.4245 8.4043 17.8421 8.4043C18.2597 8.4043 18.6557 8.5699 18.9509 8.8651C19.2461 9.1603 19.4117 9.5563 19.4117 9.9739C19.4117 10.3843 19.2461 10.7875 18.9509 11.0827Z" fill="#7E6CFF"/>
<path d="M12.7943 2.30638C13.5143 3.02638 16.8983 6.41038 17.5895 7.10878C17.6399 7.15918 17.6111 7.24558 17.5391 7.25998C16.9415 7.36798 16.3943 7.64878 15.9551 8.08078C15.5015 8.53438 15.2063 9.11758 15.1127 9.75118C15.0983 9.82318 15.0191 9.85918 14.9615 9.80878C14.2847 9.13198 11.0879 5.94238 10.0511 4.90558C10.0511 4.87678 10.0439 4.85518 10.0439 4.82638C10.6919 3.83278 11.5271 2.96878 12.4919 2.29198C12.5927 2.21998 12.7151 2.22718 12.7943 2.30638Z" fill="#7E6CFF"/>
<path d="M10.4899 17.3397C10.7851 17.6349 10.9507 18.0309 10.9507 18.4485C10.9507 18.8661 10.7851 19.2621 10.4899 19.5573C10.1947 19.8525 9.79872 20.0181 9.38112 20.0181C8.96352 20.0181 8.56752 19.8525 8.27232 19.5573C7.97712 19.2621 7.81152 18.8661 7.81152 18.4485C7.81152 18.0309 7.97712 17.6349 8.27232 17.3397C8.56752 17.0445 8.96352 16.8789 9.38112 16.8789C9.79872 16.8789 10.1947 17.0445 10.4899 17.3397Z" fill="#7E6CFF"/>
<path d="M20.4979 12.4219H22.1323C22.3699 12.4219 22.5931 12.5155 22.7587 12.6811L23.9179 13.8403C24.0835 14.0059 24.1771 14.2291 24.1771 14.4667V16.1011C24.1771 16.3387 24.0835 16.5619 23.9179 16.7275L22.7587 17.8867C22.5931 18.0523 22.3699 18.1459 22.1323 18.1459H20.4979C20.2603 18.1459 20.0371 18.0523 19.8715 17.8867L18.7123 16.7275C18.5467 16.5619 18.4531 16.3387 18.4531 16.1011V14.4667C18.4531 14.2291 18.5467 14.0059 18.7123 13.8403L19.8715 12.6811C20.0371 12.5155 20.2603 12.4219 20.4979 12.4219Z" fill="#7E6CFF"/>
<path d="M28.5483 27.9232C28.5051 27.9304 28.4619 27.8944 28.4619 27.8512C28.4763 27.6064 28.4907 27.3616 28.4907 27.1096C28.4907 26.9584 28.4835 26.8 28.4835 26.6488C28.4835 26.584 28.5051 26.5192 28.5483 26.476L35.8779 19.2256C35.9211 19.1824 36.0003 19.2112 36.0003 19.276C35.8347 23.56 32.4435 27.1168 28.5483 27.9232Z" fill="#7E6CFF"/>
<path d="M28.3535 25.066C28.3175 25.102 28.2455 25.0876 28.2383 25.03C28.0367 24.0292 27.6407 23.0788 27.1727 22.2076C27.1511 22.1716 27.1583 22.1284 27.1871 22.0996L33.5951 15.7132C33.9911 15.3172 34.4447 14.8564 34.7687 14.5324C34.8623 14.4388 35.0135 14.4676 35.0711 14.5828C35.4887 15.454 35.7695 16.3972 35.8991 17.3908C35.9063 17.4628 35.8847 17.5348 35.8343 17.5852L28.3535 25.066Z" fill="#7E6CFF"/>
<path d="M25.3587 15.5688C25.3155 15.612 25.2435 15.5832 25.2435 15.5184V13.92C25.2435 13.7328 25.1715 13.5528 25.0347 13.4232L24.6171 12.9336C24.5883 12.9048 24.5883 12.8616 24.5811 12.8688L27.9867 9.54965C28.0803 9.46325 28.1523 9.43445 28.2243 9.44885C29.0667 9.59285 29.8659 9.85205 30.6147 10.2048C30.6579 10.2264 30.6651 10.284 30.6363 10.32L25.3587 15.5688Z" fill="#7E6CFF"/>
<path d="M27.7205 14.8047L27.7061 14.8191C27.7133 14.8119 27.7205 14.8047 27.7205 14.8047Z" fill="#7E6CFF"/>
<path d="M26.496 9.33984C26.5608 9.33984 26.5752 9.37584 26.532 9.41904L23.9256 12.0254C23.868 12.083 23.7744 12.083 23.7168 12.0254L23.2344 11.543C23.1048 11.4134 22.9248 11.3414 22.7376 11.3414C22.7376 11.3414 21.4632 11.3414 21.0528 11.3342C21.0096 11.3342 20.988 11.2838 21.024 11.255C22.4928 9.99504 24.5376 9.35424 26.496 9.33984Z" fill="#7E6CFF"/>
<path d="M34.2724 13.5746C33.5524 14.2946 30.1684 17.6786 29.47 18.3698C29.4196 18.4202 29.3332 18.3914 29.3188 18.3194C29.2108 17.7218 28.93 17.1746 28.4908 16.7354C28.0372 16.2818 27.454 15.9866 26.8204 15.893C26.7484 15.8786 26.7124 15.7994 26.7628 15.7418C27.4396 15.065 30.6292 11.8682 31.666 10.8314C31.6948 10.8314 31.7164 10.8242 31.7452 10.8242C32.7388 11.4722 33.6028 12.3074 34.2796 13.2722C34.3588 13.373 34.3516 13.4954 34.2724 13.5746Z" fill="#7E6CFF"/>
<path d="M24.3431 20.9907V22.6251C24.3431 22.8627 24.2495 23.0859 24.0839 23.2515L22.9247 24.4107C22.7591 24.5763 22.5359 24.6699 22.2983 24.6699H20.6639C20.4263 24.6699 20.2031 24.5763 20.0375 24.4107L18.8783 23.2587C18.7127 23.0931 18.6191 22.8699 18.6191 22.6323V20.9979C18.6191 20.7603 18.7127 20.5371 18.8783 20.3715L20.0375 19.2123C20.2031 19.0467 20.4263 18.9531 20.6639 18.9531H22.2983C22.5359 18.9531 22.7591 19.0467 22.9247 19.2123L24.0839 20.3715C24.2567 20.5371 24.3431 20.7531 24.3431 20.9907Z" fill="#7E6CFF"/>
<path d="M8.84858 29.0395C8.84138 28.9963 8.87738 28.9531 8.92058 28.9531C9.16538 28.9675 9.41018 28.9819 9.66218 28.9819C9.81338 28.9819 9.97178 28.9747 10.123 28.9675C10.1878 28.9675 10.2526 28.9891 10.2958 29.0323L17.5462 36.3691C17.5894 36.4123 17.5534 36.4915 17.4958 36.4915C13.2046 36.3259 9.65498 32.9347 8.84858 29.0395Z" fill="#7E6CFF"/>
<path d="M11.7071 28.8457C11.6711 28.8097 11.6855 28.7377 11.7431 28.7305C12.7439 28.5289 13.6943 28.1329 14.5655 27.6649C14.6015 27.6433 14.6447 27.6505 14.6735 27.6793L21.0599 34.0873C21.4559 34.4833 21.9167 34.9369 22.2407 35.2609C22.3343 35.3545 22.3055 35.5057 22.1903 35.5633C21.3191 35.9809 20.3759 36.2617 19.3823 36.3913C19.3103 36.3985 19.2383 36.3769 19.1879 36.3265L11.7071 28.8457Z" fill="#7E6CFF"/>
<path d="M21.2041 25.8499C21.1609 25.8067 21.1897 25.7347 21.2545 25.7347H22.8529C23.0401 25.7347 23.2201 25.6627 23.3497 25.5259L23.8393 25.1083C23.8681 25.0795 23.9113 25.0795 23.9041 25.0723L27.2233 28.4779C27.3169 28.5715 27.3385 28.6435 27.3241 28.7155C27.1801 29.5579 26.9209 30.3571 26.5681 31.1059C26.5465 31.1491 26.4889 31.1563 26.4529 31.1275L21.2041 25.8499Z" fill="#7E6CFF"/>
<path d="M27.4323 26.9882C27.4323 27.053 27.3963 27.0674 27.3531 27.0242L24.7395 24.4178C24.6819 24.3602 24.6819 24.2666 24.7395 24.209L25.2219 23.7266C25.3515 23.597 25.4235 23.417 25.4235 23.2298C25.4235 23.2298 25.4235 21.9482 25.4307 21.545C25.4307 21.5018 25.4883 21.4802 25.5099 21.5162C26.7699 22.985 27.4179 25.037 27.4323 26.9882Z" fill="#7E6CFF"/>
<path d="M17.035 25.994C17.3302 25.6988 17.7262 25.5332 18.1438 25.5332C18.5614 25.5332 18.9574 25.6988 19.2526 25.994C19.5478 26.2892 19.7134 26.6852 19.7134 27.1028C19.7134 27.5204 19.5478 27.9164 19.2526 28.2116C18.9574 28.5068 18.5614 28.6724 18.1438 28.6724C17.7262 28.6724 17.3302 28.5068 17.035 28.2116C16.7398 27.9164 16.5742 27.5204 16.5742 27.1028C16.5742 26.6852 16.7398 26.282 17.035 25.994Z" fill="#7E6CFF"/>
<path d="M23.1985 34.7642C22.4785 34.0442 19.0945 30.6602 18.4033 29.9618C18.3529 29.9114 18.3817 29.825 18.4537 29.8106C19.0513 29.7026 19.5985 29.4218 20.0377 28.9898C20.4913 28.5362 20.7865 27.953 20.8801 27.3194C20.8945 27.2474 20.9737 27.2114 21.0313 27.2618C21.7081 27.9386 24.9049 31.1282 25.9417 32.165C25.9417 32.1938 25.9489 32.2154 25.9489 32.2442C25.3009 33.2378 24.4657 34.1018 23.5009 34.7786C23.4001 34.8578 23.2777 34.8434 23.1985 34.7642Z" fill="#7E6CFF"/>
<path d="M25.495 19.737C25.1998 19.4418 25.0342 19.0458 25.0342 18.6282C25.0342 18.2106 25.1998 17.8146 25.495 17.5194C25.7902 17.2242 26.1862 17.0586 26.6038 17.0586C27.0214 17.0586 27.4174 17.2242 27.7126 17.5194C28.0078 17.8146 28.1734 18.2106 28.1734 18.6282C28.1734 19.0458 28.0078 19.4418 27.7126 19.737C27.4174 20.0322 27.0214 20.1978 26.6038 20.1978C26.1934 20.1906 25.7902 20.0322 25.495 19.737Z" fill="#7E6CFF"/>
</g>
<defs>
<clipPath id="clip0_1_15329">
<rect width="36" height="36" fill="white" transform="translate(0 0.578125)"/>
</clipPath>
</defs>
</svg>
