<svg width="36" height="37" viewBox="0 0 36 37" fill="none" xmlns="http://www.w3.org/2000/svg">
<g clip-path="url(#clip0_1_15328)">
<path d="M18 0.578125C2.16 0.578125 0 2.73812 0 18.5781C0 34.4181 2.16 36.5781 18 36.5781C33.84 36.5781 36 34.4181 36 18.5781C36 2.73812 33.84 0.578125 18 0.578125ZM16.2 11.3781H19.8V18.5781C19.8 19.2981 19.62 19.7445 19.3536 20.0181C19.08 20.3781 18.6336 20.5581 18 20.5581C17.3664 20.5581 17.0064 20.3781 16.6464 20.0181C16.38 19.7445 16.2 19.2981 16.2 18.5781V11.3781ZM27 18.7581C27 21.3645 26.1936 23.7045 24.48 25.4181C22.7664 27.0381 20.6136 27.8517 18 27.8517C15.3864 27.8517 13.2336 27.1317 11.52 25.4181C9.8064 23.6181 9 21.2781 9 18.7581V11.3781H12.6V18.7581C12.6 20.6445 13.14 21.9045 14.04 22.7181C14.94 23.6181 16.2 24.0717 18 24.0717C19.8864 24.0717 21.06 23.5317 21.96 22.7181C22.86 21.8181 23.4 20.5581 23.4 18.6717V11.3781H27V18.7581Z" fill="#7A51D1"/>
</g>
<defs>
<clipPath id="clip0_1_15328">
<rect width="36" height="36" fill="white" transform="translate(0 0.578125)"/>
</clipPath>
</defs>
</svg>
