<svg width="36" height="37" viewBox="0 0 36 37" fill="none" xmlns="http://www.w3.org/2000/svg">
<path fill-rule="evenodd" clip-rule="evenodd" d="M30.658 19.975L25.8268 28.3414C26.014 28.7446 26.05 29.1694 25.9132 29.6014C25.7332 30.1774 25.2724 30.6526 24.6892 30.811C23.9188 31.0198 23.1556 30.7246 22.7308 30.1126H13.2988C12.8524 30.7462 12.0604 31.0342 11.2684 30.7894C10.6924 30.6094 10.246 30.1198 10.0948 29.5438C9.98676 29.1478 10.0156 28.7662 10.174 28.399L5.30676 19.9894C4.42116 19.867 3.74436 19.111 3.74436 18.211C3.74436 17.2534 4.49316 16.4614 5.44356 16.411L10.1524 8.25341C10.0732 8.03741 10.0228 7.81421 10.0228 7.59821C10.0228 6.60461 10.8292 5.79821 11.83 5.79821C12.3988 5.79821 12.9244 6.06461 13.2628 6.51101H22.7524C23.0908 6.06461 23.6164 5.79821 24.1852 5.79821C25.1788 5.79821 25.9852 6.61181 25.9852 7.59821C25.9852 7.83581 25.9276 8.08061 25.834 8.30381L30.514 16.411C31.4356 16.4902 32.1628 17.275 32.1628 18.2038C32.17 19.0966 31.522 19.8382 30.658 19.975ZM35.2948 16.6918L28.0516 4.15661C27.4612 3.13421 26.374 2.50781 25.2004 2.50781H10.714C9.54036 2.50781 8.44596 3.13421 7.85556 4.15661L0.619558 16.6918C0.0291578 17.7142 0.0291578 18.967 0.619558 19.9894L7.86276 32.5246C8.45316 33.547 9.54036 34.1734 10.7212 34.1734H25.2004C26.3812 34.1734 27.4684 33.547 28.0516 32.5246L35.2948 19.9894C35.8852 18.967 35.8852 17.7142 35.2948 16.6918Z" fill="#21A0B4"/>
<path fill-rule="evenodd" clip-rule="evenodd" d="M29.0812 16.9586L26.0356 11.6882L14.6884 18.0458C14.6884 18.0602 14.6884 18.0674 14.6884 18.0818C14.6884 19.0754 13.882 19.889 12.8884 19.889C11.8948 19.889 11.0884 19.0826 11.0884 18.0818C11.0884 17.0882 11.8948 16.2818 12.8884 16.2818C13.306 16.2818 13.702 16.4258 14.0188 16.685L25.2724 10.3634L24.6748 9.32664C24.5164 9.36984 24.3508 9.39864 24.1852 9.39864C23.35 9.39864 22.6372 8.82264 22.4428 8.02344H13.5724C13.378 8.82264 12.658 9.39864 11.83 9.39864C11.65 9.39864 11.4628 9.36984 11.29 9.31224L6.86204 16.9802C7.17884 17.3186 7.35164 17.7506 7.35164 18.2042C7.35164 18.701 7.15004 19.1618 6.79004 19.5002L10.174 25.361L21.7732 18.6506C21.766 18.6002 21.766 18.5426 21.766 18.4922C21.766 17.4986 22.5796 16.6922 23.566 16.6922C24.5596 16.6922 25.366 17.4986 25.366 18.4922C25.366 19.4858 24.5596 20.2922 23.566 20.2922C23.1916 20.2922 22.8388 20.177 22.5364 19.961L10.9228 26.6786L11.3116 27.3554C11.4772 27.305 11.65 27.2834 11.83 27.2834C12.6508 27.2834 13.3492 27.8306 13.5652 28.601H22.4572C22.7092 27.6794 23.6884 27.0746 24.6532 27.341L29.1604 19.5362C28.786 19.1978 28.57 18.7154 28.57 18.2114C28.5628 17.7362 28.75 17.2898 29.0812 16.9586Z" fill="#21A0B4"/>
</svg>
