<svg width="36" height="37" viewBox="0 0 36 37" fill="none" xmlns="http://www.w3.org/2000/svg">
<g clip-path="url(#clip0_1_15327)">
<path d="M17.9997 36.4564C27.8732 36.4564 35.8773 28.4523 35.8773 18.5788C35.8773 8.70525 27.8732 0.701172 17.9997 0.701172C8.12614 0.701172 0.12207 8.70525 0.12207 18.5788C0.12207 28.4523 8.12614 36.4564 17.9997 36.4564Z" fill="#2775CA"/>
<path d="M14.6449 31.0119C14.6449 31.4295 14.3066 31.6671 13.9178 31.5447C8.50335 29.8095 4.59375 24.7479 4.59375 18.7575C4.59375 12.7815 8.50335 7.71267 13.9249 5.97747C14.3281 5.85507 14.6522 6.09267 14.6522 6.51027V7.55427C14.6522 7.83507 14.4433 8.15187 14.1769 8.25267C9.88575 9.82947 6.83295 13.9479 6.83295 18.7575C6.83295 23.5743 9.89295 27.6855 14.1769 29.2479C14.4433 29.3487 14.6522 29.6655 14.6522 29.9463V31.0119H14.6449Z" fill="white"/>
<path d="M19.1163 27.1383C19.1163 27.4479 18.8643 27.6999 18.5547 27.6999H17.4387C17.1291 27.6999 16.8771 27.4479 16.8771 27.1383V25.3815C14.4363 25.0431 13.2483 23.6895 12.9243 21.8175C12.8667 21.4935 13.1187 21.2199 13.4427 21.2199H14.7171C14.9835 21.2199 15.2067 21.4143 15.2643 21.6663C15.5019 22.7679 16.1427 23.6247 18.1011 23.6247C19.5411 23.6247 20.5707 22.8111 20.5707 21.6159C20.5707 20.4135 19.9731 19.9527 17.8491 19.6071C14.7171 19.1895 13.2411 18.2391 13.2411 15.7911C13.2411 13.9047 14.6811 12.4215 16.8843 12.1191V10.3839C16.8843 10.0743 17.1363 9.82227 17.4459 9.82227H18.5619C18.8715 9.82227 19.1235 10.0743 19.1235 10.3839V12.1551C20.9235 12.4791 22.0683 13.4943 22.4499 15.2007C22.5219 15.5247 22.2699 15.8127 21.9315 15.8127H20.7579C20.5059 15.8127 20.2971 15.6471 20.2251 15.4095C19.9011 14.3367 19.1379 13.8615 17.7915 13.8615C16.3083 13.8615 15.5451 14.5743 15.5451 15.5823C15.5451 16.6407 15.9771 17.1735 18.2523 17.4975C21.3267 17.9151 22.9179 18.7935 22.9179 21.4071C22.9179 23.3871 21.4347 24.9999 19.1307 25.3599V27.1455H19.1163V27.1383Z" fill="white"/>
<path d="M22.0749 31.538C21.6717 31.6604 21.3477 31.4228 21.3477 31.0052V29.9612C21.3477 29.6516 21.5277 29.3636 21.8229 29.2628C26.0997 27.7004 29.1669 23.5748 29.1669 18.7724C29.1669 13.9556 26.1069 9.84437 21.8229 8.28197C21.5565 8.18117 21.3477 7.86437 21.3477 7.58357V6.53957C21.3477 6.12197 21.6861 5.88437 22.0749 6.00677C27.4965 7.71317 31.4061 12.782 31.4061 18.758C31.4061 24.7484 27.4965 29.81 22.0749 31.538Z" fill="white"/>
</g>
<defs>
<clipPath id="clip0_1_15327">
<rect width="36" height="36" fill="white" transform="translate(0 0.578125)"/>
</clipPath>
</defs>
</svg>
