<svg width="36" height="37" viewBox="0 0 36 37" fill="none" xmlns="http://www.w3.org/2000/svg">
<g clip-path="url(#clip0_1_15326)">
<path d="M18 36.5781C27.9411 36.5781 36 28.5192 36 18.5781C36 8.637 27.9411 0.578125 18 0.578125C8.05887 0.578125 0 8.637 0 18.5781C0 28.5192 8.05887 36.5781 18 36.5781Z" fill="url(#paint0_radial_1_15326)"/>
<path d="M16.265 10.0461C16.265 8.5917 16.265 5.8629 16.265 5.8629L19.6994 5.8125L19.7498 10.0173H26.3234C26.3234 10.0173 26.3234 11.8101 26.3234 12.7389C24.1274 12.7389 21.9602 12.7389 19.7498 12.7389C19.7498 14.2509 19.7498 15.6981 19.7498 17.2245C20.225 17.2245 20.693 17.1885 21.1466 17.2317C21.8882 17.2965 22.6442 17.3325 23.357 17.5341C25.157 18.0381 26.3954 19.1757 26.7626 21.0477C27.0506 22.5309 26.8706 23.9637 25.9058 25.2021C25.1282 26.2101 24.0482 26.7429 22.8242 26.9733C22.205 27.0885 21.557 27.1101 20.9234 27.1533C20.5562 27.1749 20.1818 27.1605 19.721 27.1605C19.6706 28.5933 19.7282 29.9973 19.685 31.4301C18.5402 31.4301 17.4458 31.4301 16.265 31.4301C16.265 30.0189 16.265 28.6221 16.265 27.1749C14.0042 27.1749 11.8298 27.1749 9.62656 27.1749C9.62656 26.2533 9.62656 25.3749 9.62656 24.4389C11.8226 24.4389 13.9898 24.4389 16.2434 24.4389C16.2794 22.9269 16.2578 19.9173 16.2578 19.9173L15.581 19.9389C15.581 19.9389 13.7162 19.9749 12.8018 19.7229C11.0522 19.2405 9.72016 18.2541 9.27376 16.4325C8.79856 14.4885 9.10096 12.6813 10.721 11.3061C11.729 10.4493 12.9674 10.1325 14.2706 10.0605C14.897 10.0245 15.5378 10.0461 16.265 10.0461ZM19.7282 19.9173C19.7138 19.0317 19.7066 18.1461 19.6922 17.2173C18.497 17.2173 17.381 17.2173 16.2722 17.2173C16.2722 15.7413 16.2938 14.2581 16.265 12.7965C15.4514 12.6741 14.5082 12.7389 13.925 12.9405C13.4066 13.1205 12.989 13.4229 12.7442 13.9269C12.0746 15.3093 12.7802 16.8357 14.2922 17.1237C14.9402 17.2461 15.617 17.1885 16.2866 17.2101C16.2866 18.0957 16.2866 18.9885 16.2866 19.9101C17.4602 19.9101 18.5978 19.9101 19.7282 19.9173C19.7354 21.3933 19.7354 22.8693 19.7354 24.3813C20.5922 24.4245 21.3914 24.4821 22.1618 24.1797C22.781 23.9349 23.2058 23.4885 23.3282 22.8333C23.6018 21.3429 23.0546 20.2269 21.3914 20.0037C20.8442 19.9317 20.2826 19.9461 19.7282 19.9173Z" fill="white"/>
<path d="M16.2791 17.2106C15.6167 17.189 14.9327 17.2466 14.2847 17.1242C12.7799 16.8362 12.0671 15.3098 12.7367 13.9274C12.9815 13.4234 13.3919 13.1138 13.9175 12.941C14.5007 12.7394 15.4511 12.6818 16.2575 12.797C16.2863 14.2586 16.2719 15.7418 16.2647 17.2178L16.2791 17.2106Z" fill="url(#paint1_radial_1_15326)"/>
<path d="M19.7275 19.918C20.2819 19.9468 20.8435 19.9324 21.3979 20.0044C23.0611 20.2276 23.6083 21.3436 23.3347 22.834C23.2123 23.4892 22.7875 23.9356 22.1683 24.1804C21.3979 24.4828 20.5915 24.4252 19.7419 24.382C19.7347 22.87 19.7347 21.394 19.7275 19.918Z" fill="url(#paint2_radial_1_15326)"/>
<path d="M16.2725 17.2181C17.3813 17.2181 18.4973 17.2181 19.6925 17.2181C19.7069 18.1469 19.7141 19.0325 19.7285 19.9181L19.7357 19.9109C18.5981 19.9109 17.4605 19.9109 16.2797 19.9109C16.2797 18.9821 16.2797 18.0965 16.2797 17.2109L16.2725 17.2181Z" fill="url(#paint3_radial_1_15326)"/>
</g>
<defs>
<radialGradient id="paint0_radial_1_15326" cx="0" cy="0" r="1" gradientUnits="userSpaceOnUse" gradientTransform="translate(31.0297 8.38339) scale(26.7907)">
<stop stop-color="#AAD65C"/>
<stop offset="0.6225" stop-color="#4B9E58"/>
<stop offset="1" stop-color="#205533"/>
</radialGradient>
<radialGradient id="paint1_radial_1_15326" cx="0" cy="0" r="1" gradientUnits="userSpaceOnUse" gradientTransform="translate(31.0297 8.38386) scale(26.7907 26.7907)">
<stop stop-color="#AAD65C"/>
<stop offset="0.6225" stop-color="#4B9E58"/>
<stop offset="1" stop-color="#205533"/>
</radialGradient>
<radialGradient id="paint2_radial_1_15326" cx="0" cy="0" r="1" gradientUnits="userSpaceOnUse" gradientTransform="translate(31.0293 8.38404) scale(26.7907 26.7907)">
<stop stop-color="#AAD65C"/>
<stop offset="0.6225" stop-color="#4B9E58"/>
<stop offset="1" stop-color="#205533"/>
</radialGradient>
<radialGradient id="paint3_radial_1_15326" cx="0" cy="0" r="1" gradientUnits="userSpaceOnUse" gradientTransform="translate(31.0302 8.3842) scale(26.7907 26.7907)">
<stop stop-color="#AAD65C"/>
<stop offset="0.6225" stop-color="#4B9E58"/>
<stop offset="1" stop-color="#205533"/>
</radialGradient>
<clipPath id="clip0_1_15326">
<rect width="36" height="36" fill="white" transform="translate(0 0.578125)"/>
</clipPath>
</defs>
</svg>
