<svg width="36" height="37" viewBox="0 0 36 37" fill="none" xmlns="http://www.w3.org/2000/svg">
<g clip-path="url(#clip0_1_15935)">
<path d="M18.9763 24.753C18.9763 25.2051 18.9727 25.6199 18.9777 26.0339C18.9813 26.3535 18.8344 26.4882 18.5112 26.517C17.2224 26.6322 17.1763 26.5976 17.1345 25.316C17.1288 25.1396 17.1007 24.9647 17.0798 24.7623C16.7421 24.704 16.4304 24.6615 16.1236 24.596C14.6462 24.2792 13.6418 22.7471 13.9723 21.284C14.0061 21.1335 14.2084 20.9255 14.3474 20.9125C14.8622 20.8657 15.3835 20.8823 15.9026 20.8895C16.2028 20.8938 16.3274 21.0896 16.3159 21.3668C16.272 22.431 16.8235 22.67 17.7508 22.6542C18.1288 22.6477 18.5097 22.6405 18.8834 22.5923C19.3622 22.5296 19.602 22.2157 19.6747 21.7463C19.8648 20.5302 19.5184 20.0507 18.2851 19.8699C17.7127 19.7864 17.1345 19.7403 16.5628 19.6525C14.801 19.3832 13.9694 18.4436 13.9327 16.6566C13.9204 16.0597 13.9075 15.4513 14.0076 14.8667C14.2207 13.6189 14.9882 12.9054 16.2331 12.6851C16.4851 12.6404 16.7385 12.5994 17.0776 12.5418C17.0776 12.1379 17.0856 11.744 17.0755 11.3509C17.064 10.9203 17.2605 10.7447 17.6911 10.7461C19.1642 10.7497 19 10.6842 19.008 11.9543C19.0094 12.1487 19.0296 12.3438 19.0411 12.5475C19.2614 12.5922 19.4342 12.6347 19.6099 12.6613C21.4646 12.9435 22.0312 14.606 21.929 16.041C21.9081 16.3347 21.7238 16.4535 21.443 16.4521C20.9642 16.4507 20.4847 16.4492 20.0059 16.4514C19.679 16.4528 19.5696 16.28 19.535 15.9675C19.4119 14.8638 19.2528 14.7299 18.1483 14.7169C17.8891 14.714 17.6284 14.7104 17.37 14.727C16.6485 14.7738 16.3879 15.0373 16.3281 15.7717C16.3152 15.9308 16.3152 16.0907 16.3152 16.2505C16.3173 16.9957 16.596 17.3442 17.344 17.4695C17.8156 17.5487 18.3002 17.5487 18.7711 17.6307C19.3572 17.733 19.9576 17.823 20.5106 18.0282C21.3343 18.3335 21.8793 18.9649 21.9715 19.8491C22.0579 20.6771 22.114 21.5281 22.0168 22.3496C21.8656 23.6298 21.0261 24.4074 19.7524 24.6443C19.5386 24.6839 19.3204 24.7047 18.9763 24.753Z" fill="url(#paint0_linear_1_15935)"/>
<path d="M4.37592 14.7448C6.04776 8.7926 11.514 4.42868 17.9998 4.42868C24.4855 4.42868 29.9518 8.7926 31.6236 14.7448H35.5894C33.8318 6.64556 26.6254 0.578125 17.9998 0.578125C9.37416 0.578125 2.16768 6.64556 0.410156 14.7448H4.37592Z" fill="url(#paint1_linear_1_15935)"/>
<path d="M32.1492 18.5775C32.1492 19.1045 32.1196 19.6251 32.0635 20.1377H35.932C35.976 19.6236 36.0004 19.1031 36.0004 18.5775C36.0004 18.0648 35.9781 17.5572 35.9356 17.0547H32.0685C32.1211 17.5551 32.1492 18.0627 32.1492 18.5775Z" fill="url(#paint2_linear_1_15935)"/>
<path d="M3.85056 18.5775C3.85056 18.0627 3.87864 17.5551 3.93264 17.0547H0.0648C0.02232 17.5572 0 18.0648 0 18.5775C0 19.1031 0.02376 19.6236 0.0684 20.1377H3.93696C3.88008 19.6251 3.85056 19.1045 3.85056 18.5775Z" fill="url(#paint3_linear_1_15935)"/>
<path d="M31.6137 22.4492C29.9296 28.382 24.4727 32.7279 17.9999 32.7279C11.5271 32.7279 6.07022 28.3827 4.38615 22.4492H0.418945C2.18943 30.5298 9.38798 36.5785 17.9999 36.5785C26.6118 36.5785 33.8104 30.5298 35.5809 22.4492H31.6137Z" fill="url(#paint4_linear_1_15935)"/>
</g>
<defs>
<linearGradient id="paint0_linear_1_15935" x1="2.02393" y1="33.4209" x2="31.8174" y2="5.91926" gradientUnits="userSpaceOnUse">
<stop stop-color="#8568C5"/>
<stop offset="1" stop-color="#7C4497"/>
</linearGradient>
<linearGradient id="paint1_linear_1_15935" x1="-1.03738" y1="30.1046" x2="28.7561" y2="2.60291" gradientUnits="userSpaceOnUse">
<stop stop-color="#8568C5"/>
<stop offset="1" stop-color="#7C4497"/>
</linearGradient>
<linearGradient id="paint2_linear_1_15935" x1="9.34641" y1="41.3531" x2="39.1399" y2="13.8514" gradientUnits="userSpaceOnUse">
<stop stop-color="#8568C5"/>
<stop offset="1" stop-color="#7C4497"/>
</linearGradient>
<linearGradient id="paint3_linear_1_15935" x1="-5.37507" y1="25.4045" x2="24.4184" y2="-2.09715" gradientUnits="userSpaceOnUse">
<stop stop-color="#8568C5"/>
<stop offset="1" stop-color="#7C4497"/>
</linearGradient>
<linearGradient id="paint4_linear_1_15935" x1="5.00097" y1="36.6463" x2="34.7944" y2="9.14469" gradientUnits="userSpaceOnUse">
<stop stop-color="#8568C5"/>
<stop offset="1" stop-color="#7C4497"/>
</linearGradient>
<clipPath id="clip0_1_15935">
<rect width="36" height="36" fill="white" transform="translate(0 0.578125)"/>
</clipPath>
</defs>
</svg>
