<svg width="36" height="37" viewBox="0 0 36 37" fill="none" xmlns="http://www.w3.org/2000/svg">
<path fill-rule="evenodd" clip-rule="evenodd" d="M6.58793 3.07637L0.0287302 16.8644C-0.0216698 16.9724 -6.97756e-05 17.0948 0.0863302 17.174L17.8127 34.1588C17.9207 34.2596 18.0791 34.2596 18.1871 34.1588L35.9135 17.174C35.9999 17.0948 36.0215 16.9652 35.9711 16.8644L29.4119 3.07637C29.3687 2.98277 29.2751 2.91797 29.1671 2.91797H6.83273C6.73193 2.91797 6.63833 2.97557 6.58793 3.07637Z" fill="#50AF95"/>
<path fill-rule="evenodd" clip-rule="evenodd" d="M20.2753 18.2755C20.1457 18.2827 19.4905 18.3259 18.0217 18.3259C16.8553 18.3259 16.0273 18.2899 15.7393 18.2755C11.2321 18.0739 7.86247 17.2891 7.86247 16.3531C7.86247 15.4099 11.2249 14.6323 15.7393 14.4307V17.4979C16.0345 17.5195 16.8769 17.5699 18.0433 17.5699C19.4401 17.5699 20.1457 17.5123 20.2681 17.4979V14.4307C24.7681 14.6323 28.1233 15.4171 28.1233 16.3531C28.1233 17.2891 24.7753 18.0739 20.2753 18.2755ZM20.2753 14.1139V11.3707H26.5537V7.1875H9.46087V11.3707H15.7393V14.1139C10.6345 14.3515 6.79688 15.3595 6.79688 16.5691C6.79688 17.7787 10.6345 18.7867 15.7393 19.0243V27.8155H20.2753V19.0243C25.3657 18.7867 29.1961 17.7787 29.1961 16.5691C29.1961 15.3595 25.3729 14.3515 20.2753 14.1139Z" fill="white"/>
</svg>
