<svg width="36" height="37" viewBox="0 0 36 37" fill="none" xmlns="http://www.w3.org/2000/svg">
<g clip-path="url(#clip0_1_15661)">
<path d="M17.9637 36.3902C27.8173 36.3902 35.8053 28.4023 35.8053 18.5486C35.8053 8.69499 27.8173 0.707031 17.9637 0.707031C8.11003 0.707031 0.12207 8.69499 0.12207 18.5486C0.12207 28.4023 8.11003 36.3902 17.9637 36.3902Z" fill="#172956"/>
<path d="M22.6731 16.0301C22.7595 15.4469 22.9755 15.2669 23.5659 15.2597C24.6243 15.2597 25.6827 15.2525 26.7411 15.2597C27.2667 15.2669 27.5907 15.5837 27.5259 16.0661C27.1371 18.7445 26.8419 21.4445 26.3091 24.0941C25.7187 27.0461 24.1419 29.4221 21.4995 30.9989C20.0091 31.8845 18.2739 32.3237 15.6675 32.3237C13.4859 32.2805 11.0163 31.2941 9.37467 28.7453C8.15067 26.8445 7.97787 24.7421 8.28747 22.5533C9.00027 17.6069 9.70587 12.6533 10.4043 7.69967C10.5051 6.98687 10.7427 6.77087 11.4555 6.76367C12.4851 6.76367 13.5075 6.76367 14.5371 6.76367C15.1635 6.76367 15.3651 6.99407 15.2715 7.62767C14.7099 11.5949 13.1259 22.4093 13.1043 23.8637C13.0611 26.5853 14.8179 27.8525 17.5827 27.4709C19.6779 27.1829 21.0819 25.8005 21.5499 23.4893" fill="white"/>
<path d="M25.7974 11.955C25.2646 11.955 24.7246 11.9622 24.1918 11.955C23.6086 11.9406 23.3134 11.6094 23.3926 11.0334C23.551 9.85263 23.7238 8.67182 23.9038 7.49822C23.9758 7.00142 24.2494 6.77103 24.7534 6.77103C25.855 6.76383 26.9566 6.76383 28.0582 6.77103C28.5694 6.77103 28.807 7.01583 28.7422 7.52703C28.5838 8.79423 28.3966 10.0614 28.2022 11.3286C28.1374 11.7678 27.8278 11.955 27.403 11.955C26.863 11.9622 26.3302 11.955 25.7974 11.955Z" fill="white"/>
</g>
<defs>
<clipPath id="clip0_1_15661">
<rect width="36" height="36" fill="white" transform="translate(0 0.578125)"/>
</clipPath>
</defs>
</svg>
