<svg width="36" height="37" viewBox="0 0 36 37" fill="none" xmlns="http://www.w3.org/2000/svg">
<path d="M13.7874 1.71497C15.7361 1.71497 17.6474 1.71497 19.6001 1.71497C17.5431 10.6286 15.4908 19.5218 13.4347 28.4317C11.1425 28.4317 8.86007 28.4317 6.55866 28.4317C4.50335 19.5251 2.44998 10.6269 0.392578 1.71094C2.34248 1.71094 4.25855 1.71094 6.20543 1.71094C7.46348 8.26841 8.72104 14.823 9.97851 21.3776C9.99076 21.3779 10.0029 21.3782 10.0152 21.3785C11.2715 14.8296 12.5278 8.28072 13.7874 1.71497ZM35.404 19.0095C35.4165 18.9673 35.4279 18.9246 35.4359 18.8813C35.6529 17.7124 35.7479 16.5354 35.6999 15.3456C35.6544 14.2143 35.4849 13.1082 35.0886 12.0442C34.6523 10.8729 33.9778 9.87581 32.9616 9.12103C32.2178 8.56865 31.3911 8.20879 30.4959 8.00208C29.1587 7.69342 27.8085 7.66375 26.4554 7.87536C25.1084 8.08603 23.8927 8.59759 22.8672 9.51559C22.0937 10.2079 21.5316 11.0495 21.1351 12.0048C20.7341 12.9708 20.4726 13.9728 20.4677 15.0214C20.455 17.7228 20.4634 20.4243 20.4641 23.1258C20.4641 23.2248 20.4623 23.3254 20.4773 23.4228C20.6596 24.6044 21.1197 25.6635 21.8904 26.5811C22.6935 27.5372 23.7171 28.1614 24.8946 28.5451C25.7922 28.8377 26.7172 28.961 27.6588 28.9968C28.8954 29.0439 30.1024 28.9144 31.2605 28.4531C32.5523 27.9385 33.5427 27.0668 34.2492 25.8788C34.8846 24.8104 35.2265 23.6415 35.3531 22.4081C35.3752 22.1926 35.3816 21.9756 35.3957 21.7521C33.7821 21.7521 32.2051 21.7521 30.6234 21.7521C30.6134 21.9736 30.6057 22.1764 30.595 22.3789C30.5563 23.1126 30.4142 23.8239 30.0869 24.4855C29.7302 25.2065 29.185 25.7059 28.365 25.8404C27.2236 26.0277 26.234 25.5073 25.7217 24.4668C25.3239 23.6589 25.1639 22.7959 25.1454 21.9065C25.1274 21.0412 25.1408 20.1753 25.1419 19.3095C25.142 19.246 25.1543 19.1825 25.1631 19.0985C28.5721 19.0985 31.9658 19.0985 35.3618 19.0985C35.3857 19.049 35.398 19.0302 35.404 19.0095ZM25.3481 16.1393C25.3427 16.0734 25.3333 16.0098 25.3332 15.9461C25.3319 15.2133 25.3302 14.4805 25.3324 13.7477C25.3365 12.444 26.3006 11.4014 27.5999 11.2788C28.0602 11.2354 28.5144 11.2332 28.9544 11.3897C29.6998 11.6547 30.1486 12.2079 30.4179 12.9279C30.558 13.3027 30.6285 13.6882 30.6212 14.0916C30.6105 14.681 30.6193 15.2707 30.6175 15.8602C30.6172 15.9466 30.6041 16.0327 30.5952 16.1392C28.8321 16.1393 27.099 16.1393 25.3481 16.1393ZM8.75099 31.8812C8.68863 31.3648 8.34613 31.002 7.8723 30.778C7.57379 30.6369 7.25562 30.6348 6.93392 30.6359C5.89208 30.6396 4.8501 30.6261 3.8084 30.6373C3.011 30.6459 2.34774 31.2869 2.30022 32.0877C2.27415 32.5272 2.26688 32.9693 2.2802 33.4094C2.30699 34.2948 2.85707 34.9338 3.70904 35.0129C4.26647 35.0646 4.83217 35.0281 5.39413 35.0292C5.41861 35.0292 5.44309 35.0096 5.46973 34.9983C5.46973 34.6877 5.46973 34.3825 5.46973 34.0636C5.3919 34.0582 5.32746 34.0503 5.26302 34.0501C4.811 34.0486 4.35891 34.0506 3.9069 34.0476C3.51255 34.0451 3.26682 33.8002 3.26343 33.4076C3.26034 33.0493 3.26142 32.691 3.26171 32.3326C3.26207 31.8459 3.50535 31.6035 3.99308 31.6025C5.05119 31.6 6.10923 31.5973 7.16735 31.5951C7.53591 31.5943 7.81959 31.8657 7.8273 32.2374C7.83421 32.568 7.82845 32.899 7.83032 33.2297C7.83068 33.2936 7.84026 33.3575 7.84659 33.4336C8.16159 33.4336 8.46133 33.4336 8.76409 33.4336C8.76423 32.901 8.81176 32.3846 8.75099 31.8812ZM31.1976 31.6017C31.6605 31.6028 32.1234 31.5951 32.5862 31.6043C33 31.6125 33.2381 31.8637 33.2403 32.2741C33.2422 32.6489 33.2424 33.0237 33.2402 33.3985C33.2378 33.7997 32.9932 34.0472 32.5894 34.0482C31.4925 34.0506 30.3958 34.05 29.2989 34.0474C28.9367 34.0466 28.6805 33.7843 28.6768 33.4174C28.674 33.1529 28.6771 32.8883 28.6753 32.6238C28.675 32.5652 28.6655 32.5066 28.6591 32.4369C28.3408 32.4369 28.0373 32.4369 27.7453 32.4369C27.7308 32.4579 27.725 32.4624 27.7251 32.4667C27.7257 32.901 27.6686 33.3451 27.7406 33.7672C27.8698 34.5241 28.5259 35.0279 29.3028 35.0332C30.4051 35.0407 31.5075 35.0377 32.6098 35.0338C33.543 35.0305 34.232 34.2791 34.2113 33.4265C34.2016 33.0299 34.2118 32.6328 34.2092 32.236C34.2032 31.3181 33.5283 30.6415 32.6104 30.6346C32.1254 30.631 31.6404 30.6334 31.1553 30.6345C31.0967 30.6346 31.0381 30.6437 30.9671 30.6497C30.9671 30.964 30.9671 31.2636 30.9671 31.5879C31.0575 31.5935 31.1275 31.6016 31.1976 31.6017ZM30.5915 33.3179C30.589 32.9157 30.5946 32.5131 30.5781 32.1115C30.5449 31.3029 29.8185 30.6101 28.9385 30.6284C27.8201 30.6518 26.7009 30.6303 25.5821 30.6377C24.9239 30.642 24.2959 31.1314 24.1367 31.772C24.0036 32.3078 24.0807 32.8562 24.0869 33.3996C24.087 33.408 24.0997 33.4163 24.1109 33.4298C24.4113 33.4298 24.7156 33.4298 25.0398 33.4298C25.0398 33.352 25.0398 33.2924 25.0398 33.2329C25.04 32.9077 25.0355 32.5824 25.0416 32.2574C25.0487 31.8736 25.3072 31.6056 25.686 31.6039C26.7827 31.599 27.8796 31.5991 28.9763 31.6048C29.3522 31.6067 29.6024 31.872 29.6045 32.2477C29.6064 32.5784 29.6034 32.9091 29.6057 33.2398C29.6061 33.3026 29.6211 33.3652 29.6301 33.4346C29.9494 33.4346 30.2499 33.4346 30.5622 33.4346C30.5763 33.3804 30.5916 33.3491 30.5915 33.3179ZM10.4907 33.4249C10.5015 33.3871 10.5099 33.3714 10.51 33.3557C10.5117 33.003 10.511 32.6504 10.514 32.2978C10.5177 31.8678 10.7792 31.6033 11.2042 31.6027C12.2788 31.6012 13.3533 31.6011 14.4279 31.6027C14.8201 31.6033 15.0778 31.8612 15.0821 32.2562C15.0857 32.5813 15.0818 32.9064 15.0836 33.2315C15.084 33.295 15.0953 33.3583 15.1021 33.4282C15.4286 33.4282 15.7376 33.4282 16.0449 33.4282C16.0552 33.3888 16.0655 33.3679 16.0655 33.3469C16.0655 32.9447 16.0861 32.541 16.0588 32.1405C15.9975 31.2437 15.3289 30.6356 14.4278 30.634C13.3367 30.632 12.2457 30.6316 11.1546 30.6341C10.2392 30.6363 9.55357 31.3196 9.5476 32.2315C9.54536 32.5732 9.54637 32.9148 9.54731 33.2564C9.54745 33.3098 9.55508 33.3631 9.55991 33.4249C9.8901 33.4249 10.1932 33.4249 10.4907 33.4249ZM17.7847 33.2176C17.7861 32.887 17.7808 32.5562 17.7872 32.2257C17.794 31.8745 18.0577 31.6059 18.4083 31.6045C19.5105 31.6 20.6126 31.5994 21.7148 31.6053C22.0996 31.6074 22.3496 31.8738 22.3526 32.2601C22.355 32.5853 22.352 32.9104 22.3537 33.2356C22.3541 33.2988 22.3652 33.3619 22.3717 33.4282C22.6937 33.4282 22.9972 33.4282 23.318 33.4282C23.318 32.9903 23.3227 32.5722 23.317 32.1542C23.3061 31.3482 22.628 30.6482 21.8191 30.6386C20.6455 30.6247 19.4715 30.625 18.2979 30.6386C17.5366 30.6474 16.8639 31.3108 16.8236 32.0702C16.8026 32.466 16.8056 32.863 16.8001 33.2594C16.7994 33.3122 16.8124 33.3651 16.8208 33.432C17.139 33.432 17.4435 33.432 17.7719 33.432C17.7773 33.347 17.7845 33.2824 17.7847 33.2176ZM13.184 33.4664C13.1873 34.302 13.8706 35.0199 14.7074 35.0304C15.859 35.0447 17.011 35.0448 18.1625 35.0279C18.6753 35.0204 19.0933 34.7818 19.3976 34.3623C19.5875 34.1006 19.687 33.8078 19.6856 33.4822C19.6843 33.1433 19.6853 32.8043 19.6853 32.4492C19.3599 32.4492 19.0516 32.4492 18.731 32.4492C18.7259 32.533 18.719 32.5979 18.7185 32.6628C18.7167 32.9163 18.7198 33.1698 18.7155 33.4233C18.7092 33.7928 18.4578 34.0471 18.0905 34.048C16.9884 34.0507 15.8863 34.0507 14.7841 34.0484C14.412 34.0476 14.156 33.7869 14.1509 33.4106C14.1475 33.1516 14.1512 32.8926 14.149 32.6336C14.1485 32.57 14.1373 32.5066 14.1303 32.435C13.8142 32.435 13.5149 32.435 13.1838 32.435C13.1838 32.796 13.1827 33.1312 13.184 33.4664ZM20.4369 32.6086C20.4357 32.8842 20.4332 33.1599 20.4371 33.4355C20.4495 34.3341 21.1355 35.0264 22.0372 35.0333C23.1452 35.0416 24.2534 35.0409 25.3613 35.0335C26.1141 35.0284 26.7812 34.5225 26.9023 33.8055C26.9747 33.377 26.9316 32.929 26.9395 32.4897C26.9396 32.4813 26.9271 32.4726 26.9089 32.4491C26.6168 32.4491 26.3135 32.4491 25.9993 32.4491C25.9958 32.5273 25.9912 32.5871 25.9908 32.6468C25.9894 32.9004 25.9941 33.1541 25.9876 33.4075C25.9783 33.7692 25.7208 34.0465 25.3842 34.0476C24.2652 34.0512 23.1461 34.0507 22.027 34.0471C21.7335 34.0462 21.5248 33.8857 21.4434 33.6019C21.4137 33.4981 21.4081 33.3852 21.4061 33.2761C21.4012 32.9972 21.4045 32.7182 21.4045 32.4346C21.073 32.4346 20.768 32.4346 20.4505 32.4346C20.4451 32.5017 20.4372 32.5551 20.4369 32.6086ZM5.9188 32.6061C5.9157 32.8761 5.91181 33.1462 5.91361 33.4161C5.91973 34.3279 6.5979 35.0244 7.5092 35.0327C8.62247 35.0428 9.73595 35.0427 10.8492 35.0326C11.6468 35.0254 12.2965 34.4699 12.4004 33.6797C12.4516 33.2901 12.4163 32.889 12.4192 32.4932C12.4192 32.4842 12.4078 32.4752 12.3894 32.4479C12.0979 32.4479 11.7941 32.4479 11.4755 32.4479C11.4709 32.5282 11.4644 32.5927 11.464 32.6574C11.4627 32.9054 11.4681 33.1536 11.4621 33.4014C11.4525 33.7918 11.1898 34.0482 10.7997 34.0488C9.71391 34.0504 8.62808 34.0502 7.54232 34.0476C7.45607 34.0474 7.36369 34.0385 7.28478 34.007C7.00643 33.8956 6.88712 33.6708 6.88223 33.3822C6.8769 33.0697 6.881 32.757 6.881 32.4325C6.5601 32.4325 6.26 32.4325 5.93499 32.4325C5.92859 32.499 5.91944 32.5525 5.9188 32.6061Z" fill="#FE9A34"/>
</svg>
