<svg width="36" height="37" viewBox="0 0 36 37" fill="none" xmlns="http://www.w3.org/2000/svg">
<g clip-path="url(#clip0_1_15321)">
<path d="M18 36.5781C27.9411 36.5781 36 28.5192 36 18.5781C36 8.637 27.9411 0.578125 18 0.578125C8.05887 0.578125 0 8.637 0 18.5781C0 28.5192 8.05887 36.5781 18 36.5781Z" fill="#919AFA"/>
<path d="M28.5409 10.5287H21.0889C20.8081 10.5287 20.5489 10.6871 20.4265 10.9391L16.6681 18.4559L12.7873 10.9031C12.6649 10.6655 12.4273 10.5215 12.1609 10.5215H7.53854C7.28654 10.5215 7.12814 10.7879 7.24334 11.0111L17.2369 30.4943C17.6113 31.2287 18.6625 31.2287 19.0297 30.4943L28.8937 11.0903C29.0161 10.8311 28.8289 10.5287 28.5409 10.5287ZM18.1153 30.3071L16.6897 27.4847L24.8977 11.4719H27.7201L18.1153 30.3071Z" fill="#3937A8"/>
</g>
<defs>
<clipPath id="clip0_1_15321">
<rect width="36" height="36" fill="white" transform="translate(0 0.578125)"/>
</clipPath>
</defs>
</svg>
