<svg width="36" height="37" viewBox="0 0 36 37" fill="none" xmlns="http://www.w3.org/2000/svg">
<g clip-path="url(#clip0_1_15420)">
<path d="M35.7111 18.5291C35.7145 28.3032 27.8053 36.2167 18.0338 36.2159C8.26452 36.215 0.349994 28.2921 0.360362 18.5239C0.37073 8.76652 8.28245 0.863723 18.039 0.865235C27.7965 0.866747 35.7078 8.77429 35.7111 18.5291ZM8.14968 19.1408C8.14968 20.0107 8.14968 20.8316 8.14968 21.6761C9.94018 21.6761 11.7138 21.6761 13.5025 21.6761C15.0551 25.2671 16.6014 28.8437 18.167 32.4648C19.7358 28.8369 21.2805 25.2646 22.8359 21.6675C24.6238 21.6675 26.4056 21.6675 28.1933 21.6675C28.1933 20.8157 28.1933 19.9961 28.1933 19.1452C26.7781 19.1452 25.3799 19.1452 23.9281 19.1452C24.1985 18.5198 24.4489 17.9406 24.7054 17.3475C25.8824 17.3475 27.0361 17.3475 28.1949 17.3475C28.1949 16.5004 28.1949 15.68 28.1949 14.8348C27.3983 14.8348 26.617 14.8348 25.7909 14.8348C26.6008 12.9589 27.3946 11.1201 28.2002 9.25381C27.0398 9.25381 25.926 9.25381 24.796 9.25381C23.4055 12.5549 22.0175 15.8497 20.6347 19.1324C18.9706 19.1324 17.3424 19.1324 15.699 19.1324C14.3093 15.8327 12.9214 12.5374 11.5397 9.25647C10.3936 9.25647 9.28008 9.25647 8.13579 9.25647C8.94017 11.12 9.73368 12.9582 10.5488 14.8465C9.70251 14.8465 8.92253 14.8465 8.1499 14.8465C8.1499 15.6987 8.1499 16.5198 8.1499 17.364C9.32206 17.364 10.4773 17.364 11.6383 17.364C11.8933 17.9547 12.1406 18.5278 12.405 19.1406C10.9653 19.1408 9.56707 19.1408 8.14968 19.1408ZM16.7762 21.6948C17.2415 22.7986 17.6947 23.8736 18.1678 24.9961C18.644 23.8639 19.0949 22.7919 19.5564 21.6948C18.608 21.6948 17.711 21.6948 16.7762 21.6948Z" fill="#2A769A"/>
</g>
<defs>
<clipPath id="clip0_1_15420">
<rect width="36" height="36" fill="white" transform="translate(0 0.578125)"/>
</clipPath>
</defs>
</svg>
