<svg width="36" height="37" viewBox="0 0 36 37" fill="none" xmlns="http://www.w3.org/2000/svg">
<g clip-path="url(#clip0_1_15319)">
<path d="M35.6766 18.4987C35.6748 28.3096 27.7207 36.252 17.9026 36.2346C8.32159 36.2176 0.206109 28.5254 0.215829 18.4779C0.225333 8.64486 8.11394 0.76453 17.9548 0.775402C28.0018 0.78649 35.6727 8.91615 35.6766 18.4987ZM17.9537 33.2524C19.0381 31.5873 20.085 29.9799 21.0867 28.4419C22.5973 28.2206 24.031 28.0402 25.4533 27.7942C27.005 27.5258 28.5281 27.1175 29.9251 26.375C30.5068 26.0658 31.0666 25.6537 31.5186 25.1768C32.2101 24.4472 32.1822 23.5417 31.5027 22.7965C31.1693 22.4308 30.76 22.1149 30.3372 21.8539C29.4051 21.2786 28.3798 20.9143 27.3162 20.6552C27.0052 20.5794 26.7012 20.4751 26.3294 20.3647C28.4303 17.1211 30.4763 13.9623 32.5656 10.7364C30.7592 10.7364 29.0523 10.7364 27.313 10.7364C24.207 15.5274 21.1017 20.3175 17.9453 25.1864C14.796 20.3297 11.6814 15.5265 8.58108 10.7453C6.83184 10.7453 5.12738 10.7453 3.33595 10.7453C5.39803 13.9757 7.47437 17.1018 9.50952 20.3197C9.28351 20.3849 9.16665 20.4318 9.04533 20.4516C7.90097 20.6383 6.81362 21.0208 5.79547 21.551C5.17425 21.8745 4.56917 22.2954 4.08223 22.7948C3.34005 23.5558 3.36324 24.5148 4.12169 25.263C4.59012 25.7251 5.14963 26.1523 5.74773 26.4129C6.79735 26.8702 7.89045 27.2532 8.99717 27.5481C10.6588 27.9908 12.3645 28.227 14.0835 28.3225C14.5605 28.349 14.8812 28.5015 15.1461 28.9347C15.9113 30.1858 16.7313 31.4036 17.5313 32.6335C17.6542 32.8222 17.7851 33.0059 17.9537 33.2524ZM17.871 22.8022C20.6812 18.3245 23.4546 13.9056 26.2461 9.45759C20.6769 9.45759 15.2013 9.45759 9.64423 9.45759C12.4033 13.933 15.119 18.3383 17.871 22.8022ZM10.4364 21.7075C10.109 21.8282 9.80227 21.9039 9.53306 22.0492C9.13281 22.2653 8.72414 22.4902 8.38365 22.7859C8.01408 23.1067 8.02898 23.409 8.37278 23.7582C8.57431 23.9628 8.81781 24.1414 9.07183 24.2766C10.2065 24.8802 11.4408 25.1509 12.8088 25.3711C11.9873 24.1024 11.222 22.9207 10.4364 21.7075ZM23.1294 25.2923C24.1436 25.1424 25.0203 24.9142 25.8596 24.5604C26.241 24.3996 26.6202 24.2069 26.9532 23.9638C27.5646 23.5175 27.5755 23.034 26.9639 22.6022C26.5108 22.2823 25.992 22.0554 25.4285 21.7463C24.6379 22.9658 23.915 24.0807 23.1294 25.2923Z" fill="black"/>
</g>
<defs>
<clipPath id="clip0_1_15319">
<rect width="36" height="36" fill="white" transform="translate(0 0.578125)"/>
</clipPath>
</defs>
</svg>
