<svg width="36" height="37" viewBox="0 0 36 37" fill="none" xmlns="http://www.w3.org/2000/svg">
<g clip-path="url(#clip0_1_15545)">
<path d="M17.9643 36.3192C27.7822 36.3192 35.7411 28.3603 35.7411 18.5424C35.7411 8.72457 27.7822 0.765625 17.9643 0.765625C8.14644 0.765625 0.1875 8.72457 0.1875 18.5424C0.1875 28.3603 8.14644 36.3192 17.9643 36.3192Z" fill="#3EC0CE"/>
<path d="M11.1312 30.9331C10.6992 30.9331 10.2672 30.7747 9.92879 30.4579C9.56159 30.1195 9.36719 29.6299 9.36719 29.1259V7.62672C9.36719 6.66912 10.116 5.84832 11.0736 5.81952C12.0744 5.78352 12.8952 6.58992 12.8952 7.58352V25.8427C12.8952 25.9651 13.032 26.0443 13.14 25.9795L16.704 23.9203C16.7544 23.8915 16.7832 23.8411 16.7832 23.7835V11.6659C16.7832 11.1763 16.9632 10.7011 17.316 10.3627C17.9064 9.79392 18.7704 9.70752 19.44 10.1035L30.8088 16.7779C31.2264 17.0227 31.5432 17.4115 31.6584 17.8795C31.8528 18.6643 31.5 19.4563 30.8304 19.8451L12.0168 30.6955C11.7432 30.8539 11.4408 30.9331 11.1312 30.9331ZM20.3184 14.9851V21.5587C20.3184 21.6811 20.4552 21.7603 20.5632 21.6955L26.208 18.4411C26.316 18.3763 26.316 18.2251 26.208 18.1603L20.5632 14.8483C20.4552 14.7835 20.3184 14.8627 20.3184 14.9851Z" fill="white"/>
</g>
<defs>
<clipPath id="clip0_1_15545">
<rect width="36" height="36" fill="white" transform="translate(0 0.578125)"/>
</clipPath>
</defs>
</svg>
