<svg width="36" height="37" viewBox="0 0 36 37" fill="none" xmlns="http://www.w3.org/2000/svg">
<g clip-path="url(#clip0_1_15418)">
<path d="M34.286 11.6945C33.89 10.7657 33.422 9.87293 32.882 9.03053C32.8316 8.91533 32.7596 8.80733 32.6732 8.71373C32.0396 7.77053 31.3124 6.88493 30.4988 6.07133C28.8788 4.45133 26.9852 3.17693 24.8828 2.28413C22.7012 1.36253 20.3828 0.894531 17.9996 0.894531C15.6164 0.894531 13.298 1.36253 11.1164 2.28413C9.01401 3.17693 7.12041 4.45133 5.50041 6.07133C3.88041 7.69133 2.60601 9.58493 1.71321 11.6873C0.784406 13.8761 0.316406 16.1945 0.316406 18.5777C0.316406 20.9609 0.784406 23.2793 1.70601 25.4609C2.59881 27.5633 3.87321 29.4569 5.49321 31.0769C7.11321 32.6969 9.00681 33.9713 11.1092 34.8641C13.2908 35.7857 15.6092 36.2537 17.9924 36.2537C20.3756 36.2537 22.694 35.7857 24.8756 34.8641C26.978 33.9713 28.8716 32.6969 30.4916 31.0769C32.1116 29.4569 33.386 27.5633 34.2788 25.4609C35.2004 23.2793 35.6684 20.9609 35.6684 18.5777C35.6828 16.1945 35.2148 13.8761 34.286 11.6945ZM17.9996 3.29213C23.018 3.29213 27.4748 5.71133 30.2612 9.44813C29.4188 10.3049 27.7052 11.7665 25.4444 12.2417C25.1996 12.2921 24.962 12.3425 24.7316 12.3785C24.5012 11.8313 24.278 11.3489 24.0692 10.9601C23.4212 9.71453 22.1756 8.29613 20.6348 8.06573C19.7204 7.92893 18.8348 8.23853 18.1508 8.92973C17.51 9.57773 17.2148 10.4273 17.3228 11.3273C17.4524 12.4289 18.2084 13.5305 19.2884 14.2073C20.3828 14.8913 21.7724 15.0497 23.1188 14.9849C23.7452 17.1593 24.026 20.0033 22.6148 22.6529C21.8588 24.0785 20.8436 25.3385 19.6916 26.2817C18.8852 26.9441 18.2084 27.3041 17.7548 27.4913C17.5676 27.5705 17.3588 27.4697 17.294 27.2825C17.1644 26.8793 16.9916 26.3609 16.8188 25.8569C16.7324 25.6049 16.6532 25.3601 16.5812 25.1513C16.0556 23.5745 14.8244 19.8737 12.3908 16.2809C10.202 13.0481 6.74601 10.1753 5.77401 9.40493C8.56761 5.68973 13.0028 3.29213 17.9996 3.29213ZM22.2116 12.5873C21.506 12.5513 20.9444 12.4145 20.5484 12.1697C20.0948 11.8889 19.742 11.4209 19.6988 11.0393C19.6772 10.8665 19.7276 10.7441 19.8572 10.6073C20.0084 10.4561 20.1164 10.4201 20.21 10.4201C20.2388 10.4201 20.2604 10.4201 20.282 10.4273C20.7212 10.4921 21.4412 11.0753 21.9524 12.0617C22.0244 12.2129 22.118 12.3857 22.2116 12.5873ZM17.9996 33.8633C9.55401 33.8633 2.71401 27.0161 2.71401 18.5777C2.71401 15.9929 3.35481 13.5593 4.48521 11.4281C5.57961 12.3209 8.55321 14.8697 10.4108 17.6129C12.6572 20.9321 13.7732 24.2873 14.3132 25.8929C14.3852 26.1017 14.4644 26.3465 14.5508 26.6057C14.7812 27.2825 15.062 28.1321 15.17 28.4777C15.4508 29.4281 16.3148 30.0473 17.2652 30.0473C17.438 30.0473 17.618 30.0257 17.798 29.9825C19.3532 29.5937 22.5644 27.8441 24.7316 23.7545C25.9772 21.4073 26.3228 18.7289 25.7684 15.7841C25.6964 15.3953 25.61 15.0209 25.5164 14.6537C25.6676 14.6249 25.8116 14.5961 25.9484 14.5673C28.4756 14.0345 30.4196 12.5801 31.5716 11.5073C32.6732 13.6169 33.2996 16.0217 33.2996 18.5705C33.2852 27.0233 26.4452 33.8633 17.9996 33.8633Z" fill="#02AD52"/>
</g>
<defs>
<clipPath id="clip0_1_15418">
<rect width="36" height="36" fill="white" transform="translate(0 0.578125)"/>
</clipPath>
</defs>
</svg>
