<svg width="36" height="37" viewBox="0 0 36 37" fill="none" xmlns="http://www.w3.org/2000/svg">
<path d="M23.9475 18.6357H18.0075C18.0075 18.7077 18.0147 18.7797 18.0147 18.8517C18.0147 22.0989 15.3795 24.7341 12.1323 24.7341C8.88514 24.7341 6.24994 22.0989 6.24994 18.8517C6.24994 15.6045 8.88514 12.9693 12.1323 12.9693C12.6003 12.9693 13.0539 13.0269 13.4931 13.1277C14.5443 11.2341 16.1067 9.6573 17.9859 8.5845C16.2579 7.5981 14.2635 7.0293 12.1323 7.0293C5.60193 7.0221 0.302734 12.3285 0.302734 18.8517C0.302734 25.3749 5.60193 30.6741 12.1251 30.6741C18.6483 30.6741 23.9547 25.3677 23.9547 18.8445C23.9547 18.7725 23.9475 18.7077 23.9475 18.6357Z" fill="#4CAFE4"/>
<path d="M23.8244 7.02148C17.3588 7.02148 12.0956 12.2343 12.002 18.6783H17.942C18.0356 15.5103 20.6276 12.9615 23.8244 12.9615C27.0716 12.9615 29.7068 15.5967 29.7068 18.8439C29.7068 22.0911 27.0716 24.7263 23.8244 24.7263C23.3564 24.7263 22.9028 24.6687 22.4636 24.5679C21.4124 26.4615 19.85 28.0383 17.9708 29.1111C19.6988 30.0975 21.6932 30.6663 23.8244 30.6663C30.3476 30.6663 35.654 25.3599 35.654 18.8367C35.654 12.3135 30.3476 7.02148 23.8244 7.02148Z" fill="#A5E0FE"/>
</svg>
