<svg width="36" height="37" viewBox="0 0 36 37" fill="none" xmlns="http://www.w3.org/2000/svg">
<path d="M10.3682 4.30859H0.641003C0.288203 4.30859 0.0722035 4.69739 0.259403 4.99979L17.6186 32.943C17.7914 33.2238 18.209 33.2238 18.3818 32.943L23.357 24.9366C23.4506 24.7926 23.4506 24.6054 23.357 24.4542L10.757 4.52459C10.6706 4.38779 10.5266 4.30859 10.3682 4.30859Z" fill="#FF8835"/>
<path d="M35.3593 4.30859H22.5433C22.1905 4.30859 21.9745 4.69739 22.1617 4.99979L28.6201 15.2382C28.8001 15.519 29.2105 15.519 29.3833 15.2382L35.7409 4.99979C35.9281 4.69739 35.7121 4.30859 35.3593 4.30859Z" fill="#FF8835"/>
</svg>
