<svg width="36" height="37" viewBox="0 0 36 37" fill="none" xmlns="http://www.w3.org/2000/svg">
<g clip-path="url(#clip0_1_15922)">
<path d="M18.4785 36.1957C18.1486 36.1957 17.8187 36.1957 17.4888 36.1957C17.4015 36.1852 17.3145 36.1686 17.2269 36.165C16.0342 36.1177 14.8601 35.9431 13.7012 35.6592C6.3539 33.8599 0.897018 27.3751 0.377466 19.8244C0.355722 19.5079 0.33225 19.1916 0.30957 18.8752C0.30957 18.6395 0.30957 18.4038 0.30957 18.1682C0.320874 18.0457 0.337938 17.9235 0.342618 17.8008C0.379554 16.8337 0.49749 15.8769 0.694914 14.9294C2.30555 7.19777 8.84402 1.47139 16.6979 0.914688C17.0203 0.891792 17.343 0.869976 17.6655 0.847656C17.8893 0.847656 18.1132 0.847656 18.3371 0.847656C18.4361 0.858024 18.5351 0.869976 18.6344 0.878472C19.2032 0.927072 19.7752 0.95112 20.3403 1.02672C23.6933 1.47528 26.6681 2.79374 29.2761 4.94489C29.3207 4.98161 29.3618 5.0225 29.4117 5.06808C24.478 12.1241 19.55 19.1722 14.6187 26.2248C15.4512 27.326 16.2565 28.4299 17.1058 29.4989C17.5483 30.0558 18.4195 30.1302 18.9151 29.4175C20.1152 27.6917 21.3363 25.9806 22.5491 24.2637C26.0208 19.3486 29.4927 14.4334 32.9646 9.5184C32.9992 9.46937 33.0364 9.42214 33.0762 9.36893C33.0996 9.39881 33.1079 9.40738 33.1139 9.41731C34.4626 11.6621 35.275 14.0868 35.5468 16.6913C35.5932 17.1355 35.6211 17.5816 35.6575 18.0268C35.6575 18.3567 35.6575 18.6866 35.6575 19.0165C35.6466 19.1093 35.6296 19.2018 35.6257 19.2949C35.5541 20.9819 35.2425 22.6236 34.7003 24.222C32.4324 30.9077 26.3598 35.6091 19.3215 36.1287C19.0404 36.1495 18.7595 36.1733 18.4785 36.1957ZM17.6133 20.7732C16.3367 19.11 15.065 17.4531 13.8108 15.8189C11.4496 15.8189 9.11776 15.8189 6.74637 15.8189C9.24369 19.1154 11.7157 22.3785 14.2005 25.6584C15.3489 24.0144 16.4778 22.3985 17.6133 20.7732ZM7.62959 18.0891C7.18154 17.4951 6.75839 16.934 6.32135 16.3545C5.80058 16.9335 5.29478 17.4958 4.76111 18.0891C5.73959 18.0891 6.66451 18.0891 7.62959 18.0891Z" fill="#1A5C2E"/>
<path d="M17.613 20.7726C16.4775 22.3979 15.3487 24.0138 14.2002 25.6578C11.7155 22.3779 9.24341 19.1148 6.74609 15.8184C9.11741 15.8184 11.4493 15.8184 13.8105 15.8184C15.0647 17.4524 16.3364 19.1093 17.613 20.7726Z" fill="white"/>
<path d="M7.6302 18.0881C6.66511 18.0881 5.7402 18.0881 4.76172 18.0881C5.29531 17.4949 5.80118 16.9325 6.32196 16.3535C6.759 16.933 7.18221 17.4941 7.6302 18.0881Z" fill="white"/>
<path d="M18.3741 0.851562C18.461 0.860922 18.5477 0.871003 18.6348 0.878419C19.2036 0.927019 19.7756 0.951067 20.3408 1.02667C23.6937 1.47523 26.6686 2.79369 29.2765 4.94483C29.321 4.98155 29.3622 5.02245 29.4121 5.06803C24.4785 12.124 19.5505 19.1721 14.6191 26.2248C15.4516 27.326 16.2569 28.4299 17.1062 29.4988C17.5487 30.0558 18.4199 30.1301 18.9155 29.4174C20.1156 27.6917 21.3367 25.9806 22.5495 24.2637C26.0213 19.3485 29.4931 14.4334 32.965 9.51835C32.9997 9.46931 33.0368 9.42208 33.0766 9.36887C33.1 9.39875 33.1084 9.40732 33.1144 9.41726C34.4631 11.6621 35.2754 14.0867 35.5472 16.6913C35.5899 17.0994 35.6171 17.5091 35.6495 17.9183C35.3741 8.54721 27.7727 1.01572 18.3741 0.851562Z" fill="white"/>
</g>
<defs>
<clipPath id="clip0_1_15922">
<rect width="36" height="36" fill="white" transform="translate(0 0.578125)"/>
</clipPath>
</defs>
</svg>
