<svg width="36" height="37" viewBox="0 0 36 37" fill="none" xmlns="http://www.w3.org/2000/svg">
<g clip-path="url(#clip0_1_15313)">
<path fill-rule="evenodd" clip-rule="evenodd" d="M18.0004 5.28684C10.786 5.28684 4.91797 11.2484 4.91797 18.578C4.91797 25.9076 10.786 31.8692 18.0004 31.8692C25.2148 31.8692 31.0828 25.9076 31.0828 18.578C31.0828 11.2484 25.2148 5.28684 18.0004 5.28684ZM18.0004 36.4412C8.30197 36.4412 0.417969 28.4276 0.417969 18.578C0.417969 8.72844 8.30197 0.714844 18.0004 0.714844C27.6988 0.714844 35.59 8.72844 35.59 18.578C35.5828 28.4276 27.6988 36.4412 18.0004 36.4412Z" fill="#FF5847"/>
<path fill-rule="evenodd" clip-rule="evenodd" d="M14.1046 18.5787L17.9998 22.5387L21.895 18.5787L17.9998 14.6187L14.1046 18.5787ZM17.9998 28.0611C17.4022 28.0611 16.8334 27.8235 16.4086 27.3915L9.32384 20.1987C8.44544 19.3059 8.44544 17.8587 9.32384 16.9659L16.4086 9.77312C17.287 8.88032 18.7126 8.88032 19.591 9.77312L26.6758 16.9659C27.5542 17.8587 27.5542 19.3059 26.6758 20.1987L19.591 27.3915C19.1662 27.8163 18.5974 28.0611 17.9998 28.0611Z" fill="#FF5847"/>
</g>
<defs>
<clipPath id="clip0_1_15313">
<rect width="36" height="36" fill="white" transform="translate(0 0.578125)"/>
</clipPath>
</defs>
</svg>
