<svg width="36" height="37" viewBox="0 0 36 37" fill="none" xmlns="http://www.w3.org/2000/svg">
<g clip-path="url(#clip0_1_15500)">
<path d="M18.0006 16.6094L2.84766 25.5067V30.3965L18.0006 21.4994L33.1534 30.3965V25.5067L18.0006 16.6094Z" fill="#1269AB"/>
<path d="M7.2746 11.2126L18.0005 5.02016L28.7261 11.2126L32.7305 9.58449L18.0005 1.08008L3.27051 9.58449L7.2746 11.2126Z" fill="#3FBCED"/>
<path d="M28.7262 12.2474V25.9411L27.1332 26.8609L30.5166 28.8474L33.1534 27.3249V10.4474L28.7262 12.2474ZM8.86795 26.8609L7.26178 25.9335V12.2421L2.84766 10.4473V27.3249L5.48451 28.8474L8.86795 26.8609Z" fill="#1269AB"/>
<path d="M26.1885 27.4062L18.0004 32.1337L9.81215 27.4062L6.42871 29.3928L18.0004 36.0737L29.5719 29.3928L26.1885 27.4062Z" fill="#3FBCED"/>
</g>
<defs>
<clipPath id="clip0_1_15500">
<rect width="36" height="36" fill="white" transform="translate(0 0.578125)"/>
</clipPath>
</defs>
</svg>
