<svg width="36" height="37" viewBox="0 0 36 37" fill="none" xmlns="http://www.w3.org/2000/svg">
<g clip-path="url(#clip0_1_15311)">
<path fill-rule="evenodd" clip-rule="evenodd" d="M18 0.578125C27.936 0.578125 36 8.63492 36 18.5781C36 28.5141 27.936 36.5781 18 36.5781C8.0568 36.5781 0 28.5141 0 18.5781C0 8.63492 8.0568 0.578125 18 0.578125Z" fill="white"/>
<path fill-rule="evenodd" clip-rule="evenodd" d="M29.3546 8.13098L28.3682 9.12457C33.257 14.4742 33.257 22.6606 28.3682 28.0102L29.3546 28.9966C34.7978 23.0926 34.7978 14.0134 29.3546 8.10938V8.13098Z" fill="#5A5564"/>
<path fill-rule="evenodd" clip-rule="evenodd" d="M8.56073 8.21724C13.9031 3.32844 22.1039 3.32844 27.4463 8.21724L28.4399 7.23084C22.5431 1.78764 13.4495 1.78764 7.55273 7.23084L8.56073 8.21724Z" fill="#5A5564"/>
<path fill-rule="evenodd" clip-rule="evenodd" d="M7.63911 28.0171C2.75751 22.6747 2.75751 14.4883 7.63911 9.13874L6.65271 8.15234C1.20951 14.0491 1.20951 23.1427 6.65271 29.0395L7.63911 28.0171Z" fill="#5A5564"/>
<path fill-rule="evenodd" clip-rule="evenodd" d="M27.4388 28.9316C22.0964 33.8204 13.8956 33.8204 8.55317 28.9316L7.55957 29.918C13.4564 35.3612 22.55 35.3612 28.4468 29.918L27.4388 28.9316Z" fill="#5A5564"/>
<path fill-rule="evenodd" clip-rule="evenodd" d="M20.9955 16.0587C20.9955 18.0387 17.9067 17.7939 16.9203 17.7939V14.3091C17.9067 14.3163 20.9955 14.0067 20.9955 16.0587ZM21.8019 21.4659C21.8019 23.6259 18.1011 23.3811 16.9203 23.3811V19.5507C18.1011 19.5507 21.8019 19.2123 21.8019 21.4659ZM24.2427 15.2811C24.0483 13.2219 22.2699 12.5307 20.0163 12.3147V9.4707H18.2811V12.2571C17.8203 12.2571 17.3523 12.2571 16.8915 12.2715V9.4707H15.1635V12.3291H14.0547H11.6355V14.1939C11.6355 14.1939 12.9171 14.1723 12.9027 14.1939C13.3851 14.1435 13.8243 14.4819 13.8891 14.9571V22.7907C13.8819 22.9563 13.8027 23.1075 13.6803 23.2155C13.5579 23.3235 13.3923 23.3739 13.2339 23.3667C13.2555 23.3811 11.9667 23.3667 11.9667 23.3667L11.6211 25.4475H13.8891H15.1347V28.3563H16.8771V25.4907H18.2667V28.3419H20.0091V25.4691C22.9467 25.2891 24.9987 24.5619 25.2507 21.8115C25.4595 19.5939 24.4155 18.6075 22.7523 18.2115C23.7603 17.6931 24.3939 16.7859 24.2427 15.2811Z" fill="#F09242"/>
<path fill-rule="evenodd" clip-rule="evenodd" d="M17.9928 1.98212C8.8344 1.98932 1.4184 9.41252 1.4184 18.5709C1.4184 27.7293 8.8416 35.1525 18.0072 35.1525C27.1656 35.1525 34.5888 27.7293 34.596 18.5709C34.5816 9.41252 27.1584 1.99652 17.9928 1.98932V1.98212ZM17.9928 36.5781C8.0568 36.5781 0 28.5141 0 18.5781C0 8.63492 8.0568 0.578125 18 0.578125C27.936 0.578125 36 8.63492 36 18.5709C35.9856 28.5141 27.936 36.5637 17.9928 36.5781Z" fill="#282138"/>
</g>
<defs>
<clipPath id="clip0_1_15311">
<rect width="36" height="36" fill="white" transform="translate(0 0.578125)"/>
</clipPath>
</defs>
</svg>
