<svg width="36" height="37" viewBox="0 0 36 37" fill="none" xmlns="http://www.w3.org/2000/svg">
<g clip-path="url(#clip0_1_15844)">
<path d="M6.3937 10.7374L14.9977 2.13343C16.6105 0.520628 19.2241 0.520628 20.8369 2.13343L29.5129 10.8022C30.0601 11.3494 30.0457 12.235 29.4913 12.7678L25.0417 17.0014C24.5017 17.5126 23.6521 17.5054 23.1265 16.9798L19.7929 13.6462C18.7489 12.6022 17.0569 12.6022 16.0129 13.6462L12.7153 16.9438C12.1825 17.4766 11.3257 17.4838 10.7857 16.9582L6.4081 12.6886C5.8609 12.1558 5.8537 11.2774 6.3937 10.7374Z" fill="#3DB6D3"/>
<path d="M31.162 14.6035L35.05 18.0163C35.8636 18.7291 35.8996 19.9747 35.1436 20.7379L20.9452 34.9795C19.3756 36.5491 16.834 36.5635 15.2572 35.0011L0.77083 20.6515C0.0148298 19.9027 0.0364299 18.6643 0.82843 17.9443L4.58683 14.5099C5.17003 13.9771 6.06283 13.9915 6.62443 14.5387L10.0012 17.8147C10.9804 18.7651 12.5284 18.7723 13.5148 17.8435L17.014 14.5459C17.5972 13.9987 18.5044 14.0059 19.0732 14.5675L22.3924 17.8219C23.386 18.7939 24.97 18.7939 25.9636 17.8147L29.146 14.6683C29.686 14.1139 30.5716 14.0851 31.162 14.6035Z" fill="#E2E1E1"/>
</g>
<defs>
<clipPath id="clip0_1_15844">
<rect width="36" height="36" fill="white" transform="translate(0 0.578125)"/>
</clipPath>
</defs>
</svg>
