<svg width="36" height="37" viewBox="0 0 36 37" fill="none" xmlns="http://www.w3.org/2000/svg">
<path d="M34.7971 11.6944C34.2715 11.0752 33.6307 10.5568 32.9035 10.168L31.2188 13.948C31.4995 14.1496 31.7587 14.38 31.9891 14.632L34.7971 11.6944Z" fill="#211E1F"/>
<path d="M22.9388 32.3363C22.9028 32.4587 22.7804 32.5307 22.658 32.4947C22.5788 32.4731 22.5212 32.4155 22.4996 32.3363L10.1084 4.65234H14.3276C16.142 4.65234 17.7836 5.72514 18.518 7.38114L22.7228 16.9427L26.294 9.38994C27.05 7.79154 28.6628 6.76914 30.434 6.76914H34.4012L22.9388 32.3363Z" fill="#8247E5"/>
<path d="M13.4067 17.448L14.1987 15.5904L17.6043 23.136L13.3635 32.1936C13.3203 32.3232 13.1835 32.388 13.0539 32.3448C12.9819 32.316 12.9315 32.2656 12.9027 32.1936L0.0722656 4.66797H4.52187C6.34347 4.68237 8.00667 5.74077 8.78427 7.38957L13.1475 16.8936L13.4067 17.448Z" fill="#211E1F"/>
<path d="M30.9456 16.7495L30.1248 16.4759C29.5344 16.2743 28.8936 16.1087 28.3032 15.8639C27.4824 15.5255 26.9784 14.8631 26.6616 14.0423C26.136 12.6743 26.0496 11.1047 26.1864 9.67188H26.1648C24.048 10.4207 22.5 12.1343 22.5 14.7479C22.5 17.7791 24.3936 19.3703 27.0576 20.2631L28.2384 20.6735L29.2176 21.0119C30.4272 21.4223 31.0176 21.7823 31.0176 22.5815C31.0176 23.6039 30.1536 24.0359 28.692 24.0359C28.0584 24.0431 27.432 23.9135 26.8488 23.6687L25.1424 27.4703C26.3592 27.8807 27.6408 28.0895 28.9224 28.0823C33.7752 28.0823 35.8704 25.6487 35.8704 22.3007C35.8488 19.7303 34.6176 17.9807 30.9456 16.7495Z" fill="#211E1F"/>
</svg>
