<svg width="36" height="37" viewBox="0 0 36 37" fill="none" xmlns="http://www.w3.org/2000/svg">
<g clip-path="url(#clip0_1_15310)">
<path d="M18.0002 24.4614C19.1335 24.4614 20.0522 23.5427 20.0522 22.4094C20.0522 21.2761 19.1335 20.3574 18.0002 20.3574C16.867 20.3574 15.9482 21.2761 15.9482 22.4094C15.9482 23.5427 16.867 24.4614 18.0002 24.4614Z" fill="black"/>
<path d="M18 0.591797H16.3728V4.1702H18C24.48 4.1702 29.9808 8.4686 31.788 14.3654H0.0288L0 18.5774V18.5918C0 28.5134 8.0712 36.5918 18 36.5918C27.9288 36.5918 36 28.5206 36 18.5918C35.9928 8.663 27.9216 0.591797 18 0.591797ZM18 33.0062C10.0512 33.0062 3.5856 26.5406 3.5784 18.5918L3.5856 17.9366H6.2352V18.8006C6.2352 25.2878 11.5128 30.5726 18.0072 30.5726H19.584V26.9942H18C13.4856 26.9942 9.8064 23.3222 9.8064 18.8006V17.9366H32.4072C32.4144 18.1526 32.4216 18.3686 32.4216 18.5846C32.4216 26.5406 25.9488 33.0062 18 33.0062Z" fill="black"/>
</g>
<defs>
<clipPath id="clip0_1_15310">
<rect width="36" height="36" fill="white" transform="translate(0 0.578125)"/>
</clipPath>
</defs>
</svg>
