<svg width="36" height="37" viewBox="0 0 36 37" fill="none" xmlns="http://www.w3.org/2000/svg">
<g clip-path="url(#clip0_1_15309)">
<path fill-rule="evenodd" clip-rule="evenodd" d="M17.525 2.42212C17.6618 2.28532 17.8418 2.21332 18.029 2.21332C18.2162 2.21332 18.3962 2.28532 18.533 2.42212L34.1642 18.1037C34.2074 18.1469 34.229 18.1973 34.2578 18.2477L27.1802 21.7829C26.9066 21.9197 26.5754 21.8693 26.3594 21.6533L19.5482 14.8565C19.145 14.4533 18.605 14.2301 18.0362 14.2301C17.4674 14.2301 16.9274 14.4533 16.5242 14.8565L9.713 21.6533C9.497 21.8693 9.1658 21.9269 8.8922 21.7829L1.8002 18.2477C1.829 18.1973 1.8506 18.1469 1.8938 18.1037L17.525 2.42212ZM35.165 17.1029L19.541 1.42132C19.1378 1.01812 18.5978 0.794922 18.029 0.794922C17.4602 0.794922 16.9202 1.01812 16.517 1.42132L0.893002 17.0957C0.0578016 17.9237 0.0578016 19.2773 0.893002 20.1125L16.517 35.7077C16.9202 36.1109 17.4602 36.3341 18.029 36.3341C18.5978 36.3341 19.1378 36.1109 19.541 35.7077L35.165 20.1125C36.0002 19.2845 36.0002 17.9309 35.165 17.1029Z" fill="black"/>
</g>
<defs>
<clipPath id="clip0_1_15309">
<rect width="36" height="36" fill="white" transform="translate(0 0.578125)"/>
</clipPath>
</defs>
</svg>
