<svg width="36" height="37" viewBox="0 0 36 37" fill="none" xmlns="http://www.w3.org/2000/svg">
<path d="M0.367024 7.23116C2.16702 7.23116 3.98142 7.20956 5.79582 7.25996C5.96862 7.26716 6.20622 7.67036 6.28542 7.92956C7.74702 12.7464 9.19422 17.5704 10.6918 22.56C11.671 20.328 12.6358 18.24 13.4998 16.116C14.3206 14.0856 15.6886 12.8112 17.9278 12.8256C20.167 12.84 21.5134 14.1576 22.3054 16.188C23.1262 18.276 24.0334 20.328 24.9766 22.56C25.3222 21.444 25.5958 20.4792 25.9198 19.5288C25.9846 19.3416 26.2294 19.0896 26.395 19.0824C28.1734 19.0536 29.9518 19.0608 31.8526 19.0608C31.4566 20.3784 31.0894 21.624 30.7078 22.8624C30.031 25.0656 29.347 27.2688 28.6774 29.4792C28.339 30.588 27.6406 31.164 26.4382 31.1496C21.4918 31.0992 22.2622 31.7184 20.3614 27.1248C19.555 25.1736 18.7486 23.2152 17.8774 21.084C16.999 23.244 16.1782 25.2384 15.379 27.2472C13.4998 31.9704 14.1766 31.0992 8.84862 31.0704C8.29422 31.0704 7.42302 30.3504 7.25022 29.796C4.88142 22.3656 2.61342 14.892 0.331024 7.42556C0.316624 7.38956 0.345424 7.34636 0.367024 7.23116Z" fill="#0C1926"/>
<path d="M26.9424 16.1517C27.8424 13.1925 28.7136 10.3269 29.5992 7.46853C29.628 7.36773 29.808 7.24533 29.9232 7.24533C31.7808 7.23093 33.6312 7.23813 35.5752 7.23813C34.6536 10.1829 33.7608 13.0413 32.8464 15.8925C32.8104 16.0005 32.6448 16.1445 32.544 16.1445C30.7152 16.1589 28.8792 16.1517 26.9424 16.1517Z" fill="#0C1926"/>
</svg>
