<svg width="36" height="37" viewBox="0 0 36 37" fill="none" xmlns="http://www.w3.org/2000/svg">
<g clip-path="url(#clip0_1_15307)">
<path d="M30.0188 31.2817C28.6659 32.6631 27.0747 33.7115 25.3246 34.4989C20.7055 36.5773 16.0114 36.7004 11.3072 34.8266C8.11628 33.5556 5.52536 31.4775 3.54658 28.6596C1.22199 25.3493 0.138603 21.6559 0.346395 17.6281C0.56686 13.3553 2.16296 9.62734 5.08522 6.48367C5.22317 6.33528 5.37365 6.19862 5.51823 6.05664C5.56013 6.16817 5.60794 6.27761 5.64322 6.39101C7.14356 11.2053 8.64274 16.0199 10.1422 20.8344C10.6127 22.3449 11.0833 23.8553 11.5502 25.3543C13.0378 25.3543 14.4824 25.3543 15.9386 25.3543C16.5679 23.0258 17.1912 20.7192 17.8145 18.4126C17.8534 18.4163 17.8924 18.42 17.9312 18.4237C18.5614 20.7353 19.1915 23.0469 19.8197 25.3512C21.3101 25.3512 22.7521 25.3512 24.2077 25.3512C24.8879 22.9171 25.5612 20.5077 26.2345 18.0984C26.2695 18.1008 26.3045 18.1032 26.3395 18.1056C27.566 22.4976 28.7924 26.8897 30.0188 31.2817Z" fill="#FBEE06"/>
<path d="M8.3877 3.77516C9.13736 3.14393 10.0205 2.73742 10.907 2.36266C15.5134 0.415566 20.1696 0.347094 24.7705 2.29066C29.3283 4.21601 32.5778 7.52809 34.3431 12.1679C36.4221 17.6321 35.8525 22.8916 32.8434 27.894C32.7923 27.9788 32.7174 28.0494 32.6537 28.1266C32.6243 28.0666 32.5847 28.0095 32.5671 27.9463C31.377 23.6781 30.1891 19.4094 28.9998 15.141C28.7499 14.2444 28.4955 13.3491 28.251 12.4809C26.8959 12.4809 25.6063 12.4809 24.3188 12.4809C23.495 15.3214 22.8014 18.164 21.872 21.0884C21.1705 18.1153 20.5059 15.2992 19.8393 12.4737C18.5254 12.4737 17.2365 12.4737 15.9172 12.4737C15.2508 15.288 14.5889 18.0834 13.927 20.8786C13.8781 20.8745 13.8292 20.8703 13.7802 20.8662C13.7261 20.7126 13.6675 20.5604 13.6186 20.4051C13.0187 18.5036 12.4196 16.6018 11.8214 14.6997C10.6765 11.0583 9.53228 7.4167 8.3877 3.77516Z" fill="#FBEE06"/>
<path d="M8.38739 3.77539C9.53198 7.41693 10.6762 11.0585 11.8211 14.6999C12.4193 16.602 13.0184 18.5038 13.6183 20.4053C13.6672 20.5605 13.7258 20.7128 13.7799 20.8664C13.8289 20.8705 13.8778 20.8747 13.9267 20.8788C14.5886 18.0834 15.2505 15.2882 15.9169 12.4739C17.2362 12.4739 18.5251 12.4739 19.839 12.4739C20.5057 15.2994 21.1702 18.1155 21.8717 21.0885C22.8011 18.1641 23.4946 15.3215 24.3185 12.4811C25.6059 12.4811 26.8956 12.4811 28.2507 12.4811C28.4952 13.3492 28.7497 14.2446 28.9995 15.1412C30.1888 19.4095 31.3767 23.6783 32.5668 27.9464C32.5844 28.0097 32.624 28.0667 32.6534 28.1267C31.9411 29.3169 31.0554 30.3623 30.0189 31.2817C28.7926 26.8897 27.5662 22.4976 26.3398 18.1056C26.3048 18.1032 26.2698 18.1008 26.2348 18.0983C25.5616 20.5077 24.8882 22.9171 24.208 25.3512C22.7525 25.3512 21.3105 25.3512 19.82 25.3512C19.1919 23.0469 18.5617 20.7353 17.9316 18.4237C17.8927 18.42 17.8537 18.4162 17.8149 18.4126C17.1915 20.7192 16.5681 23.0259 15.9389 25.3543C14.4827 25.3543 13.038 25.3543 11.5505 25.3543C11.0835 23.8553 10.6129 22.3449 10.1425 20.8344C8.64314 16.0199 7.14388 11.2053 5.64355 6.39101C5.60819 6.27761 5.56039 6.16817 5.51855 6.05664C6.37665 5.17269 7.2971 4.36723 8.38739 3.77539Z" fill="#020203"/>
</g>
<defs>
<clipPath id="clip0_1_15307">
<rect width="36" height="36" fill="white" transform="translate(0 0.578125)"/>
</clipPath>
</defs>
</svg>
