<svg width="36" height="37" viewBox="0 0 36 37" fill="none" xmlns="http://www.w3.org/2000/svg">
<path d="M35.6411 15.5405C35.6411 17.6828 35.645 19.8251 35.6394 21.9673C35.6365 23.0799 35.3903 23.3704 34.3026 23.6348C32.595 24.05 30.8884 24.4701 29.1827 24.8932C27.867 25.2196 27.3015 24.7965 27.301 23.4691C27.2997 19.1342 27.2995 14.7993 27.3002 10.4643C27.3004 9.39019 27.5129 9.1415 28.5958 8.87467C30.3743 8.4364 32.151 7.99036 33.9275 7.54389C34.9636 7.28354 35.62 7.74376 35.6303 8.81131C35.6518 11.0542 35.6368 13.2974 35.6368 15.5405C35.6383 15.5405 35.6397 15.5405 35.6411 15.5405Z" fill="#8202FC"/>
<path d="M22.0381 13.0927C21.7827 13.1512 21.6132 13.1888 21.4443 13.229C19.9765 13.5783 19.3085 14.3905 19.2991 15.9043C19.2843 18.3003 19.2933 20.6964 19.2923 23.0925C19.2921 23.3671 19.2923 23.6416 19.2923 23.9822C17.8738 24.3232 16.495 24.7019 15.0955 24.9738C14.2363 25.1407 13.6955 24.6179 13.6935 23.7257C13.6838 19.2363 13.6914 14.7468 13.6855 10.2573C13.6846 9.51332 14.0396 9.08888 14.7505 8.91378C16.6519 8.44542 18.5497 7.96165 20.4514 7.49459C21.291 7.28838 21.9995 7.77143 22.0261 8.64472C22.0703 10.1039 22.0381 11.5654 22.0381 13.0927Z" fill="#8202FC"/>
<path d="M8.83608 12.9682C8.45679 13.0717 8.12278 13.1702 7.7851 13.2536C6.34481 13.6097 5.72115 14.3767 5.70855 15.8967C5.6912 17.9897 5.70387 20.0828 5.70365 22.1759C5.70358 22.7787 5.70365 23.3814 5.70365 24.0679C4.39527 24.3824 3.12008 24.7373 1.82422 24.9827C1.0032 25.1382 0.444556 24.6271 0.441676 23.7833C0.426268 19.2441 0.432172 14.7048 0.436132 10.1656C0.436708 9.48854 0.818452 9.09153 1.44989 8.93112C3.39483 8.43698 5.33948 7.94126 7.2901 7.47031C8.12876 7.26784 8.80872 7.87912 8.82924 8.86696C8.85689 10.2021 8.83608 11.5382 8.83608 12.9682Z" fill="#8202FC"/>
<path d="M28.799 26.31C28.9302 28.821 28.8716 28.8845 26.2502 29.4775C25.0252 29.7546 23.804 30.0502 22.5862 30.3569C21.0587 30.7417 20.474 30.2947 20.4738 28.7011C20.473 24.492 20.4757 20.283 20.4791 16.0739C20.48 14.889 20.6692 14.6537 21.8384 14.3585C23.2018 14.0143 24.5656 13.6716 25.9064 13.334C26.1841 13.6069 26.1072 13.8981 26.1078 14.1595C26.1143 17.0327 26.1178 19.906 26.1092 22.7793C26.1017 25.2588 26.4441 25.7249 28.799 26.31Z" fill="#05FCDA"/>
<path d="M12.4169 13.4477C12.5605 13.9094 12.4928 14.3626 12.4938 14.811C12.5002 17.7118 12.5057 20.6125 12.5116 23.5132C12.5149 25.1708 13.2505 25.9926 14.9248 26.2122C14.9959 26.2216 15.0642 26.2524 15.2117 26.2966C15.2117 26.8815 15.2609 27.4843 15.1964 28.0749C15.1433 28.5613 14.7812 28.8717 14.3047 28.9948C12.795 29.385 11.2829 29.7661 9.77051 30.1459C9.30734 30.2623 8.84531 30.402 8.37393 30.4632C7.4231 30.5869 6.88576 30.1167 6.85876 29.15C6.83623 28.3435 6.85473 27.5358 6.85487 26.7286C6.85559 23.1215 6.87979 19.5141 6.83903 15.9075C6.82989 15.0979 7.1968 14.6387 7.86467 14.452C9.26882 14.0595 10.6979 13.7559 12.1183 13.4225C12.2081 13.4015 12.3113 13.4374 12.4169 13.4477Z" fill="#05FCDA"/>
</svg>
