<svg width="36" height="37" viewBox="0 0 36 37" fill="none" xmlns="http://www.w3.org/2000/svg">
<path d="M30.9529 7.99414L27.9505 18.4701C27.5545 19.8381 27.2449 21.2277 27.0073 22.6389C27.0073 22.6461 27.0073 22.6605 27.0073 22.6605H26.9137C26.8344 21.8757 26.6185 21.0909 26.4888 20.4285L23.1841 7.99414H16.4161L13.1257 20.4213C12.9961 21.0837 12.7801 21.8685 12.7009 22.6533H12.6073C12.6073 22.6461 12.6073 22.6317 12.6073 22.6317C12.3769 21.2205 12.0601 19.8309 11.6641 18.4629L8.67605 7.99414H3.88085L5.28485 12.9189H0.172852V16.4469H6.28565L7.28645 19.9533H0.180052V23.4885H8.29445L9.90005 29.1405H15.6241L19.4977 14.3301C19.6201 13.7829 19.7281 13.1853 19.7641 12.7605H19.8577C19.8864 13.1709 20.0017 13.7757 20.1241 14.3301L23.9977 29.1405H29.7216L35.7481 7.99414H30.9529Z" fill="#053F33"/>
</svg>
