<svg width="36" height="37" viewBox="0 0 36 37" fill="none" xmlns="http://www.w3.org/2000/svg">
<path d="M34.906 11.8455L29.5348 3.09754L28.8004 1.90234H27.4036H8.69803H7.30843L6.58123 3.09034L1.15963 11.8383L0.223633 13.3431L1.33963 14.7183L16.114 32.9847L18.058 35.3895L20.002 32.9847L34.726 14.7183L35.8276 13.3503L34.906 11.8455ZM32.3932 12.5295H24.214L19.5988 4.40074H27.4108L32.3932 12.5295ZM21.3412 12.5295H14.7244L18.0652 6.75514L21.3412 12.5295ZM8.69803 4.40074H16.5388L11.8372 12.5295H3.67243L8.69803 4.40074ZM10.3972 15.0207L8.06443 19.0599L4.80283 15.0207H10.3972ZM18.058 31.4151L9.74203 21.1407L13.2772 15.0279H22.7524L26.266 21.2199L18.058 31.4151ZM25.6324 15.0207H31.27L27.9652 19.1247L25.6324 15.0207Z" fill="url(#paint0_linear_1_15566)"/>
<defs>
<linearGradient id="paint0_linear_1_15566" x1="0.228428" y1="18.6482" x2="35.8253" y2="18.6482" gradientUnits="userSpaceOnUse">
<stop stop-color="#EEB80B"/>
<stop offset="1" stop-color="#EA5811"/>
</linearGradient>
</defs>
</svg>
