<svg width="36" height="37" viewBox="0 0 36 37" fill="none" xmlns="http://www.w3.org/2000/svg">
<g clip-path="url(#clip0_1_15556)">
<path d="M18.0088 36.1032L17.8065 36.0021C9.91958 31.3845 3.9538 23.7672 1.52705 14.6668C1.13944 13.2344 0.852951 11.7682 0.650717 10.2852C0.465332 8.80217 0.364231 7.30229 0.347368 5.80242C0.347368 5.54962 0.313657 5.58333 0.549601 5.46537C3.51564 3.78012 6.6502 2.54989 9.97014 1.77468C11.2004 1.48819 12.4306 1.26911 13.6777 1.11743C15.3966 0.915201 17.1156 0.830945 18.8514 0.864641C19.8289 0.881489 20.7894 0.948911 21.75 1.05001C26.5867 1.57245 31.12 3.02176 35.3669 5.39795C35.4343 5.43166 35.4848 5.46536 35.5522 5.49907C35.6196 5.53278 35.6534 5.58333 35.6534 5.66759V5.92038C35.6365 6.79671 35.6028 7.65619 35.5354 8.53251C35.4343 9.77959 35.2658 11.0098 35.0298 12.2401C34.5243 14.8859 33.7322 17.4306 32.6368 19.8742C30.901 23.7672 28.5248 27.2388 25.525 30.2722C23.3679 32.463 20.958 34.3505 18.2953 35.9178C18.1942 35.9852 18.1099 36.0358 18.0088 36.1032ZM1.96521 6.66189V6.86413C1.96521 8.09436 2.04948 9.34145 2.20114 10.5548C2.33597 11.6671 2.52133 12.7625 2.77413 13.8579C2.82469 14.0433 2.87524 14.2287 2.9595 14.414C4.47622 17.6329 7.98154 19.3518 11.4532 18.5597C14.099 17.9531 16.2561 15.9139 16.9808 13.3018C17.183 12.5771 17.2504 11.8356 17.2841 11.0941C17.301 10.6054 17.3515 10.1167 17.4358 9.62793C18.0088 6.66189 19.9805 4.21829 22.7612 3.05546C22.9128 2.98805 23.0814 2.93749 23.233 2.87009C23.2499 2.85324 23.2836 2.85324 23.2836 2.81953C22.8454 2.66785 20.2333 2.39821 18.666 2.36452C15.2955 2.29711 11.9924 2.73527 8.77362 3.71272C6.38057 4.43737 4.12233 5.41481 1.96521 6.66189ZM26.8226 26.8512C26.9069 26.8006 26.9575 26.7332 26.9912 26.6827C27.6653 25.84 28.3056 24.9637 28.8955 24.0537C31.002 20.7843 32.4851 17.2621 33.3108 13.4535C33.5973 12.1558 33.7827 10.8582 33.9007 9.54368C33.9849 8.65049 34.0186 7.75732 34.0186 6.84728C34.0186 6.77987 34.0186 6.72931 34.0018 6.66191L33.749 6.51023C33.058 6.12263 32.3502 5.75187 31.6424 5.41483C30.5976 4.9261 29.5527 4.48794 28.4573 4.13403C27.126 3.71272 25.7778 3.66216 24.4296 3.99922C20.5704 4.9261 18.093 8.71791 18.8346 12.6108C19.239 14.768 20.4018 16.4532 22.2556 17.6329C22.3736 17.7171 22.5084 17.7846 22.6264 17.8688C23.9914 18.6946 25.0531 19.8237 25.8115 21.2225C26.6204 22.6886 26.9743 24.2728 26.8732 25.9411C26.89 26.2276 26.8563 26.531 26.8226 26.8512ZM18.0088 34.3842C18.0762 34.3505 18.1605 34.3 18.2279 34.2494C20.3513 33.0023 22.3062 31.5193 24.0925 29.8341C24.2105 29.7329 24.2948 29.5981 24.3622 29.4633C24.4801 29.2442 24.5981 29.0083 24.6992 28.7892C25.5419 27.0366 25.7272 25.2165 25.1711 23.329C24.0757 19.6889 20.5704 17.5992 17.0482 18.0373C16.037 18.1553 15.1102 18.4755 14.2338 18.981C12.5654 19.9248 10.7791 20.3124 8.8579 20.127C7.91416 20.0427 7.02098 19.79 6.1615 19.4192C5.4874 19.1159 4.84701 18.7451 4.27402 18.2901C4.24031 18.2564 4.18975 18.2395 4.10549 18.189C4.12234 18.2732 4.1392 18.3238 4.15605 18.3575C4.91441 20.2787 5.8413 22.0988 6.93671 23.8346C8.13323 25.7052 9.49828 27.441 11.0487 29.0251C12.5991 30.6093 14.3012 32.0249 16.1382 33.2551C16.9808 33.7944 17.7729 34.2831 18.0088 34.3842Z" fill="black"/>
<path d="M1.96509 6.66206C4.12221 5.41497 6.38045 4.43753 8.75665 3.72973C11.9923 2.76913 15.2786 2.31412 18.6491 2.38153C20.2163 2.41524 22.8285 2.66802 23.2666 2.83654C23.2835 2.87025 23.2498 2.8871 23.2161 2.8871C23.0644 2.9545 22.8959 3.00506 22.7442 3.07247C19.9635 4.2353 17.9918 6.67891 17.4188 9.64495C17.3345 10.1337 17.284 10.6224 17.2671 11.1111C17.2503 11.8526 17.1829 12.5941 16.9638 13.3188C16.2223 15.9309 14.082 17.9701 11.4362 18.5768C7.96458 19.3688 4.45926 17.6499 2.94253 14.431C2.85826 14.2457 2.79086 14.0603 2.75716 13.8749C2.50437 12.7795 2.319 11.6841 2.18417 10.5718C2.0325 9.34159 1.94824 8.11136 1.94824 6.88114C1.96509 6.79688 1.96509 6.74633 1.96509 6.66206Z" fill="#F7A800"/>
<path d="M26.822 26.8514C26.8557 26.5312 26.8894 26.2447 26.9063 25.9413C26.9905 24.2729 26.6366 22.6888 25.8446 21.2226C25.0862 19.8239 24.0245 18.7116 22.6594 17.869C22.5415 17.7847 22.4066 17.7173 22.2887 17.6331C20.418 16.4534 19.2721 14.785 18.8676 12.611C18.143 8.70125 20.6034 4.92629 24.4626 3.99941C25.8277 3.67921 27.159 3.71292 28.4904 4.13422C29.5858 4.47127 30.6307 4.92629 31.6755 5.41502C32.4002 5.75206 33.0911 6.12282 33.7821 6.51042C33.8664 6.56098 33.9338 6.59469 34.0349 6.6621C34.0349 6.7295 34.0517 6.78006 34.0517 6.84747C34.0517 7.74066 34.0012 8.65068 33.9338 9.54387C33.8158 10.8584 33.6136 12.1729 33.3439 13.4536C32.5182 17.2623 31.052 20.7845 28.9286 24.0539C28.3387 24.9639 27.6983 25.8402 27.0242 26.6828C26.9568 26.7334 26.9231 26.8008 26.822 26.8514Z" fill="#67B2E8"/>
<path d="M18.0085 34.383C17.7557 34.2819 16.9805 33.81 16.1547 33.2539C14.3178 32.0237 12.6157 30.6081 11.0653 29.0239C9.51486 27.4398 8.13296 25.704 6.95328 23.8334C5.84101 22.0976 4.91413 20.2775 4.17263 18.3563C4.15578 18.3058 4.13892 18.272 4.12207 18.1878C4.20634 18.2383 4.24004 18.2552 4.29059 18.2889C4.88043 18.7439 5.50397 19.1315 6.17807 19.418C7.03755 19.7888 7.93073 20.0416 8.87447 20.1258C10.7788 20.3112 12.5652 19.9236 14.2504 18.9799C15.1267 18.4911 16.0705 18.1709 17.0648 18.0361C20.5869 17.598 24.0923 19.6877 25.1877 23.3278C25.7438 25.1984 25.5753 27.0185 24.7158 28.788C24.5978 29.0239 24.4967 29.243 24.3787 29.4621C24.3113 29.5969 24.2271 29.7318 24.1091 29.8329C22.3227 31.5181 20.3679 33.0011 18.2444 34.2482C18.1602 34.2988 18.0759 34.3493 18.0085 34.383Z" fill="#00C4B3"/>
</g>
<defs>
<clipPath id="clip0_1_15556">
<rect width="36" height="36" fill="white" transform="translate(0 0.578125)"/>
</clipPath>
</defs>
</svg>
