<svg width="36" height="37" viewBox="0 0 36 37" fill="none" xmlns="http://www.w3.org/2000/svg">
<path d="M7.31527 7.56874L1.64887 4.94794C1.20967 4.75354 0.712873 5.07754 0.720073 5.55994L0.655273 31.7967C0.662473 32.2935 1.18807 32.6103 1.62727 32.3727L7.35847 29.3271C7.57447 29.2119 7.71127 28.9887 7.71127 28.7439V8.17354C7.71127 7.91434 7.55287 7.67674 7.31527 7.56874Z" fill="url(#paint0_linear_1_15407)"/>
<path d="M34.5029 4.94794L28.5269 7.56874C28.2893 7.67674 28.1309 7.91434 28.1309 8.17354V29.1471C28.1309 29.3919 28.2677 29.6151 28.4837 29.7303L34.2149 32.3727C34.6541 32.6031 35.1869 32.2935 35.1869 31.7967L35.4317 5.55994C35.4389 5.07754 34.9421 4.75354 34.5029 4.94794Z" fill="url(#paint1_linear_1_15407)"/>
<path d="M24.5451 14.394L18.7635 10.974C18.3819 10.7508 17.9067 10.7508 17.5179 10.974L11.7363 14.394C11.3619 14.6172 11.1387 15.0132 11.1387 15.4452V22.3428C11.1387 22.7748 11.3691 23.1708 11.7363 23.394L17.5179 26.814C17.8995 27.0372 18.3747 27.0372 18.7635 26.814L24.5451 23.394C24.9195 23.1708 25.1427 22.7748 25.1427 22.3428V15.4452C25.1427 15.0132 24.9195 14.6172 24.5451 14.394Z" fill="url(#paint2_linear_1_15407)"/>
<defs>
<linearGradient id="paint0_linear_1_15407" x1="4.18295" y1="4.82323" x2="4.18295" y2="32.6254" gradientUnits="userSpaceOnUse">
<stop stop-color="#42C0EF"/>
<stop offset="1" stop-color="#4B69B2"/>
</linearGradient>
<linearGradient id="paint1_linear_1_15407" x1="31.7833" y1="4.82323" x2="31.7833" y2="32.6254" gradientUnits="userSpaceOnUse">
<stop stop-color="#42C0EF"/>
<stop offset="1" stop-color="#4B69B2"/>
</linearGradient>
<linearGradient id="paint2_linear_1_15407" x1="18.1425" y1="4.82293" x2="18.1425" y2="32.6251" gradientUnits="userSpaceOnUse">
<stop stop-color="#42C0EF"/>
<stop offset="1" stop-color="#4B69B2"/>
</linearGradient>
</defs>
</svg>
