<svg width="36" height="37" viewBox="0 0 36 37" fill="none" xmlns="http://www.w3.org/2000/svg">
<path d="M0.223633 26.0941C0.223633 25.0069 0.223633 24.0709 0.223633 23.0917C0.482833 22.9549 0.742033 22.7893 1.02283 22.6669C2.44123 22.0549 3.05323 21.0109 2.96683 19.4413C2.80123 16.5181 3.46363 13.7533 4.97563 11.2405C7.49563 7.05732 11.2108 4.63092 16.0564 3.96132C19.9372 3.42132 23.4436 4.40772 26.8204 6.63252C25.8268 7.13652 24.9484 7.58292 24.07 8.02932C18.7636 5.56692 13.8532 6.00612 9.43243 9.97332C6.27163 12.8101 5.17723 17.6989 5.90443 20.2045C15.8188 15.2149 25.7188 10.2253 35.7052 5.20692C35.7052 6.25812 35.7052 7.20852 35.7052 8.23092C23.9404 14.1565 12.1396 20.0965 0.223633 26.0941Z" fill="black"/>
<path d="M11.8947 29.133C16.8555 31.4658 21.4635 31.1994 25.7763 27.8658C29.5203 24.9714 30.7875 19.917 30.0891 16.9362C20.1531 21.9402 10.2459 26.9298 0.245117 31.9626C0.245117 30.8898 0.245117 29.9682 0.245117 28.9314C12.0027 23.013 23.8035 17.073 35.6907 11.0898C35.6907 12.1266 35.6907 13.0626 35.6907 14.085C35.5251 14.1786 35.3163 14.3154 35.0859 14.409C33.5235 15.0426 32.8827 16.1586 32.9907 17.8722C33.1563 20.6154 32.5299 23.2218 31.1619 25.605C28.5555 30.1266 24.6315 32.6898 19.4259 33.2514C15.7251 33.6474 12.3771 32.6754 9.15872 30.5298C10.1379 30.0258 11.0235 29.5794 11.8947 29.133Z" fill="black"/>
</svg>
