<svg width="36" height="37" viewBox="0 0 36 37" fill="none" xmlns="http://www.w3.org/2000/svg">
<path fill-rule="evenodd" clip-rule="evenodd" d="M12.9239 5.22885L3.82314 21.8825C3.25434 22.9913 3.69354 24.3521 4.80234 24.9209C4.97514 25.0073 5.16234 25.0793 5.34954 25.1153C8.51754 25.8641 14.5655 24.0065 19.4975 25.8641C24.4295 27.7217 26.7119 31.5233 29.6999 33.5393C30.3695 34.0217 31.1687 34.2809 31.9895 34.2881H32.0039C32.1767 34.2881 32.3351 34.2809 32.4935 34.2593C33.2567 34.1657 33.9767 33.8489 34.5599 33.3521C34.8911 33.0641 35.1719 32.7185 35.3951 32.3369C36.1295 31.1345 36.1583 29.6369 35.4671 28.4129L22.7951 5.24325C21.3047 2.52165 17.8847 1.52085 15.1631 3.01125C14.2127 3.51525 13.4351 4.28565 12.9239 5.22885Z" fill="url(#paint0_linear_1_15304)"/>
<path fill-rule="evenodd" clip-rule="evenodd" d="M6.83326 28.356C5.78926 26.6424 3.55726 26.0952 1.83646 27.1392C0.122856 28.1832 -0.424344 30.4152 0.619656 32.136C1.65646 33.8424 3.88126 34.3896 5.59486 33.36C7.31566 32.3304 7.87726 30.0912 6.84046 28.3704C6.84046 28.3704 6.83326 28.3632 6.83326 28.356Z" fill="url(#paint1_linear_1_15304)"/>
<path fill-rule="evenodd" clip-rule="evenodd" d="M7.35868 30.2861C7.32988 32.2949 5.68108 33.9005 3.67228 33.8717C1.65628 33.8429 0.050683 32.1941 0.079483 30.1853C0.093883 29.2421 0.468283 28.3493 1.13068 27.6797C0.187483 29.3645 0.749083 30.7325 1.42588 31.2437C2.46988 32.0429 5.05468 31.8773 7.35868 30.2861Z" fill="url(#paint2_linear_1_15304)"/>
<path fill-rule="evenodd" clip-rule="evenodd" d="M6.50172 22.1133C5.72412 22.3221 4.91772 21.8541 4.70892 21.0765C4.67292 20.9541 4.65852 20.8245 4.65852 20.7021C4.65852 20.5149 4.69452 20.3349 4.75932 20.1621L3.81612 21.8829C3.24732 22.9917 3.68652 24.3525 4.80252 24.9213C4.97532 25.0077 5.15532 25.0725 5.34972 25.1157C8.51772 25.8645 14.5657 24.0069 19.4977 25.8645C26.3737 28.4493 28.1809 34.7277 32.5081 34.2669C34.6825 33.9861 36.2161 31.9989 35.9353 29.8317C35.8705 29.3349 35.7121 28.8525 35.4745 28.4133L29.6857 17.8653C27.2233 13.3581 20.7577 14.3301 16.7905 16.0869C12.8233 17.8437 8.36652 21.5517 6.50172 22.1133Z" fill="url(#paint3_linear_1_15304)"/>
<path fill-rule="evenodd" clip-rule="evenodd" d="M4.34911 20.9104L3.81631 21.8824C3.24751 22.9912 3.6867 24.352 4.7955 24.9208C4.9683 25.0072 5.1555 25.0792 5.3427 25.1152C8.5107 25.864 14.5587 24.0064 19.4907 25.864C24.0699 27.5848 26.3667 30.9904 29.0595 33.0856C29.4483 33.4456 29.9595 33.64 30.4923 33.64C31.6371 33.64 32.5659 32.7112 32.5659 31.5664C32.5659 30.8032 32.0115 29.9968 31.6443 29.3344C23.9115 15.3664 15.7035 20.3776 6.3867 23.4808C6.2355 23.5312 6.0699 23.5528 5.9115 23.5456C4.9251 23.5384 4.13311 22.7392 4.13311 21.76C4.14031 21.4648 4.21231 21.1696 4.34911 20.9104Z" fill="url(#paint4_linear_1_15304)"/>
<defs>
<linearGradient id="paint0_linear_1_15304" x1="10.2263" y1="12.9184" x2="26.3386" y2="19.6687" gradientUnits="userSpaceOnUse">
<stop stop-color="#5F6DED"/>
<stop offset="1" stop-color="#49B9D9"/>
</linearGradient>
<linearGradient id="paint1_linear_1_15304" x1="1.57784" y1="30.6577" x2="6.67624" y2="29.6777" gradientUnits="userSpaceOnUse">
<stop stop-color="#5F6EED"/>
<stop offset="1" stop-color="#45C8D4"/>
</linearGradient>
<linearGradient id="paint2_linear_1_15304" x1="1.51197" y1="31.0447" x2="6.14966" y2="29.9374" gradientUnits="userSpaceOnUse">
<stop stop-color="#578BE5"/>
<stop offset="1" stop-color="#43CED3"/>
</linearGradient>
<linearGradient id="paint3_linear_1_15304" x1="7.5089" y1="18.7141" x2="34.5103" y2="26.2255" gradientUnits="userSpaceOnUse">
<stop stop-color="#5788E6"/>
<stop offset="1" stop-color="#3FDDCF"/>
</linearGradient>
<linearGradient id="paint4_linear_1_15304" x1="29.4255" y1="27.9511" x2="6.77922" y2="21.3102" gradientUnits="userSpaceOnUse">
<stop stop-color="#4452CF"/>
<stop offset="1" stop-color="#0BD3B9"/>
</linearGradient>
</defs>
</svg>
