<svg width="36" height="37" viewBox="0 0 36 37" fill="none" xmlns="http://www.w3.org/2000/svg">
<g clip-path="url(#clip0_1_15303)">
<path d="M18.0139 36.5708C27.9471 36.5708 35.9995 28.5184 35.9995 18.5852C35.9995 8.65204 27.9471 0.599609 18.0139 0.599609C8.08075 0.599609 0.0283203 8.65204 0.0283203 18.5852C0.0283203 28.5184 8.08075 36.5708 18.0139 36.5708Z" fill="#1E1E1E"/>
<path d="M8.20108 6.27374L22.8891 6.56174C26.4243 6.63374 27.5619 11.3497 24.4443 13.0201L8.70508 21.4729C7.96348 21.8689 7.06348 21.3361 7.06348 20.4937V7.38974C7.06348 6.76334 7.57468 6.25934 8.20108 6.27374Z" fill="white"/>
<path d="M27.4677 31.0559L11.0301 30.7535C6.9549 30.6815 5.6805 25.2167 9.3021 23.3447L27.2877 14.0423C27.9861 13.6823 28.8141 14.1863 28.8141 14.9711V29.7311C28.8141 30.4727 28.2021 31.0703 27.4677 31.0559Z" fill="white"/>
<path d="M23.0326 26.5925C24.146 26.5925 25.0486 25.69 25.0486 24.5765C25.0486 23.4631 24.146 22.5605 23.0326 22.5605C21.9192 22.5605 21.0166 23.4631 21.0166 24.5765C21.0166 25.69 21.9192 26.5925 23.0326 26.5925Z" fill="#00F97D"/>
</g>
<defs>
<clipPath id="clip0_1_15303">
<rect width="36" height="36" fill="white" transform="translate(0 0.578125)"/>
</clipPath>
</defs>
</svg>
