<svg width="36" height="37" viewBox="0 0 36 37" fill="none" xmlns="http://www.w3.org/2000/svg">
<g clip-path="url(#clip0_1_15894)">
<path d="M18.0003 0.701172C8.12908 0.701172 0.129883 8.70757 0.129883 18.5788C0.129883 20.5516 0.446683 22.4524 1.03708 24.2236H6.37948V9.18277L18.0003 20.8036L29.6139 9.18277V24.2236H34.9563C35.5467 22.4452 35.8635 20.5516 35.8635 18.5788C35.8707 8.70757 27.8715 0.701172 18.0003 0.701172Z" fill="#FF6600"/>
<path d="M15.3285 23.475L10.2597 18.4062V27.867H2.72852C5.86772 33.015 11.5341 36.4494 17.9997 36.4494C24.4653 36.4494 30.1317 33.015 33.2709 27.867H25.7397V18.4062L20.6709 23.475L17.9997 26.1462L15.3285 23.475Z" fill="#4C4C4C"/>
</g>
<defs>
<clipPath id="clip0_1_15894">
<rect width="36" height="36" fill="white" transform="translate(0 0.578125)"/>
</clipPath>
</defs>
</svg>
