<svg width="36" height="37" viewBox="0 0 36 37" fill="none" xmlns="http://www.w3.org/2000/svg">
<g clip-path="url(#clip0_1_15302)">
<path d="M34.8767 36.4261L17.9639 32.3509V30.4141L34.8767 34.5109V36.4261Z" fill="#56B3ED"/>
<path d="M34.8767 32.3518L17.9639 28.2766V26.3398L34.8767 30.4366V32.3518Z" fill="#56B3ED"/>
<path d="M34.8767 28.2047L17.9639 24.1223V22.1855L34.8767 26.2895V28.2047Z" fill="#56B3ED"/>
<path d="M17.906 15.0061L0.993164 10.9309V8.99414L17.906 13.0909V15.0061Z" fill="#56B3ED"/>
<path d="M17.906 10.9319L0.993164 6.84952V4.91992L17.906 9.01672V10.9319Z" fill="#56B3ED"/>
<path d="M17.906 6.77763L0.993164 2.70243V0.765625L17.906 4.86243V6.77763Z" fill="#56B3ED"/>
<path d="M0.950195 23.258L0.971795 21.0476L34.891 4.73242V6.92842L0.950195 23.258Z" fill="#6835CF"/>
<path d="M0.950195 27.9162L0.971795 25.7058L34.891 9.39062V11.5794L0.950195 27.9162Z" fill="#6835CF"/>
<path d="M0.950195 32.482L0.971795 30.2644L34.891 13.9492V16.1452L0.950195 32.482Z" fill="#6835CF"/>
</g>
<defs>
<clipPath id="clip0_1_15302">
<rect width="36" height="36" fill="white" transform="translate(0 0.578125)"/>
</clipPath>
</defs>
</svg>
