<svg width="36" height="37" viewBox="0 0 36 37" fill="none" xmlns="http://www.w3.org/2000/svg">
<g clip-path="url(#clip0_1_15787)">
<path d="M18.598 0.779297V16.8569C19.7788 17.1017 20.6716 18.1529 20.6716 19.4057C20.6716 20.8457 19.5052 22.0121 18.0652 22.0121C16.6252 22.0121 15.4588 20.8457 15.4588 19.4057C15.4588 18.1529 16.3444 17.1089 17.5252 16.8569V0.779297L1.80762 26.7713L18.1372 36.3257L34.2508 26.7713L18.598 0.779297Z" fill="#3C82B4"/>
<path d="M15.4657 19.4057C15.4657 18.1529 16.3513 17.1089 17.5321 16.8569V0.779297L1.81445 26.7713L15.6961 20.4713C15.5449 20.1473 15.4657 19.7873 15.4657 19.4057Z" fill="#3C82B4"/>
<path d="M18.0652 22.0056C17.0068 22.0056 16.0996 21.372 15.6892 20.4648L1.80762 26.772L18.1372 36.3264L18.0796 22.0056C18.0724 22.0056 18.0724 22.0056 18.0652 22.0056Z" fill="#2D4B69"/>
<path d="M20.4411 20.4727C20.0379 21.3799 19.1307 22.0063 18.0723 22.0135L18.1299 36.3343L34.2435 26.7799L20.4411 20.4727Z" fill="#142846"/>
<path d="M18.5977 0.779297V16.8569C19.7785 17.1017 20.6713 18.1529 20.6713 19.4057C20.6713 19.7873 20.5921 20.1473 20.4409 20.4713L34.2433 26.7785L18.5977 0.779297Z" fill="#1E3C64"/>
</g>
<defs>
<clipPath id="clip0_1_15787">
<rect width="36" height="36" fill="white" transform="translate(0 0.578125)"/>
</clipPath>
</defs>
</svg>
