<svg width="36" height="37" viewBox="0 0 36 37" fill="none" xmlns="http://www.w3.org/2000/svg">
<g clip-path="url(#clip0_1_15695)">
<path d="M9.58301 34.1659C12.0886 35.5267 14.947 36.2899 17.9782 36.2899C21.0094 36.2899 23.875 35.5267 26.3734 34.1659L17.9854 21.6523L9.58301 34.1659Z" fill="#E3232C"/>
<path d="M7.2073 18.6354V15.7266H16.5457V12.753H7.2073V9.85857H28.7713V12.753H19.4401V15.741H28.7785V18.6354H19.4401L28.8073 32.5818C32.9545 29.3634 35.6257 24.309 35.6257 18.6498C35.6257 8.90817 27.7273 1.00977 17.9857 1.00977C8.2441 1.00977 0.345703 8.90817 0.345703 18.6498C0.345703 24.309 3.0169 29.349 7.1641 32.5818L16.5313 18.6354H7.2073Z" fill="#E3232C"/>
</g>
<defs>
<clipPath id="clip0_1_15695">
<rect width="36" height="36" fill="white" transform="translate(0 0.578125)"/>
</clipPath>
</defs>
</svg>
