<svg width="36" height="37" viewBox="0 0 36 37" fill="none" xmlns="http://www.w3.org/2000/svg">
<path d="M13.8096 32.0199C13.5144 32.0199 13.2192 31.9479 12.9528 31.8183C12.6864 31.6815 12.4632 31.4871 12.2904 31.2495L4.8528 21.0399H0V17.3247H5.8104C6.1056 17.3247 6.4008 17.3967 6.6672 17.5263C6.9336 17.6631 7.1568 17.8575 7.3368 18.0951L13.4136 26.4327L22.68 5.44474C22.824 5.11354 23.0688 4.83274 23.3712 4.63834C23.6736 4.44394 24.0336 4.33594 24.4008 4.33594H36V8.05114H25.6248L15.5304 30.9039C15.4008 31.2063 15.1848 31.4655 14.9184 31.6599C14.652 31.8543 14.3352 31.9695 14.004 32.0055C13.9392 32.0055 13.8672 32.0055 13.8024 32.0055" fill="#00C389"/>
</svg>
