<svg width="36" height="37" viewBox="0 0 36 37" fill="none" xmlns="http://www.w3.org/2000/svg">
<path d="M5.33488 34.2623C3.71927 34.2623 2.15845 34.2623 0.385742 34.2623C1.60002 32.9994 2.69565 31.8607 3.79048 30.7211C6.28067 28.1291 8.73681 25.5033 11.2685 22.9523C14.8634 19.3302 20.5293 19.1643 24.407 22.5083C24.7268 22.784 25.029 23.0821 25.3214 23.3871C28.7478 26.9602 32.1708 30.5367 35.6999 34.2222C33.9879 34.2222 32.411 34.2222 31.2665 34.2222C29.3161 32.4224 27.5375 30.8327 25.8206 29.179C24.6252 28.0275 23.5512 26.7501 22.3584 25.5955C19.841 23.1587 15.959 23.2742 13.4922 25.8265C10.9522 28.4544 8.42548 31.0952 5.89108 33.7285C5.70431 33.9227 5.50235 34.1022 5.33488 34.2623ZM1.10502 4.06702C4.38282 7.49386 7.66213 10.9193 10.9409 14.3452C14.9418 18.5257 21.2692 18.4664 25.2918 14.2346C28.3295 11.0389 31.3972 7.87164 34.4484 4.68866C34.7877 4.33464 35.1061 3.96053 35.5449 3.47266C33.7144 3.47266 32.0937 3.47266 31.0751 3.47266C29.3512 5.03578 27.9262 6.25754 26.5843 7.56456C25.2438 8.87014 23.9989 10.2732 22.6901 11.612C19.9183 14.4474 16.029 14.3856 13.315 11.5195C10.7617 8.82334 8.17067 6.16301 5.58645 3.47676C3.98005 3.47676 2.38165 3.47676 0.589142 3.47676C0.838766 3.76332 0.965558 3.92122 1.10502 4.06702Z" fill="black"/>
</svg>
