<svg width="36" height="37" viewBox="0 0 36 37" fill="none" xmlns="http://www.w3.org/2000/svg">
<g clip-path="url(#clip0_1_15300)">
<path d="M2.2824 20.9402C2.2824 19.4498 2.2824 17.9594 2.2824 16.469C2.2824 16.2458 2.2752 16.0154 2.2968 15.7922C2.376 15.0362 2.952 14.7698 3.528 15.2666C7.5888 18.8018 12.4992 20.393 17.6328 21.4946C20.808 22.1714 23.8896 23.1146 26.6976 24.8066C27.3456 25.1954 27.972 25.6346 28.5408 26.1386C30.1392 27.557 29.9592 29.861 28.152 31.0202C27.1152 31.6826 26.0136 32.2658 24.948 32.885C23.2416 33.8642 21.5352 34.8434 19.8288 35.8298C18.7056 36.4778 17.5896 36.4922 16.4664 35.8514C12.276 33.4466 8.0856 31.0346 3.8952 28.6226C2.8008 27.989 2.2824 27.017 2.2824 25.757C2.2896 24.1442 2.2824 22.5458 2.2824 20.9402Z" fill="#151828"/>
<path d="M33.8611 16.1589C33.8611 17.8149 33.8611 19.4781 33.8611 21.1341C33.8611 21.5085 33.8539 21.8901 33.4291 22.0557C33.0331 22.2069 32.7379 22.0053 32.4499 21.7461C29.8939 19.4997 26.8987 18.0165 23.6803 17.0373C21.3187 16.3173 18.8995 15.7989 16.5091 15.1725C13.5859 14.4093 10.7779 13.3581 8.29391 11.5797C7.62431 11.1045 7.01231 10.5717 6.71711 9.7581C6.20591 8.3325 6.74591 6.8637 8.17871 6.0141C10.0435 4.9125 11.9299 3.8541 13.8019 2.7741C14.5795 2.3277 15.3715 1.8957 16.1347 1.4205C17.4523 0.5997 18.7123 0.7005 20.0227 1.4709C23.3419 3.4149 26.6899 5.3229 30.0235 7.2525C30.7075 7.6485 31.3843 8.0445 32.0683 8.4261C33.2923 9.1029 33.8827 10.1181 33.8611 11.5221C33.8395 13.0629 33.8539 14.6109 33.8611 16.1589Z" fill="#151828"/>
</g>
<defs>
<clipPath id="clip0_1_15300">
<rect width="36" height="36" fill="white" transform="translate(0 0.578125)"/>
</clipPath>
</defs>
</svg>
