<svg width="36" height="37" viewBox="0 0 36 37" fill="none" xmlns="http://www.w3.org/2000/svg">
<g clip-path="url(#clip0_1_15568)">
<path d="M7.96289 28.1404L9.03569 29.2132C10.7205 28.342 12.6285 27.8452 14.6589 27.8452C18.3813 27.8452 21.7149 29.5084 23.9613 32.1292L28.2525 27.838C25.5381 25.6132 22.0677 24.2812 18.2877 24.2812C14.3349 24.2884 10.7277 25.7428 7.96289 28.1404Z" fill="black"/>
<path d="M12.3262 32.5026L15.2998 35.4762C16.7686 36.945 19.1518 36.945 20.6206 35.4762L23.6158 32.4738C22.0894 31.2066 20.1238 30.4434 17.9854 30.4434C15.8326 30.4434 13.8526 31.221 12.3262 32.5026Z" fill="black"/>
<path d="M15.0336 13.4589C22.644 13.4589 29.5128 16.6125 34.4088 21.6813L34.8552 21.2349C36.324 19.7661 36.324 17.3829 34.8552 15.9141L20.6208 1.67973C19.152 0.210925 16.7688 0.210925 15.3 1.67973L1.0584 15.9141C0.4608 16.5117 0.108 17.2677 0 18.0453C4.2912 15.1509 9.468 13.4589 15.0336 13.4589Z" fill="black"/>
<path d="M18.2877 17.0078C12.3189 17.0078 6.87572 19.2398 2.72852 22.9046L3.84452 24.0206C6.92612 21.8606 10.6773 20.5934 14.7309 20.5934C20.4261 20.5934 25.5381 23.1062 29.0157 27.0734L33.4941 22.595C29.3973 19.1174 24.0837 17.0078 18.2877 17.0078Z" fill="black"/>
</g>
<defs>
<clipPath id="clip0_1_15568">
<rect width="36" height="36" fill="white" transform="translate(0 0.578125)"/>
</clipPath>
</defs>
</svg>
