<svg width="36" height="37" viewBox="0 0 36 37" fill="none" xmlns="http://www.w3.org/2000/svg">
<g clip-path="url(#clip0_1_15299)">
<path d="M21.8734 36.5781C19.2886 36.5781 17.4094 35.9589 16.2214 34.7205C15.0406 33.4821 14.4502 32.1501 14.4502 30.7173C14.4502 30.1917 14.551 29.7525 14.7598 29.3997C14.9614 29.0469 15.2566 28.7517 15.6022 28.5573C15.9622 28.3485 16.4014 28.2477 16.9198 28.2477C17.4454 28.2477 17.8846 28.3485 18.2374 28.5573C18.5974 28.7661 18.8782 29.0469 19.0798 29.3997C19.2886 29.7597 19.3894 30.1989 19.3894 30.7173C19.3894 31.3509 19.2382 31.8621 18.9358 32.2653C18.6334 32.6613 18.2734 32.9277 17.863 33.0501C18.223 33.5469 18.7846 33.8925 19.555 34.1013C20.3254 34.3245 21.0958 34.4325 21.8662 34.4325C22.939 34.4325 23.9038 34.1445 24.775 33.5685C25.639 32.9925 26.2798 32.1357 26.6902 31.0125C27.1006 29.8821 27.3094 28.6077 27.3094 27.1749C27.3094 25.6197 27.079 24.2949 26.6254 23.1933C26.1862 22.0773 25.531 21.2565 24.667 20.7165C23.8246 20.1909 22.8526 19.9101 21.8662 19.9101C21.2038 19.9101 20.383 20.1837 19.3894 20.7381L17.575 21.6453V20.7381L25.7398 9.85172H14.4502V21.1485C14.4502 22.0845 14.659 22.8549 15.0694 23.4597C15.4798 24.0645 16.1134 24.3669 16.9702 24.3669C17.6326 24.3669 18.259 24.1437 18.8638 23.7045C19.4758 23.2581 20.0014 22.7181 20.4334 22.0989C20.491 21.9765 20.5558 21.8829 20.6422 21.8325C20.7142 21.7677 20.815 21.7317 20.9086 21.7317C21.0598 21.7317 21.2398 21.8037 21.4414 21.9621C21.6358 22.1781 21.7294 22.4373 21.7294 22.7253C21.7078 22.9197 21.6718 23.1141 21.6286 23.3013C21.1606 24.3453 20.5126 25.1445 19.6918 25.6917C18.8854 26.2317 17.9422 26.5197 16.9702 26.5197C14.5222 26.5197 12.8302 26.0373 11.8942 25.0797C10.9582 24.1149 10.4902 22.8117 10.4902 21.1629V9.85892H4.71582V7.75652H10.4902V2.96852L9.17262 1.65092V0.578125H13.0102L14.4502 1.31972V7.74932L29.3758 7.71332L30.859 9.19652L21.7078 18.3477C22.2622 18.1245 22.8454 17.9877 23.443 17.9373C24.4294 17.9373 25.5454 18.2541 26.7838 18.8877C28.0366 19.5069 28.9942 20.3565 29.671 21.4437C30.3478 22.5165 30.7798 23.5461 30.967 24.5397C31.1758 25.5333 31.2766 26.4117 31.2766 27.1821C31.2766 28.9389 30.9022 30.5805 30.1606 32.0925C29.419 33.6045 28.2886 34.7277 26.7766 35.4765C25.2646 36.2037 23.6302 36.5781 21.8734 36.5781Z" fill="#2C7DF7"/>
</g>
<defs>
<clipPath id="clip0_1_15299">
<rect width="36" height="36" fill="white" transform="translate(0 0.578125)"/>
</clipPath>
</defs>
</svg>
