<svg width="36" height="37" viewBox="0 0 36 37" fill="none" xmlns="http://www.w3.org/2000/svg">
<path d="M9.10782 3.01953L0.21582 18.4059L9.10062 33.7995H26.8774L27.1726 33.2955L35.7694 18.4131L26.8846 3.01953H9.10782ZM10.7998 5.05713H23.9686L15.3142 7.79313C15.4726 8.05233 15.5878 8.33313 15.6454 8.62833L25.6102 5.48913L27.5974 15.1587C27.8854 15.0723 28.1878 15.0291 28.4902 15.0291L26.8198 7.02273L33.1414 17.9667H31.867C31.8814 18.1179 31.8886 18.2619 31.8886 18.4131C31.8886 18.5643 31.8814 18.7155 31.867 18.8595H33.1414L26.611 30.1779L28.4398 21.8043C28.1446 21.7971 27.8494 21.7539 27.5614 21.6675L25.4086 31.5243L15.6598 28.2627C15.6094 28.5507 15.5086 28.8387 15.379 29.0979L23.3062 31.7547H10.7998L11.4694 30.6099C11.1886 30.5019 10.9222 30.3651 10.6846 30.1851L10.0294 31.3155L3.79422 20.5155L9.97182 25.9731C10.1446 25.7283 10.3462 25.4979 10.5766 25.3035L2.79342 18.4347L10.8646 11.2779C10.6486 11.0691 10.4686 10.8243 10.3318 10.5579L3.74382 16.4043L10.0294 5.50353L10.9582 7.12353C11.1886 6.92193 11.4406 6.75633 11.7214 6.63393L10.7998 5.05713ZM15.5158 10.2627C15.4078 10.5435 15.2566 10.8027 15.0694 11.0403L25.423 17.0235C25.5454 16.7499 25.7038 16.4979 25.8982 16.2675L15.5158 10.2627ZM12.175 12.0195V24.5979C12.3118 24.5763 12.4486 24.5691 12.5854 24.5691C12.7438 24.5691 12.9094 24.5763 13.0678 24.6051V12.0771C12.9958 12.0843 12.9238 12.0843 12.8518 12.0771C12.6214 12.0771 12.3982 12.0483 12.175 11.9979V12.0195ZM25.4302 19.8027L15.0622 25.7859C15.2494 26.0235 15.4006 26.2899 15.5086 26.5707L25.8982 20.5587C25.711 20.3211 25.5526 20.0691 25.4302 19.8027Z" fill="#8D8FC6"/>
<path d="M12.8594 6.39651C11.2826 6.38931 10.0082 7.66371 10.001 9.23331C9.99381 10.8029 11.2682 12.0845 12.8378 12.0917C14.4074 12.0989 15.689 10.8245 15.6962 9.25491C15.6962 9.24771 15.6962 9.24771 15.6962 9.24051C15.6962 7.67811 14.429 6.40371 12.8594 6.39651ZM12.8594 7.29651C13.9394 7.29651 14.8106 8.17491 14.8106 9.24771C14.8106 10.3205 13.9322 11.1989 12.8594 11.1989C11.7866 11.1989 10.9082 10.3205 10.9082 9.24771C10.901 8.17491 11.7722 7.29651 12.845 7.29651C12.8522 7.29651 12.8594 7.29651 12.8594 7.29651Z" fill="#579FD6"/>
<path d="M12.5929 24.5684C10.8649 24.5684 9.46094 25.9652 9.46094 27.6932C9.46094 29.4212 10.8577 30.8252 12.5857 30.8252C14.3137 30.8252 15.7177 29.4284 15.7177 27.7004V27.6932C15.7105 25.9724 14.3137 24.5756 12.5929 24.5684ZM12.5929 25.454C13.8313 25.454 14.8321 26.4476 14.8393 27.686C14.8393 28.9244 13.8457 29.9252 12.6073 29.9324C11.3689 29.9396 10.3681 28.9388 10.3609 27.7004V27.6932C10.3537 26.462 11.3545 25.4612 12.5929 25.454Z" fill="#F27046"/>
<path d="M28.5195 15.0215C26.6475 15.0215 25.1283 16.5335 25.1211 18.4055C25.1211 20.2775 26.6331 21.7967 28.5051 21.8039C30.3771 21.8039 31.8963 20.2919 31.9035 18.4199C31.9035 18.4199 31.9035 18.4199 31.9035 18.4127C31.8963 16.5407 30.3843 15.0215 28.5195 15.0215ZM28.5195 15.9143C29.8947 15.9143 31.0179 17.0303 31.0179 18.4127C31.0179 19.7879 29.9019 20.9111 28.5195 20.9111C27.1443 20.9111 26.0211 19.7951 26.0211 18.4127C26.0139 17.0375 27.1227 15.9215 28.4979 15.9143C28.5051 15.9143 28.5123 15.9143 28.5195 15.9143Z" fill="#EB407A"/>
</svg>
