<svg width="36" height="37" viewBox="0 0 36 37" fill="none" xmlns="http://www.w3.org/2000/svg">
<g clip-path="url(#clip0_1_15305)">
<path d="M23.3216 24.7047H29.9405V30.4887H10.054L34.7407 5.80212C35.5457 4.99712 35.7842 3.77472 35.3668 2.73121C34.9195 1.6877 33.9058 1.00195 32.7431 1.00195H3.25624C1.67605 1.00195 0.423828 2.25418 0.423828 3.83436V24.7047L12.6777 12.4508H6.05882V6.63693H25.9155L1.25865 31.3236C0.453651 32.1286 0.215144 33.351 0.632542 34.3945C1.07976 35.438 2.09346 36.1237 3.25624 36.1237H32.743C34.2934 36.1237 35.5755 34.8715 35.5755 33.2913V12.4508L23.3216 24.7047Z" fill="#23B852"/>
</g>
<defs>
<clipPath id="clip0_1_15305">
<rect width="36" height="36" fill="white" transform="translate(0 0.578125)"/>
</clipPath>
</defs>
</svg>
