<svg width="36" height="37" viewBox="0 0 36 37" fill="none" xmlns="http://www.w3.org/2000/svg">
<g clip-path="url(#clip0_1_15669)">
<path d="M18.0074 36.1887C27.7418 36.1887 35.633 28.2975 35.633 18.5631C35.633 8.82875 27.7418 0.9375 18.0074 0.9375C8.27309 0.9375 0.381836 8.82875 0.381836 18.5631C0.381836 28.2975 8.27309 36.1887 18.0074 36.1887Z" fill="url(#paint0_linear_1_15669)"/>
<path d="M18.8858 11.832H17.3018V26.1528H18.8858V11.832Z" fill="white"/>
<path d="M25.099 14.675L23.047 15.3374C23.443 14.3366 23.4862 13.235 23.4862 13.0982V13.0766C23.4862 10.0166 20.995 7.52539 17.935 7.52539C14.875 7.52539 12.3838 10.0166 12.3838 13.0766C12.3838 14.9198 13.291 16.6334 14.8174 17.6702L16.5814 18.9662V17.0006L15.739 16.3814L15.7174 16.367C14.623 15.6254 13.9678 14.3942 13.9678 13.0766C13.9678 10.8878 15.7462 9.10939 17.935 9.10939C20.1166 9.10939 21.895 10.8806 21.9022 13.0694C21.8878 13.3718 21.8086 14.1782 21.5566 14.7974L20.9086 12.479L19.3822 12.9038L20.743 17.7494L25.5814 16.187L25.099 14.675Z" fill="white"/>
<path d="M20.6207 19.9675L19.6055 19.2188V21.1844L19.6919 21.2492L19.6991 21.2564C21.1679 22.3076 21.9095 23.5388 21.9095 24.9139C21.9095 27.1028 20.1311 28.8812 17.9423 28.8812C15.7535 28.8812 13.9751 27.1028 13.9751 24.9139C13.9751 24.1868 14.2703 23.3875 14.6735 22.7395L15.0335 25.4324L16.6031 25.2235L15.9407 20.2555L10.8359 21.2132L11.1311 22.7684L12.9815 22.4227C12.5927 23.1931 12.3911 24.0356 12.3911 24.9139C12.3911 27.974 14.8823 30.4652 17.9423 30.4652C21.0023 30.4652 23.4935 27.974 23.4935 24.9139C23.4863 23.0276 22.4927 21.3139 20.6207 19.9675Z" fill="white"/>
</g>
<defs>
<linearGradient id="paint0_linear_1_15669" x1="2.74057" y1="9.74787" x2="33.2708" y2="27.3745" gradientUnits="userSpaceOnUse">
<stop stop-color="#0077FD"/>
<stop offset="1" stop-color="#095EB4"/>
</linearGradient>
<clipPath id="clip0_1_15669">
<rect width="36" height="36" fill="white" transform="translate(0 0.578125)"/>
</clipPath>
</defs>
</svg>
