<svg width="36" height="37" viewBox="0 0 36 37" fill="none" xmlns="http://www.w3.org/2000/svg">
<path d="M12.4438 25.8895C14.0588 25.8895 15.3681 24.5803 15.3681 22.9653C15.3681 21.3503 14.0588 20.041 12.4438 20.041C10.8288 20.041 9.51953 21.3503 9.51953 22.9653C9.51953 24.5803 10.8288 25.8895 12.4438 25.8895Z" fill="#21A5DE"/>
<path d="M18.0415 20.2919C19.6565 20.2919 20.9657 18.9827 20.9657 17.3676C20.9657 15.7526 19.6565 14.4434 18.0415 14.4434C16.4264 14.4434 15.1172 15.7526 15.1172 17.3676C15.1172 18.9827 16.4264 20.2919 18.0415 20.2919Z" fill="#21A5DE"/>
<path d="M23.6401 25.8895C25.2551 25.8895 26.5644 24.5803 26.5644 22.9653C26.5644 21.3503 25.2551 20.041 23.6401 20.041C22.0251 20.041 20.7158 21.3503 20.7158 22.9653C20.7158 24.5803 22.0251 25.8895 23.6401 25.8895Z" fill="#21A5DE"/>
<path d="M29.2377 20.2919C30.8528 20.2919 32.162 18.9827 32.162 17.3676C32.162 15.7526 30.8528 14.4434 29.2377 14.4434C27.6227 14.4434 26.3135 15.7526 26.3135 17.3676C26.3135 18.9827 27.6227 20.2919 29.2377 20.2919Z" fill="#21A5DE"/>
<path d="M6.84614 20.2919C8.46117 20.2919 9.77041 18.9827 9.77041 17.3676C9.77041 15.7526 8.46117 14.4434 6.84614 14.4434C5.23111 14.4434 3.92188 15.7526 3.92188 17.3676C3.92188 18.9827 5.23111 20.2919 6.84614 20.2919Z" fill="#21A5DE"/>
<path d="M9.64496 21.2098C10.2218 21.2098 10.6893 20.7423 10.6893 20.1655C10.6893 19.5887 10.2218 19.1211 9.64496 19.1211C9.06817 19.1211 8.60059 19.5887 8.60059 20.1655C8.60059 20.7423 9.06817 21.2098 9.64496 21.2098Z" fill="#21A5DE"/>
<path d="M15.2426 21.2098C15.8194 21.2098 16.287 20.7423 16.287 20.1655C16.287 19.5887 15.8194 19.1211 15.2426 19.1211C14.6658 19.1211 14.1982 19.5887 14.1982 20.1655C14.1982 20.7423 14.6658 21.2098 15.2426 21.2098Z" fill="#21A5DE"/>
<path d="M20.8403 21.2098C21.4171 21.2098 21.8846 20.7423 21.8846 20.1655C21.8846 19.5887 21.4171 19.1211 20.8403 19.1211C20.2635 19.1211 19.7959 19.5887 19.7959 20.1655C19.7959 20.7423 20.2635 21.2098 20.8403 21.2098Z" fill="#21A5DE"/>
<path d="M26.4389 21.2098C27.0157 21.2098 27.4833 20.7423 27.4833 20.1655C27.4833 19.5887 27.0157 19.1211 26.4389 19.1211C25.8621 19.1211 25.3945 19.5887 25.3945 20.1655C25.3945 20.7423 25.8621 21.2098 26.4389 21.2098Z" fill="#21A5DE"/>
<path d="M18 35.873C27.5517 35.873 35.2949 28.1298 35.2949 18.5781C35.2949 9.02639 27.5517 1.2832 18 1.2832C8.44827 1.2832 0.705078 9.02639 0.705078 18.5781C0.705078 28.1298 8.44827 35.873 18 35.873Z" stroke="#21A5DE" stroke-width="0.1008" stroke-miterlimit="10"/>
</svg>
