<svg width="36" height="37" viewBox="0 0 36 37" fill="none" xmlns="http://www.w3.org/2000/svg">
<g clip-path="url(#clip0_1_15846)">
<path d="M18 36.543C27.9411 36.543 36 28.4841 36 18.543C36 8.60184 27.9411 0.542969 18 0.542969C8.05887 0.542969 0 8.60184 0 18.543C0 28.4841 8.05887 36.543 18 36.543Z" fill="white"/>
<path d="M27.7196 10.2839L26.3516 8.9159L23.3708 11.8967L20.5628 9.0887L19.1948 7.7207L17.9636 8.9519L7.19238 19.7231L8.56038 21.0911L11.3684 23.8991L8.30118 26.9663L9.66918 28.3343L12.722 25.2815C14.234 26.6351 16.2284 27.4631 18.4244 27.4631C23.1476 27.4631 26.9708 23.6399 26.9708 18.9167C26.9708 16.7279 26.15 14.7263 24.7892 13.2143L27.7196 10.2839ZM9.79158 19.8527L19.3316 10.3127L22.1396 13.1207L12.6068 22.6607L9.79158 19.8527ZM25.034 18.7727C25.034 22.5239 21.9956 25.5623 18.2444 25.5623C16.6172 25.5623 15.1268 24.9935 13.9604 24.0359L23.5076 14.4887C24.4652 15.6551 25.034 17.1527 25.034 18.7727Z" fill="black"/>
</g>
<defs>
<clipPath id="clip0_1_15846">
<rect width="36" height="36" fill="white" transform="translate(0 0.578125)"/>
</clipPath>
</defs>
</svg>
