<svg width="36" height="37" viewBox="0 0 36 37" fill="none" xmlns="http://www.w3.org/2000/svg">
<g clip-path="url(#clip0_1_15823)">
<path d="M13.3491 15.8285C12.6579 16.5485 11.9667 17.2685 11.2467 18.0245C11.1243 17.9093 11.0163 17.8229 10.9299 17.7221C10.1163 16.7069 9.55474 15.5837 9.48994 14.2661C9.43234 13.0853 9.69874 11.9981 10.5339 11.1053C11.2683 10.3133 12.2043 10.0397 13.2411 10.0325C15.4155 10.0253 17.5971 10.0325 19.7715 10.0325C20.7435 10.0325 21.7155 10.0253 22.6875 10.0397C23.5659 10.0469 24.3939 10.2413 25.0995 10.8173C25.9059 11.4725 26.3595 12.3365 26.5323 13.3301C26.6187 13.8197 26.6259 14.3237 26.6043 14.8205C26.5683 15.5045 26.2803 16.1165 25.9059 16.6925C25.1499 17.8733 24.2499 18.9389 23.2635 19.9181C22.4067 20.7677 21.5139 21.5813 20.6067 22.3661C20.0955 22.8125 19.4835 23.1077 18.8211 23.2661C17.9787 23.4749 17.1723 23.3453 16.4019 22.9709C15.6171 22.5893 14.9907 21.9989 14.3355 21.3509C15.0051 20.6597 15.6675 19.9829 16.3515 19.2917C16.4739 19.3925 16.5675 19.4645 16.6611 19.5437C16.7691 19.6373 16.8699 19.7381 16.9779 19.8245C17.7411 20.4293 18.2955 20.4437 19.0443 19.8245C19.4547 19.4861 19.8363 19.1117 20.2035 18.7301C21.1251 17.7509 22.0251 16.7501 22.9323 15.7565C23.2419 15.4181 23.4795 15.0437 23.6163 14.5973C23.8395 13.8773 23.4579 13.1933 22.7883 12.9197C22.2411 12.6965 21.6723 12.5957 21.0891 12.5885C19.1307 12.5741 17.1723 12.5741 15.2139 12.5885C14.6595 12.5885 14.1195 12.7037 13.6155 12.9341C13.2555 13.0997 12.9459 13.3301 12.7587 13.7045C12.4995 14.2301 12.6579 14.7125 12.9027 15.1805C13.0323 15.3749 13.1907 15.5765 13.3491 15.8285Z" fill="#E61F1A"/>
<path d="M24.8764 19.4717C24.9628 19.5221 25.0204 19.5365 25.042 19.5653C26.0932 20.7965 26.7484 22.1861 26.6332 23.8493C26.5684 24.7565 26.2804 25.5917 25.6684 26.2901C25.078 26.9597 24.3364 27.3053 23.458 27.3917C23.242 27.4133 23.0188 27.4061 22.8028 27.4061C19.6708 27.4061 16.5388 27.3773 13.4068 27.4205C11.2972 27.4493 9.99401 25.9517 9.61961 24.2957C9.31721 22.9637 9.54761 21.7541 10.3252 20.6381C10.5916 20.2493 10.858 19.8605 11.1532 19.5005C12.4348 17.9165 13.8532 16.4549 15.4444 15.1805C15.8404 14.8637 16.3084 14.6045 16.7764 14.4029C17.7988 13.9565 18.8212 14.0429 19.8148 14.5469C20.5636 14.9285 21.154 15.5117 21.8092 16.1165C21.1324 16.8149 20.4844 17.4989 19.8076 18.1973C19.6924 18.1109 19.6132 18.0461 19.5268 17.9813C19.318 17.8157 19.1092 17.6501 18.9004 17.4917C18.3964 17.1245 17.8564 17.1245 17.374 17.4845C16.8988 17.8373 16.4596 18.2477 16.0564 18.6725C15.034 19.7525 14.0332 20.8541 13.0468 21.9629C12.838 22.2005 12.6796 22.5101 12.5572 22.8125C12.3052 23.4389 12.5356 24.0797 13.1044 24.4469C13.4932 24.6989 13.9396 24.8069 14.3932 24.8573C14.7676 24.9005 15.142 24.9221 15.5164 24.9293C17.1796 24.9365 18.8356 24.9437 20.4988 24.9293C21.154 24.9221 21.8092 24.8789 22.4356 24.6197C23.4364 24.1949 23.7676 23.3813 23.278 22.4165C23.1556 22.1645 22.9828 21.9413 22.8028 21.6605C23.494 20.9189 24.1852 20.1917 24.8764 19.4717Z" fill="#E61F1A"/>
<path d="M17.978 0.988281C8.22201 0.988281 0.316406 8.89388 0.316406 18.6499C0.316406 28.4059 8.22201 36.3115 17.978 36.3115C27.734 36.3115 35.6396 28.4059 35.6396 18.6499C35.6396 8.89388 27.734 0.988281 17.978 0.988281ZM17.978 33.6835C9.67641 33.6835 2.94441 26.9515 2.94441 18.6499C2.94441 10.3483 9.67641 3.61628 17.978 3.61628C26.2796 3.61628 33.0116 10.3483 33.0116 18.6499C33.0116 26.9515 26.2796 33.6835 17.978 33.6835Z" fill="#E61F1A"/>
</g>
<defs>
<clipPath id="clip0_1_15823">
<rect width="36" height="36" fill="white" transform="translate(0 0.578125)"/>
</clipPath>
</defs>
</svg>
