<svg width="36" height="37" viewBox="0 0 36 37" fill="none" xmlns="http://www.w3.org/2000/svg">
<g clip-path="url(#clip0_1_15423)">
<path d="M22.2698 25.1873L18.9794 19.4921C20.6498 19.0529 21.8738 17.5409 21.8738 15.7337C21.8738 13.5881 20.1314 11.8457 17.9858 11.8457C15.8402 11.8457 14.0978 13.5881 14.0978 15.7337C14.0978 17.5553 15.3506 19.0889 17.0498 19.5065L13.7666 25.1873H22.2698Z" fill="#009FEB"/>
<path d="M17.9717 7.43317C21.5789 7.43317 24.7901 9.15397 26.8277 11.8252L22.7309 13.3732C23.0909 14.086 23.2924 14.8852 23.2924 15.7348C23.2924 17.5276 22.3925 19.1548 20.9669 20.1124L21.6005 21.214L35.6764 16.0876C34.4596 7.38997 27.0005 0.701172 17.9717 0.701172C10.9301 0.701172 4.83885 4.77637 1.92285 10.6948H10.1021C12.1253 8.67877 14.9045 7.43317 17.9717 7.43317Z" fill="#009FEB"/>
<path d="M17.9714 29.7239C14.5154 29.7239 11.4194 28.1399 9.37464 25.6631L12.5498 24.5111L12.5642 24.4895L15.0698 20.1479C13.9898 19.4351 13.2122 18.3479 12.881 17.0879L0.381836 21.7895C1.89384 30.1271 9.19464 36.4559 17.9714 36.4559C25.0346 36.4559 31.1474 32.3591 34.049 26.4047H25.8914C23.8682 28.4495 21.0674 29.7239 17.9714 29.7239Z" fill="#009FEB"/>
</g>
<defs>
<clipPath id="clip0_1_15423">
<rect width="36" height="36" fill="white" transform="translate(0 0.578125)"/>
</clipPath>
</defs>
</svg>
