<svg width="36" height="37" viewBox="0 0 36 37" fill="none" xmlns="http://www.w3.org/2000/svg">
<g clip-path="url(#clip0_1_15660)">
<path d="M35.7974 18.6243C35.7934 28.3545 27.8794 36.1144 17.9669 36.1077C8.10662 36.101 0.192809 28.2761 0.198245 18.5385C0.203645 8.85077 8.22139 1.05014 18.1586 1.06447C27.8901 1.07851 35.8013 8.95434 35.7974 18.6243ZM31.8769 18.3821C31.7069 14.6654 30.4502 11.407 27.7371 8.79976C24.1995 5.4002 19.9429 4.41951 15.1967 5.18795C9.8547 6.05285 4.00557 11.1994 4.13204 18.8224C4.25368 26.1545 10.3524 32.2229 18.0156 32.1885C25.8433 32.1533 32.0002 25.8843 31.8769 18.3821Z" fill="#030302"/>
<path d="M31.8759 18.3824C32 25.8843 25.8432 32.1533 18.0155 32.1884C10.3523 32.2229 4.25352 26.1545 4.1319 18.8224C4.00543 11.1994 9.85458 6.05282 15.1966 5.18792C19.9428 4.41948 24.1994 5.40017 27.737 8.79972C30.4501 11.4069 31.7068 14.6654 31.8759 18.3824Z" fill="#DEA038"/>
<path d="M16.0749 26.94C14.4448 26.94 12.9443 26.94 11.4297 26.94C11.1288 25.175 11.3424 23.6495 12.542 22.2222C14.6497 19.7144 16.3744 16.9032 18.6989 14.3492C16.3562 14.3492 14.1765 14.3492 11.9449 14.3492C11.9449 12.9643 11.9449 11.6566 11.9449 10.2526C13.2787 10.2526 14.6283 10.2526 16.0459 10.2526C16.0459 9.19735 16.0459 8.23548 16.0459 7.21875C17.326 7.21875 18.5372 7.21875 19.8413 7.21875C19.8413 8.20045 19.8413 9.18059 19.8413 10.2364C21.4023 10.2364 22.8734 10.2364 24.3951 10.2364C24.4164 11.9057 24.5868 13.4063 23.3865 14.8522C21.2961 17.3704 19.5568 20.1718 17.3073 22.7961C19.8499 22.7961 22.24 22.7961 24.664 22.7961C24.664 24.2043 24.664 25.516 24.664 26.9074C23.085 26.9074 21.5205 26.9074 19.8798 26.9074C19.8798 27.9229 19.8798 28.8613 19.8798 29.8501C18.5877 29.8501 17.372 29.8501 16.0748 29.8501C16.0749 28.9115 16.0749 27.9739 16.0749 26.94Z" fill="#030302"/>
</g>
<defs>
<clipPath id="clip0_1_15660">
<rect width="36" height="36" fill="white" transform="translate(0 0.578125)"/>
</clipPath>
</defs>
</svg>
