<svg width="36" height="37" viewBox="0 0 36 37" fill="none" xmlns="http://www.w3.org/2000/svg">
<g clip-path="url(#clip0_1_15298)">
<path d="M32.3856 8.28125L29.4912 12.7668C30.3768 14.5093 30.8808 16.4892 30.8808 18.5772C30.8808 25.6836 25.1136 31.4508 18.0072 31.4508C15.9192 31.4508 13.9464 30.9541 12.204 30.0684L7.72559 32.9628C10.6272 35.0364 14.1696 36.2677 18.0144 36.2677C27.7848 36.2677 35.6976 28.3477 35.6976 18.5844C35.6904 14.7397 34.4664 11.1828 32.3856 8.28125Z" fill="url(#paint0_radial_1_15298)"/>
<path d="M18.0076 27.4332C22.3636 27.4332 25.9852 24.3012 26.7412 20.1684C25.366 19.8732 23.9332 19.7148 22.4644 19.7148C18.0508 19.7148 13.9684 21.126 10.6348 23.5164C12.2332 25.878 14.9404 27.4332 18.0076 27.4332Z" fill="url(#paint1_radial_1_15298)"/>
<path d="M22.385 18.1025C23.933 18.1025 25.4378 18.2681 26.8922 18.5849C26.8922 13.6745 22.9178 9.70013 18.0074 9.70013C13.097 9.70013 9.12262 13.6745 9.12262 18.5849C9.12262 18.9881 9.15142 19.3841 9.20182 19.7729C6.96262 21.4721 5.90422 22.8185 5.86822 22.8617C5.39302 21.5225 5.13382 20.0825 5.13382 18.5849C5.13382 11.4785 10.901 5.71133 18.0074 5.71133C20.0882 5.71133 22.0538 6.20813 23.7962 7.08653L28.2818 4.18493C25.3802 2.11133 21.8378 0.894531 18.0074 0.894531C8.23702 0.894531 0.324219 8.81453 0.324219 18.5777C0.324219 22.5089 1.61302 26.1377 3.78022 29.0753C4.61542 27.5633 5.63782 26.1593 6.80422 24.8993C6.80422 24.8993 8.54662 23.0777 9.88582 22.1633C13.3922 19.6073 17.7122 18.1025 22.385 18.1025Z" fill="black"/>
</g>
<defs>
<radialGradient id="paint0_radial_1_15298" cx="0" cy="0" r="1" gradientUnits="userSpaceOnUse" gradientTransform="translate(32.3868 8.26398) scale(29.7567)">
<stop offset="0.0986" stop-color="#26DB8D"/>
<stop offset="0.2628" stop-color="#23D29A"/>
<stop offset="0.5637" stop-color="#1ABBBB"/>
<stop offset="0.886" stop-color="#0E9DE5"/>
</radialGradient>
<radialGradient id="paint1_radial_1_15298" cx="0" cy="0" r="1" gradientUnits="userSpaceOnUse" gradientTransform="translate(32.3872 8.26397) scale(29.7567 29.7567)">
<stop offset="0.0986" stop-color="#26DB8D"/>
<stop offset="0.2628" stop-color="#23D29A"/>
<stop offset="0.5637" stop-color="#1ABBBB"/>
<stop offset="0.886" stop-color="#0E9DE5"/>
</radialGradient>
<clipPath id="clip0_1_15298">
<rect width="36" height="36" fill="white" transform="translate(0 0.578125)"/>
</clipPath>
</defs>
</svg>
