<svg width="36" height="37" viewBox="0 0 36 37" fill="none" xmlns="http://www.w3.org/2000/svg">
<g clip-path="url(#clip0_1_15553)">
<path d="M26.1156 36.2453C25.8921 36.4428 25.7143 36.2549 25.5327 36.1678C21.8538 34.4038 18.1776 32.6345 14.4984 30.8712C11.7771 29.567 9.05503 28.2643 6.32571 26.9771C5.99633 26.8218 5.85105 26.6468 5.8567 26.2684C5.8783 24.8221 5.87222 23.3752 5.86109 21.9286C5.8587 21.6176 5.9289 21.4383 6.2446 21.2858C10.5459 19.208 14.8376 17.11 19.1307 15.0153C19.2755 14.9446 19.5093 14.9149 19.5105 14.7394C19.5118 14.5592 19.272 14.5341 19.1296 14.4656C14.8551 12.4092 10.5798 10.3546 6.2984 8.31269C5.98594 8.16367 5.85177 7.99783 5.85686 7.63918C5.87738 6.19281 5.86174 4.74595 5.87054 3.29935C5.87161 3.12617 5.75882 2.87541 6.07115 2.82031C6.0817 2.98408 6.21163 3.02906 6.33214 3.08617C6.82561 3.32003 7.31931 3.55338 7.81109 3.79075C10.4998 5.08844 13.1856 6.39202 15.8768 7.68442C19.226 9.29277 22.5794 10.8922 25.931 12.4955C25.9312 14.0119 25.9295 15.5282 25.9344 17.0446C25.935 17.2349 25.8709 17.4451 26.043 17.6051C25.0926 18.2133 24.0643 18.6744 23.0609 19.1824C19.6284 20.9203 16.1953 22.6567 12.763 24.3949C12.6618 24.4462 12.5135 24.4753 12.5051 24.6051C12.4953 24.7563 12.6607 24.7468 12.7574 24.7935C15.8495 26.2854 18.9408 27.779 22.0355 29.2656C23.3364 29.8905 24.6446 30.5002 25.9495 31.1167C25.9438 32.7099 25.9379 34.3032 25.9331 35.8965C25.9326 36.0429 25.9037 36.2082 26.1156 36.2453Z" fill="#4DC0BE"/>
<path d="M25.931 12.4956C22.5795 10.8924 19.226 9.29289 15.8769 7.68453C13.1857 6.39213 10.4999 5.08856 7.81122 3.7909C7.31944 3.55355 6.82572 3.32018 6.33227 3.08633C6.21176 3.02921 6.08184 2.98423 6.07129 2.82047C7.66288 2.12081 9.25585 1.42401 10.845 0.718732C11.135 0.590032 11.3606 0.733276 11.5968 0.847072C13.7336 1.87628 15.8668 2.91275 18.0058 3.93733C22.2664 5.97817 26.5299 8.01275 30.7918 10.0508C30.8358 10.0718 30.874 10.1049 30.9149 10.1324C30.9467 10.3288 30.8152 10.3722 30.6662 10.4352C30.2232 10.6226 29.7924 10.8387 29.3508 11.0298C28.2126 11.5224 27.0712 12.0075 25.931 12.4956Z" fill="#077A8D"/>
<path d="M26.1157 36.2455C25.9038 36.2084 25.9328 36.0432 25.9332 35.8967C25.938 34.3034 25.9439 32.7101 25.9496 31.117C25.9544 31.0888 25.9692 31.0675 25.9938 31.0533C26.0764 30.8973 26.0396 30.7284 26.0398 30.5654C26.0422 28.2135 26.0445 25.8616 26.0404 23.5097C26.0386 22.4671 26.0226 21.4244 26.013 20.3818C26.1805 20.0932 26.5037 20.0671 26.7665 19.9485C28.0809 19.3548 29.4041 18.7808 30.7174 18.1848C31.0385 18.0391 31.1387 18.0749 31.1381 18.454C31.1294 23.5205 31.1322 28.587 31.1378 33.6535C31.1381 33.9162 31.0664 34.0585 30.8004 34.1731C29.2322 34.8485 27.6759 35.5517 26.1157 36.2455Z" fill="#2E8D94"/>
<path d="M25.9306 12.4961C27.0707 12.0079 28.2121 11.5228 29.3503 11.0302C29.7918 10.8391 30.2227 10.623 30.6657 10.4356C30.8147 10.3726 30.9462 10.3292 30.9145 10.1328C31.1591 10.1945 31.132 10.3944 31.1322 10.5736C31.1341 12.0522 31.1257 13.5308 31.1402 15.0092C31.143 15.299 31.0105 15.4133 30.7739 15.5167C29.1942 16.2069 27.6193 16.908 26.0428 17.6056C25.8705 17.4456 25.9346 17.2355 25.934 17.0451C25.9291 15.5287 25.9308 14.0124 25.9306 12.4961Z" fill="#2F8D94"/>
</g>
<defs>
<clipPath id="clip0_1_15553">
<rect width="36" height="36" fill="white" transform="translate(0 0.578125)"/>
</clipPath>
</defs>
</svg>
