<svg width="36" height="37" viewBox="0 0 36 37" fill="none" xmlns="http://www.w3.org/2000/svg">
<path d="M18.0866 25.4389C22.0193 25.4389 25.2074 22.2508 25.2074 18.3181C25.2074 14.3854 22.0193 11.1973 18.0866 11.1973C14.1539 11.1973 10.9658 14.3854 10.9658 18.3181C10.9658 22.2508 14.1539 25.4389 18.0866 25.4389Z" fill="#7300BE"/>
<path d="M18.1725 19.4211C18.8723 19.4211 19.4397 18.8538 19.4397 18.1539C19.4397 17.4541 18.8723 16.8867 18.1725 16.8867C17.4726 16.8867 16.9053 17.4541 16.9053 18.1539C16.9053 18.8538 17.4726 19.4211 18.1725 19.4211Z" fill="white"/>
<path d="M24.8397 27.7302C25.7662 27.7302 26.5173 26.9791 26.5173 26.0526C26.5173 25.1261 25.7662 24.375 24.8397 24.375C23.9132 24.375 23.1621 25.1261 23.1621 26.0526C23.1621 26.9791 23.9132 27.7302 24.8397 27.7302Z" fill="#7300BE"/>
<path d="M27.0072 7.07297C28.387 7.07297 29.5056 5.9544 29.5056 4.57457C29.5056 3.19474 28.387 2.07617 27.0072 2.07617C25.6274 2.07617 24.5088 3.19474 24.5088 4.57457C24.5088 5.9544 25.6274 7.07297 27.0072 7.07297Z" fill="#7300BE"/>
<path d="M21.0673 19.9025C20.8153 19.6937 20.4337 19.7369 20.2177 19.9817C19.6993 20.5577 18.9577 20.8889 18.1801 20.8889C17.6329 20.8889 17.1145 20.7305 16.6753 20.4425L17.3521 19.7801C16.9777 19.5929 16.6753 19.2761 16.5097 18.8945L15.3361 20.0465L15.2785 20.1113C15.0769 20.3201 15.0841 20.6513 15.2857 20.8673L15.3289 20.9105C16.0849 21.6953 17.0929 22.1273 18.1801 22.1273C19.3105 22.1273 20.3905 21.6449 21.1393 20.7953C21.3697 20.5217 21.3337 20.1185 21.0673 19.9025Z" fill="white"/>
<path d="M16.3294 16.1235C16.8334 15.6627 17.4886 15.4107 18.1726 15.4107C18.691 15.4107 19.195 15.5547 19.6198 15.8211L18.8782 16.5483C19.2598 16.7211 19.5694 17.0235 19.7494 17.4051L21.0166 16.1667C21.2326 15.9507 21.2326 15.6051 21.0238 15.3891C20.3398 14.7051 19.447 14.2659 18.4822 14.1939C17.3734 14.1075 16.3006 14.4819 15.4942 15.2307C15.2422 15.4683 15.2278 15.8715 15.4798 16.1163C15.7102 16.3539 16.0918 16.3467 16.3294 16.1235Z" fill="white"/>
<path d="M18.072 29.1987C17.8776 29.1987 17.7192 29.0403 17.7264 28.8459C17.7264 28.6515 17.8848 28.4931 18.0792 28.5003C18.2736 28.5003 18.432 28.6587 18.4248 28.8531C18.4176 29.0475 18.2664 29.1987 18.072 29.1987ZM19.368 28.7811C19.3392 28.5939 19.4688 28.4139 19.656 28.3851C19.8504 28.3563 20.0232 28.4859 20.052 28.6731C20.0808 28.8675 19.9512 29.0403 19.7568 29.0691C19.7424 29.0691 19.7208 29.0763 19.7064 29.0763C19.5408 29.0763 19.3968 28.9539 19.368 28.7811ZM16.3728 29.0691C16.1856 29.0403 16.0488 28.8603 16.0848 28.6659C16.1136 28.4787 16.2936 28.3419 16.488 28.3779C16.6752 28.4067 16.812 28.5867 16.776 28.7811C16.7472 28.9539 16.596 29.0763 16.4304 29.0763C16.4088 29.0691 16.3944 29.0691 16.3728 29.0691ZM20.9808 28.4571C20.9232 28.2699 21.024 28.0755 21.204 28.0179C21.384 27.9603 21.5856 28.0611 21.6432 28.2411C21.7008 28.4211 21.6 28.6227 21.42 28.6803C21.384 28.6947 21.348 28.6947 21.312 28.6947C21.168 28.6947 21.0312 28.6011 20.9808 28.4571ZM14.724 28.6659C14.544 28.6083 14.4432 28.4067 14.5008 28.2267C14.5584 28.0395 14.76 27.9459 14.94 28.0035C15.12 28.0611 15.2208 28.2627 15.1632 28.4427C15.1128 28.5939 14.976 28.6803 14.832 28.6803C14.796 28.6875 14.76 28.6803 14.724 28.6659ZM22.5288 27.8739C22.4424 27.7011 22.5072 27.4923 22.68 27.4059C22.8528 27.3195 23.0616 27.3843 23.148 27.5571C23.2344 27.7299 23.1696 27.9387 22.9968 28.0251C22.9464 28.0539 22.8888 28.0611 22.8384 28.0611C22.7088 28.0683 22.5864 27.9963 22.5288 27.8739ZM13.1472 28.0179C12.9744 27.9315 12.9096 27.7155 12.996 27.5499C13.0824 27.3771 13.2912 27.3123 13.464 27.3987C13.6368 27.4851 13.7016 27.6939 13.6152 27.8667C13.5504 27.9891 13.428 28.0539 13.3056 28.0539C13.2552 28.0539 13.2048 28.0395 13.1472 28.0179ZM23.9616 27.0675C23.8464 26.9091 23.8824 26.6931 24.0408 26.5779C24.1992 26.4627 24.4152 26.4987 24.5304 26.6571C24.6456 26.8155 24.6096 27.0315 24.4512 27.1467C24.3864 27.1899 24.3144 27.2115 24.2424 27.2115C24.1344 27.2115 24.0264 27.1611 23.9616 27.0675ZM11.7 27.1251C11.5416 27.0099 11.5128 26.7939 11.6208 26.6355C11.736 26.4771 11.952 26.4483 12.1104 26.5563C12.2688 26.6715 12.2976 26.8875 12.1896 27.0459C12.1248 27.1395 12.0168 27.1899 11.9088 27.1899C11.8368 27.1899 11.7648 27.1683 11.7 27.1251ZM25.2504 26.0379C25.1136 25.9011 25.1136 25.6779 25.2504 25.5411C25.3872 25.4043 25.6104 25.4043 25.7472 25.5411C25.884 25.6779 25.884 25.9011 25.7472 26.0379C25.6824 26.1027 25.5888 26.1387 25.5024 26.1387C25.4088 26.1387 25.3152 26.1099 25.2504 26.0379ZM10.4112 26.0163C10.2744 25.8795 10.2744 25.6563 10.4112 25.5195C10.548 25.3827 10.7712 25.3827 10.908 25.5195C11.0448 25.6563 11.0448 25.8795 10.908 26.0163C10.8432 26.0811 10.7496 26.1171 10.6632 26.1171C10.5696 26.1171 10.476 26.0883 10.4112 26.0163ZM26.3592 24.8283C26.2008 24.7131 26.172 24.4971 26.28 24.3387C26.3952 24.1803 26.6112 24.1515 26.7696 24.2595C26.928 24.3747 26.9568 24.5907 26.8488 24.7491C26.784 24.8427 26.676 24.8931 26.568 24.8931C26.496 24.8931 26.424 24.8715 26.3592 24.8283ZM9.30956 24.7203C9.19436 24.5619 9.23036 24.3459 9.38876 24.2307C9.54716 24.1155 9.76316 24.1515 9.87836 24.3099C9.99356 24.4683 9.95756 24.6843 9.79916 24.7995C9.73436 24.8427 9.66236 24.8643 9.59036 24.8643C9.48236 24.8643 9.37436 24.8139 9.30956 24.7203ZM27.2736 23.4531C27.1008 23.3667 27.036 23.1507 27.1224 22.9851C27.2088 22.8123 27.4248 22.7475 27.5904 22.8339C27.7632 22.9203 27.828 23.1363 27.7416 23.3019C27.6768 23.4243 27.5544 23.4891 27.432 23.4891C27.3744 23.4891 27.324 23.4819 27.2736 23.4531ZM8.41676 23.2731C8.33036 23.1003 8.39516 22.8915 8.56796 22.8051C8.74076 22.7187 8.94956 22.7835 9.03596 22.9563C9.12236 23.1291 9.05756 23.3379 8.88476 23.4243C8.83436 23.4531 8.77676 23.4603 8.72636 23.4603C8.60396 23.4603 8.48156 23.3883 8.41676 23.2731ZM27.9576 21.9555C27.7776 21.8979 27.6768 21.6963 27.7344 21.5163C27.792 21.3363 27.9936 21.2355 28.1736 21.2931C28.3536 21.3507 28.4544 21.5523 28.3968 21.7323C28.3464 21.8835 28.2096 21.9699 28.0656 21.9699C28.0296 21.9699 27.9936 21.9699 27.9576 21.9555ZM7.76876 21.6963C7.71116 21.5163 7.81196 21.3147 7.99196 21.2571C8.17196 21.1995 8.37356 21.3003 8.43116 21.4803C8.48876 21.6603 8.38796 21.8619 8.20796 21.9195C8.17196 21.9339 8.13596 21.9339 8.09996 21.9339C7.95596 21.9411 7.81916 21.8475 7.76876 21.6963ZM28.3968 20.3643C28.2096 20.3355 28.0728 20.1555 28.1088 19.9611C28.1376 19.7739 28.3176 19.6371 28.512 19.6731C28.6992 19.7019 28.836 19.8819 28.8 20.0763C28.7712 20.2491 28.6272 20.3715 28.4544 20.3715C28.4328 20.3715 28.4112 20.3715 28.3968 20.3643ZM7.37276 20.0403C7.34396 19.8459 7.47356 19.6731 7.66076 19.6443C7.85516 19.6155 8.02796 19.7451 8.05676 19.9323C8.08556 20.1267 7.95596 20.2995 7.76876 20.3283C7.74716 20.3283 7.73276 20.3355 7.71116 20.3355C7.55276 20.3355 7.40156 20.2131 7.37276 20.0403ZM28.584 18.7299C28.3896 18.7299 28.2384 18.5715 28.2384 18.3771V18.3699C28.2384 18.3699 28.2384 18.3627 28.2384 18.3555C28.2384 18.1611 28.3968 18.0027 28.5912 18.0027C28.7856 18.0027 28.944 18.1611 28.944 18.3555C28.944 18.3555 28.944 18.3627 28.944 18.3699C28.944 18.3699 28.944 18.3771 28.944 18.3843C28.9296 18.5715 28.7784 18.7299 28.584 18.7299ZM7.24316 18.3483C7.24316 18.1539 7.40156 18.0027 7.59596 18.0027C7.79036 18.0027 7.94876 18.1611 7.94876 18.3555C7.94876 18.5499 7.79036 18.7083 7.59596 18.7083C7.40156 18.6939 7.24316 18.5427 7.24316 18.3483ZM28.1088 16.7715C28.08 16.5771 28.2096 16.4043 28.3968 16.3683C28.584 16.3395 28.764 16.4691 28.7928 16.6635C28.8216 16.8507 28.692 17.0307 28.5048 17.0595C28.4832 17.0595 28.4688 17.0667 28.4472 17.0667C28.2816 17.0667 28.1376 16.9443 28.1088 16.7715ZM7.66796 17.0523C7.47356 17.0235 7.34396 16.8435 7.37996 16.6491C7.40876 16.4619 7.58876 16.3251 7.78316 16.3611C7.97036 16.3899 8.09996 16.5699 8.07116 16.7571C8.04236 16.9299 7.89836 17.0523 7.72556 17.0523C7.70396 17.0523 7.68956 17.0523 7.66796 17.0523ZM27.7416 15.2235C27.684 15.0435 27.7848 14.8419 27.9648 14.7843C28.1448 14.7267 28.3464 14.8275 28.404 15.0075C28.4616 15.1875 28.3608 15.3891 28.1808 15.4467C28.1448 15.4611 28.1088 15.4611 28.0728 15.4611C27.9216 15.4683 27.7848 15.3747 27.7416 15.2235ZM7.99916 15.4395C7.81916 15.3819 7.71836 15.1803 7.77596 15.0003C7.83356 14.8203 8.03516 14.7195 8.21516 14.7771C8.39516 14.8347 8.49596 15.0363 8.43836 15.2163C8.38796 15.3675 8.25116 15.4611 8.10716 15.4611C8.07116 15.4539 8.03516 15.4467 7.99916 15.4395ZM27.1296 13.7547C27.0432 13.5819 27.108 13.3731 27.2808 13.2867C27.4536 13.2003 27.6624 13.2651 27.7488 13.4379C27.8352 13.6107 27.7704 13.8195 27.5976 13.9059C27.5472 13.9347 27.4896 13.9419 27.4392 13.9419C27.3168 13.9419 27.1944 13.8771 27.1296 13.7547ZM8.58236 13.8987C8.40956 13.8123 8.34476 13.6035 8.43116 13.4307C8.51756 13.2579 8.73356 13.1931 8.89916 13.2795C9.07196 13.3659 9.13676 13.5819 9.05036 13.7475C8.99276 13.8699 8.86316 13.9347 8.74076 13.9347C8.68316 13.9347 8.63276 13.9203 8.58236 13.8987ZM26.2944 12.3939C26.1792 12.2355 26.2152 12.0195 26.3736 11.9043C26.532 11.7891 26.748 11.8251 26.8632 11.9835C26.9784 12.1419 26.9424 12.3579 26.784 12.4731C26.7192 12.5163 26.6472 12.5379 26.5752 12.5379C26.4744 12.5379 26.3664 12.4875 26.2944 12.3939ZM9.39596 12.4659C9.23756 12.3507 9.20876 12.1347 9.31676 11.9763C9.43196 11.8179 9.64796 11.7891 9.80636 11.8971C9.96476 12.0123 9.99356 12.2283 9.88556 12.3867C9.82076 12.4803 9.71276 12.5307 9.60476 12.5307C9.53276 12.5307 9.46076 12.5091 9.39596 12.4659ZM25.2648 11.1843C25.128 11.0475 25.128 10.8243 25.2648 10.6875C25.4016 10.5507 25.6248 10.5507 25.7616 10.6875C25.8984 10.8243 25.8984 11.0475 25.7616 11.1843C25.6968 11.2491 25.6032 11.2851 25.5168 11.2851C25.4232 11.2923 25.3296 11.2563 25.2648 11.1843ZM10.4256 11.1771C10.2888 11.0403 10.2888 10.8171 10.4256 10.6803C10.5624 10.5435 10.7856 10.5435 10.9224 10.6803C11.0592 10.8171 11.0592 11.0403 10.9224 11.1771C10.8576 11.2419 10.764 11.2779 10.6776 11.2779C10.584 11.2851 10.4904 11.2491 10.4256 11.1771ZM24.0552 10.1547C23.8968 10.0395 23.868 9.82353 23.976 9.66513C24.0912 9.50673 24.3072 9.47793 24.4656 9.58593C24.624 9.70113 24.6528 9.91713 24.5448 10.0755C24.48 10.1691 24.372 10.2195 24.264 10.2195C24.1848 10.2195 24.1128 10.1979 24.0552 10.1547ZM11.6424 10.0683C11.5272 9.90993 11.5632 9.69393 11.7216 9.57873C11.88 9.46353 12.096 9.49953 12.2112 9.65793C12.3264 9.81633 12.2904 10.0323 12.132 10.1475C12.0672 10.1907 11.9952 10.2123 11.9232 10.2123C11.8152 10.2123 11.7072 10.1619 11.6424 10.0683ZM22.6944 9.31953C22.5216 9.23313 22.4568 9.02433 22.5432 8.85153C22.6296 8.67873 22.8384 8.61393 23.0112 8.70033C23.184 8.78673 23.2488 8.99553 23.1624 9.16833C23.0976 9.29073 22.9752 9.35553 22.8528 9.35553C22.8024 9.35553 22.7448 9.34113 22.6944 9.31953ZM13.0176 9.16113C12.9312 8.98833 12.996 8.77953 13.1688 8.69313C13.3416 8.60673 13.5504 8.67153 13.6368 8.84433C13.7232 9.01713 13.6584 9.22593 13.4856 9.31233C13.4352 9.34113 13.3776 9.34833 13.3272 9.34833C13.2048 9.35553 13.0824 9.28353 13.0176 9.16113ZM21.2256 8.70753C21.0456 8.64993 20.9448 8.44833 21.0024 8.26833C21.06 8.08833 21.2616 7.98753 21.4416 8.04513C21.6288 8.10273 21.7224 8.30433 21.6648 8.48433C21.6144 8.63553 21.4776 8.72913 21.3336 8.72913C21.2976 8.72913 21.2616 8.72193 21.2256 8.70753ZM14.5152 8.47713C14.4576 8.29713 14.5584 8.09553 14.7384 8.03793C14.9184 7.98033 15.12 8.08113 15.1776 8.26113C15.2352 8.44833 15.1344 8.64273 14.9544 8.70033C14.9184 8.71473 14.8824 8.71473 14.8464 8.71473C14.7024 8.72193 14.5656 8.62833 14.5152 8.47713ZM19.6776 8.34033C19.4904 8.31153 19.3536 8.13153 19.3896 7.93713C19.4184 7.74993 19.5984 7.61313 19.7856 7.64913C19.9728 7.67793 20.1096 7.85793 20.0736 8.04513C20.0448 8.21793 19.9008 8.34033 19.728 8.34033C19.7208 8.34033 19.6992 8.34033 19.6776 8.34033ZM16.1064 8.04513C16.0776 7.85073 16.2072 7.67793 16.4016 7.64193C16.5888 7.61313 16.7688 7.74273 16.7976 7.92993C16.8264 8.11713 16.6968 8.29713 16.5024 8.32593C16.4808 8.32593 16.4664 8.33313 16.4448 8.33313C16.2792 8.34033 16.1352 8.21793 16.1064 8.04513ZM17.748 7.86513C17.748 7.67073 17.9064 7.51953 18.1008 7.51953C18.2952 7.51953 18.4536 7.67793 18.4536 7.87233C18.4536 8.06673 18.2952 8.22513 18.1008 8.22513C17.8992 8.21073 17.7408 8.05953 17.748 7.86513Z" fill="#7300BE"/>
<path d="M18.5036 34.9874C18.4964 34.793 18.6476 34.6274 18.8348 34.6202C19.0292 34.613 19.1948 34.757 19.202 34.9514C19.2092 35.1458 19.058 35.3114 18.8708 35.3186C18.8636 35.3186 18.8636 35.3186 18.8564 35.3186C18.662 35.3186 18.5108 35.1746 18.5036 34.9874ZM17.2508 35.3186C17.0564 35.3114 16.9124 35.1458 16.9196 34.9514C16.9268 34.757 17.0924 34.613 17.2868 34.6202C17.4812 34.6274 17.6252 34.793 17.618 34.9874C17.6108 35.1746 17.4524 35.3186 17.2724 35.3186C17.2652 35.3186 17.258 35.3186 17.2508 35.3186ZM20.0804 34.8722C20.0516 34.6778 20.1884 34.505 20.3756 34.4762C20.57 34.4474 20.7428 34.5842 20.7716 34.7714C20.8004 34.9658 20.6636 35.1386 20.4764 35.1674C20.462 35.1674 20.4404 35.1674 20.426 35.1674C20.2532 35.1746 20.102 35.045 20.0804 34.8722ZM15.6452 35.1602C15.458 35.1314 15.3212 34.9586 15.35 34.7642C15.3788 34.5698 15.5588 34.4402 15.746 34.469C15.9404 34.4978 16.07 34.6706 16.0412 34.865C16.0196 35.0378 15.8684 35.1674 15.6956 35.1674C15.674 35.1674 15.6596 35.1674 15.6452 35.1602ZM21.6428 34.613C21.5996 34.4258 21.7148 34.2386 21.902 34.1882C22.0892 34.145 22.2764 34.2602 22.3196 34.4474C22.3628 34.6346 22.2476 34.8218 22.0604 34.8722C22.0316 34.8794 22.0028 34.8794 21.9812 34.8794C21.8228 34.8794 21.6788 34.7714 21.6428 34.613ZM14.054 34.8578C13.8668 34.8146 13.7516 34.6202 13.7948 34.433C13.838 34.2458 14.0324 34.1306 14.2196 34.1738C14.4068 34.217 14.522 34.4114 14.4788 34.5986C14.4428 34.757 14.2988 34.865 14.1404 34.865C14.1116 34.865 14.0828 34.865 14.054 34.8578ZM23.1692 34.2026C23.1044 34.0226 23.2052 33.821 23.3852 33.7562C23.5652 33.6914 23.7668 33.7922 23.8316 33.9722C23.8964 34.1522 23.7956 34.3538 23.6156 34.4186C23.5796 34.433 23.5364 34.4402 23.5004 34.4402C23.3564 34.4402 23.2196 34.3466 23.1692 34.2026ZM12.506 34.397C12.326 34.3322 12.2252 34.1378 12.29 33.9506C12.3548 33.7706 12.5492 33.6698 12.7364 33.7346C12.9164 33.7994 13.0172 34.001 12.9524 34.181C12.902 34.325 12.7652 34.4186 12.6212 34.4186C12.5852 34.4186 12.542 34.4114 12.506 34.397ZM24.6524 33.6482C24.5732 33.4754 24.6524 33.2666 24.8252 33.1874C24.998 33.1082 25.2068 33.1874 25.286 33.3602C25.3652 33.533 25.286 33.7418 25.1132 33.821C25.0628 33.8426 25.0196 33.8498 24.9692 33.8498C24.8396 33.8498 24.71 33.7778 24.6524 33.6482ZM11.0084 33.7922C10.8356 33.713 10.7564 33.5042 10.8356 33.3314C10.9148 33.1586 11.1236 33.0794 11.2964 33.1586C11.4692 33.2378 11.5484 33.4466 11.4692 33.6194C11.4116 33.749 11.282 33.821 11.1524 33.821C11.1092 33.8282 11.0588 33.821 11.0084 33.7922ZM26.0708 32.9498C25.9772 32.7842 26.0348 32.5682 26.2004 32.4746C26.366 32.381 26.582 32.4386 26.6756 32.6042C26.7692 32.7698 26.7116 32.9858 26.546 33.0794C26.4884 33.1082 26.4308 33.1226 26.3732 33.1226C26.258 33.1298 26.1356 33.065 26.0708 32.9498ZM9.5756 33.0506C9.41 32.957 9.3524 32.741 9.446 32.5754C9.5396 32.4098 9.7556 32.3522 9.9212 32.4458C10.0868 32.5394 10.1444 32.7554 10.0508 32.921C9.986 33.0362 9.8708 33.0938 9.7484 33.0938C9.6908 33.101 9.6332 33.0866 9.5756 33.0506ZM27.4244 32.129C27.3092 31.9706 27.3524 31.7546 27.5036 31.6394C27.662 31.5242 27.878 31.5674 27.9932 31.7186C28.1084 31.877 28.0652 32.093 27.914 32.2082C27.8564 32.2514 27.7844 32.273 27.7124 32.273C27.5972 32.273 27.4892 32.2226 27.4244 32.129ZM8.2148 32.1722C8.0564 32.057 8.0204 31.841 8.1356 31.6826C8.2508 31.5242 8.4668 31.4882 8.6252 31.6034C8.7836 31.7186 8.8196 31.9346 8.7044 32.093C8.6396 32.1866 8.5316 32.237 8.4164 32.237C8.3516 32.2442 8.2796 32.2226 8.2148 32.1722ZM28.6916 31.1786C28.5692 31.0346 28.5836 30.8114 28.7276 30.689C28.8716 30.5594 29.0948 30.581 29.2172 30.725C29.3396 30.869 29.3252 31.0922 29.1812 31.2146C29.1164 31.2722 29.0372 31.301 28.9508 31.301C28.8572 31.2938 28.7564 31.2578 28.6916 31.1786ZM6.9476 31.1714C6.8036 31.0418 6.7892 30.8258 6.9116 30.6818C7.0412 30.5378 7.2572 30.5234 7.4012 30.6458C7.5452 30.7682 7.5596 30.9914 7.4372 31.1354C7.3652 31.2146 7.2716 31.2578 7.1708 31.2578C7.0988 31.2578 7.0196 31.229 6.9476 31.1714ZM29.858 30.113C29.7212 29.9762 29.714 29.7602 29.8508 29.6162C29.9876 29.4794 30.2036 29.4722 30.3476 29.6018C30.4844 29.7386 30.4916 29.9546 30.362 30.0986C30.29 30.1706 30.2036 30.2066 30.11 30.2066C30.0092 30.2066 29.9228 30.1778 29.858 30.113ZM5.7812 30.0554C5.6516 29.9186 5.6516 29.6954 5.7956 29.5586C5.9324 29.429 6.1556 29.429 6.2924 29.573C6.422 29.7098 6.422 29.933 6.278 30.0698C6.2132 30.1346 6.1268 30.1634 6.0404 30.1634C5.9468 30.1634 5.8532 30.1274 5.7812 30.0554ZM30.9236 28.9394C30.7724 28.817 30.7436 28.601 30.866 28.4498C30.9884 28.2986 31.2044 28.2698 31.3556 28.3922C31.5068 28.5146 31.5356 28.7306 31.4132 28.8818C31.3412 28.9682 31.2404 29.0114 31.1396 29.0114C31.0604 29.0114 30.9884 28.9898 30.9236 28.9394ZM4.7228 28.8386C4.6004 28.6874 4.6292 28.4642 4.7804 28.349C4.9316 28.2266 5.1548 28.2554 5.27 28.4066C5.3924 28.5578 5.3636 28.781 5.2124 28.8962C5.1476 28.9466 5.0684 28.9682 4.9964 28.9682C4.8956 28.9682 4.7948 28.925 4.7228 28.8386ZM31.874 27.6722C31.7156 27.5642 31.6652 27.3482 31.7732 27.1898C31.8812 27.0314 32.0972 26.981 32.2556 27.089C32.414 27.1898 32.4644 27.413 32.3564 27.5714C32.2916 27.6722 32.1764 27.7298 32.0612 27.7298C31.9964 27.7298 31.9316 27.7082 31.874 27.6722ZM3.7868 27.521C3.686 27.3626 3.7292 27.1394 3.8948 27.0386C4.0604 26.9306 4.2764 26.981 4.3772 27.1466C4.478 27.3122 4.4348 27.5282 4.2692 27.629C4.2116 27.665 4.1468 27.6866 4.082 27.6866C3.9668 27.6794 3.8588 27.6218 3.7868 27.521ZM32.6948 26.3186C32.522 26.2322 32.4572 26.0162 32.5436 25.8506C32.63 25.6778 32.846 25.613 33.0116 25.6994C33.1844 25.7858 33.2492 26.0018 33.1628 26.1674C33.098 26.2898 32.9756 26.3546 32.8532 26.3546C32.8028 26.3618 32.7452 26.3474 32.6948 26.3186ZM2.9804 26.117C2.894 25.9442 2.9588 25.7354 3.1316 25.649C3.3044 25.5626 3.5132 25.6274 3.5996 25.8002C3.686 25.973 3.6212 26.1818 3.4484 26.2682C3.398 26.297 3.3404 26.3042 3.29 26.3042C3.1676 26.3114 3.0452 26.2394 2.9804 26.117ZM33.386 24.893C33.206 24.821 33.1196 24.6194 33.1916 24.4394C33.2636 24.2594 33.4652 24.173 33.6452 24.245C33.8252 24.317 33.9116 24.5186 33.8396 24.6986C33.782 24.8354 33.6524 24.9146 33.5156 24.9146C33.4724 24.9218 33.4292 24.9146 33.386 24.893ZM2.3108 24.6482C2.2388 24.4682 2.3252 24.2666 2.5052 24.1946C2.6852 24.1226 2.8868 24.209 2.9588 24.389C3.0308 24.569 2.9444 24.7706 2.7644 24.8426C2.7212 24.857 2.678 24.8642 2.6348 24.8642C2.498 24.8714 2.3684 24.785 2.3108 24.6482ZM33.9404 23.417C33.7532 23.3594 33.6524 23.165 33.7028 22.985C33.7604 22.7978 33.9548 22.697 34.1348 22.7474C34.322 22.805 34.4228 22.9994 34.3724 23.1794C34.3292 23.3306 34.1852 23.4314 34.0412 23.4314C34.0052 23.4314 33.9692 23.4242 33.9404 23.417ZM1.7852 23.1218C1.7348 22.9346 1.8356 22.7402 2.0228 22.6898C2.21 22.6394 2.4044 22.7402 2.4548 22.9274C2.5124 23.1146 2.4044 23.309 2.2172 23.3594C2.1884 23.3666 2.1524 23.3738 2.1164 23.3738C1.9724 23.3738 1.8284 23.273 1.7852 23.1218ZM34.3436 21.8834C34.1564 21.8474 34.0268 21.6602 34.07 21.473C34.106 21.2858 34.2932 21.1634 34.4804 21.1994C34.6676 21.2354 34.79 21.4226 34.754 21.6098C34.7252 21.7754 34.574 21.8906 34.4084 21.8906C34.394 21.8906 34.3652 21.8906 34.3436 21.8834ZM1.4108 21.5522C1.3748 21.365 1.4972 21.1778 1.6916 21.1418C1.8788 21.1058 2.066 21.2282 2.102 21.4226C2.138 21.6098 2.0156 21.797 1.8212 21.833C1.7996 21.8402 1.778 21.8402 1.7564 21.8402C1.5836 21.833 1.4396 21.7178 1.4108 21.5522ZM34.6028 20.321C34.4084 20.2994 34.2716 20.1338 34.286 19.9394C34.3076 19.745 34.4732 19.6082 34.6676 19.6226C34.862 19.6442 34.9988 19.8098 34.9844 20.0042C34.97 20.1842 34.8116 20.321 34.6388 20.321C34.6316 20.3282 34.6172 20.3282 34.6028 20.321ZM1.1804 19.9538C1.1588 19.7594 1.3028 19.5938 1.4972 19.5722C1.6916 19.5578 1.8572 19.6946 1.8788 19.889C1.9004 20.0834 1.7564 20.249 1.562 20.2706C1.5476 20.2706 1.5404 20.2706 1.526 20.2706C1.3532 20.2706 1.202 20.1338 1.1804 19.9538ZM34.718 18.7442C34.5236 18.7442 34.3652 18.5858 34.3724 18.3914C34.3724 18.3842 34.3724 18.377 34.3724 18.3698C34.3724 18.3626 34.3724 18.3554 34.3724 18.3482C34.3724 18.1538 34.5308 17.9954 34.7252 17.9954C34.9196 17.9954 35.078 18.1538 35.078 18.3482C35.078 18.3554 35.078 18.3626 35.078 18.3698C35.078 18.377 35.078 18.3842 35.078 18.3914C35.0636 18.593 34.9124 18.7442 34.718 18.7442ZM1.4612 18.6866C1.2668 18.6866 1.1084 18.5282 1.1084 18.3338C1.1084 18.1394 1.2668 17.981 1.4612 17.981C1.6556 17.981 1.8068 18.1394 1.8068 18.3338C1.8068 18.5354 1.6484 18.6866 1.4612 18.6866ZM34.2932 16.8074C34.2716 16.613 34.4156 16.4474 34.61 16.4258C34.8044 16.4114 34.97 16.5482 34.9916 16.7426C35.0132 16.937 34.8692 17.1026 34.6748 17.1242C34.6604 17.1242 34.6532 17.1242 34.6388 17.1242C34.466 17.1314 34.3148 16.9946 34.2932 16.8074ZM1.5044 17.1098C1.31 17.0882 1.1732 16.9226 1.1876 16.7282C1.2092 16.5338 1.3748 16.397 1.5692 16.4114C1.7636 16.433 1.9004 16.5986 1.886 16.793C1.8716 16.973 1.7132 17.1098 1.5404 17.1098C1.526 17.1098 1.5116 17.1098 1.5044 17.1098ZM34.0772 15.281C34.0412 15.0938 34.1636 14.9066 34.3508 14.8706C34.538 14.8346 34.7252 14.957 34.7612 15.1514C34.7972 15.3386 34.6748 15.5258 34.4804 15.5618C34.4588 15.569 34.4372 15.569 34.4156 15.569C34.2572 15.5618 34.106 15.4466 34.0772 15.281ZM1.6916 15.533C1.5044 15.497 1.3748 15.3098 1.418 15.1226C1.454 14.9354 1.634 14.813 1.8284 14.849C2.0156 14.885 2.1452 15.0722 2.102 15.2594C2.0732 15.425 1.922 15.5402 1.7564 15.5402C1.7348 15.5402 1.7132 15.5402 1.6916 15.533ZM33.71 13.769C33.6524 13.5818 33.7604 13.3874 33.9476 13.337C34.1348 13.2794 34.3292 13.3874 34.3796 13.5746C34.4372 13.7618 34.3292 13.9562 34.142 14.0066C34.106 14.0138 34.0772 14.021 34.0412 14.021C33.8972 14.021 33.7604 13.9274 33.71 13.769ZM2.0372 13.9922C1.85 13.9346 1.742 13.7402 1.7996 13.5602C1.8572 13.373 2.0516 13.2722 2.2316 13.3226C2.4188 13.3802 2.5196 13.5746 2.4692 13.7546C2.426 13.9058 2.2892 14.0066 2.138 14.0066C2.102 14.0066 2.066 13.9994 2.0372 13.9922ZM33.206 12.3074C33.134 12.1274 33.2204 11.9258 33.4004 11.8538C33.5804 11.7818 33.782 11.8682 33.854 12.0482C33.926 12.2282 33.8396 12.4298 33.6596 12.5018C33.6164 12.5162 33.5732 12.5306 33.53 12.5306C33.3932 12.5306 33.2636 12.4442 33.206 12.3074ZM2.5196 12.4874C2.3396 12.4154 2.2532 12.2138 2.3252 12.0338C2.3972 11.8538 2.5988 11.7674 2.7788 11.8394C2.9588 11.9114 3.0452 12.113 2.9732 12.293C2.9156 12.4298 2.786 12.509 2.6492 12.509C2.606 12.509 2.5628 12.5018 2.5196 12.4874ZM32.5652 10.9034C32.4788 10.7306 32.5436 10.5218 32.7164 10.4354C32.8892 10.349 33.098 10.4138 33.1844 10.5866C33.2708 10.7594 33.206 10.9682 33.0332 11.0546C32.9828 11.0834 32.9252 11.0906 32.8748 11.0906C32.7452 11.0906 32.6228 11.0186 32.5652 10.9034ZM3.1532 11.033C2.9804 10.9466 2.9156 10.7306 3.002 10.565C3.0884 10.3922 3.3044 10.3274 3.47 10.4138C3.6428 10.5002 3.7076 10.7162 3.6212 10.8818C3.5564 11.0042 3.434 11.069 3.3116 11.069C3.254 11.0762 3.2036 11.0618 3.1532 11.033ZM31.7876 9.55699C31.6868 9.39139 31.73 9.17539 31.8956 9.07459C32.0612 8.96659 32.2772 9.01699 32.378 9.18259C32.4788 9.34099 32.4356 9.56419 32.27 9.66499C32.2124 9.70099 32.1476 9.72259 32.0828 9.72259C31.9676 9.72259 31.8524 9.66499 31.7876 9.55699ZM3.9164 9.65059C3.758 9.54979 3.7076 9.32659 3.8156 9.16819C3.9236 9.00979 4.1396 8.95939 4.298 9.06739C4.4636 9.17539 4.5068 9.39139 4.3988 9.54979C4.334 9.65059 4.2188 9.70819 4.1036 9.70819C4.0388 9.70099 3.974 9.68659 3.9164 9.65059ZM30.8876 8.29699C30.7652 8.14579 30.794 7.92259 30.9452 7.80739C31.0964 7.68499 31.3196 7.71379 31.4348 7.86499C31.5572 8.01619 31.5284 8.23939 31.3772 8.35459C31.3124 8.40499 31.2332 8.42659 31.1612 8.42659C31.0604 8.43379 30.9596 8.38339 30.8876 8.29699ZM4.8092 8.34019C4.658 8.21779 4.6292 8.00179 4.7516 7.85059C4.874 7.69939 5.09 7.67059 5.2412 7.79299C5.3924 7.91539 5.4212 8.13139 5.2988 8.28259C5.2268 8.36899 5.126 8.41219 5.0252 8.41219C4.946 8.41939 4.874 8.39059 4.8092 8.34019ZM29.8724 7.12339C29.7356 6.98659 29.7428 6.76339 29.8868 6.62659C30.0236 6.48979 30.2468 6.49699 30.3836 6.64099C30.5132 6.77779 30.5132 7.00099 30.3692 7.13779C30.3044 7.20259 30.218 7.23139 30.1244 7.23139C30.0308 7.23859 29.9444 7.20259 29.8724 7.12339ZM5.8172 7.12339C5.6804 6.98659 5.6732 6.77059 5.8028 6.62659C5.9396 6.48979 6.1556 6.48259 6.2996 6.61219C6.4364 6.74899 6.4436 6.96499 6.314 7.10899C6.242 7.18099 6.1556 7.21699 6.062 7.21699C5.9756 7.22419 5.8892 7.18819 5.8172 7.12339ZM28.7492 6.05779C28.6052 5.93539 28.5908 5.71219 28.7132 5.56819C28.8428 5.42419 29.0588 5.40979 29.2028 5.53219C29.3468 5.66179 29.3612 5.87779 29.2388 6.02899C29.1668 6.10819 29.0732 6.15139 28.9724 6.15139C28.9004 6.14419 28.8212 6.11539 28.7492 6.05779ZM6.9404 6.00739C6.818 5.86339 6.8324 5.64019 6.9764 5.51779C7.1204 5.39539 7.3436 5.40979 7.466 5.55379C7.5956 5.69779 7.574 5.92099 7.43 6.04339C7.3652 6.10099 7.2788 6.12979 7.1996 6.12979C7.1132 6.12979 7.0124 6.09379 6.9404 6.00739ZM27.5324 5.10019C27.374 4.98499 27.338 4.76899 27.4532 4.61059C27.5684 4.45219 27.7844 4.41619 27.9428 4.53139C28.1012 4.64659 28.1372 4.86259 28.022 5.02099C27.9572 5.11459 27.8492 5.16499 27.734 5.16499C27.6692 5.16499 27.5972 5.14339 27.5324 5.10019ZM8.1644 5.00659C8.0492 4.84819 8.0852 4.63219 8.2436 4.51699C8.402 4.40179 8.618 4.44499 8.7332 4.59619C8.8484 4.75459 8.8052 4.97059 8.654 5.08579C8.5964 5.12899 8.5244 5.15059 8.4524 5.15059C8.3444 5.15059 8.2364 5.10019 8.1644 5.00659ZM26.2364 4.25779C26.0708 4.16419 26.0132 3.94819 26.1068 3.78259C26.2004 3.61699 26.4164 3.55939 26.582 3.65299C26.7476 3.74659 26.8052 3.96259 26.7116 4.12819C26.6468 4.24339 26.5316 4.30099 26.4092 4.30099C26.3516 4.30819 26.2868 4.29379 26.2364 4.25779ZM9.482 4.12099C9.3884 3.95539 9.446 3.73939 9.6116 3.64579C9.7772 3.55219 9.9932 3.60979 10.0868 3.77539C10.1804 3.94099 10.1228 4.15699 9.9572 4.25059C9.8996 4.27939 9.842 4.30099 9.7844 4.30099C9.662 4.29379 9.5468 4.23619 9.482 4.12099ZM24.854 3.54499C24.6812 3.46579 24.602 3.25699 24.6812 3.08419C24.7604 2.91139 24.9692 2.83219 25.142 2.91139C25.3148 2.99059 25.394 3.19939 25.3148 3.37219C25.2572 3.50179 25.1276 3.57379 24.998 3.57379C24.9548 3.58099 24.9044 3.56659 24.854 3.54499ZM10.8716 3.36499C10.7924 3.19219 10.8716 2.98339 11.0444 2.90419C11.2172 2.82499 11.426 2.90419 11.5052 3.07699C11.5844 3.24979 11.5052 3.45859 11.3324 3.53779C11.282 3.55939 11.2388 3.56659 11.1884 3.56659C11.0588 3.57379 10.9292 3.49459 10.8716 3.36499ZM23.4212 2.96899C23.2412 2.90419 23.1404 2.70979 23.2052 2.52259C23.27 2.34259 23.4716 2.24179 23.6516 2.30659C23.8316 2.37139 23.9324 2.57299 23.8676 2.75299C23.8172 2.89699 23.6804 2.99059 23.5364 2.99059C23.4932 2.99059 23.4572 2.98339 23.4212 2.96899ZM12.326 2.75299C12.2612 2.57299 12.362 2.37139 12.542 2.30659C12.722 2.24179 12.9236 2.34259 12.9884 2.52259C13.0532 2.70259 12.9524 2.90419 12.7724 2.96899C12.7364 2.98339 12.6932 2.99059 12.6572 2.99059C12.5132 2.98339 12.3764 2.89699 12.326 2.75299ZM21.9308 2.53699C21.7436 2.49379 21.6284 2.29939 21.6716 2.11219C21.7148 1.92499 21.9092 1.80979 22.0964 1.85299C22.2836 1.89619 22.3988 2.09059 22.3556 2.27779C22.3196 2.43619 22.1756 2.54419 22.0172 2.54419C21.9884 2.54419 21.9596 2.54419 21.9308 2.53699ZM13.838 2.27059C13.7948 2.08339 13.91 1.89619 14.0972 1.84579C14.2844 1.80259 14.4716 1.91779 14.522 2.10499C14.5652 2.29219 14.45 2.47939 14.2628 2.52979C14.234 2.53699 14.2052 2.53699 14.1836 2.53699C14.018 2.54419 13.874 2.43619 13.838 2.27059ZM20.4116 2.24179C20.2172 2.21299 20.0876 2.04019 20.1164 1.84579C20.1452 1.65139 20.318 1.52179 20.5124 1.55059C20.7068 1.57939 20.8364 1.75219 20.8076 1.94659C20.786 2.11939 20.6348 2.24899 20.462 2.24899C20.4476 2.24899 20.4332 2.24179 20.4116 2.24179ZM15.386 1.94659C15.3572 1.75219 15.494 1.57939 15.6812 1.55059C15.8756 1.52179 16.0484 1.65859 16.0772 1.84579C16.106 2.04019 15.9692 2.21299 15.782 2.24179C15.7676 2.24179 15.7532 2.24179 15.7316 2.24179C15.5588 2.24179 15.4076 2.11939 15.386 1.94659ZM18.8708 2.09779C18.6764 2.09059 18.5324 1.92499 18.5396 1.73059C18.5468 1.53619 18.7124 1.38499 18.9068 1.39939C19.1012 1.40659 19.2452 1.57219 19.238 1.76659C19.2308 1.95379 19.0724 2.09779 18.8852 2.09779C18.8852 2.09779 18.878 2.09779 18.8708 2.09779ZM16.9556 1.76659C16.9484 1.57219 17.0996 1.40659 17.2868 1.39939C17.4812 1.39219 17.6468 1.53619 17.654 1.73059C17.6612 1.92499 17.5172 2.09059 17.3228 2.09779C17.3156 2.09779 17.3156 2.09779 17.3084 2.09779C17.1212 2.09779 16.9628 1.94659 16.9556 1.76659Z" fill="#7300BE"/>
</svg>
