<svg width="36" height="37" viewBox="0 0 36 37" fill="none" xmlns="http://www.w3.org/2000/svg">
<path d="M15.8397 1.52273C13.0047 1.86473 10.1337 3.03473 7.7127 4.83473C6.9927 5.36573 5.0937 7.13873 4.9407 7.42673C4.8507 7.59773 4.8237 7.55273 6.8577 10.2527C8.7117 12.7277 8.7027 12.7187 8.8197 12.5387C9.6027 11.2427 11.2767 9.71273 12.9057 8.82173L13.3467 8.57873L14.0757 9.29873C15.4347 10.6487 16.1457 11.2787 16.2447 11.2067C16.2897 11.1617 18.0807 9.88373 20.2047 8.35373C22.3377 6.83273 24.6507 5.16773 25.3527 4.66373C26.2977 3.99773 26.6037 3.72773 26.5227 3.65573C26.3157 3.49373 24.9747 2.85473 24.1287 2.52173C21.6717 1.54973 18.6117 1.18073 15.8397 1.52273ZM27.4407 6.54473C25.3617 8.06573 23.9487 9.16373 23.9397 9.23573C23.9397 9.26273 24.2007 9.47873 24.5157 9.70373C25.6857 10.5407 26.8017 11.8007 27.6297 13.2497L28.0167 13.9157L27.6207 14.3297C27.4047 14.5637 26.7747 15.2207 26.2167 15.7877L25.2087 16.8227L26.4597 18.4877C31.2657 24.8597 32.8227 26.8937 32.9037 26.9207C32.9577 26.9387 33.1917 26.5787 33.4167 26.1197C36.7287 19.3967 35.2887 11.3867 29.8347 6.13973C29.4387 5.75273 29.0787 5.43773 29.0247 5.43773C28.9797 5.43773 28.2597 5.93273 27.4407 6.54473ZM2.6637 10.8917C0.611698 15.0497 0.278698 19.6037 1.7187 23.9327C2.3307 25.7777 3.2037 27.4247 4.4187 29.0357C4.9677 29.7647 6.8487 31.7177 6.9927 31.7177C7.1097 31.7087 12.0057 27.9917 12.0327 27.8927C12.0417 27.8387 11.8437 27.6587 11.5827 27.4877C10.9977 27.0917 9.6927 25.8047 9.2157 25.1477C8.7297 24.4817 8.0997 23.4107 8.0997 23.2487C8.0997 23.1767 8.7297 22.4927 9.4947 21.7277C10.2597 20.9627 10.8897 20.2967 10.8897 20.2607C10.8897 20.2157 9.7917 18.7397 8.4417 16.9757C3.6177 10.6487 3.1407 10.0277 3.1137 10.0277C3.0957 10.0277 2.8977 10.4147 2.6637 10.8917ZM26.9637 24.9227C26.2167 26.0567 24.5787 27.5147 23.2827 28.2077L22.6977 28.5137L21.2037 27.0917L19.7097 25.6697L18.5217 26.5517C17.8647 27.0467 15.5337 28.7837 13.3377 30.4307L9.3417 33.4187L10.4487 33.9587C14.7867 36.0557 19.4937 36.2987 23.8947 34.6697C25.7217 33.9947 27.3867 33.0497 28.8897 31.8347C29.5827 31.2767 31.1397 29.7107 31.1397 29.5757C31.1397 29.4587 27.4047 24.4277 27.3237 24.4277C27.3057 24.4277 27.1437 24.6527 26.9637 24.9227Z" fill="black"/>
</svg>
